<?xml version="1.0" encoding="UTF-8"?>
<svg id="Layer_2" xmlns="http://www.w3.org/2000/svg" width="273" height="187.7" xmlns:xlink="http://www.w3.org/1999/xlink" viewBox="0 0 273 187.7">
  <defs>
    <style>
      .cls-1 {
        fill: url(#linear-gradient);
      }

      .cls-1, .cls-2, .cls-3, .cls-4, .cls-5, .cls-6, .cls-7, .cls-8, .cls-9, .cls-10 {
        stroke: #000;
        stroke-miterlimit: 10;
      }

      .cls-2 {
        fill: url(#linear-gradient-3);
      }

      .cls-2, .cls-3, .cls-4, .cls-8, .cls-10 {
        stroke-width: 2px;
      }

      .cls-3 {
        fill: url(#linear-gradient-4);
      }

      .cls-4 {
        fill: url(#linear-gradient-5);
      }

      .cls-5 {
        fill: #fbb03b;
      }

      .cls-6 {
        fill: #7ccab8;
      }

      .cls-11 {
        fill: #ef5ea0;
      }

      .cls-7 {
        fill: url(#linear-gradient-2);
      }

      .cls-8 {
        fill: url(#linear-gradient-6);
      }

      .cls-9 {
        fill: #00957a;
      }

      .cls-10 {
        fill: #231f20;
      }
    </style>
    <linearGradient id="linear-gradient" x1="136.5" y1="187.2" x2="136.5" y2=".5" gradientUnits="userSpaceOnUse">
      <stop offset="0" stop-color="#fff9f0"/>
      <stop offset=".35" stop-color="#fff9f0"/>
      <stop offset=".66" stop-color="#b8dfff"/>
      <stop offset="1" stop-color="#b8dfff"/>
    </linearGradient>
    <linearGradient id="linear-gradient-2" x1="54.19" y1="2263.64" x2="96.26" y2="2274.92" gradientTransform="translate(2346.51 93.08) rotate(90.15)" gradientUnits="userSpaceOnUse">
      <stop offset="0" stop-color="#fff"/>
      <stop offset=".11" stop-color="#e2f2d9"/>
      <stop offset=".26" stop-color="#c1e2ab"/>
      <stop offset=".41" stop-color="#a5d586"/>
      <stop offset=".56" stop-color="#8fcb69"/>
      <stop offset=".71" stop-color="#80c454"/>
      <stop offset=".86" stop-color="#77c048"/>
      <stop offset="1" stop-color="#74bf44"/>
    </linearGradient>
    <linearGradient id="linear-gradient-3" x1="169.74" y1="166.62" x2="188.58" y2="166.62" gradientUnits="userSpaceOnUse">
      <stop offset="0" stop-color="#fff"/>
      <stop offset=".03" stop-color="#fff9e6"/>
      <stop offset=".1" stop-color="#ffefbb"/>
      <stop offset=".17" stop-color="#ffe795"/>
      <stop offset=".24" stop-color="#ffe074"/>
      <stop offset=".32" stop-color="#ffda5a"/>
      <stop offset=".41" stop-color="#ffd546"/>
      <stop offset=".51" stop-color="#ffd237"/>
      <stop offset=".63" stop-color="#ffd02f"/>
      <stop offset=".83" stop-color="#ffd02d"/>
    </linearGradient>
    <linearGradient id="linear-gradient-4" x1="95.59" y1="21.12" x2="114.43" y2="21.12" xlink:href="#linear-gradient-3"/>
    <linearGradient id="linear-gradient-5" x1="224.8" y1="44.64" x2="243.64" y2="44.64" xlink:href="#linear-gradient-3"/>
    <linearGradient id="linear-gradient-6" x1="42.65" y1="32.99" x2="61.49" y2="32.99" xlink:href="#linear-gradient-3"/>
  </defs>
  <g id="Layer_2-2" data-name="Layer_2">
    <rect class="cls-1" x=".5" y=".5" width="272" height="186.7"/>
    <g>
      <path class="cls-11" d="M247.94,69.71c.5,1.87.64,3.76.41,5.68-.22,1.82-.68,3.6-.95,5.41-.24,1.6-.33,3.23,0,4.83.36,1.78,1.28,3.39,2.22,4.92.51.82,1.8.07,1.3-.76-.94-1.53-1.86-3.12-2.13-4.93s.05-3.72.4-5.53c.65-3.4,1.13-6.62.21-10.03-.25-.93-1.7-.54-1.45.4h0Z"/>
      <path class="cls-11" d="M247.4,69.54c-1.16,1.26-2.29,2.6-2.88,4.23-.66,1.82-.22,3.55.34,5.33,1.17,3.76.69,7.69-1.51,10.97-.54.8.76,1.56,1.3.76,1.93-2.88,2.73-6.41,2.21-9.84-.27-1.81-1.3-3.61-1.19-5.46.12-1.95,1.54-3.55,2.8-4.93.65-.71-.41-1.77-1.06-1.06h0Z"/>
      <circle class="cls-5" cx="247.95" cy="65.81" r="4.08"/>
      <path class="cls-11" d="M167.94,69.71c.5,1.87.64,3.76.41,5.68-.22,1.82-.68,3.6-.95,5.41-.24,1.6-.33,3.23,0,4.83.36,1.78,1.28,3.39,2.22,4.92.51.82,1.8.07,1.3-.76-.94-1.53-1.86-3.12-2.13-4.93s.05-3.72.4-5.53c.65-3.4,1.13-6.62.21-10.03-.25-.93-1.7-.54-1.45.4h0Z"/>
      <path class="cls-11" d="M167.4,69.54c-1.16,1.26-2.29,2.6-2.88,4.23-.66,1.82-.22,3.55.34,5.33,1.17,3.76.69,7.69-1.51,10.97-.54.8.76,1.56,1.3.76,1.93-2.88,2.73-6.41,2.21-9.84-.27-1.81-1.3-3.61-1.19-5.46.12-1.95,1.54-3.55,2.8-4.93.65-.71-.41-1.77-1.06-1.06h0Z"/>
      <circle class="cls-5" cx="167.94" cy="65.81" r="4.08"/>
      <path class="cls-11" d="M159.05,69.71c.5,1.87.64,3.76.41,5.68-.22,1.82-.68,3.6-.95,5.41-.24,1.6-.33,3.23,0,4.83.36,1.78,1.28,3.39,2.22,4.92.51.82,1.8.07,1.3-.76-.94-1.53-1.86-3.12-2.13-4.93s.05-3.72.4-5.53c.65-3.4,1.13-6.62.21-10.03-.25-.93-1.7-.54-1.45.4h0Z"/>
      <path class="cls-11" d="M158.51,69.54c-1.16,1.26-2.29,2.6-2.88,4.23-.66,1.82-.22,3.55.34,5.33,1.17,3.76.69,7.69-1.51,10.97-.54.8.76,1.56,1.3.76,1.93-2.88,2.73-6.41,2.21-9.84-.27-1.81-1.3-3.61-1.19-5.46.12-1.95,1.54-3.55,2.8-4.93.65-.71-.41-1.77-1.06-1.06h0Z"/>
      <circle class="cls-5" cx="159.05" cy="65.81" r="4.08"/>
      <path class="cls-11" d="M96.82,69.71c.5,1.87.64,3.76.41,5.68-.22,1.82-.68,3.6-.95,5.41-.24,1.6-.33,3.23,0,4.83.36,1.78,1.28,3.39,2.22,4.92.51.82,1.8.07,1.3-.76-.94-1.53-1.86-3.12-2.13-4.93s.05-3.72.4-5.53c.65-3.4,1.13-6.62.21-10.03-.25-.93-1.7-.54-1.45.4h0Z"/>
      <path class="cls-11" d="M96.28,69.54c-1.16,1.26-2.29,2.6-2.88,4.23-.66,1.82-.22,3.55.34,5.33,1.17,3.76.69,7.69-1.51,10.97-.54.8.76,1.56,1.3.76,1.93-2.88,2.73-6.41,2.21-9.84-.27-1.81-1.3-3.61-1.19-5.46.12-1.95,1.54-3.55,2.8-4.93.65-.71-.41-1.77-1.06-1.06h0Z"/>
      <circle class="cls-5" cx="96.83" cy="65.81" r="4.08"/>
      <path class="cls-11" d="M203.5,69.71c.5,1.87.64,3.76.41,5.68-.22,1.82-.68,3.6-.95,5.41-.24,1.6-.33,3.23,0,4.83.36,1.78,1.28,3.39,2.22,4.92.51.82,1.8.07,1.3-.76-.94-1.53-1.86-3.12-2.13-4.93s.05-3.72.4-5.53c.65-3.4,1.13-6.62.21-10.03-.25-.93-1.7-.54-1.45.4h0Z"/>
      <path class="cls-11" d="M202.96,69.54c-1.16,1.26-2.29,2.6-2.88,4.23-.66,1.82-.22,3.55.34,5.33,1.17,3.76.69,7.69-1.51,10.97-.54.8.76,1.56,1.3.76,1.93-2.88,2.73-6.41,2.21-9.84-.27-1.81-1.3-3.61-1.19-5.46.12-1.95,1.54-3.55,2.8-4.93.65-.71-.41-1.77-1.06-1.06h0Z"/>
      <circle class="cls-5" cx="203.5" cy="65.81" r="4.08"/>
      <path class="cls-11" d="M185.72,69.71c.5,1.87.64,3.76.41,5.68-.22,1.82-.68,3.6-.95,5.41-.24,1.6-.33,3.23,0,4.83.36,1.78,1.28,3.39,2.22,4.92.51.82,1.8.07,1.3-.76-.94-1.53-1.86-3.12-2.13-4.93s.05-3.72.4-5.53c.65-3.4,1.13-6.62.21-10.03-.25-.93-1.7-.54-1.45.4h0Z"/>
      <path class="cls-11" d="M185.18,69.54c-1.16,1.26-2.29,2.6-2.88,4.23-.66,1.82-.22,3.55.34,5.33,1.17,3.76.69,7.69-1.51,10.97-.54.8.76,1.56,1.3.76,1.93-2.88,2.73-6.41,2.21-9.84-.27-1.81-1.3-3.61-1.19-5.46.12-1.95,1.54-3.55,2.8-4.93.65-.71-.41-1.77-1.06-1.06h0Z"/>
      <circle class="cls-5" cx="185.72" cy="65.81" r="4.08"/>
      <path class="cls-11" d="M141.27,69.71c.5,1.87.64,3.76.41,5.68-.22,1.82-.68,3.6-.95,5.41-.24,1.6-.33,3.23,0,4.83.36,1.78,1.28,3.39,2.22,4.92.51.82,1.8.07,1.3-.76-.94-1.53-1.86-3.12-2.13-4.93s.05-3.72.4-5.53c.65-3.4,1.13-6.62.21-10.03-.25-.93-1.7-.54-1.45.4h0Z"/>
      <path class="cls-11" d="M140.73,69.54c-1.16,1.26-2.29,2.6-2.88,4.23-.66,1.82-.22,3.55.34,5.33,1.17,3.76.69,7.69-1.51,10.97-.54.8.76,1.56,1.3.76,1.93-2.88,2.73-6.41,2.21-9.84-.27-1.81-1.3-3.61-1.19-5.46.12-1.95,1.54-3.55,2.8-4.93.65-.71-.41-1.77-1.06-1.06h0Z"/>
      <circle class="cls-5" cx="141.27" cy="65.81" r="4.08"/>
      <path class="cls-11" d="M79.05,69.71c.5,1.87.64,3.76.41,5.68-.22,1.82-.68,3.6-.95,5.41-.24,1.6-.33,3.23,0,4.83.36,1.78,1.28,3.39,2.22,4.92.51.82,1.8.07,1.3-.76-.94-1.53-1.86-3.12-2.13-4.93s.05-3.72.4-5.53c.65-3.4,1.13-6.62.21-10.03-.25-.93-1.7-.54-1.45.4h0Z"/>
      <path class="cls-11" d="M78.5,69.54c-1.16,1.26-2.29,2.6-2.88,4.23-.66,1.82-.22,3.55.34,5.33,1.17,3.76.69,7.69-1.51,10.97-.54.8.76,1.56,1.3.76,1.93-2.88,2.73-6.41,2.21-9.84-.27-1.81-1.3-3.61-1.19-5.46.12-1.95,1.54-3.55,2.8-4.93.65-.71-.41-1.77-1.06-1.06h0Z"/>
      <circle class="cls-5" cx="79.05" cy="65.81" r="4.08"/>
      <path class="cls-11" d="M52.38,69.71c.5,1.87.64,3.76.41,5.68-.22,1.82-.68,3.6-.95,5.41-.24,1.6-.33,3.23,0,4.83.36,1.78,1.28,3.39,2.22,4.92.51.82,1.8.07,1.3-.76-.94-1.53-1.86-3.12-2.13-4.93s.05-3.72.4-5.53c.65-3.4,1.13-6.62.21-10.03-.25-.93-1.7-.54-1.45.4h0Z"/>
      <path class="cls-11" d="M51.84,69.54c-1.16,1.26-2.29,2.6-2.88,4.23-.66,1.82-.22,3.55.34,5.33,1.17,3.76.69,7.69-1.51,10.97-.54.8.76,1.56,1.3.76,1.93-2.88,2.73-6.41,2.21-9.84-.27-1.81-1.3-3.61-1.19-5.46.12-1.95,1.54-3.55,2.8-4.93.65-.71-.41-1.77-1.06-1.06h0Z"/>
      <circle class="cls-5" cx="52.38" cy="65.81" r="4.08"/>
      <path class="cls-11" d="M25.71,69.71c.5,1.87.64,3.76.41,5.68-.22,1.82-.68,3.6-.95,5.41-.24,1.6-.33,3.23,0,4.83.36,1.78,1.28,3.39,2.22,4.92.51.82,1.8.07,1.3-.76-.94-1.53-1.86-3.12-2.13-4.93s.05-3.72.4-5.53c.65-3.4,1.13-6.62.21-10.03-.25-.93-1.7-.54-1.45.4h0Z"/>
      <path class="cls-11" d="M25.17,69.54c-1.16,1.26-2.29,2.6-2.88,4.23-.66,1.82-.22,3.55.34,5.33,1.17,3.76.69,7.69-1.51,10.97-.54.8.76,1.56,1.3.76,1.93-2.88,2.73-6.41,2.21-9.84-.27-1.81-1.3-3.61-1.19-5.46.12-1.95,1.54-3.55,2.8-4.93.65-.71-.41-1.77-1.06-1.06h0Z"/>
      <circle class="cls-5" cx="25.71" cy="65.81" r="4.08"/>
      <path class="cls-11" d="M35.23,69.71c.29,1.21.09,2.45.26,3.67s.81,2.4,1.11,3.62c.48,1.97.55,4.09-.18,6.01-.24.63-.57,1.24-1,1.76s-.92.86-1,1.57c-.17,1.65,1.66,2.98,2.47,4.21.53.8,1.83.05,1.3-.76-.45-.69-1.01-1.28-1.52-1.93-.23-.3-.68-.78-.73-1.17-.04-.33.14-.42.36-.66.96-1.04,1.59-2.37,1.89-3.75.42-1.87.29-3.82-.16-5.68-.31-1.28-1.01-2.51-1.12-3.83-.09-1.17.02-2.31-.25-3.46-.22-.94-1.67-.54-1.45.4h0Z"/>
      <path class="cls-11" d="M34.68,69.54c-1.07,1.22-1.48,2.59-1.54,4.19-.03.84.05,1.7-.16,2.52s-.58,1.63-.66,2.5.25,1.6.29,2.43c.03.69-.11,1.35-.43,1.96-.76,1.43-2,2.6-2.93,3.92-.56.79.74,1.54,1.3.76.89-1.27,2.04-2.4,2.83-3.75.72-1.24.87-2.59.6-3.98-.18-.92-.14-1.52.14-2.42.25-.79.49-1.54.51-2.37.05-1.71-.07-3.34,1.13-4.71.63-.72-.42-1.79-1.06-1.06h0Z"/>
      <circle class="cls-5" cx="35.23" cy="65.81" r="4.08"/>
      <path class="cls-11" d="M88.56,69.71c.29,1.21.09,2.45.26,3.67s.81,2.4,1.11,3.62c.48,1.97.55,4.09-.18,6.01-.24.63-.57,1.24-1,1.76s-.92.86-1,1.57c-.17,1.65,1.66,2.98,2.47,4.21.53.8,1.83.05,1.3-.76-.45-.69-1.01-1.28-1.52-1.93-.23-.3-.68-.78-.73-1.17-.04-.33.14-.42.36-.66.96-1.04,1.59-2.37,1.89-3.75.42-1.87.29-3.82-.16-5.68-.31-1.28-1.01-2.51-1.12-3.83-.09-1.17.02-2.31-.25-3.46-.22-.94-1.67-.54-1.45.4h0Z"/>
      <path class="cls-11" d="M88.02,69.54c-1.07,1.22-1.48,2.59-1.54,4.19-.03.84.05,1.7-.16,2.52s-.58,1.63-.66,2.5.25,1.6.29,2.43c.03.69-.11,1.35-.43,1.96-.76,1.43-2,2.6-2.93,3.92-.56.79.74,1.54,1.3.76.89-1.27,2.04-2.4,2.83-3.75.72-1.24.87-2.59.6-3.98-.18-.92-.14-1.52.14-2.42.25-.79.49-1.54.51-2.37.05-1.71-.07-3.34,1.13-4.71.63-.72-.42-1.79-1.06-1.06h0Z"/>
      <circle class="cls-5" cx="88.56" cy="65.81" r="4.08"/>
      <path class="cls-11" d="M115.23,69.71c.29,1.21.09,2.45.26,3.67s.81,2.4,1.11,3.62c.48,1.97.55,4.09-.18,6.01-.24.63-.57,1.24-1,1.76s-.92.86-1,1.57c-.17,1.65,1.66,2.98,2.47,4.21.53.8,1.83.05,1.3-.76-.45-.69-1.01-1.28-1.52-1.93-.23-.3-.68-.78-.73-1.17-.04-.33.14-.42.36-.66.96-1.04,1.59-2.37,1.89-3.75.42-1.87.29-3.82-.16-5.68-.31-1.28-1.01-2.51-1.12-3.83-.09-1.17.02-2.31-.25-3.46-.22-.94-1.67-.54-1.45.4h0Z"/>
      <path class="cls-11" d="M114.69,69.54c-1.07,1.22-1.48,2.59-1.54,4.19-.03.84.05,1.7-.16,2.52s-.58,1.63-.66,2.5.25,1.6.29,2.43c.03.69-.11,1.35-.43,1.96-.76,1.43-2,2.6-2.93,3.92-.56.79.74,1.54,1.3.76.89-1.27,2.04-2.4,2.83-3.75.72-1.24.87-2.59.6-3.98-.18-.92-.14-1.52.14-2.42.25-.79.49-1.54.51-2.37.05-1.71-.07-3.34,1.13-4.71.63-.72-.42-1.79-1.06-1.06h0Z"/>
      <circle class="cls-5" cx="115.23" cy="65.81" r="4.08"/>
      <path class="cls-11" d="M150.79,69.71c.29,1.21.09,2.45.26,3.67s.81,2.4,1.11,3.62c.48,1.97.55,4.09-.18,6.01-.24.63-.57,1.24-1,1.76s-.92.86-1,1.57c-.17,1.65,1.66,2.98,2.47,4.21.53.8,1.83.05,1.3-.76-.45-.69-1.01-1.28-1.52-1.93-.23-.3-.68-.78-.73-1.17-.04-.33.14-.42.36-.66.96-1.04,1.59-2.37,1.89-3.75.42-1.87.29-3.82-.16-5.68-.31-1.28-1.01-2.51-1.12-3.83-.09-1.17.02-2.31-.25-3.46-.22-.94-1.67-.54-1.45.4h0Z"/>
      <path class="cls-11" d="M150.25,69.54c-1.07,1.22-1.48,2.59-1.54,4.19-.03.84.05,1.7-.16,2.52s-.58,1.63-.66,2.5.25,1.6.29,2.43c.03.69-.11,1.35-.43,1.96-.76,1.43-2,2.6-2.93,3.92-.56.79.74,1.54,1.3.76.89-1.27,2.04-2.4,2.83-3.75.72-1.24.87-2.59.6-3.98-.18-.92-.14-1.52.14-2.42.25-.79.49-1.54.51-2.37.05-1.71-.07-3.34,1.13-4.71.63-.72-.42-1.79-1.06-1.06h0Z"/>
      <circle class="cls-5" cx="150.79" cy="65.81" r="4.08"/>
      <path class="cls-11" d="M221.9,69.71c.29,1.21.09,2.45.26,3.67s.81,2.4,1.11,3.62c.48,1.97.55,4.09-.18,6.01-.24.63-.57,1.24-1,1.76s-.92.86-1,1.57c-.17,1.65,1.66,2.98,2.47,4.21.53.8,1.83.05,1.3-.76-.45-.69-1.01-1.28-1.52-1.93-.23-.3-.68-.78-.73-1.17-.04-.33.14-.42.36-.66.96-1.04,1.59-2.37,1.89-3.75.42-1.87.29-3.82-.16-5.68-.31-1.28-1.01-2.51-1.12-3.83-.09-1.17.02-2.31-.25-3.46-.22-.94-1.67-.54-1.45.4h0Z"/>
      <path class="cls-11" d="M221.36,69.54c-1.07,1.22-1.48,2.59-1.54,4.19-.03.84.05,1.7-.16,2.52s-.58,1.63-.66,2.5.25,1.6.29,2.43c.03.69-.11,1.35-.43,1.96-.76,1.43-2,2.6-2.93,3.92-.56.79.74,1.54,1.3.76.89-1.27,2.04-2.4,2.83-3.75.72-1.24.87-2.59.6-3.98-.18-.92-.14-1.52.14-2.42.25-.79.49-1.54.51-2.37.05-1.71-.07-3.34,1.13-4.71.63-.72-.42-1.79-1.06-1.06h0Z"/>
      <circle class="cls-5" cx="221.9" cy="65.81" r="4.08"/>
      <path class="cls-11" d="M257.46,69.71c.29,1.21.09,2.45.26,3.67s.81,2.4,1.11,3.62c.48,1.97.55,4.09-.18,6.01-.24.63-.57,1.24-1,1.76s-.92.86-1,1.57c-.17,1.65,1.66,2.98,2.47,4.21.53.8,1.83.05,1.3-.76-.45-.69-1.01-1.28-1.52-1.93-.23-.3-.68-.78-.73-1.17-.04-.33.14-.42.36-.66.96-1.04,1.59-2.37,1.89-3.75.42-1.87.29-3.82-.16-5.68-.31-1.28-1.01-2.51-1.12-3.83-.09-1.17.02-2.31-.25-3.46-.22-.94-1.67-.54-1.45.4h0Z"/>
      <path class="cls-11" d="M256.92,69.54c-1.07,1.22-1.48,2.59-1.54,4.19-.03.84.05,1.7-.16,2.52s-.58,1.63-.66,2.5.25,1.6.29,2.43c.03.69-.11,1.35-.43,1.96-.76,1.43-2,2.6-2.93,3.92-.56.79.74,1.54,1.3.76.89-1.27,2.04-2.4,2.83-3.75.72-1.24.87-2.59.6-3.98-.18-.92-.14-1.52.14-2.42.25-.79.49-1.54.51-2.37.05-1.71-.07-3.34,1.13-4.71.63-.72-.42-1.79-1.06-1.06h0Z"/>
      <circle class="cls-5" cx="257.46" cy="65.81" r="4.08"/>
      <path class="cls-11" d="M8.56,69.71c.29,1.21.09,2.45.26,3.67s.81,2.4,1.11,3.62c.48,1.97.55,4.09-.18,6.01-.24.63-.57,1.24-1,1.76s-.92.86-1,1.57c-.17,1.65,1.66,2.98,2.47,4.21.53.8,1.83.05,1.3-.76-.45-.69-1.01-1.28-1.52-1.93-.23-.3-.68-.78-.73-1.17-.04-.33.14-.42.36-.66.96-1.04,1.59-2.37,1.89-3.75.42-1.87.29-3.82-.16-5.68-.31-1.28-1.01-2.51-1.12-3.83-.09-1.17.02-2.31-.25-3.46-.22-.94-1.67-.54-1.45.4h0Z"/>
      <path class="cls-11" d="M8.02,69.54c-1.07,1.22-1.48,2.59-1.54,4.19-.03.84.05,1.7-.16,2.52s-.58,1.63-.66,2.5.25,1.6.29,2.43c.03.69-.11,1.35-.43,1.96-.76,1.43-2,2.6-2.93,3.92-.56.79.74,1.54,1.3.76.89-1.27,2.04-2.4,2.83-3.75.72-1.24.87-2.59.6-3.98-.18-.92-.14-1.52.14-2.42.25-.79.49-1.54.51-2.37.05-1.71-.07-3.34,1.13-4.71.63-.72-.42-1.79-1.06-1.06h0Z"/>
      <circle class="cls-5" cx="8.56" cy="65.81" r="4.08"/>
      <path class="cls-11" d="M70.78,69.71c.29,1.21.09,2.45.26,3.67s.81,2.4,1.11,3.62c.48,1.97.55,4.09-.18,6.01-.24.63-.57,1.24-1,1.76s-.92.86-1,1.57c-.17,1.65,1.66,2.98,2.47,4.21.53.8,1.83.05,1.3-.76-.45-.69-1.01-1.28-1.52-1.93-.23-.3-.68-.78-.73-1.17-.04-.33.14-.42.36-.66.96-1.04,1.59-2.37,1.89-3.75.42-1.87.29-3.82-.16-5.68-.31-1.28-1.01-2.51-1.12-3.83-.09-1.17.02-2.31-.25-3.46-.22-.94-1.67-.54-1.45.4h0Z"/>
      <path class="cls-11" d="M70.24,69.54c-1.07,1.22-1.48,2.59-1.54,4.19-.03.84.05,1.7-.16,2.52s-.58,1.63-.66,2.5.25,1.6.29,2.43c.03.69-.11,1.35-.43,1.96-.76,1.43-2,2.6-2.93,3.92-.56.79.74,1.54,1.3.76.89-1.27,2.04-2.4,2.83-3.75.72-1.24.87-2.59.6-3.98-.18-.92-.14-1.52.14-2.42.25-.79.49-1.54.51-2.37.05-1.71-.07-3.34,1.13-4.71.63-.72-.42-1.79-1.06-1.06h0Z"/>
      <circle class="cls-5" cx="70.78" cy="65.81" r="4.08"/>
      <path class="cls-11" d="M61.53,69.71c.31,1.29.1,2.63.33,3.93s.8,2.48,1.05,3.76c.35,1.75.33,3.57-.33,5.24-.37.94-1,1.76-1.4,2.68-.9,2.07.99,3.65,2.02,5.23.53.81,1.83.05,1.3-.76-.58-.89-1.41-1.66-1.87-2.63-.34-.72-.13-1.19.22-1.81.58-1.03,1.15-2.04,1.46-3.19.47-1.74.38-3.57.01-5.32-.26-1.24-.85-2.42-1.03-3.67s-.01-2.58-.32-3.86c-.23-.94-1.67-.54-1.45.4h0Z"/>
      <path class="cls-11" d="M60.33,69.76c-1.59,1.76-2.95,3.91-3.75,6.14-.3.83-.68,2.07-.17,2.9.23.37.58.56.96.73.16.07.46.12.57.26.2.24.1.81.12,1.11.11,2.28.33,4.72-.08,6.98-.18,1.01-.51,1.7-1.43,2.14s-.11,1.7.76,1.3c2.85-1.34,2.41-5.49,2.34-8.07-.02-.84-.06-1.69-.1-2.53-.03-.57.01-1.21-.32-1.71-.24-.36-.6-.56-.99-.73-.49-.22-.62-.24-.53-.83.36-2.37,2.11-4.88,3.68-6.62.65-.71-.41-1.78-1.06-1.06h0Z"/>
      <circle class="cls-5" cx="61.54" cy="65.81" r="4.08"/>
      <path class="cls-11" d="M43.75,69.71c.31,1.29.1,2.63.33,3.93s.8,2.48,1.05,3.76c.35,1.75.33,3.57-.33,5.24-.37.94-1,1.76-1.4,2.68-.9,2.07.99,3.65,2.02,5.23.53.81,1.83.05,1.3-.76-.58-.89-1.41-1.66-1.87-2.63-.34-.72-.13-1.19.22-1.81.58-1.03,1.15-2.04,1.46-3.19.47-1.74.38-3.57.01-5.32-.26-1.24-.85-2.42-1.03-3.67s-.01-2.58-.32-3.86c-.23-.94-1.67-.54-1.45.4h0Z"/>
      <path class="cls-11" d="M42.55,69.76c-1.59,1.76-2.95,3.91-3.75,6.14-.3.83-.68,2.07-.17,2.9.23.37.58.56.96.73.16.07.46.12.57.26.2.24.1.81.12,1.11.11,2.28.33,4.72-.08,6.98-.18,1.01-.51,1.7-1.43,2.14s-.11,1.7.76,1.3c2.85-1.34,2.41-5.49,2.34-8.07-.02-.84-.06-1.69-.1-2.53-.03-.57.01-1.21-.32-1.71-.24-.36-.6-.56-.99-.73-.49-.22-.62-.24-.53-.83.36-2.37,2.11-4.88,3.68-6.62.65-.71-.41-1.78-1.06-1.06h0Z"/>
      <circle class="cls-5" cx="43.76" cy="65.81" r="4.08"/>
      <path class="cls-11" d="M17.09,69.71c.31,1.29.1,2.63.33,3.93s.8,2.48,1.05,3.76c.35,1.75.33,3.57-.33,5.24-.37.94-1,1.76-1.4,2.68-.9,2.07.99,3.65,2.02,5.23.53.81,1.83.05,1.3-.76-.58-.89-1.41-1.66-1.87-2.63-.34-.72-.13-1.19.22-1.81.58-1.03,1.15-2.04,1.46-3.19.47-1.74.38-3.57.01-5.32-.26-1.24-.85-2.42-1.03-3.67s-.01-2.58-.32-3.86c-.23-.94-1.67-.54-1.45.4h0Z"/>
      <path class="cls-11" d="M15.88,69.76c-1.59,1.76-2.95,3.91-3.75,6.14-.3.83-.68,2.07-.17,2.9.23.37.58.56.96.73.16.07.46.12.57.26.2.24.1.81.12,1.11.11,2.28.33,4.72-.08,6.98-.18,1.01-.51,1.7-1.43,2.14s-.11,1.7.76,1.3c2.85-1.34,2.41-5.49,2.34-8.07-.02-.84-.06-1.69-.1-2.53-.03-.57.01-1.21-.32-1.71-.24-.36-.6-.56-.99-.73-.49-.22-.62-.24-.53-.83.36-2.37,2.11-4.88,3.68-6.62.65-.71-.41-1.78-1.06-1.06h0Z"/>
      <circle class="cls-5" cx="17.09" cy="65.81" r="4.08"/>
      <path class="cls-11" d="M123.76,69.71c.31,1.29.1,2.63.33,3.93s.8,2.48,1.05,3.76c.35,1.75.33,3.57-.33,5.24-.37.94-1,1.76-1.4,2.68-.9,2.07.99,3.65,2.02,5.23.53.81,1.83.05,1.3-.76-.58-.89-1.41-1.66-1.87-2.63-.34-.72-.13-1.19.22-1.81.58-1.03,1.15-2.04,1.46-3.19.47-1.74.38-3.57.01-5.32-.26-1.24-.85-2.42-1.03-3.67s-.01-2.58-.32-3.86c-.23-.94-1.67-.54-1.45.4h0Z"/>
      <path class="cls-11" d="M122.56,69.76c-1.59,1.76-2.95,3.91-3.75,6.14-.3.83-.68,2.07-.17,2.9.23.37.58.56.96.73.16.07.46.12.57.26.2.24.1.81.12,1.11.11,2.28.33,4.72-.08,6.98-.18,1.01-.51,1.7-1.43,2.14s-.11,1.7.76,1.3c2.85-1.34,2.41-5.49,2.34-8.07-.02-.84-.06-1.69-.1-2.53-.03-.57.01-1.21-.32-1.71-.24-.36-.6-.56-.99-.73-.49-.22-.62-.24-.53-.83.36-2.37,2.11-4.88,3.68-6.62.65-.71-.41-1.78-1.06-1.06h0Z"/>
      <circle class="cls-5" cx="123.76" cy="65.81" r="4.08"/>
      <path class="cls-11" d="M132.65,69.71c.31,1.29.1,2.63.33,3.93s.8,2.48,1.05,3.76c.35,1.75.33,3.57-.33,5.24-.37.94-1,1.76-1.4,2.68-.9,2.07.99,3.65,2.02,5.23.53.81,1.83.05,1.3-.76-.58-.89-1.41-1.66-1.87-2.63-.34-.72-.13-1.19.22-1.81.58-1.03,1.15-2.04,1.46-3.19.47-1.74.38-3.57.01-5.32-.26-1.24-.85-2.42-1.03-3.67s-.01-2.58-.32-3.86c-.23-.94-1.67-.54-1.45.4h0Z"/>
      <path class="cls-11" d="M131.44,69.76c-1.59,1.76-2.95,3.91-3.75,6.14-.3.83-.68,2.07-.17,2.9.23.37.58.56.96.73.16.07.46.12.57.26.2.24.1.81.12,1.11.11,2.28.33,4.72-.08,6.98-.18,1.01-.51,1.7-1.43,2.14s-.11,1.7.76,1.3c2.85-1.34,2.41-5.49,2.34-8.07-.02-.84-.06-1.69-.1-2.53-.03-.57.01-1.21-.32-1.71-.24-.36-.6-.56-.99-.73-.49-.22-.62-.24-.53-.83.36-2.37,2.11-4.88,3.68-6.62.65-.71-.41-1.78-1.06-1.06h0Z"/>
      <circle class="cls-5" cx="132.65" cy="65.81" r="4.08"/>
      <path class="cls-11" d="M177.1,69.71c.31,1.29.1,2.63.33,3.93s.8,2.48,1.05,3.76c.35,1.75.33,3.57-.33,5.24-.37.94-1,1.76-1.4,2.68-.9,2.07.99,3.65,2.02,5.23.53.81,1.83.05,1.3-.76-.58-.89-1.41-1.66-1.87-2.63-.34-.72-.13-1.19.22-1.81.58-1.03,1.15-2.04,1.46-3.19.47-1.74.38-3.57.01-5.32-.26-1.24-.85-2.42-1.03-3.67s-.01-2.58-.32-3.86c-.23-.94-1.67-.54-1.45.4h0Z"/>
      <path class="cls-11" d="M175.89,69.76c-1.59,1.76-2.95,3.91-3.75,6.14-.3.83-.68,2.07-.17,2.9.23.37.58.56.96.73.16.07.46.12.57.26.2.24.1.81.12,1.11.11,2.28.33,4.72-.08,6.98-.18,1.01-.51,1.7-1.43,2.14s-.11,1.7.76,1.3c2.85-1.34,2.41-5.49,2.34-8.07-.02-.84-.06-1.69-.1-2.53-.03-.57.01-1.21-.32-1.71-.24-.36-.6-.56-.99-.73-.49-.22-.62-.24-.53-.83.36-2.37,2.11-4.88,3.68-6.62.65-.71-.41-1.78-1.06-1.06h0Z"/>
      <circle class="cls-5" cx="177.1" cy="65.81" r="4.08"/>
      <path class="cls-11" d="M194.87,69.71c.31,1.29.1,2.63.33,3.93s.8,2.48,1.05,3.76c.35,1.75.33,3.57-.33,5.24-.37.94-1,1.76-1.4,2.68-.9,2.07.99,3.65,2.02,5.23.53.81,1.83.05,1.3-.76-.58-.89-1.41-1.66-1.87-2.63-.34-.72-.13-1.19.22-1.81.58-1.03,1.15-2.04,1.46-3.19.47-1.74.38-3.57.01-5.32-.26-1.24-.85-2.42-1.03-3.67s-.01-2.58-.32-3.86c-.23-.94-1.67-.54-1.45.4h0Z"/>
      <path class="cls-11" d="M193.67,69.76c-1.59,1.76-2.95,3.91-3.75,6.14-.3.83-.68,2.07-.17,2.9.23.37.58.56.96.73.16.07.46.12.57.26.2.24.1.81.12,1.11.11,2.28.33,4.72-.08,6.98-.18,1.01-.51,1.7-1.43,2.14s-.11,1.7.76,1.3c2.85-1.34,2.41-5.49,2.34-8.07-.02-.84-.06-1.69-.1-2.53-.03-.57.01-1.21-.32-1.71-.24-.36-.6-.56-.99-.73-.49-.22-.62-.24-.53-.83.36-2.37,2.11-4.88,3.68-6.62.65-.71-.41-1.78-1.06-1.06h0Z"/>
      <circle class="cls-5" cx="194.88" cy="65.81" r="4.08"/>
      <path class="cls-11" d="M212.65,69.71c.31,1.29.1,2.63.33,3.93s.8,2.48,1.05,3.76c.35,1.75.33,3.57-.33,5.24-.37.94-1,1.76-1.4,2.68-.9,2.07.99,3.65,2.02,5.23.53.81,1.83.05,1.3-.76-.58-.89-1.41-1.66-1.87-2.63-.34-.72-.13-1.19.22-1.81.58-1.03,1.15-2.04,1.46-3.19.47-1.74.38-3.57.01-5.32-.26-1.24-.85-2.42-1.03-3.67s-.01-2.58-.32-3.86c-.23-.94-1.67-.54-1.45.4h0Z"/>
      <path class="cls-11" d="M211.45,69.76c-1.59,1.76-2.95,3.91-3.75,6.14-.3.83-.68,2.07-.17,2.9.23.37.58.56.96.73.16.07.46.12.57.26.2.24.1.81.12,1.11.11,2.28.33,4.72-.08,6.98-.18,1.01-.51,1.7-1.43,2.14s-.11,1.7.76,1.3c2.85-1.34,2.41-5.49,2.34-8.07-.02-.84-.06-1.69-.1-2.53-.03-.57.01-1.21-.32-1.71-.24-.36-.6-.56-.99-.73-.49-.22-.62-.24-.53-.83.36-2.37,2.11-4.88,3.68-6.62.65-.71-.41-1.78-1.06-1.06h0Z"/>
      <circle class="cls-5" cx="212.66" cy="65.81" r="4.08"/>
      <path class="cls-11" d="M230.43,69.71c.31,1.29.1,2.63.33,3.93s.8,2.48,1.05,3.76c.35,1.75.33,3.57-.33,5.24-.37.94-1,1.76-1.4,2.68-.9,2.07.99,3.65,2.02,5.23.53.81,1.83.05,1.3-.76-.58-.89-1.41-1.66-1.87-2.63-.34-.72-.13-1.19.22-1.81.58-1.03,1.15-2.04,1.46-3.19.47-1.74.38-3.57.01-5.32-.26-1.24-.85-2.42-1.03-3.67s-.01-2.58-.32-3.86c-.23-.94-1.67-.54-1.45.4h0Z"/>
      <path class="cls-11" d="M229.23,69.76c-1.59,1.76-2.95,3.91-3.75,6.14-.3.83-.68,2.07-.17,2.9.23.37.58.56.96.73.16.07.46.12.57.26.2.24.1.81.12,1.11.11,2.28.33,4.72-.08,6.98-.18,1.01-.51,1.7-1.43,2.14s-.11,1.7.76,1.3c2.85-1.34,2.41-5.49,2.34-8.07-.02-.84-.06-1.69-.1-2.53-.03-.57.01-1.21-.32-1.71-.24-.36-.6-.56-.99-.73-.49-.22-.62-.24-.53-.83.36-2.37,2.11-4.88,3.68-6.62.65-.71-.41-1.78-1.06-1.06h0Z"/>
      <circle class="cls-5" cx="230.43" cy="65.81" r="4.08"/>
      <path class="cls-11" d="M265.99,69.71c.31,1.29.1,2.63.33,3.93s.8,2.48,1.05,3.76c.35,1.75.33,3.57-.33,5.24-.37.94-1,1.76-1.4,2.68-.9,2.07.99,3.65,2.02,5.23.53.81,1.83.05,1.3-.76-.58-.89-1.41-1.66-1.87-2.63-.34-.72-.13-1.19.22-1.81.58-1.03,1.15-2.04,1.46-3.19.47-1.74.38-3.57.01-5.32-.26-1.24-.85-2.42-1.03-3.67s-.01-2.58-.32-3.86c-.23-.94-1.67-.54-1.45.4h0Z"/>
      <path class="cls-11" d="M264.79,69.76c-1.59,1.76-2.95,3.91-3.75,6.14-.3.83-.68,2.07-.17,2.9.23.37.58.56.96.73.16.07.46.12.57.26.2.24.1.81.12,1.11.11,2.28.33,4.72-.08,6.98-.18,1.01-.51,1.7-1.43,2.14s-.11,1.7.76,1.3c2.85-1.34,2.41-5.49,2.34-8.07-.02-.84-.06-1.69-.1-2.53-.03-.57.01-1.21-.32-1.71-.24-.36-.6-.56-.99-.73-.49-.22-.62-.24-.53-.83.36-2.37,2.11-4.88,3.68-6.62.65-.71-.41-1.78-1.06-1.06h0Z"/>
      <circle class="cls-5" cx="265.99" cy="65.81" r="4.08"/>
      <path class="cls-11" d="M239.32,69.71c.31,1.29.1,2.63.33,3.93s.8,2.48,1.05,3.76c.35,1.75.33,3.57-.33,5.24-.37.94-1,1.76-1.4,2.68-.9,2.07.99,3.65,2.02,5.23.53.81,1.83.05,1.3-.76-.58-.89-1.41-1.66-1.87-2.63-.34-.72-.13-1.19.22-1.81.58-1.03,1.15-2.04,1.46-3.19.47-1.74.38-3.57.01-5.32-.26-1.24-.85-2.42-1.03-3.67s-.01-2.58-.32-3.86c-.23-.94-1.67-.54-1.45.4h0Z"/>
      <path class="cls-11" d="M238.12,69.76c-1.59,1.76-2.95,3.91-3.75,6.14-.3.83-.68,2.07-.17,2.9.23.37.58.56.96.73.16.07.46.12.57.26.2.24.1.81.12,1.11.11,2.28.33,4.72-.08,6.98-.18,1.01-.51,1.7-1.43,2.14s-.11,1.7.76,1.3c2.85-1.34,2.41-5.49,2.34-8.07-.02-.84-.06-1.69-.1-2.53-.03-.57.01-1.21-.32-1.71-.24-.36-.6-.56-.99-.73-.49-.22-.62-.24-.53-.83.36-2.37,2.11-4.88,3.68-6.62.65-.71-.41-1.78-1.06-1.06h0Z"/>
      <circle class="cls-5" cx="239.32" cy="65.81" r="4.08"/>
      <path class="cls-11" d="M105.98,69.71c.31,1.29.1,2.63.33,3.93s.8,2.48,1.05,3.76c.35,1.75.33,3.57-.33,5.24-.37.94-1,1.76-1.4,2.68-.9,2.07.99,3.65,2.02,5.23.53.81,1.83.05,1.3-.76-.58-.89-1.41-1.66-1.87-2.63-.34-.72-.13-1.19.22-1.81.58-1.03,1.15-2.04,1.46-3.19.47-1.74.38-3.57.01-5.32-.26-1.24-.85-2.42-1.03-3.67s-.01-2.58-.32-3.86c-.23-.94-1.67-.54-1.45.4h0Z"/>
      <path class="cls-11" d="M104.78,69.76c-1.59,1.76-2.95,3.91-3.75,6.14-.3.83-.68,2.07-.17,2.9.23.37.58.56.96.73.16.07.46.12.57.26.2.24.1.81.12,1.11.11,2.28.33,4.72-.08,6.98-.18,1.01-.51,1.7-1.43,2.14s-.11,1.7.76,1.3c2.85-1.34,2.41-5.49,2.34-8.07-.02-.84-.06-1.69-.1-2.53-.03-.57.01-1.21-.32-1.71-.24-.36-.6-.56-.99-.73-.49-.22-.62-.24-.53-.83.36-2.37,2.11-4.88,3.68-6.62.65-.71-.41-1.78-1.06-1.06h0Z"/>
      <circle class="cls-5" cx="105.98" cy="65.81" r="4.08"/>
      <path class="cls-11" d="M249.09,113.96c.92-3.41.44-6.62-.21-10.03-.35-1.81-.68-3.69-.4-5.53s1.19-3.39,2.13-4.93c.51-.82-.79-1.58-1.3-.76-.94,1.53-1.87,3.14-2.22,4.92-.32,1.6-.23,3.22,0,4.83.27,1.81.73,3.59.95,5.41.23,1.92.09,3.81-.41,5.68-.25.93,1.2,1.33,1.45.4h0Z"/>
      <path class="cls-11" d="M248.17,112.67c-1.22-1.33-2.61-2.88-2.79-4.76s.9-3.76,1.18-5.62c.51-3.43-.28-6.96-2.21-9.84-.54-.8-1.84-.05-1.3.76,2.21,3.29,2.68,7.22,1.51,10.97-.53,1.72-.99,3.41-.39,5.18s1.75,3.08,2.94,4.38c.65.71,1.71-.35,1.06-1.06h0Z"/>
      <circle class="cls-5" cx="247.65" cy="117.46" r="4.08"/>
      <path class="cls-11" d="M169.09,113.96c.92-3.41.44-6.62-.21-10.03-.35-1.81-.68-3.69-.4-5.53s1.19-3.39,2.13-4.93c.51-.82-.79-1.58-1.3-.76-.94,1.53-1.87,3.14-2.22,4.92-.32,1.6-.23,3.22,0,4.83.27,1.81.73,3.59.95,5.41.23,1.92.09,3.81-.41,5.68-.25.93,1.2,1.33,1.45.4h0Z"/>
      <path class="cls-11" d="M168.16,112.67c-1.22-1.33-2.61-2.88-2.79-4.76s.9-3.76,1.18-5.62c.51-3.43-.28-6.96-2.21-9.84-.54-.8-1.84-.05-1.3.76,2.21,3.29,2.68,7.22,1.51,10.97-.53,1.72-.99,3.41-.39,5.18s1.75,3.08,2.94,4.38c.65.71,1.71-.35,1.06-1.06h0Z"/>
      <circle class="cls-5" cx="167.64" cy="117.46" r="4.08"/>
      <path class="cls-11" d="M160.2,113.96c.92-3.41.44-6.62-.21-10.03-.35-1.81-.68-3.69-.4-5.53s1.19-3.39,2.13-4.93c.51-.82-.79-1.58-1.3-.76-.94,1.53-1.87,3.14-2.22,4.92-.32,1.6-.23,3.22,0,4.83.27,1.81.73,3.59.95,5.41.23,1.92.09,3.81-.41,5.68-.25.93,1.2,1.33,1.45.4h0Z"/>
      <path class="cls-11" d="M159.27,112.67c-1.22-1.33-2.61-2.88-2.79-4.76s.9-3.76,1.18-5.62c.51-3.43-.28-6.96-2.21-9.84-.54-.8-1.84-.05-1.3.76,2.21,3.29,2.68,7.22,1.51,10.97-.53,1.72-.99,3.41-.39,5.18s1.75,3.08,2.94,4.38c.65.71,1.71-.35,1.06-1.06h0Z"/>
      <circle class="cls-5" cx="158.75" cy="117.46" r="4.08"/>
      <path class="cls-11" d="M97.97,113.96c.92-3.41.44-6.62-.21-10.03-.35-1.81-.68-3.69-.4-5.53s1.19-3.39,2.13-4.93c.51-.82-.79-1.58-1.3-.76-.94,1.53-1.87,3.14-2.22,4.92-.32,1.6-.23,3.22,0,4.83.27,1.81.73,3.59.95,5.41.23,1.92.09,3.81-.41,5.68-.25.93,1.2,1.33,1.45.4h0Z"/>
      <path class="cls-11" d="M97.05,112.67c-1.22-1.33-2.61-2.88-2.79-4.76s.9-3.76,1.18-5.62c.51-3.43-.28-6.96-2.21-9.84-.54-.8-1.84-.05-1.3.76,2.21,3.29,2.68,7.22,1.51,10.97-.53,1.72-.99,3.41-.39,5.18s1.75,3.08,2.94,4.38c.65.71,1.71-.35,1.06-1.06h0Z"/>
      <circle class="cls-5" cx="96.53" cy="117.46" r="4.08"/>
      <path class="cls-11" d="M204.65,113.96c.92-3.41.44-6.62-.21-10.03-.35-1.81-.68-3.69-.4-5.53s1.19-3.39,2.13-4.93c.51-.82-.79-1.58-1.3-.76-.94,1.53-1.87,3.14-2.22,4.92-.32,1.6-.23,3.22,0,4.83.27,1.81.73,3.59.95,5.41.23,1.92.09,3.81-.41,5.68-.25.93,1.2,1.33,1.45.4h0Z"/>
      <path class="cls-11" d="M203.72,112.67c-1.22-1.33-2.61-2.88-2.79-4.76s.9-3.76,1.18-5.62c.51-3.43-.28-6.96-2.21-9.84-.54-.8-1.84-.05-1.3.76,2.21,3.29,2.68,7.22,1.51,10.97-.53,1.72-.99,3.41-.39,5.18s1.75,3.08,2.94,4.38c.65.71,1.71-.35,1.06-1.06h0Z"/>
      <circle class="cls-5" cx="203.2" cy="117.46" r="4.08"/>
      <path class="cls-11" d="M186.87,113.96c.92-3.41.44-6.62-.21-10.03-.35-1.81-.68-3.69-.4-5.53s1.19-3.39,2.13-4.93c.51-.82-.79-1.58-1.3-.76-.94,1.53-1.87,3.14-2.22,4.92-.32,1.6-.23,3.22,0,4.83.27,1.81.73,3.59.95,5.41.23,1.92.09,3.81-.41,5.68-.25.93,1.2,1.33,1.45.4h0Z"/>
      <path class="cls-11" d="M185.94,112.67c-1.22-1.33-2.61-2.88-2.79-4.76s.9-3.76,1.18-5.62c.51-3.43-.28-6.96-2.21-9.84-.54-.8-1.84-.05-1.3.76,2.21,3.29,2.68,7.22,1.51,10.97-.53,1.72-.99,3.41-.39,5.18s1.75,3.08,2.94,4.38c.65.71,1.71-.35,1.06-1.06h0Z"/>
      <circle class="cls-5" cx="185.42" cy="117.46" r="4.08"/>
      <path class="cls-11" d="M142.42,113.96c.92-3.41.44-6.62-.21-10.03-.35-1.81-.68-3.69-.4-5.53s1.19-3.39,2.13-4.93c.51-.82-.79-1.58-1.3-.76-.94,1.53-1.87,3.14-2.22,4.92-.32,1.6-.23,3.22,0,4.83.27,1.81.73,3.59.95,5.41.23,1.92.09,3.81-.41,5.68-.25.93,1.2,1.33,1.45.4h0Z"/>
      <path class="cls-11" d="M141.49,112.67c-1.22-1.33-2.61-2.88-2.79-4.76s.9-3.76,1.18-5.62c.51-3.43-.28-6.96-2.21-9.84-.54-.8-1.84-.05-1.3.76,2.21,3.29,2.68,7.22,1.51,10.97-.53,1.72-.99,3.41-.39,5.18s1.75,3.08,2.94,4.38c.65.71,1.71-.35,1.06-1.06h0Z"/>
      <circle class="cls-5" cx="140.98" cy="117.46" r="4.08"/>
      <path class="cls-11" d="M80.19,113.96c.92-3.41.44-6.62-.21-10.03-.35-1.81-.68-3.69-.4-5.53s1.19-3.39,2.13-4.93c.51-.82-.79-1.58-1.3-.76-.94,1.53-1.87,3.14-2.22,4.92-.32,1.6-.23,3.22,0,4.83.27,1.81.73,3.59.95,5.41.23,1.92.09,3.81-.41,5.68-.25.93,1.2,1.33,1.45.4h0Z"/>
      <path class="cls-11" d="M79.27,112.67c-1.22-1.33-2.61-2.88-2.79-4.76s.9-3.76,1.18-5.62c.51-3.43-.28-6.96-2.21-9.84-.54-.8-1.84-.05-1.3.76,2.21,3.29,2.68,7.22,1.51,10.97-.53,1.72-.99,3.41-.39,5.18s1.75,3.08,2.94,4.38c.65.71,1.71-.35,1.06-1.06h0Z"/>
      <circle class="cls-5" cx="78.75" cy="117.46" r="4.08"/>
      <path class="cls-11" d="M53.53,113.96c.92-3.41.44-6.62-.21-10.03-.35-1.81-.68-3.69-.4-5.53s1.19-3.39,2.13-4.93c.51-.82-.79-1.58-1.3-.76-.94,1.53-1.87,3.14-2.22,4.92-.32,1.6-.23,3.22,0,4.83.27,1.81.73,3.59.95,5.41.23,1.92.09,3.81-.41,5.68-.25.93,1.2,1.33,1.45.4h0Z"/>
      <path class="cls-11" d="M52.6,112.67c-1.22-1.33-2.61-2.88-2.79-4.76s.9-3.76,1.18-5.62c.51-3.43-.28-6.96-2.21-9.84-.54-.8-1.84-.05-1.3.76,2.21,3.29,2.68,7.22,1.51,10.97-.53,1.72-.99,3.41-.39,5.18s1.75,3.08,2.94,4.38c.65.71,1.71-.35,1.06-1.06h0Z"/>
      <circle class="cls-5" cx="52.08" cy="117.46" r="4.08"/>
      <path class="cls-11" d="M26.86,113.96c.92-3.41.44-6.62-.21-10.03-.35-1.81-.68-3.69-.4-5.53s1.19-3.39,2.13-4.93c.51-.82-.79-1.58-1.3-.76-.94,1.53-1.87,3.14-2.22,4.92-.32,1.6-.23,3.22,0,4.83.27,1.81.73,3.59.95,5.41.23,1.92.09,3.81-.41,5.68-.25.93,1.2,1.33,1.45.4h0Z"/>
      <path class="cls-11" d="M25.93,112.67c-1.22-1.33-2.61-2.88-2.79-4.76s.9-3.76,1.18-5.62c.51-3.43-.28-6.96-2.21-9.84-.54-.8-1.84-.05-1.3.76,2.21,3.29,2.68,7.22,1.51,10.97-.53,1.72-.99,3.41-.39,5.18s1.75,3.08,2.94,4.38c.65.71,1.71-.35,1.06-1.06h0Z"/>
      <circle class="cls-5" cx="25.41" cy="117.46" r="4.08"/>
      <path class="cls-11" d="M36.37,113.96c.26-1.09.18-2.18.24-3.29.08-1.33.76-2.54,1.08-3.83.49-1.9.63-3.92.2-5.85-.3-1.35-.91-2.65-1.83-3.69-.18-.2-.44-.36-.45-.63-.01-.36.45-.87.65-1.14.53-.69,1.14-1.33,1.62-2.06.53-.81-.77-1.56-1.3-.76-.8,1.22-2.56,2.5-2.49,4.11.03.72.52,1.09.95,1.6.46.53.81,1.17,1.06,1.83.7,1.86.66,3.93.21,5.84-.29,1.25-.93,2.43-1.13,3.69s.02,2.53-.28,3.77c-.22.94,1.22,1.34,1.45.4h0Z"/>
      <path class="cls-11" d="M35.45,112.67c-1.17-1.33-1.09-2.9-1.13-4.57-.02-.84-.22-1.59-.47-2.38-.3-.94-.37-1.58-.18-2.55.26-1.36.13-2.68-.55-3.89-.78-1.39-1.96-2.54-2.88-3.83-.55-.78-1.85-.04-1.3.76.91,1.3,2.1,2.45,2.88,3.83.33.6.51,1.24.49,1.93-.02.87-.39,1.67-.3,2.55.08.82.41,1.59.63,2.38.23.83.17,1.67.19,2.53.05,1.65.44,3.06,1.55,4.31.64.73,1.7-.34,1.06-1.06h0Z"/>
      <circle class="cls-5" cx="34.93" cy="117.46" r="4.08"/>
      <path class="cls-11" d="M89.71,113.96c.26-1.09.18-2.18.24-3.29.08-1.33.76-2.54,1.08-3.83.49-1.9.63-3.92.2-5.85-.3-1.35-.91-2.65-1.83-3.69-.18-.2-.44-.36-.45-.63-.01-.36.45-.87.65-1.14.53-.69,1.14-1.33,1.62-2.06.53-.81-.77-1.56-1.3-.76-.8,1.22-2.56,2.5-2.49,4.11.03.72.52,1.09.95,1.6.46.53.81,1.17,1.06,1.83.7,1.86.66,3.93.21,5.84-.29,1.25-.93,2.43-1.13,3.69s.02,2.53-.28,3.77c-.22.94,1.22,1.34,1.45.4h0Z"/>
      <path class="cls-11" d="M88.78,112.67c-1.17-1.33-1.09-2.9-1.13-4.57-.02-.84-.22-1.59-.47-2.38-.3-.94-.37-1.58-.18-2.55.26-1.36.13-2.68-.55-3.89-.78-1.39-1.96-2.54-2.88-3.83-.55-.78-1.85-.04-1.3.76.91,1.3,2.1,2.45,2.88,3.83.33.6.51,1.24.49,1.93-.02.87-.39,1.67-.3,2.55.08.82.41,1.59.63,2.38.23.83.17,1.67.19,2.53.05,1.65.44,3.06,1.55,4.31.64.73,1.7-.34,1.06-1.06h0Z"/>
      <circle class="cls-5" cx="88.27" cy="117.46" r="4.08"/>
      <path class="cls-11" d="M116.38,113.96c.26-1.09.18-2.18.24-3.29.08-1.33.76-2.54,1.08-3.83.49-1.9.63-3.92.2-5.85-.3-1.35-.91-2.65-1.83-3.69-.18-.2-.44-.36-.45-.63-.01-.36.45-.87.65-1.14.53-.69,1.14-1.33,1.62-2.06.53-.81-.77-1.56-1.3-.76-.8,1.22-2.56,2.5-2.49,4.11.03.72.52,1.09.95,1.6.46.53.81,1.17,1.06,1.83.7,1.86.66,3.93.21,5.84-.29,1.25-.93,2.43-1.13,3.69s.02,2.53-.28,3.77c-.22.94,1.22,1.34,1.45.4h0Z"/>
      <path class="cls-11" d="M115.45,112.67c-1.17-1.33-1.09-2.9-1.13-4.57-.02-.84-.22-1.59-.47-2.38-.3-.94-.37-1.58-.18-2.55.26-1.36.13-2.68-.55-3.89-.78-1.39-1.96-2.54-2.88-3.83-.55-.78-1.85-.04-1.3.76.91,1.3,2.1,2.45,2.88,3.83.33.6.51,1.24.49,1.93-.02.87-.39,1.67-.3,2.55.08.82.41,1.59.63,2.38.23.83.17,1.67.19,2.53.05,1.65.44,3.06,1.55,4.31.64.73,1.7-.34,1.06-1.06h0Z"/>
      <circle class="cls-5" cx="114.93" cy="117.46" r="4.08"/>
      <path class="cls-11" d="M151.94,113.96c.26-1.09.18-2.18.24-3.29.08-1.33.76-2.54,1.08-3.83.49-1.9.63-3.92.2-5.85-.3-1.35-.91-2.65-1.83-3.69-.18-.2-.44-.36-.45-.63-.01-.36.45-.87.65-1.14.53-.69,1.14-1.33,1.62-2.06.53-.81-.77-1.56-1.3-.76-.8,1.22-2.56,2.5-2.49,4.11.03.72.52,1.09.95,1.6.46.53.81,1.17,1.06,1.83.7,1.86.66,3.93.21,5.84-.29,1.25-.93,2.43-1.13,3.69s.02,2.53-.28,3.77c-.22.94,1.22,1.34,1.45.4h0Z"/>
      <path class="cls-11" d="M151.01,112.67c-1.17-1.33-1.09-2.9-1.13-4.57-.02-.84-.22-1.59-.47-2.38-.3-.94-.37-1.58-.18-2.55.26-1.36.13-2.68-.55-3.89-.78-1.39-1.96-2.54-2.88-3.83-.55-.78-1.85-.04-1.3.76.91,1.3,2.1,2.45,2.88,3.83.33.6.51,1.24.49,1.93-.02.87-.39,1.67-.3,2.55.08.82.41,1.59.63,2.38.23.83.17,1.67.19,2.53.05,1.65.44,3.06,1.55,4.31.64.73,1.7-.34,1.06-1.06h0Z"/>
      <circle class="cls-5" cx="150.49" cy="117.46" r="4.08"/>
      <path class="cls-11" d="M223.05,113.96c.26-1.09.18-2.18.24-3.29.08-1.33.76-2.54,1.08-3.83.49-1.9.63-3.92.2-5.85-.3-1.35-.91-2.65-1.83-3.69-.18-.2-.44-.36-.45-.63-.01-.36.45-.87.65-1.14.53-.69,1.14-1.33,1.62-2.06.53-.81-.77-1.56-1.3-.76-.8,1.22-2.56,2.5-2.49,4.11.03.72.52,1.09.95,1.6.46.53.81,1.17,1.06,1.83.7,1.86.66,3.93.21,5.84-.29,1.25-.93,2.43-1.13,3.69s.02,2.53-.28,3.77c-.22.94,1.22,1.34,1.45.4h0Z"/>
      <path class="cls-11" d="M222.12,112.67c-1.17-1.33-1.09-2.9-1.13-4.57-.02-.84-.22-1.59-.47-2.38-.3-.94-.37-1.58-.18-2.55.26-1.36.13-2.68-.55-3.89-.78-1.39-1.96-2.54-2.88-3.83-.55-.78-1.85-.04-1.3.76.91,1.3,2.1,2.45,2.88,3.83.33.6.51,1.24.49,1.93-.02.87-.39,1.67-.3,2.55.08.82.41,1.59.63,2.38.23.83.17,1.67.19,2.53.05,1.65.44,3.06,1.55,4.31.64.73,1.7-.34,1.06-1.06h0Z"/>
      <circle class="cls-5" cx="221.61" cy="117.46" r="4.08"/>
      <path class="cls-11" d="M258.61,113.96c.26-1.09.18-2.18.24-3.29.08-1.33.76-2.54,1.08-3.83.49-1.9.63-3.92.2-5.85-.3-1.35-.91-2.65-1.83-3.69-.18-.2-.44-.36-.45-.63-.01-.36.45-.87.65-1.14.53-.69,1.14-1.33,1.62-2.06.53-.81-.77-1.56-1.3-.76-.8,1.22-2.56,2.5-2.49,4.11.03.72.52,1.09.95,1.6.46.53.81,1.17,1.06,1.83.7,1.86.66,3.93.21,5.84-.29,1.25-.93,2.43-1.13,3.69s.02,2.53-.28,3.77c-.22.94,1.22,1.34,1.45.4h0Z"/>
      <path class="cls-11" d="M257.68,112.67c-1.17-1.33-1.09-2.9-1.13-4.57-.02-.84-.22-1.59-.47-2.38-.3-.94-.37-1.58-.18-2.55.26-1.36.13-2.68-.55-3.89-.78-1.39-1.96-2.54-2.88-3.83-.55-.78-1.85-.04-1.3.76.91,1.3,2.1,2.45,2.88,3.83.33.6.51,1.24.49,1.93-.02.87-.39,1.67-.3,2.55.08.82.41,1.59.63,2.38.23.83.17,1.67.19,2.53.05,1.65.44,3.06,1.55,4.31.64.73,1.7-.34,1.06-1.06h0Z"/>
      <circle class="cls-5" cx="257.16" cy="117.46" r="4.08"/>
      <path class="cls-11" d="M9.71,113.96c.26-1.09.18-2.18.24-3.29.08-1.33.76-2.54,1.08-3.83.49-1.9.63-3.92.2-5.85-.3-1.35-.91-2.65-1.83-3.69-.18-.2-.44-.36-.45-.63-.01-.36.45-.87.65-1.14.53-.69,1.14-1.33,1.62-2.06.53-.81-.77-1.56-1.3-.76-.8,1.22-2.56,2.5-2.49,4.11.03.72.52,1.09.95,1.6.46.53.81,1.17,1.06,1.83.7,1.86.66,3.93.21,5.84-.29,1.25-.93,2.43-1.13,3.69s.02,2.53-.28,3.77c-.22.94,1.22,1.34,1.45.4h0Z"/>
      <path class="cls-11" d="M8.78,112.67c-1.17-1.33-1.09-2.9-1.13-4.57-.02-.84-.22-1.59-.47-2.38-.3-.94-.37-1.58-.18-2.55.26-1.36.13-2.68-.55-3.89-.78-1.39-1.96-2.54-2.88-3.83-.55-.78-1.85-.04-1.3.76.91,1.3,2.1,2.45,2.88,3.83.33.6.51,1.24.49,1.93-.02.87-.39,1.67-.3,2.55.08.82.41,1.59.63,2.38.23.83.17,1.67.19,2.53.05,1.65.44,3.06,1.55,4.31.64.73,1.7-.34,1.06-1.06h0Z"/>
      <circle class="cls-5" cx="8.26" cy="117.46" r="4.08"/>
      <path class="cls-11" d="M71.93,113.96c.26-1.09.18-2.18.24-3.29.08-1.33.76-2.54,1.08-3.83.49-1.9.63-3.92.2-5.85-.3-1.35-.91-2.65-1.83-3.69-.18-.2-.44-.36-.45-.63-.01-.36.45-.87.65-1.14.53-.69,1.14-1.33,1.62-2.06.53-.81-.77-1.56-1.3-.76-.8,1.22-2.56,2.5-2.49,4.11.03.72.52,1.09.95,1.6.46.53.81,1.17,1.06,1.83.7,1.86.66,3.93.21,5.84-.29,1.25-.93,2.43-1.13,3.69s.02,2.53-.28,3.77c-.22.94,1.22,1.34,1.45.4h0Z"/>
      <path class="cls-11" d="M71,112.67c-1.17-1.33-1.09-2.9-1.13-4.57-.02-.84-.22-1.59-.47-2.38-.3-.94-.37-1.58-.18-2.55.26-1.36.13-2.68-.55-3.89-.78-1.39-1.96-2.54-2.88-3.83-.55-.78-1.85-.04-1.3.76.91,1.3,2.1,2.45,2.88,3.83.33.6.51,1.24.49,1.93-.02.87-.39,1.67-.3,2.55.08.82.41,1.59.63,2.38.23.83.17,1.67.19,2.53.05,1.65.44,3.06,1.55,4.31.64.73,1.7-.34,1.06-1.06h0Z"/>
      <circle class="cls-5" cx="70.49" cy="117.46" r="4.08"/>
      <path class="cls-11" d="M62.68,113.96c.29-1.2.17-2.41.29-3.62.13-1.33.79-2.6,1.06-3.91.36-1.75.46-3.58-.01-5.32-.31-1.15-.88-2.16-1.46-3.19-.31-.56-.56-1-.29-1.65.43-1.04,1.32-1.86,1.93-2.79.53-.81-.77-1.56-1.3-.76-1,1.53-2.89,3.12-2.06,5.14.4.96,1.05,1.8,1.44,2.77.64,1.62.68,3.39.36,5.08-.24,1.28-.8,2.47-1.06,3.74-.28,1.35-.03,2.75-.35,4.1-.23.94,1.22,1.34,1.45.4h0Z"/>
      <path class="cls-11" d="M61.09,112.45c-1.58-1.75-3.32-4.25-3.68-6.62-.09-.61.03-.6.53-.83.39-.18.74-.37.99-.73.33-.5.29-1.14.32-1.71.04-.84.07-1.69.1-2.53.07-2.58.51-6.72-2.34-8.07-.87-.41-1.63.88-.76,1.3s1.23,1.08,1.42,2.06c.44,2.28.2,4.76.09,7.06-.03.75.06,1.03-.61,1.34-.38.17-.73.33-.98.69-.57.8-.22,2.01.07,2.85.78,2.28,2.18,4.48,3.79,6.26.65.72,1.71-.35,1.06-1.06h0Z"/>
      <circle class="cls-5" cx="61.24" cy="117.46" r="4.08"/>
      <path class="cls-11" d="M44.9,113.96c.29-1.2.17-2.41.29-3.62.13-1.33.79-2.6,1.06-3.91.36-1.75.46-3.58-.01-5.32-.31-1.15-.88-2.16-1.46-3.19-.31-.56-.56-1-.29-1.65.43-1.04,1.32-1.86,1.93-2.79.53-.81-.77-1.56-1.3-.76-1,1.53-2.89,3.12-2.06,5.14.4.96,1.05,1.8,1.44,2.77.64,1.62.68,3.39.36,5.08-.24,1.28-.8,2.47-1.06,3.74-.28,1.35-.03,2.75-.35,4.1-.23.94,1.22,1.34,1.45.4h0Z"/>
      <path class="cls-11" d="M43.31,112.45c-1.58-1.75-3.32-4.25-3.68-6.62-.09-.61.03-.6.53-.83.39-.18.74-.37.99-.73.33-.5.29-1.14.32-1.71.04-.84.07-1.69.1-2.53.07-2.58.51-6.72-2.34-8.07-.87-.41-1.63.88-.76,1.3s1.23,1.08,1.42,2.06c.44,2.28.2,4.76.09,7.06-.03.75.06,1.03-.61,1.34-.38.17-.73.33-.98.69-.57.8-.22,2.01.07,2.85.78,2.28,2.18,4.48,3.79,6.26.65.72,1.71-.35,1.06-1.06h0Z"/>
      <circle class="cls-5" cx="43.46" cy="117.46" r="4.08"/>
      <path class="cls-11" d="M18.24,113.96c.29-1.2.17-2.41.29-3.62.13-1.33.79-2.6,1.06-3.91.36-1.75.46-3.58-.01-5.32-.31-1.15-.88-2.16-1.46-3.19-.31-.56-.56-1-.29-1.65.43-1.04,1.32-1.86,1.93-2.79.53-.81-.77-1.56-1.3-.76-1,1.53-2.89,3.12-2.06,5.14.4.96,1.05,1.8,1.44,2.77.64,1.62.68,3.39.36,5.08-.24,1.28-.8,2.47-1.06,3.74-.28,1.35-.03,2.75-.35,4.1-.23.94,1.22,1.34,1.45.4h0Z"/>
      <path class="cls-11" d="M16.65,112.45c-1.58-1.75-3.32-4.25-3.68-6.62-.09-.61.03-.6.53-.83.39-.18.74-.37.99-.73.33-.5.29-1.14.32-1.71.04-.84.07-1.69.1-2.53.07-2.58.51-6.72-2.34-8.07-.87-.41-1.63.88-.76,1.3s1.23,1.08,1.42,2.06c.44,2.28.2,4.76.09,7.06-.03.75.06,1.03-.61,1.34-.38.17-.73.33-.98.69-.57.8-.22,2.01.07,2.85.78,2.28,2.18,4.48,3.79,6.26.65.72,1.71-.35,1.06-1.06h0Z"/>
      <circle class="cls-5" cx="16.79" cy="117.46" r="4.08"/>
      <path class="cls-11" d="M124.91,113.96c.29-1.2.17-2.41.29-3.62.13-1.33.79-2.6,1.06-3.91.36-1.75.46-3.58-.01-5.32-.31-1.15-.88-2.16-1.46-3.19-.31-.56-.56-1-.29-1.65.43-1.04,1.32-1.86,1.93-2.79.53-.81-.77-1.56-1.3-.76-1,1.53-2.89,3.12-2.06,5.14.4.96,1.05,1.8,1.44,2.77.64,1.62.68,3.39.36,5.08-.24,1.28-.8,2.47-1.06,3.74-.28,1.35-.03,2.75-.35,4.1-.23.94,1.22,1.34,1.45.4h0Z"/>
      <path class="cls-11" d="M123.32,112.45c-1.58-1.75-3.32-4.25-3.68-6.62-.09-.61.03-.6.53-.83.39-.18.74-.37.99-.73.33-.5.29-1.14.32-1.71.04-.84.07-1.69.1-2.53.07-2.58.51-6.72-2.34-8.07-.87-.41-1.63.88-.76,1.3s1.23,1.08,1.42,2.06c.44,2.28.2,4.76.09,7.06-.03.75.06,1.03-.61,1.34-.38.17-.73.33-.98.69-.57.8-.22,2.01.07,2.85.78,2.28,2.18,4.48,3.79,6.26.65.72,1.71-.35,1.06-1.06h0Z"/>
      <circle class="cls-5" cx="123.46" cy="117.46" r="4.08"/>
      <path class="cls-11" d="M133.8,113.96c.29-1.2.17-2.41.29-3.62.13-1.33.79-2.6,1.06-3.91.36-1.75.46-3.58-.01-5.32-.31-1.15-.88-2.16-1.46-3.19-.31-.56-.56-1-.29-1.65.43-1.04,1.32-1.86,1.93-2.79.53-.81-.77-1.56-1.3-.76-1,1.53-2.89,3.12-2.06,5.14.4.96,1.05,1.8,1.44,2.77.64,1.62.68,3.39.36,5.08-.24,1.28-.8,2.47-1.06,3.74-.28,1.35-.03,2.75-.35,4.1-.23.94,1.22,1.34,1.45.4h0Z"/>
      <path class="cls-11" d="M132.21,112.45c-1.58-1.75-3.32-4.25-3.68-6.62-.09-.61.03-.6.53-.83.39-.18.74-.37.99-.73.33-.5.29-1.14.32-1.71.04-.84.07-1.69.1-2.53.07-2.58.51-6.72-2.34-8.07-.87-.41-1.63.88-.76,1.3s1.23,1.08,1.42,2.06c.44,2.28.2,4.76.09,7.06-.03.75.06,1.03-.61,1.34-.38.17-.73.33-.98.69-.57.8-.22,2.01.07,2.85.78,2.28,2.18,4.48,3.79,6.26.65.72,1.71-.35,1.06-1.06h0Z"/>
      <circle class="cls-5" cx="132.35" cy="117.46" r="4.08"/>
      <path class="cls-11" d="M178.24,113.96c.29-1.2.17-2.41.29-3.62.13-1.33.79-2.6,1.06-3.91.36-1.75.46-3.58-.01-5.32-.31-1.15-.88-2.16-1.46-3.19-.31-.56-.56-1-.29-1.65.43-1.04,1.32-1.86,1.93-2.79.53-.81-.77-1.56-1.3-.76-1,1.53-2.89,3.12-2.06,5.14.4.96,1.05,1.8,1.44,2.77.64,1.62.68,3.39.36,5.08-.24,1.28-.8,2.47-1.06,3.74-.28,1.35-.03,2.75-.35,4.1-.23.94,1.22,1.34,1.45.4h0Z"/>
      <path class="cls-11" d="M176.65,112.45c-1.58-1.75-3.32-4.25-3.68-6.62-.09-.61.03-.6.53-.83.39-.18.74-.37.99-.73.33-.5.29-1.14.32-1.71.04-.84.07-1.69.1-2.53.07-2.58.51-6.72-2.34-8.07-.87-.41-1.63.88-.76,1.3s1.23,1.08,1.42,2.06c.44,2.28.2,4.76.09,7.06-.03.75.06,1.03-.61,1.34-.38.17-.73.33-.98.69-.57.8-.22,2.01.07,2.85.78,2.28,2.18,4.48,3.79,6.26.65.72,1.71-.35,1.06-1.06h0Z"/>
      <circle class="cls-5" cx="176.8" cy="117.46" r="4.08"/>
      <path class="cls-11" d="M196.02,113.96c.29-1.2.17-2.41.29-3.62.13-1.33.79-2.6,1.06-3.91.36-1.75.46-3.58-.01-5.32-.31-1.15-.88-2.16-1.46-3.19-.31-.56-.56-1-.29-1.65.43-1.04,1.32-1.86,1.93-2.79.53-.81-.77-1.56-1.3-.76-1,1.53-2.89,3.12-2.06,5.14.4.96,1.05,1.8,1.44,2.77.64,1.62.68,3.39.36,5.08-.24,1.28-.8,2.47-1.06,3.74-.28,1.35-.03,2.75-.35,4.1-.23.94,1.22,1.34,1.45.4h0Z"/>
      <path class="cls-11" d="M194.43,112.45c-1.58-1.75-3.32-4.25-3.68-6.62-.09-.61.03-.6.53-.83.39-.18.74-.37.99-.73.33-.5.29-1.14.32-1.71.04-.84.07-1.69.1-2.53.07-2.58.51-6.72-2.34-8.07-.87-.41-1.63.88-.76,1.3s1.23,1.08,1.42,2.06c.44,2.28.2,4.76.09,7.06-.03.75.06,1.03-.61,1.34-.38.17-.73.33-.98.69-.57.8-.22,2.01.07,2.85.78,2.28,2.18,4.48,3.79,6.26.65.72,1.71-.35,1.06-1.06h0Z"/>
      <circle class="cls-5" cx="194.58" cy="117.46" r="4.08"/>
      <path class="cls-11" d="M213.8,113.96c.29-1.2.17-2.41.29-3.62.13-1.33.79-2.6,1.06-3.91.36-1.75.46-3.58-.01-5.32-.31-1.15-.88-2.16-1.46-3.19-.31-.56-.56-1-.29-1.65.43-1.04,1.32-1.86,1.93-2.79.53-.81-.77-1.56-1.3-.76-1,1.53-2.89,3.12-2.06,5.14.4.96,1.05,1.8,1.44,2.77.64,1.62.68,3.39.36,5.08-.24,1.28-.8,2.47-1.06,3.74-.28,1.35-.03,2.75-.35,4.1-.23.94,1.22,1.34,1.45.4h0Z"/>
      <path class="cls-11" d="M212.21,112.45c-1.58-1.75-3.32-4.25-3.68-6.62-.09-.61.03-.6.53-.83.39-.18.74-.37.99-.73.33-.5.29-1.14.32-1.71.04-.84.07-1.69.1-2.53.07-2.58.51-6.72-2.34-8.07-.87-.41-1.63.88-.76,1.3s1.23,1.08,1.42,2.06c.44,2.28.2,4.76.09,7.06-.03.75.06,1.03-.61,1.34-.38.17-.73.33-.98.69-.57.8-.22,2.01.07,2.85.78,2.28,2.18,4.48,3.79,6.26.65.72,1.71-.35,1.06-1.06h0Z"/>
      <circle class="cls-5" cx="212.36" cy="117.46" r="4.08"/>
      <path class="cls-11" d="M231.58,113.96c.29-1.2.17-2.41.29-3.62.13-1.33.79-2.6,1.06-3.91.36-1.75.46-3.58-.01-5.32-.31-1.15-.88-2.16-1.46-3.19-.31-.56-.56-1-.29-1.65.43-1.04,1.32-1.86,1.93-2.79.53-.81-.77-1.56-1.3-.76-1,1.53-2.89,3.12-2.06,5.14.4.96,1.05,1.8,1.44,2.77.64,1.62.68,3.39.36,5.08-.24,1.28-.8,2.47-1.06,3.74-.28,1.35-.03,2.75-.35,4.1-.23.94,1.22,1.34,1.45.4h0Z"/>
      <path class="cls-11" d="M229.99,112.45c-1.58-1.75-3.32-4.25-3.68-6.62-.09-.61.03-.6.53-.83.39-.18.74-.37.99-.73.33-.5.29-1.14.32-1.71.04-.84.07-1.69.1-2.53.07-2.58.51-6.72-2.34-8.07-.87-.41-1.63.88-.76,1.3s1.23,1.08,1.42,2.06c.44,2.28.2,4.76.09,7.06-.03.75.06,1.03-.61,1.34-.38.17-.73.33-.98.69-.57.8-.22,2.01.07,2.85.78,2.28,2.18,4.48,3.79,6.26.65.72,1.71-.35,1.06-1.06h0Z"/>
      <circle class="cls-5" cx="230.14" cy="117.46" r="4.08"/>
      <path class="cls-11" d="M267.14,113.96c.29-1.2.17-2.41.29-3.62.13-1.33.79-2.6,1.06-3.91.36-1.75.46-3.58-.01-5.32-.31-1.15-.88-2.16-1.46-3.19-.31-.56-.56-1-.29-1.65.43-1.04,1.32-1.86,1.93-2.79.53-.81-.77-1.56-1.3-.76-1,1.53-2.89,3.12-2.06,5.14.4.96,1.05,1.8,1.44,2.77.64,1.62.68,3.39.36,5.08-.24,1.28-.8,2.47-1.06,3.74-.28,1.35-.03,2.75-.35,4.1-.23.94,1.22,1.34,1.45.4h0Z"/>
      <path class="cls-11" d="M265.55,112.45c-1.58-1.75-3.32-4.25-3.68-6.62-.09-.61.03-.6.53-.83.39-.18.74-.37.99-.73.33-.5.29-1.14.32-1.71.04-.84.07-1.69.1-2.53.07-2.58.51-6.72-2.34-8.07-.87-.41-1.63.88-.76,1.3s1.23,1.08,1.42,2.06c.44,2.28.2,4.76.09,7.06-.03.75.06,1.03-.61,1.34-.38.17-.73.33-.98.69-.57.8-.22,2.01.07,2.85.78,2.28,2.18,4.48,3.79,6.26.65.72,1.71-.35,1.06-1.06h0Z"/>
      <circle class="cls-5" cx="265.69" cy="117.46" r="4.08"/>
      <path class="cls-11" d="M240.47,113.96c.29-1.2.17-2.41.29-3.62.13-1.33.79-2.6,1.06-3.91.36-1.75.46-3.58-.01-5.32-.31-1.15-.88-2.16-1.46-3.19-.31-.56-.56-1-.29-1.65.43-1.04,1.32-1.86,1.93-2.79.53-.81-.77-1.56-1.3-.76-1,1.53-2.89,3.12-2.06,5.14.4.96,1.05,1.8,1.44,2.77.64,1.62.68,3.39.36,5.08-.24,1.28-.8,2.47-1.06,3.74-.28,1.35-.03,2.75-.35,4.1-.23.94,1.22,1.34,1.45.4h0Z"/>
      <path class="cls-11" d="M238.88,112.45c-1.58-1.75-3.32-4.25-3.68-6.62-.09-.61.03-.6.53-.83.39-.18.74-.37.99-.73.33-.5.29-1.14.32-1.71.04-.84.07-1.69.1-2.53.07-2.58.51-6.72-2.34-8.07-.87-.41-1.63.88-.76,1.3s1.23,1.08,1.42,2.06c.44,2.28.2,4.76.09,7.06-.03.75.06,1.03-.61,1.34-.38.17-.73.33-.98.69-.57.8-.22,2.01.07,2.85.78,2.28,2.18,4.48,3.79,6.26.65.72,1.71-.35,1.06-1.06h0Z"/>
      <circle class="cls-5" cx="239.03" cy="117.46" r="4.08"/>
      <path class="cls-11" d="M107.13,113.96c.29-1.2.17-2.41.29-3.62.13-1.33.79-2.6,1.06-3.91.36-1.75.46-3.58-.01-5.32-.31-1.15-.88-2.16-1.46-3.19-.31-.56-.56-1-.29-1.65.43-1.04,1.32-1.86,1.93-2.79.53-.81-.77-1.56-1.3-.76-1,1.53-2.89,3.12-2.06,5.14.4.96,1.05,1.8,1.44,2.77.64,1.62.68,3.39.36,5.08-.24,1.28-.8,2.47-1.06,3.74-.28,1.35-.03,2.75-.35,4.1-.23.94,1.22,1.34,1.45.4h0Z"/>
      <path class="cls-11" d="M105.54,112.45c-1.58-1.75-3.32-4.25-3.68-6.62-.09-.61.03-.6.53-.83.39-.18.74-.37.99-.73.33-.5.29-1.14.32-1.71.04-.84.07-1.69.1-2.53.07-2.58.51-6.72-2.34-8.07-.87-.41-1.63.88-.76,1.3s1.23,1.08,1.42,2.06c.44,2.28.2,4.76.09,7.06-.03.75.06,1.03-.61,1.34-.38.17-.73.33-.98.69-.57.8-.22,2.01.07,2.85.78,2.28,2.18,4.48,3.79,6.26.65.72,1.71-.35,1.06-1.06h0Z"/>
      <circle class="cls-5" cx="105.68" cy="117.46" r="4.08"/>
    </g>
    <path class="cls-7" d="M70.56,181.29l9-10.9s.04-.06.07-.09l4.39,1.19c1.51.41,2.66,1.64,2.97,3.17l.92,4.54c.43,2.11,3.4,2.2,3.97.13l1.21-4.47c.41-1.51,1.64-2.66,3.17-2.97l4.54-.92c.08-.02.15-.04.22-.06.07.03.14.05.22.07l4.47,1.21c1.51.41,2.66,1.64,2.97,3.17l.92,4.54c.43,2.11,3.4,2.2,3.97.13l1.21-4.47c.41-1.51,1.64-2.66,3.17-2.97l4.53-.92,4.46,1.21c1.51.41,2.66,1.64,2.97,3.17l.92,4.54c.43,2.11,3.4,2.2,3.97.13l1.21-4.47c.41-1.51,1.64-2.66,3.17-2.97l4.54-.92c2.11-.43,2.2-3.4.13-3.97l-4.47-1.21c-1.51-.41-2.66-1.64-2.97-3.17l-.92-4.54c-.43-2.11-3.4-2.2-3.97-.13l-1.21,4.47c-.41,1.51-1.64,2.66-3.17,2.97l-4.53.92-4.46-1.21c-1.51-.41-2.66-1.64-2.97-3.17l-.92-4.54c-.43-2.11-3.4-2.2-3.97-.13l-1.21,4.47c-.41,1.51-1.64,2.66-3.17,2.97l-4.54.92c-.08.02-.15.04-.22.06-.07-.03-.14-.05-.22-.07l-4.47-1.21c-1.51-.41-2.66-1.64-2.97-3.17l-.92-4.54c-.43-2.11-3.4-2.2-3.97-.13l-1.21,4.47c-.41,1.51-1.64,2.66-3.17,2.97l-4.54.92c-.11.02-.22.06-.32.09l-7.16-11.27c-.66-1.04-1.91-1.53-3.1-1.22l-9.33,2.4,4.94-5.98c.78-.95.87-2.29.21-3.33l-7.58-11.93c-.66-1.04-1.91-1.53-3.1-1.22l-13.69,3.52c-1.02.26-1.79,1.06-2.04,2.06-.27-.37-.61-.7-1.02-.94l-10.05-5.96c-1.02-.61-2.29-.62-3.33-.04l-10.19,5.72c-1.04.58-1.68,1.67-1.7,2.86l-.14,11.69c-.01,1.19.61,2.29,1.63,2.9l10.05,5.96c1.02.61,2.29.62,3.33.04l10.19-5.72c.21-.12.4-.25.57-.41.31.59.82,1.08,1.48,1.33l13.14,5.19c.22.09.45.14.67.17l-.74,11.88c-.08,1.23.65,2.36,1.79,2.81l13.14,5.19c1.14.45,2.44.12,3.23-.83Z"/>
    <g>
      <path class="cls-9" d="M152.31,122.83c-6.44,2.71-14.09-1.1-20.94.52-3.9-.25-17.96,3.3-15.53-3.77,1.47-3.29,3.94-12.64,4.14-16.51,1.77-15.35,4.51-23.74.68-38.8,1.89-10.72,13.64.51,20.67-3.44,4.12-.15,14.47-4.83,13.48,2.52-3.3,14.42,11.46,40.16,8.37,54.64-1.44,9.3-.25,4.26-10.85,4.84Z"/>
      <path class="cls-6" d="M167.95,112.14c-10.47-17.6-10.55-45.82-10.56-50.14,0-1.37.03-4.36-2.79-6.08-4.08-2.5-12.88-1.58-18.13,1.05-5.25-2.63-14.05-3.55-18.13-1.05-2.82,1.73-2.79,4.71-2.79,6.08-.01,4.33-.09,32.54-10.56,50.14-2.13,3.59-4.29,6.5-2.57,9.71,2.98,5.56,17.27,8.85,23.02,5.85,3.74-1.95,2.54-5.87,2.25-12.75,0-.21-.02-.44-.03-.67-.01,0-.03,0-.04,0-3.55,0-6.42-2.88-6.42-6.42s2.88-6.42,6.42-6.42c.02,0,.04,0,.07,0,.1-1.77.26-3.62.48-5.53-3.23-.34-5.75-3.07-5.75-6.39,0-3.55,2.88-6.42,6.42-6.42.64,0,1.25.09,1.83.27,1.33-4.53,3.2-9.06,5.81-13.29,4.23,6.84,6.51,14.5,7.71,21.66.37-.07.75-.1,1.14-.1,3.55,0,6.42,2.88,6.42,6.42s-2.84,6.39-6.36,6.42c.13,4.36-.03,8.02-.13,10.48-.26,6.11-1.23,9.88,1.16,12.02l3.51-.83c1.23-.29,2.19-1.25,2.48-2.48l1.07-4.53c.15-.65,1.08-.65,1.23,0l1.07,4.53c.29,1.23,1.25,2.19,2.48,2.48l4.24,1c3.58-1.25,6.89-2.99,8.01-5.29,1.55-3.18-.44-6.12-2.57-9.71Z"/>
    </g>
    <g>
      <circle class="cls-2" cx="179.16" cy="166.62" r="9.42"/>
      <g>
        <line class="cls-10" x1="179.16" y1="160.18" x2="179.16" y2="173.05"/>
        <line class="cls-10" x1="173.03" y1="166.62" x2="185.44" y2="166.62"/>
      </g>
    </g>
    <g>
      <circle class="cls-3" cx="105.01" cy="21.12" r="9.42"/>
      <g>
        <line class="cls-10" x1="105.01" y1="14.68" x2="105.01" y2="27.55"/>
        <line class="cls-10" x1="98.89" y1="21.12" x2="111.29" y2="21.12"/>
      </g>
    </g>
    <g>
      <circle class="cls-4" cx="234.22" cy="44.64" r="9.42"/>
      <g>
        <line class="cls-10" x1="234.22" y1="38.2" x2="234.22" y2="51.07"/>
        <line class="cls-10" x1="228.09" y1="44.64" x2="240.5" y2="44.64"/>
      </g>
    </g>
    <g>
      <circle class="cls-8" cx="52.07" cy="32.99" r="9.42"/>
      <g>
        <line class="cls-10" x1="52.07" y1="26.55" x2="52.07" y2="39.43"/>
        <line class="cls-10" x1="45.94" y1="32.99" x2="58.35" y2="32.99"/>
      </g>
    </g>
  </g>
</svg>