<?xml version="1.0" encoding="UTF-8"?>
<svg id="b" data-name="Layer 2" xmlns="http://www.w3.org/2000/svg" width="548" height="373" xmlns:xlink="http://www.w3.org/1999/xlink" viewBox="0 0 548 373">
  <defs>
    <style>
      .k {
        fill: url(#h);
      }

      .k, .l, .m, .n, .o, .p, .q, .r, .s, .t {
        stroke: #000;
        stroke-miterlimit: 10;
      }

      .k, .l, .m, .n, .o, .p, .r, .s, .t {
        stroke-width: 3px;
      }

      .u {
        fill: url(#d);
      }

      .l {
        fill: url(#j);
      }

      .m {
        fill: #231f20;
      }

      .n {
        fill: url(#g);
      }

      .o {
        fill: url(#f);
      }

      .p {
        fill: #7ccab8;
      }

      .v {
        fill: #ef5ea0;
      }

      .q {
        fill: #fbb03b;
        stroke-width: 2px;
      }

      .r {
        fill: url(#i);
      }

      .s {
        fill: url(#e);
      }

      .t {
        fill: #00957a;
      }
    </style>
    <linearGradient id="d" x1="274" y1="373" x2="274" y2="0" gradientUnits="userSpaceOnUse">
      <stop offset="0" stop-color="#fff9f0"/>
      <stop offset=".35" stop-color="#fff9f0"/>
      <stop offset=".66" stop-color="#b8dfff"/>
      <stop offset="1" stop-color="#b8dfff"/>
    </linearGradient>
    <linearGradient id="e" x1="659.11" y1="1709.83" x2="743.2" y2="1732.36" gradientTransform="translate(1878.67 -378.85) rotate(90.15)" gradientUnits="userSpaceOnUse">
      <stop offset="0" stop-color="#fff"/>
      <stop offset=".11" stop-color="#e2f2d9"/>
      <stop offset=".26" stop-color="#c1e2ab"/>
      <stop offset=".41" stop-color="#a5d586"/>
      <stop offset=".56" stop-color="#8fcb69"/>
      <stop offset=".71" stop-color="#80c454"/>
      <stop offset=".86" stop-color="#77c048"/>
      <stop offset="1" stop-color="#74bf44"/>
    </linearGradient>
    <linearGradient id="f" x1="355.44" y1="58.49" x2="311.53" y2="58.49" gradientUnits="userSpaceOnUse">
      <stop offset="0" stop-color="#00a7d3"/>
      <stop offset=".23" stop-color="#02a7d3"/>
      <stop offset=".36" stop-color="#0aaad4"/>
      <stop offset=".47" stop-color="#19afd7"/>
      <stop offset=".57" stop-color="#2db6da"/>
      <stop offset=".67" stop-color="#47bfdf"/>
      <stop offset=".75" stop-color="#68cae4"/>
      <stop offset=".83" stop-color="#8ed8eb"/>
      <stop offset=".91" stop-color="#bbe7f3"/>
      <stop offset=".98" stop-color="#ecf8fb"/>
      <stop offset="1" stop-color="#fff"/>
    </linearGradient>
    <linearGradient id="g" x1="482.97" y1="306.97" x2="439.06" y2="306.97" xlink:href="#f"/>
    <linearGradient id="h" x1="341.02" y1="336.49" x2="378.69" y2="336.49" gradientUnits="userSpaceOnUse">
      <stop offset="0" stop-color="#fff"/>
      <stop offset=".03" stop-color="#fff9e6"/>
      <stop offset=".1" stop-color="#ffefbb"/>
      <stop offset=".17" stop-color="#ffe795"/>
      <stop offset=".24" stop-color="#ffe074"/>
      <stop offset=".32" stop-color="#ffda5a"/>
      <stop offset=".41" stop-color="#ffd546"/>
      <stop offset=".51" stop-color="#ffd237"/>
      <stop offset=".63" stop-color="#ffd02f"/>
      <stop offset=".83" stop-color="#ffd02d"/>
    </linearGradient>
    <linearGradient id="i" x1="451.1" y1="92.64" x2="488.76" y2="92.64" xlink:href="#h"/>
    <linearGradient id="j" x1="86.96" y1="69.36" x2="124.62" y2="69.36" xlink:href="#h"/>
  </defs>
  <g id="c" data-name="Layer 2">
    <rect class="u" width="548" height="373"/>
    <g>
      <path class="v" d="M497.37,142.76c.98,3.58,1.26,7.24.87,10.93s-1.31,7.15-1.87,10.74-.79,6.98-.04,10.44,2.54,6.58,4.38,9.55c1.01,1.64,3.61.13,2.59-1.51-1.79-2.9-3.52-5.89-4.17-9.28s-.13-7.18.52-10.67,1.43-6.9,1.69-10.41-.14-7.15-1.08-10.59c-.51-1.86-3.41-1.07-2.89.8h0Z"/>
      <path class="v" d="M496.29,142.43c-2.45,2.67-4.93,5.59-5.99,9.13-1.14,3.83.15,7.35,1.22,11.01,2.08,7.1.8,14.79-3.34,20.9-1.09,1.6,1.51,3.1,2.59,1.51,4.03-5.94,5.55-13.34,4.31-20.39-.63-3.58-2.73-7.18-2.2-10.88s3.15-6.58,5.53-9.17c1.3-1.42-.81-3.55-2.12-2.12h0Z"/>
      <circle class="q" cx="497.37" cy="134.97" r="8.16"/>
      <path class="v" d="M337.43,142.76c.98,3.58,1.26,7.24.87,10.93s-1.31,7.15-1.87,10.74-.79,6.98-.04,10.44,2.54,6.58,4.38,9.55c1.01,1.64,3.61.13,2.59-1.51-1.79-2.9-3.52-5.89-4.17-9.28s-.13-7.18.52-10.67,1.43-6.9,1.69-10.41-.14-7.15-1.08-10.59c-.51-1.86-3.41-1.07-2.89.8h0Z"/>
      <path class="v" d="M336.35,142.43c-2.45,2.67-4.93,5.59-5.99,9.13-1.14,3.83.15,7.35,1.22,11.01,2.08,7.1.8,14.79-3.34,20.9-1.09,1.6,1.51,3.1,2.59,1.51,4.03-5.94,5.55-13.34,4.31-20.39-.63-3.58-2.73-7.18-2.2-10.88s3.15-6.58,5.53-9.17c1.3-1.42-.81-3.55-2.12-2.12h0Z"/>
      <circle class="q" cx="337.43" cy="134.97" r="8.16"/>
      <path class="v" d="M319.66,142.76c.98,3.58,1.26,7.24.87,10.93s-1.31,7.15-1.87,10.74-.79,6.98-.04,10.44,2.54,6.58,4.38,9.55c1.01,1.64,3.61.13,2.59-1.51-1.79-2.9-3.52-5.89-4.17-9.28s-.13-7.18.52-10.67,1.43-6.9,1.69-10.41-.14-7.15-1.08-10.59c-.51-1.86-3.41-1.07-2.89.8h0Z"/>
      <path class="v" d="M318.58,142.43c-2.45,2.67-4.93,5.59-5.99,9.13-1.14,3.83.15,7.35,1.22,11.01,2.08,7.1.8,14.79-3.34,20.9-1.09,1.6,1.51,3.1,2.59,1.51,4.03-5.94,5.55-13.34,4.31-20.39-.63-3.58-2.73-7.18-2.2-10.88s3.15-6.58,5.53-9.17c1.3-1.42-.81-3.55-2.12-2.12h0Z"/>
      <circle class="q" cx="319.66" cy="134.97" r="8.16"/>
      <path class="v" d="M195.26,142.76c.98,3.58,1.26,7.24.87,10.93s-1.31,7.15-1.87,10.74-.79,6.98-.04,10.44,2.54,6.58,4.38,9.55c1.01,1.64,3.61.13,2.59-1.51-1.79-2.9-3.52-5.89-4.17-9.28s-.13-7.18.52-10.67,1.43-6.9,1.69-10.41-.14-7.15-1.08-10.59c-.51-1.86-3.41-1.07-2.89.8h0Z"/>
      <path class="v" d="M194.18,142.43c-2.45,2.67-4.93,5.59-5.99,9.13-1.14,3.83.15,7.35,1.22,11.01,2.08,7.1.8,14.79-3.34,20.9-1.09,1.6,1.51,3.1,2.59,1.51,4.03-5.94,5.55-13.34,4.31-20.39-.63-3.58-2.73-7.18-2.2-10.88s3.15-6.58,5.53-9.17c1.3-1.42-.81-3.55-2.12-2.12h0Z"/>
      <circle class="q" cx="195.27" cy="134.97" r="8.16"/>
      <path class="v" d="M408.51,142.76c.98,3.58,1.26,7.24.87,10.93s-1.31,7.15-1.87,10.74-.79,6.98-.04,10.44,2.54,6.58,4.38,9.55c1.01,1.64,3.61.13,2.59-1.51-1.79-2.9-3.52-5.89-4.17-9.28s-.13-7.18.52-10.67,1.43-6.9,1.69-10.41-.14-7.15-1.08-10.59c-.51-1.86-3.41-1.07-2.89.8h0Z"/>
      <path class="v" d="M407.43,142.43c-2.45,2.67-4.93,5.59-5.99,9.13-1.14,3.83.15,7.35,1.22,11.01,2.08,7.1.8,14.79-3.34,20.9-1.09,1.6,1.51,3.1,2.59,1.51,4.03-5.94,5.55-13.34,4.31-20.39-.63-3.58-2.73-7.18-2.2-10.88s3.15-6.58,5.53-9.17c1.3-1.42-.81-3.55-2.12-2.12h0Z"/>
      <circle class="q" cx="408.52" cy="134.97" r="8.16"/>
      <path class="v" d="M372.97,142.76c.98,3.58,1.26,7.24.87,10.93s-1.31,7.15-1.87,10.74-.79,6.98-.04,10.44,2.54,6.58,4.38,9.55c1.01,1.64,3.61.13,2.59-1.51-1.79-2.9-3.52-5.89-4.17-9.28s-.13-7.18.52-10.67,1.43-6.9,1.69-10.41-.14-7.15-1.08-10.59c-.51-1.86-3.41-1.07-2.89.8h0Z"/>
      <path class="v" d="M371.89,142.43c-2.45,2.67-4.93,5.59-5.99,9.13-1.14,3.83.15,7.35,1.22,11.01,2.08,7.1.8,14.79-3.34,20.9-1.09,1.6,1.51,3.1,2.59,1.51,4.03-5.94,5.55-13.34,4.31-20.39-.63-3.58-2.73-7.18-2.2-10.88s3.15-6.58,5.53-9.17c1.3-1.42-.81-3.55-2.12-2.12h0Z"/>
      <circle class="q" cx="372.98" cy="134.97" r="8.16"/>
      <path class="v" d="M284.12,142.76c.98,3.58,1.26,7.24.87,10.93s-1.31,7.15-1.87,10.74-.79,6.98-.04,10.44,2.54,6.58,4.38,9.55c1.01,1.64,3.61.13,2.59-1.51-1.79-2.9-3.52-5.89-4.17-9.28s-.13-7.18.52-10.67,1.43-6.9,1.69-10.41-.14-7.15-1.08-10.59c-.51-1.86-3.41-1.07-2.89.8h0Z"/>
      <path class="v" d="M283.03,142.43c-2.45,2.67-4.93,5.59-5.99,9.13-1.14,3.83.15,7.35,1.22,11.01,2.08,7.1.8,14.79-3.34,20.9-1.09,1.6,1.51,3.1,2.59,1.51,4.03-5.94,5.55-13.34,4.31-20.39-.63-3.58-2.73-7.18-2.2-10.88s3.15-6.58,5.53-9.17c1.3-1.42-.81-3.55-2.12-2.12h0Z"/>
      <circle class="q" cx="284.12" cy="134.97" r="8.16"/>
      <path class="v" d="M159.72,142.76c.98,3.58,1.26,7.24.87,10.93s-1.31,7.15-1.87,10.74-.79,6.98-.04,10.44,2.54,6.58,4.38,9.55c1.01,1.64,3.61.13,2.59-1.51-1.79-2.9-3.52-5.89-4.17-9.28s-.13-7.18.52-10.67,1.43-6.9,1.69-10.41-.14-7.15-1.08-10.59c-.51-1.86-3.41-1.07-2.89.8h0Z"/>
      <path class="v" d="M158.64,142.43c-2.45,2.67-4.93,5.59-5.99,9.13-1.14,3.83.15,7.35,1.22,11.01,2.08,7.1.8,14.79-3.34,20.9-1.09,1.6,1.51,3.1,2.59,1.51,4.03-5.94,5.55-13.34,4.31-20.39-.63-3.58-2.73-7.18-2.2-10.88s3.15-6.58,5.53-9.17c1.3-1.42-.81-3.55-2.12-2.12h0Z"/>
      <circle class="q" cx="159.72" cy="134.97" r="8.16"/>
      <path class="v" d="M106.41,142.76c.98,3.58,1.26,7.24.87,10.93s-1.31,7.15-1.87,10.74-.79,6.98-.04,10.44,2.54,6.58,4.38,9.55c1.01,1.64,3.61.13,2.59-1.51-1.79-2.9-3.52-5.89-4.17-9.28s-.13-7.18.52-10.67,1.43-6.9,1.69-10.41-.14-7.15-1.08-10.59c-.51-1.86-3.41-1.07-2.89.8h0Z"/>
      <path class="v" d="M105.32,142.43c-2.45,2.67-4.93,5.59-5.99,9.13-1.14,3.83.15,7.35,1.22,11.01,2.08,7.1.8,14.79-3.34,20.9-1.09,1.6,1.51,3.1,2.59,1.51,4.03-5.94,5.55-13.34,4.31-20.39-.63-3.58-2.73-7.18-2.2-10.88s3.15-6.58,5.53-9.17c1.3-1.42-.81-3.55-2.12-2.12h0Z"/>
      <circle class="q" cx="106.41" cy="134.97" r="8.16"/>
      <path class="v" d="M53.09,142.76c.98,3.58,1.26,7.24.87,10.93s-1.31,7.15-1.87,10.74-.79,6.98-.04,10.44,2.54,6.58,4.38,9.55c1.01,1.64,3.61.13,2.59-1.51-1.79-2.9-3.52-5.89-4.17-9.28s-.13-7.18.52-10.67,1.43-6.9,1.69-10.41-.14-7.15-1.08-10.59c-.51-1.86-3.41-1.07-2.89.8h0Z"/>
      <path class="v" d="M52.01,142.43c-2.45,2.67-4.93,5.59-5.99,9.13-1.14,3.83.15,7.35,1.22,11.01,2.08,7.1.8,14.79-3.34,20.9-1.09,1.6,1.51,3.1,2.59,1.51,4.03-5.94,5.55-13.34,4.31-20.39-.63-3.58-2.73-7.18-2.2-10.88s3.15-6.58,5.53-9.17c1.3-1.42-.81-3.55-2.12-2.12h0Z"/>
      <circle class="q" cx="53.1" cy="134.97" r="8.16"/>
      <path class="v" d="M72.12,142.76c.48,1.86.3,3.77.38,5.66s.65,3.6,1.31,5.43c1.22,3.38,1.96,6.96,1.74,10.57-.15,2.44-.78,4.88-2.03,7-1.05,1.77-3.22,3.06-2.99,5.33.31,3.08,3.37,5.24,4.94,7.68,1.04,1.62,3.64.12,2.59-1.51-.74-1.15-1.65-2.17-2.52-3.22-.61-.74-2.06-2.14-2.04-3.2.01-.63.86-1.16,1.26-1.65.68-.83,1.28-1.71,1.76-2.67,2.78-5.43,2.46-11.88.7-17.57-.67-2.17-1.65-4.08-1.73-6.39-.07-2.1.05-4.19-.47-6.25-.48-1.87-3.37-1.08-2.89.8h0Z"/>
      <path class="v" d="M71.04,142.43c-2.25,2.53-3,5.43-3.1,8.75-.05,1.65.07,3.29-.37,4.89-.47,1.71-1.17,3.33-1.3,5.12s.63,3.3.63,5.01c0,1.27-.34,2.47-.96,3.57-1.55,2.79-3.95,5.09-5.77,7.7-1.11,1.59,1.49,3.09,2.59,1.51,1.77-2.54,4.05-4.76,5.62-7.44s1.8-5.55,1.12-8.51c-.41-1.76,0-3.13.55-4.83s.85-3.21.86-4.95c.03-3.17.02-6.2,2.25-8.7,1.28-1.44-.83-3.57-2.12-2.12h0Z"/>
      <circle class="q" cx="72.12" cy="134.97" r="8.16"/>
      <path class="v" d="M178.74,142.76c.48,1.86.3,3.77.38,5.66s.65,3.6,1.31,5.43c1.22,3.38,1.96,6.96,1.74,10.57-.15,2.44-.78,4.88-2.03,7-1.05,1.77-3.22,3.06-2.99,5.33.31,3.08,3.37,5.24,4.94,7.68,1.04,1.62,3.64.12,2.59-1.51-.74-1.15-1.65-2.17-2.52-3.22-.61-.74-2.06-2.14-2.04-3.2.01-.63.86-1.16,1.26-1.65.68-.83,1.28-1.71,1.76-2.67,2.78-5.43,2.46-11.88.7-17.57-.67-2.17-1.65-4.08-1.73-6.39-.07-2.1.05-4.19-.47-6.25-.48-1.87-3.37-1.08-2.89.8h0Z"/>
      <path class="v" d="M177.66,142.43c-2.25,2.53-3,5.43-3.1,8.75-.05,1.65.07,3.29-.37,4.89-.47,1.71-1.17,3.33-1.3,5.12s.63,3.3.63,5.01c0,1.27-.34,2.47-.96,3.57-1.55,2.79-3.95,5.09-5.77,7.7-1.11,1.59,1.49,3.09,2.59,1.51,1.77-2.54,4.05-4.76,5.62-7.44s1.8-5.55,1.12-8.51c-.41-1.76,0-3.13.55-4.83s.85-3.21.86-4.95c.03-3.17.02-6.2,2.25-8.7,1.28-1.44-.83-3.57-2.12-2.12h0Z"/>
      <circle class="q" cx="178.75" cy="134.97" r="8.16"/>
      <path class="v" d="M232.06,142.76c.48,1.86.3,3.77.38,5.66s.65,3.6,1.31,5.43c1.22,3.38,1.96,6.96,1.74,10.57-.15,2.44-.78,4.88-2.03,7-1.05,1.77-3.22,3.06-2.99,5.33.31,3.08,3.37,5.24,4.94,7.68,1.04,1.62,3.64.12,2.59-1.51-.74-1.15-1.65-2.17-2.52-3.22-.61-.74-2.06-2.14-2.04-3.2.01-.63.86-1.16,1.26-1.65.68-.83,1.28-1.71,1.76-2.67,2.78-5.43,2.46-11.88.7-17.57-.67-2.17-1.65-4.08-1.73-6.39-.07-2.1.05-4.19-.47-6.25-.48-1.87-3.37-1.08-2.89.8h0Z"/>
      <path class="v" d="M230.97,142.43c-2.25,2.53-3,5.43-3.1,8.75-.05,1.65.07,3.29-.37,4.89-.47,1.71-1.17,3.33-1.3,5.12s.63,3.3.63,5.01c0,1.27-.34,2.47-.96,3.57-1.55,2.79-3.95,5.09-5.77,7.7-1.11,1.59,1.49,3.09,2.59,1.51,1.77-2.54,4.05-4.76,5.62-7.44s1.8-5.55,1.12-8.51c-.41-1.76,0-3.13.55-4.83s.85-3.21.86-4.95c.03-3.17.02-6.2,2.25-8.7,1.28-1.44-.83-3.57-2.12-2.12h0Z"/>
      <circle class="q" cx="232.06" cy="134.97" r="8.16"/>
      <path class="v" d="M303.14,142.76c.48,1.86.3,3.77.38,5.66s.65,3.6,1.31,5.43c1.22,3.38,1.96,6.96,1.74,10.57-.15,2.44-.78,4.88-2.03,7-1.05,1.77-3.22,3.06-2.99,5.33.31,3.08,3.37,5.24,4.94,7.68,1.04,1.62,3.64.12,2.59-1.51-.74-1.15-1.65-2.17-2.52-3.22-.61-.74-2.06-2.14-2.04-3.2.01-.63.86-1.16,1.26-1.65.68-.83,1.28-1.71,1.76-2.67,2.78-5.43,2.46-11.88.7-17.57-.67-2.17-1.65-4.08-1.73-6.39-.07-2.1.05-4.19-.47-6.25-.48-1.87-3.37-1.08-2.89.8h0Z"/>
      <path class="v" d="M302.06,142.43c-2.25,2.53-3,5.43-3.1,8.75-.05,1.65.07,3.29-.37,4.89-.47,1.71-1.17,3.33-1.3,5.12s.63,3.3.63,5.01c0,1.27-.34,2.47-.96,3.57-1.55,2.79-3.95,5.09-5.77,7.7-1.11,1.59,1.49,3.09,2.59,1.51,1.77-2.54,4.05-4.76,5.62-7.44s1.8-5.55,1.12-8.51c-.41-1.76,0-3.13.55-4.83s.85-3.21.86-4.95c.03-3.17.02-6.2,2.25-8.7,1.28-1.44-.83-3.57-2.12-2.12h0Z"/>
      <circle class="q" cx="303.15" cy="134.97" r="8.16"/>
      <path class="v" d="M445.31,142.76c.48,1.86.3,3.77.38,5.66s.65,3.6,1.31,5.43c1.22,3.38,1.96,6.96,1.74,10.57-.15,2.44-.78,4.88-2.03,7-1.05,1.77-3.22,3.06-2.99,5.33.31,3.08,3.37,5.24,4.94,7.68,1.04,1.62,3.64.12,2.59-1.51-.74-1.15-1.65-2.17-2.52-3.22-.61-.74-2.06-2.14-2.04-3.2.01-.63.86-1.16,1.26-1.65.68-.83,1.28-1.71,1.76-2.67,2.78-5.43,2.46-11.88.7-17.57-.67-2.17-1.65-4.08-1.73-6.39-.07-2.1.05-4.19-.47-6.25-.48-1.87-3.37-1.08-2.89.8h0Z"/>
      <path class="v" d="M444.23,142.43c-2.25,2.53-3,5.43-3.1,8.75-.05,1.65.07,3.29-.37,4.89-.47,1.71-1.17,3.33-1.3,5.12s.63,3.3.63,5.01c0,1.27-.34,2.47-.96,3.57-1.55,2.79-3.95,5.09-5.77,7.7-1.11,1.59,1.49,3.09,2.59,1.51,1.77-2.54,4.05-4.76,5.62-7.44s1.8-5.55,1.12-8.51c-.41-1.76,0-3.13.55-4.83s.85-3.21.86-4.95c.03-3.17.02-6.2,2.25-8.7,1.28-1.44-.83-3.57-2.12-2.12h0Z"/>
      <circle class="q" cx="445.31" cy="134.97" r="8.16"/>
      <path class="v" d="M516.39,142.76c.48,1.86.3,3.77.38,5.66s.65,3.6,1.31,5.43c1.22,3.38,1.96,6.96,1.74,10.57-.15,2.44-.78,4.88-2.03,7-1.05,1.77-3.22,3.06-2.99,5.33.31,3.08,3.37,5.24,4.94,7.68,1.04,1.62,3.64.12,2.59-1.51-.74-1.15-1.65-2.17-2.52-3.22-.61-.74-2.06-2.14-2.04-3.2.01-.63.86-1.16,1.26-1.65.68-.83,1.28-1.71,1.76-2.67,2.78-5.43,2.46-11.88.7-17.57-.67-2.17-1.65-4.08-1.73-6.39-.07-2.1.05-4.19-.47-6.25-.48-1.87-3.37-1.08-2.89.8h0Z"/>
      <path class="v" d="M515.31,142.43c-2.25,2.53-3,5.43-3.1,8.75-.05,1.65.07,3.29-.37,4.89-.47,1.71-1.17,3.33-1.3,5.12s.63,3.3.63,5.01c0,1.27-.34,2.47-.96,3.57-1.55,2.79-3.95,5.09-5.77,7.7-1.11,1.59,1.49,3.09,2.59,1.51,1.77-2.54,4.05-4.76,5.62-7.44s1.8-5.55,1.12-8.51c-.41-1.76,0-3.13.55-4.83s.85-3.21.86-4.95c.03-3.17.02-6.2,2.25-8.7,1.28-1.44-.83-3.57-2.12-2.12h0Z"/>
      <circle class="q" cx="516.4" cy="134.97" r="8.16"/>
      <path class="v" d="M18.81,142.76c.48,1.86.3,3.77.38,5.66s.65,3.6,1.31,5.43c1.22,3.38,1.96,6.96,1.74,10.57-.15,2.44-.78,4.88-2.03,7-1.05,1.77-3.22,3.06-2.99,5.33.31,3.08,3.37,5.24,4.94,7.68,1.04,1.62,3.64.12,2.59-1.51-.74-1.15-1.65-2.17-2.52-3.22-.61-.74-2.06-2.14-2.04-3.2.01-.63.86-1.16,1.26-1.65.68-.83,1.28-1.71,1.76-2.67,2.78-5.43,2.46-11.88.7-17.57-.67-2.17-1.65-4.08-1.73-6.39-.07-2.1.05-4.19-.47-6.25-.48-1.87-3.37-1.08-2.89.8h0Z"/>
      <path class="v" d="M17.72,142.43c-2.25,2.53-3,5.43-3.1,8.75-.05,1.65.07,3.29-.37,4.89-.47,1.71-1.17,3.33-1.3,5.12s.63,3.3.63,5.01c0,1.27-.34,2.47-.96,3.57-1.55,2.79-3.95,5.09-5.77,7.7-1.11,1.59,1.49,3.09,2.59,1.51,1.77-2.54,4.05-4.76,5.62-7.44s1.8-5.55,1.12-8.51c-.41-1.76,0-3.13.55-4.83s.85-3.21.86-4.95c.03-3.17.02-6.2,2.25-8.7,1.28-1.44-.83-3.57-2.12-2.12h0Z"/>
      <circle class="q" cx="18.81" cy="134.97" r="8.16"/>
      <path class="v" d="M143.2,142.76c.48,1.86.3,3.77.38,5.66s.65,3.6,1.31,5.43c1.22,3.38,1.96,6.96,1.74,10.57-.15,2.44-.78,4.88-2.03,7-1.05,1.77-3.22,3.06-2.99,5.33.31,3.08,3.37,5.24,4.94,7.68,1.04,1.62,3.64.12,2.59-1.51-.74-1.15-1.65-2.17-2.52-3.22-.61-.74-2.06-2.14-2.04-3.2.01-.63.86-1.16,1.26-1.65.68-.83,1.28-1.71,1.76-2.67,2.78-5.43,2.46-11.88.7-17.57-.67-2.17-1.65-4.08-1.73-6.39-.07-2.1.05-4.19-.47-6.25-.48-1.87-3.37-1.08-2.89.8h0Z"/>
      <path class="v" d="M142.12,142.43c-2.25,2.53-3,5.43-3.1,8.75-.05,1.65.07,3.29-.37,4.89-.47,1.71-1.17,3.33-1.3,5.12s.63,3.3.63,5.01c0,1.27-.34,2.47-.96,3.57-1.55,2.79-3.95,5.09-5.77,7.7-1.11,1.59,1.49,3.09,2.59,1.51,1.77-2.54,4.05-4.76,5.62-7.44s1.8-5.55,1.12-8.51c-.41-1.76,0-3.13.55-4.83s.85-3.21.86-4.95c.03-3.17.02-6.2,2.25-8.7,1.28-1.44-.83-3.57-2.12-2.12h0Z"/>
      <circle class="q" cx="143.21" cy="134.97" r="8.16"/>
      <path class="v" d="M124.71,142.76c.52,2.02.31,4.08.45,6.14.15,2.21.96,4.14,1.57,6.24.91,3.1,1.47,6.38,1.07,9.62-.24,1.96-.89,3.84-1.81,5.58-.72,1.37-1.65,2.67-2.19,4.13-1.44,3.89,2.38,7.04,4.25,9.96,1.04,1.62,3.64.12,2.59-1.51-.93-1.44-2.09-2.71-3.05-4.13-.43-.63-.89-1.33-1.04-2.09-.05-.24-.09-.5-.06-.75.02-.2.11-.43.18-.62-.05.13-.06.14,0,0,.61-1.38,1.5-2.63,2.17-3.98,2.44-4.92,2.48-10.3,1.17-15.57-.57-2.29-1.69-4.5-1.86-6.88s.03-4.65-.56-6.94c-.48-1.87-3.37-1.08-2.89.8h0Z"/>
      <path class="v" d="M122.31,142.87c-2.66,2.92-4.9,6.39-6.55,9.97-1.2,2.62-3.35,7.48.08,9.33.47.26,1.19.34,1.6.71.5.45.29,1.62.32,2.25.11,2.35.2,4.7.22,7.06.02,2.69.09,5.55-.66,8.16-.16.57-.24.78-.41,1.09-.1.18-.2.36-.31.53-.23.36,0,.05-.19.25-.13.14-.26.27-.39.39-.32.3.02.02-.22.17-.34.22-.69.42-1.06.59-1.75.81-.23,3.4,1.51,2.59,3.97-1.85,4.5-6.29,4.67-10.21.08-1.89.07-3.79.02-5.68-.03-1.21-.07-2.41-.12-3.62s.03-2.65-.23-3.89c-.16-.78-.55-1.43-1.16-1.94s-1.31-.62-1.97-1c-.46-.27-.48-.25-.46-.82.02-.79.28-1.61.52-2.35,1.35-4.15,3.98-8.25,6.91-11.47,1.3-1.43-.82-3.55-2.12-2.12h0Z"/>
      <circle class="q" cx="124.72" cy="134.97" r="8.16"/>
      <path class="v" d="M89.17,142.76c.52,2.02.31,4.08.45,6.14.15,2.21.96,4.14,1.57,6.24.91,3.1,1.47,6.38,1.07,9.62-.24,1.96-.89,3.84-1.81,5.58-.72,1.37-1.65,2.67-2.19,4.13-1.44,3.89,2.38,7.04,4.25,9.96,1.04,1.62,3.64.12,2.59-1.51-.93-1.44-2.09-2.71-3.05-4.13-.43-.63-.89-1.33-1.04-2.09-.05-.24-.09-.5-.06-.75.02-.2.11-.43.18-.62-.05.13-.06.14,0,0,.61-1.38,1.5-2.63,2.17-3.98,2.44-4.92,2.48-10.3,1.17-15.57-.57-2.29-1.69-4.5-1.86-6.88s.03-4.65-.56-6.94c-.48-1.87-3.37-1.08-2.89.8h0Z"/>
      <path class="v" d="M86.76,142.87c-2.66,2.92-4.9,6.39-6.55,9.97-1.2,2.62-3.35,7.48.08,9.33.47.26,1.19.34,1.6.71.5.45.29,1.62.32,2.25.11,2.35.2,4.7.22,7.06.02,2.69.09,5.55-.66,8.16-.16.57-.24.78-.41,1.09-.1.18-.2.36-.31.53-.23.36,0,.05-.19.25-.13.14-.26.27-.39.39-.32.3.02.02-.22.17-.34.22-.69.42-1.06.59-1.75.81-.23,3.4,1.51,2.59,3.97-1.85,4.5-6.29,4.67-10.21.08-1.89.07-3.79.02-5.68-.03-1.21-.07-2.41-.12-3.62s.03-2.65-.23-3.89c-.16-.78-.55-1.43-1.16-1.94s-1.31-.62-1.97-1c-.46-.27-.48-.25-.46-.82.02-.79.28-1.61.52-2.35,1.35-4.15,3.98-8.25,6.91-11.47,1.3-1.43-.82-3.55-2.12-2.12h0Z"/>
      <circle class="q" cx="89.17" cy="134.97" r="8.16"/>
      <path class="v" d="M35.86,142.76c.52,2.02.31,4.08.45,6.14.15,2.21.96,4.14,1.57,6.24.91,3.1,1.47,6.38,1.07,9.62-.24,1.96-.89,3.84-1.81,5.58-.72,1.37-1.65,2.67-2.19,4.13-1.44,3.89,2.38,7.04,4.25,9.96,1.04,1.62,3.64.12,2.59-1.51-.93-1.44-2.09-2.71-3.05-4.13-.43-.63-.89-1.33-1.04-2.09-.05-.24-.09-.5-.06-.75.02-.2.11-.43.18-.62-.05.13-.06.14,0,0,.61-1.38,1.5-2.63,2.17-3.98,2.44-4.92,2.48-10.3,1.17-15.57-.57-2.29-1.69-4.5-1.86-6.88s.03-4.65-.56-6.94c-.48-1.87-3.37-1.08-2.89.8h0Z"/>
      <path class="v" d="M33.45,142.87c-2.66,2.92-4.9,6.39-6.55,9.97-1.2,2.62-3.35,7.48.08,9.33.47.26,1.19.34,1.6.71.5.45.29,1.62.32,2.25.11,2.35.2,4.7.22,7.06.02,2.69.09,5.55-.66,8.16-.16.57-.24.78-.41,1.09-.1.18-.2.36-.31.53-.23.36,0,.05-.19.25-.13.14-.26.27-.39.39-.32.3.02.02-.22.17-.34.22-.69.42-1.06.59-1.75.81-.23,3.4,1.51,2.59,3.97-1.85,4.5-6.29,4.67-10.21.08-1.89.07-3.79.02-5.68-.03-1.21-.07-2.41-.12-3.62s.03-2.65-.23-3.89c-.16-.78-.55-1.43-1.16-1.94s-1.31-.62-1.97-1c-.46-.27-.48-.25-.46-.82.02-.79.28-1.61.52-2.35,1.35-4.15,3.98-8.25,6.91-11.47,1.3-1.43-.82-3.55-2.12-2.12h0Z"/>
      <circle class="q" cx="35.86" cy="134.97" r="8.16"/>
      <path class="v" d="M249.11,142.76c.52,2.02.31,4.08.45,6.14.15,2.21.96,4.14,1.57,6.24.91,3.1,1.47,6.38,1.07,9.62-.24,1.96-.89,3.84-1.81,5.58-.72,1.37-1.65,2.67-2.19,4.13-1.44,3.89,2.38,7.04,4.25,9.96,1.04,1.62,3.64.12,2.59-1.51-.93-1.44-2.09-2.71-3.05-4.13-.43-.63-.89-1.33-1.04-2.09-.05-.24-.09-.5-.06-.75.02-.2.11-.43.18-.62-.05.13-.06.14,0,0,.61-1.38,1.5-2.63,2.17-3.98,2.44-4.92,2.48-10.3,1.17-15.57-.57-2.29-1.69-4.5-1.86-6.88s.03-4.65-.56-6.94c-.48-1.87-3.37-1.08-2.89.8h0Z"/>
      <path class="v" d="M246.7,142.87c-2.66,2.92-4.9,6.39-6.55,9.97-1.2,2.62-3.35,7.48.08,9.33.47.26,1.19.34,1.6.71.5.45.29,1.62.32,2.25.11,2.35.2,4.7.22,7.06.02,2.69.09,5.55-.66,8.16-.16.57-.24.78-.41,1.09-.1.18-.2.36-.31.53-.23.36,0,.05-.19.25-.13.14-.26.27-.39.39-.32.3.02.02-.22.17-.34.22-.69.42-1.06.59-1.75.81-.23,3.4,1.51,2.59,3.97-1.85,4.5-6.29,4.67-10.21.08-1.89.07-3.79.02-5.68-.03-1.21-.07-2.41-.12-3.62s.03-2.65-.23-3.89c-.16-.78-.55-1.43-1.16-1.94s-1.31-.62-1.97-1c-.46-.27-.48-.25-.46-.82.02-.79.28-1.61.52-2.35,1.35-4.15,3.98-8.25,6.91-11.47,1.3-1.43-.82-3.55-2.12-2.12h0Z"/>
      <circle class="q" cx="249.11" cy="134.97" r="8.16"/>
      <path class="v" d="M266.88,142.76c.52,2.02.31,4.08.45,6.14.15,2.21.96,4.14,1.57,6.24.91,3.1,1.47,6.38,1.07,9.62-.24,1.96-.89,3.84-1.81,5.58-.72,1.37-1.65,2.67-2.19,4.13-1.44,3.89,2.38,7.04,4.25,9.96,1.04,1.62,3.64.12,2.59-1.51-.93-1.44-2.09-2.71-3.05-4.13-.43-.63-.89-1.33-1.04-2.09-.05-.24-.09-.5-.06-.75.02-.2.11-.43.18-.62-.05.13-.06.14,0,0,.61-1.38,1.5-2.63,2.17-3.98,2.44-4.92,2.48-10.3,1.17-15.57-.57-2.29-1.69-4.5-1.86-6.88s.03-4.65-.56-6.94c-.48-1.87-3.37-1.08-2.89.8h0Z"/>
      <path class="v" d="M264.47,142.87c-2.66,2.92-4.9,6.39-6.55,9.97-1.2,2.62-3.35,7.48.08,9.33.47.26,1.19.34,1.6.71.5.45.29,1.62.32,2.25.11,2.35.2,4.7.22,7.06.02,2.69.09,5.55-.66,8.16-.16.57-.24.78-.41,1.09-.1.18-.2.36-.31.53-.23.36,0,.05-.19.25-.13.14-.26.27-.39.39-.32.3.02.02-.22.17-.34.22-.69.42-1.06.59-1.75.81-.23,3.4,1.51,2.59,3.97-1.85,4.5-6.29,4.67-10.21.08-1.89.07-3.79.02-5.68-.03-1.21-.07-2.41-.12-3.62s.03-2.65-.23-3.89c-.16-.78-.55-1.43-1.16-1.94s-1.31-.62-1.97-1c-.46-.27-.48-.25-.46-.82.02-.79.28-1.61.52-2.35,1.35-4.15,3.98-8.25,6.91-11.47,1.3-1.43-.82-3.55-2.12-2.12h0Z"/>
      <circle class="q" cx="266.88" cy="134.97" r="8.16"/>
      <path class="v" d="M355.73,142.76c.52,2.02.31,4.08.45,6.14.15,2.21.96,4.14,1.57,6.24.91,3.1,1.47,6.38,1.07,9.62-.24,1.96-.89,3.84-1.81,5.58-.72,1.37-1.65,2.67-2.19,4.13-1.44,3.89,2.38,7.04,4.25,9.96,1.04,1.62,3.64.12,2.59-1.51-.93-1.44-2.09-2.71-3.05-4.13-.43-.63-.89-1.33-1.04-2.09-.05-.24-.09-.5-.06-.75.02-.2.11-.43.18-.62-.05.13-.06.14,0,0,.61-1.38,1.5-2.63,2.17-3.98,2.44-4.92,2.48-10.3,1.17-15.57-.57-2.29-1.69-4.5-1.86-6.88s.03-4.65-.56-6.94c-.48-1.87-3.37-1.08-2.89.8h0Z"/>
      <path class="v" d="M353.33,142.87c-2.66,2.92-4.9,6.39-6.55,9.97-1.2,2.62-3.35,7.48.08,9.33.47.26,1.19.34,1.6.71.5.45.29,1.62.32,2.25.11,2.35.2,4.7.22,7.06.02,2.69.09,5.55-.66,8.16-.16.57-.24.78-.41,1.09-.1.18-.2.36-.31.53-.23.36,0,.05-.19.25-.13.14-.26.27-.39.39-.32.3.02.02-.22.17-.34.22-.69.42-1.06.59-1.75.81-.23,3.4,1.51,2.59,3.97-1.85,4.5-6.29,4.67-10.21.08-1.89.07-3.79.02-5.68-.03-1.21-.07-2.41-.12-3.62s.03-2.65-.23-3.89c-.16-.78-.55-1.43-1.16-1.94s-1.31-.62-1.97-1c-.46-.27-.48-.25-.46-.82.02-.79.28-1.61.52-2.35,1.35-4.15,3.98-8.25,6.91-11.47,1.3-1.43-.82-3.55-2.12-2.12h0Z"/>
      <circle class="q" cx="355.74" cy="134.97" r="8.16"/>
      <path class="v" d="M391.28,142.76c.52,2.02.31,4.08.45,6.14.15,2.21.96,4.14,1.57,6.24.91,3.1,1.47,6.38,1.07,9.62-.24,1.96-.89,3.84-1.81,5.58-.72,1.37-1.65,2.67-2.19,4.13-1.44,3.89,2.38,7.04,4.25,9.96,1.04,1.62,3.64.12,2.59-1.51-.93-1.44-2.09-2.71-3.05-4.13-.43-.63-.89-1.33-1.04-2.09-.05-.24-.09-.5-.06-.75.02-.2.11-.43.18-.62-.05.13-.06.14,0,0,.61-1.38,1.5-2.63,2.17-3.98,2.44-4.92,2.48-10.3,1.17-15.57-.57-2.29-1.69-4.5-1.86-6.88s.03-4.65-.56-6.94c-.48-1.87-3.37-1.08-2.89.8h0Z"/>
      <path class="v" d="M388.87,142.87c-2.66,2.92-4.9,6.39-6.55,9.97-1.2,2.62-3.35,7.48.08,9.33.47.26,1.19.34,1.6.71.5.45.29,1.62.32,2.25.11,2.35.2,4.7.22,7.06.02,2.69.09,5.55-.66,8.16-.16.57-.24.78-.41,1.09-.1.18-.2.36-.31.53-.23.36,0,.05-.19.25-.13.14-.26.27-.39.39-.32.3.02.02-.22.17-.34.22-.69.42-1.06.59-1.75.81-.23,3.4,1.51,2.59,3.97-1.85,4.5-6.29,4.67-10.21.08-1.89.07-3.79.02-5.68-.03-1.21-.07-2.41-.12-3.62s.03-2.65-.23-3.89c-.16-.78-.55-1.43-1.16-1.94s-1.31-.62-1.97-1c-.46-.27-.48-.25-.46-.82.02-.79.28-1.61.52-2.35,1.35-4.15,3.98-8.25,6.91-11.47,1.3-1.43-.82-3.55-2.12-2.12h0Z"/>
      <circle class="q" cx="391.28" cy="134.97" r="8.16"/>
      <path class="v" d="M426.82,142.76c.52,2.02.31,4.08.45,6.14.15,2.21.96,4.14,1.57,6.24.91,3.1,1.47,6.38,1.07,9.62-.24,1.96-.89,3.84-1.81,5.58-.72,1.37-1.65,2.67-2.19,4.13-1.44,3.89,2.38,7.04,4.25,9.96,1.04,1.62,3.64.12,2.59-1.51-.93-1.44-2.09-2.71-3.05-4.13-.43-.63-.89-1.33-1.04-2.09-.05-.24-.09-.5-.06-.75.02-.2.11-.43.18-.62-.05.13-.06.14,0,0,.61-1.38,1.5-2.63,2.17-3.98,2.44-4.92,2.48-10.3,1.17-15.57-.57-2.29-1.69-4.5-1.86-6.88s.03-4.65-.56-6.94c-.48-1.87-3.37-1.08-2.89.8h0Z"/>
      <path class="v" d="M424.41,142.87c-2.66,2.92-4.9,6.39-6.55,9.97-1.2,2.62-3.35,7.48.08,9.33.47.26,1.19.34,1.6.71.5.45.29,1.62.32,2.25.11,2.35.2,4.7.22,7.06.02,2.69.09,5.55-.66,8.16-.16.57-.24.78-.41,1.09-.1.18-.2.36-.31.53-.23.36,0,.05-.19.25-.13.14-.26.27-.39.39-.32.3.02.02-.22.17-.34.22-.69.42-1.06.59-1.75.81-.23,3.4,1.51,2.59,3.97-1.85,4.5-6.29,4.67-10.21.08-1.89.07-3.79.02-5.68-.03-1.21-.07-2.41-.12-3.62s.03-2.65-.23-3.89c-.16-.78-.55-1.43-1.16-1.94s-1.31-.62-1.97-1c-.46-.27-.48-.25-.46-.82.02-.79.28-1.61.52-2.35,1.35-4.15,3.98-8.25,6.91-11.47,1.3-1.43-.82-3.55-2.12-2.12h0Z"/>
      <circle class="q" cx="426.82" cy="134.97" r="8.16"/>
      <path class="v" d="M462.36,142.76c.52,2.02.31,4.08.45,6.14.15,2.21.96,4.14,1.57,6.24.91,3.1,1.47,6.38,1.07,9.62-.24,1.96-.89,3.84-1.81,5.58-.72,1.37-1.65,2.67-2.19,4.13-1.44,3.89,2.38,7.04,4.25,9.96,1.04,1.62,3.64.12,2.59-1.51-.93-1.44-2.09-2.71-3.05-4.13-.43-.63-.89-1.33-1.04-2.09-.05-.24-.09-.5-.06-.75.02-.2.11-.43.18-.62-.05.13-.06.14,0,0,.61-1.38,1.5-2.63,2.17-3.98,2.44-4.92,2.48-10.3,1.17-15.57-.57-2.29-1.69-4.5-1.86-6.88s.03-4.65-.56-6.94c-.48-1.87-3.37-1.08-2.89.8h0Z"/>
      <path class="v" d="M459.95,142.87c-2.66,2.92-4.9,6.39-6.55,9.97-1.2,2.62-3.35,7.48.08,9.33.47.26,1.19.34,1.6.71.5.45.29,1.62.32,2.25.11,2.35.2,4.7.22,7.06.02,2.69.09,5.55-.66,8.16-.16.57-.24.78-.41,1.09-.1.18-.2.36-.31.53-.23.36,0,.05-.19.25-.13.14-.26.27-.39.39-.32.3.02.02-.22.17-.34.22-.69.42-1.06.59-1.75.81-.23,3.4,1.51,2.59,3.97-1.85,4.5-6.29,4.67-10.21.08-1.89.07-3.79.02-5.68-.03-1.21-.07-2.41-.12-3.62s.03-2.65-.23-3.89c-.16-.78-.55-1.43-1.16-1.94s-1.31-.62-1.97-1c-.46-.27-.48-.25-.46-.82.02-.79.28-1.61.52-2.35,1.35-4.15,3.98-8.25,6.91-11.47,1.3-1.43-.82-3.55-2.12-2.12h0Z"/>
      <circle class="q" cx="462.37" cy="134.97" r="8.16"/>
      <path class="v" d="M533.44,142.76c.52,2.02.31,4.08.45,6.14.15,2.21.96,4.14,1.57,6.24.91,3.1,1.47,6.38,1.07,9.62-.24,1.96-.89,3.84-1.81,5.58-.72,1.37-1.65,2.67-2.19,4.13-1.44,3.89,2.38,7.04,4.25,9.96,1.04,1.62,3.64.12,2.59-1.51-.93-1.44-2.09-2.71-3.05-4.13-.43-.63-.89-1.33-1.04-2.09-.05-.24-.09-.5-.06-.75.02-.2.11-.43.18-.62-.05.13-.06.14,0,0,.61-1.38,1.5-2.63,2.17-3.98,2.44-4.92,2.48-10.3,1.17-15.57-.57-2.29-1.69-4.5-1.86-6.88s.03-4.65-.56-6.94c-.48-1.87-3.37-1.08-2.89.8h0Z"/>
      <path class="v" d="M531.04,142.87c-2.66,2.92-4.9,6.39-6.55,9.97-1.2,2.62-3.35,7.48.08,9.33.47.26,1.19.34,1.6.71.5.45.29,1.62.32,2.25.11,2.35.2,4.7.22,7.06.02,2.69.09,5.55-.66,8.16-.16.57-.24.78-.41,1.09-.1.18-.2.36-.31.53-.23.36,0,.05-.19.25-.13.14-.26.27-.39.39-.32.3.02.02-.22.17-.34.22-.69.42-1.06.59-1.75.81-.23,3.4,1.51,2.59,3.97-1.85,4.5-6.29,4.67-10.21.08-1.89.07-3.79.02-5.68-.03-1.21-.07-2.41-.12-3.62s.03-2.65-.23-3.89c-.16-.78-.55-1.43-1.16-1.94s-1.31-.62-1.97-1c-.46-.27-.48-.25-.46-.82.02-.79.28-1.61.52-2.35,1.35-4.15,3.98-8.25,6.91-11.47,1.3-1.43-.82-3.55-2.12-2.12h0Z"/>
      <circle class="q" cx="533.45" cy="134.97" r="8.16"/>
      <path class="v" d="M480.13,142.76c.52,2.02.31,4.08.45,6.14.15,2.21.96,4.14,1.57,6.24.91,3.1,1.47,6.38,1.07,9.62-.24,1.96-.89,3.84-1.81,5.58-.72,1.37-1.65,2.67-2.19,4.13-1.44,3.89,2.38,7.04,4.25,9.96,1.04,1.62,3.64.12,2.59-1.51-.93-1.44-2.09-2.71-3.05-4.13-.43-.63-.89-1.33-1.04-2.09-.05-.24-.09-.5-.06-.75.02-.2.11-.43.18-.62-.05.13-.06.14,0,0,.61-1.38,1.5-2.63,2.17-3.98,2.44-4.92,2.48-10.3,1.17-15.57-.57-2.29-1.69-4.5-1.86-6.88s.03-4.65-.56-6.94c-.48-1.87-3.37-1.08-2.89.8h0Z"/>
      <path class="v" d="M477.73,142.87c-2.66,2.92-4.9,6.39-6.55,9.97-1.2,2.62-3.35,7.48.08,9.33.47.26,1.19.34,1.6.71.5.45.29,1.62.32,2.25.11,2.35.2,4.7.22,7.06.02,2.69.09,5.55-.66,8.16-.16.57-.24.78-.41,1.09-.1.18-.2.36-.31.53-.23.36,0,.05-.19.25-.13.14-.26.27-.39.39-.32.3.02.02-.22.17-.34.22-.69.42-1.06.59-1.75.81-.23,3.4,1.51,2.59,3.97-1.85,4.5-6.29,4.67-10.21.08-1.89.07-3.79.02-5.68-.03-1.21-.07-2.41-.12-3.62s.03-2.65-.23-3.89c-.16-.78-.55-1.43-1.16-1.94s-1.31-.62-1.97-1c-.46-.27-.48-.25-.46-.82.02-.79.28-1.61.52-2.35,1.35-4.15,3.98-8.25,6.91-11.47,1.3-1.43-.82-3.55-2.12-2.12h0Z"/>
      <circle class="q" cx="480.14" cy="134.97" r="8.16"/>
      <path class="v" d="M213.57,142.76c.52,2.02.31,4.08.45,6.14.15,2.21.96,4.14,1.57,6.24.91,3.1,1.47,6.38,1.07,9.62-.24,1.96-.89,3.84-1.81,5.58-.72,1.37-1.65,2.67-2.19,4.13-1.44,3.89,2.38,7.04,4.25,9.96,1.04,1.62,3.64.12,2.59-1.51-.93-1.44-2.09-2.71-3.05-4.13-.43-.63-.89-1.33-1.04-2.09-.05-.24-.09-.5-.06-.75.02-.2.11-.43.18-.62-.05.13-.06.14,0,0,.61-1.38,1.5-2.63,2.17-3.98,2.44-4.92,2.48-10.3,1.17-15.57-.57-2.29-1.69-4.5-1.86-6.88s.03-4.65-.56-6.94c-.48-1.87-3.37-1.08-2.89.8h0Z"/>
      <path class="v" d="M211.16,142.87c-2.66,2.92-4.9,6.39-6.55,9.97-1.2,2.62-3.35,7.48.08,9.33.47.26,1.19.34,1.6.71.5.45.29,1.62.32,2.25.11,2.35.2,4.7.22,7.06.02,2.69.09,5.55-.66,8.16-.16.57-.24.78-.41,1.09-.1.18-.2.36-.31.53-.23.36,0,.05-.19.25-.13.14-.26.27-.39.39-.32.3.02.02-.22.17-.34.22-.69.42-1.06.59-1.75.81-.23,3.4,1.51,2.59,3.97-1.85,4.5-6.29,4.67-10.21.08-1.89.07-3.79.02-5.68-.03-1.21-.07-2.41-.12-3.62s.03-2.65-.23-3.89c-.16-.78-.55-1.43-1.16-1.94s-1.31-.62-1.97-1c-.46-.27-.48-.25-.46-.82.02-.79.28-1.61.52-2.35,1.35-4.15,3.98-8.25,6.91-11.47,1.3-1.43-.82-3.55-2.12-2.12h0Z"/>
      <circle class="q" cx="213.57" cy="134.97" r="8.16"/>
      <path class="v" d="M499.67,231.24c.92-3.37,1.33-6.88,1.1-10.36s-1.05-7.11-1.7-10.64-1.17-6.99-.56-10.45,2.37-6.53,4.2-9.5c1.02-1.65-1.58-3.15-2.59-1.51-1.84,2.98-3.63,6.1-4.38,9.55s-.5,6.97.04,10.44,1.49,7.12,1.87,10.74.11,7.35-.87,10.93c-.51,1.86,2.38,2.66,2.89.8h0Z"/>
      <path class="v" d="M497.81,228.65c-2.34-2.55-4.9-5.44-5.5-8.97-.64-3.77,1.53-7.44,2.17-11.08,1.24-7.05-.29-14.46-4.31-20.39-1.08-1.59-3.68-.09-2.59,1.51,4.14,6.11,5.42,13.8,3.34,20.9-1.07,3.66-2.37,7.18-1.22,11.01,1.06,3.55,3.53,6.46,5.99,9.13,1.31,1.43,3.43-.7,2.12-2.12h0Z"/>
      <circle class="q" cx="496.78" cy="238.23" r="8.16"/>
      <path class="v" d="M339.73,231.24c.92-3.37,1.33-6.88,1.1-10.36s-1.05-7.11-1.7-10.64-1.17-6.99-.56-10.45,2.37-6.53,4.2-9.5c1.02-1.65-1.58-3.15-2.59-1.51-1.84,2.98-3.63,6.1-4.38,9.55s-.5,6.97.04,10.44,1.49,7.12,1.87,10.74.11,7.35-.87,10.93c-.51,1.86,2.38,2.66,2.89.8h0Z"/>
      <path class="v" d="M337.87,228.65c-2.34-2.55-4.9-5.44-5.5-8.97-.64-3.77,1.53-7.44,2.17-11.08,1.24-7.05-.29-14.46-4.31-20.39-1.08-1.59-3.68-.09-2.59,1.51,4.14,6.11,5.42,13.8,3.34,20.9-1.07,3.66-2.37,7.18-1.22,11.01,1.06,3.55,3.53,6.46,5.99,9.13,1.31,1.43,3.43-.7,2.12-2.12h0Z"/>
      <circle class="q" cx="336.84" cy="238.23" r="8.16"/>
      <path class="v" d="M321.96,231.24c.92-3.37,1.33-6.88,1.1-10.36s-1.05-7.11-1.7-10.64-1.17-6.99-.56-10.45,2.37-6.53,4.2-9.5c1.02-1.65-1.58-3.15-2.59-1.51-1.84,2.98-3.63,6.1-4.38,9.55s-.5,6.97.04,10.44,1.49,7.12,1.87,10.74.11,7.35-.87,10.93c-.51,1.86,2.38,2.66,2.89.8h0Z"/>
      <path class="v" d="M320.1,228.65c-2.34-2.55-4.9-5.44-5.5-8.97-.64-3.77,1.53-7.44,2.17-11.08,1.24-7.05-.29-14.46-4.31-20.39-1.08-1.59-3.68-.09-2.59,1.51,4.14,6.11,5.42,13.8,3.34,20.9-1.07,3.66-2.37,7.18-1.22,11.01,1.06,3.55,3.53,6.46,5.99,9.13,1.31,1.43,3.43-.7,2.12-2.12h0Z"/>
      <circle class="q" cx="319.07" cy="238.23" r="8.16"/>
      <path class="v" d="M197.56,231.24c.92-3.37,1.33-6.88,1.1-10.36s-1.05-7.11-1.7-10.64-1.17-6.99-.56-10.45,2.37-6.53,4.2-9.5c1.02-1.65-1.58-3.15-2.59-1.51-1.84,2.98-3.63,6.1-4.38,9.55s-.5,6.97.04,10.44,1.49,7.12,1.87,10.74.11,7.35-.87,10.93c-.51,1.86,2.38,2.66,2.89.8h0Z"/>
      <path class="v" d="M195.71,228.65c-2.34-2.55-4.9-5.44-5.5-8.97-.64-3.77,1.53-7.44,2.17-11.08,1.24-7.05-.29-14.46-4.31-20.39-1.08-1.59-3.68-.09-2.59,1.51,4.14,6.11,5.42,13.8,3.34,20.9-1.07,3.66-2.37,7.18-1.22,11.01,1.06,3.55,3.53,6.46,5.99,9.13,1.31,1.43,3.43-.7,2.12-2.12h0Z"/>
      <circle class="q" cx="194.67" cy="238.23" r="8.16"/>
      <path class="v" d="M410.81,231.24c.92-3.37,1.33-6.88,1.1-10.36s-1.05-7.11-1.7-10.64-1.17-6.99-.56-10.45,2.37-6.53,4.2-9.5c1.02-1.65-1.58-3.15-2.59-1.51-1.84,2.98-3.63,6.1-4.38,9.55s-.5,6.97.04,10.44,1.49,7.12,1.87,10.74.11,7.35-.87,10.93c-.51,1.86,2.38,2.66,2.89.8h0Z"/>
      <path class="v" d="M408.96,228.65c-2.34-2.55-4.9-5.44-5.5-8.97-.64-3.77,1.53-7.44,2.17-11.08,1.24-7.05-.29-14.46-4.31-20.39-1.08-1.59-3.68-.09-2.59,1.51,4.14,6.11,5.42,13.8,3.34,20.9-1.07,3.66-2.37,7.18-1.22,11.01,1.06,3.55,3.53,6.46,5.99,9.13,1.31,1.43,3.43-.7,2.12-2.12h0Z"/>
      <circle class="q" cx="407.92" cy="238.23" r="8.16"/>
      <path class="v" d="M375.27,231.24c.92-3.37,1.33-6.88,1.1-10.36s-1.05-7.11-1.7-10.64-1.17-6.99-.56-10.45,2.37-6.53,4.2-9.5c1.02-1.65-1.58-3.15-2.59-1.51-1.84,2.98-3.63,6.1-4.38,9.55s-.5,6.97.04,10.44,1.49,7.12,1.87,10.74.11,7.35-.87,10.93c-.51,1.86,2.38,2.66,2.89.8h0Z"/>
      <path class="v" d="M373.42,228.65c-2.34-2.55-4.9-5.44-5.5-8.97-.64-3.77,1.53-7.44,2.17-11.08,1.24-7.05-.29-14.46-4.31-20.39-1.08-1.59-3.68-.09-2.59,1.51,4.14,6.11,5.42,13.8,3.34,20.9-1.07,3.66-2.37,7.18-1.22,11.01,1.06,3.55,3.53,6.46,5.99,9.13,1.31,1.43,3.43-.7,2.12-2.12h0Z"/>
      <circle class="q" cx="372.38" cy="238.23" r="8.16"/>
      <path class="v" d="M286.41,231.24c.92-3.37,1.33-6.88,1.1-10.36s-1.05-7.11-1.7-10.64-1.17-6.99-.56-10.45,2.37-6.53,4.2-9.5c1.02-1.65-1.58-3.15-2.59-1.51-1.84,2.98-3.63,6.1-4.38,9.55s-.5,6.97.04,10.44,1.49,7.12,1.87,10.74.11,7.35-.87,10.93c-.51,1.86,2.38,2.66,2.89.8h0Z"/>
      <path class="v" d="M284.56,228.65c-2.34-2.55-4.9-5.44-5.5-8.97-.64-3.77,1.53-7.44,2.17-11.08,1.24-7.05-.29-14.46-4.31-20.39-1.08-1.59-3.68-.09-2.59,1.51,4.14,6.11,5.42,13.8,3.34,20.9-1.07,3.66-2.37,7.18-1.22,11.01,1.06,3.55,3.53,6.46,5.99,9.13,1.31,1.43,3.43-.7,2.12-2.12h0Z"/>
      <circle class="q" cx="283.53" cy="238.23" r="8.16"/>
      <path class="v" d="M162.02,231.24c.92-3.37,1.33-6.88,1.1-10.36s-1.05-7.11-1.7-10.64-1.17-6.99-.56-10.45,2.37-6.53,4.2-9.5c1.02-1.65-1.58-3.15-2.59-1.51-1.84,2.98-3.63,6.1-4.38,9.55s-.5,6.97.04,10.44,1.49,7.12,1.87,10.74.11,7.35-.87,10.93c-.51,1.86,2.38,2.66,2.89.8h0Z"/>
      <path class="v" d="M160.16,228.65c-2.34-2.55-4.9-5.44-5.5-8.97-.64-3.77,1.53-7.44,2.17-11.08,1.24-7.05-.29-14.46-4.31-20.39-1.08-1.59-3.68-.09-2.59,1.51,4.14,6.11,5.42,13.8,3.34,20.9-1.07,3.66-2.37,7.18-1.22,11.01,1.06,3.55,3.53,6.46,5.99,9.13,1.31,1.43,3.43-.7,2.12-2.12h0Z"/>
      <circle class="q" cx="159.13" cy="238.23" r="8.16"/>
      <path class="v" d="M108.71,231.24c.92-3.37,1.33-6.88,1.1-10.36s-1.05-7.11-1.7-10.64-1.17-6.99-.56-10.45,2.37-6.53,4.2-9.5c1.02-1.65-1.58-3.15-2.59-1.51-1.84,2.98-3.63,6.1-4.38,9.55s-.5,6.97.04,10.44,1.49,7.12,1.87,10.74.11,7.35-.87,10.93c-.51,1.86,2.38,2.66,2.89.8h0Z"/>
      <path class="v" d="M106.85,228.65c-2.34-2.55-4.9-5.44-5.5-8.97-.64-3.77,1.53-7.44,2.17-11.08,1.24-7.05-.29-14.46-4.31-20.39-1.08-1.59-3.68-.09-2.59,1.51,4.14,6.11,5.42,13.8,3.34,20.9-1.07,3.66-2.37,7.18-1.22,11.01,1.06,3.55,3.53,6.46,5.99,9.13,1.31,1.43,3.43-.7,2.12-2.12h0Z"/>
      <circle class="q" cx="105.82" cy="238.23" r="8.16"/>
      <path class="v" d="M55.39,231.24c.92-3.37,1.33-6.88,1.1-10.36s-1.05-7.11-1.7-10.64-1.17-6.99-.56-10.45,2.37-6.53,4.2-9.5c1.02-1.65-1.58-3.15-2.59-1.51-1.84,2.98-3.63,6.1-4.38,9.55s-.5,6.97.04,10.44,1.49,7.12,1.87,10.74.11,7.35-.87,10.93c-.51,1.86,2.38,2.66,2.89.8h0Z"/>
      <path class="v" d="M53.54,228.65c-2.34-2.55-4.9-5.44-5.5-8.97-.64-3.77,1.53-7.44,2.17-11.08,1.24-7.05-.29-14.46-4.31-20.39-1.08-1.59-3.68-.09-2.59,1.51,4.14,6.11,5.42,13.8,3.34,20.9-1.07,3.66-2.37,7.18-1.22,11.01,1.06,3.55,3.53,6.46,5.99,9.13,1.31,1.43,3.43-.7,2.12-2.12h0Z"/>
      <circle class="q" cx="52.5" cy="238.23" r="8.16"/>
      <path class="v" d="M74.42,231.24c.46-1.78.44-3.59.46-5.41,0-.91.02-1.82.2-2.71.21-1.03.67-1.99,1.03-2.98,1.19-3.3,1.93-6.83,1.89-10.34-.04-2.74-.56-5.45-1.68-7.96-.43-.97-.95-1.89-1.58-2.74-.29-.4-.6-.78-.92-1.15-.24-.27-.82-.65-.92-.99-.26-.85,1.16-2.37,1.62-2.94,1-1.23,2.08-2.4,2.94-3.73,1.05-1.63-1.55-3.13-2.59-1.51-1.46,2.27-3.8,4.06-4.72,6.67-.42,1.21-.31,2.51.5,3.53.59.73,1.29,1.33,1.82,2.11,3.27,4.84,2.94,11.14,1.32,16.5-.65,2.14-1.64,4.1-1.84,6.36s.12,4.37-.43,6.5c-.48,1.87,2.41,2.67,2.89.8h0Z"/>
      <path class="v" d="M72.56,228.65c-2.18-2.44-2.21-5.39-2.24-8.5-.02-1.75-.27-3.29-.8-4.96-.56-1.76-1.04-3.19-.61-5.02.67-2.91.45-5.77-1.05-8.38s-3.9-4.99-5.7-7.57c-1.1-1.57-3.7-.07-2.59,1.51,1.82,2.61,4.22,4.91,5.77,7.7.62,1.11.96,2.3.96,3.57,0,1.7-.75,3.31-.63,5.01.13,1.78.83,3.41,1.3,5.12.45,1.61.32,3.24.37,4.89.1,3.32.85,6.22,3.1,8.75,1.29,1.44,3.4-.68,2.12-2.12h0Z"/>
      <circle class="q" cx="71.53" cy="238.23" r="8.16"/>
      <path class="v" d="M181.04,231.24c.46-1.78.44-3.59.46-5.41,0-.91.02-1.82.2-2.71.21-1.03.67-1.99,1.03-2.98,1.19-3.3,1.93-6.83,1.89-10.34-.04-2.74-.56-5.45-1.68-7.96-.43-.97-.95-1.89-1.58-2.74-.29-.4-.6-.78-.92-1.15-.24-.27-.82-.65-.92-.99-.26-.85,1.16-2.37,1.62-2.94,1-1.23,2.08-2.4,2.94-3.73,1.05-1.63-1.55-3.13-2.59-1.51-1.46,2.27-3.8,4.06-4.72,6.67-.42,1.21-.31,2.51.5,3.53.59.73,1.29,1.33,1.82,2.11,3.27,4.84,2.94,11.14,1.32,16.5-.65,2.14-1.64,4.1-1.84,6.36s.12,4.37-.43,6.5c-.48,1.87,2.41,2.67,2.89.8h0Z"/>
      <path class="v" d="M179.19,228.65c-2.18-2.44-2.21-5.39-2.24-8.5-.02-1.75-.27-3.29-.8-4.96-.56-1.76-1.04-3.19-.61-5.02.67-2.91.45-5.77-1.05-8.38s-3.9-4.99-5.7-7.57c-1.1-1.57-3.7-.07-2.59,1.51,1.82,2.61,4.22,4.91,5.77,7.7.62,1.11.96,2.3.96,3.57,0,1.7-.75,3.31-.63,5.01.13,1.78.83,3.41,1.3,5.12.45,1.61.32,3.24.37,4.89.1,3.32.85,6.22,3.1,8.75,1.29,1.44,3.4-.68,2.12-2.12h0Z"/>
      <circle class="q" cx="178.15" cy="238.23" r="8.16"/>
      <path class="v" d="M234.36,231.24c.46-1.78.44-3.59.46-5.41,0-.91.02-1.82.2-2.71.21-1.03.67-1.99,1.03-2.98,1.19-3.3,1.93-6.83,1.89-10.34-.04-2.74-.56-5.45-1.68-7.96-.43-.97-.95-1.89-1.58-2.74-.29-.4-.6-.78-.92-1.15-.24-.27-.82-.65-.92-.99-.26-.85,1.16-2.37,1.62-2.94,1-1.23,2.08-2.4,2.94-3.73,1.05-1.63-1.55-3.13-2.59-1.51-1.46,2.27-3.8,4.06-4.72,6.67-.42,1.21-.31,2.51.5,3.53.59.73,1.29,1.33,1.82,2.11,3.27,4.84,2.94,11.14,1.32,16.5-.65,2.14-1.64,4.1-1.84,6.36s.12,4.37-.43,6.5c-.48,1.87,2.41,2.67,2.89.8h0Z"/>
      <path class="v" d="M232.5,228.65c-2.18-2.44-2.21-5.39-2.24-8.5-.02-1.75-.27-3.29-.8-4.96-.56-1.76-1.04-3.19-.61-5.02.67-2.91.45-5.77-1.05-8.38s-3.9-4.99-5.7-7.57c-1.1-1.57-3.7-.07-2.59,1.51,1.82,2.61,4.22,4.91,5.77,7.7.62,1.11.96,2.3.96,3.57,0,1.7-.75,3.31-.63,5.01.13,1.78.83,3.41,1.3,5.12.45,1.61.32,3.24.37,4.89.1,3.32.85,6.22,3.1,8.75,1.29,1.44,3.4-.68,2.12-2.12h0Z"/>
      <circle class="q" cx="231.47" cy="238.23" r="8.16"/>
      <path class="v" d="M305.44,231.24c.46-1.78.44-3.59.46-5.41,0-.91.02-1.82.2-2.71.21-1.03.67-1.99,1.03-2.98,1.19-3.3,1.93-6.83,1.89-10.34-.04-2.74-.56-5.45-1.68-7.96-.43-.97-.95-1.89-1.58-2.74-.29-.4-.6-.78-.92-1.15-.24-.27-.82-.65-.92-.99-.26-.85,1.16-2.37,1.62-2.94,1-1.23,2.08-2.4,2.94-3.73,1.05-1.63-1.55-3.13-2.59-1.51-1.46,2.27-3.8,4.06-4.72,6.67-.42,1.21-.31,2.51.5,3.53.59.73,1.29,1.33,1.82,2.11,3.27,4.84,2.94,11.14,1.32,16.5-.65,2.14-1.64,4.1-1.84,6.36s.12,4.37-.43,6.5c-.48,1.87,2.41,2.67,2.89.8h0Z"/>
      <path class="v" d="M303.59,228.65c-2.18-2.44-2.21-5.39-2.24-8.5-.02-1.75-.27-3.29-.8-4.96-.56-1.76-1.04-3.19-.61-5.02.67-2.91.45-5.77-1.05-8.38s-3.9-4.99-5.7-7.57c-1.1-1.57-3.7-.07-2.59,1.51,1.82,2.61,4.22,4.91,5.77,7.7.62,1.11.96,2.3.96,3.57,0,1.7-.75,3.31-.63,5.01.13,1.78.83,3.41,1.3,5.12.45,1.61.32,3.24.37,4.89.1,3.32.85,6.22,3.1,8.75,1.29,1.44,3.4-.68,2.12-2.12h0Z"/>
      <circle class="q" cx="302.55" cy="238.23" r="8.16"/>
      <path class="v" d="M447.61,231.24c.46-1.78.44-3.59.46-5.41,0-.91.02-1.82.2-2.71.21-1.03.67-1.99,1.03-2.98,1.19-3.3,1.93-6.83,1.89-10.34-.04-2.74-.56-5.45-1.68-7.96-.43-.97-.95-1.89-1.58-2.74-.29-.4-.6-.78-.92-1.15-.24-.27-.82-.65-.92-.99-.26-.85,1.16-2.37,1.62-2.94,1-1.23,2.08-2.4,2.94-3.73,1.05-1.63-1.55-3.13-2.59-1.51-1.46,2.27-3.8,4.06-4.72,6.67-.42,1.21-.31,2.51.5,3.53.59.73,1.29,1.33,1.82,2.11,3.27,4.84,2.94,11.14,1.32,16.5-.65,2.14-1.64,4.1-1.84,6.36s.12,4.37-.43,6.5c-.48,1.87,2.41,2.67,2.89.8h0Z"/>
      <path class="v" d="M445.75,228.65c-2.18-2.44-2.21-5.39-2.24-8.5-.02-1.75-.27-3.29-.8-4.96-.56-1.76-1.04-3.19-.61-5.02.67-2.91.45-5.77-1.05-8.38s-3.9-4.99-5.7-7.57c-1.1-1.57-3.7-.07-2.59,1.51,1.82,2.61,4.22,4.91,5.77,7.7.62,1.11.96,2.3.96,3.57,0,1.7-.75,3.31-.63,5.01.13,1.78.83,3.41,1.3,5.12.45,1.61.32,3.24.37,4.89.1,3.32.85,6.22,3.1,8.75,1.29,1.44,3.4-.68,2.12-2.12h0Z"/>
      <circle class="q" cx="444.72" cy="238.23" r="8.16"/>
      <path class="v" d="M518.69,231.24c.46-1.78.44-3.59.46-5.41,0-.91.02-1.82.2-2.71.21-1.03.67-1.99,1.03-2.98,1.19-3.3,1.93-6.83,1.89-10.34-.04-2.74-.56-5.45-1.68-7.96-.43-.97-.95-1.89-1.58-2.74-.29-.4-.6-.78-.92-1.15-.24-.27-.82-.65-.92-.99-.26-.85,1.16-2.37,1.62-2.94,1-1.23,2.08-2.4,2.94-3.73,1.05-1.63-1.55-3.13-2.59-1.51-1.46,2.27-3.8,4.06-4.72,6.67-.42,1.21-.31,2.51.5,3.53.59.73,1.29,1.33,1.82,2.11,3.27,4.84,2.94,11.14,1.32,16.5-.65,2.14-1.64,4.1-1.84,6.36s.12,4.37-.43,6.5c-.48,1.87,2.41,2.67,2.89.8h0Z"/>
      <path class="v" d="M516.84,228.65c-2.18-2.44-2.21-5.39-2.24-8.5-.02-1.75-.27-3.29-.8-4.96-.56-1.76-1.04-3.19-.61-5.02.67-2.91.45-5.77-1.05-8.38s-3.9-4.99-5.7-7.57c-1.1-1.57-3.7-.07-2.59,1.51,1.82,2.61,4.22,4.91,5.77,7.7.62,1.11.96,2.3.96,3.57,0,1.7-.75,3.31-.63,5.01.13,1.78.83,3.41,1.3,5.12.45,1.61.32,3.24.37,4.89.1,3.32.85,6.22,3.1,8.75,1.29,1.44,3.4-.68,2.12-2.12h0Z"/>
      <circle class="q" cx="515.8" cy="238.23" r="8.16"/>
      <path class="v" d="M21.1,231.24c.46-1.78.44-3.59.46-5.41,0-.91.02-1.82.2-2.71.21-1.03.67-1.99,1.03-2.98,1.19-3.3,1.93-6.83,1.89-10.34-.04-2.74-.56-5.45-1.68-7.96-.43-.97-.95-1.89-1.58-2.74-.29-.4-.6-.78-.92-1.15-.24-.27-.82-.65-.92-.99-.26-.85,1.16-2.37,1.62-2.94,1-1.23,2.08-2.4,2.94-3.73,1.05-1.63-1.55-3.13-2.59-1.51-1.46,2.27-3.8,4.06-4.72,6.67-.42,1.21-.31,2.51.5,3.53.59.73,1.29,1.33,1.82,2.11,3.27,4.84,2.94,11.14,1.32,16.5-.65,2.14-1.64,4.1-1.84,6.36s.12,4.37-.43,6.5c-.48,1.87,2.41,2.67,2.89.8h0Z"/>
      <path class="v" d="M19.25,228.65c-2.18-2.44-2.21-5.39-2.24-8.5-.02-1.75-.27-3.29-.8-4.96-.56-1.76-1.04-3.19-.61-5.02.67-2.91.45-5.77-1.05-8.38s-3.9-4.99-5.7-7.57c-1.1-1.57-3.7-.07-2.59,1.51,1.82,2.61,4.22,4.91,5.77,7.7.62,1.11.96,2.3.96,3.57,0,1.7-.75,3.31-.63,5.01.13,1.78.83,3.41,1.3,5.12.45,1.61.32,3.24.37,4.89.1,3.32.85,6.22,3.1,8.75,1.29,1.44,3.4-.68,2.12-2.12h0Z"/>
      <circle class="q" cx="18.22" cy="238.23" r="8.16"/>
      <path class="v" d="M145.5,231.24c.46-1.78.44-3.59.46-5.41,0-.91.02-1.82.2-2.71.21-1.03.67-1.99,1.03-2.98,1.19-3.3,1.93-6.83,1.89-10.34-.04-2.74-.56-5.45-1.68-7.96-.43-.97-.95-1.89-1.58-2.74-.29-.4-.6-.78-.92-1.15-.24-.27-.82-.65-.92-.99-.26-.85,1.16-2.37,1.62-2.94,1-1.23,2.08-2.4,2.94-3.73,1.05-1.63-1.55-3.13-2.59-1.51-1.46,2.27-3.8,4.06-4.72,6.67-.42,1.21-.31,2.51.5,3.53.59.73,1.29,1.33,1.82,2.11,3.27,4.84,2.94,11.14,1.32,16.5-.65,2.14-1.64,4.1-1.84,6.36s.12,4.37-.43,6.5c-.48,1.87,2.41,2.67,2.89.8h0Z"/>
      <path class="v" d="M143.65,228.65c-2.18-2.44-2.21-5.39-2.24-8.5-.02-1.75-.27-3.29-.8-4.96-.56-1.76-1.04-3.19-.61-5.02.67-2.91.45-5.77-1.05-8.38s-3.9-4.99-5.7-7.57c-1.1-1.57-3.7-.07-2.59,1.51,1.82,2.61,4.22,4.91,5.77,7.7.62,1.11.96,2.3.96,3.57,0,1.7-.75,3.31-.63,5.01.13,1.78.83,3.41,1.3,5.12.45,1.61.32,3.24.37,4.89.1,3.32.85,6.22,3.1,8.75,1.29,1.44,3.4-.68,2.12-2.12h0Z"/>
      <circle class="q" cx="142.61" cy="238.23" r="8.16"/>
      <path class="v" d="M127.01,231.24c.51-2,.45-4.02.52-6.06.07-2.19.82-4.03,1.44-6.1.94-3.15,1.55-6.51,1.32-9.81-.16-2.34-.74-4.56-1.7-6.7-.66-1.46-1.54-2.79-2.27-4.2-.3-.57-.35-.51-.42-1.11-.09-.79.33-1.58.72-2.24,1-1.68,2.38-3.09,3.44-4.73s-1.55-3.14-2.59-1.51c-1.71,2.67-4.9,5.28-4.53,8.77.19,1.71,1.31,3.22,2.12,4.69,2.48,4.47,2.72,9.27,1.52,14.2-.56,2.29-1.61,4.47-1.91,6.81s.05,4.85-.56,7.2c-.48,1.87,2.41,2.67,2.89.8h0Z"/>
      <path class="v" d="M123.83,228.21c-2.62-2.88-4.85-6.4-6.36-9.99-.36-.85-.66-1.73-.88-2.63-.1-.43-.41-1.42-.13-1.82.18-.26,1.06-.45,1.33-.58.67-.3,1.29-.71,1.7-1.34.56-.87.57-1.85.62-2.85.06-1.31.12-2.62.17-3.93.07-2.08.12-4.16.08-6.23-.05-2.49-.12-5.19-1.01-7.56-.69-1.83-1.92-3.21-3.7-4.04s-3.26,1.77-1.51,2.59c.32.15.62.31.92.5.09.05.44.32.15.09.14.12.28.24.41.37.39.36.2.13.44.55.27.45.34.6.45.88.84,2.33.85,4.93.87,7.37.02,2.1-.04,4.21-.12,6.31-.03.65-.05,1.31-.08,1.96-.02.53.11,1.64-.1,2.11-.18.39-.4.47-.81.65-1.52.67-2.74,1.43-2.86,3.26-.11,1.7.51,3.5,1.14,5.05,1.67,4.14,4.17,8.12,7.17,11.42,1.3,1.43,3.42-.7,2.12-2.12h0Z"/>
      <circle class="q" cx="124.12" cy="238.23" r="8.16"/>
      <path class="v" d="M91.47,231.24c.51-2,.45-4.02.52-6.06.07-2.19.82-4.03,1.44-6.1.94-3.15,1.55-6.51,1.32-9.81-.16-2.34-.74-4.56-1.7-6.7-.66-1.46-1.54-2.79-2.27-4.2-.3-.57-.35-.51-.42-1.11-.09-.79.33-1.58.72-2.24,1-1.68,2.38-3.09,3.44-4.73s-1.55-3.14-2.59-1.51c-1.71,2.67-4.9,5.28-4.53,8.77.19,1.71,1.31,3.22,2.12,4.69,2.48,4.47,2.72,9.27,1.52,14.2-.56,2.29-1.61,4.47-1.91,6.81s.05,4.85-.56,7.2c-.48,1.87,2.41,2.67,2.89.8h0Z"/>
      <path class="v" d="M88.29,228.21c-2.62-2.88-4.85-6.4-6.36-9.99-.36-.85-.66-1.73-.88-2.63-.1-.43-.41-1.42-.13-1.82.18-.26,1.06-.45,1.33-.58.67-.3,1.29-.71,1.7-1.34.56-.87.57-1.85.62-2.85.06-1.31.12-2.62.17-3.93.07-2.08.12-4.16.08-6.23-.05-2.49-.12-5.19-1.01-7.56-.69-1.83-1.92-3.21-3.7-4.04s-3.26,1.77-1.51,2.59c.32.15.62.31.92.5.09.05.44.32.15.09.14.12.28.24.41.37.39.36.2.13.44.55.27.45.34.6.45.88.84,2.33.85,4.93.87,7.37.02,2.1-.04,4.21-.12,6.31-.03.65-.05,1.31-.08,1.96-.02.53.11,1.64-.1,2.11-.18.39-.4.47-.81.65-1.52.67-2.74,1.43-2.86,3.26-.11,1.7.51,3.5,1.14,5.05,1.67,4.14,4.17,8.12,7.17,11.42,1.3,1.43,3.42-.7,2.12-2.12h0Z"/>
      <circle class="q" cx="88.58" cy="238.23" r="8.16"/>
      <path class="v" d="M38.16,231.24c.51-2,.45-4.02.52-6.06.07-2.19.82-4.03,1.44-6.1.94-3.15,1.55-6.51,1.32-9.81-.16-2.34-.74-4.56-1.7-6.7-.66-1.46-1.54-2.79-2.27-4.2-.3-.57-.35-.51-.42-1.11-.09-.79.33-1.58.72-2.24,1-1.68,2.38-3.09,3.44-4.73s-1.55-3.14-2.59-1.51c-1.71,2.67-4.9,5.28-4.53,8.77.19,1.71,1.31,3.22,2.12,4.69,2.48,4.47,2.72,9.27,1.52,14.2-.56,2.29-1.61,4.47-1.91,6.81s.05,4.85-.56,7.2c-.48,1.87,2.41,2.67,2.89.8h0Z"/>
      <path class="v" d="M34.98,228.21c-2.62-2.88-4.85-6.4-6.36-9.99-.36-.85-.66-1.73-.88-2.63-.1-.43-.41-1.42-.13-1.82.18-.26,1.06-.45,1.33-.58.67-.3,1.29-.71,1.7-1.34.56-.87.57-1.85.62-2.85.06-1.31.12-2.62.17-3.93.07-2.08.12-4.16.08-6.23-.05-2.49-.12-5.19-1.01-7.56-.69-1.83-1.92-3.21-3.7-4.04s-3.26,1.77-1.51,2.59c.32.15.62.31.92.5.09.05.44.32.15.09.14.12.28.24.41.37.39.36.2.13.44.55.27.45.34.6.45.88.84,2.33.85,4.93.87,7.37.02,2.1-.04,4.21-.12,6.31-.03.65-.05,1.31-.08,1.96-.02.53.11,1.64-.1,2.11-.18.39-.4.47-.81.65-1.52.67-2.74,1.43-2.86,3.26-.11,1.7.51,3.5,1.14,5.05,1.67,4.14,4.17,8.12,7.17,11.42,1.3,1.43,3.42-.7,2.12-2.12h0Z"/>
      <circle class="q" cx="35.27" cy="238.23" r="8.16"/>
      <path class="v" d="M251.41,231.24c.51-2,.45-4.02.52-6.06.07-2.19.82-4.03,1.44-6.1.94-3.15,1.55-6.51,1.32-9.81-.16-2.34-.74-4.56-1.7-6.7-.66-1.46-1.54-2.79-2.27-4.2-.3-.57-.35-.51-.42-1.11-.09-.79.33-1.58.72-2.24,1-1.68,2.38-3.09,3.44-4.73s-1.55-3.14-2.59-1.51c-1.71,2.67-4.9,5.28-4.53,8.77.19,1.71,1.31,3.22,2.12,4.69,2.48,4.47,2.72,9.27,1.52,14.2-.56,2.29-1.61,4.47-1.91,6.81s.05,4.85-.56,7.2c-.48,1.87,2.41,2.67,2.89.8h0Z"/>
      <path class="v" d="M248.23,228.21c-2.62-2.88-4.85-6.4-6.36-9.99-.36-.85-.66-1.73-.88-2.63-.1-.43-.41-1.42-.13-1.82.18-.26,1.06-.45,1.33-.58.67-.3,1.29-.71,1.7-1.34.56-.87.57-1.85.62-2.85.06-1.31.12-2.62.17-3.93.07-2.08.12-4.16.08-6.23-.05-2.49-.12-5.19-1.01-7.56-.69-1.83-1.92-3.21-3.7-4.04s-3.26,1.77-1.51,2.59c.32.15.62.31.92.5.09.05.44.32.15.09.14.12.28.24.41.37.39.36.2.13.44.55.27.45.34.6.45.88.84,2.33.85,4.93.87,7.37.02,2.1-.04,4.21-.12,6.31-.03.65-.05,1.31-.08,1.96-.02.53.11,1.64-.1,2.11-.18.39-.4.47-.81.65-1.52.67-2.74,1.43-2.86,3.26-.11,1.7.51,3.5,1.14,5.05,1.67,4.14,4.17,8.12,7.17,11.42,1.3,1.43,3.42-.7,2.12-2.12h0Z"/>
      <circle class="q" cx="248.52" cy="238.23" r="8.16"/>
      <path class="v" d="M269.18,231.24c.51-2,.45-4.02.52-6.06.07-2.19.82-4.03,1.44-6.1.94-3.15,1.55-6.51,1.32-9.81-.16-2.34-.74-4.56-1.7-6.7-.66-1.46-1.54-2.79-2.27-4.2-.3-.57-.35-.51-.42-1.11-.09-.79.33-1.58.72-2.24,1-1.68,2.38-3.09,3.44-4.73s-1.55-3.14-2.59-1.51c-1.71,2.67-4.9,5.28-4.53,8.77.19,1.71,1.31,3.22,2.12,4.69,2.48,4.47,2.72,9.27,1.52,14.2-.56,2.29-1.61,4.47-1.91,6.81s.05,4.85-.56,7.2c-.48,1.87,2.41,2.67,2.89.8h0Z"/>
      <path class="v" d="M266,228.21c-2.62-2.88-4.85-6.4-6.36-9.99-.36-.85-.66-1.73-.88-2.63-.1-.43-.41-1.42-.13-1.82.18-.26,1.06-.45,1.33-.58.67-.3,1.29-.71,1.7-1.34.56-.87.57-1.85.62-2.85.06-1.31.12-2.62.17-3.93.07-2.08.12-4.16.08-6.23-.05-2.49-.12-5.19-1.01-7.56-.69-1.83-1.92-3.21-3.7-4.04s-3.26,1.77-1.51,2.59c.32.15.62.31.92.5.09.05.44.32.15.09.14.12.28.24.41.37.39.36.2.13.44.55.27.45.34.6.45.88.84,2.33.85,4.93.87,7.37.02,2.1-.04,4.21-.12,6.31-.03.65-.05,1.31-.08,1.96-.02.53.11,1.64-.1,2.11-.18.39-.4.47-.81.65-1.52.67-2.74,1.43-2.86,3.26-.11,1.7.51,3.5,1.14,5.05,1.67,4.14,4.17,8.12,7.17,11.42,1.3,1.43,3.42-.7,2.12-2.12h0Z"/>
      <circle class="q" cx="266.29" cy="238.23" r="8.16"/>
      <path class="v" d="M358.03,231.24c.51-2,.45-4.02.52-6.06.07-2.19.82-4.03,1.44-6.1.94-3.15,1.55-6.51,1.32-9.81-.16-2.34-.74-4.56-1.7-6.7-.66-1.46-1.54-2.79-2.27-4.2-.3-.57-.35-.51-.42-1.11-.09-.79.33-1.58.72-2.24,1-1.68,2.38-3.09,3.44-4.73s-1.55-3.14-2.59-1.51c-1.71,2.67-4.9,5.28-4.53,8.77.19,1.71,1.31,3.22,2.12,4.69,2.48,4.47,2.72,9.27,1.52,14.2-.56,2.29-1.61,4.47-1.91,6.81s.05,4.85-.56,7.2c-.48,1.87,2.41,2.67,2.89.8h0Z"/>
      <path class="v" d="M354.85,228.21c-2.62-2.88-4.85-6.4-6.36-9.99-.36-.85-.66-1.73-.88-2.63-.1-.43-.41-1.42-.13-1.82.18-.26,1.06-.45,1.33-.58.67-.3,1.29-.71,1.7-1.34.56-.87.57-1.85.62-2.85.06-1.31.12-2.62.17-3.93.07-2.08.12-4.16.08-6.23-.05-2.49-.12-5.19-1.01-7.56-.69-1.83-1.92-3.21-3.7-4.04s-3.26,1.77-1.51,2.59c.32.15.62.31.92.5.09.05.44.32.15.09.14.12.28.24.41.37.39.36.2.13.44.55.27.45.34.6.45.88.84,2.33.85,4.93.87,7.37.02,2.1-.04,4.21-.12,6.31-.03.65-.05,1.31-.08,1.96-.02.53.11,1.64-.1,2.11-.18.39-.4.47-.81.65-1.52.67-2.74,1.43-2.86,3.26-.11,1.7.51,3.5,1.14,5.05,1.67,4.14,4.17,8.12,7.17,11.42,1.3,1.43,3.42-.7,2.12-2.12h0Z"/>
      <circle class="q" cx="355.14" cy="238.23" r="8.16"/>
      <path class="v" d="M393.57,231.24c.51-2,.45-4.02.52-6.06.07-2.19.82-4.03,1.44-6.1.94-3.15,1.55-6.51,1.32-9.81-.16-2.34-.74-4.56-1.7-6.7-.66-1.46-1.54-2.79-2.27-4.2-.3-.57-.35-.51-.42-1.11-.09-.79.33-1.58.72-2.24,1-1.68,2.38-3.09,3.44-4.73s-1.55-3.14-2.59-1.51c-1.71,2.67-4.9,5.28-4.53,8.77.19,1.71,1.31,3.22,2.12,4.69,2.48,4.47,2.72,9.27,1.52,14.2-.56,2.29-1.61,4.47-1.91,6.81s.05,4.85-.56,7.2c-.48,1.87,2.41,2.67,2.89.8h0Z"/>
      <path class="v" d="M390.4,228.21c-2.62-2.88-4.85-6.4-6.36-9.99-.36-.85-.66-1.73-.88-2.63-.1-.43-.41-1.42-.13-1.82.18-.26,1.06-.45,1.33-.58.67-.3,1.29-.71,1.7-1.34.56-.87.57-1.85.62-2.85.06-1.31.12-2.62.17-3.93.07-2.08.12-4.16.08-6.23-.05-2.49-.12-5.19-1.01-7.56-.69-1.83-1.92-3.21-3.7-4.04s-3.26,1.77-1.51,2.59c.32.15.62.31.92.5.09.05.44.32.15.09.14.12.28.24.41.37.39.36.2.13.44.55.27.45.34.6.45.88.84,2.33.85,4.93.87,7.37.02,2.1-.04,4.21-.12,6.31-.03.65-.05,1.31-.08,1.96-.02.53.11,1.64-.1,2.11-.18.39-.4.47-.81.65-1.52.67-2.74,1.43-2.86,3.26-.11,1.7.51,3.5,1.14,5.05,1.67,4.14,4.17,8.12,7.17,11.42,1.3,1.43,3.42-.7,2.12-2.12h0Z"/>
      <circle class="q" cx="390.69" cy="238.23" r="8.16"/>
      <path class="v" d="M429.12,231.24c.51-2,.45-4.02.52-6.06.07-2.19.82-4.03,1.44-6.1.94-3.15,1.55-6.51,1.32-9.81-.16-2.34-.74-4.56-1.7-6.7-.66-1.46-1.54-2.79-2.27-4.2-.3-.57-.35-.51-.42-1.11-.09-.79.33-1.58.72-2.24,1-1.68,2.38-3.09,3.44-4.73s-1.55-3.14-2.59-1.51c-1.71,2.67-4.9,5.28-4.53,8.77.19,1.71,1.31,3.22,2.12,4.69,2.48,4.47,2.72,9.27,1.52,14.2-.56,2.29-1.61,4.47-1.91,6.81s.05,4.85-.56,7.2c-.48,1.87,2.41,2.67,2.89.8h0Z"/>
      <path class="v" d="M425.94,228.21c-2.62-2.88-4.85-6.4-6.36-9.99-.36-.85-.66-1.73-.88-2.63-.1-.43-.41-1.42-.13-1.82.18-.26,1.06-.45,1.33-.58.67-.3,1.29-.71,1.7-1.34.56-.87.57-1.85.62-2.85.06-1.31.12-2.62.17-3.93.07-2.08.12-4.16.08-6.23-.05-2.49-.12-5.19-1.01-7.56-.69-1.83-1.92-3.21-3.7-4.04s-3.26,1.77-1.51,2.59c.32.15.62.31.92.5.09.05.44.32.15.09.14.12.28.24.41.37.39.36.2.13.44.55.27.45.34.6.45.88.84,2.33.85,4.93.87,7.37.02,2.1-.04,4.21-.12,6.31-.03.65-.05,1.31-.08,1.96-.02.53.11,1.64-.1,2.11-.18.39-.4.47-.81.65-1.52.67-2.74,1.43-2.86,3.26-.11,1.7.51,3.5,1.14,5.05,1.67,4.14,4.17,8.12,7.17,11.42,1.3,1.43,3.42-.7,2.12-2.12h0Z"/>
      <circle class="q" cx="426.23" cy="238.23" r="8.16"/>
      <path class="v" d="M464.66,231.24c.51-2,.45-4.02.52-6.06.07-2.19.82-4.03,1.44-6.1.94-3.15,1.55-6.51,1.32-9.81-.16-2.34-.74-4.56-1.7-6.7-.66-1.46-1.54-2.79-2.27-4.2-.3-.57-.35-.51-.42-1.11-.09-.79.33-1.58.72-2.24,1-1.68,2.38-3.09,3.44-4.73s-1.55-3.14-2.59-1.51c-1.71,2.67-4.9,5.28-4.53,8.77.19,1.71,1.31,3.22,2.12,4.69,2.48,4.47,2.72,9.27,1.52,14.2-.56,2.29-1.61,4.47-1.91,6.81s.05,4.85-.56,7.2c-.48,1.87,2.41,2.67,2.89.8h0Z"/>
      <path class="v" d="M461.48,228.21c-2.62-2.88-4.85-6.4-6.36-9.99-.36-.85-.66-1.73-.88-2.63-.1-.43-.41-1.42-.13-1.82.18-.26,1.06-.45,1.33-.58.67-.3,1.29-.71,1.7-1.34.56-.87.57-1.85.62-2.85.06-1.31.12-2.62.17-3.93.07-2.08.12-4.16.08-6.23-.05-2.49-.12-5.19-1.01-7.56-.69-1.83-1.92-3.21-3.7-4.04s-3.26,1.77-1.51,2.59c.32.15.62.31.92.5.09.05.44.32.15.09.14.12.28.24.41.37.39.36.2.13.44.55.27.45.34.6.45.88.84,2.33.85,4.93.87,7.37.02,2.1-.04,4.21-.12,6.31-.03.65-.05,1.31-.08,1.96-.02.53.11,1.64-.1,2.11-.18.39-.4.47-.81.65-1.52.67-2.74,1.43-2.86,3.26-.11,1.7.51,3.5,1.14,5.05,1.67,4.14,4.17,8.12,7.17,11.42,1.3,1.43,3.42-.7,2.12-2.12h0Z"/>
      <circle class="q" cx="461.77" cy="238.23" r="8.16"/>
      <path class="v" d="M535.74,231.24c.51-2,.45-4.02.52-6.06.07-2.19.82-4.03,1.44-6.1.94-3.15,1.55-6.51,1.32-9.81-.16-2.34-.74-4.56-1.7-6.7-.66-1.46-1.54-2.79-2.27-4.2-.3-.57-.35-.51-.42-1.11-.09-.79.33-1.58.72-2.24,1-1.68,2.38-3.09,3.44-4.73s-1.55-3.14-2.59-1.51c-1.71,2.67-4.9,5.28-4.53,8.77.19,1.71,1.31,3.22,2.12,4.69,2.48,4.47,2.72,9.27,1.52,14.2-.56,2.29-1.61,4.47-1.91,6.81s.05,4.85-.56,7.2c-.48,1.87,2.41,2.67,2.89.8h0Z"/>
      <path class="v" d="M532.56,228.21c-2.62-2.88-4.85-6.4-6.36-9.99-.36-.85-.66-1.73-.88-2.63-.1-.43-.41-1.42-.13-1.82.18-.26,1.06-.45,1.33-.58.67-.3,1.29-.71,1.7-1.34.56-.87.57-1.85.62-2.85.06-1.31.12-2.62.17-3.93.07-2.08.12-4.16.08-6.23-.05-2.49-.12-5.19-1.01-7.56-.69-1.83-1.92-3.21-3.7-4.04s-3.26,1.77-1.51,2.59c.32.15.62.31.92.5.09.05.44.32.15.09.14.12.28.24.41.37.39.36.2.13.44.55.27.45.34.6.45.88.84,2.33.85,4.93.87,7.37.02,2.1-.04,4.21-.12,6.31-.03.65-.05,1.31-.08,1.96-.02.53.11,1.64-.1,2.11-.18.39-.4.47-.81.65-1.52.67-2.74,1.43-2.86,3.26-.11,1.7.51,3.5,1.14,5.05,1.67,4.14,4.17,8.12,7.17,11.42,1.3,1.43,3.42-.7,2.12-2.12h0Z"/>
      <circle class="q" cx="532.85" cy="238.23" r="8.16"/>
      <path class="v" d="M482.43,231.24c.51-2,.45-4.02.52-6.06.07-2.19.82-4.03,1.44-6.1.94-3.15,1.55-6.51,1.32-9.81-.16-2.34-.74-4.56-1.7-6.7-.66-1.46-1.54-2.79-2.27-4.2-.3-.57-.35-.51-.42-1.11-.09-.79.33-1.58.72-2.24,1-1.68,2.38-3.09,3.44-4.73s-1.55-3.14-2.59-1.51c-1.71,2.67-4.9,5.28-4.53,8.77.19,1.71,1.31,3.22,2.12,4.69,2.48,4.47,2.72,9.27,1.52,14.2-.56,2.29-1.61,4.47-1.91,6.81s.05,4.85-.56,7.2c-.48,1.87,2.41,2.67,2.89.8h0Z"/>
      <path class="v" d="M479.25,228.21c-2.62-2.88-4.85-6.4-6.36-9.99-.36-.85-.66-1.73-.88-2.63-.1-.43-.41-1.42-.13-1.82.18-.26,1.06-.45,1.33-.58.67-.3,1.29-.71,1.7-1.34.56-.87.57-1.85.62-2.85.06-1.31.12-2.62.17-3.93.07-2.08.12-4.16.08-6.23-.05-2.49-.12-5.19-1.01-7.56-.69-1.83-1.92-3.21-3.7-4.04s-3.26,1.77-1.51,2.59c.32.15.62.31.92.5.09.05.44.32.15.09.14.12.28.24.41.37.39.36.2.13.44.55.27.45.34.6.45.88.84,2.33.85,4.93.87,7.37.02,2.1-.04,4.21-.12,6.31-.03.65-.05,1.31-.08,1.96-.02.53.11,1.64-.1,2.11-.18.39-.4.47-.81.65-1.52.67-2.74,1.43-2.86,3.26-.11,1.7.51,3.5,1.14,5.05,1.67,4.14,4.17,8.12,7.17,11.42,1.3,1.43,3.42-.7,2.12-2.12h0Z"/>
      <circle class="q" cx="479.54" cy="238.23" r="8.16"/>
      <path class="v" d="M215.86,231.24c.51-2,.45-4.02.52-6.06.07-2.19.82-4.03,1.44-6.1.94-3.15,1.55-6.51,1.32-9.81-.16-2.34-.74-4.56-1.7-6.7-.66-1.46-1.54-2.79-2.27-4.2-.3-.57-.35-.51-.42-1.11-.09-.79.33-1.58.72-2.24,1-1.68,2.38-3.09,3.44-4.73s-1.55-3.14-2.59-1.51c-1.71,2.67-4.9,5.28-4.53,8.77.19,1.71,1.31,3.22,2.12,4.69,2.48,4.47,2.72,9.27,1.52,14.2-.56,2.29-1.61,4.47-1.91,6.81s.05,4.85-.56,7.2c-.48,1.87,2.41,2.67,2.89.8h0Z"/>
      <path class="v" d="M212.69,228.21c-2.62-2.88-4.85-6.4-6.36-9.99-.36-.85-.66-1.73-.88-2.63-.1-.43-.41-1.42-.13-1.82.18-.26,1.06-.45,1.33-.58.67-.3,1.29-.71,1.7-1.34.56-.87.57-1.85.62-2.85.06-1.31.12-2.62.17-3.93.07-2.08.12-4.16.08-6.23-.05-2.49-.12-5.19-1.01-7.56-.69-1.83-1.92-3.21-3.7-4.04s-3.26,1.77-1.51,2.59c.32.15.62.31.92.5.09.05.44.32.15.09.14.12.28.24.41.37.39.36.2.13.44.55.27.45.34.6.45.88.84,2.33.85,4.93.87,7.37.02,2.1-.04,4.21-.12,6.31-.03.65-.05,1.31-.08,1.96-.02.53.11,1.64-.1,2.11-.18.39-.4.47-.81.65-1.52.67-2.74,1.43-2.86,3.26-.11,1.7.51,3.5,1.14,5.05,1.67,4.14,4.17,8.12,7.17,11.42,1.3,1.43,3.42-.7,2.12-2.12h0Z"/>
      <circle class="q" cx="212.98" cy="238.23" r="8.16"/>
    </g>
    <path class="s" d="M142.75,355.83l18-21.78c.05-.06.09-.11.13-.17l8.78,2.38c3.02.82,5.32,3.28,5.95,6.35l1.84,9.08c.85,4.21,6.8,4.4,7.93.26l2.43-8.94c.82-3.02,3.28-5.32,6.35-5.95l9.08-1.84c.15-.03.3-.07.44-.11.14.05.28.1.43.14l8.94,2.43c3.02.82,5.32,3.28,5.95,6.35l1.84,9.08c.86,4.21,6.8,4.4,7.93.26l2.43-8.94c.82-3.02,3.28-5.32,6.35-5.95l9.06-1.84,8.92,2.42c3.02.82,5.32,3.28,5.95,6.35l1.84,9.08c.86,4.21,6.8,4.4,7.93.26l2.43-8.94c.82-3.02,3.28-5.32,6.35-5.95l9.08-1.84c4.21-.85,4.4-6.8.26-7.93l-8.94-2.43c-3.02-.82-5.32-3.28-5.95-6.35l-1.84-9.08c-.85-4.21-6.8-4.4-7.93-.26l-2.43,8.94c-.82,3.02-3.28,5.32-6.35,5.95l-9.06,1.84-8.92-2.42c-3.02-.82-5.32-3.28-5.95-6.35l-1.84-9.08c-.86-4.21-6.8-4.4-7.93-.26l-2.43,8.94c-.82,3.02-3.28,5.32-6.35,5.95l-9.08,1.84c-.15.03-.3.07-.44.11-.14-.05-.28-.1-.43-.14l-8.94-2.43c-3.02-.82-5.32-3.28-5.95-6.35l-1.84-9.08c-.86-4.21-6.8-4.4-7.93-.26l-2.43,8.94c-.82,3.02-3.28,5.32-6.35,5.95l-9.08,1.84c-.23.05-.44.11-.65.19l-14.32-22.54c-1.32-2.07-3.82-3.06-6.2-2.45l-18.66,4.8,9.88-11.96c1.56-1.89,1.73-4.58.41-6.65l-15.16-23.85c-1.32-2.07-3.82-3.06-6.2-2.45l-27.36,7.05c-2.04.52-3.58,2.12-4.08,4.11-.53-.75-1.22-1.39-2.03-1.88l-20.1-11.92c-2.04-1.21-4.58-1.24-6.65-.08l-20.37,11.44c-2.07,1.16-3.36,3.34-3.39,5.72l-.27,23.36c-.03,2.38,1.21,4.58,3.26,5.8l20.1,11.92c2.04,1.21,4.58,1.24,6.65.08l20.37-11.44c.42-.23.8-.51,1.15-.82.61,1.19,1.64,2.15,2.95,2.67l26.28,10.38c.44.17.89.29,1.34.35l-1.48,23.75c-.15,2.45,1.29,4.72,3.57,5.62l26.28,10.38c2.28.9,4.89.23,6.45-1.66Z"/>
    <g>
      <path class="t" d="M316.03,253.87c-14.28,6.01-31.24-2.45-46.45,1.14-8.65-.56-39.84,7.33-34.45-8.36,3.25-7.3,8.75-28.03,9.17-36.62,3.93-34.04,10.01-52.66,1.5-86.06,4.18-23.79,30.24,1.14,45.84-7.63,9.14-.33,32.09-10.72,29.89,5.6-7.33,31.98,25.43,89.09,18.57,121.19-3.2,20.63-.55,9.46-24.08,10.73Z"/>
      <path class="p" d="M350.73,230.15c-23.22-39.05-23.39-101.62-23.42-111.22,0-3.04.07-9.66-6.19-13.49-9.06-5.54-28.57-3.51-40.21,2.33-11.64-5.84-31.16-7.87-40.21-2.33-6.26,3.83-6.18,10.45-6.19,13.49-.03,9.6-.2,72.17-23.42,111.22-4.73,7.96-9.52,14.42-5.7,21.53,6.62,12.33,38.31,19.62,51.05,12.98,8.29-4.32,5.63-13.02,4.99-28.29-.02-.47-.04-.97-.06-1.49-.03,0-.06,0-.09,0-7.87,0-14.25-6.38-14.25-14.25s6.38-14.25,14.25-14.25c.05,0,.1,0,.15,0,.23-3.92.57-8.03,1.06-12.27-7.17-.74-12.76-6.8-12.76-14.17,0-7.87,6.38-14.25,14.25-14.25,1.41,0,2.77.21,4.05.59,2.95-10.05,7.09-20.1,12.88-29.47,9.38,15.18,14.45,32.15,17.11,48.04.82-.15,1.66-.23,2.52-.23,7.87,0,14.25,6.38,14.25,14.25s-6.3,14.16-14.1,14.24c.28,9.67-.06,17.79-.29,23.24-.57,13.54-2.72,21.92,2.58,26.65l7.79-1.85c2.73-.65,4.85-2.77,5.5-5.5l2.38-10.05c.34-1.44,2.39-1.44,2.73,0l2.38,10.05c.65,2.73,2.77,4.85,5.5,5.5l9.4,2.23c7.94-2.77,15.29-6.63,17.78-11.73,3.44-7.05-.97-13.57-5.7-21.53Z"/>
    </g>
    <g>
      <circle class="o" cx="333.48" cy="58.49" r="21.95"/>
      <g>
        <line class="m" x1="333.48" y1="43.25" x2="333.48" y2="73.73"/>
        <line class="m" x1="318.76" y1="58.49" x2="348.2" y2="58.49"/>
      </g>
    </g>
    <g>
      <circle class="n" cx="461.01" cy="306.97" r="21.95"/>
      <g>
        <line class="m" x1="461.01" y1="291.73" x2="461.01" y2="322.21"/>
        <line class="m" x1="446.29" y1="306.97" x2="475.74" y2="306.97"/>
      </g>
    </g>
    <g>
      <circle class="k" cx="359.86" cy="336.49" r="18.83"/>
      <g>
        <line class="m" x1="359.86" y1="323.62" x2="359.86" y2="349.36"/>
        <line class="m" x1="347.61" y1="336.49" x2="372.41" y2="336.49"/>
      </g>
    </g>
    <g>
      <circle class="r" cx="469.93" cy="92.64" r="18.83"/>
      <g>
        <line class="m" x1="469.93" y1="79.77" x2="469.93" y2="105.51"/>
        <line class="m" x1="457.69" y1="92.64" x2="482.49" y2="92.64"/>
      </g>
    </g>
    <g>
      <circle class="l" cx="105.79" cy="69.36" r="18.83"/>
      <g>
        <line class="m" x1="105.79" y1="56.49" x2="105.79" y2="82.23"/>
        <line class="m" x1="93.55" y1="69.36" x2="118.35" y2="69.36"/>
      </g>
    </g>
  </g>
</svg>