<?xml version="1.0" encoding="UTF-8"?>
<svg id="b" data-name="Layer 2" xmlns="http://www.w3.org/2000/svg" width="549" height="374" xmlns:xlink="http://www.w3.org/1999/xlink" viewBox="0 0 549 374">
  <defs>
    <style>
      .e {
        fill: #fff;
      }

      .e, .f, .g, .h {
        stroke: #000;
        stroke-miterlimit: 10;
      }

      .f {
        fill: #00957a;
      }

      .f, .g, .h {
        stroke-width: 5px;
      }

      .g {
        fill: #7ccab8;
      }

      .h {
        fill: url(#d);
      }
    </style>
    <linearGradient id="d" x1="132.08" y1="1547.22" x2="235.34" y2="1574.89" gradientTransform="translate(1123.3 -1181.66) rotate(33.34)" gradientUnits="userSpaceOnUse">
      <stop offset="0" stop-color="#fff"/>
      <stop offset=".11" stop-color="#e2f2d9"/>
      <stop offset=".26" stop-color="#c1e2ab"/>
      <stop offset=".41" stop-color="#a5d586"/>
      <stop offset=".56" stop-color="#8fcb69"/>
      <stop offset=".71" stop-color="#80c454"/>
      <stop offset=".86" stop-color="#77c048"/>
      <stop offset="1" stop-color="#74bf44"/>
    </linearGradient>
  </defs>
  <g id="c" data-name="Layer 2">
    <rect class="e" x=".5" y=".5" width="548" height="373"/>
    <path class="h" d="M449.25,262.37l-10.29-33.14c-.03-.08-.06-.17-.09-.25l8.36-7.42c2.88-2.55,6.95-3.27,10.52-1.85l10.57,4.21c4.9,1.95,9.1-4.03,5.59-7.98l-7.56-8.51c-2.55-2.88-3.27-6.95-1.85-10.52l4.21-10.57c.07-.18.13-.35.18-.53.15-.11.29-.22.44-.35l8.51-7.56c2.88-2.55,6.95-3.27,10.52-1.85l10.57,4.21c4.9,1.95,9.1-4.03,5.59-7.98l-7.56-8.51c-2.55-2.88-3.27-6.95-1.85-10.52l4.2-10.54,8.48-7.54c2.88-2.55,6.95-3.27,10.52-1.85l10.57,4.21c4.9,1.95,9.1-4.03,5.59-7.98l-7.56-8.51c-2.55-2.88-3.27-6.95-1.85-10.52l4.21-10.57c1.95-4.9-4.03-9.1-7.98-5.59l-8.51,7.56c-2.88,2.55-6.95,3.27-10.52,1.85l-10.57-4.21c-4.9-1.95-9.1,4.03-5.59,7.98l7.56,8.51c2.55,2.88,3.27,6.95,1.85,10.52l-4.2,10.54-8.48,7.54c-2.88,2.55-6.95,3.27-10.52,1.85l-10.57-4.21c-4.9-1.95-9.1,4.03-5.59,7.98l7.56,8.51c2.55,2.88,3.27,6.95,1.85,10.52l-4.21,10.57c-.07.18-.13.35-.18.53-.15.11-.29.22-.44.35l-8.51,7.56c-2.88,2.55-6.95,3.27-10.52,1.85l-10.57-4.21c-4.9-1.95-9.1,4.03-5.59,7.98l7.56,8.51c2.55,2.88,3.27,6.95,1.85,10.52l-4.21,10.57c-.11.27-.18.53-.25.79l-32.79-.43c-3.01-.04-5.71,1.87-6.68,4.72l-7.61,22.41-5.65-18.19c-.89-2.88-3.54-4.86-6.55-4.89l-34.69-.45c-3.01-.04-5.71,1.87-6.68,4.72l-11.15,32.85c-.83,2.45-.23,5.11,1.48,6.96-1.13.04-2.25.31-3.3.83l-25.75,12.64c-2.62,1.29-4.35,3.87-4.55,6.78l-1.93,28.62c-.2,2.91,1.18,5.7,3.6,7.33l23.82,15.98c2.42,1.62,5.53,1.83,8.15.55l25.75-12.64c2.62-1.29,4.35-3.87,4.55-6.78l1.93-28.62c.04-.58.01-1.16-.07-1.73,1.63.17,3.32-.24,4.72-1.24l28.33-20.02c.47-.33.89-.72,1.26-1.15l23.41,17.48c2.42,1.8,5.72,1.85,8.18.11l28.33-20.02c2.46-1.74,3.52-4.87,2.63-7.75Z"/>
    <g>
      <path class="f" d="M220.19,242.02c-20.47,8.61-44.78-3.51-66.58,1.64-12.39-.81-57.11,10.5-49.38-11.98,4.66-10.46,12.54-40.18,13.15-52.49,5.64-48.79,14.34-75.48,2.15-123.36,6-34.1,43.35,1.64,65.71-10.93,13.1-.48,46-15.36,42.85,8.02-10.5,45.83,36.44,127.69,26.61,173.72-4.59,29.58-.78,13.56-34.51,15.39Z"/>
      <path class="g" d="M269.92,208.02c-33.29-55.97-33.53-145.67-33.57-159.42-.01-4.36.1-13.85-8.87-19.34-12.98-7.94-40.96-5.03-57.64,3.35-16.68-8.37-44.66-11.29-57.64-3.35-8.97,5.49-8.86,14.98-8.87,19.34-.04,13.76-.29,103.45-33.57,159.42-6.79,11.41-13.65,20.67-8.17,30.87,9.49,17.67,54.91,28.13,73.18,18.6,11.88-6.19,8.08-18.66,7.15-40.55-.03-.68-.06-1.39-.09-2.13-.04,0-.08,0-.12,0-11.28,0-20.42-9.14-20.42-20.42s9.14-20.42,20.42-20.42c.07,0,.14,0,.21,0,.33-5.62.82-11.52,1.53-17.59-10.28-1.07-18.29-9.75-18.29-20.31,0-11.28,9.14-20.42,20.42-20.42,2.02,0,3.97.3,5.81.84,4.23-14.41,10.17-28.82,18.47-42.24,13.45,21.75,20.71,46.09,24.53,68.86,1.17-.21,2.38-.33,3.62-.33,11.28,0,20.42,9.14,20.42,20.42s-9.03,20.3-20.21,20.41c.4,13.86-.09,25.5-.42,33.31-.82,19.41-3.9,31.42,3.7,38.21l11.16-2.65c3.91-.93,6.96-3.98,7.88-7.88l3.41-14.41c.49-2.06,3.43-2.06,3.92,0l3.41,14.41c.93,3.91,3.98,6.96,7.89,7.88l13.47,3.19c11.39-3.97,21.92-9.51,25.48-16.81,4.93-10.11-1.39-19.46-8.17-30.87Z"/>
    </g>
  </g>
</svg>