<?xml version="1.0" encoding="UTF-8"?>
<svg id="b" data-name="Layer 2" xmlns="http://www.w3.org/2000/svg" width="548" height="373" xmlns:xlink="http://www.w3.org/1999/xlink" viewBox="0 0 548 373">
  <defs>
    <style>
      .e {
        fill: #fff;
      }

      .f {
        fill: #00957a;
      }

      .f, .g, .h {
        stroke: #000;
        stroke-miterlimit: 10;
        stroke-width: 4px;
      }

      .g {
        fill: #7ccab8;
      }

      .h {
        fill: url(#d);
      }
    </style>
    <linearGradient id="d" x1="127.56" y1="1549.56" x2="213.72" y2="1572.65" gradientTransform="translate(1122.95 -1181.47) rotate(33.34)" gradientUnits="userSpaceOnUse">
      <stop offset="0" stop-color="#fff"/>
      <stop offset=".11" stop-color="#e2f2d9"/>
      <stop offset=".26" stop-color="#c1e2ab"/>
      <stop offset=".41" stop-color="#a5d586"/>
      <stop offset=".56" stop-color="#8fcb69"/>
      <stop offset=".71" stop-color="#80c454"/>
      <stop offset=".86" stop-color="#77c048"/>
      <stop offset="1" stop-color="#74bf44"/>
    </linearGradient>
  </defs>
  <g id="c" data-name="Layer 2">
    <rect class="e" width="548" height="373"/>
    <path class="h" d="M432.91,248.97l-8.59-27.65c-.02-.07-.05-.14-.07-.21l6.97-6.19c2.4-2.13,5.8-2.73,8.78-1.54l8.82,3.51c4.09,1.63,7.59-3.36,4.67-6.66l-6.31-7.1c-2.13-2.4-2.73-5.8-1.54-8.78l3.51-8.82c.06-.15.11-.3.15-.44.12-.09.25-.18.37-.29l7.1-6.31c2.4-2.13,5.8-2.73,8.78-1.54l8.82,3.51c4.09,1.63,7.59-3.36,4.67-6.66l-6.31-7.1c-2.13-2.4-2.73-5.8-1.54-8.78l3.5-8.8,7.08-6.29c2.4-2.13,5.8-2.73,8.78-1.54l8.82,3.51c4.09,1.63,7.59-3.36,4.67-6.66l-6.31-7.1c-2.13-2.4-2.73-5.8-1.54-8.78l3.51-8.82c1.63-4.09-3.36-7.59-6.66-4.67l-7.1,6.31c-2.4,2.13-5.8,2.73-8.78,1.54l-8.82-3.51c-4.09-1.63-7.59,3.36-4.67,6.66l6.31,7.1c2.13,2.4,2.73,5.8,1.54,8.78l-3.5,8.8-7.08,6.29c-2.4,2.13-5.8,2.73-8.78,1.54l-8.82-3.51c-4.09-1.63-7.59,3.36-4.67,6.66l6.31,7.1c2.13,2.4,2.73,5.8,1.54,8.78l-3.51,8.82c-.06.15-.11.3-.15.44-.12.09-.25.18-.37.29l-7.1,6.31c-2.4,2.13-5.8,2.73-8.78,1.54l-8.82-3.51c-4.09-1.63-7.59,3.36-4.67,6.66l6.31,7.1c2.13,2.4,2.73,5.8,1.54,8.78l-3.51,8.82c-.09.22-.15.44-.2.66l-27.36-.36c-2.52-.03-4.77,1.56-5.57,3.94l-6.35,18.7-4.71-15.18c-.75-2.4-2.95-4.05-5.47-4.08l-28.95-.38c-2.52-.03-4.77,1.56-5.57,3.94l-9.31,27.42c-.69,2.04-.19,4.26,1.24,5.8-.94.03-1.88.26-2.75.69l-21.49,10.55c-2.18,1.07-3.63,3.23-3.8,5.66l-1.61,23.88c-.16,2.43.98,4.76,3,6.12l19.88,13.34c2.02,1.36,4.61,1.53,6.8.46l21.49-10.55c2.18-1.07,3.63-3.23,3.8-5.66l1.61-23.88c.03-.49.01-.97-.06-1.44,1.36.14,2.77-.2,3.94-1.03l23.64-16.71c.39-.28.75-.6,1.05-.96l19.53,14.59c2.02,1.51,4.77,1.54,6.83.09l23.64-16.71c2.05-1.45,2.94-4.06,2.19-6.46Z"/>
    <g>
      <path class="f" d="M208.14,235.52c-17.03,7.16-37.25-2.92-55.39,1.36-10.31-.67-47.51,8.74-41.08-9.96,3.88-8.7,10.43-33.43,10.94-43.67,4.69-40.59,11.93-62.79,1.79-102.63,4.99-28.37,36.06,1.36,54.66-9.09,10.9-.4,38.26-12.78,35.65,6.67-8.74,38.13,30.32,106.23,22.14,144.51-3.82,24.61-.65,11.28-28.71,12.8Z"/>
      <path class="g" d="M249.51,207.23c-27.69-46.56-27.9-121.18-27.93-132.62,0-3.62.08-11.52-7.38-16.09-10.8-6.61-34.07-4.18-47.95,2.78-13.88-6.96-37.15-9.39-47.95-2.78-7.46,4.56-7.37,12.47-7.38,16.09-.03,11.45-.24,86.06-27.93,132.62-5.65,9.49-11.35,17.2-6.8,25.68,7.89,14.7,45.68,23.4,60.88,15.48,9.88-5.15,6.72-15.53,5.95-33.73-.02-.57-.05-1.16-.07-1.77-.03,0-.07,0-.1,0-9.38,0-16.99-7.61-16.99-16.99s7.61-16.99,16.99-16.99c.06,0,.12,0,.17,0,.27-4.68.68-9.58,1.27-14.63-8.55-.89-15.21-8.11-15.21-16.89,0-9.38,7.61-16.99,16.99-16.99,1.68,0,3.3.25,4.83.7,3.52-11.99,8.46-23.97,15.36-35.14,11.19,18.1,17.23,38.34,20.4,57.28.98-.17,1.98-.27,3.01-.27,9.38,0,16.99,7.61,16.99,16.99s-7.51,16.89-16.82,16.98c.33,11.53-.07,21.22-.35,27.71-.68,16.15-3.25,26.14,3.08,31.78l9.29-2.2c3.25-.77,5.79-3.31,6.56-6.56l2.84-11.98c.41-1.72,2.85-1.72,3.26,0l2.84,11.98c.77,3.25,3.31,5.79,6.56,6.56l11.21,2.66c9.47-3.31,18.24-7.91,21.2-13.98,4.1-8.41-1.15-16.19-6.8-25.68Z"/>
    </g>
  </g>
</svg>