<?xml version="1.0" encoding="UTF-8"?>
<svg id="b" data-name="Layer 2" xmlns="http://www.w3.org/2000/svg" width="399.75" height="1026" xmlns:xlink="http://www.w3.org/1999/xlink" viewBox="0 0 399.75 1026">
  <defs>
    <style>
      .e {
        fill: url(#d);
        stroke: #010101;
        stroke-miterlimit: 10;
        stroke-width: 10px;
      }
    </style>
    <linearGradient id="d" x1="5" y1="513" x2="394.75" y2="513" gradientUnits="userSpaceOnUse">
      <stop offset="0" stop-color="#fff"/>
      <stop offset=".01" stop-color="#f4faf7"/>
      <stop offset=".09" stop-color="#c3e5d2"/>
      <stop offset=".16" stop-color="#96d1b1"/>
      <stop offset=".24" stop-color="#70c194"/>
      <stop offset=".33" stop-color="#4fb37c"/>
      <stop offset=".42" stop-color="#35a768"/>
      <stop offset=".52" stop-color="#219e59"/>
      <stop offset=".63" stop-color="#12984f"/>
      <stop offset=".77" stop-color="#0a9548"/>
      <stop offset="1" stop-color="#089447"/>
    </linearGradient>
  </defs>
  <g id="c" data-name="Layer 1">
    <path class="e" d="M386.95,568.46l-82.25-67.58c-.21-.17-.43-.33-.65-.49l8.9-33.12c3.06-11.4,12.29-20.09,23.85-22.47l34.2-7.04c15.86-3.26,16.53-25.68.89-29.88l-33.72-9.06c-11.4-3.06-20.09-12.29-22.47-23.85l-7.04-34.2c-.12-.58-.27-1.13-.44-1.66.2-.52.38-1.07.53-1.63l9.06-33.72c3.06-11.4,12.29-20.09,23.85-22.47l34.2-7.04c15.86-3.26,16.53-25.68.89-29.88l-33.72-9.06c-11.4-3.06-20.09-12.29-22.47-23.85l-7.02-34.1,9.03-33.63c3.06-11.4,12.29-20.09,23.85-22.47l34.2-7.04c15.86-3.26,16.53-25.68.89-29.88l-33.72-9.06c-11.4-3.06-20.09-12.29-22.47-23.85l-7.04-34.2c-3.26-15.86-25.68-16.53-29.88-.89l-9.06,33.72c-3.06,11.4-12.29,20.09-23.85,22.47l-34.2,7.04c-15.86,3.26-16.53,25.68-.89,29.88l33.72,9.06c11.4,3.06,20.09,12.29,22.47,23.85l7.02,34.1-9.03,33.63c-3.06,11.4-12.29,20.09-23.85,22.47l-34.2,7.04c-15.86,3.26-16.53,25.68-.89,29.88l33.72,9.06c11.4,3.06,20.09,12.29,22.47,23.85l7.04,34.19c.12.58.27,1.13.44,1.66-.2.53-.38,1.07-.53,1.63l-9.06,33.72c-3.06,11.4-12.29,20.09-23.85,22.47l-34.2,7.04c-15.86,3.26-16.53,25.68-.89,29.88l33.72,9.06c11.4,3.06,20.09,12.29,22.47,23.85l7.04,34.2c.18.86.42,1.67.7,2.44l-84.77,54.19c-7.79,4.98-11.49,14.42-9.16,23.37l18.29,70.26-45.17-37.11c-7.15-5.87-17.26-6.47-25.05-1.49l-89.69,57.34c-7.79,4.98-11.49,14.42-9.16,23.37l26.82,103.02c.9,3.47,2.64,6.55,4.96,9.07-.75.93-1.44,1.92-2.06,2.97l-51.25,86.95c-4.54,7.71-4.63,17.26-.22,25.05l49.68,87.86c4.4,7.79,12.63,12.64,21.58,12.72l100.93.91c8.95.08,17.26-4.62,21.8-12.33l51.25-86.95c4.54-7.71,4.63-17.26.22-25.05l-49.68-87.86c-.45-.8-.95-1.56-1.48-2.29.4-.74.77-1.51,1.08-2.31l38.86-99.11c.65-1.66,1.07-3.36,1.29-5.06l89.49,5.33c9.23.55,17.77-4.91,21.15-13.52l38.86-99.11c3.38-8.61.82-18.42-6.32-24.29Z"/>
  </g>
</svg>