<?xml version="1.0" encoding="UTF-8"?>
<svg id="b" data-name="Layer 2" xmlns="http://www.w3.org/2000/svg" width="898.74" height="461.85" xmlns:xlink="http://www.w3.org/1999/xlink" viewBox="0 0 898.74 461.85">
  <defs>
    <style>
      .e {
        fill: url(#d);
        stroke: #010101;
        stroke-miterlimit: 10;
        stroke-width: 10px;
      }
    </style>
    <radialGradient id="d" cx="538.63" cy="230.87" fx="538.63" fy="230.87" r="795.4" gradientTransform="translate(0 140.08) scale(1 .39)" gradientUnits="userSpaceOnUse">
      <stop offset=".24" stop-color="#568444"/>
      <stop offset=".34" stop-color="#598648"/>
      <stop offset=".45" stop-color="#658f55"/>
      <stop offset=".56" stop-color="#799d6b"/>
      <stop offset=".68" stop-color="#94b189"/>
      <stop offset=".8" stop-color="#b8cbb0"/>
      <stop offset=".92" stop-color="#e2eadf"/>
      <stop offset=".99" stop-color="#fff"/>
    </radialGradient>
  </defs>
  <g id="c" data-name="Layer 1">
    <path class="e" d="M889.14,330.35l-42.82-10.15c-11.62-2.75-20.68-11.82-23.44-23.44l-10.15-42.82c-1.45-6.14-10.19-6.14-11.64,0l-10.15,42.82c-2.75,11.62-11.82,20.68-23.44,23.44l-26.48,6.28-26.48-6.28c-11.62-2.75-20.69-11.82-23.44-23.44l-10.15-42.82c-1.45-6.14-10.19-6.14-11.64,0l-10.15,42.82c-2.75,11.62-11.82,20.68-23.44,23.44l-36.02,8.54-81.64-112.36-116.98,38.01,74.45-101.9-86.72-120.03-135.47,43.62L132.36,5.77,5.4,78.62l-.39,146.37,126.56,73.53,122.67-70.39,123,40.33v141.75l140.83,45.76,81.64-112.36,36.02,8.54c11.62,2.75,20.68,11.82,23.44,23.44l10.15,42.82c1.45,6.14,10.19,6.14,11.64,0l10.15-42.82c2.75-11.62,11.82-20.68,23.44-23.44l26.48-6.28,26.48,6.28c11.62,2.75,20.68,11.82,23.44,23.44l10.15,42.82c1.45,6.14,10.19,6.14,11.64,0l10.15-42.82c2.75-11.62,11.82-20.68,23.44-23.44l42.82-10.15c6.14-1.45,6.14-10.19,0-11.64Z"/>
  </g>
</svg>