<?xml version="1.0" encoding="UTF-8"?>
<svg id="Layer_2" data-name="Layer 2" xmlns="http://www.w3.org/2000/svg" xmlns:xlink="http://www.w3.org/1999/xlink" viewBox="0 0 89.22 45.85" width="89.22" height="45.85">
  <defs>
    <style>
      .cls-1 {
        fill: url(#radial-gradient);
        stroke: #000;
        stroke-miterlimit: 10;
      }
    </style>
    <radialGradient id="radial-gradient" cx="53.47" cy="22.92" fx="53.47" fy="22.92" r="78.95" gradientTransform="translate(0 13.91) scale(1 .39)" gradientUnits="userSpaceOnUse">
      <stop offset=".24" stop-color="#558444"/>
      <stop offset=".34" stop-color="#598648"/>
      <stop offset=".45" stop-color="#648f55"/>
      <stop offset=".56" stop-color="#789d6b"/>
      <stop offset=".68" stop-color="#94b189"/>
      <stop offset=".8" stop-color="#b7cbb0"/>
      <stop offset=".92" stop-color="#e2eadf"/>
      <stop offset=".99" stop-color="#fff"/>
    </radialGradient>
  </defs>
  <g id="Layer_2-2" data-name="Layer 2">
    <path class="cls-1" d="M88.26,32.79l-4.25-1.01c-1.15-.27-2.05-1.17-2.33-2.33l-1.01-4.25c-.14-.61-1.01-.61-1.16,0l-1.01,4.25c-.27,1.15-1.17,2.05-2.33,2.33l-2.63.62-2.63-.62c-1.15-.27-2.05-1.17-2.33-2.33l-1.01-4.25c-.14-.61-1.01-.61-1.16,0l-1.01,4.25c-.27,1.15-1.17,2.05-2.33,2.33l-3.57.85-8.1-11.15-11.61,3.77,7.39-10.11-8.61-11.91-13.45,4.33L13.14.58.54,7.81l-.04,14.53,12.56,7.3,12.18-6.99,12.21,4v14.07l13.98,4.54,8.1-11.15,3.57.85c1.15.27,2.05,1.17,2.33,2.33l1.01,4.25c.14.61,1.01.61,1.16,0l1.01-4.25c.27-1.15,1.17-2.05,2.33-2.33l2.63-.62,2.63.62c1.15.27,2.05,1.17,2.33,2.33l1.01,4.25c.14.61,1.01.61,1.16,0l1.01-4.25c.27-1.15,1.17-2.05,2.33-2.33l4.25-1.01c.61-.14.61-1.01,0-1.16Z"/>
  </g>
</svg>