<?xml version="1.0" encoding="UTF-8"?>
<svg id="b" data-name="Layer 2" xmlns="http://www.w3.org/2000/svg" width="387.62" height="1014.5" xmlns:xlink="http://www.w3.org/1999/xlink" viewBox="0 0 387.62 1014.5">
  <defs>
    <style>
      .e {
        fill: url(#d);
        stroke: #010101;
        stroke-miterlimit: 10;
        stroke-width: 10px;
      }
    </style>
    <linearGradient id="d" x1="501.76" y1="628.19" x2="818.59" y2="713.08" gradientTransform="translate(-429.21 -150.56)" gradientUnits="userSpaceOnUse">
      <stop offset="0" stop-color="#fff"/>
      <stop offset=".11" stop-color="#e2f2d9"/>
      <stop offset=".26" stop-color="#c1e3ab"/>
      <stop offset=".41" stop-color="#a5d686"/>
      <stop offset=".56" stop-color="#8fcc69"/>
      <stop offset=".71" stop-color="#80c554"/>
      <stop offset=".86" stop-color="#77c148"/>
      <stop offset="1" stop-color="#74c044"/>
    </linearGradient>
  </defs>
  <g id="c" data-name="Layer 1">
    <path class="e" d="M374.82,568.45l-82.25-67.58c-.21-.17-.43-.33-.65-.49l8.9-33.12c3.06-11.4,12.29-20.09,23.85-22.47l34.2-7.04c15.86-3.26,16.53-25.68.89-29.88l-33.72-9.06c-11.4-3.06-20.09-12.29-22.47-23.85l-7.04-34.2c-.12-.58-.27-1.13-.44-1.66.2-.53.38-1.07.53-1.63l9.06-33.72c3.06-11.4,12.29-20.09,23.85-22.47l34.2-7.04c15.86-3.26,16.53-25.68.89-29.88l-33.72-9.06c-11.4-3.06-20.09-12.29-22.47-23.85l-7.02-34.1,9.03-33.63c3.06-11.4,12.29-20.09,23.85-22.47l34.2-7.04c15.86-3.26,16.53-25.68.89-29.88l-33.72-9.06c-11.4-3.06-20.09-12.29-22.47-23.85l-7.04-34.2c-3.26-15.86-25.68-16.53-29.88-.89l-9.06,33.72c-3.06,11.4-12.29,20.09-23.85,22.47l-34.2,7.04c-15.86,3.26-16.53,25.68-.89,29.88l33.72,9.06c11.4,3.06,20.09,12.29,22.47,23.85l7.02,34.1-9.03,33.63c-3.06,11.4-12.29,20.09-23.85,22.47l-34.2,7.04c-15.86,3.26-16.53,25.68-.89,29.88l33.72,9.06c11.4,3.06,20.09,12.29,22.47,23.85l7.04,34.2c.12.58.27,1.13.44,1.66-.2.53-.38,1.07-.53,1.63l-9.06,33.72c-3.06,11.4-12.29,20.09-23.85,22.47l-34.2,7.04c-15.86,3.26-16.53,25.68-.89,29.88l33.72,9.06c11.4,3.06,20.09,12.29,22.47,23.85l7.04,34.2c.18.86.42,1.67.7,2.44l-84.77,54.19c-7.79,4.98-11.49,14.42-9.16,23.37l18.29,70.26-45.17-37.11c-7.15-5.87-17.26-6.47-25.05-1.49l-89.69,57.34c-7.79,4.98-11.49,14.42-9.16,23.37l26.82,103.02c2,7.67,8.03,13.48,15.53,15.33-2.82,2.01-5.24,4.6-7.06,7.68l-44.69,75.83c-4.54,7.71-4.63,17.26-.22,25.05l43.33,76.62c4.4,7.79,12.63,12.64,21.58,12.72l88.02.79c8.95.08,17.26-4.62,21.8-12.33l44.69-75.83c4.54-7.71,4.63-17.26.22-25.05l-43.33-76.62c-.88-1.56-1.93-3-3.09-4.31,4.47-2.33,8.09-6.21,10.02-11.14l38.86-99.11c.65-1.66,1.07-3.36,1.29-5.06l89.49,5.33c9.23.55,17.77-4.91,21.15-13.52l38.86-99.11c3.38-8.61.82-18.42-6.32-24.29Z"/>
  </g>
</svg>