<?xml version="1.0" encoding="UTF-8"?>
<svg id="b" data-name="Layer 2" xmlns="http://www.w3.org/2000/svg" width="1026.03" height="456.33" xmlns:xlink="http://www.w3.org/1999/xlink" viewBox="0 0 1026.03 456.33">
  <defs>
    <style>
      .e {
        fill: url(#d);
        stroke: #010101;
        stroke-miterlimit: 10;
        stroke-width: 10px;
      }
    </style>
    <radialGradient id="d" cx="615.06" cy="228.11" fx="615.06" fy="228.11" r="765.64" gradientTransform="translate(0 127.34) scale(1 .44)" gradientUnits="userSpaceOnUse">
      <stop offset="0" stop-color="#6abd45"/>
      <stop offset=".11" stop-color="#72c04f"/>
      <stop offset=".3" stop-color="#88ca6b"/>
      <stop offset=".54" stop-color="#adda98"/>
      <stop offset=".83" stop-color="#def0d6"/>
      <stop offset="1" stop-color="#fff"/>
    </radialGradient>
  </defs>
  <g id="c" data-name="Layer 1">
    <path class="e" d="M1016.48,326.37l-42.3-10.02c-11.47-2.72-20.43-11.68-23.15-23.15l-10.02-42.3c-1.44-6.06-10.06-6.06-11.5,0l-10.02,42.3c-2.72,11.47-11.68,20.43-23.15,23.15l-30.17,7.15-30.17-7.15c-11.47-2.72-20.43-11.68-23.15-23.15l-10.02-42.3c-1.44-6.06-10.06-6.06-11.5,0l-10.02,42.3c-2.72,11.47-11.68,20.43-23.15,23.15l-26.16,6.2-26.16-6.2c-11.47-2.72-20.43-11.68-23.15-23.15l-10.02-42.3c-1.44-6.06-10.06-6.06-11.5,0l-10.02,42.3c-2.72,11.47-11.68,20.43-23.15,23.15l-35.58,8.43-80.64-110.99-115.55,37.54,73.54-100.65-85.65-118.56-133.81,43.08L130.8,5.77,5.4,77.72l-.39,144.58,125.01,72.62,121.17-69.52,121.49,39.84v140.02l139.1,45.2,80.64-110.99,35.58,8.43c11.47,2.72,20.43,11.68,23.15,23.15l10.02,42.3c1.44,6.06,10.06,6.06,11.5,0l10.02-42.3c2.72-11.47,11.68-20.43,23.15-23.15l26.16-6.2,26.16,6.2c11.47,2.72,20.43,11.68,23.15,23.15l10.02,42.3c1.44,6.06,10.06,6.06,11.5,0l10.02-42.3c2.72-11.47,11.68-20.43,23.15-23.15l30.17-7.15,30.17,7.15c11.47,2.72,20.43,11.68,23.15,23.15l10.02,42.3c1.44,6.06,10.06,6.06,11.5,0l10.02-42.3c2.72-11.47,11.68-20.43,23.15-23.15l42.3-10.02c6.06-1.44,6.06-10.06,0-11.5Z"/>
  </g>
</svg>