<?xml version="1.0" encoding="UTF-8"?>
<svg id="b" data-name="Layer 2" xmlns="http://www.w3.org/2000/svg" width="332.58" height="305.63" viewBox="0 0 332.58 305.63">
  <defs>
    <style>
      .e {
        fill: #2e3192;
      }

      .f {
        fill: #948a00;
      }

      .g {
        fill: #534741;
      }

      .h {
        fill: #c69c6d;
      }

      .i {
        fill: #ffd6bf;
      }

      .j {
        fill: #fff9bc;
      }

      .k {
        fill: #9571b2;
      }

      .l {
        fill: #c7b299;
      }

      .m {
        fill: #f7931e;
      }

      .n {
        fill: #ed1c24;
      }

      .o {
        fill: none;
        stroke: #f0f;
        stroke-miterlimit: 10;
        stroke-width: 3px;
      }

      .p {
        fill: #e9ff74;
      }

      .q {
        fill: #c9e6ff;
      }
    </style>
  </defs>
  <g id="c" data-name="Layer 2">
    <g id="d" data-name="Dimensions">
      <path class="o" d="M200.66,6.16c6.72.84,15.65,2.51,26.81,6.64,11.75,4.35,20.26,9.74,26.31,13.75,8.63,5.72,14.5,9.66,17.09,11.78,2.96,2.42,5.01,4.4,6.77,5.87,17.25,14.51,25.38,23.03,28.47,26.68,3.89,4.59,10.23,12.18,15.19,23.74,6.16,14.33,6.75,26.72,7.02,33.57.56,14.29-1.98,25.15-3.83,32.81-1.87,7.76-3.78,12.78-7.53,22.69-7.41,19.56-14.66,33.37-22.34,47.91-4.38,8.28-5.8,10.49-7.02,12.26-2.15,3.11-9.16,12.82-22.47,22.34-8.42,6.03-15.09,8.91-28.08,14.43-10.02,4.26-24.44,10.3-44.55,15.06-10.88,2.58-22.44,5.24-38.04,5.62-10.42.25-18.63-.62-24-1.4-9.46-1.38-16.55-3.12-23.23-5.74-1.15-.45-3.8-1.85-8.2-3.69-3.17-1.32-5.31-1.69-7.76-2.44-4.7-1.44-7.81-3.26-12.64-5.49-14.86-6.86-26.83-17.8-26.94-17.87-2.97-2.07-12.22-10.63-22.08-24.1-4.09-5.58-17.33-24.46-23.15-48.16-2.28-9.31-2.49-15.59-2.51-18.38-.05-7.34,1.05-13.37,1.91-18,.76-4.08,1.61-7.48,3.06-12.64,3.72-13.23,7.38-23.74,9.19-28.85,4.49-12.63,6.73-18.95,10.09-26.04,5.32-11.25,10.39-19.02,11.49-20.68,8.92-13.54,17.61-22.12,19.4-23.87,3.97-3.88,10.76-10.01,20.04-16.09,19.66-12.86,37.91-17.21,47.49-19.4,16.7-3.82,29.74-4.03,41.74-4.21,8.09-.13,18.78.22,32.3,1.91Z"/>
      <g>
        <path class="j" d="M96.41,286.7c-42.26-13.07-73.51-49.1-86.24-91.47-1.78-5.93-3.16-12.02-3.58-18.2-1.02-14.92,3.41-29.63,8.05-43.84,6.51-19.98,13.2-41.58,24.46-60.11,10.77-17.73,25.66-32.95,43.16-44.11C117.68,6.38,163.38,4.63,203.71,9.28c9.92,1.14,19.51,4.46,28.67,8.42,10.12,4.37,19.46,10.36,28.39,16.81,11.1,8.02,21.66,16.79,31.57,26.24,8.99,8.58,17.56,17.84,23.45,28.78,11.17,20.76,11.72,45.92,6.4,68.89s-16.05,44.26-26.69,65.29c-4.57,9.03-9.19,18.15-15.71,25.89-12.28,14.58-30.19,23.05-47.9,30.09-21.3,8.47-43.36,15.55-66.16,17.92-22.8,2.37-46.49-.19-67.1-10.22l-2.22-.7Z"/>
        <path class="m" d="M96.81,285.26c-12.54-3.9-24.34-9.93-34.94-17.68-10.51-7.69-19.82-17.08-27.59-27.52-7.92-10.63-14.36-22.39-19.09-34.77-2.67-6.98-4.97-14.19-6.26-21.56-1.52-8.6-1.11-17.34.51-25.9s4.2-16.67,6.86-24.84c2.47-7.57,4.9-15.16,7.56-22.67,5.33-15.02,11.65-29.75,20.72-42.92,8.51-12.36,19.15-23.33,31.26-32.21,12.03-8.82,25.46-15.3,39.77-19.49,14.32-4.2,29.21-6.22,44.1-6.81s29.59.17,44.25,1.92c8.34,1,16.45,3.6,24.21,6.74s14.98,6.99,21.96,11.48c14.1,9.06,27.26,19.73,39.47,31.19,11.51,10.81,22.51,22.71,28.42,37.61s6.92,30.14,5.27,45.42c-1.76,16.25-6.95,31.98-13.36,46.95-3.31,7.73-6.96,15.32-10.71,22.85s-7.21,14.69-11.23,21.8-8.4,13.41-14.13,18.93c-5.31,5.12-11.39,9.37-17.79,13.03s-13.4,6.88-20.36,9.75c-7.65,3.15-15.39,6.09-23.22,8.74-16.14,5.46-32.82,9.69-49.84,11.12-16,1.34-32.3.24-47.74-4.33-3.68-1.09-7.31-2.37-10.85-3.86-2.43-1.03-4.73-2.18-7.24-2.97-1.85-.58-2.64,2.32-.8,2.89,2.72.85,5.24,2.15,7.88,3.23,3.75,1.54,7.59,2.86,11.48,3.96,7.88,2.23,16,3.58,24.16,4.2,16.85,1.29,33.81-.67,50.22-4.54,16.65-3.93,32.89-9.72,48.65-16.35,13.89-5.84,27.66-12.87,38.43-23.62,5.72-5.71,10.25-12.42,14.17-19.46s7.78-14.94,11.51-22.48c7.57-15.28,14.73-30.89,19.35-47.35,4.31-15.36,6.31-31.57,4.33-47.47-.97-7.77-2.83-15.41-5.86-22.64s-7.36-14.17-12.38-20.42c-5.13-6.39-10.95-12.2-16.93-17.78-6.26-5.84-12.76-11.41-19.49-16.7-13.29-10.44-27.25-19.96-43.01-26.28-7.91-3.17-16.1-5.66-24.58-6.67-7.44-.89-14.92-1.49-22.41-1.83-15.26-.69-30.59-.16-45.7,2.18-14.96,2.32-29.69,6.54-43.28,13.28-13.68,6.78-26.09,16.23-36.62,27.26-10.85,11.36-19.54,24.49-26.12,38.74-6.87,14.86-11.8,30.5-16.85,46.04-2.74,8.42-5.35,16.92-6.81,25.66s-1.62,17.41,0,26.09c1.39,7.48,3.77,14.81,6.53,21.89,2.47,6.32,5.35,12.48,8.64,18.41,6.52,11.73,14.66,22.6,24.21,32.04,9.45,9.33,20.31,17.28,32.19,23.23,5.88,2.95,12,5.41,18.29,7.36,1.85.57,2.64-2.32.8-2.89Z"/>
      </g>
      <g>
        <g>
          <path class="h" d="M28.59,164.44c2.56-9.26,5.02-18.56,8.68-27.44.57-1.38,1.17-2.78,2.07-3.97,2.09-2.79,5.83-4.24,9.25-3.56,3.42.68,6.32,3.49,7.08,6.89.65,2.89-.17,5.88-1.05,8.71-2.72,8.73-6.16,17.23-10.27,25.4-1.18,2.34-2.83,4.95-5.44,5.16-.95.08-1.9-.19-2.81-.48-2.23-.72-4.48-1.64-6.11-3.32-1.63-1.68-1.96-5.34-1.4-7.38Z"/>
          <path class="g" d="M29.31,164.64c2.09-7.56,4.11-15.14,6.78-22.52,1.24-3.41,2.36-7.82,5.33-10.17,2.57-2.03,6.22-2.53,9.15-1,7.73,4.04,3.57,13.58,1.39,19.74-1.29,3.65-2.7,7.27-4.25,10.82s-2.93,6.93-4.85,10.1c-.8,1.33-1.9,2.79-3.49,3.17-1.95.47-4.65-.79-6.36-1.69s-3.04-2.02-3.58-3.9c-.42-1.46-.5-3.08-.13-4.56.23-.94-1.21-1.34-1.45-.4-.65,2.61-.31,6.07,1.59,8.11,1.31,1.4,3.11,2.29,4.87,2.97s3.72,1.41,5.59.87c3.33-.96,4.86-4.88,6.22-7.69,1.95-4.03,3.74-8.14,5.36-12.31s3.33-8.71,4.49-13.19c.95-3.7.99-7.6-1.51-10.71-2.13-2.66-5.48-4.09-8.87-3.66-3.6.46-6.49,2.73-8.09,5.93-2.27,4.55-3.81,9.59-5.32,14.44s-2.94,10.15-4.35,15.24c-.26.93,1.19,1.33,1.45.4Z"/>
        </g>
        <g>
          <path class="l" d="M39.25,166.27c-1.61-.71-3.52.05-5.28.07-.61,0-1.33.08-1.62.62-.22.4-.09.9.1,1.32,1.44,3.27,6.2,4.47,9.03,2.28.55-.42,1.04-1,1.11-1.69.16-1.53-1.73-3.15-.75-4.33.73-.89,2.28-.3,3.24-.93,1.31-.85.49-2.95-.7-3.97s-2.78-2.02-2.76-3.59c0-.42.18-.88.57-1.03.25-.1.53-.04.79.01,1.29.27,2.59.54,3.88.8.31-.21.18-.71-.08-.98s-.63-.45-.78-.8c-.32-.72.52-1.43,1.29-1.59s1.65-.12,2.21-.67c.65-.64.5-1.7.31-2.59-.46-2.08-.92-4.16-1.38-6.24,1.57.69,3.54-.31,4.23-1.88s.27-3.47-.74-4.86c-1-1.39-2.5-2.34-4.05-3.08-.75-.36-1.71-.65-2.36-.12-1.03.84-.04,2.5,1.08,3.21s2.56,1.54,2.43,2.85c-1.45.26-3-.07-4.21-.91-.55-.38-1.04-.86-1.67-1.1s-1.46-.12-1.77.47c-.37.7.2,1.53.8,2.05,1.38,1.2,3.28,2.27,3.38,4.1-1.06.27-2.11-.35-3.13-.72-1.03-.37-2.45-.33-2.88.68.69,1.29,2.07,2.02,3.24,2.9s2.28,2.2,2.01,3.64c-1.52,0-3.02-.7-4.01-1.86-.42-.49-.75-1.06-1.27-1.43-.79-.56-1.95-.52-2.71.09-.75.61-1.03,1.74-.64,2.63.44,1.02,1.55,1.56,2.29,2.39.74.83.87,2.48-.2,2.78-.5.14-1.05-.1-1.56.02-1.06.24-1.14,1.87-.39,2.66s1.9,1,2.92,1.35c1.03.35,2.12,1.03,2.24,2.11-1.37,1.87-4.35,1.15-6.3-.11-.87-.56-2.27-1.08-2.73-.15-.43.85.62,1.67,1.49,2.05,1.78.78,3.53,2.75,5.32,3.54Z"/>
          <path class="g" d="M39.45,165.55c-1.82-.67-3.77-.07-5.64.05-1.25.08-2.47.65-2.31,2.12.31,2.74,3.53,4.48,5.98,4.68s6.41-1.27,5.79-4.34c-.15-.76-.59-1.4-.83-2.12-.4-1.23.86-1.16,1.74-1.28,1.29-.17,2.31-.99,2.31-2.37,0-1.75-1.29-2.92-2.52-3.94-.49-.41-2.17-1.78-1.4-2.43.4-.34,1.4.1,1.9.2.73.15,1.45.3,2.18.45.24.05.56.02.73-.19.29-.38.47-.69.37-1.2-.05-.27-.17-.48-.33-.69-.1-.13-.51-.4-.55-.52-.31-.92,1.46-.85,1.95-.99.56-.15,1.06-.43,1.4-.89.77-1.03.44-2.39.18-3.54-.42-1.92-.85-3.84-1.27-5.76l-.92.92c2.18.8,4.61-.61,5.29-2.78.88-2.8-.84-5.53-3.04-7.12-1.39-1-5.22-3.25-6.07-.4-.29.99.26,2.04.92,2.75.86.93,2.95,1.49,2.94,2.94l.55-.72c-1.08.15-2.15-.01-3.12-.52-.77-.41-1.37-1.09-2.18-1.41-.94-.37-2.11-.27-2.71.62-1.79,2.64,3.73,4.35,3.99,6.64l.55-.72c-1.43.22-2.7-.96-4.14-.96-.97,0-1.83.4-2.32,1.26-.13.23-.14.52,0,.76.65,1.08,1.59,1.81,2.61,2.52,1.25.88,2.73,1.91,2.54,3.63l.75-.75c-1-.04-1.91-.33-2.72-.93-.66-.49-1.05-1.17-1.61-1.75-.89-.92-2.21-1.26-3.41-.76-1.08.45-1.79,1.52-1.81,2.69-.03,1.35.85,2.25,1.82,3.06.53.45,1.17.91,1.21,1.67.05,1.08-1.08.49-1.77.67-.95.25-1.45,1.18-1.43,2.12.02,1.15.75,2.02,1.73,2.53,1.28.67,3.61.69,3.96,2.39l.19-.73c-1.31,1.59-3.61.81-5.12-.06-1.07-.62-2.79-1.57-3.82-.35-1.1,1.31.25,2.7,1.41,3.3,1.95,1.01,3.48,2.66,5.46,3.61.87.42,1.63-.88.76-1.3-1.65-.79-2.93-2.14-4.48-3.09-.36-.22-.76-.38-1.13-.59-.14-.08-.39-.19-.49-.32-.09-.13-.28-.54.06-.67.45-.17,1.62.81,2.04,1.01,1.2.59,2.57,1,3.92.83.92-.11,2.56-.74,2.66-1.85.11-1.28-1.41-2.28-2.39-2.68-.74-.31-1.57-.43-2.28-.81-.45-.24-.86-.54-.95-1.06-.13-.68.35-.75.88-.82.65-.08,1.12.03,1.65-.42.42-.35.61-.88.65-1.41.09-1.4-.79-2.32-1.79-3.16-.8-.68-1.74-1.64-.96-2.73,1.04-1.47,2.4.02,3.11.87,1.19,1.41,2.83,2.15,4.66,2.23.44.02.71-.36.75-.75.41-3.6-3.84-4.4-5.35-6.91v.76c.57-1.02,2.01-.33,2.81-.03.95.36,1.75.57,2.76.41.29-.04.58-.43.55-.72-.12-1-.5-1.82-1.19-2.57-.4-.43-.86-.8-1.31-1.17-.43-.34-1.29-.81-1.5-1.34-.23-.56.19-1.03.83-.73.3.14.56.37.82.57.52.38,1.03.72,1.63.97,1.18.49,2.39.55,3.64.38.32-.05.55-.42.55-.72,0-1.49-1.07-2.37-2.23-3.13-.52-.34-1.94-1.17-1.71-1.97l.64-.49c.36.05.7.15,1.02.3.42.18.83.41,1.23.64,1.74,1.02,3.39,2.59,3.52,4.73.11,1.97-1.59,3.81-3.61,3.07-.57-.21-1.04.41-.92.92.35,1.6.71,3.2,1.06,4.8.16.73.45,1.53.45,2.28,0,1.11-.7,1.26-1.62,1.41s-1.93.55-2.3,1.5c-.15.38-.14.8.02,1.18.06.14.83,1.2,1.02.96l.73-.19c-1.29-.27-2.58-.58-3.88-.8-.73-.13-1.39-.11-1.89.5-.96,1.18-.15,2.82.73,3.77.55.6,1.24,1.04,1.83,1.59.55.51,1.71,1.96.93,2.72-.55.54-1.69.27-2.39.47-.64.18-1.18.59-1.44,1.22-.66,1.62,1.3,2.92.84,4.42-.53,1.72-3.23,2.08-4.71,1.83s-3.29-1.19-3.86-2.67c-.32-.84-.03-1.01.75-1.08.48-.04.96-.07,1.44-.13,1.25-.17,2.43-.41,3.64.04.91.33,1.3-1.12.4-1.45Z"/>
        </g>
      </g>
      <g>
        <path class="p" d="M62.33,172.51c-1.35-.17-3.04-.7-3.86-1.53s-1.32-2.09-.94-3.21c.46-1.35,1.95-2.01,3.32-2.42.66-.2,1.34-.37,2.03-.36,2.04.04,3.85,2.01,3.7,4.05-.15,2.04-2.21,3.73-4.24,3.47Z"/>
        <path class="f" d="M62.33,171.76c-1.36-.18-3.02-.64-3.78-1.89-.36-.6-.55-1.34-.26-2.01s.89-1.03,1.49-1.32c.7-.34,1.5-.58,2.27-.73s1.47-.08,2.13.3c1.13.65,1.92,2.02,1.57,3.33-.4,1.49-1.9,2.47-3.41,2.31-.4-.04-.75.38-.75.75,0,.44.35.71.75.75,1.92.21,3.86-1.02,4.62-2.77.81-1.85.17-3.99-1.4-5.24-.77-.61-1.69-1-2.69-1.02-1.12-.02-2.29.35-3.32.77-.91.38-1.77.9-2.34,1.73-.6.87-.7,2.01-.36,3,.81,2.36,3.21,3.21,5.48,3.52.4.05.75-.38.75-.75,0-.45-.35-.7-.75-.75Z"/>
      </g>
      <g>
        <path class="p" d="M82.16,167.85c-1.65-.1-3.43-1.47-4.44-2.53-1.01-1.06-1.42-2.85-.5-3.99.79-.99,2.21-1.15,3.47-1.23.9-.06,1.79-.12,2.69-.18,1.57-.1,3.32-.15,4.5.9,1.49,1.32,1.21,3.91-.19,5.33-1.4,1.41-3.54,1.83-5.53,1.7Z"/>
        <path class="f" d="M82.16,167.1c-.97-.08-1.88-.62-2.65-1.19-.71-.52-1.47-1.16-1.83-1.98-.32-.74-.36-1.69.27-2.29s1.61-.7,2.44-.77c1.16-.09,2.32-.17,3.49-.23.92-.05,1.91-.07,2.78.28,1.62.66,1.8,2.62,1.02,4.01-1.07,1.89-3.54,2.28-5.51,2.17-.96-.05-.96,1.45,0,1.5,2.39.13,5.13-.48,6.58-2.56,1.26-1.81,1.25-4.57-.6-5.98-.98-.74-2.23-.94-3.43-.95-1.44,0-2.89.14-4.32.25-1.15.09-2.35.27-3.27,1.02-.98.79-1.3,2.04-1.08,3.24.25,1.33,1.15,2.33,2.17,3.15,1.15.93,2.46,1.69,3.95,1.82.96.08.96-1.42,0-1.5Z"/>
      </g>
      <g>
        <path class="k" d="M103.31,116.46c-2.4.94-12.11,7.78-19.1,7-2.44-.27-5.36-1.58-5.33-4.03,0-.86.42-1.68.96-2.35,2.57-3.18,7.35-3.04,11.44-2.97,10.92.17,21.87-2.32,31.64-7.2,8.34-4.16,16.08-10.1,25.27-11.66,6.81-1.15,13.82.23,20.68-.56,5.09-.59,10.04-2.37,15.16-2.29.17,0,.35,0,.51.08.29.12.45.42.56.71.78,2.12-.74,4.53-2.77,5.51-2.03.99-4.39.91-6.64.8-12.2-.6-24.83-1.67-36.29,2.58-7.85,2.91-14.67,8.16-22.54,11.03-4.39,1.6-8.93,1.53-13.54,3.34Z"/>
        <path class="e" d="M103.11,115.73c-1.71.7-3.29,1.75-4.9,2.62-2.55,1.39-5.18,2.69-7.96,3.55s-5.98,1.4-8.68.03c-1.61-.82-2.52-2.32-1.41-4.03.91-1.39,2.44-2.18,4-2.59,3.25-.85,6.75-.39,10.07-.49,3.86-.11,7.71-.55,11.49-1.29,7.67-1.51,14.89-4.38,21.71-8.18,6.43-3.59,12.79-7.77,20.13-9.23,4.16-.83,8.43-.61,12.64-.49s8.07.03,12.09-.73c1.99-.38,3.96-.84,5.95-1.2,1.08-.19,2.16-.36,3.24-.46.76-.07,2.5-.44,2.92.25.96,1.59-1.04,3.82-2.29,4.47-1.77.91-3.85.89-5.79.81-7.95-.32-15.91-1-23.86-.27-3.83.35-7.65,1.02-11.33,2.18s-7.12,2.85-10.49,4.68-6.66,3.76-10.12,5.39c-3.72,1.75-7.44,2.63-11.47,3.39-2.02.38-4.02.85-5.94,1.58-.89.34-.51,1.79.4,1.45,4.17-1.58,8.66-1.73,12.88-3.12,3.91-1.28,7.56-3.29,11.15-5.27s7.32-4.14,11.23-5.68c4.09-1.61,8.42-2.56,12.79-3.02s8.71-.49,13.07-.36,8.65.56,12.97.57c3.32,0,7.13-1,8.24-4.55.36-1.14.38-2.95-.67-3.76-.59-.45-1.36-.36-2.06-.35-1.08.03-2.16.14-3.23.28-4.41.6-8.69,1.93-13.16,2.18s-9.16-.23-13.74-.07c-4.16.14-8.16.97-12.02,2.53s-7.13,3.41-10.56,5.37-7.02,4.03-10.73,5.66c-4.03,1.78-8.25,3.14-12.55,4.11s-8.69,1.51-13.1,1.62c-3.5.09-7.17-.37-10.57.62-2.58.76-5.79,3.04-5.24,6.12.51,2.9,4.06,4.03,6.61,4.17,5.86.3,11.6-3.16,16.53-5.92.71-.4,1.43-.85,2.18-1.16.88-.36.5-1.81-.4-1.45Z"/>
      </g>
      <g>
        <path class="k" d="M75.55,111.12c-5.24,1.09-10.45,8.1-16.93,8.47-.78.04-1.6.04-2.27-.35-.77-.45-1.2-1.32-1.44-2.18-.77-2.77.04-5.93,2.05-7.99,2.23-2.28,5.58-3.09,8.77-3.17s6.37.45,9.56.37c3.08-.08,6.11-.73,9.12-1.38,6.79-1.46,13.58-2.92,20.38-4.39,3.11-.67,6.21-1.34,9.29-2.12,9.87-2.52,19.38-6.23,28.87-9.92,2.82-1.1,5.72-2.25,7.9-4.35,2.05-1.97,3.32-4.64,5.39-6.58,3.9-3.65,10.54-3.86,14.66-.46.9.74,1.71,1.67,2,2.8.42,1.63-.32,3.37-1.41,4.66-3.55,4.2-9.78,4.42-15.24,5.11-9.45,1.2-18.42,4.75-27.47,7.73-17.16,5.66-35.54,10.07-53.23,13.74Z"/>
        <path class="e" d="M75.35,110.4c-6.27,1.42-10.37,8.41-17.12,8.46-1.27,0-2.06-.46-2.5-1.68-.33-.92-.41-1.94-.33-2.91.16-2,1.11-3.89,2.64-5.19,3.27-2.78,7.99-2.55,11.99-2.28,2.32.16,4.63.32,6.95.12s4.47-.63,6.67-1.1c4.69-1,9.37-2.02,14.05-3.02,9.12-1.96,18.22-3.86,27.08-6.81,4.45-1.48,8.85-3.13,13.23-4.82,3.81-1.47,8.03-2.7,11.44-5s4.71-5.97,7.69-8.45c2.74-2.28,6.7-2.86,10.06-1.8,1.72.54,3.67,1.65,4.58,3.26,1.16,2.06-.15,4.28-1.7,5.71-2.68,2.47-6.55,3.11-10.04,3.55-4.06.51-8.06,1.03-12.04,2.02-4.4,1.1-8.7,2.54-12.99,4.01-17.38,5.94-35.07,10.62-53.02,14.51-2.22.48-4.44.95-6.66,1.41-.94.2-.54,1.64.4,1.45,19.41-4.04,38.69-8.75,57.45-15.17,4.66-1.59,9.32-3.22,14.08-4.48,4.44-1.17,8.89-1.74,13.43-2.35,3.54-.47,7.24-1.21,10.05-3.56s4.17-6.32,1.24-9.23c-2.51-2.49-6.28-3.49-9.74-3.05-3.8.48-6.56,2.59-8.79,5.6-1.34,1.81-2.58,3.69-4.44,5.03s-3.87,2.14-5.92,2.95c-4.65,1.82-9.3,3.63-14,5.31-4.71,1.69-9.48,3.24-14.33,4.52s-9.71,2.25-14.58,3.3-10.19,2.19-15.28,3.29c-2.55.55-5.11,1.14-7.71,1.39s-5.11.04-7.67-.13c-4.06-.27-8.55-.25-11.97,2.28-2.95,2.19-4.4,6.14-3.39,9.71.45,1.6,1.45,2.83,3.16,3.06s3.49-.22,5.03-.84c3.33-1.33,6.07-3.7,9.06-5.63,1.34-.87,2.74-1.65,4.31-2,.94-.21.54-1.66-.4-1.45Z"/>
      </g>
      <g>
        <path class="k" d="M85.3,96.64c-4.13.63-8.18,4.26-12.54,5.45-2.18.6-4.74.89-6.5-.53-2.33-1.88-1.78-5.85.37-7.93,2.14-2.09,5.27-2.76,8.23-3.19,9.72-1.43,19.61-1.34,29.41-.57,4.65.37,9.38.89,13.95-.06,10.18-2.11,17.38-10.85,25.5-17.35,6.22-4.98,13.33-8.83,20.91-11.3,1.34-.44,2.73-.84,3.9-1.63,2.24-1.49,3.4-4.09,4.99-6.27,4.12-5.65,11.75-8.49,18.56-6.89.84.2,1.7.47,2.33,1.05.66.6,1.02,1.45,1.32,2.29,1.01,2.72,1.72,5.77.71,8.49-1.01,2.75-3.6,4.64-6.31,5.74-4.3,1.75-9.23,1.89-13.62.38-1.45-.5-2.88-1.18-4.41-1.17-1.37,0-2.67.55-3.92,1.11-11.29,5.04-21.82,11.77-31.14,19.89-3.04,2.65-5.98,5.46-9.46,7.48-6.2,3.6-13.61,4.42-20.78,4.49-7.17.06-14.39-.54-21.48.54Z"/>
        <path class="e" d="M85.1,95.92c-4.58.79-8.12,4.22-12.54,5.45-2.07.58-5.1,1.01-6.48-1.11-1.08-1.66-.57-4.03.56-5.52,1.47-1.93,4-2.74,6.28-3.21,2.72-.56,5.51-.84,8.28-1.07,5.55-.46,11.13-.49,16.69-.24s11.35,1.2,17,.79c4.52-.33,8.73-1.86,12.56-4.25,7.79-4.84,13.75-12.05,21.38-17.12,4.23-2.81,8.77-5.14,13.53-6.9,2.16-.8,4.61-1.27,6.54-2.56,1.78-1.19,2.94-3,4.07-4.77,2.46-3.83,5.8-6.69,10.23-7.99,2.11-.62,4.32-.86,6.51-.67,1.02.09,2.09.25,3.05.6,1.49.54,1.98,1.78,2.46,3.18.87,2.52,1.49,5.44.28,7.97-.95,2-2.8,3.41-4.75,4.35-4.87,2.37-10.26,2.12-15.24.32-2.36-.85-4.36-.95-6.71,0s-4.44,2-6.6,3.1c-4.59,2.33-9.04,4.95-13.31,7.83s-8,5.74-11.74,8.94c-3.99,3.43-7.76,7.16-12.65,9.3-9.86,4.33-21,2.7-31.43,2.94-2.67.06-5.33.26-7.97.65-.95.14-.55,1.59.4,1.45,11.38-1.67,23.06.86,34.33-1.9,5.2-1.27,9.61-3.81,13.67-7.25s8.36-7.29,12.89-10.55,8.92-6,13.64-8.56c2.39-1.3,4.83-2.52,7.3-3.65,1.35-.62,2.78-1.39,4.29-1.53,1.42-.13,2.77.44,4.08.91,4.85,1.76,10.28,1.71,15.04-.35,4.18-1.81,7.29-5.32,6.88-10.1-.19-2.24-.82-5.1-2.2-6.93-1.26-1.67-3.58-2.01-5.53-2.2-4.38-.43-8.94.81-12.56,3.3-1.78,1.22-3.33,2.73-4.58,4.48-1.43,1.99-2.51,4.44-4.61,5.84s-5,1.93-7.4,2.88-4.92,2.1-7.27,3.36c-4.55,2.44-8.76,5.43-12.67,8.79-3.65,3.14-7.11,6.52-10.97,9.4s-8.26,5.29-13.14,6.01c-5.87.86-11.94-.25-17.83-.55s-12.12-.29-18.16.24c-2.73.24-5.5.52-8.19,1.08-2.21.46-4.42,1.23-6.14,2.75-2.66,2.36-3.56,7.4-.2,9.6,3.91,2.55,9.29-.42,12.78-2.33,2.08-1.14,4.17-2.32,6.54-2.73.95-.16.55-1.61-.4-1.45Z"/>
      </g>
      <g>
        <path class="k" d="M90.54,74.56c2.95.92,5.74,1.98,8.44,3.48.81.45,1.59.96,2.43,1.34,1.08.49,2.25.77,3.44.81.2,0,.4,0,.58-.08.6-.3.37-1.22-.02-1.76-1.06-1.49-2.66-2.54-4.37-3.21-1.39-.54-2.86-.84-4.21-1.46-1.35-.61-2.63-1.63-3.08-3.04-.53-1.7.23-3.53.13-5.31-.09-1.6-.93-3.14-2.22-4.08-.82-.6-1.78-.95-2.74-1.28-2.05-.71-4.17-1.32-6.34-1.28-2.1.04-4.19.71-5.92,1.91-2.26,1.57-3.89,4.11-4.05,6.86-.16,2.74,1.3,5.6,3.77,6.8,2.15,1.05,4.68.79,7.04.43s4.82-.82,7.1-.11Z"/>
        <path class="e" d="M90.34,75.28c1.83.57,3.64,1.2,5.39,1.98s3.24,1.74,4.89,2.56c1.34.67,6.39,2.46,5.89-.75-.4-2.59-3.92-4.23-6.1-4.96-1.53-.51-3.17-.85-4.49-1.83-1.98-1.47-1.54-3.47-1.33-5.62.29-2.87-1.03-5.46-3.66-6.72-2.91-1.39-6.56-2.37-9.79-1.89-5.55.81-10.65,6.23-8.95,12.08.87,3,3.31,5.1,6.4,5.51,3.94.52,7.85-1.45,11.75-.36.93.26,1.33-1.19.4-1.45-2.64-.74-5.27-.21-7.92.17s-5.86.48-7.85-1.8c-3.96-4.54-.04-10.84,4.92-12.35,2.98-.91,5.98-.16,8.84.83,1.36.47,2.71,1.04,3.56,2.26.94,1.36.91,2.85.71,4.42-.31,2.37-.13,4.42,1.86,5.99,2.12,1.67,4.92,1.82,7.23,3.1.63.35,1.23.76,1.76,1.25.26.25.51.51.73.79.13.15.25.31.34.48.09.46-.08.61-.51.43-1.55.21-3.38-1.07-4.65-1.79-2.85-1.62-5.91-2.8-9.03-3.78-.92-.29-1.32,1.16-.4,1.45Z"/>
      </g>
      <g>
        <path class="k" d="M120.15,80.65c-1.95,0-4.29.7-6.21.4-1.03-.16-2.15-.43-2.77-1.28-.72-.99-.46-2.44.28-3.41.74-.97,1.86-1.58,2.95-2.14,6.79-3.52,13.78-6.65,20.46-10.37,3.45-1.92,6.85-4.02,9.64-6.82.71-.71,1.38-1.48,1.78-2.4.36-.83.47-1.74.54-2.65.19-2.64.01-5.29.25-7.93.24-2.63.97-5.33,2.71-7.31,1.69-1.93,4.2-3,6.74-3.33,2.54-.32,5.12.05,7.61.65,1.22.3,2.47.66,3.47,1.43,1.26.97,2,2.48,2.36,4.03.66,2.85-.02,6.14-2.26,8.02-2.05,1.72-4.92,1.96-7.49,2.7-3.53,1.02-6.73,3.12-9.06,5.96-1.02,1.24-1.89,2.63-3.1,3.7-1.31,1.16-2.95,1.87-4.5,2.7-6.28,3.38-11.11,8.84-16.14,13.9-2.02,2.03-4.39,4.14-7.26,4.15Z"/>
        <path class="e" d="M120.15,79.9c-2.39.06-5.08,1.05-7.39.11-1.78-.72-1.41-2.6-.24-3.71,1.03-.98,2.49-1.56,3.74-2.19,5.11-2.6,10.31-5.02,15.4-7.68,4.71-2.46,9.59-5.05,13.37-8.86,1.88-1.91,2.47-3.87,2.59-6.5.13-2.79-.09-5.61.38-8.38.43-2.52,1.46-5,3.57-6.57s4.76-2.12,7.34-2.05c1.54.04,3.06.29,4.56.63,1.36.31,2.83.65,3.91,1.6,1.88,1.66,2.41,4.69,1.9,7.06-1.18,5.51-7.1,5.14-11.3,6.9-2.18.91-4.18,2.21-5.89,3.84s-2.92,3.94-4.81,5.47c-2.2,1.79-5.03,2.77-7.37,4.4s-4.37,3.4-6.37,5.31-4.05,4.05-6.06,6.09-4.27,4.43-7.33,4.54c-.96.03-.97,1.53,0,1.5,2.63-.09,4.77-1.53,6.65-3.27,2.07-1.91,3.96-4.01,5.96-6,2.12-2.12,4.31-4.19,6.7-6s4.86-2.93,7.32-4.41,3.69-3.71,5.54-5.73,4.31-3.7,6.96-4.66c2.36-.85,4.92-1.05,7.2-2.14s3.72-3.06,4.24-5.45.18-4.79-.96-6.83c-1.4-2.49-3.97-3.29-6.61-3.83-5.09-1.05-11.21-.69-14.52,3.9-1.57,2.18-2.16,4.9-2.36,7.54-.11,1.47-.1,2.95-.11,4.43-.02,1.64.09,3.49-.45,5.06s-1.86,2.66-3.03,3.69c-1.27,1.12-2.64,2.11-4.05,3.03-2.55,1.66-5.24,3.1-7.94,4.51-3.25,1.69-6.55,3.29-9.84,4.9-1.57.77-3.15,1.55-4.71,2.34-1.47.74-3.09,1.42-4.37,2.48-1.86,1.54-2.67,4.69-.22,6.12,2.62,1.53,5.81.37,8.6.3.96-.02.97-1.52,0-1.5Z"/>
      </g>
      <g>
        <path class="k" d="M121.38,45.82c-2.31-.49-4.5-1.53-6.36-3-.31-.24-.61-.5-.82-.83-.44-.66-.47-1.51-.49-2.31-.02-1.01-.04-2.01-.06-3.02-.01-.61-.02-1.25.18-1.82.23-.64.7-1.17,1.23-1.59,2.65-2.16,6.47-2.06,9.83-1.42.81.15,1.63.34,2.32.77.63.39,1.13.96,1.54,1.58,1.62,2.48,1.71,5.92.11,8.42-1.6,2.5-4.84,3.86-7.72,3.14"/>
        <path class="e" d="M121.58,45.09c-1.55-.35-3.03-.9-4.4-1.71-.63-.37-1.25-.77-1.81-1.24-.68-.58-.86-1.22-.9-2.1-.03-.82-.04-1.65-.06-2.47-.02-.89-.18-1.94.25-2.76.63-1.2,2.18-1.92,3.43-2.27,1.37-.38,2.81-.42,4.22-.31s3.17.24,4.42.95c2.56,1.47,3.05,5.46,2.04,7.97-1.15,2.86-4.43,4.56-7.43,3.86-.94-.22-1.34,1.23-.4,1.45,3.25.76,6.76-.67,8.57-3.48,1.91-2.98,1.61-7.21-.66-9.92-1.25-1.49-3.07-1.87-4.91-2.14s-3.57-.34-5.34-.02c-1.61.29-3.21.98-4.4,2.12-1.56,1.5-1.29,3.47-1.25,5.46.02,1.08-.06,2.27.32,3.3.36.96,1.18,1.57,1.99,2.15,1.77,1.27,3.81,2.14,5.93,2.62.94.21,1.34-1.24.4-1.45h0Z"/>
      </g>
      <g>
        <path class="k" d="M195.72,80.96c-1.39,1.11-5.81.23-8.19-1.24-.34-.21-.68-.45-.91-.78-.26-.38-.36-.84-.43-1.29-.12-.79-.15-1.61.08-2.37.41-1.41,1.65-2.45,3.01-2.99s2.85-.66,4.31-.76c1.32-.09,2.75-.15,3.87.56.91.58,1.48,1.58,1.79,2.62.14.47.28.97.17,1.45-.18.84-.41,1.94-1.02,2.6-.78.84-1.66,1.39-2.68,2.21Z"/>
        <path class="e" d="M195.34,80.31c-.54.4-1.25.41-1.89.4-.95-.03-1.88-.21-2.79-.47s-1.8-.6-2.62-1.08c-.48-.28-.86-.57-1.02-1.12-.18-.61-.22-1.32-.15-1.95.27-2.5,3-3.42,5.13-3.67,1.17-.14,2.42-.28,3.6-.15s2.04.73,2.58,1.78c.3.57.6,1.34.5,1.99-.08.54-.24,1.14-.47,1.64-.56,1.2-2.02,1.96-3.02,2.75-.76.6.31,1.65,1.06,1.06,1.16-.92,2.65-1.75,3.29-3.14.6-1.3.83-2.67.37-4.04s-1.28-2.58-2.62-3.15-2.87-.45-4.31-.34c-2.79.22-6.08.93-7.27,3.81-.53,1.28-.53,3.09.07,4.35.55,1.15,1.88,1.73,3,2.19,1.3.53,2.69.88,4.09,1,1.05.09,2.34.09,3.23-.57.77-.57.02-1.87-.76-1.3Z"/>
      </g>
      <g>
        <path class="h" d="M110.51,269.16c-4.04-.4-7.9-2.06-11.29-4.29-1.55-1.01-3.05-2.25-3.78-3.95-1.05-2.43-.25-5.39,1.54-7.35,1.79-1.95,4.39-3,7.01-3.39,3.39-.51,6.85-.04,10.24.43,10.71,1.49,21.6,3.03,31.42,7.56,2.05.95,4.12,2.08,5.42,3.92,1.19,1.67,1.63,3.85,1.19,5.86-.44,2-1.77,3.79-3.55,4.81-1.23.7-2.62,1.03-4.02,1.24-5.69.88-11.5-.05-17.11-1.33-5.61-1.28-11.34-2.93-17.07-3.51Z"/>
        <path class="g" d="M110.51,268.41c-4.11-.46-8.04-2.17-11.41-4.52-1.7-1.19-3.24-2.78-3.37-4.96-.12-1.9.72-3.78,2.05-5.11,3.04-3.04,7.77-3.32,11.81-3,4.36.34,8.73,1.09,13.05,1.78,8.16,1.31,16.7,3.02,24.07,6.92,1.7.9,3.35,2.06,4.24,3.82.96,1.9.96,4.2-.04,6.08-2.07,3.89-7.08,4.17-10.99,4.17-10.04-.02-19.5-4.14-29.42-5.18-.96-.1-.95,1.4,0,1.5,10.3,1.08,20.14,5.51,30.61,5.16,4.06-.13,8.63-.78,10.91-4.58,2.14-3.57,1.09-8.07-2.06-10.65-1.66-1.36-3.65-2.24-5.61-3.07-2.15-.92-4.36-1.71-6.6-2.39-4.66-1.42-9.46-2.39-14.27-3.17s-9.75-1.68-14.63-1.96c-4.28-.25-9.16.37-12.27,3.64s-3.08,8.17.35,11.19c3.68,3.23,8.75,5.29,13.58,5.83.96.11.95-1.39,0-1.5Z"/>
      </g>
      <g>
        <path class="l" d="M101.47,263.87c-1.21-1-1.72-2.51-2.31-3.96s-.72-3.19.06-4.56c.16-.28.37-.55.67-.66.25-.09.53-.06.79,0,2.17.45,4.01,2.21,4.56,4.36.19.73.24,1.53.66,2.16s1.39.99,1.93.46c.41-.4.35-1.07.23-1.63-.24-1.11-.63-2.18-1.15-3.19-.33-.64-.63-1.62.02-1.94.18-.09.4-.09.6-.09,1.28.04,2.71.36,3.41,1.45.69,1.08.39,2.5.61,3.77.1.58.45,1.24,1.03,1.24.43,0,.76-.35,1.01-.7.71-.99,1.15-2.16,1.28-3.37.05-.44.06-.89.22-1.3s.54-.77.98-.76c.37.01.68.27.91.57.74.96.85,2.26.74,3.46s-.4,2.4-.33,3.6c.03.54.21,1.17.73,1.32.23.06.47.02.69-.07,1.28-.47,1.94-1.93,2.01-3.3s-.29-2.71-.41-4.06c-.05-.52-.02-1.13.4-1.44.25-.19.59-.21.9-.16,1.57.26,2.26,2.13,2.4,3.71.02.27.05.56.25.75.16.15.39.2.61.23,1.49.18,3.05-.39,4.07-1.49.23-.24.44-.52.76-.63.76-.27,1.46.57,1.65,1.35.45,1.87-.45,3.82-.24,5.74.06.58.25,1.18.72,1.53.81.62,2.06.13,2.63-.71s.69-1.9.89-2.89c.19-.96.48-1.9.86-2.8.35-.84.9-1.74,1.79-1.93.98-.21,1.97.6,2.26,1.57s.05,2.01-.29,2.96-.78,1.87-.91,2.87c-.02.19-.03.39.06.55.1.18.31.28.51.33.97.25,1.96-.4,2.56-1.2s.95-1.77,1.53-2.58c.19-.26.41-.51.71-.63.3-.12.63-.08.94,0,1.7.41,2.98,2.04,3.16,3.79s-.63,3.51-1.95,4.67c-1.31,1.16-3.07,1.75-4.82,1.85-1.58.09-3.34-.31-4.23-1.62-.35-.52-.66-1.22-1.28-1.26-.63-.04-1.03.63-1.44,1.12-1.2,1.43-3.53,1.54-5.12.54-1.58-1-2.46-2.86-2.71-4.71-.11-.78-.26-1.76-1.02-1.96-.66-.18-1.3.45-1.48,1.11s-.06,1.37-.13,2.05-.41,1.43-1.07,1.6c-.9.23-1.65-.73-1.92-1.62-.12-.4-.24-.86-.62-1.05-.68-.35-1.32.49-1.88,1.01-1.1,1.02-3.08.83-3.96-.37-.47-.64-.75-1.56-1.53-1.73-1.01-.22-1.98,1.1-2.91.67-.89-.41-.89-2.12-1.87-2.1-.31,0-.58.21-.84.39-1.88,1.3-4.62,1.18-6.39-.28Z"/>
        <path class="g" d="M102,263.34c-1.24-1.12-2.04-2.96-2.42-4.57-.2-.81-.32-2.03.17-2.78.71-1.09,2.22-.13,2.97.48,1.45,1.18,1.6,2.59,2.14,4.25.35,1.08,1.29,2.07,2.52,1.92,1.33-.16,1.62-1.52,1.43-2.64-.14-.82-.41-1.63-.73-2.4-.18-.44-1.07-1.71-.55-2.05.48-.31,2.08.39,2.43.71.79.7.7,1.82.75,2.79.05,1.09.24,2.62,1.54,2.91s2.13-1.07,2.61-2.06c.32-.67.56-1.38.69-2.11.05-.27,0-1.11.16-1.28l.43-.05c.33-.18.51-.1.55.22.19.22.23.68.27.96.22,1.52-1.64,8.3,2.06,7.1,3.12-1.01,2.56-4.92,2.23-7.38-.07-.54-.32-1.75.75-1.42.36.11.63.54.8.85.4.71.45,1.46.6,2.24.25,1.3,1.28,1.57,2.5,1.47.66-.05,1.3-.21,1.91-.49.7-.31,1.14-.84,1.76-1.23.34-.22.02-.29.59-.17.41.09.45.16.56.56.16.56.11,1.2.05,1.77-.09.96-.32,1.92-.35,2.88-.04,1.21.21,2.71,1.46,3.26,1.03.45,2.26.01,3.01-.78,1.07-1.14,1.09-2.85,1.47-4.28.21-.82.47-1.7.9-2.43.74-1.27,2.15-1.08,2.43.41.34,1.86-1.2,3.49-1.27,5.31-.05,1.27,1.06,1.87,2.24,1.64,1.51-.3,2.38-1.6,3.06-2.86.49-.9.94-1.92,2.12-1.38.85.39,1.52,1.16,1.84,2.04,1.48,4-3.24,6.83-6.66,6.59-.78-.06-1.6-.25-2.23-.75-.59-.46-.81-1.19-1.37-1.68-1.05-.91-2.07-.24-2.83.63-1.1,1.27-2.77,1.62-4.27.76s-2.23-2.66-2.51-4.35c-.17-1.02-.45-2.27-1.64-2.5-1.32-.26-2.24.99-2.39,2.15-.1.77.28,2.02-.6,2.28-.51.15-.5.17-.76-.27-.12-.19-.18-.42-.26-.63-.12-.31-.2-.62-.41-.89-.75-.98-1.87-.64-2.66.07-.69.61-1.26,1.21-2.28,1.02-.91-.17-1.24-.85-1.71-1.55-.65-.98-1.54-1.44-2.7-1.03-.68.24-1.27.86-1.84.15-.33-.41-.41-.96-.83-1.33-1.09-.96-2.07.13-3.11.54-1.63.66-3.4.31-4.77-.74-.77-.59-1.51.72-.76,1.3,1.26.97,2.84,1.41,4.43,1.24.73-.07,1.44-.27,2.1-.6.23-.11.65-.52.88-.54.42-.04.45.29.64.65.6,1.15,1.49,1.71,2.77,1.2.32-.13.64-.39.97-.45.54-.09.78.23,1.08.63.44.59.71,1.16,1.38,1.55,1.14.68,2.66.67,3.77-.06.29-.19.52-.45.77-.68.39-.37.5-.55.82-.08.46.69.49,1.38,1.23,1.92,1.04.76,2.34.4,2.94-.71.31-.57.35-1.22.36-1.86,0-.21-.01-.41,0-.62,0-.15.33-1.31.81-1.04.25.14.28,1.05.32,1.28.5,3.02,2.58,6.07,5.97,5.92.62-.03,1.24-.17,1.8-.44.78-.37,1.07-1.05,1.73-1.49.44-.3.6-.15.96.24.23.24.37.56.61.81.51.53,1.17.9,1.87,1.14,2.99.99,6.83-.18,8.75-2.66s1.84-6.14-.8-8.07c-1.04-.76-2.58-1.26-3.63-.28-.63.58-.99,1.45-1.4,2.19-.23.42-.48.85-.83,1.18-.31.29-.59.51-1.03.52-.57,0-.45,0-.34-.53.39-1.82,1.58-3.44,1.12-5.39-.31-1.3-1.47-2.44-2.86-2.34-1.48.1-2.26,1.47-2.76,2.69-.34.84-.6,1.71-.78,2.6-.2.97-.26,2.25-1.06,2.95-.46.4-1.13.56-1.53-.04-.26-.39-.22-1.07-.21-1.52.03-1.12.33-2.21.38-3.32.06-1.33-.28-3.28-1.84-3.62-.55-.12-1.05.03-1.49.37-.86.68-1.4,1.39-2.54,1.66-.41.09-1.28.3-1.58-.15-.1-.15-.08-.65-.11-.84-.14-.75-.4-1.52-.82-2.15-.65-.97-1.92-1.81-3.13-1.37-1.5.55-1.15,2.37-.97,3.59.15,1.05.38,2.15.18,3.22-.12.67-1.39,3.17-1.88,1.34-.23-.87.19-2.05.29-2.93.11-.95.13-1.93-.12-2.86-.33-1.19-1.37-2.81-2.83-2.24-1.58.62-1.22,2.76-1.68,4.06-.12.35-.44,1.25-.78,1.5-.69.51-.75-.27-.8-.83-.07-.84,0-1.69-.25-2.51-.43-1.47-1.73-2.28-3.17-2.55-1.11-.21-2.7-.32-2.97,1.1-.11.57.09,1.16.32,1.68.41.95.86,1.84,1.1,2.85.02.1.23.77.16.91l-.38.1c-.3.21-.48.14-.55-.2-.3-.38-.32-.96-.42-1.41-.17-.76-.43-1.48-.84-2.15-.77-1.25-1.96-2.26-3.32-2.8-1.48-.58-2.76-.49-3.49,1.05s-.53,3.27.04,4.79,1.24,3.15,2.5,4.29c.71.65,1.78-.41,1.06-1.06Z"/>
      </g>
      <g>
        <path class="p" d="M178.36,268.15c-1.21-.22-.83,0-2.02-.66s-2.05-2.1-1.63-3.4c.21-.66.71-1.19,1.27-1.6,1.66-1.21,3.85-1.48,5.88-1.18,1.2.18,2.5.65,3.05,1.73.25.5.32,1.07.29,1.63-.04.75-.25,1.53-.76,2.09-.56.61-1.39.88-2.2,1.05-.96.21-1.95.31-2.94.3l-.94.03Z"/>
        <path class="f" d="M178.56,267.43c-.54-.09-.99-.13-1.4-.34-.71-.38-1.36-.81-1.67-1.6-.7-1.79,1.5-2.93,2.91-3.3,1.53-.4,3.56-.41,4.98.38.79.44,1.1,1.13,1.07,2.02s-.33,1.65-1.1,2.07c-1.47.81-3.36.68-4.99.74-.96.03-.97,1.53,0,1.5,1.92-.06,4.11.02,5.82-.98,2.01-1.18,2.47-4.53.7-6.12-1.63-1.46-4.34-1.55-6.38-1.17s-4.76,1.85-4.65,4.27c.06,1.24.79,2.34,1.79,3.04.41.29.91.57,1.38.73.36.12.77.14,1.14.2.94.16,1.35-1.28.4-1.45Z"/>
      </g>
      <g>
        <path class="p" d="M260.18,234.54c-1.57-.18-3.19-.89-3.81-2.34-.53-1.23-.25-2.71.53-3.8s2-1.81,3.28-2.18,2.64-.42,3.98-.38c1.25.04,2.54.17,3.66.71s2.09,1.58,2.25,2.82c.15,1.19-.46,2.38-1.35,3.17s-2.05,1.23-3.2,1.53c-1.96.51-3.31.69-5.33.47Z"/>
        <path class="f" d="M260.18,233.79c-1.91-.24-3.74-1.51-3.26-3.66s2.81-3.23,4.85-3.47c1.13-.13,2.31-.11,3.44,0,1.05.1,2.15.35,2.99,1.02.77.61,1.29,1.54,1.08,2.54s-.98,1.82-1.86,2.33c-2.11,1.21-4.87,1.5-7.25,1.25-.96-.1-.95,1.4,0,1.5,1.46.15,2.89.09,4.32-.21s2.87-.67,4.06-1.49c2.2-1.49,3.09-4.37,1.21-6.5s-5.48-2.24-8.13-1.92-5.43,1.69-6.14,4.46c-.36,1.4-.08,2.9.91,3.98s2.39,1.5,3.77,1.68c.96.12.95-1.38,0-1.5Z"/>
      </g>
      <g>
        <path class="i" d="M131.15,210.08c-7.92-1.41-15.75-6.94-19.81-13.89-1.28-2.19-2.25-4.62-2.39-7.15-.31-5.6,3.41-10.61,7.46-14.48,13.44-12.83,31.85-18.8,49.69-24.02,4.26-1.24,8.57-2.48,13-2.67,3.62-.16,7.22.38,10.83.61,7.34.46,15.01-.32,21.78,2.57,4.4,1.88,8.04,5.17,11.47,8.51,2.97,2.89,5.97,6.03,7.09,10.02,1.28,4.56-.17,9.55-2.89,13.43-2.72,3.87-6.58,6.79-10.53,9.4-24.94,16.46-56.29,22.93-85.7,17.68Z"/>
        <path class="n" d="M131.35,209.36c-8.57-1.6-16.95-7.63-20.47-15.72-4.22-9.68,4.49-17.87,11.55-23.22s15.72-9.59,24.3-12.82c4.35-1.64,8.78-3.08,13.22-4.45,4.68-1.43,9.38-2.98,14.19-3.92,5.47-1.07,10.75-.29,16.24.02,5.01.28,10.08,0,15.05.81s9.18,2.95,13,6.16c3.53,2.96,7.38,6.35,9.73,10.36,2.51,4.26,2.24,9.26.04,13.6s-5.82,7.46-9.65,10.16c-7.73,5.44-16.26,9.81-25.1,13.13-17.47,6.56-36.47,9-55.02,6.92-2.37-.27-4.73-.62-7.09-1.03-.94-.17-1.35,1.28-.4,1.45,19.56,3.45,39.9,1.88,58.74-4.41,9.37-3.13,18.37-7.4,26.66-12.77,7.64-4.94,16.4-12.26,15.01-22.47-.64-4.68-3.81-8.35-7.05-11.55-3.52-3.47-7.27-6.98-11.83-9.04s-9.75-2.47-14.76-2.6c-2.59-.07-5.19-.08-7.78-.24-2.95-.19-5.9-.58-8.86-.63-5.56-.09-10.88,1.46-16.16,3.01-4.72,1.39-9.43,2.82-14.08,4.43-9.14,3.16-18.15,6.99-26.18,12.45-3.97,2.7-7.84,5.77-11.02,9.38-2.92,3.3-5.39,7.36-5.44,11.89s2.56,9.08,5.54,12.51,6.82,6.26,11.01,8.1c2,.88,4.07,1.54,6.22,1.94.94.18,1.35-1.27.4-1.45Z"/>
      </g>
      <path d="M143.09,183.69c1.58,2.79,4.01,5.04,6.93,6.37,2.67,1.21,6.08,1.92,8.9.8,1.44-.58,2.41-1.6,3.07-2.99.75-1.57,1.43-3,2.7-4.23,2.87-2.79,6.91-3.84,10.8-4.08,3.52-.22,8.98-.59,10.05,3.81.45,1.83-.33,3.8-1.87,4.88-1.7,1.2-3.89.98-5.72.23-3.5-1.44-5.86-4.73-8.95-6.82s-6.38-3.28-9.89-3.68c-3.02-.35-6.35.04-8.83,1.92-2.7,2.03-3.63,5.34-4.11,8.54-.19,1.25-.29,2.54,1.09,3.08.7.28,1.51.23,2.25.24,1.1.02,2.2.02,3.31,0,3.1-.07,6.77,0,9.48-1.75,3.02-1.94,2.64-5.06,2.49-8.21-.2-4.15,3.05-6.47,6.31-8.37,2.98-1.74,7.6-3.12,10.25,0,1.15,1.36,1.73,3.87,1.43,5.62-.38,2.27-3.4,1.84-5.07,1.47s-3.43-1.17-4.83-2.29c-1.31-1.05-3.57-3.2-2.2-4.96,1.13-1.45,3.35-2.31,5.05-2.81,1.81-.53,3.68-.75,5.56-.79,2.04-.04,4.26-.01,6.12.89,1.69.82,3.31,2.95,2.11,4.82-1.48,2.32-3.89.1-5.38-1-1.66-1.23-3.42-2.5-4.86-3.99-1.71-1.77-.95-3.98-.17-6,.15-.38-.16-.82-.52-.92-2.78-.76-5.75-.7-8.47.26-2.02.71-5.01,2.11-5.21,4.58-.08.98.3,2.01,1.17,2.54,1.17.71,2.65.18,3.85-.14,3.23-.88,6.52-1.85,9.58-3.2,1.42-.62,2.64-1.43,3.74-2.52s2.13-2.39,3.46-3.28c2.55-1.7,5.92-2.08,8.91-1.86,1.63.12,3.31.64,3.96,2.29.48,1.21.31,2.66-.33,3.78-1.63,2.84-5.53,3.03-8.31,2.17-1.83-.56-3.6-1.55-5.17-2.65-.75-.53-1.39-1.1-1.85-1.91-.37-.64-.63-1.33-1.16-1.86-2.2-2.22-5.33-.55-7.24,1.12-.32.28-.25.77,0,1.06,1.06,1.21,2.7,1.37,4.21,1.53,2.07.22,4.16.16,6.22-.14,4.12-.61,8.31-2.71,12.53-1.66,3.96.99,5.58,5.06,6.25,8.72.35,1.91.32,4.11-1.11,5.6-1.29,1.35-3.32,1.81-5.12,1.92s-5.04-.33-5.08-2.83c-.03-1.93,2.27-3.09,3.78-3.72,1.8-.75,3.9-1.27,5.83-.71s3.18,2.1,3.63,3.95c.92,3.77-2.07,7.23-5.61,8.06-2,.47-4.14.25-6.04-.49-.91-.35-2.04-.88-2.37-1.88-.48-1.44.95-1.84,2.07-2.03.93-.16,1.97-.3,2.88.04,1.12.42,1.52,1.51,1.57,2.63.08,1.86-.67,3.78-1.86,5.19-2.58,3.07-6.72,3.24-10.43,3.01-3.51-.21-7.15-.76-10.57.37-1.21.4-3.03,1.1-3.58,2.36-.72,1.64,1.22,2.13,2.4,2.37,4.02.79,8.13.26,12.11-.51,3.16-.6,6.75-1.09,9.37-3.11,1.2-.93,1.94-2.1,2.49-3.5.32-.82.59-1.75,1.22-2.4.77-.81,1.95-.92,3-.89,1.37.04,4.71.68,3.18,2.7-1.13,1.5-3.4,2.49-5.12,3.11-1.92.69-3.99,1.12-6.04,1.18-2.31.08-4.4-.51-6.5-1.44-3.58-1.59-7.19-3.39-11.13-3.93-1.79-.24-2.97.67-4.16,1.88s-2.36,2.6-3,4.21c-1.23,3.11.53,6.03,3.58,7.05,1.85.62,3.85.46,5.75.29l-.53-1.28c-2.41,1.92-5.85,2.36-8.81,2.81s-6.27.65-9.09-.63c-2.96-1.36-5.06-4.6-2.53-7.45,1.14-1.29,2.79-2.02,4.35-2.65.96-.39,2.85-1.24,3.73-.33.81.84-.24,3.51-.69,4.42-.87,1.72-2.41,2.05-4.12,1.23-2.67-1.28-4.94-3.33-7.92-3.93s-5.9.34-8.48,1.75c-1.72.94-4.85,2.81-3.58,5.24.63,1.21,2.1,1.75,3.32,2.16,1.45.49,2.98.76,4.51.83,3.22.14,6.41-.69,9.17-2.32l-1.1-.85c-1.69,4.52-8.85,4.04-12.61,3.63-2.63-.29-5.29-.87-7.75-1.87-1.11-.45-2.19-1.02-3.14-1.74s-2.38-1.88-2.34-3.17c.09-2.47,4.83-2.36,6.46-2.25,1.31.09,2.6.36,3.85.79,1.11.38,3.02,1.03,3.3,2.37.36,1.73-2.12,1.24-3.12,1.16-1.55-.13-3.12-.35-4.57-.96-2.65-1.12-3.89-3.2-3.87-6.03,0-2.04.25-4.19-.81-6.05-.9-1.58-2.7-2.43-4.49-2.01s-3.13,2.17-3.07,4.06c.05,1.77,1.3,3.13,2.85,3.83,3.4,1.53,8.6,1.19,11.62-1.04,3.59-2.64,3.83-8.11,2.77-12.09-.55-2.09-2.01-4.17-4.28-4.54s-4.68,1.18-6.01,2.87-1.35,3.83.5,5.09c2.13,1.44,5.18,1.75,7.67,1.58.35-.02.61-.22.72-.55.53-1.49.59-3.05.92-4.59.39-1.87,1.32-3.05,3.11-3.78s4.02-1.37,5.95-.81c1.76.51,3.25,2.23,2.66,4.12l.72-.55c-3.3.09-5.11-3-6.55-5.5-.54-.93-1.08-2.17-2.08-2.7s-2.2-.17-3.11.43c-2.92,1.95-8.05,9.03-2.32,10.79,2.32.71,5.39-.07,7.69-.63s4.75-1.49,6.77-2.9,3.44-3.18,4.56-5.31c1.24-2.37,2.24-5.08,4.64-6.52,1.21-.72,2.68-1.07,4.08-.95,1.93.16,2.46,1.43,2.52,3.17.05,1.56,0,3.55-1.44,4.51-1.73,1.15-3.14-.85-3.98-2.14-1.44-2.2-2.39-4.93-4.36-6.74s-3.93-1.01-5.97.04c-1.82.94-3.65,2.39-3.93,4.56-.34,2.63,1.68,4.62,3.37,6.32.95.96,1.93,2,2.24,3.36s-.12,2.72-.87,3.81c-1.62,2.38-4.61,3.02-7.29,2.36-5.19-1.27-8.74-7.86-14.64-5.01-1.27.61-2.38,1.54-3.38,2.52s-2.11,2.04-2.84,3.25c-1.14,1.9-.72,4.93,1.94,5.06.96.05.96-1.45,0-1.5s-1.24-1.16-1.05-1.92c.18-.7.67-1.3,1.13-1.84.8-.94,1.67-1.85,2.6-2.67,2.09-1.84,4.57-2.8,7.2-1.49,2.19,1.09,3.88,2.96,6.05,4.07,2.04,1.04,4.39,1.54,6.67,1.13,3.92-.71,7.22-4.89,5.69-8.89-.96-2.51-3.51-3.8-4.79-6.08-1.55-2.78.6-4.73,2.96-5.89,1.3-.63,2.62-1.21,3.84-.12,1.02.91,1.71,2.22,2.38,3.41,1.11,1.99,2.24,4.63,4.3,5.83,1.83,1.07,4,.03,4.95-1.72s1.1-4.86.26-6.78c-.89-2.03-3.34-2.32-5.3-2.04-2.28.33-4.26,1.57-5.64,3.4-1.49,1.97-2.25,4.37-3.61,6.41s-3.37,3.51-5.58,4.53c-2.53,1.17-5.37,1.77-8.13,2.04-1.42.14-4.1.2-4.2-1.83-.08-1.51,1.45-3.42,2.37-4.5s2.78-3.33,4.12-1.57c.92,1.2,1.5,2.66,2.37,3.9,1.5,2.13,3.63,3.9,6.36,3.82.34,0,.62-.23.72-.55.59-1.9-.27-3.83-1.8-5.02-1.98-1.53-4.65-1.35-6.93-.72-2.11.59-4.29,1.48-5.29,3.57s-.76,4.34-1.51,6.43l.72-.55c-1.26.08-2.51.04-3.74-.22-1.12-.23-2.75-.55-3.53-1.48-1.84-2.18,2.85-5.04,4.66-4.9,2.95.23,3.55,3.99,3.68,6.28s-.03,5.04-1.69,6.89c-1.52,1.69-3.89,2.26-6.08,2.37-1.91.09-4.27.02-5.84-1.22-2.29-1.8-.32-5.61,2.47-4.37,2.28,1.01,1.88,4.22,1.85,6.23-.03,2.14.37,4.12,1.9,5.7s3.5,2.32,5.54,2.69c1.2.22,2.42.32,3.64.4.89.06,1.82.1,2.57-.47,1.35-1.03,1.08-3.04.01-4.17-1.42-1.49-3.88-2.19-5.83-2.54-2.16-.39-4.54-.45-6.67.16-1.49.42-3.12,1.42-3.24,3.13-.14,1.94,1.61,3.58,3.03,4.63,4.12,3.07,9.98,4.01,15,4.06,4,.04,9.18-.62,10.79-4.92.24-.63-.57-1.16-1.1-.85-3.06,1.81-6.69,2.53-10.21,1.93-1.34-.23-3.56-.61-4.49-1.7-1.37-1.61,2.32-3.32,3.38-3.86,1.62-.82,3.41-1.43,5.24-1.43,1.98,0,3.77.82,5.45,1.79,2.37,1.37,5.61,4.16,8.36,2.11.85-.63,1.38-1.57,1.76-2.53.48-1.23,1.06-2.95.75-4.27-.68-2.93-4.34-1.86-6.23-1.07-2.64,1.1-5.55,2.74-6.15,5.8s1.59,5.45,4.03,6.7c3.01,1.55,6.51,1.51,9.79,1.07,3.53-.47,7.41-1.02,10.27-3.3.5-.4.09-1.34-.53-1.28-2.35.21-5.15.49-7.07-1.2-2.18-1.93-.89-4.68.66-6.54.66-.79,1.41-1.7,2.26-2.29,1.19-.82,2.62-.29,3.91.05,2.43.64,4.74,1.54,7.01,2.61,2.04.96,4.08,1.9,6.34,2.2s4.59.01,6.78-.53c2.07-.51,4.09-1.33,5.87-2.51,1.33-.89,3.04-2.19,2.72-4.01-.56-3.17-6.05-3.44-8.24-2.19-1.68.96-1.99,2.82-2.78,4.42-.9,1.84-2.68,2.86-4.55,3.5-2.01.68-4.13,1.05-6.21,1.44-2.57.49-5.17.86-7.8.8-1.26-.03-2.51-.16-3.74-.44-.61-.14-1.12-.24-.41-.74.52-.36,1.1-.65,1.69-.87,2.01-.76,4.21-.83,6.34-.74,4.02.17,8.26,1,12.11-.61,3.5-1.46,6.09-5.11,5.86-8.99-.1-1.66-.87-3.22-2.48-3.84s-3.96-.36-5.48.31-2.01,2.3-1.38,3.78c.71,1.69,2.66,2.49,4.3,2.94,3.87,1.08,8.26.21,10.87-2.99,2.23-2.73,2.5-6.67.29-9.51-2.51-3.22-6.84-2.88-10.24-1.43-2.95,1.26-6.45,4.46-3.51,7.67,2.52,2.75,8.03,2.09,10.82.07,3.34-2.41,2.8-6.8,1.7-10.26-1.22-3.82-3.56-6.9-7.74-7.49-4.77-.68-9.27,1.73-13.97,2.04-1.28.08-2.58.06-3.86-.06-1.16-.11-2.57-.18-3.39-1.11v1.06c1.11-.97,2.54-2.05,4.11-1.66s1.86,2.3,2.85,3.34c1.86,1.95,4.85,3.43,7.42,4.13,4.39,1.19,10.55-.71,10.39-6.16-.17-5.97-7.76-5.73-11.95-4.6-2.78.76-4.68,2.39-6.63,4.43-2.4,2.5-5.45,3.5-8.67,4.55-1.81.59-3.64,1.19-5.5,1.62-1.05.24-2.54.23-2.17-1.31.2-.83,1-1.42,1.68-1.85,2.98-1.91,6.69-2.36,10.07-1.43l-.52-.92c-.69,1.8-1.36,3.82-.64,5.72s2.94,3.32,4.51,4.56c2.4,1.89,6.38,5.78,9.07,2.16,2.43-3.27-.86-6.88-4.03-7.77-3.78-1.06-8.57-.65-12.23.68-3.06,1.11-7.12,3.49-4.97,7.24,1.81,3.15,5.66,5.16,9.16,5.59,1.58.2,3.61.27,4.83-.97,1.14-1.16,1.03-2.94.82-4.42-.56-3.88-3.07-6.58-7.11-6.72-3.83-.13-7.65,2.27-10.48,4.64-1.32,1.1-2.47,2.45-3,4.11-.65,2-.08,4.04-.12,6.08-.09,4.78-5.34,5.15-9.01,5.3-1.18.05-2.36.07-3.54.07-.79,0-3.23.38-3.41-.69-.14-.82.3-2.06.49-2.87.24-1.06.56-2.12,1.07-3.09,2.02-3.87,6.57-4.7,10.56-4.07,4.43.7,8.28,2.82,11.59,5.8,2.89,2.6,6.17,5.67,10.39,5.21,3.39-.36,5.99-3.53,5.5-6.95-.58-4.09-4.32-5.51-7.99-5.61-4.24-.12-8.73.28-12.51,2.38-1.57.87-3,2.03-4.1,3.45-1.16,1.5-1.55,3.74-2.99,4.97-3.04,2.62-8.53.5-11.29-1.5-1.59-1.15-2.89-2.65-3.85-4.36-.48-.84-1.77-.09-1.3.76h0Z"/>
      <g>
        <path class="q" d="M127.41,159.13c-1.61.94-2.85,2.44-4.65,3.3-.8.38-1.88.64-2.48-.02-.45-.5-.35-1.32.03-1.87s.98-.91,1.55-1.27c1.86-1.17,3.61-2.5,5.22-3.99.5-.46.99-.95,1.22-1.59.63-1.74-1.24-3.57-3.09-3.63s-3.52,1.03-5.02,2.12c-8.11,5.9-15.37,12.96-21.47,20.92-1.64,2.13-3.37,4.46-5.94,5.24-.7.21-1.51.28-2.1-.15-.85-.62-.78-1.91-.5-2.92,1.68-6.08,7.3-10.07,12.28-13.94,3.36-2.61,6.59-5.39,9.72-8.27,2.64-2.43,5.22-4.95,8.23-6.89,1.93-1.24,4.01-2.23,6.08-3.21,2.34-1.11,4.68-2.22,7.02-3.33,5.37-2.54,10.86-5.12,16.75-5.85,1.14-.14,2.54-.09,3.14.9.44.73.21,1.71-.33,2.37s-1.31,1.07-2.08,1.44c-4.34,2.1-8.99,3.55-13.76,4.3-1.94.3-4.01.53-5.58,1.71s-2.32,3.72-.95,5.12c.89.9,2.33,1.02,3.55.67s2.26-1.11,3.34-1.77c3.36-2.09,7.1-3.45,10.82-4.8,1.27-.46,3.11-.68,3.59.58.46,1.21-.93,2.27-2.1,2.84-7.66,3.7-15.18,7.71-22.53,12Z"/>
        <path class="e" d="M127.03,158.48c-1.46.9-2.64,2.18-4.13,3.03-.34.2-.82.5-1.22.5-1.47,0-.75-1.18-.12-1.65.8-.6,1.69-1.08,2.5-1.66,2.11-1.51,6.48-4.16,4.68-7.28s-5.59-2.14-8.04-.5c-3.18,2.12-6.16,4.62-9.01,7.16s-5.72,5.38-8.34,8.3-4.68,5.98-7.24,8.77c-.77.84-3.99,3.89-5.18,2.24-.85-1.18.6-3.77,1.17-4.81,1.67-3.05,4.3-5.45,6.96-7.62,3.01-2.44,6.12-4.74,9.06-7.26,3.15-2.69,6.08-5.63,9.25-8.3s6.83-4.5,10.6-6.29,7.73-3.76,11.68-5.43c1.93-.82,3.9-1.56,5.92-2.13,1.81-.51,3.94-1.17,5.83-1.04,1.35.09,1.92,1.26.9,2.3-.66.68-1.66,1.05-2.5,1.44-1.93.89-3.91,1.64-5.94,2.26s-3.93,1.07-5.93,1.43c-1.72.3-3.49.44-5.12,1.1-2.38.96-4.63,3.86-3.13,6.48,1.8,3.13,5.71,1.3,7.94-.11,3.45-2.17,7.38-3.86,11.28-5.04.58-.18,1.59-.47,2.13-.07,1.01.75-.76,1.82-1.35,2.13-1.82.96-3.71,1.81-5.54,2.75-3.87,1.96-7.7,3.99-11.48,6.11-1.89,1.06-3.77,2.13-5.65,3.23-.83.49-.08,1.78.76,1.3,4.09-2.39,8.23-4.69,12.42-6.9,2.06-1.09,4.13-2.15,6.21-3.19,1.74-.87,3.86-1.56,5.34-2.86.96-.84,1.54-2.19.68-3.32s-2.42-1.02-3.63-.7c-2.01.52-4,1.41-5.91,2.21s-3.86,1.73-5.66,2.84c-1.54.95-3.98,2.82-5.79,1.37s.08-3.97,1.6-4.7c1.89-.9,4.16-.95,6.18-1.35,2.14-.42,4.26-.98,6.33-1.68s3.94-1.46,5.82-2.38c1.38-.68,2.84-1.64,2.98-3.33.36-4.13-5.73-2.61-7.87-2.08-4.22,1.03-8.2,2.83-12.11,4.67-4.13,1.94-8.37,3.77-12.37,5.96s-7,5.07-10.19,8.02c-3.42,3.15-6.95,6.16-10.63,9-2.87,2.22-5.82,4.43-8.16,7.22-1.11,1.33-2.09,2.77-2.8,4.35-.58,1.32-1.26,2.96-.9,4.43.99,3.95,5.99.73,7.56-.91,1.36-1.41,2.47-3.04,3.69-4.57,1.32-1.64,2.69-3.25,4.1-4.81,2.88-3.18,5.95-6.18,9.2-8.98,1.66-1.43,3.36-2.81,5.1-4.13,1.65-1.25,3.62-3.06,5.8-3.18,1.02-.06,2.14.42,2.65,1.36.69,1.28-.51,2.25-1.38,3.02-1.65,1.47-3.47,2.6-5.27,3.87-1.14.81-2.19,2.39-1.17,3.72.91,1.19,2.54.78,3.68.2,1.65-.83,2.91-2.25,4.47-3.21.82-.51.07-1.8-.76-1.3Z"/>
      </g>
      <g>
        <path class="q" d="M210.29,130.36c-2.64-1.34-6.06-2.62-7.91-5.29-.11-.16-.22-.33-.19-.52.04-.28.37-.42.65-.49,3.34-.87,6.9-.47,10.2.56,3.29,1.03,6.36,2.66,9.4,4.28,1.27.67,2.53,1.35,3.8,2.02,1.21.64,2.42,1.29,3.54,2.08.9.64,1.74,1.37,2.57,2.09,2.88,2.51,5.75,5.02,8.63,7.53,1.15,1.01,2.32,2.03,3.14,3.33,1.18,1.88,1.5,4.15,1.74,6.35.18,1.68.33,3.36.44,5.04.04.59.04,1.27-.39,1.67-.49.46-1.34.3-1.83-.16s-.73-1.13-.95-1.76c-.84-2.43-1.75-4.85-3.13-7.01-1.46-2.28-3.41-4.2-5.34-6.09-.98-.96-1.95-1.92-2.93-2.88-1.23-1.21-2.48-2.43-3.96-3.31-1.48-.87-3.14-1.37-4.75-1.94-4.3-1.52-8.65-3.45-12.72-5.52Z"/>
        <path class="e" d="M210.67,129.71c-1.31-.66-2.65-1.25-3.93-1.97-.66-.37-1.3-.76-1.9-1.22-.29-.22-1.91-1.44-1.81-1.83.01-.05,2.18-.3,2.46-.32.97-.07,1.95-.05,2.91.04,1.95.19,3.87.69,5.71,1.36,3.65,1.33,7.06,3.3,10.48,5.12,1.69.9,3.44,1.76,5,2.9,1.71,1.25,3.26,2.74,4.85,4.13s3.13,2.73,4.69,4.09c1.41,1.23,3.01,2.43,4.1,3.98,2.14,3.04,2.08,7.56,2.3,11.13.03.56.2,1.04-.41,1.21-.72.19-.98-.64-1.21-1.23-.35-.91-.64-1.84-1-2.75-.66-1.67-1.41-3.32-2.4-4.82-2.02-3.08-4.83-5.57-7.44-8.13-1.39-1.37-2.75-2.79-4.38-3.88s-3.46-1.65-5.27-2.29c-4.37-1.53-8.61-3.43-12.74-5.52-.86-.43-1.62.86-.76,1.3,4.11,2.08,8.33,3.97,12.68,5.52,2.04.73,4.11,1.34,5.87,2.66s3.39,3.12,5.01,4.71,3.15,3.04,4.53,4.74c1.5,1.85,2.6,3.92,3.47,6.12.61,1.53.94,4.05,2.5,4.97,1.25.74,2.72.15,3.03-1.26.19-.87,0-1.84-.07-2.71-.09-1.15-.2-2.29-.32-3.43-.21-1.92-.47-3.86-1.27-5.64s-2.21-3.15-3.67-4.44c-1.8-1.58-3.61-3.15-5.41-4.72s-3.49-3.16-5.34-4.59-3.79-2.38-5.77-3.44c-3.86-2.06-7.71-4.29-11.9-5.6-2.21-.69-4.53-1.11-6.85-1.06-1.23.02-4.68-.07-4.93,1.62-.22,1.45,2.13,3.05,3.13,3.73,1.66,1.14,3.53,1.92,5.33,2.82.86.43,1.62-.86.76-1.3Z"/>
      </g>
      <g>
        <path class="q" d="M242.19,115.69c3.98,2.97,8.44,6.05,11.05,10.27.67,1.08,1.23,2.23,1.93,3.29.82,1.26,1.83,2.4,2.66,3.67,2.42,3.69,3.22,8.17,3.96,12.52.59,3.46,1.19,6.93,1.29,10.44.12,4.17-.47,8.37-1.74,12.34-.25.79-.53,1.57-.94,2.29-.48.83-1.12,1.55-1.77,2.25-4.88,5.25-10.49,9.84-16.61,13.57-.42.26-.89.52-1.37.43-.74-.13-1.11-1.07-.91-1.8s.78-1.28,1.34-1.79c5.43-4.93,11.35-9.49,15.58-15.49.98-1.39,1.87-2.87,2.45-4.47.53-1.48.79-3.06.9-4.63.34-4.76-.58-9.51-1.64-14.15-.55-2.41-1.15-4.83-2.22-7.06-1.16-2.44-2.84-4.6-4.51-6.73-2.14-2.73-4.28-5.48-6.78-7.88-.97-.93-2.04-1.83-3.33-2.23-1.29-.39-2.85-.15-3.7.9-.74.92-.77,2.2-.63,3.37.39,3.18,1.89,6.21,4.18,8.45,2.45,2.39,5.72,3.87,7.95,6.47,1.83,2.13,2.8,4.86,3.51,7.58,1.23,4.72,1.78,9.69.91,14.49s-3.25,9.43-7.1,12.43c-.5.39-1.05.76-1.67.86s-1.35-.15-1.62-.73c-.35-.75.19-1.6.71-2.24,2.51-3.13,5.26-6.32,6.13-10.24.77-3.46-.02-7.06-.82-10.51-.58-2.48-1.18-4.99-2.35-7.25s-3.79-3.54-4.44-4.26l-.82-.89c-5.64-7.03-14.21-10.69-22.44-14.34-2.38-1.06-4.77-2.12-7.27-2.85-2.11-.62-4.29-1-6.46-1.33-9.02-1.38-18.38-1.98-27.16.51-1.48.42-3.27,1.44-2.98,2.95.28,1.44,2.15,1.8,3.62,1.81,4.18.04,8.38-.1,12.51.48s8.27,1.95,11.45,4.67c.12.1.24.21.28.36.14.5-.62.73-1.14.68-3.32-.26-6.64-.52-9.97-.79-.94-.07-1.92-.14-2.79.24-.86.38-1.53,1.37-1.23,2.26.36,1.03,1.68,1.3,2.77,1.36,5.32.33,10.66-.02,15.98.3,5.32.32,10.74,1.38,15.23,4.25,2.08,1.33,3.92,3.02,6.09,4.2,1.12.61,2.31,1.08,3.34,1.82,1.82,1.32,2.98,3.49,3.08,5.73.01.25,0,.51-.11.73-.4.75-1.55.36-2.25-.12-4.28-2.92-8.51-5.91-12.69-8.96-.86-.63-1.72-1.26-2.67-1.75-1.64-.85-3.49-1.25-5.32-1.52-3.46-.52-6.97-.65-10.46-.75-9.34-.25-18.69-.25-28.03.16-1.8.08-3.23,0-4.85.79l-.38.17c-2.44.78-4.88,1.56-7.32,2.34-1.19.38-2.78.62-3.43-.45-.69-1.14.47-2.51,1.61-3.19,6.99-4.14,16.13-1.01,23.87-3.47,1.45-.46,3.01-1.32,3.34-2.81.52-2.33-2.28-4.03-4.65-4.25-7.11-.68-13.35,4.35-20.13,6.57-.97.32-2.37.37-2.66-.61-.26-.86.65-1.58,1.44-2.01,3.34-1.78,6.85-3.26,10.46-4.39.51-.16,1.1-.38,1.25-.9.25-.85-.88-1.41-1.76-1.53-11.2-1.53-21.65,5.76-32.85,7.33-.54.08-1.16.11-1.54-.27-.54-.54-.21-1.45.22-2.08,1.47-2.14,3.78-3.54,6.08-4.74,5.23-2.72,10.81-4.76,16.57-6.05,4.43-.99,8.96-1.54,13.47-2.08,5.61-.68,11.23-1.35,16.84-2.03,3.69-.45,7.4-.89,11.11-.73,6.39.28,12.56,2.35,18.62,4.4,3.46,1.17,6.92,2.34,10.38,3.51,1.78.6,3.92,1.16,5.41,0,1.33-1.02,1.5-3.09.73-4.58-.76-1.49-2.24-2.5-3.76-3.21-9.07-4.23-20.52.06-29.42-4.52-.59-.31-1.22-.72-1.35-1.38-.21-1.07,1-1.83,2.04-2.16,8.61-2.73,17.73,1.17,26.57,3.01,2.06.43,4.17.75,6.13,1.51,2.57,1,4.79,2.72,6.97,4.42v-.04Z"/>
        <path class="e" d="M241.81,116.33c2.81,2.09,5.7,4.13,8.14,6.66s3.81,5.7,5.9,8.47c2.2,2.91,3.52,5.98,4.33,9.53s1.45,7.37,1.86,11.06.4,7.67-.3,11.46c-.33,1.78-.76,3.58-1.39,5.28-.68,1.83-1.98,3.16-3.32,4.54-2.49,2.58-5.16,4.99-7.98,7.2-1.33,1.04-2.7,2.04-4.1,3-.73.49-1.46.98-2.2,1.45-.33.21-.75.57-1.12.7-.92.31-1.54-.08-.94-1.02.81-1.27,2.37-2.27,3.5-3.26,1.41-1.24,2.83-2.47,4.22-3.73,2.56-2.31,5.04-4.72,7.21-7.4s4-5.39,4.71-8.68c.78-3.62.53-7.41-.01-11.04s-1.33-7.65-2.59-11.25c-1.16-3.31-3.16-6.1-5.3-8.85s-4.44-5.73-7.06-8.23c-1.86-1.77-4.6-3.58-7.18-2.08s-1.89,5.23-1.11,7.59c1,3.02,2.9,5.52,5.4,7.46,2.64,2.05,5.64,3.66,7.41,6.61s2.66,6.84,3.17,10.33c1.02,6.99-.12,14.72-5.2,19.98-.58.61-1.22,1.21-1.91,1.7-.3.21-.9.68-1.31.55-1.1-.36-.49-1.1-.16-1.57.95-1.35,2.09-2.58,3.06-3.91,2.01-2.76,3.53-5.8,3.69-9.26s-.79-7.2-1.68-10.63c-.79-3.03-1.79-5.98-4.3-8-.71-.57-1.52-1.04-2.17-1.67-.76-.74-1.39-1.61-2.11-2.39-2.11-2.28-4.59-4.22-7.21-5.89-5.59-3.57-11.91-6.31-18.06-8.76-3.51-1.4-7.13-2.14-10.85-2.68s-7.22-.93-10.86-1.05-7.24.04-10.81.61c-1.76.28-3.57.6-5.27,1.18-1.04.35-2.19.91-2.81,1.86-1.46,2.23.79,3.93,2.84,4.21,1.63.22,3.33.09,4.97.09,2.09,0,4.18.04,6.26.21,3.57.29,7.19,1.03,10.37,2.73.73.39,1.44.83,2.11,1.32-.14-.1.82.57.83.66-.03-.42-.35-.25-.82-.27-2.16-.1-4.32-.34-6.48-.51-2.32-.18-7.13-1.27-7.78,2.14-.58,3.02,3.62,3.02,5.49,3.08,7.61.26,15.41-.55,22.82,1.64,3.5,1.03,6.36,2.86,9.27,5,1.29.95,2.61,1.78,4.04,2.49,1.7.85,3.2,1.77,4.12,3.49.37.7.77,1.65.77,2.46,0,1.27-1,.47-1.61.06-1.61-1.08-3.2-2.2-4.79-3.32-3.12-2.19-6.13-4.68-9.38-6.67-2.92-1.79-6.46-2.17-9.8-2.47-4.01-.36-8.05-.4-12.07-.47-7.86-.13-15.7,0-23.56.28-1.5.06-2.98.1-4.38.69-1.53.64-3.14,1.08-4.72,1.59-.92.29-1.83.59-2.75.88-.66.21-1.47.54-2.18.44-1.64-.24-.66-1.75.17-2.36.67-.49,1.48-.85,2.25-1.15,6.16-2.38,13.05-.68,19.43-1.87,2.39-.45,5.84-1.36,6.24-4.22.34-2.48-2.13-4.16-4.24-4.69-6.04-1.53-12.28,2.41-17.53,4.8-1.41.64-3,1.5-4.55,1.74-.23.04-.87.13-1.07-.09-.41-.46.42-.95.69-1.12.79-.51,1.68-.9,2.53-1.3,1.65-.8,3.33-1.51,5.05-2.15.85-.32,1.71-.61,2.58-.89.65-.22,1.41-.39,1.87-.95.59-.72.45-1.66-.2-2.29-1.01-.95-2.74-.93-4.02-.99-3.22-.14-6.44.38-9.54,1.19-6.55,1.7-12.72,4.67-19.37,6-.53.11-2.06.63-2.53.37-1-.55.48-1.94.9-2.38,1.29-1.34,2.91-2.31,4.54-3.17,3.26-1.74,6.69-3.19,10.2-4.35,7.39-2.45,15.1-3.3,22.79-4.23,3.96-.48,7.93-.96,11.89-1.43s7.74-1.02,11.64-1c7.87.03,15.35,2.88,22.71,5.37,1.73.59,3.46,1.17,5.19,1.76s3.4,1.3,5.18,1.47c2.69.25,4.88-1.54,4.71-4.34-.18-2.96-2.83-4.76-5.32-5.8-2.86-1.2-5.96-1.63-9.05-1.8-3.43-.18-6.87-.03-10.31-.22-1.54-.09-3.09-.25-4.6-.56s-3.7-.77-5.02-1.78c-2.05-1.57,1.88-2.35,2.97-2.56,1.95-.38,3.96-.43,5.95-.3,3.72.25,7.35,1.18,10.95,2.12,3.39.88,6.8,1.61,10.22,2.38,3.75.84,6.67,2.78,9.67,5.11.49.38,1.28.18,1.28-.53v-.04c0-.97-1.5-.97-1.5,0v.04l1.28-.53c-2.78-2.16-5.57-4.22-9.01-5.17-3.65-1.01-7.42-1.63-11.09-2.59s-7.2-1.86-10.9-2.21c-3.2-.3-6.88-.25-9.89,1.02-1,.42-2.06,1.2-2.12,2.39-.06,1.43,1.36,2.18,2.47,2.69,2.94,1.34,6.15,1.84,9.35,2.03,6.58.38,13.99-.78,20.03,2.49,1.48.8,2.98,2.04,3.14,3.83.2,2.32-1.78,3.14-3.77,2.75-1.76-.35-3.47-1.07-5.17-1.64-2.05-.69-4.09-1.38-6.14-2.08-7.2-2.43-14.49-4.92-22.19-4.78-4.07.08-8.12.69-12.16,1.17s-8.26,1-12.38,1.49c-7.63.92-15.22,1.91-22.5,4.49-3.43,1.21-6.82,2.67-9.99,4.46-1.36.76-2.7,1.63-3.83,2.73-.87.84-1.97,2.02-2.03,3.31-.15,3.29,5.28,1.43,6.88,1.03,3.44-.86,6.76-2.08,10.1-3.25s6.61-2.28,10.04-2.93c1.54-.29,3.11-.48,4.68-.51.82-.02,1.65,0,2.47.07.44.04.91.06,1.34.16.25.05.48.14.7.28.11.42-.05.64-.48.65-.67.44-1.82.6-2.58.88-.85.31-1.7.64-2.54.99-1.74.72-3.46,1.51-5.12,2.39-.98.52-2.25,1.27-2.26,2.55,0,1.14.98,1.8,2.01,1.87,1.35.09,2.72-.58,3.93-1.07,1.46-.6,2.88-1.27,4.3-1.95,3.08-1.47,6.21-3.03,9.61-3.6,1.56-.26,3.32-.38,4.85.1,1.43.44,3.5,1.75,2.65,3.53-.69,1.45-2.79,1.92-4.2,2.23-1.77.4-3.58.54-5.39.61-3.23.11-6.48-.07-9.7.28-2.82.31-6.37.97-8.48,3.05s-.93,4.81,1.97,4.52c1.59-.16,3.16-.86,4.68-1.34s3.17-.92,4.67-1.56c1.6-.67,3.26-.64,4.96-.71,2.13-.09,4.26-.16,6.39-.21,4.1-.1,8.2-.12,12.3-.09,4.06.03,8.13.09,12.19.27,3.64.16,7.63.27,11.07,1.61,1.79.7,3.29,1.94,4.83,3.05,1.7,1.24,3.41,2.46,5.13,3.67,1.59,1.12,3.18,2.23,4.78,3.33,1.04.72,2.42,2,3.83,1.7,2.78-.59.52-5.28-.45-6.55-.86-1.12-1.94-1.91-3.19-2.56-1.68-.88-3.26-1.74-4.8-2.87-2.9-2.13-5.75-3.95-9.22-5.03s-6.99-1.5-10.55-1.66c-3.87-.18-7.75-.05-11.63-.12-.97-.02-1.94-.05-2.9-.1-.65-.04-1.62,0-2.16-.44-1.39-1.12.82-1.98,1.7-2.01,1.06-.04,2.16.13,3.21.21,1.99.16,3.99.31,5.98.47,1.05.08,3.17.62,3.78-.67.52-1.09-.81-1.86-1.54-2.39-1.4-1.02-2.95-1.81-4.56-2.43-3.22-1.25-6.69-1.74-10.12-1.92-1.93-.1-3.86-.11-5.79-.11-1.52,0-3.8.39-5.17-.46-1.87-1.16.8-2.52,1.83-2.84,1.99-.61,4.08-.98,6.14-1.25,3.68-.48,7.41-.51,11.1-.3,3.97.23,7.94.72,11.85,1.43s7.57,2.1,11.23,3.72c6.04,2.68,12.28,5.32,17.48,9.47,1.24.99,2.42,2.07,3.5,3.24.73.78,1.36,1.66,2.13,2.41.73.71,1.63,1.21,2.4,1.86,1.47,1.24,2.26,2.75,2.89,4.54,1.2,3.44,2.16,7.34,2.38,10.98.23,3.93-1.19,7.22-3.47,10.34-.97,1.34-2.12,2.56-3.06,3.91-.71,1.02-1.08,2.43.03,3.33,2.33,1.89,5.45-1.77,6.75-3.37,4.33-5.35,5.51-12.43,4.7-19.12-.42-3.51-1.2-7.12-2.69-10.34s-3.78-5.08-6.49-7-5.36-4.14-6.68-7.45c-.6-1.5-1.18-3.43-.87-5.05.44-2.38,3.05-2.18,4.66-1.17,1.5.95,2.75,2.39,3.92,3.7,1.31,1.46,2.54,2.99,3.75,4.53,2.35,2.99,4.75,5.97,6.03,9.61s2.07,7.64,2.63,11.48.83,8.43-.69,12.22c-1.37,3.42-3.99,6.39-6.52,9.02s-5,4.78-7.6,7.06c-1.28,1.13-2.62,2.22-3.84,3.42-.91.9-1.68,2.07-1.15,3.38,1.26,3.12,5.49-.68,6.96-1.7,2.82-1.95,5.52-4.08,8.07-6.37,1.31-1.17,2.57-2.39,3.8-3.65s2.51-2.49,3.3-4.04c1.58-3.14,2.18-7,2.47-10.47.33-3.86-.05-7.69-.65-11.5-.55-3.49-1.06-7.04-2.08-10.43-.47-1.55-1.06-3.07-1.85-4.48-.94-1.7-2.25-3.14-3.31-4.76-.92-1.4-1.62-2.93-2.6-4.3-.91-1.27-1.95-2.43-3.08-3.51-2.34-2.23-4.99-4.1-7.57-6.03-.77-.58-1.52.72-.76,1.3Z"/>
      </g>
      <g>
        <path class="p" d="M258.81,61.21c-1.19.18-2.8-.24-3.77-.93-.36-.25-.6-.63-.84-1-.4-.61-.8-1.24-1.02-1.93s-.27-1.48.06-2.14c.63-1.28,1.16-1.95,3.44-2.48,1.12-.26,1.76-.63,3.62-.13.53.14.79.38,1.14.49.59.19.96.78,1.24,1.34.33.65.63,1.33.88,2.01.3.82.18,1.51-.08,2.35-.14.48-.52.91-.96,1.15-1.15.64-2.42,1.07-3.72,1.26Z"/>
        <path class="f" d="M258.81,60.46c-.89.11-1.81-.04-2.63-.4-.9-.39-1.33-1.11-1.81-1.93s-.86-1.8-.39-2.73c.23-.45.48-.88.89-1.18.65-.47,1.47-.63,2.23-.82.62-.16,1.2-.33,1.85-.29.46.03.98.13,1.41.3.32.13.74.29,1.02.49.3.21.48.59.64.91.25.48.48.98.68,1.49.38.96.45,2.38-.56,2.99s-2.33.99-3.54,1.19c-.4.06-.62.56-.52.92.11.43.52.59.92.52,1.34-.21,2.73-.64,3.9-1.34s1.61-1.97,1.58-3.24c-.02-.7-.28-1.32-.54-1.95-.25-.59-.5-1.18-.83-1.73-.57-.95-1.58-1.48-2.62-1.79s-2.09-.36-3.14-.1c-.97.24-1.97.45-2.86.91-1.77.93-2.66,3.14-1.98,5.02.27.74.69,1.42,1.13,2.07.37.56.79,1.02,1.38,1.35,1.11.63,2.51.97,3.79.8.4-.05.75-.31.75-.75,0-.37-.35-.8-.75-.75Z"/>
      </g>
      <g>
        <path class="p" d="M213.23,40.45c-2,.26-4.13-.7-5.14-2.44-.2-.35-.37-.74-.41-1.14-.09-.8.32-1.6.91-2.16s1.35-.88,2.12-1.13c.59-.19,1.19-.33,1.81-.33,1.94-.01,3.69,1.42,4.45,3.19.37.85.52,1.91-.03,2.65-.45.61-1.24.84-1.98.94s-.91.31-1.72.42Z"/>
        <path class="f" d="M213.23,39.7c-1.42.17-2.86-.25-3.88-1.27-.46-.47-.97-1.15-.93-1.84.04-.75.6-1.35,1.21-1.72,1.28-.77,3.04-1.2,4.43-.5,1.22.62,2.34,1.91,2.48,3.31.08.82-.36,1.31-1.12,1.51-.41.11-.83.13-1.24.25-.38.11-.75.23-1.14.29s-.62.57-.52.92c.12.43.52.58.92.52s.79-.2,1.2-.31c.48-.13.97-.15,1.44-.31.98-.34,1.76-1.07,1.93-2.13.32-2-1.11-4.04-2.72-5.09-1.85-1.2-4.03-.92-5.94-.02-.98.46-1.81,1.22-2.21,2.24s-.15,2.14.45,3.05c1.21,1.83,3.47,2.85,5.65,2.59.4-.05.75-.31.75-.75,0-.37-.35-.8-.75-.75Z"/>
      </g>
      <g>
        <path class="p" d="M281.41,196.83c-.39-.04-1.12-.24-1.43-.69-.26-.39-.28-.88-.4-1.33-.14-.53-.4-1.03-.42-1.58-.04-1.13,1.12-2.08,2.25-2.03,1.13.05,2.12.9,2.58,1.94.36.8.43,1.77.02,2.54s-1.58,1.21-2.53,1.14h-.06Z"/>
        <path class="f" d="M281.41,196.08c.22.02-.09-.02-.13-.03-.11-.02-.21-.06-.31-.09s-.28-.14-.37-.24c.07.08-.06-.12-.08-.15-.05-.13-.08-.27-.1-.41-.06-.28-.11-.56-.2-.83s-.2-.55-.27-.83c-.03-.11-.04-.17-.04-.27,0-.05,0-.1,0-.15,0-.16-.03.04.02-.1.11-.33.29-.59.6-.79.23-.14.28-.15.54-.22.02,0,.15-.03.03-.01.05,0,.1,0,.15-.01s.1,0,.15,0c0,0,.24.03.13.01.45.08.8.27,1.11.56.65.61,1.06,1.6.84,2.46-.04.13-.07.23-.12.32-.03.05-.06.1-.09.15-.04.06.05-.04-.04.04-.04.04-.09.08-.13.13-.04.03-.04.03,0,0l-.06.04c-.11.07-.22.13-.33.19-.06.03-.16.07-.3.11-.13.04-.26.07-.39.09s.09,0-.04,0c-.08,0-.16.01-.24.01-.11,0-.22,0-.33,0-.97,0-.97,1.5,0,1.5,1.27,0,2.75-.41,3.32-1.68.64-1.41.2-3.07-.8-4.2s-2.47-1.57-3.81-.98c-.6.26-1.14.74-1.44,1.33-.36.72-.32,1.47-.07,2.22.12.37.24.72.32,1.1.08.42.18.85.44,1.2.47.65,1.27.92,2.04,1,.4.04.75-.38.75-.75,0-.44-.35-.71-.75-.75Z"/>
      </g>
      <g>
        <path class="h" d="M287.69,115.44c.79-3.09.44-4.96.59-8.15.13-2.92.4-6.14,2.51-8.15.82-.78,1.84-1.3,2.85-1.81.79-.4,1.62-.8,2.5-.84.83-.04,1.63.24,2.41.51,2.66.94,5.34,1.88,7.8,3.27,1.06.6,2.1,1.29,2.89,2.22.95,1.11,1.5,2.5,2.03,3.85.66,1.67,1.31,3.34,1.97,5.01.47,1.21.95,2.43,1.09,3.72.16,1.5-.16,3.01-.18,4.52-.03,1.88.41,3.74.37,5.62-.03,1.55-.38,3.08-.57,4.63-.3,2.48-.17,4.99-.39,7.47s-.82,5.03-2.38,6.98c-2.43,3.03-6.87,4-10.6,2.89-3.72-1.11-6.73-3.99-8.69-7.35s-2.98-7.17-3.77-10.97c-.92-4.42-1.57-9.05-.44-13.42Z"/>
        <path class="g" d="M288.41,115.64c.88-3.6.35-7.29.81-10.94.22-1.75.69-3.61,1.97-4.9,1.43-1.45,4.14-2.91,6.18-2.39s3.96,1.33,5.82,2.14,3.86,1.71,5.26,3.18,2.07,3.73,2.83,5.65,1.77,3.97,2.21,6.05-.17,4.24-.03,6.35c.15,2.32.44,4.47.1,6.8-.31,2.09-.51,4.14-.57,6.25s-.09,4.17-.59,6.2c-.97,3.89-3.89,6.55-7.93,6.85-3.63.27-6.97-1.49-9.43-4.07-3.16-3.32-4.71-7.76-5.74-12.14-1.15-4.88-2.08-10.04-.88-15,.23-.94-1.22-1.34-1.45-.4-1.17,4.8-.45,9.72.58,14.48.97,4.48,2.35,9.01,5.19,12.68,2.31,2.98,5.59,5.36,9.39,5.87,3.53.47,7.38-.68,9.65-3.52,2.95-3.68,2.53-8.63,2.77-13.05.14-2.48.83-4.93.71-7.43-.06-1.25-.27-2.49-.33-3.74s.1-2.43.17-3.66c.15-2.49-.68-4.59-1.57-6.86-.84-2.14-1.56-4.39-2.64-6.42-2.1-3.91-6.95-5.47-10.87-6.87-1.11-.4-2.27-.92-3.46-.98s-2.25.43-3.29.94c-2.06,1.02-3.77,2.26-4.68,4.44-1.88,4.46-.49,9.51-1.61,14.12-.23.94,1.22,1.34,1.45.4Z"/>
      </g>
      <g>
        <path class="l" d="M292.17,107.54c-.2-.93-.77-1.72-.6-2.66s.81-1.76,1.64-2.24c.67-.39,1.45-.55,2.21-.71,2.14-.43,4.33-.8,6.48-.47,2.15.33,4.29,1.49,5.27,3.43.09.18.17.37.14.56-.03.22-.2.4-.37.54-1.49,1.27-3.69,1.12-5.64.89-1.95-.24-4.13-.43-5.66.79-.18.15-.37.33-.39.57-.01.13.02.25.06.38.39,1.16,1.55,2.01,2.78,2.03.89.02,1.73-.36,2.59-.57,2.49-.63,5.1.06,7.58.75.28.08.61.19.72.46.09.22,0,.48-.11.69-.68,1.29-2.19,1.94-3.64,2.04-1.45.11-2.89-.24-4.33-.45s-2.96-.29-4.29.31c-.27.12-.55.29-.63.58-.16.54.48.96,1.01,1.12,4,1.26,8.69.22,12.25,2.45.18.11.38.27.39.48,0,.15-.08.29-.17.4-.72.93-1.87,1.52-3.04,1.56-.61.02-1.47.09-1.51.7-.01.19.08.38.18.55.6.99,1.53,1.78,2.61,2.19.52.2,1.07.32,1.56.59s.92.73.95,1.29c.03.64-.51,1.21-1.12,1.4s-1.28.1-1.91-.03c-3.22-.68-6.23-2.38-9.52-2.45-.2.69.23,1.43.83,1.83.59.4,1.31.54,2.01.71,2.65.63,5.19,1.71,7.48,3.17.22.14.45.3.52.55.16.52-.45.94-.98,1.08-1.81.47-3.72-.07-5.59.07-.51.04-1.04.14-1.46.44s-.69.85-.53,1.34c.17.54.76.8,1.28,1.01,1.86.74,3.73,1.47,5.59,2.21.81.32,1.68.69,2.15,1.43.47.74.24,1.96-.61,2.16-.57.13-1.12-.22-1.62-.53-2.44-1.54-5.28-2.43-8.16-2.57.47,1.78,2.1,3.2,3.92,3.42.82.1,1.66-.02,2.46.17.8.19,1.6.84,1.55,1.66-.02.35-.19.68-.41.96-.91,1.19-2.56,1.66-4.04,1.42-1.48-.23-2.81-1.07-3.93-2.06-1.72-1.51-3.09-3.43-3.94-5.56-.28-.71-.52-1.45-.48-2.21s.38-1.54,1.03-1.94c.15-.09.31-.16.43-.29.45-.48-.05-1.26-.61-1.61s-1.27-.69-1.34-1.34c-.05-.46.26-.88.36-1.34.16-.76-.29-1.51-.82-2.08s-1.17-1.06-1.52-1.75-.27-1.69.41-2.06c.55-.3,1.21-.07,1.83,0s1.42-.15,1.48-.76c.06-.56-.54-.94-1.06-1.15-.85-.34-1.74-.59-2.65-.75,1.08-.83,2.62-.38,3.91.05s2.92.73,3.85-.27c-.56-.79-1.61-1.07-2.57-1.16s-1.98-.07-2.86-.47c-.79-.36-1.39-1.02-1.96-1.67-.19-.22-.39-.45-.45-.73-.14-.66.48-1.2.98-1.64s.98-1.2.57-1.73c-.4-.53-1.48-.54-1.45-1.2.03-.67,1.25-.66,1.41-1.32.04-.16,0-.32-.03-.48-.16-.73-.31-1.46-.47-2.18Z"/>
        <path class="g" d="M292.89,107.34c-.22-.83-.78-1.74-.52-2.61.34-1.12,1.43-1.65,2.48-1.91,1.9-.48,3.93-.81,5.89-.72,1.8.09,3.69.67,4.96,2.01.26.28.69.68.68,1.1-.02.49-.58.67-1.04.83-.87.29-1.82.28-2.73.22-1.56-.1-3.09-.43-4.66-.24-1.14.13-2.93.61-3.35,1.84-.36,1.07.58,2.26,1.41,2.84,1.34.93,2.74.71,4.22.28,2.12-.62,4.16-.38,6.28.15.32.08,1.08.14,1.33.35.19.17.29.2.09.55-.09.16-.32.31-.45.42-.78.61-1.77.82-2.74.84-2.03.04-4-.71-6.03-.62-1.09.05-3.1.29-3.45,1.59-.76,2.77,5.56,2.75,7.03,2.86,1.75.13,3.54.25,5.19.87.26.1,1,.29,1.13.57.12.26-.48.59-.73.73-.72.41-1.45.36-2.23.5-1.34.24-1.83,1.32-1.11,2.47.41.65.97,1.21,1.59,1.65.81.58,1.99.65,2.74,1.24.41.32.42.17.25.78s-.39.61-1,.62c-.53,0-1.09-.17-1.6-.31-.97-.25-1.93-.59-2.88-.91-1.97-.67-3.92-1.28-6.01-1.37-.29-.01-.68.24-.72.55-.25,1.76.95,2.78,2.52,3.25,2.01.61,3.99,1.09,5.9,2.03.51.26,1.02.53,1.51.82.25.15.49.29.73.45l-.27.25c-.28.35-1.67.17-2.11.16-.63-.02-1.25-.09-1.88-.12-1.41-.06-3.32-.06-4,1.46-.62,1.4.5,2.33,1.69,2.81,1.07.44,2.15.85,3.22,1.27s2.27.73,3.23,1.32c.39.24,1,.62.97,1.16-.06.97-.86.41-1.34.14-.82-.46-1.61-.92-2.47-1.28-1.94-.82-3.97-1.26-6.06-1.39-.48-.03-.86.5-.72.95.42,1.36,1.26,2.51,2.5,3.25.6.36,1.26.59,1.95.7.78.12,2.36-.21,2.95.36s.38,1.22-.14,1.67c-.38.32-.86.53-1.34.65-1.01.24-2.03.06-2.96-.36-1.81-.82-3.32-2.37-4.44-3.98-.91-1.32-2.65-3.95-1.65-5.55.35-.56,1.05-.67,1.28-1.33.2-.57,0-1.16-.35-1.62-.47-.62-1.63-.91-1.59-1.82.01-.28.23-.57.26-.87.06-.46-.01-.88-.18-1.31-.26-.68-.77-1.21-1.28-1.71-.33-.33-.69-.65-.91-1.07s-.25-.54.1-.9c.38-.4.52-.26,1.02-.2,1.12.14,2.68-.17,2.6-1.62-.1-1.78-2.93-2.22-4.24-2.47l.18,1.37c1.45-.93,3.2.22,4.7.46,1.2.2,2.29.03,3.21-.8.32-.29.25-.76,0-1.06-1.33-1.56-3.19-1.16-4.98-1.58-.84-.2-2.96-1.4-2.38-2.57.34-.69,1.15-.95,1.37-1.79.16-.63,0-1.2-.47-1.65-.23-.22-.56-.38-.86-.49-.29-.17-.3-.16-.02.04.11-.05.22-.11.32-.17,1.63-.61.62-2.93.38-4.05-.2-.94-1.65-.54-1.45.4.13.58.28,1.16.38,1.75s.06.48-.39.77-.91.64-.92,1.26.43,1.02.93,1.3c.56.31.7.56.16,1.1-.33.33-.69.62-.93,1.03-.85,1.49.67,2.94,1.8,3.76.75.54,1.58.78,2.49.89,1.24.15,2.62.02,3.5,1.07v-1.06c-1.16,1.05-2.95.05-4.21-.25-1.18-.29-2.34-.32-3.39.36-.5.32-.49,1.24.18,1.37.6.11,1.2.25,1.79.44.24.08.49.15.72.27.3.15.78.21.41.46-.3.19-.89-.06-1.23-.09-.48-.04-.93-.04-1.37.18-1.31.64-1.27,2.37-.57,3.46.5.77,1.33,1.26,1.81,2.04.59.98-.41,1.89-.01,2.92.27.7.9.98,1.46,1.4.7.53.55.49.06.88-.31.25-.56.56-.75.91-.88,1.68-.09,3.62.7,5.18.9,1.79,2.18,3.44,3.72,4.74,2.39,2.02,6.78,3.54,9,.35,1.08-1.55.14-3.28-1.59-3.72-1.14-.29-2.35.01-3.46-.42-1.18-.46-2.03-1.46-2.4-2.65l-.72.95c2.47.15,4.87.81,7.03,2.02,1.16.65,2.74,1.83,3.86.44,2.77-3.45-4.94-5.4-6.76-6.12-.49-.19-1.35-.36-1.74-.72-.98-.91.85-1.1,1.42-1.13,1.09-.05,2.19.15,3.28.14,1.21,0,4.07-.3,3.54-2.23-.17-.6-.74-.92-1.23-1.22-.97-.6-2-1.12-3.05-1.58-.98-.43-1.98-.8-3-1.1-.92-.27-3.76-.51-3.56-1.95l-.72.55c2.24.09,4.32.89,6.43,1.59,1.55.52,3.65,1.41,5.29.82,1.25-.45,2.02-1.86,1.28-3.08-1.04-1.71-3.79-1.25-4.7-3.13-.22-.46-.2-.38.33-.44.35-.04.69-.04,1.04-.12.76-.17,1.47-.54,2.06-1.04,1.28-1.07,1.24-2.19-.26-2.98-3.46-1.82-7.48-1.12-11.16-2.02-.45-.11-1.15-.23-.53-.69.4-.3,1.26-.22,1.73-.22,1.25,0,2.48.3,3.71.47,1.76.24,3.61.25,5.17-.73.96-.6,2.49-2.27,1.31-3.37-.54-.51-1.53-.62-2.2-.79-1.02-.26-2.06-.48-3.11-.59s-2.08-.1-3.1.1c-1.14.22-2.34.92-3.51.5-.42-.15-1-.48-1.17-.92s-.33-.3.07-.73c.12-.13.4-.22.55-.28.93-.4,1.96-.4,2.95-.34,1.8.11,3.6.53,5.4.14,1.16-.25,3.08-1.08,2.8-2.56-.32-1.66-2.21-3.01-3.64-3.65-2.02-.9-4.26-.95-6.43-.67-1.91.24-4.37.42-5.86,1.78-.62.56-1.09,1.33-1.25,2.15-.21,1.08.33,2.04.6,3.06.25.93,1.7.54,1.45-.4Z"/>
      </g>
      <g>
        <path class="q" d="M102.89,147.19c-.75.11-2.29-.61-2.46-1.48s.24-1.75.69-2.51c3.04-5.19,8.14-8.79,13.23-11.98,3.95-2.47,8-4.81,12.23-6.76,17.69-8.2,37.65-9.55,57.1-10.87,2.73-.18,5.63-.43,7.81-2.09.39-.3.77-.68.84-1.16.13-1-1.06-1.6-2.04-1.82-4.97-1.15-10.14-.88-15.23-.57-9.59.59-19.24,1.32-28.51,3.85-4.85,1.32-9.56,3.13-14.26,4.92-3.02,1.16-6.04,2.31-9.06,3.47-3.13,1.2-6.26,2.4-9.27,3.85-9.52,4.6-17.77,11.75-23.79,20.43-.75,1.09-1.5,2.26-1.61,3.57s.64,2.8,1.93,3.07c1.65.34,3.23-1.33,4.87-.97,1.2,1.7-.26,4.03-1.88,5.34-.72.58-1.55,1.26-1.52,2.19.03.88.92,1.54,1.79,1.61s1.73-.28,2.52-.66c9.16-4.42,15.83-12.93,24.95-17.42,1.43-.7,3-1.38,3.8-2.75.8-1.37.17-3.63-1.42-3.71-.43-.02-.85.12-1.25.27-7.22,2.8-11.82,11.05-19.47,12.16Z"/>
        <path class="e" d="M102.89,146.44c-.48.02-1.22-.19-1.53-.59-.54-.7.05-1.63.41-2.27.69-1.24,1.58-2.39,2.52-3.46,1.76-2,3.82-3.73,5.98-5.28,4.58-3.3,9.54-6.21,14.59-8.72,10.3-5.13,21.59-7.83,32.93-9.41,5.76-.8,11.55-1.32,17.34-1.76,2.85-.21,5.7-.4,8.55-.6,2.33-.16,4.74-.35,6.87-1.39,1.52-.74,3.56-2.44,1.93-4.15-.63-.66-1.6-.93-2.46-1.11-1.46-.32-2.95-.51-4.44-.63-6.02-.47-12.19.18-18.2.67-5.97.49-11.93,1.2-17.78,2.53s-11.48,3.43-17.08,5.57-11.29,4.15-16.78,6.57c-4.77,2.1-9.23,4.78-13.33,7.99s-7.7,6.86-10.86,10.93c-1.36,1.76-3.13,3.72-3.63,5.95-.4,1.76.31,3.98,2.21,4.53.97.28,1.92-.02,2.83-.38.41-.16.85-.41,1.29-.48,1.05-.16.88.78.59,1.57-.47,1.27-1.49,2.03-2.44,2.91-.67.62-1.26,1.4-1.18,2.36.19,2.35,2.95,2.53,4.65,1.85,2.32-.93,4.48-2.35,6.52-3.78,4.23-2.97,8.04-6.49,12.18-9.58,2.06-1.53,4.2-2.96,6.49-4.14,1.78-.92,4.15-1.77,4.87-3.86.49-1.43.05-3.38-1.42-4.06-1.73-.8-4.13.81-5.56,1.71-3.72,2.34-6.68,5.67-10.33,8.1-1.82,1.21-3.77,2.09-5.93,2.44-.95.15-.55,1.6.4,1.45,3.93-.63,7.13-3.02,10.1-5.53,1.59-1.35,3.14-2.75,4.82-3.99.83-.61,1.68-1.19,2.58-1.69.8-.45,2.49-1.57,3.39-1.07s.72,1.97.25,2.67c-.7,1.04-1.96,1.57-3.05,2.1-2.12,1.04-4.12,2.26-6.05,3.62-3.95,2.79-7.53,6.04-11.37,8.97-1.88,1.43-3.83,2.79-5.89,3.95-1.08.61-2.43,1.52-3.68,1.6-.81.05-1.79-.5-1.31-1.43.28-.54.96-.93,1.41-1.33,1.38-1.25,2.71-3.26,2.11-5.21-.69-2.2-3-.83-4.48-.36-1.22.39-2.28-.03-2.56-1.37s.6-2.74,1.34-3.83c1.38-2.02,2.89-3.94,4.51-5.77,3.23-3.66,6.89-6.94,10.9-9.74,4.28-2.99,8.91-5.29,13.76-7.22,5.28-2.1,10.61-4.11,15.93-6.11,5.26-1.98,10.57-3.75,16.09-4.88s11.26-1.75,16.94-2.18,11.37-1.02,17-.54c1.42.12,2.89.29,4.27.66.36.1,1.16.25,1.33.62.4.88-1.04,1.52-1.62,1.79-2.29,1.09-4.98,1.1-7.46,1.27-10.57.72-21.17,1.48-31.61,3.39s-20.58,5.11-29.93,10.22c-4.4,2.41-8.79,5.02-12.76,8.09-1.94,1.5-3.77,3.14-5.34,5.03-1.26,1.52-3.19,3.71-3.04,5.82.11,1.52,1.8,2.51,3.23,2.45.96-.04.97-1.54,0-1.5Z"/>
      </g>
      <g>
        <path class="q" d="M278.64,135.61c.56,3.9,4.24,11.51,3.95,17.68s-2.11,12.2-4.8,17.76c-2.64,5.44-6.57,10.81-12.36,12.53-.3.09-.62.17-.93.1-.88-.2-1.07-1.39-.85-2.27.41-1.61,1.5-2.94,2.53-4.24,3.95-5,7.37-10.42,10.19-16.13,1.05-2.12,2.02-4.29,2.52-6.6.99-4.5.15-9.25-1.55-13.53-1.7-4.28-4.24-8.18-6.75-12.04-.34-.53-.77-1.11-1.4-1.15-.74-.06-1.32.73-1.35,1.47s.35,1.43.69,2.09c3.8,7.37,5.44,15.83,4.67,24.08-.11,1.16-.73,2.67-1.86,2.43-.84-.18-1.12-1.21-1.24-2.06-.65-4.59-1.31-9.18-1.96-13.77-.32-2.23-.64-4.5-1.57-6.56-.72-1.61-1.77-3.03-2.81-4.45-4.12-5.63-8.14-11.38-11.37-17.57-.96-1.84-1.85-3.72-2.88-5.52-.76-1.32-1.59-2.6-2.5-3.82-.96-1.3-2.11-2.61-3.68-3.01s-3.56.59-3.59,2.21c-.03,1.61,1.68,2.6,3.07,3.42,2.12,1.24,4.02,2.86,5.57,4.76.49.6.94,1.49.44,2.07-.37.44-1.07.4-1.62.21-1.95-.67-3.19-2.54-4.8-3.82-2.83-2.26-7.04-2.23-10.37-3.3l-.69-.2c-10.44-3.24-20.67-6.32-31.44-4.46-1.19.21-2.91.1-3-1.1-.04-.56.36-1.06.78-1.44,2.95-2.74,7.39-3.29,11.37-2.66,3.98.63,7.72,2.28,11.59,3.42,3.66,1.08,7.46,1.72,11.28,1.88,2.07.09,4.32-.02,5.95-1.31,2.33-1.85,2.23-5.98-.2-7.7-.93-.66-2.07-.97-3.19-1.18-3.97-.75-8.14-.41-11.95.96-1.29.47-2.62,1.06-3.98.88-.28-.04-.57-.12-.74-.34-.35-.45.02-1.09.37-1.53,1.93-2.38,3.86-4.77,5.78-7.15-2.2-1.28-5.06-1.35-7.32-.18-.84.43-1.63,1.03-2.56,1.15s-2.06-.57-1.93-1.51c.06-.47.41-.85.74-1.19,2.45-2.52,4.98-5.09,8.18-6.52,3.42-1.52,7.29-1.6,11.03-1.41,7.66.4,15.77,2.13,21.12,7.63,1.32,1.36,2.43,2.91,3.79,4.22,1.15,1.11,2.47,2.05,3.55,3.23,1.45,1.58,2.44,3.58,2.81,5.7.09.51.14,1.05-.06,1.52-.43,1.02-1.87,1.26-2.87.79-1.01-.47-1.69-1.41-2.38-2.29-5.78-7.38-14.77-12.14-24.12-12.77-1.5-.1-3.45.25-3.71,1.72-.17.97.61,1.9,1.51,2.29s1.93.39,2.91.48c3.81.35,7.46,2.18,10.01,5.03,2.06,2.3,3.38,5.17,5.33,7.57,2.06,2.53,4.76,4.48,6.85,6.99,4.04,4.85,5.55,11.48,9.87,16.08,1.3-.62,1.58-2.45,1.03-3.78s-1.65-2.34-2.57-3.45c-1.88-2.25-3.09-5.07-3.41-7.98-.03-.28-.04-.6.14-.82.14-.16.36-.23.57-.26,2.16-.38,4.13,1.44,5.05,3.43s1.16,4.23,2.08,6.22c1.33,2.88,3.95,4.96,5.67,7.63,2.17,3.38,2.79,7.5,3.36,11.47Z"/>
        <path class="e" d="M277.92,135.81c.81,5.2,3.43,9.95,3.88,15.25.55,6.48-1.7,13.42-4.45,19.2-2.37,4.99-5.82,10.27-11.22,12.3-.75.28-1.75.72-1.81-.53-.03-.73.44-1.53.79-2.12.8-1.36,1.88-2.55,2.83-3.8,2.01-2.66,3.88-5.43,5.6-8.3,3.21-5.38,6.65-11.33,6.53-17.78s-3.17-12.59-6.58-18.04c-.79-1.26-1.56-2.55-2.42-3.76-.59-.81-1.45-1.53-2.51-1.15-2.87,1.01-.64,4.55.12,6.18,2.81,6.05,4.16,12.78,3.95,19.45-.03,1.04.2,3.47-.75,4.17-.85.63-1.04-1.38-1.11-1.84-.14-.98-.28-1.97-.42-2.95-.51-3.59-1.01-7.19-1.53-10.78-.47-3.26-1.24-6.2-3.11-8.96s-3.88-5.33-5.74-8.05-3.69-5.56-5.35-8.45-3.11-6.2-4.91-9.16c-1.34-2.21-2.97-5.09-5.46-6.15-1.82-.77-4.46-.17-5.11,1.91-.73,2.35,1.63,3.83,3.32,4.84,1.24.74,2.4,1.58,3.46,2.56.55.51,1.08,1.05,1.57,1.62.2.23.63.57.67.89.17,1.27-1.03.51-1.51.23-1.1-.64-1.93-1.66-2.85-2.52s-1.91-1.56-3.07-2.06c-2.58-1.11-5.42-1.28-8.11-2.05-6.13-1.76-12.15-3.81-18.47-4.75-3.29-.49-6.63-.73-9.95-.53-1.5.09-2.96.34-4.45.52-.43.05-1.7.25-1.97-.24-.14-.25.35-.88.48-1.05.33-.41.89-.74,1.33-1.01,5.52-3.4,12.24-.93,17.79.96,3.3,1.12,6.64,2.02,10.1,2.5,2.83.39,6.16.9,8.94-.03,2.17-.73,3.65-2.46,3.89-4.75.22-2.14-.7-4.34-2.58-5.45-2.53-1.5-6.18-1.59-9.03-1.38-1.41.1-2.82.32-4.19.66-1.7.43-3.49,1.49-5.25,1.53-.56.01-.86.19-.61-.48.15-.4.73-.92,1.01-1.26.51-.63,1.01-1.25,1.52-1.88,1.12-1.38,2.23-2.76,3.35-4.14.29-.36.31-.93-.15-1.18-2.32-1.26-5.09-1.48-7.54-.43-.56.24-1.06.57-1.61.85-.6.3-2.86,1-2.03-.7.26-.52,1.03-1.07,1.43-1.47.55-.55,1.1-1.09,1.68-1.62,2.31-2.12,4.86-3.77,7.96-4.47s6.31-.56,9.43-.31c5.4.42,10.98,1.55,15.6,4.52,2.55,1.63,4.3,3.86,6.31,6.07s4.55,3.68,5.96,6.31c.5.92,1.79,3.52.92,4.5-1.19,1.34-2.98-.86-3.63-1.68-1.66-2.09-3.49-4.01-5.57-5.68-4.11-3.29-8.95-5.67-14.09-6.84-2.17-.49-4.75-1.08-6.98-.67-1.96.37-3.52,2.17-2.23,4.12,1.46,2.2,4.82,1.61,7.04,2.21,2.75.74,5.25,2.27,7.15,4.38,2.17,2.41,3.51,5.42,5.6,7.89s4.79,4.41,6.83,6.97c3.87,4.86,5.38,11.16,9.62,15.77.23.25.63.28.91.12,2.55-1.45,1.72-4.65.23-6.54-1.09-1.38-2.3-2.58-3.15-4.14-.47-.86-.85-1.77-1.14-2.72-.13-.44-.84-2.4-.54-2.76.42-.51,1.91.24,2.29.48.78.49,1.39,1.25,1.83,2.05.95,1.7,1.2,3.7,1.85,5.52,1.16,3.25,3.74,5.43,5.7,8.17,2.5,3.49,3.14,7.81,3.73,11.95.14.95,1.58.55,1.45-.4-.55-3.87-1.16-7.89-3.21-11.29s-5.16-5.56-6.37-9.24c-1.05-3.18-1.62-7.17-5.2-8.53-1.05-.4-2.99-.6-3.48.73s.41,3.64.91,4.91c.74,1.89,1.82,3.54,3.16,5.06,1.09,1.23,3.52,4.12,1.17,5.46l.91.12c-4.01-4.36-5.53-10.29-9.02-15-1.81-2.44-4.17-4.32-6.28-6.49-2.24-2.3-3.67-5.13-5.57-7.69-1.68-2.26-3.82-4.1-6.4-5.28-1.14-.52-2.33-.92-3.56-1.17-1.48-.3-3.99.04-5.06-1.16-1.43-1.6,1.18-2.13,2.28-2.11,1.52.03,3.06.29,4.55.6,2.8.59,5.53,1.53,8.08,2.81s5.07,2.95,7.26,4.9c1.07.95,2.08,1.97,3.01,3.05s1.65,2.27,2.74,3.11c1.53,1.19,4.37,1.18,4.86-1.11.52-2.42-1.29-5.53-2.78-7.28-.99-1.16-2.21-2.07-3.33-3.08-1.25-1.13-2.28-2.45-3.38-3.7-1.87-2.12-4.09-3.85-6.61-5.13-4.98-2.53-10.63-3.42-16.15-3.69-3.56-.18-7.25-.08-10.6,1.27-3.09,1.24-5.58,3.5-7.89,5.83-.84.85-2.25,1.89-1.97,3.27.21,1.05,1.32,1.73,2.34,1.76,1.56.05,2.78-1.17,4.19-1.64,1.88-.63,3.91-.37,5.64.57l-.15-1.18c-1.12,1.38-2.23,2.76-3.35,4.14-.61.75-1.22,1.51-1.83,2.26-.42.52-.95,1.05-1.19,1.68-.36.94.03,1.83,1,2.14,1.45.46,3.11-.26,4.44-.74,3.26-1.19,6.73-1.65,10.18-1.28,1.62.17,3.67.43,4.91,1.61.99.94,1.36,2.43,1.15,3.75-.52,3.33-4.08,3.7-6.83,3.59-3.75-.15-7.48-.79-11.08-1.85-5.99-1.77-12.03-4.77-18.43-3.28-2.04.47-5.45,1.77-6.15,4-.76,2.41,2.23,2.74,3.84,2.51,7.28-1.02,14.32-.19,21.41,1.64,3.32.86,6.59,1.9,9.88,2.89,2.46.74,5.03,1.01,7.49,1.77,1.47.45,2.71,1.15,3.82,2.19,1.01.95,1.94,2.04,3.16,2.76.88.52,2.11,1,3.09.45.89-.5.99-1.56.62-2.43-.51-1.21-1.66-2.24-2.61-3.12-1.15-1.07-2.42-1.99-3.76-2.79-.96-.58-2.77-1.42-2.7-2.77.1-1.79,2.55-1.71,3.64-1.06,1.29.78,2.19,2.14,3.03,3.35,1.06,1.54,1.98,3.16,2.84,4.81,1.66,3.21,3.3,6.4,5.21,9.47,1.8,2.9,3.73,5.72,5.72,8.5s4.52,5.59,5.54,8.98,1.23,6.88,1.71,10.29c.26,1.8.51,3.61.77,5.41.21,1.44.15,3.42,1.01,4.68,1.39,2.05,3.47.25,3.87-1.5.7-3.03.38-6.6.03-9.66-.37-3.3-1.09-6.56-2.17-9.71-.46-1.32-.98-2.62-1.55-3.89-.37-.81-.8-1.59-1.17-2.4-.31-.68-.65-1.15.06-1.59s.79.15,1.16.72c3.79,5.78,7.73,12,8.3,19.06s-3.2,13.37-6.72,19.14c-1.87,3.05-3.91,5.99-6.12,8.81-1.34,1.7-3.78,4.47-2.52,6.81,1.2,2.22,4.6.16,6.07-.74,2.36-1.45,4.3-3.47,5.93-5.69,3.67-5,6.13-11.22,7.38-17.27.61-2.95,1.05-6.05.75-9.06s-1.12-5.77-2-8.56c-.69-2.2-1.54-4.41-1.9-6.71-.15-.95-1.59-.55-1.45.4Z"/>
      </g>
      <g>
        <path class="q" d="M197.95,216.61c1.22-.32,1.52,1.76,1.57,3.02.01.26-.01.54-.17.75-.18.24-.48.33-.77.41-5.06,1.42-10.22,2.51-15.42,3.26-2.14.31-4.4.6-6.1,1.94,6.45.74,12.96-.45,19.32-1.81,7.98-1.71,15.9-3.7,23.66-6.21,5.19-1.68,10.62-3.82,13.79-8.26.88-1.24,1.56-2.62,2.34-3.93,2.05-3.44,4.89-6.43,6.41-10.14-3.1.1-5.68,2.39-7.63,4.8-1.95,2.41-3.67,5.14-6.32,6.77.03-2.15.15-4.3.35-6.44.05-.54.12-1.1.42-1.55.27-.4.7-.66,1.07-.98.92-.81,1.44-2.06,1.35-3.29-2.98,1.79-5.96,3.58-8.93,5.37-1.73,1.04-3.54,2.16-4.49,3.94,2.37.33,4.37-2.04,6.77-2.11.26,0,.54.02.74.19.22.19.27.5.3.78.33,3.07-.92,6.27-3.25,8.31-1.25,1.09-2.75,1.85-4.25,2.54-3.24,1.49-6.59,2.75-10.01,3.77-.98.29-2,.57-3.01.38-1-.18-1.97-.96-2.04-1.98-.08-1.27,1.16-2.19,2.32-2.73,2.56-1.19,5.59-1.93,7.2-4.25-5.18-1.43-10.59.73-15.53,2.84-2.59,1.11-5.19,2.23-7.69,3.53.07.97,1.24,1.4,2.21,1.51,1.94.22,3.92.07,5.8-.43Z"/>
        <path class="e" d="M198.15,217.34c.43-.06.71,2.04.62,2.3-.27.82-2.46,1-3.15,1.18-2.24.57-4.49,1.08-6.76,1.52s-4.46.77-6.7,1.11c-1.94.29-3.86.71-5.47,1.89-.62.45-.38,1.32.38,1.4,5.5.59,11.01-.13,16.41-1.2s10.83-2.34,16.18-3.76c4.9-1.3,9.86-2.64,14.58-4.51,3.8-1.5,7.53-3.55,10.02-6.89,1.67-2.24,2.85-4.81,4.47-7.1s3.38-4.62,4.5-7.27c.2-.48-.02-1.17-.65-1.13-7.05.43-9.1,8.32-14.33,11.67l1.13.65c.02-1.32.07-2.64.16-3.96.07-1.17-.09-2.99.76-3.89.61-.65,1.29-1.07,1.72-1.89s.57-1.63.55-2.51c-.01-.56-.63-.95-1.13-.65-2.76,1.66-5.53,3.32-8.29,4.99-2.05,1.23-4.16,2.46-5.4,4.59-.3.53.09,1.08.65,1.13,1.69.15,3.08-.69,4.54-1.41.45-.22,2-1.07,2.5-.57.42.42-.03,2.45-.14,2.96-1.01,4.62-5.03,6.55-9.01,8.23-2.11.89-4.27,1.69-6.46,2.39-1.04.33-2.18.79-3.28.82-1.35.04-2.9-1.03-1.67-2.38s3.36-1.73,4.92-2.44,2.97-1.64,4.02-3.06c.29-.39-.02-.99-.45-1.1-4.07-1.04-8.17-.16-12.03,1.26s-7.97,3.23-11.76,5.19c-.31.16-.41.53-.34.85.26,1.36,1.59,1.88,2.83,2.04,2.03.27,4.12.05,6.1-.44.94-.23.54-1.68-.4-1.45-1.33.33-2.66.51-4.03.5-.87,0-2.84.09-3.05-1.05l-.34.85c3.54-1.83,7.24-3.46,10.96-4.87s7.71-2.45,11.68-1.43l-.45-1.1c-1.22,1.65-3.19,2.42-5.03,3.17-1.45.6-3.21,1.17-4.11,2.56s-.44,2.91.84,3.78c1.63,1.11,3.64.48,5.35-.05,4.14-1.28,8.59-2.77,12.28-5.09,3.19-2,5.25-5.47,5.16-9.28-.12-5.32-6.07-.15-8.61-.38l.65,1.13c1.26-2.17,3.64-3.32,5.71-4.56,2.48-1.49,4.96-2.98,7.44-4.48l-1.13-.65c.03,1.27-.47,2.17-1.41,2.99-.69.6-1.13,1.11-1.32,2.03-.48,2.32-.41,4.88-.46,7.24-.01.55.65.95,1.13.65,2.55-1.63,4.24-4.07,6.09-6.41s4.26-4.86,7.48-5.06l-.65-1.13c-.93,2.18-2.25,4.12-3.63,6.05s-2.71,3.97-3.91,6.08c-2.29,4.02-5.8,6.49-10.02,8.23s-9.11,3.1-13.73,4.35c-5.1,1.39-10.25,2.6-15.42,3.69-5.98,1.26-12.05,2.24-18.16,1.58l.38,1.4c2.35-1.73,5.5-1.77,8.28-2.22,3.14-.51,6.27-1.15,9.36-1.92,1.32-.33,2.95-.52,4.16-1.14.88-.45,1.06-1.17.99-2.12-.1-1.53-.56-3.63-2.5-3.34-.95.14-.55,1.58.4,1.45Z"/>
      </g>
      <g>
        <path class="q" d="M76.15,181.56c.78-1.44-.44-2.38-2.07-2.46-2.23-.11-4.12,1.53-5.72,3.09-2.91,2.83-5.8,5.74-7.92,9.21-2.12,3.46-3.42,7.57-2.87,11.59.4,2.94,1.75,5.66,3.17,8.26,2.13,3.9,4.49,7.7,7.5,10.96,4.79,5.17,11.07,8.77,17.65,11.28,6.58,2.51,13.5,4.01,20.39,5.49,4.9,1.05,9.93,2.11,14.88,1.31-4.51-3.37-10.57-3.45-16.14-4.36-3.73-.61-7.37-1.65-10.98-2.76-3.27-1-7.07-2.67-7.57-6.05,4.51-2.03,9.62.46,14.18,2.39,16.8,7.12,35.68,6.82,53.92,6.4h.65c3.46-.17,4.87-.23,8.34-.41,3.64-.18,7.42-.4,10.61-2.15.28-.15.58-.36.62-.68.03-.26-.14-.51-.31-.71-.69-.78-1.3-1.31-2.34-1.45h-.37c-6.62.09-14.52,1.2-21.55-.51,2.76-3.14,7.77-2.26,11.82-3.33.83-.22,1.78-.73,1.78-1.58,0-1.3-1.89-1.44-3.16-1.16-7.26,1.6-14.78,2.02-22.18,1.25-.82-.09-1.84-.38-1.94-1.2-.12-1.02,1.27-1.44,2.31-1.45,8.85-.06,18.1,1.33,26.25-2.1.2-.08.4-.17.55-.32.86-.86-.65-2.07-1.85-2.28-7.06-1.24-14.3-.01-21.47.07-9.37.12-18.64-1.72-27.83-3.54-3.51-.7-7.04-1.4-10.33-2.82-5.84-2.52-10.55-7.16-16.28-9.93-.77-.37-1.61-.72-2.47-.63s-1.71.77-1.7,1.63c0,.62.43,1.14.85,1.59,5.33,5.81,12.82,9.12,20.28,11.64,9.06,3.06,18.43,5.19,27.92,6.35.04.97-1.24,1.35-2.21,1.4-2.81.16-5.63.33-8.44.49,1.7,3.72,6.64,4.33,10.73,4.41,3.56.07,7.12.14,10.69.22,1.4.03,3.13.27,3.61,1.59-1.47.37-2.97.62-4.48.81-21.69,2.82-43.86-4.51-61.95-16.81-2.1-1.43-4.17-2.94-5.88-4.82-4.07-4.5-5.55-11.75-2.08-16.72,2.1-3.01,5.73-4.93,7.09-8.35-5.39.33-10.39,3.98-12.53,8.93-2.14,4.96-1.4,11,1.72,15.4,3.21,4.53,8.46,7.13,12.37,11.07.76.76,1.51,1.72,1.4,2.78-.13,1.2-1.38,2.04-2.59,2.1-1.21.06-2.37-.47-3.44-1.04-5.62-2.99-10.51-7.56-13.23-13.31-2.73-5.75-3.13-12.71-.45-18.49.59-1.28,1.34-2.52,2.37-3.49,2.87-2.73,8.77-3.33,10.66-6.81Z"/>
        <path class="e" d="M76.8,181.94c1.42-3.11-2.51-4.07-4.8-3.25-1.62.59-2.95,1.79-4.17,2.97-1.41,1.36-2.8,2.75-4.11,4.2-5.24,5.83-8.86,13.37-5.83,21.17,1.46,3.75,3.62,7.36,5.88,10.68s4.81,6.21,7.89,8.68c6.12,4.92,13.46,7.96,20.96,10.1,4.68,1.33,9.44,2.35,14.2,3.37s9.65,1.89,14.57,1.16c.71-.11.64-1.04.18-1.37-5.26-3.81-12.06-3.55-18.17-4.77-3.4-.68-6.8-1.61-10.08-2.73-2.57-.88-5.55-2.27-6.09-5.22l-.52.92c3.92-1.65,8.03-.05,11.71,1.5s7.44,3.01,11.35,4.05c7.85,2.1,15.98,2.98,24.09,3.29,7.84.3,15.75.25,23.59-.14,3.68-.18,7.42-.2,11.08-.71,1.64-.23,9-1.45,6.53-4.41-1.04-1.25-2.27-1.7-3.85-1.66-2.14.05-4.29.18-6.43.28-4.78.22-9.62.32-14.31-.78l.33,1.25c2.21-2.37,5.68-2.28,8.66-2.64,1.58-.19,6.63-.95,4.88-3.76-.56-.9-1.78-1.11-2.76-1.06-1.76.08-3.54.66-5.27.93-4.07.64-8.21.89-12.34.79-1.03-.03-2.06-.08-3.08-.15-.74-.05-2.35.1-2.96-.33-1.13-.81.57-1.01,1.18-1.02,1.04-.02,2.08,0,3.11.03,3.79.09,7.59.29,11.38.14s7.29-.64,10.71-1.9c1.03-.38,2.55-.85,2.35-2.24-.16-1.15-1.46-1.91-2.48-2.18-3.72-.97-7.97-.68-11.77-.49-4.08.21-8.15.57-12.24.49-8.43-.16-16.73-1.78-24.98-3.41-3.93-.78-7.94-1.53-11.59-3.28-3.26-1.56-6.17-3.73-9.14-5.77-1.52-1.04-3.06-2.06-4.67-2.94-1.33-.73-2.96-1.74-4.55-1.49-1.1.18-2.15,1.02-2.23,2.19-.1,1.48,1.39,2.68,2.35,3.61,5.06,4.85,11.59,7.81,18.13,10.1,7.61,2.66,15.47,4.64,23.42,5.94,1.95.32,3.91.6,5.88.84l-.75-.75c-.09,1.03-4.04.8-4.68.84-1.74.1-3.48.2-5.21.3-.59.03-.9.6-.65,1.13,1.77,3.62,6.06,4.49,9.72,4.72,2.65.17,5.31.14,7.96.19,1.51.03,3.02.03,4.52.09,1.05.04,2.32.14,2.81,1.21l.45-1.1c-6.87,1.68-14.3,1.7-21.31,1.01-7.03-.69-13.96-2.34-20.62-4.7s-13.15-5.5-19.23-9.2-12.31-7.41-13.9-14.5c-.76-3.4-.21-7.04,2.07-9.76s5.18-4.43,6.54-7.63c.2-.47-.02-1.18-.65-1.13-6.86.52-12.85,5.7-14.19,12.49-.7,3.57-.21,7.3,1.33,10.59s4.37,5.91,7.27,8.17c1.47,1.14,2.97,2.24,4.4,3.44,1.16.96,4.85,3.64,2.73,5.18-1.71,1.24-4.11-.39-5.61-1.27-1.68-.99-3.28-2.13-4.76-3.41-6.06-5.27-9.91-13.07-8.83-21.21.31-2.33,1.02-4.67,2.22-6.7,1.05-1.78,2.48-2.88,4.3-3.77,2.83-1.38,6.35-2.31,8.04-5.21.49-.84-.81-1.59-1.3-.76-1.59,2.74-5.29,3.53-7.92,4.89-3.42,1.75-5.27,4.94-6.26,8.57-2.15,7.85.44,16.19,5.66,22.23,2.51,2.9,5.59,5.31,8.94,7.16,1.55.85,3.37,1.78,5.18,1.28,1.4-.39,2.57-1.6,2.49-3.11-.1-1.8-1.83-3.18-3.07-4.28-1.45-1.27-3-2.42-4.52-3.59-3.29-2.53-6.53-5.29-8.06-9.27-1.66-4.32-1.4-9.35,1.09-13.3,2.35-3.73,6.45-6.28,10.86-6.61l-.65-1.13c-1.31,3.07-4.22,4.84-6.3,7.32-1.97,2.35-2.92,5.27-2.83,8.32s1.14,6.09,2.87,8.6c2.07,3.01,5.11,5.15,8.1,7.15,12.4,8.29,26.59,14.25,41.42,16.28,8.13,1.11,16.85,1.28,24.87-.69.51-.12.64-.68.45-1.1-.79-1.72-2.83-1.92-4.51-1.96-3-.07-5.99-.12-8.99-.18-3.92-.08-9.52.05-11.54-4.07l-.65,1.13c2.73-.16,5.46-.29,8.19-.48,1.44-.1,3.05-.49,3.21-2.17.04-.44-.38-.7-.75-.75-7.68-.95-15.28-2.54-22.71-4.74-6.5-1.93-13.08-4.17-18.8-7.89-1.33-.86-2.6-1.8-3.8-2.84-.62-.54-1.22-1.11-1.8-1.7-.31-.32-.68-.66-.93-1.03-.59-.89.23-1.56,1.1-1.52,1.58.07,3.33,1.38,4.63,2.17,1.45.88,2.86,1.85,4.25,2.82,2.78,1.93,5.57,3.91,8.67,5.31,3.32,1.5,6.88,2.27,10.44,2.98,7.34,1.46,14.72,2.94,22.2,3.46s15.02-.67,22.55-.4c1.71.06,3.67.05,5.31.57.24.07.96.36,1.06.63.22.62-.46.62-.88.78-.95.37-1.93.66-2.92.91-3.35.84-6.82,1.05-10.26,1.06s-7.15-.2-10.72-.22c-1.13,0-2.4-.1-3.42.51-.91.55-1.29,1.67-.64,2.59.8,1.12,2.56,1.08,3.78,1.18,2.05.17,4.11.25,6.16.24,4.18-.02,8.36-.42,12.47-1.18.9-.17,1.8-.44,2.7-.54.61-.07,2.73.18,1.35,1.07-1.26.81-3.36.76-4.8.91-2.92.3-5.99.64-8.1,2.91-.37.4-.24,1.12.33,1.25,3.72.87,7.54,1.04,11.35.95,1.85-.04,3.7-.14,5.55-.23,1.63-.08,3.4-.35,5.03-.18.57.06,1.75.5,1.78,1.2s-2.12,1.18-2.79,1.37c-1.84.51-3.74.71-5.65.83-3.38.22-6.8.44-10.19.51-15.17.31-30.66.73-45.43-3.32-4.08-1.12-7.93-2.73-11.84-4.32-3.66-1.49-7.75-2.73-11.58-1.12-.4.17-.6.48-.52.92.49,2.67,2.68,4.37,5.03,5.43,3.11,1.42,6.58,2.26,9.89,3.05,3.51.84,7.06,1.2,10.62,1.76,3.37.52,6.69,1.35,9.5,3.38l.18-1.37c-4.05.61-8.12,0-12.1-.81-3.71-.75-7.42-1.56-11.09-2.46-6.84-1.67-13.63-3.8-19.75-7.35s-10.76-8.29-14.41-14.23c-1.88-3.05-3.85-6.31-4.85-9.77-1.05-3.66-.48-7.45,1.09-10.87s4.18-6.48,6.87-9.22c1.31-1.33,2.62-2.78,4.14-3.86.83-.59,1.78-1.1,2.82-1.15.79-.04,2.33.2,1.81,1.33-.4.87.89,1.63,1.3.76Z"/>
      </g>
      <g>
        <path class="q" d="M204.09,230.32c-4.5.94-8.94,2.13-13.41,3.2-1.13.27-2.87.05-2.74-1.1.07-.66.8-1.02,1.42-1.25,3.49-1.28,7.06-2.37,10.67-3.25,3.84-.94,7.74-1.66,11.51-2.83,8.06-2.51,15.31-7.05,22.47-11.54,5.2-3.27,10.47-6.59,14.65-11.1,1.52-1.64,3.02-3.52,5.19-4.08.8,1.5-.14,3.3-1.12,4.69-4.97,7.01-11.7,12.77-19.39,16.61-.82.41-1.69.83-2.24,1.56s-.65,1.9.05,2.5c.38.32.9.42,1.4.4,1.76-.07,3.22-1.35,4.91-1.82s4.11.71,3.57,2.39c-.21.64-.8,1.07-1.35,1.46-1.73,1.22-3.47,2.43-5.25,3.57-18.12,11.56-40.41,14.51-61.9,14.72-12.3.12-24.6-.57-36.81-2.06-.95-.12-2.21-1.07-1.49-1.7.21-.18.51-.2.78-.22,23.08-1.18,46.4.61,69.17-3.29,7.22-1.24,14.55-3.13,20.47-7.44,1.35-.98,2.76-2.47,2.35-4.09-2.54-.82-5.24.31-7.74,1.21-5.15,1.86-9.54,2.28-15.17,3.45Z"/>
        <path class="e" d="M203.89,229.6c-3.21.68-6.4,1.47-9.58,2.26-1.35.34-2.79.86-4.18,1-.18.02-.4.03-.59,0-.52-.05-.66.02-.55-.46.15-.67,1.78-.94,2.41-1.16,5.93-2.04,12.04-3.16,18.07-4.78,5.57-1.49,10.8-3.92,15.81-6.75s9.91-5.88,14.66-9.09c2.59-1.75,5.12-3.63,7.4-5.78,2.06-1.94,3.88-4.91,6.71-5.75l-.85-.34c.86,1.96-1.36,4.32-2.47,5.75-1.22,1.56-2.53,3.05-3.92,4.46-2.78,2.82-5.87,5.33-9.22,7.45-1.61,1.02-3.29,1.91-4.98,2.79-1.28.66-2.61,1.6-2.69,3.18-.07,1.38.89,2.4,2.26,2.49,1.79.13,3.27-1,4.86-1.62.79-.31,1.61-.41,2.41-.04,1.17.54.97,1.45.06,2.16-1.84,1.42-3.84,2.7-5.81,3.94-3.35,2.11-6.87,3.95-10.51,5.52-7.49,3.25-15.44,5.35-23.48,6.71-17,2.87-34.61,2.66-51.76,1.33-2.37-.18-4.74-.4-7.1-.64-1.06-.11-2.12-.22-3.18-.35-.58-.07-1.18-.1-1.76-.22-.25-.05-.48-.09-.7-.21-.72-.4-.2-.16.04-.23.99-.28,2.38-.11,3.41-.15,1.14-.04,2.28-.08,3.42-.11,2.36-.07,4.72-.11,7.09-.15,9.21-.13,18.41-.07,27.62-.37,9.07-.29,18.15-.94,27.11-2.44,4.07-.68,8.13-1.54,12.02-2.93,3.53-1.26,7.43-2.93,10.19-5.54,1.17-1.11,1.9-2.43,1.62-4.07-.04-.25-.29-.46-.52-.52-3.92-1.09-7.79,1.27-11.48,2.27-3.89,1.05-7.89,1.59-11.83,2.4-.94.19-.54,1.64.4,1.45,3.66-.75,7.38-1.27,11.01-2.18,1.85-.47,3.63-1.09,5.43-1.73,1.97-.7,3.99-1.34,6.08-.75l-.52-.52c.38,2.27-2.91,3.94-4.52,4.89-1.86,1.09-3.82,1.98-5.84,2.72-4.01,1.47-8.21,2.37-12.42,3.08-9.55,1.6-19.24,2.2-28.91,2.45-9.61.25-19.23.17-28.84.36-2.44.05-4.88.12-7.33.21-1.13.04-2.29.04-3.41.15-.6.06-1.18.16-1.53.71-1.99,3.12,6.98,3.25,8.1,3.36,17.95,1.8,36.37,2.28,54.28-.17,8.3-1.13,16.53-3,24.37-5.99,3.88-1.48,7.67-3.23,11.29-5.28,1.89-1.07,3.73-2.24,5.53-3.46.94-.64,1.88-1.29,2.81-1.95.62-.44,1.3-.89,1.68-1.57.65-1.15.18-2.44-.84-3.17-1.23-.88-2.78-.91-4.15-.38-.77.3-1.49.72-2.24,1.06-.86.39-3.44,1.04-2.8-.82.34-.97,1.55-1.42,2.39-1.85.97-.49,1.93-1.01,2.88-1.57,3.41-2,6.6-4.38,9.48-7.08s5.69-5.65,7.66-8.99c.86-1.46,1.28-3.01.57-4.6-.13-.29-.56-.43-.85-.34-2.66.79-4.27,3-6.12,4.91-2.3,2.37-4.91,4.4-7.62,6.27-5.26,3.63-10.77,7.05-16.37,10.14-6,3.31-12.17,5.59-18.84,7.1-3.36.76-6.7,1.53-10,2.53-1.7.51-3.4,1.07-5.07,1.68-.97.36-2.19.77-2.4,1.94-.51,2.85,3.69,2.02,5.1,1.68,3.99-.97,7.96-2.01,11.97-2.85.94-.2.54-1.64-.4-1.45Z"/>
      </g>
      <path class="m" d="M94.81,290.51c-13.01-4.06-25.24-10.35-36.21-18.43s-20.45-17.74-28.46-28.56c-8.17-11.04-14.81-23.22-19.7-36.05-2.75-7.21-5.11-14.66-6.45-22.27-1.55-8.78-1.23-17.74.27-26.49s4.07-17.42,6.69-25.96c2.44-7.96,5.01-15.89,7.87-23.72,5.72-15.66,12.61-31.07,22.07-44.85,8.79-12.8,19.78-24.16,32.29-33.37,12.5-9.19,26.47-16,41.32-20.44s30.2-6.61,45.62-7.2,31.1.18,46.36,2.53c16.99,2.61,33.11,9.86,47.43,19.19,14.6,9.52,28.24,20.66,40.87,32.65,11.72,11.13,22.8,23.39,28.76,38.66s7.03,31.19,5.32,46.99c-1.84,16.91-7.24,33.29-13.9,48.87-3.41,7.98-7.17,15.82-11.02,23.59-3.78,7.63-7.49,15.33-11.68,22.75s-8.75,13.94-14.73,19.67c-5.52,5.29-11.82,9.69-18.45,13.47s-13.74,7.06-20.88,10c-7.93,3.28-15.96,6.33-24.08,9.09-16.64,5.65-33.84,10.01-51.39,11.47-16.53,1.38-33.38.22-49.32-4.54-3.83-1.14-7.62-2.48-11.29-4.06-2.45-1.05-4.76-2.2-7.29-3-1.85-.58-2.64,2.31-.8,2.89,2.75.87,5.29,2.17,7.96,3.28,3.88,1.61,7.86,2.99,11.91,4.15,8.09,2.31,16.44,3.72,24.82,4.38,17.38,1.37,34.87-.63,51.8-4.61,17.26-4.06,34.07-10.08,50.39-16.96,14.37-6.05,28.61-13.34,39.77-24.45,5.91-5.89,10.58-12.8,14.62-20.06,4.26-7.66,8.08-15.57,11.96-23.43,7.82-15.84,15.21-32.02,20.01-49.07,4.47-15.89,6.55-32.63,4.58-49.09-.97-8.06-2.86-16-5.95-23.52s-7.4-14.5-12.46-20.93-11.1-12.57-17.2-18.32c-6.46-6.09-13.18-11.91-20.13-17.43-13.75-10.92-28.26-21.05-44.63-27.64-8.15-3.28-16.62-5.85-25.33-7.07-7.77-1.09-15.6-1.84-23.44-2.26-15.79-.85-31.68-.3-47.31,2.2-15.48,2.47-30.68,6.96-44.72,13.98-14.13,7.07-26.96,16.8-37.85,28.22-11.31,11.85-20.26,25.57-27.29,40.34-7.38,15.49-12.88,31.79-17.88,48.18-2.68,8.77-5.24,17.63-6.62,26.71s-1.45,17.98.24,26.91c2.73,14.47,8.52,28.68,15.64,41.54,6.72,12.14,15.11,23.41,24.97,33.19,9.78,9.7,21.03,17.97,33.35,24.16,6.04,3.04,12.34,5.58,18.79,7.59,1.85.58,2.64-2.32.8-2.89Z"/>
    </g>
  </g>
</svg>