<?xml version="1.0" encoding="UTF-8"?>
<svg id="Layer_2" xmlns="http://www.w3.org/2000/svg" width="332.55" height="306.76" viewBox="0 0 332.55 306.76">
  <defs>
    <style>
      .cls-1 {
        fill: #009f31;
      }

      .cls-2 {
        fill: #2e3192;
      }

      .cls-3 {
        fill: #948a00;
      }

      .cls-4 {
        fill: #534741;
      }

      .cls-5 {
        fill: #c69c6d;
      }

      .cls-6 {
        fill: #ffd6bf;
      }

      .cls-7 {
        fill: #fff9bc;
      }

      .cls-8 {
        fill: #005504;
      }

      .cls-9 {
        fill: #c7b299;
      }

      .cls-10 {
        fill: #f0f;
      }

      .cls-11 {
        fill: #f7931e;
      }

      .cls-12 {
        fill: #ed1c24;
      }

      .cls-13 {
        fill: #e9ff74;
      }

      .cls-14 {
        fill: #c9e6ff;
      }
    </style>
  </defs>
  <g id="Layer_2-2" data-name="Layer_2">
    <g id="Dimensions">
      <path class="cls-10" d="M95.39,14.56c-26.18,8.15-48.71,25.1-65.1,46.94-8.25,11-14.88,23.16-19.84,35.98-2.81,7.26-5.22,14.77-6.58,22.44-1.54,8.7-1.3,17.44.21,26.13s4.19,17.41,6.89,25.94,5.2,16.43,8.08,24.55c5.59,15.73,12.33,31.16,21.93,44.9,17.92,25.65,44.03,44.43,73.79,53.92,30.07,9.59,62.72,10.11,93.5,3.74,8.57-1.78,17.05-4.14,25.14-7.51s15.18-7.44,22.23-12.1c14.37-9.5,27.84-20.48,40.31-32.35,11.67-11.11,22.42-23.38,28.34-38.58s7.03-31.5,5.22-47.37c-1.92-16.85-7.28-33.03-13.94-48.56-3.44-8.03-7.24-15.9-11.14-23.72s-7.52-15.35-11.78-22.74c-4.04-7.02-8.78-13.62-14.67-19.21-5.56-5.27-11.9-9.69-18.56-13.48-14.18-8.06-29.82-13.91-45.24-19.11C182.18,3.58,147.08-2.15,114.04,7.54c-3.81,1.12-7.55,2.44-11.21,3.97-2.49,1.04-4.86,2.24-7.43,3.05-1.84.58-1.05,3.47.8,2.89,2.53-.79,4.83-1.95,7.27-2.98,3.71-1.57,7.51-2.91,11.38-4.04,7.87-2.31,15.98-3.75,24.15-4.41,16.6-1.35,33.28.41,49.48,4.12,16.67,3.81,32.88,9.53,48.68,16.02,13.86,5.7,27.74,12.49,38.72,22.91,11.96,11.34,18.74,26.82,25.98,41.34,7.54,15.12,14.74,30.51,19.59,46.74,4.61,15.43,6.95,31.6,5.36,47.69-1.56,15.85-7.35,30.65-17.18,43.19-4.96,6.33-10.61,12.07-16.44,17.59-6.22,5.88-12.68,11.5-19.36,16.84-12.96,10.36-26.84,20.41-42.31,26.67-15.13,6.13-31.66,9.17-47.88,10.51-15.23,1.25-30.66.77-45.74-1.79-30.27-5.13-58.62-18.75-80.15-40.84-11.07-11.36-19.91-24.55-26.69-38.87-7.19-15.18-12.23-31.26-17.28-47.24-5.27-16.68-10.18-33.79-6.79-51.38,2.68-13.9,8.22-27.5,15.09-39.84,12.91-23.2,32.19-42.93,56.01-54.92,5.82-2.93,11.88-5.36,18.1-7.3,1.84-.57,1.05-3.47-.8-2.89Z"/>
      <g>
        <path class="cls-7" d="M96.38,18.91C54.12,31.98,22.87,68.01,10.15,110.38c-1.78,5.93-3.16,12.02-3.58,18.2-1.02,14.92,3.54,29.59,8.05,43.84,6.54,20.68,13.2,41.58,24.46,60.11,10.77,17.73,25.66,32.95,43.16,44.11,35.42,22.59,80.2,27.61,121.46,19.69,9.8-1.88,19.51-4.46,28.67-8.42,10.12-4.37,19.46-10.36,28.39-16.81,11.1-8.02,21.66-16.79,31.57-26.24,8.99-8.58,17.56-17.84,23.45-28.78,11.17-20.76,11.72-45.92,6.4-68.89-5.32-22.96-16.05-44.26-26.69-65.29-4.57-9.03-9.19-18.15-15.71-25.89-12.28-14.58-30.19-23.05-47.9-30.09-21.3-8.47-43.36-15.55-66.16-17.92-22.8-2.37-46.49.19-67.1,10.22l-2.22.7Z"/>
        <path class="cls-11" d="M95.99,17.46c-25.74,8.02-47.89,24.68-64.01,46.15-8.11,10.81-14.63,22.77-19.51,35.37-2.76,7.13-5.13,14.52-6.47,22.06-1.51,8.56-1.27,17.15.21,25.7s4.12,17.11,6.77,25.5,5.11,16.15,7.95,24.13c5.5,15.46,12.12,30.64,21.56,44.14,17.62,25.22,43.29,43.68,72.55,53.02,29.56,9.43,61.67,9.94,91.93,3.67,8.43-1.75,16.76-4.07,24.71-7.39s14.93-7.31,21.86-11.9c14.12-9.34,27.37-20.14,39.63-31.8,11.48-10.92,22.04-22.99,27.87-37.94s6.91-30.97,5.13-46.57c-1.89-16.57-7.16-32.47-13.71-47.74-3.38-7.89-7.12-15.63-10.95-23.32s-7.39-15.09-11.58-22.35-8.63-13.39-14.43-18.89c-5.47-5.19-11.71-9.53-18.25-13.25-13.94-7.93-29.32-13.68-44.48-18.79-31.47-10.6-65.98-16.23-98.47-6.7-3.74,1.1-7.42,2.4-11.02,3.9-2.45,1.02-4.78,2.2-7.31,3-1.84.58-1.05,3.47.8,2.89,2.49-.78,4.75-1.92,7.15-2.93,3.64-1.54,7.38-2.86,11.18-3.97,7.73-2.27,15.7-3.69,23.73-4.34,16.32-1.33,32.71.41,48.63,4.04,16.39,3.74,32.33,9.37,47.86,15.75,13.62,5.6,27.27,12.28,38.05,22.51,11.75,11.15,18.42,26.37,25.53,40.63,7.41,14.87,14.49,29.99,19.25,45.94s6.83,31.06,5.27,46.88-7.22,30.11-16.88,42.44c-4.87,6.22-10.43,11.87-16.16,17.29-6.11,5.78-12.46,11.31-19.03,16.56-12.74,10.18-26.38,20.05-41.58,26.21s-31.11,9.02-47.06,10.33c-14.97,1.23-30.13.76-44.95-1.76-29.75-5.04-57.62-18.43-78.78-40.14-10.89-11.17-19.57-24.13-26.23-38.2-7.06-14.92-12.02-30.72-16.99-46.44s-10-33.21-6.67-50.5c2.63-13.66,8.08-27.03,14.83-39.15,12.69-22.8,31.64-42.19,55.05-53.98,5.72-2.88,11.67-5.27,17.79-7.17,1.84-.57,1.05-3.47-.8-2.89Z"/>
      </g>
      <g>
        <g>
          <path class="cls-5" d="M28.56,141.17c2.56,9.26,5.02,18.56,8.68,27.44.57,1.38,1.17,2.78,2.07,3.97,2.09,2.79,5.83,4.24,9.25,3.56s6.32-3.49,7.08-6.89c.65-2.89-.17-5.88-1.05-8.71-2.72-8.73-6.16-17.23-10.27-25.4-1.18-2.34-2.83-4.95-5.44-5.16-.95-.08-1.9.19-2.81.48-2.23.72-4.48,1.64-6.11,3.32s-1.96,5.34-1.4,7.38Z"/>
          <path class="cls-4" d="M27.84,141.37c2.49,9.02,4.89,18.09,8.41,26.78,1.43,3.53,3.1,6.68,6.81,8.18,3.2,1.29,6.84.85,9.59-1.24,2.99-2.28,4.29-5.8,3.88-9.5-.48-4.37-2.29-8.73-3.8-12.84s-3.24-8.35-5.11-12.42c-.92-2.02-1.86-4.04-2.9-6-.75-1.43-1.65-2.85-2.92-3.87-1.56-1.24-3.36-1.42-5.24-.9-2.12.58-4.31,1.43-6.06,2.78-2.71,2.07-3.47,5.83-2.66,9.05.23.94,1.68.54,1.45-.4-.74-2.94.07-6.12,2.64-7.83,1.45-.97,3.14-1.61,4.81-2.09,1.89-.54,3.38-.31,4.76,1.13,1.04,1.08,1.73,2.45,2.39,3.77.92,1.83,1.8,3.68,2.64,5.55,1.6,3.53,3.08,7.11,4.43,10.75s2.76,7.41,3.67,11.22c.85,3.56.61,7.22-2.21,9.85-2.38,2.22-5.78,2.82-8.8,1.63-3.81-1.5-5.18-5.21-6.56-8.76-3.19-8.21-5.45-16.74-7.79-25.22-.26-.93-1.7-.53-1.45.4Z"/>
        </g>
        <g>
          <path class="cls-9" d="M39.22,139.34c-1.61.71-3.52-.05-5.28-.07-.61,0-1.33-.08-1.62-.62-.22-.4-.09-.9.1-1.32,1.44-3.27,6.2-4.47,9.03-2.28.55.42,1.04,1,1.11,1.69.16,1.53-1.73,3.15-.75,4.33.73.89,2.28.3,3.24.93,1.31.85.49,2.95-.7,3.97s-2.78,2.02-2.76,3.59c0,.42.18.88.57,1.03.25.1.53.04.79-.01,1.29-.27,2.59-.54,3.88-.8.31.21.18.71-.08.98s-.63.45-.78.8c-.32.72.52,1.43,1.29,1.59s1.65.12,2.21.67c.65.64.5,1.7.31,2.59-.46,2.08-.92,4.16-1.38,6.24,1.57-.69,3.54.31,4.23,1.88s.27,3.47-.74,4.86-2.5,2.34-4.05,3.08c-.75.36-1.71.65-2.36.12-1.03-.84-.04-2.5,1.08-3.21s2.56-1.54,2.43-2.85c-1.45-.26-3,.07-4.21.91-.55.38-1.04.86-1.67,1.1s-1.46.12-1.77-.47c-.37-.7.2-1.53.8-2.05,1.38-1.2,3.28-2.27,3.38-4.1-1.06-.27-2.11.35-3.13.72s-2.45.33-2.88-.68c.69-1.29,2.07-2.02,3.24-2.9s2.28-2.2,2.01-3.64c-1.52,0-3.02.7-4.01,1.86-.42.49-.75,1.06-1.27,1.43-.79.56-1.95.52-2.71-.09s-1.03-1.74-.64-2.63c.44-1.02,1.55-1.56,2.29-2.39s.87-2.48-.2-2.78c-.5-.14-1.05.1-1.56-.02-1.06-.24-1.14-1.87-.39-2.66s1.9-1,2.92-1.35,2.12-1.03,2.24-2.11c-1.37-1.87-4.35-1.15-6.3.11-.87.56-2.27,1.08-2.73.15-.43-.85.62-1.67,1.49-2.05,1.78-.78,3.53-2.75,5.32-3.54Z"/>
          <path class="cls-4" d="M39.02,138.62c-1.22.45-2.4.2-3.64.04-.48-.06-.96-.09-1.44-.13-.78-.07-1.06-.25-.75-1.08.56-1.48,2.4-2.42,3.86-2.67s4.18.11,4.71,1.83c.46,1.5-1.5,2.8-.84,4.42.25.62.8,1.04,1.44,1.22.7.2,1.85-.07,2.39.47.78.76-.38,2.21-.93,2.72-.59.55-1.28.99-1.83,1.59-.88.95-1.69,2.59-.73,3.77.5.61,1.16.62,1.89.5,1.3-.22,2.59-.54,3.88-.8l-.73-.19c-.16-.21-.93.76-.98.87-.17.36-.21.8-.09,1.18.32,1.01,1.39,1.45,2.33,1.59.85.13,1.55.17,1.62,1.23.05.71-.25,1.53-.4,2.21-.37,1.68-.74,3.36-1.11,5.04-.11.51.35,1.13.92.92,2.02-.74,3.72,1.1,3.61,3.07-.12,2.14-1.77,3.72-3.52,4.73-.5.29-2.56,1.65-2.89.46-.22-.8,1.2-1.63,1.71-1.97,1.16-.76,2.23-1.64,2.23-3.13,0-.29-.23-.68-.55-.72-1.22-.17-2.39-.11-3.55.34-.57.22-1.07.53-1.56.88-.4.29-2.58,1.62-1.82-.03.44-.94,1.98-1.64,2.7-2.38s1.18-1.62,1.31-2.69c.03-.29-.25-.68-.55-.72-1.01-.16-1.81.05-2.76.41-.79.3-2.24,1-2.81-.03v.76c1.51-2.52,5.76-3.31,5.35-6.91-.04-.39-.31-.77-.75-.75-1.55.06-3,.6-4.14,1.67-.64.6-1.1,1.68-1.99,1.95-1.35.42-2.33-1.09-1.7-2.22.7-1.26,2.26-1.66,2.69-3.16.3-1.03.07-2.31-1.02-2.75-.62-.25-1.86.2-2.05-.6-.26-1.06,1.24-1.55,1.98-1.78,1.28-.41,2.71-.86,3.38-2.13s-.2-2.1-1.33-2.56c-1.22-.5-2.65-.33-3.86.1-.79.28-1.47.7-2.2,1.1-.37.2-.86.57-1.07.12-.24-.51.59-.75,1.01-.96,1.86-.94,3.27-2.55,5.15-3.45.87-.42.11-1.71-.76-1.3-1.93.93-3.41,2.55-5.32,3.54-1.18.61-2.73,1.98-1.56,3.37.98,1.16,2.64.34,3.68-.26,1.54-.89,3.89-1.8,5.25-.15l-.19-.73c-.34,1.64-2.54,1.72-3.8,2.32-1.06.51-1.86,1.38-1.89,2.61-.02.94.49,1.87,1.43,2.12.66.17,1.6-.35,1.79.49.18.78-.75,1.45-1.23,1.85-.97.81-1.85,1.71-1.82,3.06.03,1.17.74,2.24,1.81,2.69s2.41.2,3.28-.62c.56-.53.92-1.22,1.51-1.72.83-.71,1.86-1.06,2.94-1.1l-.75-.75c.19,1.72-1.29,2.75-2.54,3.63-1.02.72-1.96,1.44-2.61,2.52-.14.23-.13.52,0,.76.48.86,1.34,1.26,2.32,1.26,1.44,0,2.72-1.18,4.14-.96l-.55-.72c-.26,2.3-5.78,4-3.99,6.64.6.89,1.78,1,2.71.62.75-.3,1.31-.91,2.01-1.31,1-.58,2.15-.78,3.29-.62l-.55-.72c0,1.46-2.08,2.01-2.94,2.94-.63.68-1.16,1.67-.95,2.63.67,3.04,4.73.72,6.1-.28,2.16-1.56,3.84-4.18,3.09-6.93-.61-2.26-3.08-3.79-5.34-2.96l.92.92c.42-1.92.85-3.84,1.27-5.76.25-1.15.59-2.51-.18-3.54-.35-.47-.84-.74-1.4-.89-.48-.13-2.26-.07-1.95-.99.12-.37.7-.6.84-1.08.16-.55,0-.9-.32-1.33-.17-.21-.49-.24-.73-.19-1.08.22-2.3.65-3.39.7-.65.03-1.08,0-.75-.83.19-.48.56-.85.93-1.19,1.11-1.03,2.34-1.79,2.85-3.3.42-1.24.15-2.61-1.11-3.21-.65-.31-1.31-.18-1.97-.34-1.37-.33-.71-1.29-.32-2.21.59-1.37.61-2.67-.5-3.78-.97-.98-2.34-1.52-3.69-1.65-2.69-.26-5.63,1.11-6.84,3.59-.7,1.44-.29,2.85,1.38,3.15,1.01.18,2.09.2,3.12.33s2.08.15,3.09-.23c.9-.33.51-1.78-.4-1.45Z"/>
        </g>
      </g>
      <g>
        <path class="cls-13" d="M62.3,133.11c-1.35.17-3.04.7-3.86,1.53s-1.32,2.09-.94,3.21c.46,1.35,1.95,2.01,3.32,2.42.66.2,1.34.37,2.03.36,2.04-.04,3.85-2.01,3.7-4.05s-2.21-3.73-4.24-3.47Z"/>
        <path class="cls-3" d="M62.3,132.36c-1.98.27-4.18.93-5.18,2.82-.52.98-.68,2.13-.23,3.17.37.86,1.11,1.5,1.93,1.94,1.81.96,4.2,1.59,6.09.52,1.72-.98,2.77-3.07,2.26-5.03-.55-2.08-2.71-3.64-4.86-3.41-.4.04-.75.31-.75.75,0,.37.34.79.75.75,1.36-.15,2.67.61,3.25,1.86s.04,2.73-1.03,3.55c-1.32,1-2.94.55-4.36,0-1.28-.5-2.43-1.48-1.9-2.98.58-1.63,2.48-2.21,4.04-2.41.4-.05.75-.31.75-.75,0-.36-.35-.8-.75-.75Z"/>
      </g>
      <g>
        <path class="cls-13" d="M82.14,137.77c-1.65.1-3.43,1.47-4.44,2.53s-1.42,2.85-.5,3.99c.79.99,2.21,1.15,3.47,1.23.9.06,1.79.12,2.69.18,1.57.1,3.32.15,4.5-.9,1.49-1.32,1.21-3.91-.19-5.33s-3.54-1.83-5.53-1.7Z"/>
        <path class="cls-3" d="M82.14,137.02c-1.31.11-2.5.71-3.54,1.49-.95.72-1.86,1.53-2.33,2.65s-.48,2.38.19,3.38,1.9,1.45,3.09,1.61c1.37.19,2.77.23,4.14.31,1.26.07,2.59.05,3.75-.5,2.18-1.04,2.62-3.68,1.66-5.73-1.21-2.58-4.35-3.37-6.96-3.22-.96.05-.97,1.55,0,1.5,1.81-.1,3.96.2,5.19,1.69.93,1.13,1.18,3.16-.1,4.15-.76.58-1.79.65-2.71.64-1.11,0-2.22-.12-3.33-.2-1.56-.1-4.13-.27-3.71-2.49.19-1.02.93-1.73,1.7-2.36.83-.68,1.87-1.33,2.96-1.43.95-.08.96-1.58,0-1.5Z"/>
      </g>
      <g>
        <path class="cls-1" d="M103.28,189.16c-2.4-.94-12.11-7.78-19.1-7-2.44.27-5.36,1.58-5.33,4.03,0,.86.42,1.68.96,2.35,2.57,3.18,7.35,3.04,11.44,2.97,10.92-.17,21.87,2.32,31.64,7.2,8.34,4.16,16.08,10.1,25.27,11.66,6.81,1.15,13.82-.23,20.68.56,5.09.59,10.04,2.37,15.16,2.29.17,0,.35,0,.51-.08.29-.12.45-.42.56-.71.78-2.12-.74-4.53-2.77-5.51s-4.39-.91-6.64-.8c-12.2.6-24.83,1.67-36.29-2.58-7.85-2.91-14.67-8.16-22.54-11.03-4.39-1.6-8.93-1.53-13.54-3.34Z"/>
        <path class="cls-8" d="M103.48,188.44c-2-.82-3.85-2.12-5.76-3.12-2.76-1.44-5.66-2.78-8.7-3.5-2.77-.65-5.81-.76-8.38.64-2.85,1.55-3.23,4.66-1.01,7s5.68,2.76,8.75,2.82c4.09.08,8.11-.02,12.18.48,8.64,1.07,16.95,3.83,24.6,7.97,6.96,3.77,13.71,8.44,21.56,10.12,4.35.93,8.8.77,13.21.64,4.69-.14,9.16.09,13.76,1.04,2.04.42,4.08.87,6.15,1.16,1.07.15,2.15.26,3.23.28.7.02,1.48.11,2.06-.35,1.1-.86,1.04-2.74.61-3.92-.51-1.42-1.59-2.63-2.91-3.34-3.46-1.84-8.05-.94-11.77-.75-4.38.22-8.76.41-13.14.31s-8.67-.5-12.9-1.48-8.22-2.63-12.08-4.65-7.31-4.11-11.08-5.94c-1.78-.86-3.61-1.67-5.49-2.29-2.11-.69-4.3-1.05-6.48-1.45s-4.32-.88-6.4-1.67c-.9-.34-1.29,1.11-.4,1.45,3.81,1.45,7.87,1.71,11.77,2.78s7.31,2.94,10.73,4.81c6.85,3.74,13.47,7.43,21.24,8.86s15.69,1.19,23.54.79c1.97-.1,3.95-.22,5.92-.3s4.02-.1,5.79.81c.79.41,1.48,1.06,1.93,1.82.34.58.97,2.28.29,2.86-.49.42-2.01.1-2.61.05-1.17-.09-2.32-.27-3.48-.48-3.92-.71-7.77-1.72-11.77-1.93s-8.36.17-12.54.11-7.85-.71-11.6-2.12c-3.51-1.31-6.81-3.12-10.06-4.97-6.7-3.8-13.33-7.41-20.79-9.55-3.71-1.06-7.51-1.81-11.34-2.25s-7.44-.4-11.19-.42c-3.04-.02-6.94-.25-8.78-3.08-2.36-3.61,3.36-4.97,5.85-4.84,5.46.29,10.51,3.47,15.16,6.04.63.35,1.27.7,1.94.98.89.37,1.28-1.08.4-1.45Z"/>
      </g>
      <g>
        <path class="cls-1" d="M75.52,194.49c-5.24-1.09-10.45-8.1-16.93-8.47-.78-.04-1.6-.04-2.27.35-.77.45-1.2,1.32-1.44,2.18-.77,2.77.04,5.93,2.05,7.99,2.23,2.28,5.58,3.09,8.77,3.17s6.37-.45,9.56-.37c3.08.08,6.11.73,9.12,1.38,6.79,1.46,13.58,2.92,20.38,4.39,3.11.67,6.21,1.34,9.29,2.12,9.87,2.52,19.38,6.23,28.87,9.92,2.82,1.1,5.72,2.25,7.9,4.35,2.05,1.97,3.32,4.64,5.39,6.58,3.9,3.65,10.54,3.86,14.66.46.9-.74,1.71-1.67,2-2.8.42-1.63-.32-3.37-1.41-4.66-3.55-4.2-9.78-4.42-15.24-5.11-9.45-1.2-18.42-4.75-27.47-7.73-17.16-5.66-35.54-10.07-53.23-13.74Z"/>
        <path class="cls-8" d="M75.72,193.77c-3.33-.76-6.06-3.26-8.83-5.12s-6.23-3.85-9.67-3.33c-3.77.57-3.83,5.83-2.8,8.6,1.37,3.68,4.84,5.7,8.58,6.3,4.71.75,9.46-.45,14.19,0,5.2.5,10.37,1.96,15.47,3.06,9.86,2.12,19.8,3.99,29.42,7.06,4.78,1.52,9.48,3.25,14.16,5.04,2.28.87,4.56,1.76,6.84,2.65,2.11.83,4.25,1.7,6.08,3.07,3.31,2.46,4.71,6.71,8.3,8.88,2.98,1.81,6.79,2.21,10.11,1.16s6.84-3.72,6.02-7.49c-.77-3.51-4.29-5.74-7.48-6.77-3.81-1.23-7.87-1.29-11.79-1.93-4.85-.79-9.59-2.16-14.26-3.68-9.42-3.07-18.75-6.3-28.31-8.93-9.57-2.64-19.22-4.94-28.92-7.05-2.37-.52-4.75-1.02-7.12-1.51-.94-.2-1.34,1.25-.4,1.45,17.94,3.73,35.82,8,53.23,13.74,8.59,2.83,17.09,6.18,26.08,7.54,3.59.54,7.27.66,10.76,1.72,3.05.92,8.65,4.26,6.38,8.21-1.86,3.23-6.62,4.24-10.01,3.59-1.74-.33-3.42-1.07-4.76-2.23-1.53-1.32-2.59-3.07-3.81-4.67-2.39-3.15-5.5-4.86-9.11-6.3-4.24-1.69-8.5-3.32-12.79-4.89-8.71-3.19-17.52-5.64-26.58-7.59-4.69-1.01-9.38-2.02-14.07-3.03s-9.07-2.21-13.69-2.61-9.06.78-13.55.07c-4-.63-7.68-3.08-8.03-7.43-.07-.92,0-1.86.28-2.74.41-1.29,1.19-1.84,2.55-1.84,1.73,0,3.44.61,4.96,1.39,2.96,1.51,5.47,3.73,8.31,5.42,1.2.72,2.48,1.33,3.85,1.64.94.21,1.34-1.23.4-1.45Z"/>
      </g>
      <g>
        <path class="cls-1" d="M85.27,208.97c-4.13-.63-8.18-4.26-12.54-5.45-2.18-.6-4.74-.89-6.5.53-2.33,1.88-1.78,5.85.37,7.93s5.27,2.76,8.23,3.19c9.72,1.43,19.61,1.34,29.41.57,4.65-.37,9.38-.89,13.95.06,10.18,2.11,17.38,10.85,25.5,17.35,6.22,4.98,13.33,8.83,20.91,11.3,1.34.44,2.73.84,3.9,1.63,2.24,1.49,3.4,4.09,4.99,6.27,4.12,5.65,11.75,8.49,18.56,6.89.84-.2,1.7-.47,2.33-1.05.66-.6,1.02-1.45,1.32-2.29,1.01-2.72,1.72-5.77.71-8.49-1.01-2.75-3.6-4.64-6.31-5.74-4.3-1.75-9.23-1.89-13.62-.38-1.45.5-2.88,1.18-4.41,1.17-1.37,0-2.67-.55-3.92-1.11-11.29-5.04-21.82-11.77-31.14-19.89-3.04-2.65-5.98-5.46-9.46-7.48-6.2-3.6-13.61-4.42-20.78-4.49-7.17-.06-14.39.54-21.48-.54Z"/>
        <path class="cls-8" d="M85.47,208.25c-4.81-.83-8.52-4.57-13.28-5.64-2.05-.46-4.4-.6-6.19.68-1.49,1.06-2.15,2.86-2.02,4.65.34,4.63,4.63,6.82,8.7,7.63,5.65,1.14,11.56,1.42,17.31,1.47s11.91-.41,17.86-.84c5.63-.4,11.06-.12,16.17,2.46,8.66,4.35,14.88,12.25,22.75,17.74,4.33,3.02,9.02,5.52,13.93,7.45,2.46.97,5.48,1.46,7.63,3.04,2,1.48,3.05,3.86,4.49,5.83,2.58,3.53,6.42,6.03,10.65,7.11,2.07.53,4.25.72,6.39.51,2.02-.2,4.41-.55,5.65-2.35s1.89-4.57,2.08-6.77c.2-2.37-.41-4.68-1.91-6.53-2.93-3.61-8.1-5.11-12.59-5.19-2.62-.04-5.16.45-7.62,1.35-1.24.45-2.53.97-3.88.84-1.58-.15-3.08-.97-4.49-1.62-4.88-2.25-9.61-4.82-14.15-7.68s-9.17-6.19-13.41-9.73-7.94-7.44-12.76-9.94c-9.95-5.14-21.49-3.77-32.27-3.86-3.02-.03-6.05-.18-9.04-.62-.94-.14-1.35,1.31-.4,1.45,10.69,1.57,21.59-.56,32.23,1.45,5.25.99,9.92,3.09,14.08,6.46,3.85,3.12,7.45,6.53,11.39,9.54,4.09,3.13,8.38,6,12.82,8.61s8.76,4.96,13.4,6.78c2.45.96,4.48.64,6.89-.23s4.87-1.36,7.44-1.29c4.44.12,10.36,1.88,12.26,6.36,1.08,2.55.42,5.42-.46,7.93-.43,1.23-.91,2.39-2.21,2.91-1.06.42-2.28.59-3.41.68-4.36.33-8.81-1.03-12.25-3.72-1.83-1.43-3.17-3.19-4.41-5.13-1.1-1.71-2.24-3.46-3.97-4.6-1.99-1.33-4.53-1.81-6.75-2.64-2.38-.89-4.71-1.93-6.96-3.09-4.45-2.29-8.61-5.09-12.44-8.31-3.49-2.94-6.77-6.12-10.33-8.97-3.26-2.61-6.76-4.97-10.72-6.41-5.01-1.82-10.28-1.61-15.51-1.18-5.55.45-11.1.77-16.66.7s-11.34-.32-16.81-1.5c-2.21-.48-4.66-1.29-6.08-3.17-1.17-1.55-1.68-4.05-.43-5.69,1.5-1.98,4.48-1.49,6.54-.89,2.32.68,4.41,1.96,6.52,3.1,1.84,1,3.75,1.94,5.83,2.3.94.16,1.35-1.28.4-1.45Z"/>
      </g>
      <g>
        <path class="cls-1" d="M90.52,231.05c2.95-.92,5.74-1.98,8.44-3.48.81-.45,1.59-.96,2.43-1.34,1.08-.49,2.25-.77,3.44-.81.2,0,.4,0,.58.08.6.3.37,1.22-.02,1.76-1.06,1.49-2.66,2.54-4.37,3.21-1.39.54-2.86.84-4.21,1.46s-2.63,1.63-3.08,3.04c-.53,1.7.23,3.53.13,5.31-.09,1.6-.93,3.14-2.22,4.08-.82.6-1.78.95-2.74,1.28-2.05.71-4.17,1.32-6.34,1.28-2.1-.04-4.19-.71-5.92-1.91-2.26-1.57-3.89-4.11-4.05-6.86s1.3-5.6,3.77-6.8c2.15-1.05,4.68-.79,7.04-.43s4.82.82,7.1.11Z"/>
        <path class="cls-8" d="M90.72,231.78c2.68-.84,5.31-1.82,7.81-3.12,1.29-.67,2.51-1.55,3.9-2.03.32-.11,2.21-.72,2.41-.46.43.56-.67,1.42-1,1.74-3.31,3.09-10.9,2.47-11.03,8.36-.03,1.34.42,2.66.32,4.01-.11,1.5-.95,2.87-2.21,3.67-1.18.75-2.64,1.15-3.97,1.54-1.55.45-3.16.77-4.79.67-5.26-.32-10.67-5.64-8.24-11.12,1.34-3.03,4.31-3.87,7.39-3.62s6.25,1.23,9.41.35c.93-.26.53-1.71-.4-1.45-3.57.99-7.12-.59-10.71-.45-2.83.11-5.37,1.39-6.75,3.93-2.9,5.35.91,11.44,6.22,13.26,3.2,1.1,6.48.49,9.6-.55,2.84-.95,5.41-2.43,5.89-5.67.23-1.54-.3-3.04-.26-4.58.05-2.1,1.75-3.28,3.54-3.95,2.93-1.1,5.96-1.71,7.97-4.36.63-.83,1.17-2.21.14-2.98s-3.26-.06-4.34.36c-1.77.69-3.35,1.82-5.07,2.63-2.01.95-4.1,1.69-6.22,2.36-.92.29-.53,1.74.4,1.45Z"/>
      </g>
      <g>
        <path class="cls-1" d="M120.12,224.96c-1.95,0-4.29-.7-6.21-.4-1.03.16-2.15.43-2.77,1.28-.72.99-.46,2.44.28,3.41s1.86,1.58,2.95,2.14c6.79,3.52,13.78,6.65,20.46,10.37,3.45,1.92,6.85,4.02,9.64,6.82.71.71,1.38,1.48,1.78,2.4.36.83.47,1.74.54,2.65.19,2.64.01,5.29.25,7.93s.97,5.33,2.71,7.31c1.69,1.93,4.2,3,6.74,3.33s5.12-.05,7.61-.65c1.22-.3,2.47-.66,3.47-1.43,1.26-.97,2-2.48,2.36-4.03.66-2.85-.02-6.14-2.26-8.02-2.05-1.72-4.92-1.96-7.49-2.7-3.53-1.02-6.73-3.12-9.06-5.96-1.02-1.24-1.89-2.63-3.1-3.7-1.31-1.16-2.95-1.87-4.5-2.7-6.28-3.38-11.11-8.84-16.14-13.9-2.02-2.03-4.39-4.14-7.26-4.15Z"/>
        <path class="cls-8" d="M120.12,224.21c-2.7-.06-5.49-1.04-8.11.07-2.05.87-2.56,3.17-1.45,5.03,1.39,2.33,4.75,3.41,7.04,4.55,2.92,1.46,5.87,2.87,8.79,4.33,5.58,2.77,11.55,5.55,16.26,9.7,1.17,1.03,2.5,2.18,3.03,3.69s.43,3.26.45,4.82c.04,2.96-.04,5.99.85,8.85,1.63,5.22,6.36,7.85,11.66,7.79,2.76-.03,6.16-.47,8.61-1.84,2.12-1.19,3.25-3.5,3.57-5.85s-.15-4.88-1.63-6.78-3.85-2.73-6.18-3.29c-2.78-.67-5.37-1.45-7.76-3.09s-3.8-3.76-5.59-5.87c-2.04-2.4-5-3.41-7.6-5.04-2.84-1.78-5.38-3.99-7.79-6.31s-4.56-4.68-6.91-6.96c-2.02-1.96-4.31-3.71-7.23-3.81-.97-.03-.96,1.47,0,1.5,2.63.09,4.67,1.89,6.45,3.65,1.88,1.85,3.68,3.78,5.55,5.63,3.59,3.55,7.41,6.81,11.91,9.13,1.01.52,2.06,1.03,2.97,1.72,1.14.86,1.98,2.02,2.84,3.14,1.41,1.84,3.03,3.44,4.98,4.72s4.05,2.12,6.28,2.67,4.88.92,6.57,2.71,2.07,4.49,1.54,6.79c-.28,1.22-.81,2.44-1.72,3.31-1.1,1.04-2.61,1.41-4.05,1.74-5.12,1.17-11.67.96-14.35-4.4-1.2-2.4-1.39-5.13-1.44-7.77s.31-5.55-.69-7.98c-.92-2.24-3.16-3.95-5.02-5.37-2.06-1.58-4.29-2.92-6.55-4.19-5.63-3.15-11.48-5.86-17.24-8.74-1.38-.69-2.78-1.36-4.13-2.12-1.23-.69-3.06-1.99-2.48-3.68.52-1.49,2.94-1.49,4.19-1.41,1.47.1,2.91.41,4.39.45.97.02.97-1.48,0-1.5Z"/>
      </g>
      <g>
        <path class="cls-1" d="M121.36,259.8c-2.31.49-4.5,1.53-6.36,3-.31.24-.61.5-.82.83-.44.66-.47,1.51-.49,2.31-.02,1.01-.04,2.01-.06,3.02-.01.61-.02,1.25.18,1.82.23.64.7,1.17,1.23,1.59,2.65,2.16,6.47,2.06,9.83,1.42.81-.15,1.63-.34,2.32-.77.63-.39,1.13-.96,1.54-1.58,1.62-2.48,1.71-5.92.11-8.42s-4.84-3.86-7.72-3.14"/>
        <path class="cls-8" d="M121.16,259.07c-1.87.42-3.68,1.15-5.3,2.19-.72.46-1.51.98-2.07,1.64-.61.72-.78,1.63-.83,2.54-.06,1.06-.05,2.13-.07,3.2-.02,1-.04,2.01.46,2.91.82,1.48,2.55,2.42,4.11,2.89,1.71.52,3.54.56,5.31.39s3.78-.37,5.21-1.46c2.77-2.12,3.41-6.44,2.13-9.53-1.47-3.54-5.46-5.56-9.19-4.69-.94.22-.54,1.67.4,1.45,2.62-.61,5.52.6,6.93,2.89,1.52,2.46,1.3,6.02-.65,8.19-1.03,1.15-2.63,1.36-4.09,1.56s-2.97.28-4.43.04c-1.37-.23-2.74-.73-3.77-1.68-1.34-1.23-.92-3.13-.89-4.78.02-.82-.1-1.87.29-2.63.37-.72,1.25-1.22,1.91-1.64,1.52-.98,3.18-1.65,4.94-2.04.94-.21.54-1.66-.4-1.45h0Z"/>
      </g>
      <g>
        <path class="cls-1" d="M195.69,224.65c-1.39-1.11-5.81-.23-8.19,1.24-.34.21-.68.45-.91.78-.26.38-.36.84-.43,1.29-.12.79-.15,1.61.08,2.37.41,1.41,1.65,2.45,3.01,2.99s2.85.66,4.31.76c1.32.09,2.75.15,3.87-.56.91-.58,1.48-1.58,1.79-2.62.14-.47.28-.97.17-1.45-.18-.84-.41-1.94-1.02-2.6-.78-.84-1.66-1.39-2.68-2.21Z"/>
        <path class="cls-8" d="M196.07,224c-.78-.58-1.88-.64-2.81-.6-1.21.06-2.42.31-3.57.68s-2.49.88-3.38,1.74c-1.02.99-1.13,2.79-.93,4.11.48,3.07,3.6,4.38,6.34,4.72,1.48.19,3.08.37,4.56.08,1.4-.27,2.52-1.17,3.16-2.43.37-.71.7-1.57.73-2.38.02-.73-.22-1.56-.48-2.23-.63-1.66-2.15-2.54-3.48-3.59-.75-.59-1.82.46-1.06,1.06.91.72,2.1,1.38,2.79,2.34.62.87.86,2.18.55,3.18s-.93,2.06-2.01,2.44-2.39.23-3.54.14c-2.14-.17-4.98-.62-5.9-2.89-.37-.91-.45-2.65.26-3.43.6-.67,1.69-1.05,2.52-1.34,1.02-.36,2.1-.62,3.18-.7.76-.06,1.66-.1,2.3.37.78.58,1.52-.73.76-1.3Z"/>
      </g>
      <g>
        <path class="cls-5" d="M110.49,36.46c-4.04.4-7.9,2.06-11.29,4.29-1.55,1.01-3.05,2.25-3.78,3.95-1.05,2.43-.25,5.39,1.54,7.35s4.39,3,7.01,3.39c3.39.51,6.85.04,10.24-.43,10.71-1.49,21.6-3.03,31.42-7.56,2.05-.95,4.12-2.08,5.42-3.92,1.19-1.67,1.63-3.85,1.19-5.86s-1.77-3.79-3.55-4.81c-1.23-.7-2.62-1.03-4.02-1.24-5.69-.88-11.5.05-17.11,1.33-5.61,1.28-11.34,2.93-17.07,3.51Z"/>
        <path class="cls-4" d="M110.49,35.71c-4.43.49-8.71,2.25-12.33,4.84-3.3,2.36-4.98,5.91-3.2,9.81s5.85,5.49,9.73,5.92c5.01.55,10.22-.59,15.16-1.32,9.34-1.38,19.16-3.09,27.6-7.56,3.59-1.9,6.32-5.22,5.59-9.52s-4.41-6.43-8.4-7.01c-11.66-1.71-22.72,3.64-34.14,4.84-.95.1-.96,1.6,0,1.5,8.83-.93,17.22-4.25,26.07-5.03,2.22-.19,4.46-.22,6.68,0,2.03.21,4.23.57,5.88,1.88,3.36,2.66,3.23,7.64.06,10.39-1.5,1.3-3.39,2.13-5.19,2.91-1.96.85-3.97,1.57-6.01,2.21-3.99,1.26-8.09,2.17-12.21,2.91-4.2.76-8.42,1.35-12.65,1.92s-8.98,1.1-12.97-.9-6.18-7.16-2.49-10.64c3.31-3.14,8.33-5.15,12.81-5.65.95-.11.96-1.61,0-1.5Z"/>
      </g>
      <g>
        <path class="cls-9" d="M101.45,41.74c-1.21,1-1.72,2.51-2.31,3.96s-.72,3.19.06,4.56c.16.28.37.55.67.66.25.09.53.06.79,0,2.17-.45,4.01-2.21,4.56-4.36.19-.73.24-1.53.66-2.16s1.39-.99,1.93-.46c.41.4.35,1.07.23,1.63-.24,1.11-.63,2.18-1.15,3.19-.33.64-.63,1.62.02,1.94.18.09.4.09.6.09,1.28-.04,2.71-.36,3.41-1.45.69-1.08.39-2.5.61-3.77.1-.58.45-1.24,1.03-1.24.43,0,.76.35,1.01.7.71.99,1.15,2.16,1.28,3.37.05.44.06.89.22,1.3s.54.77.98.76c.37-.01.68-.27.91-.57.74-.96.85-2.26.74-3.46s-.4-2.4-.33-3.6c.03-.54.21-1.17.73-1.32.23-.06.47-.02.69.07,1.28.47,1.94,1.93,2.01,3.3s-.29,2.71-.41,4.06c-.05.52-.02,1.13.4,1.44.25.19.59.21.9.16,1.57-.26,2.26-2.13,2.4-3.71.02-.27.05-.56.25-.75.16-.15.39-.2.61-.23,1.49-.18,3.05.39,4.07,1.49.23.24.44.52.76.63.76.27,1.46-.57,1.65-1.35.45-1.87-.45-3.82-.24-5.74.06-.58.25-1.18.72-1.53.81-.62,2.06-.13,2.63.71s.69,1.9.89,2.89c.19.96.48,1.9.86,2.8.35.84.9,1.74,1.79,1.93.98.21,1.97-.6,2.26-1.57s.05-2.01-.29-2.96-.78-1.87-.91-2.87c-.02-.19-.03-.39.06-.55.1-.18.31-.28.51-.33.97-.25,1.96.4,2.56,1.2s.95,1.77,1.53,2.58c.19.26.41.51.71.63.3.12.63.08.94,0,1.7-.41,2.98-2.04,3.16-3.79s-.63-3.51-1.95-4.67-3.07-1.75-4.82-1.85c-1.58-.09-3.34.31-4.23,1.62-.35.52-.66,1.22-1.28,1.26-.63.04-1.03-.63-1.44-1.12-1.2-1.43-3.53-1.54-5.12-.54s-2.46,2.86-2.71,4.71c-.11.78-.26,1.76-1.02,1.96-.66.18-1.3-.45-1.48-1.11s-.06-1.37-.13-2.05-.41-1.43-1.07-1.6c-.9-.23-1.65.73-1.92,1.62-.12.4-.24.86-.62,1.05-.68.35-1.32-.49-1.88-1.01-1.1-1.02-3.08-.83-3.96.37-.47.64-.75,1.56-1.53,1.73-1.01.22-1.98-1.1-2.91-.67-.89.41-.89,2.12-1.87,2.1-.31,0-.58-.21-.84-.39-1.88-1.3-4.62-1.18-6.39.28Z"/>
        <path class="cls-4" d="M100.91,41.21c-1.27,1.15-1.91,2.73-2.5,4.29s-.75,3.28-.04,4.79c1.5,3.2,5.59.24,6.81-1.75.37-.61.63-1.27.8-1.96.1-.42.14-.89.3-1.3.18-.47.22-.62.71-.5.63.15.34.52.22,1.01-.23.96-.63,1.83-1.04,2.73-.25.55-.5,1.18-.38,1.8.27,1.42,1.86,1.3,2.97,1.1,1.44-.27,2.74-1.08,3.17-2.55.22-.75.2-1.54.24-2.31.02-.38-.01-1.46.65-1.25.39.13.83,1.4.94,1.72.46,1.31.1,3.55,1.77,4.1,1.5.5,2.52-1.27,2.79-2.47.18-.8.18-1.63.09-2.45-.04-.44-.11-.88-.17-1.33-.06-.47-.35-1.6-.14-2.05.64-1.38,1.71.87,1.83,1.39.27,1.19,0,2.43-.18,3.61s-.41,2.86,1,3.36c1.21.43,2.47-.39,3.13-1.37.39-.59.64-1.3.79-1.99.05-.22.03-.83.15-1.01.3-.44,1.17-.24,1.58-.15,1.06.25,1.64.86,2.42,1.55.46.4,1,.63,1.61.49,1.56-.36,1.9-2.28,1.84-3.62-.05-1.04-.3-2.06-.36-3.1-.03-.48-.07-1.04.12-1.5.33-.83,1.04-.78,1.61-.28.75.65.84,1.84,1.02,2.76s.46,1.89.82,2.79c.5,1.24,1.28,2.58,2.76,2.69,1.4.1,2.55-1.06,2.86-2.34.48-1.94-.73-3.57-1.12-5.39-.02-.1-.15-.5-.09-.59.21-.31,1.09.26,1.32.45.36.31.62.72.87,1.13.47.79.81,1.74,1.5,2.38,2.4,2.2,5.51-1.75,5.76-3.94.38-3.43-2.36-6.23-5.5-7.06-1.52-.4-3.24-.49-4.73.06-.59.22-1.15.52-1.6.96-.25.24-.41.53-.64.79-.1.11-.15.32-.26.41-.45.35-.57.1-.89-.17-.52-.44-.84-.96-1.47-1.3s-1.39-.5-2.11-.5c-1.42-.01-2.77.57-3.77,1.57-1.17,1.17-1.77,2.74-2.04,4.35-.05.31-.05.83-.24,1.1-.67.91-.87-.9-.89-1.27-.02-.71-.01-1.42-.36-2.07-.59-1.11-1.91-1.47-2.94-.71-.64.47-.84,1.09-1.18,1.77-.25.5-.25.56-.74.2-.32-.24-.56-.58-.9-.81-1.11-.73-2.64-.74-3.77-.06-.58.35-.95.86-1.3,1.42-.21.34-.47.84-.95.84-.34,0-.84-.4-1.18-.53-1.28-.51-2.17.06-2.77,1.2-.14.27-.23.66-.51.68-.24.02-.8-.47-1.01-.58-.65-.33-1.37-.53-2.1-.6-1.58-.16-3.16.28-4.43,1.24-.76.58,0,1.88.76,1.3,1.37-1.05,3.14-1.4,4.77-.74,1.04.42,2.02,1.5,3.11.54.38-.34.49-.81.77-1.21.58-.84,1.13-.24,1.9.03,1.16.41,2.05-.05,2.7-1.03.43-.65.72-1.29,1.55-1.5,1.07-.28,1.7.33,2.43.98.8.7,1.92,1.05,2.66.07.36-.48.42-1.69.98-1.94.21-.09.84.31.93.44.1.16.07.48.08.65.02.45-.01.89.04,1.33.15,1.17,1.07,2.41,2.39,2.15,1.19-.23,1.47-1.48,1.64-2.5.28-1.68.95-3.46,2.51-4.35s3.17-.51,4.27.76c.75.87,1.78,1.54,2.83.63.49-.43.71-1.09,1.18-1.53.64-.6,1.56-.83,2.41-.89,1.79-.13,3.78.42,5.14,1.62s2.18,3.19,1.52,4.97c-.29.79-.88,1.51-1.62,1.93-1.27.71-1.79-.26-2.34-1.28-.68-1.26-1.55-2.56-3.06-2.86-1.19-.23-2.29.37-2.24,1.64.07,1.82,1.62,3.45,1.27,5.31-.24,1.33-1.56,1.77-2.33.56-.49-.76-.76-1.71-.99-2.58-.38-1.43-.4-3.14-1.47-4.28-.74-.79-1.97-1.23-3.01-.78-1.24.54-1.49,2.05-1.46,3.26.03.9.23,1.78.32,2.66.06.55.1,1.11.01,1.65-.03.2-.08.65-.25.81-.34.32-.69.07-.95-.09-.59-.38-1.01-.89-1.67-1.2s-1.31-.47-2-.52c-1.22-.1-2.25.17-2.5,1.47-.14.72-.18,1.43-.52,2.1-.15.3-.39.74-.7.9-1.04.53-1.02-.67-.93-1.33.21-1.57.58-3.19.09-4.75-.36-1.13-1.14-2.25-2.32-2.63-1.25-.41-2.16.43-2.33,1.64-.26,1.82.54,3.63.28,5.45-.09.59-.14,1.26-.82,1.18s-.47-.57-.56-1.13c-.12-.8-.36-1.58-.71-2.31-.48-.99-1.32-2.35-2.61-2.06s-1.48,1.82-1.54,2.91c-.04.9.03,1.88-.58,2.6-.35.41-2.03,1.26-2.59.89-.51-.33.3-1.45.47-1.85.35-.83.66-1.7.81-2.6.19-1.12-.1-2.48-1.43-2.64-1.23-.15-2.17.84-2.52,1.92-.54,1.66-.69,3.07-2.14,4.25-.29.24-.6.44-.94.62-.51.26-1.41.62-1.91.13-.66-.64-.47-2.27-.29-3.04.39-1.61,1.18-3.45,2.42-4.57.72-.65-.35-1.71-1.06-1.06Z"/>
      </g>
      <g>
        <path class="cls-13" d="M178.34,37.46c-1.21.22-.83,0-2.02.66s-2.05,2.1-1.63,3.4c.21.66.71,1.19,1.27,1.6,1.66,1.21,3.85,1.48,5.88,1.18,1.2-.18,2.5-.65,3.05-1.73.25-.5.32-1.07.29-1.63-.04-.75-.25-1.53-.76-2.09-.56-.61-1.39-.88-2.2-1.05-.96-.21-1.95-.31-2.94-.3l-.94-.03Z"/>
        <path class="cls-3" d="M178.14,36.74c-.33.06-.69.07-1.01.16-.41.11-.82.36-1.19.57-.92.53-1.65,1.37-1.96,2.39-.76,2.47,1.59,4.27,3.68,4.91,1.12.35,2.34.45,3.51.35,1.06-.09,2.16-.29,3.08-.85,1.01-.62,1.59-1.6,1.68-2.78s-.22-2.4-1.03-3.23c-.96-.98-2.44-1.23-3.74-1.4-.93-.12-1.88-.12-2.81-.15s-.96,1.47,0,1.5c1.46.05,2.92.04,4.33.47.85.26,1.46.75,1.68,1.65.2.84.14,1.83-.55,2.43-1.17,1.02-3.31,1.05-4.75.81-1.36-.22-3.83-1.1-3.71-2.85.06-.88.71-1.58,1.45-1.99.64-.36.99-.4,1.76-.54.95-.16.55-1.61-.4-1.45Z"/>
      </g>
      <g>
        <path class="cls-13" d="M260.16,71.07c-1.57.18-3.19.89-3.81,2.34-.53,1.23-.25,2.71.53,3.8s2,1.81,3.28,2.18,2.64.42,3.98.38c1.25-.04,2.54-.17,3.66-.71s2.09-1.58,2.25-2.82c.15-1.19-.46-2.38-1.35-3.17s-2.05-1.23-3.2-1.53c-1.96-.51-3.31-.69-5.33-.47Z"/>
        <path class="cls-3" d="M260.16,70.32c-2.53.32-5.02,1.87-4.82,4.73s2.57,4.61,5.11,5.19c1.51.34,3.1.36,4.64.23,1.4-.12,2.81-.43,3.95-1.29,2.22-1.68,2.31-4.68.28-6.57-1.17-1.09-2.71-1.59-4.23-1.95-1.63-.39-3.24-.51-4.91-.34-.95.1-.96,1.6,0,1.5,2.16-.23,4.39.04,6.42.85,1.82.73,3.71,2.78,2.18,4.71-1.36,1.72-4.01,1.72-6,1.65s-4.55-.7-5.56-2.73c-.48-.96-.54-2.2.14-3.09s1.8-1.26,2.83-1.39c.94-.12.96-1.62,0-1.5Z"/>
      </g>
      <g>
        <path class="cls-6" d="M131.12,95.53c-7.92,1.41-15.75,6.94-19.81,13.89-1.28,2.19-2.25,4.62-2.39,7.15-.31,5.6,3.41,10.61,7.46,14.48,13.44,12.83,31.85,18.8,49.69,24.02,4.26,1.24,8.57,2.48,13,2.67,3.62.16,7.22-.38,10.83-.61,7.34-.46,15.01.32,21.78-2.57,4.4-1.88,8.04-5.17,11.47-8.51,2.97-2.89,5.97-6.03,7.09-10.02,1.28-4.56-.17-9.55-2.89-13.43s-6.58-6.79-10.53-9.4c-24.94-16.46-56.29-22.93-85.7-17.68Z"/>
        <path class="cls-12" d="M130.92,94.81c-8.73,1.63-17.14,7.68-21.06,15.73-2.11,4.34-2.2,8.9-.06,13.25s5.67,7.68,9.27,10.68c7.39,6.15,15.99,10.58,24.89,14.1,4.58,1.81,9.25,3.39,13.96,4.85,5.04,1.57,10.13,3.25,15.31,4.32,2.65.55,5.34.85,8.05.78,2.88-.07,5.74-.45,8.61-.63,5.22-.33,10.49-.04,15.68-.86s9.31-2.88,13.22-6.04c3.71-2.99,7.58-6.49,10.19-10.5s3.1-8.69,1.58-13.19-4.76-8.23-8.46-11.2c-7.57-6.09-16.57-10.71-25.55-14.34-18.45-7.45-38.8-10.29-58.58-7.99-2.37.27-4.72.62-7.07,1.04-.95.17-.55,1.61.4,1.45,18.53-3.27,37.79-1.91,55.74,3.7,8.97,2.81,17.61,6.67,25.65,11.54,7.63,4.62,17.19,10.95,17.26,20.96.03,4.98-3.1,8.85-6.46,12.19s-6.93,6.73-11.25,8.83-9.63,2.54-14.58,2.67c-2.45.06-4.89.07-7.33.21-2.78.16-5.54.52-8.32.63-5.43.22-10.58-1.13-15.76-2.64-4.39-1.28-8.77-2.6-13.1-4.05-8.81-2.95-17.5-6.46-25.4-11.4-3.88-2.43-7.55-5.2-10.86-8.37s-6.34-6.88-7.11-11.4c-.82-4.82,1.78-9.51,4.82-13.06,2.86-3.34,6.47-6.03,10.47-7.85,1.99-.91,4.08-1.55,6.22-1.95.95-.18.55-1.62-.4-1.45Z"/>
      </g>
      <path d="M144.36,122.68c1.97-3.49,5.41-6,9.35-6.75,1.87-.36,4.25-.42,5.79.89.79.67,1.15,1.66,1.56,2.58.39.86.85,1.65,1.43,2.4,2.42,3.12,6.21,4.81,10.03,5.44,2.17.36,4.38.45,6.58.39,1.93-.05,3.96-.29,5.54-1.48,2.75-2.06,3.3-6.05,1.17-8.75-2.45-3.11-6.7-2.76-9.84-.95-1.84,1.06-3.37,2.57-4.94,3.98s-3.36,2.73-5.32,3.71c-3.64,1.81-8.24,2.88-12.22,1.6-1.94-.63-3.51-1.91-4.46-3.73-.47-.92-.78-1.9-1.02-2.9-.18-.75-.83-2.67-.39-3.33.47-.72,2.46-.41,3.27-.42,1.18,0,2.36.02,3.54.07,1.94.08,3.95.16,5.79.86,2.02.76,3.19,2.25,3.22,4.45.03,2.04-.53,4.08.12,6.08,1.12,3.47,4.95,5.88,8.05,7.39s7.37,2.13,10.26-.44c1.42-1.26,2.01-3.1,2.27-4.92.23-1.56.32-3.38-.95-4.54s-3.16-1.04-4.69-.85c-1.88.24-3.71.88-5.32,1.88-2.5,1.55-6.23,5.16-3.56,8.15s7.16,3.76,10.8,3.95,8.47.02,10.4-3.63c.79-1.48.79-3.23-.24-4.6-.9-1.21-2.43-1.86-3.9-1.38-1.95.65-3.77,2.42-5.36,3.68s-3.67,2.56-4.36,4.5,0,3.86.68,5.63l.52-.92c-3.06.83-6.36.56-9.18-.92-1.02-.53-3.13-1.72-2.54-3.21s4.27.11,5.37.44c3.1.93,6.86,1.78,9.44,3.83,2.25,1.79,3.7,4.11,6.44,5.28,2.45,1.04,5.27,1.33,7.91,1.14,2.44-.18,4.76-1.17,5.5-3.69,1.5-5.08-3.77-8.44-8.27-7.97-3.07.32-6.24,1.92-8.62,3.85-.54.44-1.03.94-1.42,1.53-.48.74-.72,1.72-1.52,2.21-1.64,1-3.54-.37-4.73-1.42v1.06c.82-.93,2.23-1,3.39-1.11,1.28-.12,2.57-.14,3.86-.06,2.66.17,5.16.95,7.74,1.55,3.84.89,8.4,1.11,11.31-2.04,2.46-2.66,3.93-7.38,3.45-10.97-.55-4.07-4.33-5.76-8.05-5.92-1.88-.08-3.93.27-5.26,1.73-1.13,1.25-1.43,2.96-.63,4.46s2.55,2.53,4.14,3.21c1.86.79,3.9,1.3,5.93,1.02,3.62-.5,6.1-3.88,5.86-7.48s-3.22-6.65-6.67-7.57c-1.97-.52-4.08-.44-6.04.1-1.64.46-3.59,1.26-4.3,2.94-1.67,3.96,4.29,5.17,6.95,4.05,3.65-1.53,2.52-6.78.79-9.33-2.31-3.4-6.21-4.45-10.13-4.43-4.2.02-8.71,1.19-12.75-.44-.47-.19-.93-.42-1.35-.7-.73-.48-.7-.56.01-.79,1.32-.42,2.83-.47,4.21-.49,2.62-.03,5.23.36,7.8.85,3.57.68,8.72,1.2,10.53,4.89.82,1.67,1.14,3.57,2.94,4.51,1.48.77,3.5.7,5.08.29,1.33-.35,2.81-1.17,3.01-2.67.24-1.86-1.55-3.14-2.91-4.02-3.53-2.29-8.3-3.48-12.48-2.93-2.33.3-4.43,1.31-6.54,2.29s-4.46,1.89-6.81,2.51c-1.12.29-2.58.86-3.67.23s-1.98-1.8-2.71-2.73c-1.46-1.85-2.52-4.44-.45-6.28,1.91-1.7,4.72-1.41,7.07-1.2.62.05,1.03-.88.53-1.28-2.58-2.06-5.9-2.62-9.08-3.13s-6.24-.77-9.21.17c-2.6.82-5.28,2.72-5.81,5.57-.57,3.09,1.84,5.56,4.37,6.86,1.88.96,5.19,2.7,7.18,1.09s.46-5.59-.76-7.23c-1.92-2.6-4.83-1.5-7.14-.11-3.31,2-6.37,3.82-10.35,2.65-1.81-.53-3.86-1.48-5.28-2.74-2.31-2.06,1.06-3.14,2.75-3.57,3.85-.98,7.97-.34,11.38,1.68.53.31,1.34-.22,1.1-.85-1.32-3.55-5.23-4.67-8.69-4.88-4.82-.29-10,.45-14.42,2.45-2.57,1.16-8.08,5.04-4.69,8.16,1.41,1.3,3.62,1.53,5.44,1.59,2.35.07,4.71-.38,6.87-1.3,1.57-.67,3.31-1.75,3.32-3.67s-1.59-2.57-3.26-2.48c-4.05.21-9.34,1.02-10.9,5.44-.79,2.23-.08,4.57-.49,6.84-.18,1.02-.6,2.11-1.54,2.64-1.23.7-2.85.23-3.49-1.03-1.29-2.53,1.6-4,3.62-4.33s4.44-.21,6.44.51c2.75.99,4.1,3.39,4.33,6.21.2,2.47.15,5.98-1.8,7.78-1.26,1.16-2.74,1.04-4.16.25-1.1-.61-2.53-1.66-2.72-3.01-.22-1.62,1.82-2.19,3.03-2.52,1.51-.41,3.04-.53,4.6-.42l-.72-.55c.73,2.03.57,4.28,1.44,6.27.96,2.19,3.18,3.12,5.35,3.73s4.88.81,6.86-.66c1.58-1.17,2.48-3.15,1.88-5.08-.1-.32-.38-.54-.72-.55-2.31-.06-4.3,1.22-5.72,2.97-.82,1.01-1.47,2.15-2.12,3.27-.31.53-.59,1.17-.99,1.65-.83.99-1.77.44-2.58-.25-1.5-1.28-5.58-5.76-2.85-7.43,1.19-.73,2.79-.45,4.09-.28s2.53.4,3.77.72c2.34.61,4.63,1.54,6.55,3.03,2.03,1.59,3.18,3.7,4.3,5.96,1.06,2.13,2.28,4.24,4.39,5.48,1.88,1.11,4.52,1.63,6.6.79s2.31-3.2,2.26-5.19c-.05-2.13-.76-4.57-3-5.32s-3.96,1.18-5.11,2.9c-1.42,2.12-2.31,4.87-4.24,6.61s-5.57-.61-6.78-2.32c-1.89-2.66,1.13-5.15,2.81-6.91,1.48-1.56,2.56-3.38,2.28-5.6-.25-1.97-1.39-3.76-3-4.91-2.09-1.5-4.86-1.67-7.28-1.03-2.7.71-4.66,2.49-6.89,4.04-2.53,1.75-5.06,2.15-7.69.31-1.22-.86-2.27-1.97-3.26-3.07-.49-.54-1-1.08-1.32-1.74-.39-.81-.44-2.4.84-2.46.96-.05.97-1.55,0-1.5-2.17.1-3.05,2.43-2.33,4.27.42,1.07,1.24,1.94,2.01,2.77.93,1.01,1.9,1.98,3,2.79,1.88,1.39,4.15,2.14,6.46,1.48s4.12-2.44,6.08-3.78c2.33-1.6,5.34-2.55,8.12-1.58,2.38.83,4.31,3.45,3.75,6.04s-3.56,4.13-4.87,6.45c-1.11,1.97-.99,4.17.54,5.86,1.31,1.45,3.86,2.96,5.85,3.08,2.47.14,4.01-2.43,5.08-4.29,1-1.73,3.31-7.52,6.03-5.71,1.38.92,1.47,2.8,1.45,4.29-.03,1.81-.47,3.22-2.52,3.39-6.57.56-7.46-6.8-10.84-10.62s-8.24-5.13-12.91-5.73c-2.32-.3-5.76-.39-6.54,2.46-.69,2.53,1.9,5.59,3.54,7.23.86.86,1.94,1.79,3.23,1.84,1.36.05,2.1-.96,2.74-2.02,1.64-2.71,3.37-6.55,7.1-6.45l-.72-.55c.58,1.88-.89,3.63-2.66,4.12-1.95.54-4.13-.07-5.95-.81s-2.72-1.91-3.11-3.78c-.32-1.54-.39-3.1-.92-4.59-.12-.33-.37-.53-.72-.55-2.94-.19-10.84.71-8.88,5.49.74,1.81,2.69,3.23,4.5,3.84,1.95.66,3.92-.04,5.19-1.61,1.42-1.75,1.69-4.12,1.77-6.3s-.15-4.57-1.34-6.48c-2.21-3.55-6.99-4.26-10.82-3.77-1.73.22-3.59.79-4.69,2.23s-1.1,3.51.02,4.97,3.2,1.9,4.85,1.14,2.41-2.52,2.63-4.24c.32-2.47-.56-5.25,1.03-7.42s4.62-2.86,7.22-3.09c1.01-.09,3.72-.66,3.35,1.14-.26,1.28-2.04,1.92-3.1,2.3-2.52.91-5.44,1.23-8.07.6-1.24-.3-2.84-1.02-2.34-2.57.41-1.29,1.87-2.38,2.96-3.08,2.34-1.49,5.13-2.26,7.83-2.77,2.97-.56,6.2-.81,9.21-.34,2.28.36,4.87,1.28,5.75,3.62l1.1-.85c-2.42-1.43-5.16-2.24-7.97-2.33-2.57-.08-5.7.36-7.89,1.81s-1.45,3.74.35,5.12c2.3,1.76,5.33,3.11,8.25,3.25s5.59-1.33,8.06-2.84c1.33-.81,3.28-2.34,4.91-1.58,1.21.56,1.69,2.07,2,3.26.2.74.68,2.06.08,2.7-.42.45-1.23.37-1.77.29-1.45-.22-2.91-.94-4.18-1.64-1.4-.77-2.78-1.92-3.2-3.54s.37-3.12,1.54-4.2c2.58-2.39,6.45-2.51,9.75-2.16s7.51.83,10.21,2.99l.53-1.28c-3.21-.28-7.3-.33-9.14,2.89s.76,6.6,2.96,8.81c1.15,1.16,2.31,1.97,4.01,1.74,1.96-.27,3.94-.92,5.79-1.6,3.94-1.45,7.48-3.91,11.83-3.77,2.04.07,4.11.49,6.04,1.18,1.73.62,3.98,1.61,5.12,3.11,1.54,2.02-1.81,2.67-3.18,2.7-.97.03-2.02-.06-2.79-.72-.82-.69-1.11-1.79-1.49-2.75-1.16-2.9-3.59-4.4-6.5-5.26-3.64-1.08-7.59-1.78-11.38-2.03-1.45-.09-9.85-.46-8.43,2.7.57,1.26,2.35,1.95,3.58,2.36,1.6.53,3.31.69,4.99.69,3.73.01,7.53-.89,11.23-.07s6.81,3.98,6.64,7.95c-.11,2.66-2.23,3.05-4.45,2.67-1.05-.18-2.38-.45-2.12-1.8.22-1.14,1.44-1.73,2.42-2.11,3.72-1.43,8.39-.79,10.73,2.71,2.02,3.02,1.08,7.75-2.71,8.82-1.93.55-4.02.04-5.83-.71-1.51-.63-3.82-1.79-3.78-3.72.04-2.5,3.22-2.94,5.08-2.83s3.82.57,5.12,1.92c2.62,2.7.92,7.99-.67,10.82-2.26,4.02-6.68,4.2-10.74,3.28-4.2-.95-8.11-2.03-12.47-1.57-1.51.16-3.15.32-4.21,1.53-.25.29-.32.78,0,1.06,1.75,1.53,4.24,3.01,6.55,1.65,1.26-.74,1.5-2.16,2.4-3.2,1-1.15,2.52-1.94,3.84-2.63,2.78-1.47,6.31-2.39,9.2-.65,2.33,1.4,3.51,5.29.81,7.02-1.35.86-3.18.82-4.72.77s-3.09-.26-4.56-.76c-3.14-1.06-4.64-3.76-7.19-5.62s-6.12-2.78-9.17-3.71c-1.99-.61-6.11-2.58-7.48,0-1.46,2.76,1.87,4.9,3.97,5.81,2.97,1.29,6.29,1.48,9.41.63.36-.1.67-.54.52-.92-.78-2.03-1.54-4.23.17-6,1.48-1.55,3.33-2.86,5.05-4.13,1.48-1.09,3.74-3.09,5.19-.86,1.21,1.86-.43,4-2.11,4.82-1.86.9-4.09.93-6.12.89-1.88-.04-3.76-.26-5.56-.79-1.71-.5-3.92-1.35-5.05-2.81-1.37-1.76.89-3.91,2.2-4.96,1.45-1.16,3.2-1.95,5.02-2.33,1.65-.34,4.51-.7,4.89,1.51.3,1.77-.27,4.26-1.43,5.62s-3.06,1.92-4.82,1.86c-2.01-.07-3.91-.95-5.62-1.96-1.5-.89-3-1.87-4.22-3.12-1.43-1.46-2-3.11-1.9-5.14.08-1.75.44-3.57-.13-5.28-.93-2.77-3.81-3.91-6.48-4.32-1.77-.27-3.57-.32-5.36-.36-1.02-.02-2.05-.03-3.07,0-.81.01-1.72-.06-2.49.25-1.37.54-1.27,1.84-1.09,3.08.25,1.67.6,3.33,1.28,4.88,1.31,2.97,3.9,4.88,7.08,5.45s6.64.03,9.7-1.12c3.49-1.31,6.26-3.46,9-5.93s6.87-5.62,10.45-3.1c1.54,1.09,2.31,3.05,1.87,4.88-.5,2.05-2.17,3.28-4.17,3.67s-3.96.26-5.88.14c-2.13-.13-4.26-.49-6.27-1.25-1.67-.63-3.26-1.58-4.54-2.83s-1.95-2.66-2.7-4.23c-2.98-6.28-12.05-3.1-15.95.44-1.18,1.08-2.17,2.35-2.95,3.74-.48.84.82,1.6,1.3.76h0Z"/>
      <g>
        <path class="cls-14" d="M127.38,146.49c-1.61-.94-2.85-2.44-4.65-3.3-.8-.38-1.88-.64-2.48.02-.45.5-.35,1.32.03,1.87s.98.91,1.55,1.27c1.86,1.17,3.61,2.5,5.22,3.99.5.46.99.95,1.22,1.59.63,1.74-1.24,3.57-3.09,3.63s-3.52-1.03-5.02-2.12c-8.11-5.9-15.37-12.96-21.47-20.92-1.64-2.13-3.37-4.46-5.94-5.24-.7-.21-1.51-.28-2.1.15-.85.62-.78,1.91-.5,2.92,1.68,6.08,7.3,10.07,12.28,13.94,3.36,2.61,6.59,5.39,9.72,8.27,2.64,2.43,5.22,4.95,8.23,6.89,1.93,1.24,4.01,2.23,6.08,3.21,2.34,1.11,4.68,2.22,7.02,3.33,5.37,2.54,10.86,5.12,16.75,5.85,1.14.14,2.54.09,3.14-.9.44-.73.21-1.71-.33-2.37s-1.31-1.07-2.08-1.44c-4.34-2.1-8.99-3.55-13.76-4.3-1.94-.3-4.01-.53-5.58-1.71s-2.32-3.72-.95-5.12c.89-.9,2.33-1.02,3.55-.67s2.26,1.11,3.34,1.77c3.36,2.09,7.1,3.45,10.82,4.8,1.27.46,3.11.68,3.59-.58.46-1.21-.93-2.27-2.1-2.84-7.66-3.7-15.18-7.71-22.53-12Z"/>
        <path class="cls-2" d="M127.76,145.84c-1.69-1.04-6.28-5.97-8.24-2.87-.85,1.35.15,2.8,1.26,3.59,1.79,1.27,3.61,2.41,5.27,3.87.81.72,1.95,1.6,1.47,2.81-.43,1.07-1.65,1.63-2.74,1.57-2.23-.12-4.28-2.03-5.97-3.31-3.42-2.6-6.67-5.42-9.74-8.42s-5.85-6.08-8.48-9.36c-2.16-2.7-4.42-6.63-8.15-7.28-1.4-.24-2.74.35-3.11,1.8s.31,3.11.9,4.43c1.49,3.34,4.12,6.01,6.88,8.34,3.13,2.64,6.47,5.04,9.59,7.7,3.39,2.88,6.52,6.06,9.95,8.89s7.4,4.74,11.44,6.65,8.14,3.97,12.34,5.66c2.05.82,4.14,1.54,6.28,2.05,1.66.4,3.66.94,5.38.62,1.37-.26,2.41-1.3,2.28-2.75-.15-1.69-1.6-2.65-2.98-3.33-3.91-1.91-8.1-3.29-12.38-4.1-1.96-.37-4.13-.43-5.96-1.3-1.52-.72-3.42-3.24-1.6-4.7s4.24.42,5.79,1.37c1.87,1.15,3.85,2.09,5.88,2.93,1.88.78,3.86,1.69,5.85,2.16,1.18.28,2.67.33,3.47-.74,2.34-3.1-4.3-5.32-6.02-6.17-4.24-2.12-8.43-4.33-12.57-6.63-2.03-1.13-4.06-2.29-6.07-3.46-.84-.49-1.59.81-.76,1.3,3.74,2.19,7.53,4.3,11.36,6.34s7.72,3.76,11.46,5.82c.53.29,2.01,1.18,1.37,1.96-.46.56-1.74.2-2.3.03-1.94-.6-3.87-1.39-5.74-2.18s-3.78-1.75-5.54-2.86c-1.4-.88-2.85-1.81-4.56-1.83-3.02-.05-4.56,2.76-3.36,5.41,1.47,3.24,5.43,3.39,8.46,3.94,4.01.72,7.94,1.94,11.64,3.65.77.36,1.65.7,2.3,1.27.49.43,1.04,1.22.65,1.9-.25.45-.9.54-1.35.57-1.9.14-4.03-.52-5.83-1.04-4.05-1.15-7.88-2.96-11.68-4.76s-7.82-3.5-11.53-5.59-6.5-4.81-9.49-7.56-6.34-5.66-9.7-8.28c-2.73-2.13-5.55-4.19-7.96-6.69-1.2-1.25-2.29-2.62-3.12-4.15-.57-1.05-2.27-4.2-.79-5.01,1.62-.89,3.94,1.48,4.93,2.57,1.18,1.31,2.2,2.76,3.3,4.14,2.45,3.06,5.08,5.98,7.86,8.75s5.72,5.38,8.79,7.82c1.47,1.16,2.95,2.33,4.51,3.37,1.42.95,3.11,1.78,4.86,1.57,2.79-.33,4.69-3.41,2.76-5.74-1.16-1.41-2.79-2.56-4.26-3.62-.76-.55-1.58-1.01-2.34-1.55-.21-.15-.47-.31-.63-.51l-.34-.6.69-.7c.42-.09,1.11.35,1.46.55,1.49.85,2.67,2.13,4.13,3.03.82.51,1.58-.79.76-1.3Z"/>
      </g>
      <g>
        <path class="cls-14" d="M210.26,175.26c-2.64,1.34-6.06,2.62-7.91,5.29-.11.16-.22.33-.19.52.04.28.37.42.65.49,3.34.87,6.9.47,10.2-.56s6.36-2.66,9.4-4.28c1.27-.67,2.53-1.35,3.8-2.02,1.21-.64,2.42-1.29,3.54-2.08.9-.64,1.74-1.37,2.57-2.09,2.88-2.51,5.75-5.02,8.63-7.53,1.15-1.01,2.32-2.03,3.14-3.33,1.18-1.88,1.5-4.15,1.74-6.35.18-1.68.33-3.36.44-5.04.04-.59.04-1.27-.39-1.67-.49-.46-1.34-.3-1.83.16s-.73,1.13-.95,1.76c-.84,2.43-1.75,4.85-3.13,7.01-1.46,2.28-3.41,4.2-5.34,6.09-.98.96-1.95,1.92-2.93,2.88-1.23,1.21-2.48,2.43-3.96,3.31-1.48.87-3.14,1.37-4.75,1.94-4.3,1.52-8.65,3.45-12.72,5.52Z"/>
        <path class="cls-2" d="M209.89,174.61c-2.75,1.38-6.73,2.75-8.26,5.68-1.68,3.23,7.14,2.41,8.51,2.18,4.22-.73,8.1-2.69,11.85-4.68,2.07-1.1,4.16-2.16,6.2-3.32,1.92-1.09,3.56-2.47,5.22-3.91,1.81-1.58,3.63-3.17,5.44-4.75,1.69-1.48,3.57-2.89,5.02-4.62,2.57-3.06,2.7-7.29,3.01-11.09.11-1.39.64-3.75-1.08-4.41-1.53-.59-2.71.79-3.22,2.05-.84,2.1-1.48,4.24-2.58,6.24s-2.67,3.84-4.31,5.52-3.41,3.4-5.14,5.07c-1.9,1.84-3.85,3.08-6.35,3.96-4.91,1.72-9.67,3.74-14.32,6.09-.86.44-.1,1.73.76,1.3,3.65-1.84,7.37-3.54,11.2-4.96,1.64-.61,3.33-1.11,4.93-1.82s2.94-1.73,4.2-2.9c2.72-2.52,5.53-5.14,7.9-8s3.66-6.08,4.93-9.52c.15-.42.4-1.36.88-1.52.38-.13.72.21.82.45.07.17.01.44,0,.62-.03.99-.15,1.99-.24,2.98-.17,1.86-.31,3.76-.8,5.56-1.06,3.87-4.75,6.25-7.63,8.76-3.07,2.68-6.03,5.72-9.61,7.72-3.34,1.87-6.75,3.73-10.22,5.34-3.99,1.85-8.47,3.22-12.91,2.45-.16-.03-1.14-.27-1.11-.15-.05-.19.78-.92.93-1.07.65-.63,1.38-1.15,2.15-1.62,1.46-.89,3.04-1.57,4.56-2.33.86-.43.1-1.73-.76-1.3Z"/>
      </g>
      <g>
        <path class="cls-14" d="M242.16,189.93c3.98-2.97,8.44-6.05,11.05-10.27.67-1.08,1.23-2.23,1.93-3.29.82-1.26,1.83-2.4,2.66-3.67,2.42-3.69,3.22-8.17,3.96-12.52.59-3.46,1.19-6.93,1.29-10.44.12-4.17-.47-8.37-1.74-12.34-.25-.79-.53-1.57-.94-2.29-.48-.83-1.12-1.55-1.77-2.25-4.88-5.25-10.49-9.84-16.61-13.57-.42-.26-.89-.52-1.37-.43-.74.13-1.11,1.07-.91,1.8s.78,1.28,1.34,1.79c5.43,4.93,11.35,9.49,15.58,15.49.98,1.39,1.87,2.87,2.45,4.47.53,1.48.79,3.06.9,4.63.34,4.76-.58,9.51-1.64,14.15-.55,2.41-1.15,4.83-2.22,7.06-1.16,2.44-2.84,4.6-4.51,6.73-2.14,2.73-4.28,5.48-6.78,7.88-.97.93-2.04,1.83-3.33,2.23s-2.85.15-3.7-.9c-.74-.92-.77-2.2-.63-3.37.39-3.18,1.89-6.21,4.18-8.45,2.45-2.39,5.72-3.87,7.95-6.47,1.83-2.13,2.8-4.86,3.51-7.58,1.23-4.72,1.78-9.69.91-14.49s-3.25-9.43-7.1-12.43c-.5-.39-1.05-.76-1.67-.86s-1.35.15-1.62.73c-.35.75.19,1.6.71,2.24,2.51,3.13,5.26,6.32,6.13,10.24.77,3.46-.02,7.06-.82,10.51-.58,2.48-1.18,4.99-2.35,7.25s-3.79,3.54-4.44,4.26l-.82.89c-5.64,7.03-14.21,10.69-22.44,14.34-2.38,1.06-4.77,2.12-7.27,2.85-2.11.62-4.29,1-6.46,1.33-9.02,1.38-18.38,1.98-27.16-.51-1.48-.42-3.27-1.44-2.98-2.95.28-1.44,2.15-1.8,3.62-1.81,4.18-.04,8.38.1,12.51-.48s8.27-1.95,11.45-4.67c.12-.1.24-.21.28-.36.14-.5-.62-.73-1.14-.68-3.32.26-6.64.52-9.97.79-.94.07-1.92.14-2.79-.24s-1.53-1.37-1.23-2.26c.36-1.03,1.68-1.3,2.77-1.36,5.32-.33,10.66.02,15.98-.3s10.74-1.38,15.23-4.25c2.08-1.33,3.92-3.02,6.09-4.2,1.12-.61,2.31-1.08,3.34-1.82,1.82-1.32,2.98-3.49,3.08-5.73.01-.25,0-.51-.11-.73-.4-.75-1.55-.36-2.25.12-4.28,2.92-8.51,5.91-12.69,8.96-.86.63-1.72,1.26-2.67,1.75-1.64.85-3.49,1.25-5.32,1.52-3.46.52-6.97.65-10.46.75-9.34.25-18.69.25-28.03-.16-1.8-.08-3.23,0-4.85-.79l-.38-.17-7.32-2.34c-1.19-.38-2.78-.62-3.43.45-.69,1.14.47,2.51,1.61,3.19,6.99,4.14,16.13,1.01,23.87,3.47,1.45.46,3.01,1.32,3.34,2.81.52,2.33-2.28,4.03-4.65,4.25-7.11.68-13.35-4.35-20.13-6.57-.97-.32-2.37-.37-2.66.61-.26.86.65,1.58,1.44,2.01,3.34,1.78,6.85,3.26,10.46,4.39.51.16,1.1.38,1.25.9.25.85-.88,1.41-1.76,1.53-11.2,1.53-21.65-5.76-32.85-7.33-.54-.08-1.16-.11-1.54.27-.54.54-.21,1.45.22,2.08,1.47,2.14,3.78,3.54,6.08,4.74,5.23,2.72,10.81,4.76,16.57,6.05,4.43.99,8.96,1.54,13.47,2.08,5.61.68,11.23,1.35,16.84,2.03,3.69.45,7.4.89,11.11.73,6.39-.28,12.56-2.35,18.62-4.4,3.46-1.17,6.92-2.34,10.38-3.51,1.78-.6,3.92-1.16,5.41,0,1.33,1.02,1.5,3.09.73,4.58s-2.24,2.5-3.76,3.21c-9.07,4.23-20.52-.06-29.42,4.52-.59.31-1.22.72-1.35,1.38-.21,1.07,1,1.83,2.04,2.16,8.61,2.73,17.73-1.17,26.57-3.01,2.06-.43,4.17-.75,6.13-1.51,2.57-1,4.79-2.72,6.97-4.42v.04Z"/>
        <path class="cls-2" d="M242.54,190.58c2.69-2.01,5.46-3.96,7.87-6.32,1.11-1.09,2.14-2.27,3.01-3.55,1.04-1.52,1.81-3.21,2.88-4.72s2.17-2.8,3-4.39,1.42-3.23,1.88-4.93c.94-3.44,1.47-7.03,1.99-10.55.56-3.81.83-7.64.41-11.48-.37-3.34-.93-7.38-2.79-10.26-.87-1.35-2.07-2.5-3.19-3.64-1.33-1.36-2.72-2.67-4.15-3.92-2.58-2.26-5.3-4.37-8.14-6.28-1.47-.99-5.83-4.42-6.38-.65-.19,1.29.7,2.27,1.58,3.09,1.37,1.28,2.8,2.49,4.21,3.73,2.6,2.28,5.18,4.58,7.54,7.11,2.48,2.66,5.1,5.72,6.23,9.24,1.25,3.91.89,8.33.24,12.32s-1.38,7.81-2.8,11.41-3.93,6.51-6.26,9.45c-1.12,1.42-2.27,2.82-3.49,4.15s-2.62,2.98-4.32,3.76c-1.89.86-3.92.1-4.01-2.14-.07-1.82.54-3.78,1.34-5.39,1.54-3.13,4.16-5.01,6.92-6.99s4.86-4.16,6.18-7.31,2.12-6.96,2.46-10.51c.63-6.65-.79-13.67-5.31-18.78-1.28-1.45-4.68-4.97-6.59-2.41-.8,1.08-.16,2.33.54,3.26,1.1,1.45,2.29,2.81,3.33,4.31,2.14,3.09,3.26,6.33,2.95,10.12-.16,1.94-.6,3.85-1.05,5.74s-.89,3.8-1.61,5.62c-.64,1.59-1.49,2.84-2.83,3.91-.75.6-1.6,1.1-2.28,1.79-2.07,2.12-3.89,4.32-6.29,6.11-5.3,3.98-11.51,6.58-17.54,9.24-3.68,1.62-7.34,2.85-11.32,3.51s-7.88,1.13-11.85,1.31-7.6.07-11.34-.52c-1.76-.28-3.58-.59-5.27-1.18-.63-.22-1.44-.54-1.85-1.09-.71-.95.05-1.63.96-1.9,1.56-.46,3.41-.21,5.01-.21,2.09,0,4.18-.02,6.26-.17,3.4-.24,6.78-.84,9.93-2.18,1.1-.47,6.92-2.98,5.09-4.84-.94-.95-2.92-.39-4.05-.3-2.16.17-4.32.34-6.48.51-.85.07-1.76.22-2.62.12-1.16-.13-2.52-1.48-.94-2.16.69-.3,1.55-.26,2.29-.29,1.13-.05,2.26-.08,3.39-.09,3.88-.04,7.76.08,11.63-.16,3.52-.22,7.06-.73,10.4-1.88s6.17-3.19,9.11-5.28c2.55-1.81,5.79-2.67,7.61-5.37.91-1.36,2.79-6.19-.35-6.13-1.4.03-2.69,1.27-3.76,2.01-1.73,1.19-3.46,2.4-5.17,3.62-1.58,1.12-3.16,2.26-4.73,3.4-1.66,1.21-3.26,2.42-5.25,3.05-3.57,1.12-7.51,1.23-11.22,1.37-4.07.15-8.15.22-12.22.24s-8.2-.01-12.3-.12c-3.48-.09-7.37.25-10.65-1.01-1.58-.61-3.24-1.06-4.85-1.58-1.53-.49-3.22-1.29-4.86-1.22-1.05.04-2.06.57-2.38,1.63-.38,1.29.53,2.53,1.49,3.29,2.42,1.91,5.85,2.5,8.83,2.75,3.23.27,6.48.08,9.72.24,2.15.11,9.11.37,8.97,3.69-.06,1.53-1.9,2.42-3.18,2.74-1.7.42-3.61.22-5.3-.15-3.24-.7-6.23-2.21-9.21-3.63-1.42-.68-2.85-1.34-4.31-1.92-1.22-.49-2.68-1.18-4.03-.86-.94.23-1.63,1-1.51,2,.18,1.48,1.89,2.19,3.04,2.77,1.55.78,3.12,1.49,4.73,2.15.84.34,1.69.67,2.55.97.46.16,3.01.7,2.64,1.37-.28.51-1.97.44-2.46.47-.82.05-1.64.06-2.46.03-1.71-.07-3.41-.31-5.08-.66-3.43-.72-6.74-1.89-10.04-3.05-3.33-1.17-6.67-2.37-10.12-3.17-1.65-.38-6.92-1.83-5.98,1.74.73,2.76,4.19,4.68,6.5,5.91,3.24,1.73,6.65,3.18,10.13,4.36,7.33,2.49,14.98,3.39,22.63,4.31,4.13.5,8.26,1,12.38,1.49s8.07,1.08,12.14,1.06c7.68-.03,14.98-2.67,22.16-5.1,1.89-.64,3.78-1.28,5.66-1.92,1.78-.6,3.73-1.54,5.63-1.6s3.19,1.41,2.76,3.34-2.17,2.97-3.76,3.71c-6.24,2.92-13.5,1.7-20.15,2.2-3.16.24-6.45.8-9.27,2.33-.97.53-1.88,1.32-1.72,2.53.17,1.29,1.48,2,2.58,2.38,6.86,2.36,14.48.13,21.19-1.62,3.51-.91,7.16-1.44,10.63-2.48,3.26-.98,5.93-2.99,8.58-5.05l-1.28-.53v.04c0,.97,1.5.97,1.5,0v-.04c0-.71-.79-.91-1.28-.53-1.44,1.12-2.89,2.24-4.48,3.16-1.77,1.02-3.64,1.62-5.63,2.04-3.58.77-7.12,1.6-10.67,2.51s-7.22,1.79-10.94,1.93c-1.84.07-3.69-.04-5.5-.43-.72-.16-1.51-.31-2.18-.63-.29-.14-.9-.42-.99-.77-.2-.81.77-1.15,1.29-1.41,6.11-2.99,13.33-1.83,19.88-2.26,4.56-.3,14.25-1.8,13.74-8.24-.22-2.81-2.71-4.01-5.28-3.59-1.74.28-3.42.99-5.08,1.55-1.89.64-3.78,1.28-5.66,1.92-7.29,2.47-14.68,5.15-22.49,5.04-3.99-.05-7.95-.64-11.91-1.12s-7.93-.96-11.89-1.43c-7.67-.93-15.32-1.86-22.66-4.4-3.46-1.2-6.86-2.66-10.06-4.45-1.49-.84-2.95-1.79-4.09-3.08-.45-.51-1.71-1.96-.29-2.07.93-.07,2.11.34,3.02.54,6.62,1.46,12.78,4.44,19.36,6.03,3.12.75,6.35,1.19,9.56.93,1.14-.09,2.59-.17,3.39-1.14.64-.78.45-1.83-.36-2.42-.55-.4-1.3-.55-1.93-.76-.86-.29-1.72-.59-2.57-.91-1.78-.68-3.53-1.44-5.23-2.29-.74-.37-1.75-.71-2.34-1.31-.95-.97.4-1,1.09-.84,1.72.4,3.42,1.27,5.01,2.02,2.89,1.35,5.73,2.85,8.78,3.8,2.68.84,5.94,1.43,8.66.45,2.11-.75,4.28-2.67,3.44-5.14-.9-2.64-4.49-3.34-6.88-3.71-6.38-.97-13.53.76-19.54-2.13-.63-.3-1.29-.64-1.8-1.13-.34-.34-.95-1.03-.59-1.59.26-.41.77-.4,1.18-.39.79.02,1.57.35,2.32.58l3.2,1.02c1.34.43,2.67.85,3.98,1.37,1.63.65,3.41.59,5.14.66,7.86.32,15.74.38,23.61.23,3.85-.07,7.72-.12,11.56-.49,3.56-.34,7.08-.87,10.09-2.92,3.18-2.18,6.25-4.52,9.41-6.72,1.45-1.01,2.88-2.13,4.4-3.03.2-.12.67-.5.92-.42.53.16.27.97.21,1.29-.18.92-.55,1.79-1.07,2.56-1.02,1.51-2.55,2.25-4.12,3.04s-2.96,1.79-4.36,2.83c-2.9,2.16-5.9,3.79-9.41,4.72-7.49,1.98-15.31,1.09-22.95,1.45-1.93.09-5.56.69-4.36,3.55.46,1.08,1.49,1.68,2.61,1.85,1.93.29,4.07-.15,6.01-.3,1-.08,1.99-.16,2.99-.24.86-.07,2.2.08,2.99-.24.28-.11.45.15.33-.23.04.12-1.02.79-1.17.9-.8.55-1.64,1.04-2.51,1.46-3.29,1.58-6.97,2.2-10.59,2.43-1.93.12-3.86.14-5.78.14-1.58,0-3.23-.14-4.8.13-2.19.38-4.08,2.52-2.23,4.54.73.81,1.79,1.26,2.81,1.57,1.91.58,3.91.94,5.88,1.22,3.59.5,7.21.6,10.83.44,7.27-.33,14.87-1.23,21.63-4.04,6.09-2.53,12.36-5.19,17.88-8.85,2.59-1.72,5.02-3.71,7.08-6.05.53-.6,1.02-1.25,1.6-1.81.81-.78,1.82-1.33,2.66-2.08,2.41-2.14,3.27-5.42,4.01-8.45.84-3.46,1.78-7.08,1.39-10.66-.36-3.33-2.01-6.22-3.99-8.86-.93-1.23-2.12-2.39-2.9-3.72-.41-.7.03-1.41.86-1.18.45.13.93.54,1.28.83.71.58,1.37,1.23,1.98,1.92,4.86,5.51,5.72,13.33,4.51,20.33-.59,3.44-1.45,7.19-3.48,10.1-1.89,2.71-4.91,4.23-7.42,6.27s-4.33,4.76-5.17,7.87c-.65,2.41-1.01,5.9,1.82,7.04s5.46-1.03,7.35-2.94c2.55-2.56,4.76-5.45,6.97-8.31s3.97-5.64,5.03-9.01c1.12-3.58,1.89-7.36,2.4-11.08s.71-7.63-.32-11.25c-.9-3.18-2.93-5.93-5.03-8.42-2.22-2.64-4.74-5.02-7.31-7.31-1.24-1.11-2.49-2.2-3.74-3.29-.61-.53-4.2-3.11-3.57-4.07.67-1.02,4.19,1.87,4.85,2.33,1.51,1.04,2.99,2.14,4.42,3.29,2.74,2.2,5.33,4.58,7.75,7.13,1.29,1.36,2.38,2.66,3,4.46s1.1,3.84,1.41,5.8c.6,3.82.52,7.67.03,11.5s-1.06,7.37-1.95,10.95c-.43,1.72-.97,3.43-1.76,5.02s-1.87,2.97-2.93,4.4-1.79,2.94-2.71,4.41c-.83,1.33-1.83,2.52-2.93,3.63-2.38,2.4-5.15,4.36-7.86,6.37-.77.57-.02,1.87.76,1.3Z"/>
      </g>
      <g>
        <path class="cls-13" d="M258.79,244.4c-1.19-.18-2.8.24-3.77.93-.36.25-.6.63-.84,1-.4.61-.8,1.24-1.02,1.93s-.27,1.48.06,2.14c.63,1.28,1.16,1.95,3.44,2.48,1.12.26,1.76.63,3.62.13.53-.14.79-.38,1.14-.49.59-.19.96-.78,1.24-1.34.33-.65.63-1.33.88-2.01.3-.82.18-1.51-.08-2.35-.14-.48-.52-.91-.96-1.15-1.15-.64-2.42-1.07-3.72-1.26Z"/>
        <path class="cls-3" d="M258.79,243.65c-1.15-.15-2.35.12-3.39.6-1.17.54-1.83,1.53-2.44,2.63s-1,2.48-.46,3.73c.32.75.78,1.45,1.43,1.94.81.61,1.79.85,2.75,1.09s1.78.42,2.74.29c.63-.09,1.23-.24,1.8-.52.46-.22.93-.39,1.31-.76.41-.4.68-.93.93-1.44.29-.6.57-1.23.79-1.86.46-1.32.15-3.14-.97-4.06-.56-.46-1.28-.74-1.95-.99-.76-.29-1.55-.5-2.36-.63-.4-.06-.8.1-.92.52-.1.36.12.86.52.92,1.11.18,2.2.5,3.21,1.01.37.19.73.38.91.77.2.44.31,1.04.25,1.52s-.31,1-.51,1.45c-.21.48-.43.98-.72,1.42-.41.6-1.34.91-2.02,1.07-.75.17-1.43.14-2.17-.05s-1.5-.32-2.19-.65c-.52-.25-.89-.6-1.18-1.09-.44-.75-.54-1.46-.22-2.29.22-.56.56-1.08.89-1.58.29-.45.58-.77,1.06-1.02.88-.46,1.92-.66,2.9-.53.41.05.75-.38.75-.75,0-.45-.35-.7-.75-.75Z"/>
      </g>
      <g>
        <path class="cls-13" d="M213.21,265.16c-2-.26-4.13.7-5.14,2.44-.2.35-.37.74-.41,1.14-.09.8.32,1.6.91,2.16s1.35.88,2.12,1.13c.59.19,1.19.33,1.81.33,1.94.01,3.69-1.42,4.45-3.19.37-.85.52-1.91-.03-2.65-.45-.61-1.24-.84-1.98-.94s-.91-.31-1.72-.42Z"/>
        <path class="cls-3" d="M213.21,264.41c-1.91-.23-3.96.53-5.21,2.01-.68.8-1.2,1.81-1.07,2.89s.84,2.01,1.74,2.61c1.72,1.17,4.11,1.57,6.02.68,1.75-.82,3.2-2.71,3.34-4.66.08-1.15-.49-2.21-1.54-2.71-.53-.25-1.07-.31-1.63-.43-.49-.1-.94-.29-1.44-.37-.4-.06-.81.1-.92.52-.1.35.12.86.52.92.69.1,1.36.34,2.05.47.64.12,1.33.38,1.45,1.1.21,1.32-.92,2.8-1.95,3.49-1.36.91-2.89.75-4.35.12-.7-.3-1.4-.77-1.7-1.5s.04-1.45.49-2.03c.99-1.27,2.64-1.81,4.2-1.63.4.05.75-.38.75-.75,0-.45-.35-.7-.75-.75Z"/>
      </g>
      <g>
        <path class="cls-13" d="M281.39,108.78c-.39.04-1.12.24-1.43.69-.26.39-.28.88-.4,1.33-.14.53-.4,1.03-.42,1.58-.04,1.13,1.12,2.08,2.25,2.03s2.12-.9,2.58-1.94c.36-.8.43-1.77.02-2.54s-1.58-1.21-2.53-1.14h-.06Z"/>
        <path class="cls-3" d="M281.39,108.03c-.66.07-1.33.28-1.82.75-.58.56-.58,1.38-.81,2.1s-.48,1.39-.29,2.15c.17.69.65,1.26,1.23,1.64,1.24.82,2.78.5,3.87-.41s1.73-2.6,1.35-4.03c-.2-.76-.7-1.37-1.39-1.74s-1.37-.46-2.12-.46c-.97,0-.97,1.5,0,1.5.2,0,.4-.01.6.01-.1-.01.15.03.2.04.13.03.26.07.38.12.24.08-.05-.03.08.03.05.02.09.05.14.07.1.05.2.11.29.18-.09-.07.09.1.12.13.09.08.05.05.02.01.04.06.08.12.11.18.41.75.09,1.86-.43,2.48-.08.1-.17.19-.26.27-.05.05-.1.1-.15.14,0,0-.11.08-.04.04-.09.07-.18.12-.28.18-.13.07-.18.1-.27.13-.45.15-.72.17-1.16,0,.1.04-.02,0-.03-.02-.06-.03-.11-.06-.17-.09s-.11-.07-.16-.11c.03.02.08.07-.03-.03-.08-.07-.15-.14-.22-.22-.1-.11-.04-.05-.02-.03-.04-.06-.08-.13-.12-.19-.07-.11-.04-.06-.02-.02-.02-.06-.04-.12-.06-.18-.01-.03-.04-.19-.02-.06,0-.05,0-.1,0-.15,0-.23.07-.47.16-.72.1-.3.21-.6.28-.92.06-.26.09-.6.19-.81,0,.01.14-.22.08-.14-.07.08.15-.13.07-.07-.06.05.07-.04.08-.05.03-.02.19-.1.15-.08-.07.03.07-.03.09-.03.07-.02.14-.05.21-.06.04-.01.09-.02.13-.03s.28-.04.07-.02c.4-.04.75-.31.75-.75,0-.37-.34-.79-.75-.75Z"/>
      </g>
      <g>
        <path class="cls-5" d="M287.67,190.17c.79,3.09.44,4.96.59,8.15.13,2.92.4,6.14,2.51,8.15.82.78,1.84,1.3,2.85,1.81.79.4,1.62.8,2.5.84.83.04,1.63-.24,2.41-.51,2.66-.94,5.34-1.88,7.8-3.27,1.06-.6,2.1-1.29,2.89-2.22.95-1.11,1.5-2.5,2.03-3.85.66-1.67,1.31-3.34,1.97-5.01.47-1.21.95-2.43,1.09-3.72.16-1.5-.16-3.01-.18-4.52-.03-1.88.41-3.74.37-5.62-.03-1.55-.38-3.08-.57-4.63-.3-2.48-.17-4.99-.39-7.47s-.82-5.03-2.38-6.98c-2.43-3.03-6.87-4-10.6-2.89-3.72,1.11-6.73,3.99-8.69,7.35-1.96,3.36-2.98,7.17-3.77,10.97-.92,4.42-1.57,9.05-.44,13.42Z"/>
        <path class="cls-4" d="M286.94,190.37c1.02,4.18.05,8.56,1.15,12.74.47,1.81,1.41,3.44,2.94,4.55s3.86,2.43,5.9,2.16,4.41-1.38,6.39-2.2,3.95-1.73,5.56-3.11,2.41-3.33,3.18-5.27c.91-2.31,2.01-4.63,2.67-7.02s.04-4.72.16-7.14.46-4.74.1-7.2c-.38-2.59-.49-5.11-.59-7.72-.09-2.21-.29-4.46-1.1-6.54-1.4-3.61-4.53-5.88-8.35-6.31s-7.56,1.18-10.35,3.79c-3.6,3.38-5.47,8.11-6.64,12.82-1.32,5.33-2.35,11.02-1.03,16.45.23.94,1.67.54,1.45-.4-1.09-4.46-.41-9.04.53-13.46.86-4,1.99-8.05,4.31-11.47,2-2.95,4.99-5.46,8.57-6.14s7.53.62,9.42,3.82c2.19,3.71,1.51,8.26,1.89,12.36.2,2.18.74,4.3.61,6.5s-.4,4.13-.22,6.26c.19,2.28-.17,4.11-1,6.23s-1.58,4.25-2.5,6.3c-1.77,3.95-5.96,5.46-9.78,6.85-1.01.37-2.03.8-3.08,1.05-1.43.33-2.67-.36-3.9-1.02-2.07-1.1-3.26-2.6-3.79-4.89-.93-4.08-.07-8.31-1.06-12.38-.23-.94-1.68-.54-1.45.4Z"/>
      </g>
      <g>
        <path class="cls-9" d="M292.14,198.07c-.2.93-.77,1.72-.6,2.66s.81,1.76,1.64,2.24c.67.39,1.45.55,2.21.71,2.14.43,4.33.8,6.48.47s4.29-1.49,5.27-3.43c.09-.18.17-.37.14-.56-.03-.22-.2-.4-.37-.54-1.49-1.27-3.69-1.12-5.64-.89s-4.13.43-5.66-.79c-.18-.15-.37-.33-.39-.57-.01-.13.02-.25.06-.38.39-1.16,1.55-2.01,2.78-2.03.89-.02,1.73.36,2.59.57,2.49.63,5.1-.06,7.58-.75.28-.08.61-.19.72-.46.09-.22,0-.48-.11-.69-.68-1.29-2.19-1.94-3.64-2.04s-2.89.24-4.33.45-2.96.29-4.29-.31c-.27-.12-.55-.29-.63-.58-.16-.54.48-.96,1.01-1.12,4-1.26,8.69-.22,12.25-2.45.18-.11.38-.27.39-.48,0-.15-.08-.29-.17-.4-.72-.93-1.87-1.52-3.04-1.56-.61-.02-1.47-.09-1.51-.7-.01-.19.08-.38.18-.55.6-.99,1.53-1.78,2.61-2.19.52-.2,1.07-.32,1.56-.59s.92-.73.95-1.29c.03-.64-.51-1.21-1.12-1.4s-1.28-.1-1.91.03c-3.22.68-6.23,2.38-9.52,2.45-.2-.69.23-1.43.83-1.83s1.31-.54,2.01-.71c2.65-.63,5.19-1.71,7.48-3.17.22-.14.45-.3.52-.55.16-.52-.45-.94-.98-1.08-1.81-.47-3.72.07-5.59-.07-.51-.04-1.04-.14-1.46-.44s-.69-.85-.53-1.34c.17-.54.76-.8,1.28-1.01,1.86-.74,3.73-1.47,5.59-2.21.81-.32,1.68-.69,2.15-1.43s.24-1.96-.61-2.16c-.57-.13-1.12.22-1.62.53-2.44,1.54-5.28,2.43-8.16,2.57.47-1.78,2.1-3.2,3.92-3.42.82-.1,1.66.02,2.46-.17s1.6-.84,1.55-1.66c-.02-.35-.19-.68-.41-.96-.91-1.19-2.56-1.66-4.04-1.42s-2.81,1.07-3.93,2.06c-1.72,1.51-3.09,3.43-3.94,5.56-.28.71-.52,1.45-.48,2.21s.38,1.54,1.03,1.94c.15.09.31.16.43.29.45.48-.05,1.26-.61,1.61s-1.27.69-1.34,1.34c-.05.46.26.88.36,1.34.16.76-.29,1.51-.82,2.08s-1.17,1.06-1.52,1.75-.27,1.69.41,2.06c.55.3,1.21.07,1.83,0s1.42.15,1.48.76c.06.56-.54.94-1.06,1.15-.85.34-1.74.59-2.65.75,1.08.83,2.62.38,3.91-.05s2.92-.73,3.85.27c-.56.79-1.61,1.07-2.57,1.16s-1.98.07-2.86.47c-.79.36-1.39,1.02-1.96,1.67-.19.22-.39.45-.45.73-.14.66.48,1.2.98,1.64s.98,1.2.57,1.73c-.4.53-1.48.54-1.45,1.2.03.67,1.25.66,1.41,1.32.04.16,0,.32-.03.48-.16.73-.31,1.46-.47,2.18Z"/>
        <path class="cls-4" d="M291.42,197.87c-.47,1.73-1.08,3.11.16,4.68,1.16,1.47,3.02,1.75,4.76,2.07,3.58.64,7.86.75,10.52-2.19.93-1.03,1.73-2.39.45-3.46s-3.09-1.23-4.72-1.12c-1.8.12-3.75.65-5.51.04-.5-.17-1.04-.39-.96-.9.07-.43.68-.86,1.05-1.05,1.2-.59,2.53.18,3.72.42,2,.39,4.04.05,5.99-.43,1.27-.32,3.42-.67,2.67-2.49-.61-1.49-2.3-2.3-3.8-2.53-2.17-.33-4.27.46-6.42.53-.52.02-1.25.07-1.74-.15-.84-.37-.29-.6.33-.75,1.03-.25,2.08-.37,3.14-.46,1.84-.15,3.7-.21,5.5-.63,1.11-.26,3.73-.89,3.79-2.35.06-1.28-1.89-2.29-2.9-2.55-.4-.11-.8-.12-1.21-.17-.82-.08-.48-.34.04-.88.85-.89,1.87-1.09,2.94-1.57,1.44-.65,2.36-2.34,1.04-3.62-1.43-1.39-3.77-.54-5.4-.02-2.39.75-4.71,1.76-7.25,1.86l.72.55c-.2-1.44,2.64-1.68,3.56-1.95,1.02-.3,2.03-.67,3-1.1,1.05-.46,2.07-.98,3.05-1.58.49-.3,1.07-.62,1.23-1.22.54-1.93-2.33-2.22-3.54-2.23-1.09,0-2.19.19-3.28.14-.57-.02-2.4-.22-1.42-1.13.39-.36,1.25-.53,1.74-.72,1.82-.72,9.52-2.68,6.76-6.12-1.12-1.39-2.7-.21-3.86.44-2.16,1.21-4.57,1.87-7.03,2.02l.72.95c.3-.99.91-1.81,1.81-2.35,1.03-.62,2.1-.5,3.25-.6,1.42-.13,3.1-1.02,2.88-2.7-.2-1.53-1.85-2.57-3.24-2.87-1.8-.39-3.62.21-5.11,1.21-1.62,1.09-2.98,2.57-4.04,4.2-1,1.54-2.14,3.63-1.84,5.52.11.69.42,1.37.94,1.85.08.07.22.13.28.21.28.36.41-.04.15.46-.22.42-.86.6-1.21.91-.49.44-.76.99-.68,1.66.06.52.44,1,.34,1.55-.11.63-.74,1.12-1.16,1.55-1.02,1.04-2.13,2.86-.78,4.16.7.68,1.55.48,2.41.41.16-.01.79-.15.86.04.07.17-.81.5-.9.53-.72.27-1.47.44-2.22.58-.67.13-.68,1.05-.18,1.37,1.05.68,2.21.64,3.39.36,1.27-.31,3.06-1.31,4.21-.25v-1.06c-1.39,1.64-4.17.68-5.91,1.9-1.16.81-2.74,2.32-1.87,3.82.21.36.51.63.8.92.5.5.64.75.09,1.16-.5.36-1,.54-1.04,1.25-.03.59.33,1,.8,1.3.41.26.49.17.54.61.07.54-.31,1.44-.43,1.97-.2.94,1.24,1.34,1.45.4.24-1.13,1.21-3.28-.27-3.99-.14-.08-.29-.15-.43-.22-.28.19-.28.21.02.04.3-.11.63-.27.86-.49.48-.45.63-1.02.47-1.65-.22-.85-1.03-1.1-1.37-1.79-.54-1.1,1.38-2.29,2.19-2.52,1.83-.54,3.79,0,5.18-1.63.25-.3.32-.77,0-1.06-.91-.83-2.01-1-3.21-.8-1.5.24-3.26,1.39-4.7.46l-.18,1.37c1.27-.24,3.61-.59,4.16-2.02.43-1.12-.54-1.98-1.58-2.11-.73-.09-2.25.59-2.21-.65.03-.86,1.3-1.63,1.78-2.26.41-.53.75-1.17.76-1.86,0-.33-.11-.6-.16-.91-.12-.78.11-1.07.74-1.5.87-.6,1.63-1.84.76-2.78-.67-.72-1.27-.9-1.21-2.05s.62-2.18,1.14-3.12c1.53-2.75,5.77-7.54,9.29-5.04.16.12.31.23.45.38.36.39.29,1.04-.11,1.44-.42.41-1.37.27-1.92.29-.85.03-1.65.13-2.43.49-1.5.68-2.56,1.97-3.04,3.53-.14.45.24.98.72.95,2.1-.13,4.13-.57,6.06-1.39.86-.37,1.66-.82,2.47-1.28.53-.3,1.2-.8,1.34.14.08.54-.6.94-.97,1.16-.9.55-2.03.85-3.01,1.24-1.15.45-2.3.89-3.44,1.36s-2.31,1.41-1.69,2.81c.67,1.51,2.58,1.52,4,1.46,1.11-.05,2.69-.43,3.76,0,.77.31.31.43-.23.75-.49.29-1,.56-1.51.82-1.91.95-3.88,1.42-5.9,2.03-1.57.48-2.77,1.5-2.52,3.25.04.31.43.56.72.55,1.79-.08,3.49-.53,5.19-1.09s3.55-1.51,5.29-1.49c.18,0,.74,0,.87.13l.13.49c.24.3.22.51-.06.63-.26.38-1.13.49-1.57.66-.67.26-1.27.62-1.81,1.08-.78.66-2.02,1.98-1.3,3.07s2.35.6,3.35,1.11c.18.09.98.51.97.73,0,.24-.89.53-1.04.59-.83.33-1.73.53-2.61.67-1.7.26-3.44.28-5.15.48-1.3.15-3.2.24-4.19,1.23-.89.89-.41,1.99.61,2.49,1.47.71,3.22.58,4.78.35,2-.29,4.33-.95,6.17.24.23.15.97.69.79,1.07-.07.15-1.13.31-1.32.36-1.11.28-2.24.53-3.39.59-2.88.15-6.58-2.27-8.48,1.15-1.71,3.08,3.42,3.59,5.32,3.43,1.79-.15,3.85-.68,5.55.14.66.32.8.58.41,1.22-.25.41-.67.78-1.05,1.07-.79.61-1.72,1.03-2.69,1.25-2.23.53-4.59.12-6.8-.33-1.06-.22-2.21-.46-2.87-1.4-.8-1.13-.17-2.12.15-3.29.25-.93-1.19-1.33-1.45-.4Z"/>
      </g>
      <g>
        <path class="cls-14" d="M102.87,158.43c-.75-.11-2.29.61-2.46,1.48s.24,1.75.69,2.51c3.04,5.19,8.14,8.79,13.23,11.98,3.95,2.47,8,4.81,12.23,6.76,17.69,8.2,37.65,9.55,57.1,10.87,2.73.18,5.63.43,7.81,2.09.39.3.77.68.84,1.16.13,1-1.06,1.6-2.04,1.82-4.97,1.15-10.14.88-15.23.57-9.59-.59-19.24-1.32-28.51-3.85-4.85-1.32-9.56-3.13-14.26-4.92-3.02-1.16-6.04-2.31-9.06-3.47-3.13-1.2-6.26-2.4-9.27-3.85-9.52-4.6-17.77-11.75-23.79-20.43-.75-1.09-1.5-2.26-1.61-3.57s.64-2.8,1.93-3.07c1.65-.34,3.23,1.33,4.87.97,1.2-1.7-.26-4.03-1.88-5.34-.72-.58-1.55-1.26-1.52-2.19.03-.88.92-1.54,1.79-1.61s1.73.28,2.52.66c9.16,4.42,15.83,12.93,24.95,17.42,1.43.7,3,1.38,3.8,2.75s.17,3.63-1.42,3.71c-.43.02-.85-.12-1.25-.27-7.22-2.8-11.82-11.05-19.47-12.16Z"/>
        <path class="cls-2" d="M102.87,157.68c-1.52-.07-3.25,1.04-3.25,2.67,0,2.1,1.91,4.24,3.19,5.76,3.09,3.67,7.12,6.42,11.15,8.95,9.15,5.73,18.8,10.08,29.3,12.66s20.87,3.63,31.41,4.44c2.63.2,5.25.38,7.88.56,2.41.16,5.02.19,7.24,1.26.6.29,1.47.64,1.54,1.36.05.55.05.53-.45.78-.21.11-.43.17-.65.24-1.49.44-3.12.6-4.66.72-2.78.22-5.58.14-8.37-.01-11.4-.61-22.91-1.48-33.86-4.95-5.37-1.7-10.6-3.82-15.85-5.83s-10.45-3.82-15.34-6.45c-8.55-4.58-16.17-11.31-21.58-19.38-.67-1-1.41-2.18-1.26-3.43.21-1.69,1.52-2,2.92-1.48,1.53.56,3.62,1.56,4.2-.64.5-1.89-.81-3.83-2.15-5.04-.41-.37-.93-.68-1.25-1.14-.6-.85-.08-1.52.86-1.61,1.35-.13,3,1.04,4.14,1.69,8.38,4.78,14.77,12.28,23.47,16.6.91.45,1.9.92,2.56,1.72s.91,2.52-.28,2.95c-.89.33-2.44-.7-3.21-1.13-.9-.5-1.76-1.08-2.58-1.69-3.27-2.43-6.09-5.48-9.63-7.55-1.64-.97-3.41-1.67-5.29-1.97-.94-.15-1.35,1.29-.4,1.45,4.47.72,7.84,3.78,11.16,6.62,1.63,1.39,3.28,2.78,5.1,3.92,1.42.89,3.83,2.5,5.56,1.71,1.51-.69,1.94-2.75,1.37-4.19-.82-2.06-3.19-2.88-5-3.82-4.65-2.42-8.66-5.86-12.7-9.15-3.79-3.09-7.88-6.6-12.52-8.33-1.67-.62-4.4-.26-4.45,2.03-.02.92.56,1.67,1.2,2.26,1,.92,2.15,1.77,2.53,3.16.15.55.3,1.39-.46,1.36-.51-.02-1.05-.33-1.52-.52-.96-.38-1.97-.68-2.99-.33-1.88.64-2.46,2.94-2.01,4.67.59,2.26,2.42,4.28,3.84,6.08,1.59,2.03,3.3,3.95,5.13,5.77,3.6,3.57,7.64,6.73,11.99,9.33,4.88,2.92,10.17,4.93,15.46,6.96,5.65,2.16,11.26,4.44,17,6.36s11.47,3.16,17.39,3.95,12.12,1.22,18.19,1.56c2.95.16,5.9.26,8.85,0,1.41-.12,2.82-.3,4.2-.61.92-.2,1.91-.49,2.55-1.22,1.55-1.78-.69-3.43-2.19-4.12-2.16-1-4.58-1.16-6.92-1.32-5.71-.39-11.42-.78-17.12-1.34-11.38-1.13-22.8-2.98-33.56-6.99-5.48-2.04-10.66-4.71-15.66-7.72-4.58-2.76-9.26-5.67-12.83-9.71-.9-1.02-1.71-2.11-2.41-3.28-.37-.63-1.09-1.72-.52-2.45.32-.41,1.05-.62,1.53-.59.97.04.96-1.46,0-1.5Z"/>
      </g>
      <g>
        <path class="cls-14" d="M278.62,170c.56-3.9,4.24-11.51,3.95-17.68s-2.11-12.2-4.8-17.76c-2.64-5.44-6.57-10.81-12.36-12.53-.3-.09-.62-.17-.93-.1-.88.2-1.07,1.39-.85,2.27.41,1.61,1.5,2.94,2.53,4.24,3.95,5,7.37,10.42,10.19,16.13,1.05,2.12,2.02,4.29,2.52,6.6.99,4.5.15,9.25-1.55,13.53s-4.24,8.18-6.75,12.04c-.34.53-.77,1.11-1.4,1.15-.74.06-1.32-.73-1.35-1.47s.35-1.43.69-2.09c3.8-7.37,5.44-15.83,4.67-24.08-.11-1.16-.73-2.67-1.86-2.43-.84.18-1.12,1.21-1.24,2.06-.65,4.59-1.31,9.18-1.96,13.77-.32,2.23-.64,4.5-1.57,6.56-.72,1.61-1.77,3.03-2.81,4.45-4.12,5.63-8.14,11.38-11.37,17.57-.96,1.84-1.85,3.72-2.88,5.52-.76,1.32-1.59,2.6-2.5,3.82-.96,1.3-2.11,2.61-3.68,3.01s-3.56-.59-3.59-2.21c-.03-1.61,1.68-2.6,3.07-3.42,2.12-1.24,4.02-2.86,5.57-4.76.49-.6.94-1.49.44-2.07-.37-.44-1.07-.4-1.62-.21-1.95.67-3.19,2.54-4.8,3.82-2.83,2.26-7.04,2.23-10.37,3.3l-.69.2c-10.44,3.24-20.67,6.32-31.44,4.46-1.19-.21-2.91-.1-3,1.1-.04.56.36,1.06.78,1.44,2.95,2.74,7.39,3.29,11.37,2.66s7.72-2.28,11.59-3.42c3.66-1.08,7.46-1.72,11.28-1.88,2.07-.09,4.32.02,5.95,1.31,2.33,1.85,2.23,5.98-.2,7.7-.93.66-2.07.97-3.19,1.18-3.97.75-8.14.41-11.95-.96-1.29-.47-2.62-1.06-3.98-.88-.28.04-.57.12-.74.34-.35.45.02,1.09.37,1.53,1.93,2.38,3.86,4.77,5.78,7.15-2.2,1.28-5.06,1.35-7.32.18-.84-.43-1.63-1.03-2.56-1.15s-2.06.57-1.93,1.51c.06.47.41.85.74,1.19,2.45,2.52,4.98,5.09,8.18,6.52,3.42,1.52,7.29,1.6,11.03,1.41,7.66-.4,15.77-2.13,21.12-7.63,1.32-1.36,2.43-2.91,3.79-4.22,1.15-1.11,2.47-2.05,3.55-3.23,1.45-1.58,2.44-3.58,2.81-5.7.09-.51.14-1.05-.06-1.52-.43-1.02-1.87-1.26-2.87-.79s-1.69,1.41-2.38,2.29c-5.78,7.38-14.77,12.14-24.12,12.77-1.5.1-3.45-.25-3.71-1.72-.17-.97.61-1.9,1.51-2.29s1.93-.39,2.91-.48c3.81-.35,7.46-2.18,10.01-5.03,2.06-2.3,3.38-5.17,5.33-7.57,2.06-2.53,4.76-4.48,6.85-6.99,4.04-4.85,5.55-11.48,9.87-16.08,1.3.62,1.58,2.45,1.03,3.78s-1.65,2.34-2.57,3.45c-1.88,2.25-3.09,5.07-3.41,7.98-.03.28-.04.6.14.82.14.16.36.23.57.26,2.16.38,4.13-1.44,5.05-3.43s1.16-4.23,2.08-6.22c1.33-2.88,3.95-4.96,5.67-7.63,2.17-3.38,2.79-7.5,3.36-11.47Z"/>
        <path class="cls-2" d="M279.34,170.2c.38-2.42,1.29-4.74,2.01-7.07.85-2.74,1.63-5.52,1.9-8.39.6-6.36-1.51-13.17-4.07-18.91-2.26-5.07-5.4-10.26-10.33-13.11-1.49-.86-4.75-2.74-5.82-.42-1.15,2.49,1.47,5.26,2.87,7.04,4.21,5.4,7.97,11.35,10.74,17.63,1.47,3.32,2.16,6.77,1.78,10.4s-1.54,6.8-3.08,9.91-3.4,6.25-5.43,9.1c-.07.1-.33.56-.48.6-1.49.42-.64-1.54-.49-1.86.34-.74.74-1.45,1.08-2.2.67-1.47,1.27-2.98,1.78-4.51,1.05-3.15,1.74-6.42,2.07-9.73.3-2.92.58-6.32-.08-9.22-.21-.9-.68-1.89-1.59-2.26-.99-.41-1.97.15-2.44,1.03-.68,1.27-.65,3.02-.85,4.41-.27,1.89-.54,3.77-.8,5.66-.49,3.46-.7,7.14-1.81,10.47s-3.67,6.11-5.68,8.93-3.9,5.6-5.69,8.51c-1.89,3.08-3.5,6.3-5.18,9.5-.79,1.51-1.65,2.98-2.62,4.39-.87,1.26-1.81,2.69-3.18,3.45-1.09.6-3.39.53-3.48-1.15-.08-1.46,2.03-2.35,3.05-2.98,1.22-.75,2.36-1.61,3.41-2.58.95-.88,2.1-1.9,2.61-3.12.37-.86.27-1.92-.62-2.43-1.07-.61-2.47.03-3.39.64-1.07.72-1.92,1.69-2.85,2.57-1.21,1.14-2.59,1.85-4.19,2.3-2.4.69-4.89.99-7.29,1.71-6.75,2.01-13.48,4.2-20.54,4.83-3.68.33-7.21.06-10.86-.39-1.65-.21-4.42.4-3.5,2.71s4.32,3.49,6.47,3.92c2.83.58,5.73.32,8.52-.35,3.4-.81,6.64-2.19,10-3.14,3.57-1.02,7.29-1.64,11.01-1.73,2.83-.07,6.26.59,6.49,4.01.26,3.8-3.49,4.74-6.55,5-3.41.29-6.74-.23-9.95-1.4-1.25-.45-2.87-1.12-4.22-.66-1.04.35-1.4,1.33-.93,2.32.66,1.37,1.99,2.59,2.94,3.76,1.12,1.38,2.23,2.76,3.35,4.14l.15-1.18c-1.49.81-3.19,1.11-4.86.77-1.49-.31-2.62-1.36-4.06-1.74-2.03-.54-4.22,1.36-2.79,3.33.86,1.18,2.11,2.24,3.18,3.23s2.21,1.94,3.43,2.74c2.6,1.7,5.57,2.49,8.65,2.72,5.75.42,12.07-.31,17.51-2.24,2.51-.89,4.9-2.11,7.01-3.75,2.38-1.85,4.01-4.35,6.2-6.38s4.4-3.75,5.56-6.64c.78-1.95,1.55-5.16-1.28-5.75-2.64-.54-4.15,2.21-5.6,3.88-1.92,2.21-4.13,4.17-6.56,5.79-4.71,3.15-10.61,5.46-16.34,5.57-1.09.02-3.71-.53-2.28-2.11,1.08-1.19,3.59-.86,5.06-1.16,2.65-.53,5.14-1.76,7.21-3.49,2.59-2.16,4.1-5.15,6-7.88,2.05-2.94,4.96-5.04,7.32-7.7,4.37-4.93,5.83-11.71,10.29-16.56l-.91.12c2.01,1.15.38,3.68-.65,4.87-1.23,1.42-2.38,2.8-3.2,4.51-.76,1.6-1.38,3.41-1.48,5.19-.08,1.45,1.02,1.97,2.35,1.86,3.64-.29,5.1-4.13,5.92-7.12.57-2.04,1.29-3.84,2.59-5.52,1.12-1.44,2.4-2.75,3.48-4.22,2.66-3.63,3.38-8.12,4-12.47.14-.94-1.31-1.35-1.45-.4-.53,3.67-1.06,7.49-2.95,10.75-1.71,2.94-4.55,5.07-6,8.18-1.36,2.92-1.38,8.11-5.11,9.2-.29.09-.89.25-1.18.07-.32-.19-.09-.78-.02-1.17.16-.89.41-1.77.73-2.62.7-1.85,1.81-3.41,3.12-4.89,1.02-1.15,2.08-2.41,2.24-4,.14-1.41-.38-2.8-1.64-3.52-.28-.16-.68-.13-.91.12-3.7,4.03-5.36,9.29-8.26,13.84-1.59,2.49-3.7,4.43-5.82,6.45s-3.79,4.27-5.37,6.75-3.26,4.7-5.76,6.25c-1.18.73-2.45,1.29-3.79,1.67-1.46.41-2.93.42-4.41.66-1.99.33-4.38,2.34-2.84,4.48,1.21,1.68,3.79,1.4,5.57,1.19,5.24-.61,10.31-2.44,14.75-5.29,2.18-1.41,4.22-3.05,6.03-4.91.91-.93,1.73-1.92,2.54-2.93.66-.83,2.43-3.02,3.63-1.68.86.96-.43,3.6-.92,4.5-.7,1.31-1.66,2.37-2.76,3.35s-2.21,1.88-3.2,2.96c-1.07,1.17-2.03,2.44-3.16,3.55-3.92,3.86-9.31,5.69-14.64,6.55-6.52,1.05-14.02,1.52-19.56-2.66-1.41-1.06-2.68-2.31-3.92-3.56-.48-.49-2.15-1.94-.66-2.31.83-.2,1.77.58,2.44.94,2.61,1.39,5.67,1.33,8.26-.08.46-.25.44-.82.15-1.18-1.12-1.38-2.23-2.76-3.35-4.14-.51-.63-1.01-1.25-1.52-1.88-.27-.33-.87-.87-1.01-1.26-.23-.66.26-.52.83-.47,1.7.14,3.37,1.11,5.02,1.53,1.52.38,3.07.61,4.63.69,2.82.14,6.54.04,8.94-1.64,1.72-1.21,2.47-3.38,2.2-5.42-.83-6.16-8.63-5.17-13.04-4.55-3.38.48-6.64,1.37-9.86,2.47s-6.42,2.3-9.8,2.57c-2.85.23-5.9-.18-8.31-1.81-.31-.21-1.89-1.23-1.51-1.86.27-.45,1.37-.31,1.78-.26,1.71.17,3.38.48,5.11.56,6.8.33,13.53-1.09,20.03-2.93,2.71-.77,5.39-1.66,8.1-2.43s5.4-.92,7.93-2c1.16-.5,2.15-1.19,3.07-2.06,1-.94,1.91-2.07,3.16-2.7.43-.22,1.43-.76,1.2.41-.05.23-.38.55-.53.73-.52.63-1.1,1.22-1.7,1.77-1.15,1.06-2.41,1.92-3.74,2.72-1.69,1.01-3.92,2.67-2.93,4.94.86,1.95,3.39,2.42,5.18,1.57,2.5-1.19,4.18-4.18,5.52-6.46,1.72-2.92,3.1-6.03,4.79-8.97s3.47-5.7,5.36-8.44,4.01-5.41,5.85-8.22,2.46-5.8,2.93-9.04c.52-3.61,1.03-7.21,1.54-10.82.12-.82.23-1.64.35-2.46.05-.34.06-.82.2-1.15.08-.19.46-.9.77-.84,1.1.19.9,4.05.91,4.77.07,3.34-.25,6.68-.95,9.94s-1.67,6.17-3.01,9.06c-.74,1.59-3.06,5.44.02,6.24,1.02.26,1.83-.45,2.37-1.21.95-1.33,1.8-2.76,2.67-4.15,1.73-2.79,3.33-5.67,4.5-8.75s1.85-6.16,1.84-9.35-.84-6.09-2.1-8.94c-2.63-5.92-6.12-11.54-10.02-16.7-.95-1.25-2.03-2.44-2.83-3.8-.33-.56-.86-1.44-.79-2.12.12-1.3,1.18-.78,1.98-.46,2.67,1.05,4.91,2.98,6.72,5.18,3.96,4.8,6.48,11.08,7.86,17.09.71,3.09,1.21,6.37.89,9.55-.3,2.85-1.14,5.63-2,8.34-.68,2.14-1.49,4.3-1.84,6.53-.15.94,1.3,1.35,1.45.4Z"/>
      </g>
      <g>
        <path class="cls-14" d="M197.92,89c1.22.32,1.52-1.76,1.57-3.02.01-.26-.01-.54-.17-.75-.18-.24-.48-.33-.77-.41-5.06-1.42-10.22-2.51-15.42-3.26-2.14-.31-4.4-.6-6.1-1.94,6.45-.74,12.96.45,19.32,1.81,7.98,1.71,15.9,3.7,23.66,6.21,5.19,1.68,10.62,3.82,13.79,8.26.88,1.24,1.56,2.62,2.34,3.93,2.05,3.44,4.89,6.43,6.41,10.14-3.1-.1-5.68-2.39-7.63-4.8s-3.67-5.14-6.32-6.77c.03,2.15.15,4.3.35,6.44.05.54.12,1.1.42,1.55.27.4.7.66,1.07.98.92.81,1.44,2.06,1.35,3.29-2.98-1.79-5.96-3.58-8.93-5.37-1.73-1.04-3.54-2.16-4.49-3.94,2.37-.33,4.37,2.04,6.77,2.11.26,0,.54-.02.74-.19.22-.19.27-.5.3-.78.33-3.07-.92-6.27-3.25-8.31-1.25-1.09-2.75-1.85-4.25-2.54-3.24-1.49-6.59-2.75-10.01-3.77-.98-.29-2-.57-3.01-.38s-1.97.96-2.04,1.98c-.08,1.27,1.16,2.19,2.32,2.73,2.56,1.19,5.59,1.93,7.2,4.25-5.18,1.43-10.59-.73-15.53-2.84-2.59-1.11-5.19-2.23-7.69-3.53.07-.97,1.24-1.4,2.21-1.51,1.94-.22,3.92-.07,5.8.43Z"/>
        <path class="cls-2" d="M197.72,89.72c1.89.27,2.35-1.71,2.49-3.21.09-.97-.05-1.8-.98-2.26-1.24-.61-2.83-.81-4.16-1.14-3.02-.75-6.06-1.37-9.13-1.88-2.84-.47-6.11-.49-8.52-2.26l-.38,1.4c5.46-.59,10.89.13,16.25,1.19s10.2,2.2,15.24,3.53c4.77,1.25,9.56,2.57,14.19,4.28,4.08,1.5,8.2,3.6,10.69,7.29,1.49,2.21,2.68,4.59,4.23,6.77s3.18,4.4,4.25,6.92l.65-1.13c-3.22-.19-5.6-2.67-7.48-5.06s-3.54-4.78-6.09-6.41c-.48-.31-1.14.09-1.13.65.04,2.36-.02,4.92.46,7.24.19.92.63,1.42,1.32,2.03.94.82,1.44,1.71,1.41,2.99l1.13-.65c-2.48-1.49-4.96-2.98-7.44-4.48-2.07-1.25-4.46-2.4-5.71-4.56l-.65,1.13c1.82-.16,3.29,1.09,4.92,1.71,1.25.48,3.1.8,3.57-.83s-.03-3.86-.66-5.41c-.69-1.69-1.78-3.18-3.22-4.31-1.62-1.27-3.53-2.11-5.41-2.93-2.05-.89-4.14-1.7-6.26-2.41-1.82-.61-4.06-1.63-6.01-1.12-1.41.37-2.66,1.65-2.39,3.19.32,1.83,2.24,2.68,3.76,3.32,2.07.87,4.42,1.61,5.82,3.5l.45-1.1c-3.96,1.02-7.95-.01-11.68-1.43s-7.42-3.04-10.96-4.87l.34.85c.22-1.14,2.2-1.04,3.05-1.05,1.37-.02,2.71.17,4.03.5.94.23,1.34-1.21.4-1.45-1.98-.5-4.07-.71-6.1-.44-1.23.16-2.57.68-2.83,2.04-.06.32.04.69.34.85,3.79,1.96,7.76,3.71,11.76,5.19s7.96,2.31,12.03,1.26c.43-.11.74-.71.45-1.1-1.05-1.42-2.43-2.33-4.02-3.06s-3.56-1.12-4.8-2.31c-1.38-1.33.08-2.56,1.55-2.51,1.11.04,2.24.49,3.28.82,2.19.7,4.34,1.49,6.46,2.39,3.92,1.66,7.88,3.53,8.97,8.04.12.52.64,2.69.18,3.14-.5.5-2.06-.36-2.5-.57-1.46-.71-2.85-1.56-4.54-1.41-.55.05-.95.6-.65,1.13,1.24,2.13,3.35,3.36,5.4,4.59,2.76,1.66,5.53,3.32,8.29,4.99.5.3,1.12-.09,1.13-.65.02-.88-.14-1.73-.55-2.51-.43-.82-1.11-1.24-1.72-1.89-.85-.9-.68-2.72-.76-3.89-.08-1.32-.13-2.64-.16-3.96l-1.13.65c5.23,3.35,7.28,11.24,14.33,11.67.63.04.85-.65.65-1.13-.96-2.25-2.34-4.24-3.75-6.22-1.51-2.11-2.81-4.27-4.13-6.5-2.27-3.83-5.83-6.29-9.86-8.02-4.49-1.93-9.27-3.24-13.98-4.53-5.25-1.44-10.55-2.69-15.88-3.81-6.1-1.28-12.32-2.31-18.56-1.64-.76.08-1,.94-.38,1.4,1.62,1.19,3.53,1.6,5.47,1.89,2.24.34,4.47.68,6.7,1.11s4.52.95,6.76,1.52c.65.17,2.9.41,3.15,1.18.09.26-.19,2.36-.62,2.3-.94-.14-1.35,1.31-.4,1.45Z"/>
      </g>
      <g>
        <path class="cls-14" d="M76.13,124.05c.78,1.44-.44,2.38-2.07,2.46-2.23.11-4.12-1.53-5.72-3.09-2.91-2.83-5.8-5.74-7.92-9.21s-3.42-7.57-2.87-11.59c.4-2.94,1.75-5.66,3.17-8.26,2.13-3.9,4.49-7.7,7.5-10.96,4.79-5.17,11.07-8.77,17.65-11.28,6.58-2.51,13.5-4.01,20.39-5.49,4.9-1.05,9.93-2.11,14.88-1.31-4.51,3.37-10.57,3.45-16.14,4.36-3.73.61-7.37,1.65-10.98,2.76-3.27,1-7.07,2.67-7.57,6.05,4.51,2.03,9.62-.46,14.18-2.39,16.8-7.12,35.68-6.82,53.92-6.4h.65c3.46.17,4.87.23,8.34.41,3.64.18,7.42.4,10.61,2.15.28.15.58.36.62.68.03.26-.14.51-.31.71-.69.78-1.3,1.31-2.34,1.45h-.37c-6.62-.09-14.52-1.2-21.55.51,2.76,3.14,7.77,2.26,11.82,3.33.83.22,1.78.73,1.78,1.58,0,1.3-1.89,1.44-3.16,1.16-7.26-1.6-14.78-2.02-22.18-1.25-.82.09-1.84.38-1.94,1.2-.12,1.02,1.27,1.44,2.31,1.45,8.85.06,18.1-1.33,26.25,2.1.2.08.4.17.55.32.86.86-.65,2.07-1.85,2.28-7.06,1.24-14.3.01-21.47-.07-9.37-.12-18.64,1.72-27.83,3.54-3.51.7-7.04,1.4-10.33,2.82-5.84,2.52-10.55,7.16-16.28,9.93-.77.37-1.61.72-2.47.63s-1.71-.77-1.7-1.63c0-.62.43-1.14.85-1.59,5.33-5.81,12.82-9.12,20.28-11.64,9.06-3.06,18.43-5.19,27.92-6.35.04-.97-1.24-1.35-2.21-1.4-2.81-.16-5.63-.33-8.44-.49,1.7-3.72,6.64-4.33,10.73-4.41,3.56-.07,7.12-.14,10.69-.22,1.4-.03,3.13-.27,3.61-1.59-1.47-.37-2.97-.62-4.48-.81-21.69-2.82-43.86,4.51-61.95,16.81-2.1,1.43-4.17,2.94-5.88,4.82-4.07,4.5-5.55,11.75-2.08,16.72,2.1,3.01,5.73,4.93,7.09,8.35-5.39-.33-10.39-3.98-12.53-8.93s-1.4-11,1.72-15.4c3.21-4.53,8.46-7.13,12.37-11.07.76-.76,1.51-1.72,1.4-2.78-.13-1.2-1.38-2.04-2.59-2.1s-2.37.47-3.44,1.04c-5.62,2.99-10.51,7.56-13.23,13.31s-3.13,12.71-.45,18.49c.59,1.28,1.34,2.52,2.37,3.49,2.87,2.73,8.77,3.33,10.66,6.81Z"/>
        <path class="cls-2" d="M75.48,124.43c.45.98-.67,1.28-1.42,1.33-.91.06-1.77-.27-2.55-.72-1.48-.86-2.68-2.18-3.88-3.37-2.52-2.5-4.98-5.13-6.78-8.21s-2.89-6.47-2.63-9.98c.27-3.73,2.21-7.12,4.02-10.3,3.46-6.09,7.75-11.36,13.65-15.22s12.73-6.29,19.59-8.08c3.95-1.03,7.95-1.89,11.94-2.74,4.44-.94,8.99-1.79,13.53-1.11l-.18-1.37c-2.81,2.03-6.12,2.85-9.5,3.38-3.56.55-7.11.91-10.62,1.76-3.31.8-6.77,1.64-9.89,3.05-2.35,1.07-4.54,2.77-5.03,5.43-.08.44.12.75.52.92,3.32,1.4,6.89.65,10.15-.56,3.53-1.31,6.9-2.93,10.5-4.06,7.4-2.34,15.11-3.47,22.84-3.96,7.74-.5,15.5-.38,23.24-.21,3.06.07,6.12.22,9.18.38,1.92.1,3.85.16,5.76.4.94.12,1.88.29,2.8.53.49.13.97.28,1.44.46.26.1,1.48.43,1.6.73.34.8-1.42,1.41-1.92,1.44-.91.06-1.88-.04-2.79-.08-2.04-.09-4.08-.21-6.13-.29-4.33-.16-8.69-.09-12.92.91-.57.13-.7.86-.33,1.25,1.85,1.98,4.44,2.5,7.02,2.8,1.37.16,2.75.24,4.1.5.51.1,2.02.27,2.2.89.28,1-1.71.71-2.15.64-3.52-.58-6.96-1.26-10.53-1.5-3.78-.25-7.6-.21-11.38.18-1,.1-2.19.21-2.83,1.1s-.27,2.03.64,2.59c1,.62,2.29.52,3.42.51,1.79-.01,3.57-.07,5.36-.13,3.55-.11,7.12-.2,10.66.13,1.67.16,3.33.42,4.96.83.85.21,1.69.46,2.51.76.24.09,1.22.33,1.34.54.3.51-.82.93-1.11,1.03-1.62.54-3.62.51-5.31.57-1.91.07-3.82.02-5.73-.07-3.84-.18-7.66-.54-11.51-.53-7.51.01-14.95,1.23-22.3,2.64-3.72.71-7.49,1.35-11.13,2.37-3.2.9-6.16,2.29-8.96,4.08s-5.57,3.91-8.48,5.68c-1.3.79-3.06,2.1-4.63,2.17-.56.03-1.47-.22-1.35-1.04.07-.46.59-.89.89-1.21.65-.7,1.36-1.37,2.08-2,5.76-5.02,13.13-7.77,20.31-10.03,8.14-2.57,16.52-4.38,24.99-5.44.37-.05.79-.31.75-.75-.15-1.67-1.76-2.07-3.21-2.17-2.73-.19-5.46-.32-8.19-.48l.65,1.13c2.02-4.12,7.62-3.99,11.54-4.07,2.91-.06,5.83-.11,8.74-.18,1.74-.04,3.91-.16,4.75-1.97.19-.42.06-.98-.45-1.1-7.2-1.76-15.01-1.78-22.34-.99s-14.63,2.56-21.59,5.13-13.71,5.95-20.02,9.94c-5.82,3.68-11.82,7.84-13.08,15.1-.56,3.25-.11,6.73,1.8,9.48,2.1,3.02,5.62,4.88,7.09,8.35l.65-1.13c-8.47-.64-14.29-8.85-12.75-17.06.78-4.17,3.2-7.42,6.38-10.13,2.96-2.52,6.6-4.57,9.07-7.62.99-1.23,1.45-2.87.35-4.18s-2.75-1.51-4.27-1.1c-1.87.5-3.65,1.68-5.24,2.75s-3.05,2.23-4.42,3.53c-5.8,5.51-9.28,13.39-8.25,21.46.52,4.04,2.14,8.6,5.76,10.86,2.85,1.77,7.2,2.39,9,5.49.48.83,1.78.08,1.3-.76-1.46-2.52-4.35-3.55-6.87-4.68-1.37-.61-2.81-1.25-3.91-2.29-1.54-1.46-2.46-3.54-3.08-5.53-2.48-8.02.48-16.63,6.15-22.53,2.56-2.66,5.89-5.37,9.39-6.67.9-.33,1.94-.52,2.81.01,1.47.9.5,2.35-.38,3.27-1.37,1.43-2.98,2.66-4.56,3.86-2.87,2.2-5.83,4.38-7.93,7.36s-3.14,6.63-3.03,10.24c.25,7.95,6.54,14.62,14.5,15.23.63.05.85-.66.65-1.13-1.21-2.84-3.73-4.63-5.79-6.8-2.18-2.29-3.27-5.1-3.12-8.27s1.46-6.39,3.55-8.82c2.34-2.73,5.48-4.71,8.48-6.63,11.92-7.64,25.41-13.13,39.49-14.98,7.79-1.02,16.17-1.16,23.85.71l-.45-1.1c-.47,1.02-1.65,1.16-2.66,1.21-1.47.07-2.96.06-4.43.09-2.73.06-5.48.03-8.21.2-3.67.23-7.95,1.1-9.72,4.72-.26.52.06,1.09.65,1.13,1.74.1,3.48.2,5.21.3.66.04,4.59-.18,4.68.84l.75-.75c-8.06,1-16.02,2.65-23.79,5-6.83,2.06-13.79,4.5-19.67,8.64-1.4.98-2.73,2.06-3.97,3.24-.95.91-2.47,2.13-2.35,3.61.09,1.17,1.12,2.01,2.23,2.19,1.59.26,3.22-.75,4.55-1.49,3.17-1.75,6.04-3.97,9.05-5.95,3.32-2.19,6.76-3.82,10.62-4.8,3.92-1,7.94-1.7,11.92-2.43s8.31-1.45,12.51-1.84,8.34-.45,12.52-.23c4.06.22,8.12.59,12.2.45,1.85-.07,3.93-.1,5.71-.62.97-.29,2.17-1.05,2.33-2.14.2-1.39-1.33-1.86-2.35-2.24-1.71-.63-3.48-1.07-5.27-1.36-3.71-.61-7.48-.64-11.23-.55-1.86.04-3.73.11-5.59.16-.96.02-1.93.04-2.89.03-.58,0-2.63-.14-1.4-1.02.57-.41,2.03-.27,2.72-.32,1.1-.08,2.21-.14,3.32-.16,1.98-.05,3.96-.02,5.93.1,2.14.13,4.28.35,6.4.69,1.74.27,3.52.86,5.27.93.98.04,2.2-.16,2.76-1.06.62-1,.08-2.14-.82-2.73-1.16-.76-2.73-.87-4.07-1.03-1.53-.19-3.09-.26-4.6-.57s-2.96-.89-4.06-2.07l-.33,1.25c4.11-.96,8.33-1.01,12.52-.85,2.04.07,4.08.2,6.13.29,1.33.06,2.89.34,4.15-.2,1.03-.44,2.78-1.82,2.17-3.11s-2.84-1.78-4.04-2.12c-3.69-1.03-7.65-.98-11.44-1.16-7.64-.37-15.3-.52-22.94-.35-8.13.18-16.29.83-24.23,2.64-4.34.99-8.58,2.34-12.67,4.08s-8.89,4.12-13.4,2.23l.52.92c.53-2.89,3.4-4.28,5.93-5.16,3.32-1.16,6.79-2.09,10.24-2.79,6.11-1.23,12.91-.96,18.17-4.77.45-.33.53-1.26-.18-1.37-4.34-.65-8.64-.06-12.9.81s-8.49,1.79-12.69,2.86c-7.73,1.98-15.44,4.69-22,9.34s-11.17,11.21-14.72,18.35c-1.73,3.47-2.74,7.07-2.16,10.96s2.49,7.43,4.87,10.5c1.38,1.78,2.92,3.42,4.51,5.01,1.43,1.43,2.88,3.02,4.67,4.01,1.42.79,3.24,1.17,4.77.45,1.36-.64,1.68-1.9,1.08-3.21-.4-.88-1.69-.12-1.3.76Z"/>
      </g>
      <g>
        <path class="cls-14" d="M204.06,75.29c-4.5-.94-8.94-2.13-13.41-3.2-1.13-.27-2.87-.05-2.74,1.1.07.66.8,1.02,1.42,1.25,3.49,1.28,7.06,2.37,10.67,3.25,3.84.94,7.74,1.66,11.51,2.83,8.06,2.51,15.31,7.05,22.47,11.54,5.2,3.27,10.47,6.59,14.65,11.1,1.52,1.64,3.02,3.52,5.19,4.08.8-1.5-.14-3.3-1.12-4.69-4.97-7.01-11.7-12.77-19.39-16.61-.82-.41-1.69-.83-2.24-1.56s-.65-1.9.05-2.5c.38-.32.9-.42,1.4-.4,1.76.07,3.22,1.35,4.91,1.82s4.11-.71,3.57-2.39c-.21-.64-.8-1.07-1.35-1.46-1.73-1.22-3.47-2.43-5.25-3.57-18.12-11.56-40.41-14.51-61.9-14.72-12.3-.12-24.6.57-36.81,2.06-.95.12-2.21,1.07-1.49,1.7.21.18.51.2.78.22,23.08,1.18,46.4-.61,69.17,3.29,7.22,1.24,14.55,3.13,20.47,7.44,1.35.98,2.76,2.47,2.35,4.09-2.54.82-5.24-.31-7.74-1.21-5.15-1.86-9.54-2.28-15.17-3.45Z"/>
        <path class="cls-2" d="M204.26,74.57c-3.53-.74-7.03-1.63-10.54-2.5-1.6-.4-5.31-1.88-6.39.28-1.25,2.48,3.41,3.4,4.78,3.86,3.29,1.09,6.63,1.99,10,2.76s6.77,1.48,10.06,2.57,6.19,2.41,9.13,3.94c5.77,2.99,11.32,6.52,16.74,10.09,3,1.97,5.92,4.09,8.51,6.58,2.19,2.1,4,4.93,7.05,5.83.29.09.72-.05.85-.34,1.49-3.39-2.11-6.94-4.13-9.31-2.57-3.01-5.48-5.71-8.65-8.08-1.64-1.23-3.35-2.36-5.12-3.39-.83-.48-1.67-.94-2.52-1.37s-2.22-.92-2.57-1.94c-.64-1.85,1.93-1.2,2.8-.82.81.36,1.58.81,2.42,1.12,1.31.49,2.82.39,3.98-.44,3.54-2.53-1.83-5.44-3.65-6.68-3.56-2.42-7.28-4.55-11.18-6.36-7.52-3.49-15.52-5.84-23.66-7.35-17.47-3.25-35.62-3.14-53.28-1.83-2.45.18-4.9.4-7.35.64-1.14.11-2.28.24-3.42.37-1.05.12-2.24.11-3.23.47s-2.15,1.42-1.45,2.52c.32.5.84.64,1.39.7,1.17.13,2.38.12,3.55.16,9.61.38,19.23.32,28.84.44,9.67.12,19.35.43,28.96,1.56,8.72,1.03,18.05,2.38,25.72,6.94,1.57.93,4.71,2.56,4.34,4.78l.52-.52c-2.08.58-4.11-.05-6.08-.75-1.79-.64-3.58-1.26-5.43-1.73-3.63-.91-7.35-1.43-11.01-2.18-.94-.19-1.35,1.25-.4,1.45,3.94.81,7.94,1.35,11.83,2.4s7.57,3.36,11.48,2.27c.23-.06.48-.27.52-.52.61-3.65-3.85-5.9-6.52-7.31-3.56-1.87-7.41-3.13-11.31-4.04-8.59-2.02-17.5-2.85-26.29-3.33-9.19-.51-18.39-.52-27.59-.59-4.64-.04-9.29-.08-13.93-.22-1.06-.03-2.12-.06-3.17-.1-1.17-.04-2.51.08-3.66-.16-.34-.07-.41.15-.21-.11.11-.14.41-.24.58-.29.56-.17,1.22-.17,1.8-.23,1.22-.14,2.44-.27,3.67-.4,17.34-1.77,35.11-2.29,52.44-.18,16.31,1.98,32.8,6.89,45.97,17.06.86.66,1.17,1.5.07,2.09-.83.44-1.69.36-2.54.03-1.59-.62-3.07-1.75-4.86-1.62-1.37.1-2.33,1.11-2.26,2.49.08,1.58,1.41,2.52,2.69,3.18,7.03,3.64,13.23,8.44,18.12,14.7,1.11,1.43,3.34,3.79,2.47,5.75l.85-.34c-2.6-.77-4.23-3.32-6.08-5.14s-4.04-3.57-6.22-5.13c-4.71-3.36-9.71-6.4-14.7-9.33s-10.06-5.5-15.53-7.18c-5.87-1.8-11.96-2.74-17.82-4.6-.55-.18-5.3-1.53-4.84-2.23.54-.81,3.82.45,4.49.62,3.51.87,7,1.76,10.54,2.5.94.2,1.34-1.25.4-1.45Z"/>
      </g>
      <path class="cls-11" d="M93.99,12.22c-26.52,8.3-49.33,25.51-65.93,47.65-8.37,11.17-15.11,23.52-20.17,36.52-2.85,7.34-5.3,14.94-6.73,22.69-1.63,8.87-1.47,17.77,0,26.64,1.5,9.02,4.18,17.78,6.91,26.48s5.23,16.64,8.12,24.86c5.64,16.05,12.41,31.83,22.08,45.9,18.07,26.3,44.57,45.67,74.88,55.5,30.48,9.88,63.62,10.51,94.88,4.1,8.71-1.79,17.34-4.16,25.57-7.56s15.46-7.52,22.64-12.25c14.7-9.69,28.47-20.96,41.21-33.11,11.93-11.38,22.92-23.94,28.98-39.49,5.91-15.16,7.15-31.88,5.38-47.95-1.89-17.13-7.26-33.6-13.97-49.41-3.48-8.2-7.33-16.24-11.28-24.22s-7.65-15.67-11.94-23.24-8.84-13.97-14.8-19.73c-5.6-5.42-12.02-9.96-18.76-13.85-14.34-8.28-30.2-14.24-45.83-19.56C182.55,1.08,146.7-4.89,112.93,5.05c-3.87,1.14-7.67,2.49-11.39,4.05-2.53,1.06-4.93,2.29-7.55,3.11-1.84.58-1.05,3.47.8,2.89,2.57-.81,4.9-1.98,7.38-3.04,3.77-1.6,7.64-2.97,11.56-4.12,7.99-2.36,16.23-3.82,24.54-4.5,17.07-1.4,34.22.47,50.86,4.34s33,9.67,48.85,16.21c14.26,5.88,28.52,12.93,39.72,23.75,12.07,11.66,18.93,27.55,26.27,42.36,7.65,15.44,14.93,31.16,19.8,47.73,4.6,15.65,6.89,32.05,5.25,48.34-1.63,16.18-7.57,31.25-17.6,44.05-4.99,6.36-10.66,12.16-16.52,17.72-6.31,6-12.88,11.73-19.67,17.18-13.32,10.69-27.6,21.06-43.54,27.45-15.3,6.13-31.97,9.19-48.35,10.52s-31.32.73-46.72-1.94c-30.86-5.35-59.67-19.47-81.44-42.17-11.11-11.58-19.94-24.97-26.74-39.48-7.25-15.47-12.35-31.84-17.46-48.1-5.36-17.05-10.25-34.5-6.74-52.45,2.76-14.11,8.36-27.91,15.33-40.45,13.07-23.55,32.57-43.62,56.69-55.87,5.96-3.03,12.16-5.53,18.54-7.52,1.84-.57,1.05-3.47-.8-2.89Z"/>
    </g>
  </g>
</svg>