<?xml version="1.0" encoding="UTF-8"?>
<svg id="b" data-name="Layer 2" xmlns="http://www.w3.org/2000/svg" width="548" height="373" xmlns:xlink="http://www.w3.org/1999/xlink" viewBox="0 0 548 373">
  <defs>
    <style>
      .f {
        fill: #231f20;
      }

      .f, .g, .h, .i, .j {
        stroke: #000;
        stroke-miterlimit: 10;
        stroke-width: 4px;
      }

      .k {
        fill: #fff;
      }

      .g {
        fill: #46c7f4;
      }

      .h {
        fill: #478ecc;
      }

      .i {
        fill: url(#d);
      }

      .j {
        fill: url(#e);
      }
    </style>
    <linearGradient id="d" x1="487.85" y1="294.93" x2="433.62" y2="294.93" gradientUnits="userSpaceOnUse">
      <stop offset="0" stop-color="#00a7d3"/>
      <stop offset=".23" stop-color="#02a7d3"/>
      <stop offset=".36" stop-color="#0aaad4"/>
      <stop offset=".47" stop-color="#19afd7"/>
      <stop offset=".57" stop-color="#2db6da"/>
      <stop offset=".67" stop-color="#47bfdf"/>
      <stop offset=".75" stop-color="#68cae4"/>
      <stop offset=".83" stop-color="#8ed8eb"/>
      <stop offset=".91" stop-color="#bbe7f3"/>
      <stop offset=".98" stop-color="#ecf8fb"/>
      <stop offset="1" stop-color="#fff"/>
    </linearGradient>
    <linearGradient id="e" x1="113.05" y1="69.29" x2="58.83" y2="69.29" xlink:href="#d"/>
  </defs>
  <g id="c" data-name="Layer 2">
    <rect class="k" width="548" height="373"/>
    <g>
      <circle class="i" cx="460.74" cy="294.93" r="27.11"/>
      <g>
        <line class="f" x1="460.74" y1="276.11" x2="460.74" y2="313.75"/>
        <line class="f" x1="442.56" y1="294.93" x2="478.92" y2="294.93"/>
      </g>
    </g>
    <g>
      <circle class="j" cx="85.94" cy="69.29" r="27.11"/>
      <g>
        <line class="f" x1="85.94" y1="50.47" x2="85.94" y2="88.11"/>
        <line class="f" x1="67.76" y1="69.29" x2="104.12" y2="69.29"/>
      </g>
    </g>
    <g>
      <path class="h" d="M319.62,265.63c-5.23,3.29-15.12-2-21.5-2.69-10.82-2.05-21.94-4.04-32.88-2.03-8.56,1.01-27.12,8.61-32.87.24-2.99-5.68.02-12.96,1.18-19.18,1.34-5.85,1.91-11.79,2.03-17.8.09-17.73-.07-35.62,0-53.31,0-10.92-.11-21.42-1.29-32.36-.45-9.02-5.14-30.63-.79-37.84,3.39-3.81,10.89,1.44,16.63,2.23,18.43,4.35,38.49,3.02,56.03-3.16,11.34-2.9,6.77,12.37,5.84,18.74-1.56,7.91-2.89,15.54-3.25,23.39-.7,20.85-.17,41.73-.31,62.61.15,8.9-.12,18.27,3.89,26.43,3.17,6.96,9.41,12.02,11.67,19.18,1.41,5.56.4,12.19-4.34,15.54l-.03.02Z"/>
      <path class="g" d="M248.74,220.1c-.92-11.88-7-21.74-7.93-33.65-.51-5.97-.53-12.3.22-17.96,2.19-18.99,9.07-59.97,3.37-75.5-2.3-4.79-14.06-3.52-19.38-4.24-8.6-.46-17.74-2-24.79,3.86-4.35,3.29-7.77,7.92-9.02,13.25-3.95,16.25,7.03,34.39,9.28,50.33,1.16,17.75-7.09,104.76,17.18,127.4,6.51,3.29,14.41-2.29,19.33-6.84,6.79-6.24,10.13-14.53,10.99-23.85,1.1-11.99,1.67-21.8.75-32.75v-.05Z"/>
      <path class="g" d="M299.26,220.3c.92-11.88,7-21.74,7.93-33.65.51-5.97.53-12.3-.22-17.96-2.19-18.99-9.07-59.97-3.37-75.5,2.3-4.79,14.06-3.52,19.38-4.24,8.6-.46,17.74-2,24.79,3.86,4.35,3.29,7.77,7.92,9.02,13.25,3.95,16.25-7.03,34.39-9.28,50.33-1.16,17.75,7.09,104.76-17.18,127.4-6.51,3.29-14.41-2.29-19.33-6.84-6.79-6.24-10.13-14.53-10.99-23.85-1.1-11.99-1.67-21.8-.75-32.75v-.05Z"/>
    </g>
  </g>
</svg>