<?xml version="1.0" encoding="UTF-8"?>
<svg id="Layer_2" data-name="Layer 2" xmlns="http://www.w3.org/2000/svg" width="548" height="373" xmlns:xlink="http://www.w3.org/1999/xlink" viewBox="0 0 548 373">
  <defs>
    <style>
      .cls-1 {
        fill: #478ecc;
      }

      .cls-1, .cls-2, .cls-3, .cls-4, .cls-5, .cls-6, .cls-7, .cls-8, .cls-9 {
        stroke: #010101;
        stroke-miterlimit: 10;
      }

      .cls-1, .cls-3, .cls-4, .cls-5, .cls-6, .cls-7, .cls-8, .cls-9 {
        stroke-width: 3px;
      }

      .cls-10 {
        fill: #ef5f9f;
      }

      .cls-2 {
        fill: #fbb03c;
        stroke-width: 2px;
      }

      .cls-3 {
        fill: #231f20;
      }

      .cls-4 {
        fill: url(#linear-gradient-3);
      }

      .cls-5 {
        fill: url(#linear-gradient-6);
      }

      .cls-6 {
        fill: #4cc7f4;
      }

      .cls-7 {
        fill: url(#linear-gradient-2);
      }

      .cls-8 {
        fill: url(#linear-gradient-5);
      }

      .cls-11 {
        fill: url(#linear-gradient);
      }

      .cls-9 {
        fill: url(#linear-gradient-4);
      }
    </style>
    <linearGradient id="linear-gradient" x1="274" y1="373" x2="274" y2="0" gradientUnits="userSpaceOnUse">
      <stop offset="0" stop-color="#fff9f0"/>
      <stop offset=".35" stop-color="#fff9f0"/>
      <stop offset=".66" stop-color="#dbeefa"/>
      <stop offset="1" stop-color="#dbeefa"/>
    </linearGradient>
    <linearGradient id="linear-gradient-2" x1="436.47" y1="52.51" x2="392.56" y2="52.51" gradientUnits="userSpaceOnUse">
      <stop offset="0" stop-color="#00a7d3"/>
      <stop offset=".23" stop-color="#02a7d3"/>
      <stop offset=".36" stop-color="#0aaad4"/>
      <stop offset=".47" stop-color="#19afd7"/>
      <stop offset=".57" stop-color="#2db6da"/>
      <stop offset=".67" stop-color="#47bfdf"/>
      <stop offset=".75" stop-color="#68cae4"/>
      <stop offset=".83" stop-color="#8ed8eb"/>
      <stop offset=".91" stop-color="#bbe7f3"/>
      <stop offset=".98" stop-color="#ecf8fb"/>
      <stop offset="1" stop-color="#fff"/>
    </linearGradient>
    <linearGradient id="linear-gradient-3" x1="88.88" y1="67.75" x2="44.98" y2="67.75" xlink:href="#linear-gradient-2"/>
    <linearGradient id="linear-gradient-4" x1="484.97" y1="336.87" x2="441.06" y2="336.87" xlink:href="#linear-gradient-2"/>
    <linearGradient id="linear-gradient-5" x1="199.16" y1="52.51" x2="230.15" y2="52.51" gradientUnits="userSpaceOnUse">
      <stop offset="0" stop-color="#fff"/>
      <stop offset=".03" stop-color="#fffaea"/>
      <stop offset=".09" stop-color="#fff0bf"/>
      <stop offset=".16" stop-color="#ffe899"/>
      <stop offset=".24" stop-color="#ffe178"/>
      <stop offset=".32" stop-color="#ffdb5e"/>
      <stop offset=".41" stop-color="#ffd64a"/>
      <stop offset=".51" stop-color="#ffd33b"/>
      <stop offset=".63" stop-color="#ffd133"/>
      <stop offset=".83" stop-color="#ffd131"/>
    </linearGradient>
    <linearGradient id="linear-gradient-6" x1="76.92" y1="321.21" x2="107.91" y2="321.21" xlink:href="#linear-gradient-5"/>
  </defs>
  <g id="Layer_1-2" data-name="Layer 1">
    <g>
      <rect class="cls-11" width="548" height="373"/>
      <g>
        <path class="cls-10" d="M498.77,143.2c.98,3.58,1.26,7.24.87,10.93s-1.31,7.15-1.87,10.74-.79,6.98-.04,10.44,2.54,6.58,4.38,9.55c1.01,1.64,3.61.13,2.59-1.51-1.79-2.9-3.52-5.89-4.17-9.28s-.13-7.18.52-10.67,1.43-6.9,1.69-10.41-.14-7.15-1.08-10.59c-.51-1.86-3.41-1.07-2.89.8h0Z"/>
        <path class="cls-10" d="M497.69,142.87c-2.45,2.67-4.93,5.59-5.99,9.13-1.14,3.83.15,7.35,1.22,11.01,2.08,7.1.8,14.79-3.34,20.9-1.09,1.6,1.51,3.1,2.59,1.51,4.03-5.94,5.55-13.34,4.31-20.39-.63-3.58-2.73-7.18-2.2-10.88s3.15-6.58,5.53-9.17c1.3-1.42-.81-3.55-2.12-2.12h0Z"/>
        <circle class="cls-2" cx="498.78" cy="135.41" r="8.16"/>
        <path class="cls-10" d="M338.83,143.2c.98,3.58,1.26,7.24.87,10.93s-1.31,7.15-1.87,10.74-.79,6.98-.04,10.44,2.54,6.58,4.38,9.55c1.01,1.64,3.61.13,2.59-1.51-1.79-2.9-3.52-5.89-4.17-9.28s-.13-7.18.52-10.67,1.43-6.9,1.69-10.41-.14-7.15-1.08-10.59c-.51-1.86-3.41-1.07-2.89.8h0Z"/>
        <path class="cls-10" d="M337.75,142.87c-2.45,2.67-4.93,5.59-5.99,9.13-1.14,3.83.15,7.35,1.22,11.01,2.08,7.1.8,14.79-3.34,20.9-1.09,1.6,1.51,3.1,2.59,1.51,4.03-5.94,5.55-13.34,4.31-20.39-.63-3.58-2.73-7.18-2.2-10.88s3.15-6.58,5.53-9.17c1.3-1.42-.81-3.55-2.12-2.12h0Z"/>
        <circle class="cls-2" cx="338.84" cy="135.41" r="8.16"/>
        <path class="cls-10" d="M321.06,143.2c.98,3.58,1.26,7.24.87,10.93s-1.31,7.15-1.87,10.74-.79,6.98-.04,10.44,2.54,6.58,4.38,9.55c1.01,1.64,3.61.13,2.59-1.51-1.79-2.9-3.52-5.89-4.17-9.28s-.13-7.18.52-10.67,1.43-6.9,1.69-10.41-.14-7.15-1.08-10.59c-.51-1.86-3.41-1.07-2.89.8h0Z"/>
        <path class="cls-10" d="M319.98,142.87c-2.45,2.67-4.93,5.59-5.99,9.13-1.14,3.83.15,7.35,1.22,11.01,2.08,7.1.8,14.79-3.34,20.9-1.09,1.6,1.51,3.1,2.59,1.51,4.03-5.94,5.55-13.34,4.31-20.39-.63-3.58-2.73-7.18-2.2-10.88s3.15-6.58,5.53-9.17c1.3-1.42-.81-3.55-2.12-2.12h0Z"/>
        <circle class="cls-2" cx="321.07" cy="135.41" r="8.16"/>
        <path class="cls-10" d="M196.67,143.2c.98,3.58,1.26,7.24.87,10.93s-1.31,7.15-1.87,10.74-.79,6.98-.04,10.44,2.54,6.58,4.38,9.55c1.01,1.64,3.61.13,2.59-1.51-1.79-2.9-3.52-5.89-4.17-9.28s-.13-7.18.52-10.67,1.43-6.9,1.69-10.41-.14-7.15-1.08-10.59c-.51-1.86-3.41-1.07-2.89.8h0Z"/>
        <path class="cls-10" d="M195.58,142.87c-2.45,2.67-4.93,5.59-5.99,9.13-1.14,3.83.15,7.35,1.22,11.01,2.08,7.1.8,14.79-3.34,20.9-1.09,1.6,1.51,3.1,2.59,1.51,4.03-5.94,5.55-13.34,4.31-20.39-.63-3.58-2.73-7.18-2.2-10.88s3.15-6.58,5.53-9.17c1.3-1.42-.81-3.55-2.12-2.12h0Z"/>
        <circle class="cls-2" cx="196.67" cy="135.41" r="8.16"/>
        <path class="cls-10" d="M409.92,143.2c.98,3.58,1.26,7.24.87,10.93s-1.31,7.15-1.87,10.74-.79,6.98-.04,10.44,2.54,6.58,4.38,9.55c1.01,1.64,3.61.13,2.59-1.51-1.79-2.9-3.52-5.89-4.17-9.28s-.13-7.18.52-10.67,1.43-6.9,1.69-10.41-.14-7.15-1.08-10.59c-.51-1.86-3.41-1.07-2.89.8h0Z"/>
        <path class="cls-10" d="M408.84,142.87c-2.45,2.67-4.93,5.59-5.99,9.13-1.14,3.83.15,7.35,1.22,11.01,2.08,7.1.8,14.79-3.34,20.9-1.09,1.6,1.51,3.1,2.59,1.51,4.03-5.94,5.55-13.34,4.31-20.39-.63-3.58-2.73-7.18-2.2-10.88s3.15-6.58,5.53-9.17c1.3-1.42-.81-3.55-2.12-2.12h0Z"/>
        <circle class="cls-2" cx="409.92" cy="135.41" r="8.16"/>
        <path class="cls-10" d="M374.38,143.2c.98,3.58,1.26,7.24.87,10.93s-1.31,7.15-1.87,10.74-.79,6.98-.04,10.44,2.54,6.58,4.38,9.55c1.01,1.64,3.61.13,2.59-1.51-1.79-2.9-3.52-5.89-4.17-9.28s-.13-7.18.52-10.67,1.43-6.9,1.69-10.41-.14-7.15-1.08-10.59c-.51-1.86-3.41-1.07-2.89.8h0Z"/>
        <path class="cls-10" d="M373.29,142.87c-2.45,2.67-4.93,5.59-5.99,9.13-1.14,3.83.15,7.35,1.22,11.01,2.08,7.1.8,14.79-3.34,20.9-1.09,1.6,1.51,3.1,2.59,1.51,4.03-5.94,5.55-13.34,4.31-20.39-.63-3.58-2.73-7.18-2.2-10.88s3.15-6.58,5.53-9.17c1.3-1.42-.81-3.55-2.12-2.12h0Z"/>
        <circle class="cls-2" cx="374.38" cy="135.41" r="8.16"/>
        <path class="cls-10" d="M285.52,143.2c.98,3.58,1.26,7.24.87,10.93s-1.31,7.15-1.87,10.74-.79,6.98-.04,10.44,2.54,6.58,4.38,9.55c1.01,1.64,3.61.13,2.59-1.51-1.79-2.9-3.52-5.89-4.17-9.28s-.13-7.18.52-10.67,1.43-6.9,1.69-10.41-.14-7.15-1.08-10.59c-.51-1.86-3.41-1.07-2.89.8h0Z"/>
        <path class="cls-10" d="M284.44,142.87c-2.45,2.67-4.93,5.59-5.99,9.13-1.14,3.83.15,7.35,1.22,11.01,2.08,7.1.8,14.79-3.34,20.9-1.09,1.6,1.51,3.1,2.59,1.51,4.03-5.94,5.55-13.34,4.31-20.39-.63-3.58-2.73-7.18-2.2-10.88s3.15-6.58,5.53-9.17c1.3-1.42-.81-3.55-2.12-2.12h0Z"/>
        <circle class="cls-2" cx="285.53" cy="135.41" r="8.16"/>
        <path class="cls-10" d="M161.12,143.2c.98,3.58,1.26,7.24.87,10.93s-1.31,7.15-1.87,10.74-.79,6.98-.04,10.44,2.54,6.58,4.38,9.55c1.01,1.64,3.61.13,2.59-1.51-1.79-2.9-3.52-5.89-4.17-9.28s-.13-7.18.52-10.67,1.43-6.9,1.69-10.41-.14-7.15-1.08-10.59c-.51-1.86-3.41-1.07-2.89.8h0Z"/>
        <path class="cls-10" d="M160.04,142.87c-2.45,2.67-4.93,5.59-5.99,9.13-1.14,3.83.15,7.35,1.22,11.01,2.08,7.1.8,14.79-3.34,20.9-1.09,1.6,1.51,3.1,2.59,1.51,4.03-5.94,5.55-13.34,4.31-20.39-.63-3.58-2.73-7.18-2.2-10.88s3.15-6.58,5.53-9.17c1.3-1.42-.81-3.55-2.12-2.12h0Z"/>
        <circle class="cls-2" cx="161.13" cy="135.41" r="8.16"/>
        <path class="cls-10" d="M107.81,143.2c.98,3.58,1.26,7.24.87,10.93s-1.31,7.15-1.87,10.74-.79,6.98-.04,10.44,2.54,6.58,4.38,9.55c1.01,1.64,3.61.13,2.59-1.51-1.79-2.9-3.52-5.89-4.17-9.28s-.13-7.18.52-10.67,1.43-6.9,1.69-10.41-.14-7.15-1.08-10.59c-.51-1.86-3.41-1.07-2.89.8h0Z"/>
        <path class="cls-10" d="M106.73,142.87c-2.45,2.67-4.93,5.59-5.99,9.13-1.14,3.83.15,7.35,1.22,11.01,2.08,7.1.8,14.79-3.34,20.9-1.09,1.6,1.51,3.1,2.59,1.51,4.03-5.94,5.55-13.34,4.31-20.39-.63-3.58-2.73-7.18-2.2-10.88s3.15-6.58,5.53-9.17c1.3-1.42-.81-3.55-2.12-2.12h0Z"/>
        <circle class="cls-2" cx="107.82" cy="135.41" r="8.16"/>
        <path class="cls-10" d="M54.5,143.2c.98,3.58,1.26,7.24.87,10.93s-1.31,7.15-1.87,10.74-.79,6.98-.04,10.44,2.54,6.58,4.38,9.55c1.01,1.64,3.61.13,2.59-1.51-1.79-2.9-3.52-5.89-4.17-9.28s-.13-7.18.52-10.67,1.43-6.9,1.69-10.41-.14-7.15-1.08-10.59c-.51-1.86-3.41-1.07-2.89.8h0Z"/>
        <path class="cls-10" d="M53.42,142.87c-2.45,2.67-4.93,5.59-5.99,9.13-1.14,3.83.15,7.35,1.22,11.01,2.08,7.1.8,14.79-3.34,20.9-1.09,1.6,1.51,3.1,2.59,1.51,4.03-5.94,5.55-13.34,4.31-20.39-.63-3.58-2.73-7.18-2.2-10.88s3.15-6.58,5.53-9.17c1.3-1.42-.81-3.55-2.12-2.12h0Z"/>
        <circle class="cls-2" cx="54.5" cy="135.41" r="8.16"/>
        <path class="cls-10" d="M73.52,143.2c.48,1.86.3,3.77.38,5.66s.65,3.6,1.31,5.43c1.22,3.38,1.96,6.96,1.74,10.57-.15,2.44-.78,4.88-2.03,7-1.05,1.77-3.22,3.06-2.99,5.33.31,3.08,3.37,5.24,4.94,7.68,1.04,1.62,3.64.12,2.59-1.51-.74-1.15-1.65-2.17-2.52-3.22-.61-.74-2.06-2.14-2.04-3.2.01-.63.86-1.16,1.26-1.65.68-.83,1.28-1.71,1.76-2.67,2.78-5.43,2.46-11.88.7-17.57-.67-2.17-1.65-4.08-1.73-6.39-.07-2.1.05-4.19-.47-6.25-.48-1.87-3.37-1.08-2.89.8h0Z"/>
        <path class="cls-10" d="M72.44,142.87c-2.25,2.53-3,5.43-3.1,8.75-.05,1.65.07,3.29-.37,4.89-.47,1.71-1.17,3.33-1.3,5.12s.63,3.3.63,5.01c0,1.27-.34,2.47-.96,3.57-1.55,2.79-3.95,5.09-5.77,7.7-1.11,1.59,1.49,3.09,2.59,1.51,1.77-2.54,4.05-4.76,5.62-7.44s1.8-5.55,1.12-8.51c-.41-1.76,0-3.13.55-4.83s.85-3.21.86-4.95c.03-3.17.02-6.2,2.25-8.7,1.28-1.44-.83-3.57-2.12-2.12h0Z"/>
        <circle class="cls-2" cx="73.53" cy="135.41" r="8.16"/>
        <path class="cls-10" d="M180.15,143.2c.48,1.86.3,3.77.38,5.66s.65,3.6,1.31,5.43c1.22,3.38,1.96,6.96,1.74,10.57-.15,2.44-.78,4.88-2.03,7-1.05,1.77-3.22,3.06-2.99,5.33.31,3.08,3.37,5.24,4.94,7.68,1.04,1.62,3.64.12,2.59-1.51-.74-1.15-1.65-2.17-2.52-3.22-.61-.74-2.06-2.14-2.04-3.2.01-.63.86-1.16,1.26-1.65.68-.83,1.28-1.71,1.76-2.67,2.78-5.43,2.46-11.88.7-17.57-.67-2.17-1.65-4.08-1.73-6.39-.07-2.1.05-4.19-.47-6.25-.48-1.87-3.37-1.08-2.89.8h0Z"/>
        <path class="cls-10" d="M179.07,142.87c-2.25,2.53-3,5.43-3.1,8.75-.05,1.65.07,3.29-.37,4.89-.47,1.71-1.17,3.33-1.3,5.12s.63,3.3.63,5.01c0,1.27-.34,2.47-.96,3.57-1.55,2.79-3.95,5.09-5.77,7.7-1.11,1.59,1.49,3.09,2.59,1.51,1.77-2.54,4.05-4.76,5.62-7.44s1.8-5.55,1.12-8.51c-.41-1.76,0-3.13.55-4.83s.85-3.21.86-4.95c.03-3.17.02-6.2,2.25-8.7,1.28-1.44-.83-3.57-2.12-2.12h0Z"/>
        <circle class="cls-2" cx="180.15" cy="135.41" r="8.16"/>
        <path class="cls-10" d="M233.46,143.2c.48,1.86.3,3.77.38,5.66s.65,3.6,1.31,5.43c1.22,3.38,1.96,6.96,1.74,10.57-.15,2.44-.78,4.88-2.03,7-1.05,1.77-3.22,3.06-2.99,5.33.31,3.08,3.37,5.24,4.94,7.68,1.04,1.62,3.64.12,2.59-1.51-.74-1.15-1.65-2.17-2.52-3.22-.61-.74-2.06-2.14-2.04-3.2.01-.63.86-1.16,1.26-1.65.68-.83,1.28-1.71,1.76-2.67,2.78-5.43,2.46-11.88.7-17.57-.67-2.17-1.65-4.08-1.73-6.39-.07-2.1.05-4.19-.47-6.25-.48-1.87-3.37-1.08-2.89.8h0Z"/>
        <path class="cls-10" d="M232.38,142.87c-2.25,2.53-3,5.43-3.1,8.75-.05,1.65.07,3.29-.37,4.89-.47,1.71-1.17,3.33-1.3,5.12s.63,3.3.63,5.01c0,1.27-.34,2.47-.96,3.57-1.55,2.79-3.95,5.09-5.77,7.7-1.11,1.59,1.49,3.09,2.59,1.51,1.77-2.54,4.05-4.76,5.62-7.44s1.8-5.55,1.12-8.51c-.41-1.76,0-3.13.55-4.83s.85-3.21.86-4.95c.03-3.17.02-6.2,2.25-8.7,1.28-1.44-.83-3.57-2.12-2.12h0Z"/>
        <circle class="cls-2" cx="233.47" cy="135.41" r="8.16"/>
        <path class="cls-10" d="M304.55,143.2c.48,1.86.3,3.77.38,5.66s.65,3.6,1.31,5.43c1.22,3.38,1.96,6.96,1.74,10.57-.15,2.44-.78,4.88-2.03,7-1.05,1.77-3.22,3.06-2.99,5.33.31,3.08,3.37,5.24,4.94,7.68,1.04,1.62,3.64.12,2.59-1.51-.74-1.15-1.65-2.17-2.52-3.22-.61-.74-2.06-2.14-2.04-3.2.01-.63.86-1.16,1.26-1.65.68-.83,1.28-1.71,1.76-2.67,2.78-5.43,2.46-11.88.7-17.57-.67-2.17-1.65-4.08-1.73-6.39-.07-2.1.05-4.19-.47-6.25-.48-1.87-3.37-1.08-2.89.8h0Z"/>
        <path class="cls-10" d="M303.46,142.87c-2.25,2.53-3,5.43-3.1,8.75-.05,1.65.07,3.29-.37,4.89-.47,1.71-1.17,3.33-1.3,5.12s.63,3.3.63,5.01c0,1.27-.34,2.47-.96,3.57-1.55,2.79-3.95,5.09-5.77,7.7-1.11,1.59,1.49,3.09,2.59,1.51,1.77-2.54,4.05-4.76,5.62-7.44s1.8-5.55,1.12-8.51c-.41-1.76,0-3.13.55-4.83s.85-3.21.86-4.95c.03-3.17.02-6.2,2.25-8.7,1.28-1.44-.83-3.57-2.12-2.12h0Z"/>
        <circle class="cls-2" cx="304.55" cy="135.41" r="8.16"/>
        <path class="cls-10" d="M446.71,143.2c.48,1.86.3,3.77.38,5.66s.65,3.6,1.31,5.43c1.22,3.38,1.96,6.96,1.74,10.57-.15,2.44-.78,4.88-2.03,7-1.05,1.77-3.22,3.06-2.99,5.33.31,3.08,3.37,5.24,4.94,7.68,1.04,1.62,3.64.12,2.59-1.51-.74-1.15-1.65-2.17-2.52-3.22-.61-.74-2.06-2.14-2.04-3.2.01-.63.86-1.16,1.26-1.65.68-.83,1.28-1.71,1.76-2.67,2.78-5.43,2.46-11.88.7-17.57-.67-2.17-1.65-4.08-1.73-6.39-.07-2.1.05-4.19-.47-6.25-.48-1.87-3.37-1.08-2.89.8h0Z"/>
        <path class="cls-10" d="M445.63,142.87c-2.25,2.53-3,5.43-3.1,8.75-.05,1.65.07,3.29-.37,4.89-.47,1.71-1.17,3.33-1.3,5.12s.63,3.3.63,5.01c0,1.27-.34,2.47-.96,3.57-1.55,2.79-3.95,5.09-5.77,7.7-1.11,1.59,1.49,3.09,2.59,1.51,1.77-2.54,4.05-4.76,5.62-7.44s1.8-5.55,1.12-8.51c-.41-1.76,0-3.13.55-4.83s.85-3.21.86-4.95c.03-3.17.02-6.2,2.25-8.7,1.28-1.44-.83-3.57-2.12-2.12h0Z"/>
        <circle class="cls-2" cx="446.72" cy="135.41" r="8.16"/>
        <path class="cls-10" d="M517.8,143.2c.48,1.86.3,3.77.38,5.66s.65,3.6,1.31,5.43c1.22,3.38,1.96,6.96,1.74,10.57-.15,2.44-.78,4.88-2.03,7-1.05,1.77-3.22,3.06-2.99,5.33.31,3.08,3.37,5.24,4.94,7.68,1.04,1.62,3.64.12,2.59-1.51-.74-1.15-1.65-2.17-2.52-3.22-.61-.74-2.06-2.14-2.04-3.2.01-.63.86-1.16,1.26-1.65.68-.83,1.28-1.71,1.76-2.67,2.78-5.43,2.46-11.88.7-17.57-.67-2.17-1.65-4.08-1.73-6.39-.07-2.1.05-4.19-.47-6.25-.48-1.87-3.37-1.08-2.89.8h0Z"/>
        <path class="cls-10" d="M516.71,142.87c-2.25,2.53-3,5.43-3.1,8.75-.05,1.65.07,3.29-.37,4.89-.47,1.71-1.17,3.33-1.3,5.12s.63,3.3.63,5.01c0,1.27-.34,2.47-.96,3.57-1.55,2.79-3.95,5.09-5.77,7.7-1.11,1.59,1.49,3.09,2.59,1.51,1.77-2.54,4.05-4.76,5.62-7.44s1.8-5.55,1.12-8.51c-.41-1.76,0-3.13.55-4.83s.85-3.21.86-4.95c.03-3.17.02-6.2,2.25-8.7,1.28-1.44-.83-3.57-2.12-2.12h0Z"/>
        <circle class="cls-2" cx="517.8" cy="135.41" r="8.16"/>
        <path class="cls-10" d="M20.21,143.2c.48,1.86.3,3.77.38,5.66s.65,3.6,1.31,5.43c1.22,3.38,1.96,6.96,1.74,10.57-.15,2.44-.78,4.88-2.03,7-1.05,1.77-3.22,3.06-2.99,5.33.31,3.08,3.37,5.24,4.94,7.68,1.04,1.62,3.64.12,2.59-1.51-.74-1.15-1.65-2.17-2.52-3.22-.61-.74-2.06-2.14-2.04-3.2.01-.63.86-1.16,1.26-1.65.68-.83,1.28-1.71,1.76-2.67,2.78-5.43,2.46-11.88.7-17.57-.67-2.17-1.65-4.08-1.73-6.39-.07-2.1.05-4.19-.47-6.25-.48-1.87-3.37-1.08-2.89.8h0Z"/>
        <path class="cls-10" d="M19.13,142.87c-2.25,2.53-3,5.43-3.1,8.75-.05,1.65.07,3.29-.37,4.89-.47,1.71-1.17,3.33-1.3,5.12s.63,3.3.63,5.01c0,1.27-.34,2.47-.96,3.57-1.55,2.79-3.95,5.09-5.77,7.7-1.11,1.59,1.49,3.09,2.59,1.51,1.77-2.54,4.05-4.76,5.62-7.44s1.8-5.55,1.12-8.51c-.41-1.76,0-3.13.55-4.83s.85-3.21.86-4.95c.03-3.17.02-6.2,2.25-8.7,1.28-1.44-.83-3.57-2.12-2.12h0Z"/>
        <circle class="cls-2" cx="20.21" cy="135.41" r="8.16"/>
        <path class="cls-10" d="M144.61,143.2c.48,1.86.3,3.77.38,5.66s.65,3.6,1.31,5.43c1.22,3.38,1.96,6.96,1.74,10.57-.15,2.44-.78,4.88-2.03,7-1.05,1.77-3.22,3.06-2.99,5.33.31,3.08,3.37,5.24,4.94,7.68,1.04,1.62,3.64.12,2.59-1.51-.74-1.15-1.65-2.17-2.52-3.22-.61-.74-2.06-2.14-2.04-3.2.01-.63.86-1.16,1.26-1.65.68-.83,1.28-1.71,1.76-2.67,2.78-5.43,2.46-11.88.7-17.57-.67-2.17-1.65-4.08-1.73-6.39-.07-2.1.05-4.19-.47-6.25-.48-1.87-3.37-1.08-2.89.8h0Z"/>
        <path class="cls-10" d="M143.52,142.87c-2.25,2.53-3,5.43-3.1,8.75-.05,1.65.07,3.29-.37,4.89-.47,1.71-1.17,3.33-1.3,5.12s.63,3.3.63,5.01c0,1.27-.34,2.47-.96,3.57-1.55,2.79-3.95,5.09-5.77,7.7-1.11,1.59,1.49,3.09,2.59,1.51,1.77-2.54,4.05-4.76,5.62-7.44s1.8-5.55,1.12-8.51c-.41-1.76,0-3.13.55-4.83s.85-3.21.86-4.95c.03-3.17.02-6.2,2.25-8.7,1.28-1.44-.83-3.57-2.12-2.12h0Z"/>
        <circle class="cls-2" cx="144.61" cy="135.41" r="8.16"/>
        <path class="cls-10" d="M126.12,143.2c.52,2.02.31,4.08.45,6.14.15,2.21.96,4.14,1.57,6.24.91,3.1,1.47,6.38,1.07,9.62-.24,1.96-.89,3.84-1.81,5.58-.72,1.37-1.65,2.67-2.19,4.13-1.44,3.89,2.38,7.04,4.25,9.96,1.04,1.62,3.64.12,2.59-1.51-.93-1.44-2.09-2.71-3.05-4.13-.43-.63-.89-1.33-1.04-2.09-.05-.24-.09-.5-.06-.75.02-.2.11-.43.18-.62-.05.13-.06.14,0,0,.61-1.38,1.5-2.63,2.17-3.98,2.44-4.92,2.48-10.3,1.17-15.57-.57-2.29-1.69-4.5-1.86-6.88s.03-4.65-.56-6.94c-.48-1.87-3.37-1.08-2.89.8h0Z"/>
        <path class="cls-10" d="M123.71,143.31c-2.66,2.92-4.9,6.39-6.55,9.97-1.2,2.62-3.35,7.48.08,9.33.47.26,1.19.34,1.6.71.5.45.29,1.62.32,2.25.11,2.35.2,4.7.22,7.06.02,2.69.09,5.55-.66,8.16-.16.57-.24.78-.41,1.09-.1.18-.2.36-.31.53-.23.36,0,.05-.19.25-.13.14-.26.27-.39.39-.32.3.02.02-.22.17-.34.22-.69.42-1.06.59-1.75.81-.23,3.4,1.51,2.59,3.97-1.85,4.5-6.29,4.67-10.21.08-1.89.07-3.79.02-5.68-.03-1.21-.07-2.41-.12-3.62s.03-2.65-.23-3.89c-.16-.78-.55-1.43-1.16-1.94s-1.31-.62-1.97-1c-.46-.27-.48-.25-.46-.82.02-.79.28-1.61.52-2.35,1.35-4.15,3.98-8.25,6.91-11.47,1.3-1.43-.82-3.55-2.12-2.12h0Z"/>
        <circle class="cls-2" cx="126.12" cy="135.41" r="8.16"/>
        <path class="cls-10" d="M90.57,143.2c.52,2.02.31,4.08.45,6.14.15,2.21.96,4.14,1.57,6.24.91,3.1,1.47,6.38,1.07,9.62-.24,1.96-.89,3.84-1.81,5.58-.72,1.37-1.65,2.67-2.19,4.13-1.44,3.89,2.38,7.04,4.25,9.96,1.04,1.62,3.64.12,2.59-1.51-.93-1.44-2.09-2.71-3.05-4.13-.43-.63-.89-1.33-1.04-2.09-.05-.24-.09-.5-.06-.75.02-.2.11-.43.18-.62-.05.13-.06.14,0,0,.61-1.38,1.5-2.63,2.17-3.98,2.44-4.92,2.48-10.3,1.17-15.57-.57-2.29-1.69-4.5-1.86-6.88s.03-4.65-.56-6.94c-.48-1.87-3.37-1.08-2.89.8h0Z"/>
        <path class="cls-10" d="M88.17,143.31c-2.66,2.92-4.9,6.39-6.55,9.97-1.2,2.62-3.35,7.48.08,9.33.47.26,1.19.34,1.6.71.5.45.29,1.62.32,2.25.11,2.35.2,4.7.22,7.06.02,2.69.09,5.55-.66,8.16-.16.57-.24.78-.41,1.09-.1.18-.2.36-.31.53-.23.36,0,.05-.19.25-.13.14-.26.27-.39.39-.32.3.02.02-.22.17-.34.22-.69.42-1.06.59-1.75.81-.23,3.4,1.51,2.59,3.97-1.85,4.5-6.29,4.67-10.21.08-1.89.07-3.79.02-5.68-.03-1.21-.07-2.41-.12-3.62s.03-2.65-.23-3.89c-.16-.78-.55-1.43-1.16-1.94s-1.31-.62-1.97-1c-.46-.27-.48-.25-.46-.82.02-.79.28-1.61.52-2.35,1.35-4.15,3.98-8.25,6.91-11.47,1.3-1.43-.82-3.55-2.12-2.12h0Z"/>
        <circle class="cls-2" cx="90.58" cy="135.41" r="8.16"/>
        <path class="cls-10" d="M37.26,143.2c.52,2.02.31,4.08.45,6.14.15,2.21.96,4.14,1.57,6.24.91,3.1,1.47,6.38,1.07,9.62-.24,1.96-.89,3.84-1.81,5.58-.72,1.37-1.65,2.67-2.19,4.13-1.44,3.89,2.38,7.04,4.25,9.96,1.04,1.62,3.64.12,2.59-1.51-.93-1.44-2.09-2.71-3.05-4.13-.43-.63-.89-1.33-1.04-2.09-.05-.24-.09-.5-.06-.75.02-.2.11-.43.18-.62-.05.13-.06.14,0,0,.61-1.38,1.5-2.63,2.17-3.98,2.44-4.92,2.48-10.3,1.17-15.57-.57-2.29-1.69-4.5-1.86-6.88s.03-4.65-.56-6.94c-.48-1.87-3.37-1.08-2.89.8h0Z"/>
        <path class="cls-10" d="M34.85,143.31c-2.66,2.92-4.9,6.39-6.55,9.97-1.2,2.62-3.35,7.48.08,9.33.47.26,1.19.34,1.6.71.5.45.29,1.62.32,2.25.11,2.35.2,4.7.22,7.06.02,2.69.09,5.55-.66,8.16-.16.57-.24.78-.41,1.09-.1.18-.2.36-.31.53-.23.36,0,.05-.19.25-.13.14-.26.27-.39.39-.32.3.02.02-.22.17-.34.22-.69.42-1.06.59-1.75.81-.23,3.4,1.51,2.59,3.97-1.85,4.5-6.29,4.67-10.21.08-1.89.07-3.79.02-5.68-.03-1.21-.07-2.41-.12-3.62s.03-2.65-.23-3.89c-.16-.78-.55-1.43-1.16-1.94s-1.31-.62-1.97-1c-.46-.27-.48-.25-.46-.82.02-.79.28-1.61.52-2.35,1.35-4.15,3.98-8.25,6.91-11.47,1.3-1.43-.82-3.55-2.12-2.12h0Z"/>
        <circle class="cls-2" cx="37.27" cy="135.41" r="8.16"/>
        <path class="cls-10" d="M250.51,143.2c.52,2.02.31,4.08.45,6.14.15,2.21.96,4.14,1.57,6.24.91,3.1,1.47,6.38,1.07,9.62-.24,1.96-.89,3.84-1.81,5.58-.72,1.37-1.65,2.67-2.19,4.13-1.44,3.89,2.38,7.04,4.25,9.96,1.04,1.62,3.64.12,2.59-1.51-.93-1.44-2.09-2.71-3.05-4.13-.43-.63-.89-1.33-1.04-2.09-.05-.24-.09-.5-.06-.75.02-.2.11-.43.18-.62-.05.13-.06.14,0,0,.61-1.38,1.5-2.63,2.17-3.98,2.44-4.92,2.48-10.3,1.17-15.57-.57-2.29-1.69-4.5-1.86-6.88s.03-4.65-.56-6.94c-.48-1.87-3.37-1.08-2.89.8h0Z"/>
        <path class="cls-10" d="M248.11,143.31c-2.66,2.92-4.9,6.39-6.55,9.97-1.2,2.62-3.35,7.48.08,9.33.47.26,1.19.34,1.6.71.5.45.29,1.62.32,2.25.11,2.35.2,4.7.22,7.06.02,2.69.09,5.55-.66,8.16-.16.57-.24.78-.41,1.09-.1.18-.2.36-.31.53-.23.36,0,.05-.19.25-.13.14-.26.27-.39.39-.32.3.02.02-.22.17-.34.22-.69.42-1.06.59-1.75.81-.23,3.4,1.51,2.59,3.97-1.85,4.5-6.29,4.67-10.21.08-1.89.07-3.79.02-5.68-.03-1.21-.07-2.41-.12-3.62s.03-2.65-.23-3.89c-.16-.78-.55-1.43-1.16-1.94s-1.31-.62-1.97-1c-.46-.27-.48-.25-.46-.82.02-.79.28-1.61.52-2.35,1.35-4.15,3.98-8.25,6.91-11.47,1.3-1.43-.82-3.55-2.12-2.12h0Z"/>
        <circle class="cls-2" cx="250.52" cy="135.41" r="8.16"/>
        <path class="cls-10" d="M268.28,143.2c.52,2.02.31,4.08.45,6.14.15,2.21.96,4.14,1.57,6.24.91,3.1,1.47,6.38,1.07,9.62-.24,1.96-.89,3.84-1.81,5.58-.72,1.37-1.65,2.67-2.19,4.13-1.44,3.89,2.38,7.04,4.25,9.96,1.04,1.62,3.64.12,2.59-1.51-.93-1.44-2.09-2.71-3.05-4.13-.43-.63-.89-1.33-1.04-2.09-.05-.24-.09-.5-.06-.75.02-.2.11-.43.18-.62-.05.13-.06.14,0,0,.61-1.38,1.5-2.63,2.17-3.98,2.44-4.92,2.48-10.3,1.17-15.57-.57-2.29-1.69-4.5-1.86-6.88s.03-4.65-.56-6.94c-.48-1.87-3.37-1.08-2.89.8h0Z"/>
        <path class="cls-10" d="M265.88,143.31c-2.66,2.92-4.9,6.39-6.55,9.97-1.2,2.62-3.35,7.48.08,9.33.47.26,1.19.34,1.6.71.5.45.29,1.62.32,2.25.11,2.35.2,4.7.22,7.06.02,2.69.09,5.55-.66,8.16-.16.57-.24.78-.41,1.09-.1.18-.2.36-.31.53-.23.36,0,.05-.19.25-.13.14-.26.27-.39.39-.32.3.02.02-.22.17-.34.22-.69.42-1.06.59-1.75.81-.23,3.4,1.51,2.59,3.97-1.85,4.5-6.29,4.67-10.21.08-1.89.07-3.79.02-5.68-.03-1.21-.07-2.41-.12-3.62s.03-2.65-.23-3.89c-.16-.78-.55-1.43-1.16-1.94s-1.31-.62-1.97-1c-.46-.27-.48-.25-.46-.82.02-.79.28-1.61.52-2.35,1.35-4.15,3.98-8.25,6.91-11.47,1.3-1.43-.82-3.55-2.12-2.12h0Z"/>
        <circle class="cls-2" cx="268.29" cy="135.41" r="8.16"/>
        <path class="cls-10" d="M357.14,143.2c.52,2.02.31,4.08.45,6.14.15,2.21.96,4.14,1.57,6.24.91,3.1,1.47,6.38,1.07,9.62-.24,1.96-.89,3.84-1.81,5.58-.72,1.37-1.65,2.67-2.19,4.13-1.44,3.89,2.38,7.04,4.25,9.96,1.04,1.62,3.64.12,2.59-1.51-.93-1.44-2.09-2.71-3.05-4.13-.43-.63-.89-1.33-1.04-2.09-.05-.24-.09-.5-.06-.75.02-.2.11-.43.18-.62-.05.13-.06.14,0,0,.61-1.38,1.5-2.63,2.17-3.98,2.44-4.92,2.48-10.3,1.17-15.57-.57-2.29-1.69-4.5-1.86-6.88s.03-4.65-.56-6.94c-.48-1.87-3.37-1.08-2.89.8h0Z"/>
        <path class="cls-10" d="M354.73,143.31c-2.66,2.92-4.9,6.39-6.55,9.97-1.2,2.62-3.35,7.48.08,9.33.47.26,1.19.34,1.6.71.5.45.29,1.62.32,2.25.11,2.35.2,4.7.22,7.06.02,2.69.09,5.55-.66,8.16-.16.57-.24.78-.41,1.09-.1.18-.2.36-.31.53-.23.36,0,.05-.19.25-.13.14-.26.27-.39.39-.32.3.02.02-.22.17-.34.22-.69.42-1.06.59-1.75.81-.23,3.4,1.51,2.59,3.97-1.85,4.5-6.29,4.67-10.21.08-1.89.07-3.79.02-5.68-.03-1.21-.07-2.41-.12-3.62s.03-2.65-.23-3.89c-.16-.78-.55-1.43-1.16-1.94s-1.31-.62-1.97-1c-.46-.27-.48-.25-.46-.82.02-.79.28-1.61.52-2.35,1.35-4.15,3.98-8.25,6.91-11.47,1.3-1.43-.82-3.55-2.12-2.12h0Z"/>
        <circle class="cls-2" cx="357.14" cy="135.41" r="8.16"/>
        <path class="cls-10" d="M392.68,143.2c.52,2.02.31,4.08.45,6.14.15,2.21.96,4.14,1.57,6.24.91,3.1,1.47,6.38,1.07,9.62-.24,1.96-.89,3.84-1.81,5.58-.72,1.37-1.65,2.67-2.19,4.13-1.44,3.89,2.38,7.04,4.25,9.96,1.04,1.62,3.64.12,2.59-1.51-.93-1.44-2.09-2.71-3.05-4.13-.43-.63-.89-1.33-1.04-2.09-.05-.24-.09-.5-.06-.75.02-.2.11-.43.18-.62-.05.13-.06.14,0,0,.61-1.38,1.5-2.63,2.17-3.98,2.44-4.92,2.48-10.3,1.17-15.57-.57-2.29-1.69-4.5-1.86-6.88s.03-4.65-.56-6.94c-.48-1.87-3.37-1.08-2.89.8h0Z"/>
        <path class="cls-10" d="M390.27,143.31c-2.66,2.92-4.9,6.39-6.55,9.97-1.2,2.62-3.35,7.48.08,9.33.47.26,1.19.34,1.6.71.5.45.29,1.62.32,2.25.11,2.35.2,4.7.22,7.06.02,2.69.09,5.55-.66,8.16-.16.57-.24.78-.41,1.09-.1.18-.2.36-.31.53-.23.36,0,.05-.19.25-.13.14-.26.27-.39.39-.32.3.02.02-.22.17-.34.22-.69.42-1.06.59-1.75.81-.23,3.4,1.51,2.59,3.97-1.85,4.5-6.29,4.67-10.21.08-1.89.07-3.79.02-5.68-.03-1.21-.07-2.41-.12-3.62s.03-2.65-.23-3.89c-.16-.78-.55-1.43-1.16-1.94s-1.31-.62-1.97-1c-.46-.27-.48-.25-.46-.82.02-.79.28-1.61.52-2.35,1.35-4.15,3.98-8.25,6.91-11.47,1.3-1.43-.82-3.55-2.12-2.12h0Z"/>
        <circle class="cls-2" cx="392.69" cy="135.41" r="8.16"/>
        <path class="cls-10" d="M428.22,143.2c.52,2.02.31,4.08.45,6.14.15,2.21.96,4.14,1.57,6.24.91,3.1,1.47,6.38,1.07,9.62-.24,1.96-.89,3.84-1.81,5.58-.72,1.37-1.65,2.67-2.19,4.13-1.44,3.89,2.38,7.04,4.25,9.96,1.04,1.62,3.64.12,2.59-1.51-.93-1.44-2.09-2.71-3.05-4.13-.43-.63-.89-1.33-1.04-2.09-.05-.24-.09-.5-.06-.75.02-.2.11-.43.18-.62-.05.13-.06.14,0,0,.61-1.38,1.5-2.63,2.17-3.98,2.44-4.92,2.48-10.3,1.17-15.57-.57-2.29-1.69-4.5-1.86-6.88s.03-4.65-.56-6.94c-.48-1.87-3.37-1.08-2.89.8h0Z"/>
        <path class="cls-10" d="M425.82,143.31c-2.66,2.92-4.9,6.39-6.55,9.97-1.2,2.62-3.35,7.48.08,9.33.47.26,1.19.34,1.6.71.5.45.29,1.62.32,2.25.11,2.35.2,4.7.22,7.06.02,2.69.09,5.55-.66,8.16-.16.57-.24.78-.41,1.09-.1.18-.2.36-.31.53-.23.36,0,.05-.19.25-.13.14-.26.27-.39.39-.32.3.02.02-.22.17-.34.22-.69.42-1.06.59-1.75.81-.23,3.4,1.51,2.59,3.97-1.85,4.5-6.29,4.67-10.21.08-1.89.07-3.79.02-5.68-.03-1.21-.07-2.41-.12-3.62s.03-2.65-.23-3.89c-.16-.78-.55-1.43-1.16-1.94s-1.31-.62-1.97-1c-.46-.27-.48-.25-.46-.82.02-.79.28-1.61.52-2.35,1.35-4.15,3.98-8.25,6.91-11.47,1.3-1.43-.82-3.55-2.12-2.12h0Z"/>
        <circle class="cls-2" cx="428.23" cy="135.41" r="8.16"/>
        <path class="cls-10" d="M463.76,143.2c.52,2.02.31,4.08.45,6.14.15,2.21.96,4.14,1.57,6.24.91,3.1,1.47,6.38,1.07,9.62-.24,1.96-.89,3.84-1.81,5.58-.72,1.37-1.65,2.67-2.19,4.13-1.44,3.89,2.38,7.04,4.25,9.96,1.04,1.62,3.64.12,2.59-1.51-.93-1.44-2.09-2.71-3.05-4.13-.43-.63-.89-1.33-1.04-2.09-.05-.24-.09-.5-.06-.75.02-.2.11-.43.18-.62-.05.13-.06.14,0,0,.61-1.38,1.5-2.63,2.17-3.98,2.44-4.92,2.48-10.3,1.17-15.57-.57-2.29-1.69-4.5-1.86-6.88s.03-4.65-.56-6.94c-.48-1.87-3.37-1.08-2.89.8h0Z"/>
        <path class="cls-10" d="M461.36,143.31c-2.66,2.92-4.9,6.39-6.55,9.97-1.2,2.62-3.35,7.48.08,9.33.47.26,1.19.34,1.6.71.5.45.29,1.62.32,2.25.11,2.35.2,4.7.22,7.06.02,2.69.09,5.55-.66,8.16-.16.57-.24.78-.41,1.09-.1.18-.2.36-.31.53-.23.36,0,.05-.19.25-.13.14-.26.27-.39.39-.32.3.02.02-.22.17-.34.22-.69.42-1.06.59-1.75.81-.23,3.4,1.51,2.59,3.97-1.85,4.5-6.29,4.67-10.21.08-1.89.07-3.79.02-5.68-.03-1.21-.07-2.41-.12-3.62s.03-2.65-.23-3.89c-.16-.78-.55-1.43-1.16-1.94s-1.31-.62-1.97-1c-.46-.27-.48-.25-.46-.82.02-.79.28-1.61.52-2.35,1.35-4.15,3.98-8.25,6.91-11.47,1.3-1.43-.82-3.55-2.12-2.12h0Z"/>
        <circle class="cls-2" cx="463.77" cy="135.41" r="8.16"/>
        <path class="cls-10" d="M534.85,143.2c.52,2.02.31,4.08.45,6.14.15,2.21.96,4.14,1.57,6.24.91,3.1,1.47,6.38,1.07,9.62-.24,1.96-.89,3.84-1.81,5.58-.72,1.37-1.65,2.67-2.19,4.13-1.44,3.89,2.38,7.04,4.25,9.96,1.04,1.62,3.64.12,2.59-1.51-.93-1.44-2.09-2.71-3.05-4.13-.43-.63-.89-1.33-1.04-2.09-.05-.24-.09-.5-.06-.75.02-.2.11-.43.18-.62-.05.13-.06.14,0,0,.61-1.38,1.5-2.63,2.17-3.98,2.44-4.92,2.48-10.3,1.17-15.57-.57-2.29-1.69-4.5-1.86-6.88s.03-4.65-.56-6.94c-.48-1.87-3.37-1.08-2.89.8h0Z"/>
        <path class="cls-10" d="M532.44,143.31c-2.66,2.92-4.9,6.39-6.55,9.97-1.2,2.62-3.35,7.48.08,9.33.47.26,1.19.34,1.6.71.5.45.29,1.62.32,2.25.11,2.35.2,4.7.22,7.06.02,2.69.09,5.55-.66,8.16-.16.57-.24.78-.41,1.09-.1.18-.2.36-.31.53-.23.36,0,.05-.19.25-.13.14-.26.27-.39.39-.32.3.02.02-.22.17-.34.22-.69.42-1.06.59-1.75.81-.23,3.4,1.51,2.59,3.97-1.85,4.5-6.29,4.67-10.21.08-1.89.07-3.79.02-5.68-.03-1.21-.07-2.41-.12-3.62s.03-2.65-.23-3.89c-.16-.78-.55-1.43-1.16-1.94s-1.31-.62-1.97-1c-.46-.27-.48-.25-.46-.82.02-.79.28-1.61.52-2.35,1.35-4.15,3.98-8.25,6.91-11.47,1.3-1.43-.82-3.55-2.12-2.12h0Z"/>
        <circle class="cls-2" cx="534.85" cy="135.41" r="8.16"/>
        <path class="cls-10" d="M481.54,143.2c.52,2.02.31,4.08.45,6.14.15,2.21.96,4.14,1.57,6.24.91,3.1,1.47,6.38,1.07,9.62-.24,1.96-.89,3.84-1.81,5.58-.72,1.37-1.65,2.67-2.19,4.13-1.44,3.89,2.38,7.04,4.25,9.96,1.04,1.62,3.64.12,2.59-1.51-.93-1.44-2.09-2.71-3.05-4.13-.43-.63-.89-1.33-1.04-2.09-.05-.24-.09-.5-.06-.75.02-.2.11-.43.18-.62-.05.13-.06.14,0,0,.61-1.38,1.5-2.63,2.17-3.98,2.44-4.92,2.48-10.3,1.17-15.57-.57-2.29-1.69-4.5-1.86-6.88s.03-4.65-.56-6.94c-.48-1.87-3.37-1.08-2.89.8h0Z"/>
        <path class="cls-10" d="M479.13,143.31c-2.66,2.92-4.9,6.39-6.55,9.97-1.2,2.62-3.35,7.48.08,9.33.47.26,1.19.34,1.6.71.5.45.29,1.62.32,2.25.11,2.35.2,4.7.22,7.06.02,2.69.09,5.55-.66,8.16-.16.57-.24.78-.41,1.09-.1.18-.2.36-.31.53-.23.36,0,.05-.19.25-.13.14-.26.27-.39.39-.32.3.02.02-.22.17-.34.22-.69.42-1.06.59-1.75.81-.23,3.4,1.51,2.59,3.97-1.85,4.5-6.29,4.67-10.21.08-1.89.07-3.79.02-5.68-.03-1.21-.07-2.41-.12-3.62s.03-2.65-.23-3.89c-.16-.78-.55-1.43-1.16-1.94s-1.31-.62-1.97-1c-.46-.27-.48-.25-.46-.82.02-.79.28-1.61.52-2.35,1.35-4.15,3.98-8.25,6.91-11.47,1.3-1.43-.82-3.55-2.12-2.12h0Z"/>
        <circle class="cls-2" cx="481.54" cy="135.41" r="8.16"/>
        <path class="cls-10" d="M214.97,143.2c.52,2.02.31,4.08.45,6.14.15,2.21.96,4.14,1.57,6.24.91,3.1,1.47,6.38,1.07,9.62-.24,1.96-.89,3.84-1.81,5.58-.72,1.37-1.65,2.67-2.19,4.13-1.44,3.89,2.38,7.04,4.25,9.96,1.04,1.62,3.64.12,2.59-1.51-.93-1.44-2.09-2.71-3.05-4.13-.43-.63-.89-1.33-1.04-2.09-.05-.24-.09-.5-.06-.75.02-.2.11-.43.18-.62-.05.13-.06.14,0,0,.61-1.38,1.5-2.63,2.17-3.98,2.44-4.92,2.48-10.3,1.17-15.57-.57-2.29-1.69-4.5-1.86-6.88s.03-4.65-.56-6.94c-.48-1.87-3.37-1.08-2.89.8h0Z"/>
        <path class="cls-10" d="M212.56,143.31c-2.66,2.92-4.9,6.39-6.55,9.97-1.2,2.62-3.35,7.48.08,9.33.47.26,1.19.34,1.6.71.5.45.29,1.62.32,2.25.11,2.35.2,4.7.22,7.06.02,2.69.09,5.55-.66,8.16-.16.57-.24.78-.41,1.09-.1.18-.2.36-.31.53-.23.36,0,.05-.19.25-.13.14-.26.27-.39.39-.32.3.02.02-.22.17-.34.22-.69.42-1.06.59-1.75.81-.23,3.4,1.51,2.59,3.97-1.85,4.5-6.29,4.67-10.21.08-1.89.07-3.79.02-5.68-.03-1.21-.07-2.41-.12-3.62s.03-2.65-.23-3.89c-.16-.78-.55-1.43-1.16-1.94s-1.31-.62-1.97-1c-.46-.27-.48-.25-.46-.82.02-.79.28-1.61.52-2.35,1.35-4.15,3.98-8.25,6.91-11.47,1.3-1.43-.82-3.55-2.12-2.12h0Z"/>
        <circle class="cls-2" cx="214.98" cy="135.41" r="8.16"/>
        <path class="cls-10" d="M501.07,231.68c.92-3.37,1.33-6.88,1.1-10.36s-1.05-7.11-1.7-10.64-1.17-6.99-.56-10.45,2.37-6.53,4.2-9.5c1.02-1.65-1.58-3.15-2.59-1.51-1.84,2.98-3.63,6.1-4.38,9.55s-.5,6.97.04,10.44,1.49,7.12,1.87,10.74.11,7.35-.87,10.93c-.51,1.86,2.38,2.66,2.89.8h0Z"/>
        <path class="cls-10" d="M499.22,229.09c-2.34-2.55-4.9-5.44-5.5-8.97-.64-3.77,1.53-7.44,2.17-11.08,1.24-7.05-.29-14.46-4.31-20.39-1.08-1.59-3.68-.09-2.59,1.51,4.14,6.11,5.42,13.8,3.34,20.9-1.07,3.66-2.37,7.18-1.22,11.01,1.06,3.55,3.53,6.46,5.99,9.13,1.31,1.43,3.43-.7,2.12-2.12h0Z"/>
        <circle class="cls-2" cx="498.18" cy="238.67" r="8.16"/>
        <path class="cls-10" d="M341.13,231.68c.92-3.37,1.33-6.88,1.1-10.36s-1.05-7.11-1.7-10.64-1.17-6.99-.56-10.45,2.37-6.53,4.2-9.5c1.02-1.65-1.58-3.15-2.59-1.51-1.84,2.98-3.63,6.1-4.38,9.55s-.5,6.97.04,10.44,1.49,7.12,1.87,10.74.11,7.35-.87,10.93c-.51,1.86,2.38,2.66,2.89.8h0Z"/>
        <path class="cls-10" d="M339.28,229.09c-2.34-2.55-4.9-5.44-5.5-8.97-.64-3.77,1.53-7.44,2.17-11.08,1.24-7.05-.29-14.46-4.31-20.39-1.08-1.59-3.68-.09-2.59,1.51,4.14,6.11,5.42,13.8,3.34,20.9-1.07,3.66-2.37,7.18-1.22,11.01,1.06,3.55,3.53,6.46,5.99,9.13,1.31,1.43,3.43-.7,2.12-2.12h0Z"/>
        <circle class="cls-2" cx="338.24" cy="238.67" r="8.16"/>
        <path class="cls-10" d="M323.36,231.68c.92-3.37,1.33-6.88,1.1-10.36s-1.05-7.11-1.7-10.64-1.17-6.99-.56-10.45,2.37-6.53,4.2-9.5c1.02-1.65-1.58-3.15-2.59-1.51-1.84,2.98-3.63,6.1-4.38,9.55s-.5,6.97.04,10.44,1.49,7.12,1.87,10.74.11,7.35-.87,10.93c-.51,1.86,2.38,2.66,2.89.8h0Z"/>
        <path class="cls-10" d="M321.51,229.09c-2.34-2.55-4.9-5.44-5.5-8.97-.64-3.77,1.53-7.44,2.17-11.08,1.24-7.05-.29-14.46-4.31-20.39-1.08-1.59-3.68-.09-2.59,1.51,4.14,6.11,5.42,13.8,3.34,20.9-1.07,3.66-2.37,7.18-1.22,11.01,1.06,3.55,3.53,6.46,5.99,9.13,1.31,1.43,3.43-.7,2.12-2.12h0Z"/>
        <circle class="cls-2" cx="320.47" cy="238.67" r="8.16"/>
        <path class="cls-10" d="M198.96,231.68c.92-3.37,1.33-6.88,1.1-10.36s-1.05-7.11-1.7-10.64-1.17-6.99-.56-10.45,2.37-6.53,4.2-9.5c1.02-1.65-1.58-3.15-2.59-1.51-1.84,2.98-3.63,6.1-4.38,9.55s-.5,6.97.04,10.44,1.49,7.12,1.87,10.74.11,7.35-.87,10.93c-.51,1.86,2.38,2.66,2.89.8h0Z"/>
        <path class="cls-10" d="M197.11,229.09c-2.34-2.55-4.9-5.44-5.5-8.97-.64-3.77,1.53-7.44,2.17-11.08,1.24-7.05-.29-14.46-4.31-20.39-1.08-1.59-3.68-.09-2.59,1.51,4.14,6.11,5.42,13.8,3.34,20.9-1.07,3.66-2.37,7.18-1.22,11.01,1.06,3.55,3.53,6.46,5.99,9.13,1.31,1.43,3.43-.7,2.12-2.12h0Z"/>
        <circle class="cls-2" cx="196.08" cy="238.67" r="8.16"/>
        <path class="cls-10" d="M412.22,231.68c.92-3.37,1.33-6.88,1.1-10.36s-1.05-7.11-1.7-10.64-1.17-6.99-.56-10.45,2.37-6.53,4.2-9.5c1.02-1.65-1.58-3.15-2.59-1.51-1.84,2.98-3.63,6.1-4.38,9.55s-.5,6.97.04,10.44,1.49,7.12,1.87,10.74.11,7.35-.87,10.93c-.51,1.86,2.38,2.66,2.89.8h0Z"/>
        <path class="cls-10" d="M410.36,229.09c-2.34-2.55-4.9-5.44-5.5-8.97-.64-3.77,1.53-7.44,2.17-11.08,1.24-7.05-.29-14.46-4.31-20.39-1.08-1.59-3.68-.09-2.59,1.51,4.14,6.11,5.42,13.8,3.34,20.9-1.07,3.66-2.37,7.18-1.22,11.01,1.06,3.55,3.53,6.46,5.99,9.13,1.31,1.43,3.43-.7,2.12-2.12h0Z"/>
        <circle class="cls-2" cx="409.33" cy="238.67" r="8.16"/>
        <path class="cls-10" d="M376.67,231.68c.92-3.37,1.33-6.88,1.1-10.36s-1.05-7.11-1.7-10.64-1.17-6.99-.56-10.45,2.37-6.53,4.2-9.5c1.02-1.65-1.58-3.15-2.59-1.51-1.84,2.98-3.63,6.1-4.38,9.55s-.5,6.97.04,10.44,1.49,7.12,1.87,10.74.11,7.35-.87,10.93c-.51,1.86,2.38,2.66,2.89.8h0Z"/>
        <path class="cls-10" d="M374.82,229.09c-2.34-2.55-4.9-5.44-5.5-8.97-.64-3.77,1.53-7.44,2.17-11.08,1.24-7.05-.29-14.46-4.31-20.39-1.08-1.59-3.68-.09-2.59,1.51,4.14,6.11,5.42,13.8,3.34,20.9-1.07,3.66-2.37,7.18-1.22,11.01,1.06,3.55,3.53,6.46,5.99,9.13,1.31,1.43,3.43-.7,2.12-2.12h0Z"/>
        <circle class="cls-2" cx="373.79" cy="238.67" r="8.16"/>
        <path class="cls-10" d="M287.82,231.68c.92-3.37,1.33-6.88,1.1-10.36s-1.05-7.11-1.7-10.64-1.17-6.99-.56-10.45,2.37-6.53,4.2-9.5c1.02-1.65-1.58-3.15-2.59-1.51-1.84,2.98-3.63,6.1-4.38,9.55s-.5,6.97.04,10.44,1.49,7.12,1.87,10.74.11,7.35-.87,10.93c-.51,1.86,2.38,2.66,2.89.8h0Z"/>
        <path class="cls-10" d="M285.97,229.09c-2.34-2.55-4.9-5.44-5.5-8.97-.64-3.77,1.53-7.44,2.17-11.08,1.24-7.05-.29-14.46-4.31-20.39-1.08-1.59-3.68-.09-2.59,1.51,4.14,6.11,5.42,13.8,3.34,20.9-1.07,3.66-2.37,7.18-1.22,11.01,1.06,3.55,3.53,6.46,5.99,9.13,1.31,1.43,3.43-.7,2.12-2.12h0Z"/>
        <circle class="cls-2" cx="284.93" cy="238.67" r="8.16"/>
        <path class="cls-10" d="M163.42,231.68c.92-3.37,1.33-6.88,1.1-10.36s-1.05-7.11-1.7-10.64-1.17-6.99-.56-10.45,2.37-6.53,4.2-9.5c1.02-1.65-1.58-3.15-2.59-1.51-1.84,2.98-3.63,6.1-4.38,9.55s-.5,6.97.04,10.44,1.49,7.12,1.87,10.74.11,7.35-.87,10.93c-.51,1.86,2.38,2.66,2.89.8h0Z"/>
        <path class="cls-10" d="M161.57,229.09c-2.34-2.55-4.9-5.44-5.5-8.97-.64-3.77,1.53-7.44,2.17-11.08,1.24-7.05-.29-14.46-4.31-20.39-1.08-1.59-3.68-.09-2.59,1.51,4.14,6.11,5.42,13.8,3.34,20.9-1.07,3.66-2.37,7.18-1.22,11.01,1.06,3.55,3.53,6.46,5.99,9.13,1.31,1.43,3.43-.7,2.12-2.12h0Z"/>
        <circle class="cls-2" cx="160.53" cy="238.67" r="8.16"/>
        <path class="cls-10" d="M110.11,231.68c.92-3.37,1.33-6.88,1.1-10.36s-1.05-7.11-1.7-10.64-1.17-6.99-.56-10.45,2.37-6.53,4.2-9.5c1.02-1.65-1.58-3.15-2.59-1.51-1.84,2.98-3.63,6.1-4.38,9.55s-.5,6.97.04,10.44,1.49,7.12,1.87,10.74.11,7.35-.87,10.93c-.51,1.86,2.38,2.66,2.89.8h0Z"/>
        <path class="cls-10" d="M108.26,229.09c-2.34-2.55-4.9-5.44-5.5-8.97-.64-3.77,1.53-7.44,2.17-11.08,1.24-7.05-.29-14.46-4.31-20.39-1.08-1.59-3.68-.09-2.59,1.51,4.14,6.11,5.42,13.8,3.34,20.9-1.07,3.66-2.37,7.18-1.22,11.01,1.06,3.55,3.53,6.46,5.99,9.13,1.31,1.43,3.43-.7,2.12-2.12h0Z"/>
        <circle class="cls-2" cx="107.22" cy="238.67" r="8.16"/>
        <path class="cls-10" d="M56.8,231.68c.92-3.37,1.33-6.88,1.1-10.36s-1.05-7.11-1.7-10.64-1.17-6.99-.56-10.45,2.37-6.53,4.2-9.5c1.02-1.65-1.58-3.15-2.59-1.51-1.84,2.98-3.63,6.1-4.38,9.55s-.5,6.97.04,10.44,1.49,7.12,1.87,10.74.11,7.35-.87,10.93c-.51,1.86,2.38,2.66,2.89.8h0Z"/>
        <path class="cls-10" d="M54.94,229.09c-2.34-2.55-4.9-5.44-5.5-8.97-.64-3.77,1.53-7.44,2.17-11.08,1.24-7.05-.29-14.46-4.31-20.39-1.08-1.59-3.68-.09-2.59,1.51,4.14,6.11,5.42,13.8,3.34,20.9-1.07,3.66-2.37,7.18-1.22,11.01,1.06,3.55,3.53,6.46,5.99,9.13,1.31,1.43,3.43-.7,2.12-2.12h0Z"/>
        <circle class="cls-2" cx="53.91" cy="238.67" r="8.16"/>
        <path class="cls-10" d="M75.82,231.68c.46-1.78.44-3.59.46-5.41,0-.91.02-1.82.2-2.71.21-1.03.67-1.99,1.03-2.98,1.19-3.3,1.93-6.83,1.89-10.34-.04-2.74-.56-5.45-1.68-7.96-.43-.97-.95-1.89-1.58-2.74-.29-.4-.6-.78-.92-1.15-.24-.27-.82-.65-.92-.99-.26-.85,1.16-2.37,1.62-2.94,1-1.23,2.08-2.4,2.94-3.73,1.05-1.63-1.55-3.13-2.59-1.51-1.46,2.27-3.8,4.06-4.72,6.67-.42,1.21-.31,2.51.5,3.53.59.73,1.29,1.33,1.82,2.11,3.27,4.84,2.94,11.14,1.32,16.5-.65,2.14-1.64,4.1-1.84,6.36s.12,4.37-.43,6.5c-.48,1.87,2.41,2.67,2.89.8h0Z"/>
        <path class="cls-10" d="M73.97,229.09c-2.18-2.44-2.21-5.39-2.24-8.5-.02-1.75-.27-3.29-.8-4.96-.56-1.76-1.04-3.19-.61-5.02.67-2.91.45-5.77-1.05-8.38s-3.9-4.99-5.7-7.57c-1.1-1.57-3.7-.07-2.59,1.51,1.82,2.61,4.22,4.91,5.77,7.7.62,1.11.96,2.3.96,3.57,0,1.7-.75,3.31-.63,5.01.13,1.78.83,3.41,1.3,5.12.45,1.61.32,3.24.37,4.89.1,3.32.85,6.22,3.1,8.75,1.29,1.44,3.4-.68,2.12-2.12h0Z"/>
        <circle class="cls-2" cx="72.93" cy="238.67" r="8.16"/>
        <path class="cls-10" d="M182.45,231.68c.46-1.78.44-3.59.46-5.41,0-.91.02-1.82.2-2.71.21-1.03.67-1.99,1.03-2.98,1.19-3.3,1.93-6.83,1.89-10.34-.04-2.74-.56-5.45-1.68-7.96-.43-.97-.95-1.89-1.58-2.74-.29-.4-.6-.78-.92-1.15-.24-.27-.82-.65-.92-.99-.26-.85,1.16-2.37,1.62-2.94,1-1.23,2.08-2.4,2.94-3.73,1.05-1.63-1.55-3.13-2.59-1.51-1.46,2.27-3.8,4.06-4.72,6.67-.42,1.21-.31,2.51.5,3.53.59.73,1.29,1.33,1.82,2.11,3.27,4.84,2.94,11.14,1.32,16.5-.65,2.14-1.64,4.1-1.84,6.36s.12,4.37-.43,6.5c-.48,1.87,2.41,2.67,2.89.8h0Z"/>
        <path class="cls-10" d="M180.59,229.09c-2.18-2.44-2.21-5.39-2.24-8.5-.02-1.75-.27-3.29-.8-4.96-.56-1.76-1.04-3.19-.61-5.02.67-2.91.45-5.77-1.05-8.38s-3.9-4.99-5.7-7.57c-1.1-1.57-3.7-.07-2.59,1.51,1.82,2.61,4.22,4.91,5.77,7.7.62,1.11.96,2.3.96,3.57,0,1.7-.75,3.31-.63,5.01.13,1.78.83,3.41,1.3,5.12.45,1.61.32,3.24.37,4.89.1,3.32.85,6.22,3.1,8.75,1.29,1.44,3.4-.68,2.12-2.12h0Z"/>
        <circle class="cls-2" cx="179.56" cy="238.67" r="8.16"/>
        <path class="cls-10" d="M235.76,231.68c.46-1.78.44-3.59.46-5.41,0-.91.02-1.82.2-2.71.21-1.03.67-1.99,1.03-2.98,1.19-3.3,1.93-6.83,1.89-10.34-.04-2.74-.56-5.45-1.68-7.96-.43-.97-.95-1.89-1.58-2.74-.29-.4-.6-.78-.92-1.15-.24-.27-.82-.65-.92-.99-.26-.85,1.16-2.37,1.62-2.94,1-1.23,2.08-2.4,2.94-3.73,1.05-1.63-1.55-3.13-2.59-1.51-1.46,2.27-3.8,4.06-4.72,6.67-.42,1.21-.31,2.51.5,3.53.59.73,1.29,1.33,1.82,2.11,3.27,4.84,2.94,11.14,1.32,16.5-.65,2.14-1.64,4.1-1.84,6.36s.12,4.37-.43,6.5c-.48,1.87,2.41,2.67,2.89.8h0Z"/>
        <path class="cls-10" d="M233.91,229.09c-2.18-2.44-2.21-5.39-2.24-8.5-.02-1.75-.27-3.29-.8-4.96-.56-1.76-1.04-3.19-.61-5.02.67-2.91.45-5.77-1.05-8.38s-3.9-4.99-5.7-7.57c-1.1-1.57-3.7-.07-2.59,1.51,1.82,2.61,4.22,4.91,5.77,7.7.62,1.11.96,2.3.96,3.57,0,1.7-.75,3.31-.63,5.01.13,1.78.83,3.41,1.3,5.12.45,1.61.32,3.24.37,4.89.1,3.32.85,6.22,3.1,8.75,1.29,1.44,3.4-.68,2.12-2.12h0Z"/>
        <circle class="cls-2" cx="232.87" cy="238.67" r="8.16"/>
        <path class="cls-10" d="M306.84,231.68c.46-1.78.44-3.59.46-5.41,0-.91.02-1.82.2-2.71.21-1.03.67-1.99,1.03-2.98,1.19-3.3,1.93-6.83,1.89-10.34-.04-2.74-.56-5.45-1.68-7.96-.43-.97-.95-1.89-1.58-2.74-.29-.4-.6-.78-.92-1.15-.24-.27-.82-.65-.92-.99-.26-.85,1.16-2.37,1.62-2.94,1-1.23,2.08-2.4,2.94-3.73,1.05-1.63-1.55-3.13-2.59-1.51-1.46,2.27-3.8,4.06-4.72,6.67-.42,1.21-.31,2.51.5,3.53.59.73,1.29,1.33,1.82,2.11,3.27,4.84,2.94,11.14,1.32,16.5-.65,2.14-1.64,4.1-1.84,6.36s.12,4.37-.43,6.5c-.48,1.87,2.41,2.67,2.89.8h0Z"/>
        <path class="cls-10" d="M304.99,229.09c-2.18-2.44-2.21-5.39-2.24-8.5-.02-1.75-.27-3.29-.8-4.96-.56-1.76-1.04-3.19-.61-5.02.67-2.91.45-5.77-1.05-8.38s-3.9-4.99-5.7-7.57c-1.1-1.57-3.7-.07-2.59,1.51,1.82,2.61,4.22,4.91,5.77,7.7.62,1.11.96,2.3.96,3.57,0,1.7-.75,3.31-.63,5.01.13,1.78.83,3.41,1.3,5.12.45,1.61.32,3.24.37,4.89.1,3.32.85,6.22,3.1,8.75,1.29,1.44,3.4-.68,2.12-2.12h0Z"/>
        <circle class="cls-2" cx="303.96" cy="238.67" r="8.16"/>
        <path class="cls-10" d="M449.01,231.68c.46-1.78.44-3.59.46-5.41,0-.91.02-1.82.2-2.71.21-1.03.67-1.99,1.03-2.98,1.19-3.3,1.93-6.83,1.89-10.34-.04-2.74-.56-5.45-1.68-7.96-.43-.97-.95-1.89-1.58-2.74-.29-.4-.6-.78-.92-1.15-.24-.27-.82-.65-.92-.99-.26-.85,1.16-2.37,1.62-2.94,1-1.23,2.08-2.4,2.94-3.73,1.05-1.63-1.55-3.13-2.59-1.51-1.46,2.27-3.8,4.06-4.72,6.67-.42,1.21-.31,2.51.5,3.53.59.73,1.29,1.33,1.82,2.11,3.27,4.84,2.94,11.14,1.32,16.5-.65,2.14-1.64,4.1-1.84,6.36s.12,4.37-.43,6.5c-.48,1.87,2.41,2.67,2.89.8h0Z"/>
        <path class="cls-10" d="M447.16,229.09c-2.18-2.44-2.21-5.39-2.24-8.5-.02-1.75-.27-3.29-.8-4.96-.56-1.76-1.04-3.19-.61-5.02.67-2.91.45-5.77-1.05-8.38s-3.9-4.99-5.7-7.57c-1.1-1.57-3.7-.07-2.59,1.51,1.82,2.61,4.22,4.91,5.77,7.7.62,1.11.96,2.3.96,3.57,0,1.7-.75,3.31-.63,5.01.13,1.78.83,3.41,1.3,5.12.45,1.61.32,3.24.37,4.89.1,3.32.85,6.22,3.1,8.75,1.29,1.44,3.4-.68,2.12-2.12h0Z"/>
        <circle class="cls-2" cx="446.12" cy="238.67" r="8.16"/>
        <path class="cls-10" d="M520.1,231.68c.46-1.78.44-3.59.46-5.41,0-.91.02-1.82.2-2.71.21-1.03.67-1.99,1.03-2.98,1.19-3.3,1.93-6.83,1.89-10.34-.04-2.74-.56-5.45-1.68-7.96-.43-.97-.95-1.89-1.58-2.74-.29-.4-.6-.78-.92-1.15-.24-.27-.82-.65-.92-.99-.26-.85,1.16-2.37,1.62-2.94,1-1.23,2.08-2.4,2.94-3.73,1.05-1.63-1.55-3.13-2.59-1.51-1.46,2.27-3.8,4.06-4.72,6.67-.42,1.21-.31,2.51.5,3.53.59.73,1.29,1.33,1.82,2.11,3.27,4.84,2.94,11.14,1.32,16.5-.65,2.14-1.64,4.1-1.84,6.36s.12,4.37-.43,6.5c-.48,1.87,2.41,2.67,2.89.8h0Z"/>
        <path class="cls-10" d="M518.24,229.09c-2.18-2.44-2.21-5.39-2.24-8.5-.02-1.75-.27-3.29-.8-4.96-.56-1.76-1.04-3.19-.61-5.02.67-2.91.45-5.77-1.05-8.38s-3.9-4.99-5.7-7.57c-1.1-1.57-3.7-.07-2.59,1.51,1.82,2.61,4.22,4.91,5.77,7.7.62,1.11.96,2.3.96,3.57,0,1.7-.75,3.31-.63,5.01.13,1.78.83,3.41,1.3,5.12.45,1.61.32,3.24.37,4.89.1,3.32.85,6.22,3.1,8.75,1.29,1.44,3.4-.68,2.12-2.12h0Z"/>
        <circle class="cls-2" cx="517.21" cy="238.67" r="8.16"/>
        <path class="cls-10" d="M22.51,231.68c.46-1.78.44-3.59.46-5.41,0-.91.02-1.82.2-2.71.21-1.03.67-1.99,1.03-2.98,1.19-3.3,1.93-6.83,1.89-10.34-.04-2.74-.56-5.45-1.68-7.96-.43-.97-.95-1.89-1.58-2.74-.29-.4-.6-.78-.92-1.15-.24-.27-.82-.65-.92-.99-.26-.85,1.16-2.37,1.62-2.94,1-1.23,2.08-2.4,2.94-3.73,1.05-1.63-1.55-3.13-2.59-1.51-1.46,2.27-3.8,4.06-4.72,6.67-.42,1.21-.31,2.51.5,3.53.59.73,1.29,1.33,1.82,2.11,3.27,4.84,2.94,11.14,1.32,16.5-.65,2.14-1.64,4.1-1.84,6.36s.12,4.37-.43,6.5c-.48,1.87,2.41,2.67,2.89.8h0Z"/>
        <path class="cls-10" d="M20.65,229.09c-2.18-2.44-2.21-5.39-2.24-8.5-.02-1.75-.27-3.29-.8-4.96-.56-1.76-1.04-3.19-.61-5.02.67-2.91.45-5.77-1.05-8.38s-3.9-4.99-5.7-7.57c-1.1-1.57-3.7-.07-2.59,1.51,1.82,2.61,4.22,4.91,5.77,7.7.62,1.11.96,2.3.96,3.57,0,1.7-.75,3.31-.63,5.01.13,1.78.83,3.41,1.3,5.12.45,1.61.32,3.24.37,4.89.1,3.32.85,6.22,3.1,8.75,1.29,1.44,3.4-.68,2.12-2.12h0Z"/>
        <circle class="cls-2" cx="19.62" cy="238.67" r="8.16"/>
        <path class="cls-10" d="M146.9,231.68c.46-1.78.44-3.59.46-5.41,0-.91.02-1.82.2-2.71.21-1.03.67-1.99,1.03-2.98,1.19-3.3,1.93-6.83,1.89-10.34-.04-2.74-.56-5.45-1.68-7.96-.43-.97-.95-1.89-1.58-2.74-.29-.4-.6-.78-.92-1.15-.24-.27-.82-.65-.92-.99-.26-.85,1.16-2.37,1.62-2.94,1-1.23,2.08-2.4,2.94-3.73,1.05-1.63-1.55-3.13-2.59-1.51-1.46,2.27-3.8,4.06-4.72,6.67-.42,1.21-.31,2.51.5,3.53.59.73,1.29,1.33,1.82,2.11,3.27,4.84,2.94,11.14,1.32,16.5-.65,2.14-1.64,4.1-1.84,6.36s.12,4.37-.43,6.5c-.48,1.87,2.41,2.67,2.89.8h0Z"/>
        <path class="cls-10" d="M145.05,229.09c-2.18-2.44-2.21-5.39-2.24-8.5-.02-1.75-.27-3.29-.8-4.96-.56-1.76-1.04-3.19-.61-5.02.67-2.91.45-5.77-1.05-8.38s-3.9-4.99-5.7-7.57c-1.1-1.57-3.7-.07-2.59,1.51,1.82,2.61,4.22,4.91,5.77,7.7.62,1.11.96,2.3.96,3.57,0,1.7-.75,3.31-.63,5.01.13,1.78.83,3.41,1.3,5.12.45,1.61.32,3.24.37,4.89.1,3.32.85,6.22,3.1,8.75,1.29,1.44,3.4-.68,2.12-2.12h0Z"/>
        <circle class="cls-2" cx="144.02" cy="238.67" r="8.16"/>
        <path class="cls-10" d="M128.41,231.68c.51-2,.45-4.02.52-6.06.07-2.19.82-4.03,1.44-6.1.94-3.15,1.55-6.51,1.32-9.81-.16-2.34-.74-4.56-1.7-6.7-.66-1.46-1.54-2.79-2.27-4.2-.3-.57-.35-.51-.42-1.11-.09-.79.33-1.58.72-2.24,1-1.68,2.38-3.09,3.44-4.73s-1.55-3.14-2.59-1.51c-1.71,2.67-4.9,5.28-4.53,8.77.19,1.71,1.31,3.22,2.12,4.69,2.48,4.47,2.72,9.27,1.52,14.2-.56,2.29-1.61,4.47-1.91,6.81s.05,4.85-.56,7.2c-.48,1.87,2.41,2.67,2.89.8h0Z"/>
        <path class="cls-10" d="M125.24,228.65c-2.62-2.88-4.85-6.4-6.36-9.99-.36-.85-.66-1.73-.88-2.63-.1-.43-.41-1.42-.13-1.82.18-.26,1.06-.45,1.33-.58.67-.3,1.29-.71,1.7-1.34.56-.87.57-1.85.62-2.85.06-1.31.12-2.62.17-3.93.07-2.08.12-4.16.08-6.23-.05-2.49-.12-5.19-1.01-7.56-.69-1.83-1.92-3.21-3.7-4.04s-3.26,1.77-1.51,2.59c.32.15.62.31.92.5.09.05.44.32.15.09.14.12.28.24.41.37.39.36.2.13.44.55.27.45.34.6.45.88.84,2.33.85,4.93.87,7.37.02,2.1-.04,4.21-.12,6.31-.03.65-.05,1.31-.08,1.96-.02.53.11,1.64-.1,2.11-.18.39-.4.47-.81.65-1.52.67-2.74,1.43-2.86,3.26-.11,1.7.51,3.5,1.14,5.05,1.67,4.14,4.17,8.12,7.17,11.42,1.3,1.43,3.42-.7,2.12-2.12h0Z"/>
        <circle class="cls-2" cx="125.53" cy="238.67" r="8.16"/>
        <path class="cls-10" d="M92.87,231.68c.51-2,.45-4.02.52-6.06.07-2.19.82-4.03,1.44-6.1.94-3.15,1.55-6.51,1.32-9.81-.16-2.34-.74-4.56-1.7-6.7-.66-1.46-1.54-2.79-2.27-4.2-.3-.57-.35-.51-.42-1.11-.09-.79.33-1.58.72-2.24,1-1.68,2.38-3.09,3.44-4.73s-1.55-3.14-2.59-1.51c-1.71,2.67-4.9,5.28-4.53,8.77.19,1.71,1.31,3.22,2.12,4.69,2.48,4.47,2.72,9.27,1.52,14.2-.56,2.29-1.61,4.47-1.91,6.81s.05,4.85-.56,7.2c-.48,1.87,2.41,2.67,2.89.8h0Z"/>
        <path class="cls-10" d="M89.69,228.65c-2.62-2.88-4.85-6.4-6.36-9.99-.36-.85-.66-1.73-.88-2.63-.1-.43-.41-1.42-.13-1.82.18-.26,1.06-.45,1.33-.58.67-.3,1.29-.71,1.7-1.34.56-.87.57-1.85.62-2.85.06-1.31.12-2.62.17-3.93.07-2.08.12-4.16.08-6.23-.05-2.49-.12-5.19-1.01-7.56-.69-1.83-1.92-3.21-3.7-4.04s-3.26,1.77-1.51,2.59c.32.15.62.31.92.5.09.05.44.32.15.09.14.12.28.24.41.37.39.36.2.13.44.55.27.45.34.6.45.88.84,2.33.85,4.93.87,7.37.02,2.1-.04,4.21-.12,6.31-.03.65-.05,1.31-.08,1.96-.02.53.11,1.64-.1,2.11-.18.39-.4.47-.81.65-1.52.67-2.74,1.43-2.86,3.26-.11,1.7.51,3.5,1.14,5.05,1.67,4.14,4.17,8.12,7.17,11.42,1.3,1.43,3.42-.7,2.12-2.12h0Z"/>
        <circle class="cls-2" cx="89.98" cy="238.67" r="8.16"/>
        <path class="cls-10" d="M39.56,231.68c.51-2,.45-4.02.52-6.06.07-2.19.82-4.03,1.44-6.1.94-3.15,1.55-6.51,1.32-9.81-.16-2.34-.74-4.56-1.7-6.7-.66-1.46-1.54-2.79-2.27-4.2-.3-.57-.35-.51-.42-1.11-.09-.79.33-1.58.72-2.24,1-1.68,2.38-3.09,3.44-4.73s-1.55-3.14-2.59-1.51c-1.71,2.67-4.9,5.28-4.53,8.77.19,1.71,1.31,3.22,2.12,4.69,2.48,4.47,2.72,9.27,1.52,14.2-.56,2.29-1.61,4.47-1.91,6.81s.05,4.85-.56,7.2c-.48,1.87,2.41,2.67,2.89.8h0Z"/>
        <path class="cls-10" d="M36.38,228.65c-2.62-2.88-4.85-6.4-6.36-9.99-.36-.85-.66-1.73-.88-2.63-.1-.43-.41-1.42-.13-1.82.18-.26,1.06-.45,1.33-.58.67-.3,1.29-.71,1.7-1.34.56-.87.57-1.85.62-2.85.06-1.31.12-2.62.17-3.93.07-2.08.12-4.16.08-6.23-.05-2.49-.12-5.19-1.01-7.56-.69-1.83-1.92-3.21-3.7-4.04s-3.26,1.77-1.51,2.59c.32.15.62.31.92.5.09.05.44.32.15.09.14.12.28.24.41.37.39.36.2.13.44.55.27.45.34.6.45.88.84,2.33.85,4.93.87,7.37.02,2.1-.04,4.21-.12,6.31-.03.65-.05,1.31-.08,1.96-.02.53.11,1.64-.1,2.11-.18.39-.4.47-.81.65-1.52.67-2.74,1.43-2.86,3.26-.11,1.7.51,3.5,1.14,5.05,1.67,4.14,4.17,8.12,7.17,11.42,1.3,1.43,3.42-.7,2.12-2.12h0Z"/>
        <circle class="cls-2" cx="36.67" cy="238.67" r="8.16"/>
        <path class="cls-10" d="M252.81,231.68c.51-2,.45-4.02.52-6.06.07-2.19.82-4.03,1.44-6.1.94-3.15,1.55-6.51,1.32-9.81-.16-2.34-.74-4.56-1.7-6.7-.66-1.46-1.54-2.79-2.27-4.2-.3-.57-.35-.51-.42-1.11-.09-.79.33-1.58.72-2.24,1-1.68,2.38-3.09,3.44-4.73s-1.55-3.14-2.59-1.51c-1.71,2.67-4.9,5.28-4.53,8.77.19,1.71,1.31,3.22,2.12,4.69,2.48,4.47,2.72,9.27,1.52,14.2-.56,2.29-1.61,4.47-1.91,6.81s.05,4.85-.56,7.2c-.48,1.87,2.41,2.67,2.89.8h0Z"/>
        <path class="cls-10" d="M249.63,228.65c-2.62-2.88-4.85-6.4-6.36-9.99-.36-.85-.66-1.73-.88-2.63-.1-.43-.41-1.42-.13-1.82.18-.26,1.06-.45,1.33-.58.67-.3,1.29-.71,1.7-1.34.56-.87.57-1.85.62-2.85.06-1.31.12-2.62.17-3.93.07-2.08.12-4.16.08-6.23-.05-2.49-.12-5.19-1.01-7.56-.69-1.83-1.92-3.21-3.7-4.04s-3.26,1.77-1.51,2.59c.32.15.62.31.92.5.09.05.44.32.15.09.14.12.28.24.41.37.39.36.2.13.44.55.27.45.34.6.45.88.84,2.33.85,4.93.87,7.37.02,2.1-.04,4.21-.12,6.31-.03.65-.05,1.31-.08,1.96-.02.53.11,1.64-.1,2.11-.18.39-.4.47-.81.65-1.52.67-2.74,1.43-2.86,3.26-.11,1.7.51,3.5,1.14,5.05,1.67,4.14,4.17,8.12,7.17,11.42,1.3,1.43,3.42-.7,2.12-2.12h0Z"/>
        <circle class="cls-2" cx="249.92" cy="238.67" r="8.16"/>
        <path class="cls-10" d="M270.58,231.68c.51-2,.45-4.02.52-6.06.07-2.19.82-4.03,1.44-6.1.94-3.15,1.55-6.51,1.32-9.81-.16-2.34-.74-4.56-1.7-6.7-.66-1.46-1.54-2.79-2.27-4.2-.3-.57-.35-.51-.42-1.11-.09-.79.33-1.58.72-2.24,1-1.68,2.38-3.09,3.44-4.73s-1.55-3.14-2.59-1.51c-1.71,2.67-4.9,5.28-4.53,8.77.19,1.71,1.31,3.22,2.12,4.69,2.48,4.47,2.72,9.27,1.52,14.2-.56,2.29-1.61,4.47-1.91,6.81s.05,4.85-.56,7.2c-.48,1.87,2.41,2.67,2.89.8h0Z"/>
        <path class="cls-10" d="M267.4,228.65c-2.62-2.88-4.85-6.4-6.36-9.99-.36-.85-.66-1.73-.88-2.63-.1-.43-.41-1.42-.13-1.82.18-.26,1.06-.45,1.33-.58.67-.3,1.29-.71,1.7-1.34.56-.87.57-1.85.62-2.85.06-1.31.12-2.62.17-3.93.07-2.08.12-4.16.08-6.23-.05-2.49-.12-5.19-1.01-7.56-.69-1.83-1.92-3.21-3.7-4.04s-3.26,1.77-1.51,2.59c.32.15.62.31.92.5.09.05.44.32.15.09.14.12.28.24.41.37.39.36.2.13.44.55.27.45.34.6.45.88.84,2.33.85,4.93.87,7.37.02,2.1-.04,4.21-.12,6.31-.03.65-.05,1.31-.08,1.96-.02.53.11,1.64-.1,2.11-.18.39-.4.47-.81.65-1.52.67-2.74,1.43-2.86,3.26-.11,1.7.51,3.5,1.14,5.05,1.67,4.14,4.17,8.12,7.17,11.42,1.3,1.43,3.42-.7,2.12-2.12h0Z"/>
        <circle class="cls-2" cx="267.69" cy="238.67" r="8.16"/>
        <path class="cls-10" d="M359.44,231.68c.51-2,.45-4.02.52-6.06.07-2.19.82-4.03,1.44-6.1.94-3.15,1.55-6.51,1.32-9.81-.16-2.34-.74-4.56-1.7-6.7-.66-1.46-1.54-2.79-2.27-4.2-.3-.57-.35-.51-.42-1.11-.09-.79.33-1.58.72-2.24,1-1.68,2.38-3.09,3.44-4.73s-1.55-3.14-2.59-1.51c-1.71,2.67-4.9,5.28-4.53,8.77.19,1.71,1.31,3.22,2.12,4.69,2.48,4.47,2.72,9.27,1.52,14.2-.56,2.29-1.61,4.47-1.91,6.81s.05,4.85-.56,7.2c-.48,1.87,2.41,2.67,2.89.8h0Z"/>
        <path class="cls-10" d="M356.26,228.65c-2.62-2.88-4.85-6.4-6.36-9.99-.36-.85-.66-1.73-.88-2.63-.1-.43-.41-1.42-.13-1.82.18-.26,1.06-.45,1.33-.58.67-.3,1.29-.71,1.7-1.34.56-.87.57-1.85.62-2.85.06-1.31.12-2.62.17-3.93.07-2.08.12-4.16.08-6.23-.05-2.49-.12-5.19-1.01-7.56-.69-1.83-1.92-3.21-3.7-4.04s-3.26,1.77-1.51,2.59c.32.15.62.31.92.5.09.05.44.32.15.09.14.12.28.24.41.37.39.36.2.13.44.55.27.45.34.6.45.88.84,2.33.85,4.93.87,7.37.02,2.1-.04,4.21-.12,6.31-.03.65-.05,1.31-.08,1.96-.02.53.11,1.64-.1,2.11-.18.39-.4.47-.81.65-1.52.67-2.74,1.43-2.86,3.26-.11,1.7.51,3.5,1.14,5.05,1.67,4.14,4.17,8.12,7.17,11.42,1.3,1.43,3.42-.7,2.12-2.12h0Z"/>
        <circle class="cls-2" cx="356.55" cy="238.67" r="8.16"/>
        <path class="cls-10" d="M394.98,231.68c.51-2,.45-4.02.52-6.06.07-2.19.82-4.03,1.44-6.1.94-3.15,1.55-6.51,1.32-9.81-.16-2.34-.74-4.56-1.7-6.7-.66-1.46-1.54-2.79-2.27-4.2-.3-.57-.35-.51-.42-1.11-.09-.79.33-1.58.72-2.24,1-1.68,2.38-3.09,3.44-4.73s-1.55-3.14-2.59-1.51c-1.71,2.67-4.9,5.28-4.53,8.77.19,1.71,1.31,3.22,2.12,4.69,2.48,4.47,2.72,9.27,1.52,14.2-.56,2.29-1.61,4.47-1.91,6.81s.05,4.85-.56,7.2c-.48,1.87,2.41,2.67,2.89.8h0Z"/>
        <path class="cls-10" d="M391.8,228.65c-2.62-2.88-4.85-6.4-6.36-9.99-.36-.85-.66-1.73-.88-2.63-.1-.43-.41-1.42-.13-1.82.18-.26,1.06-.45,1.33-.58.67-.3,1.29-.71,1.7-1.34.56-.87.57-1.85.62-2.85.06-1.31.12-2.62.17-3.93.07-2.08.12-4.16.08-6.23-.05-2.49-.12-5.19-1.01-7.56-.69-1.83-1.92-3.21-3.7-4.04s-3.26,1.77-1.51,2.59c.32.15.62.31.92.5.09.05.44.32.15.09.14.12.28.24.41.37.39.36.2.13.44.55.27.45.34.6.45.88.84,2.33.85,4.93.87,7.37.02,2.1-.04,4.21-.12,6.31-.03.65-.05,1.31-.08,1.96-.02.53.11,1.64-.1,2.11-.18.39-.4.47-.81.65-1.52.67-2.74,1.43-2.86,3.26-.11,1.7.51,3.5,1.14,5.05,1.67,4.14,4.17,8.12,7.17,11.42,1.3,1.43,3.42-.7,2.12-2.12h0Z"/>
        <circle class="cls-2" cx="392.09" cy="238.67" r="8.16"/>
        <path class="cls-10" d="M430.52,231.68c.51-2,.45-4.02.52-6.06.07-2.19.82-4.03,1.44-6.1.94-3.15,1.55-6.51,1.32-9.81-.16-2.34-.74-4.56-1.7-6.7-.66-1.46-1.54-2.79-2.27-4.2-.3-.57-.35-.51-.42-1.11-.09-.79.33-1.58.72-2.24,1-1.68,2.38-3.09,3.44-4.73s-1.55-3.14-2.59-1.51c-1.71,2.67-4.9,5.28-4.53,8.77.19,1.71,1.31,3.22,2.12,4.69,2.48,4.47,2.72,9.27,1.52,14.2-.56,2.29-1.61,4.47-1.91,6.81s.05,4.85-.56,7.2c-.48,1.87,2.41,2.67,2.89.8h0Z"/>
        <path class="cls-10" d="M427.34,228.65c-2.62-2.88-4.85-6.4-6.36-9.99-.36-.85-.66-1.73-.88-2.63-.1-.43-.41-1.42-.13-1.82.18-.26,1.06-.45,1.33-.58.67-.3,1.29-.71,1.7-1.34.56-.87.57-1.85.62-2.85.06-1.31.12-2.62.17-3.93.07-2.08.12-4.16.08-6.23-.05-2.49-.12-5.19-1.01-7.56-.69-1.83-1.92-3.21-3.7-4.04s-3.26,1.77-1.51,2.59c.32.15.62.31.92.5.09.05.44.32.15.09.14.12.28.24.41.37.39.36.2.13.44.55.27.45.34.6.45.88.84,2.33.85,4.93.87,7.37.02,2.1-.04,4.21-.12,6.31-.03.65-.05,1.31-.08,1.96-.02.53.11,1.64-.1,2.11-.18.39-.4.47-.81.65-1.52.67-2.74,1.43-2.86,3.26-.11,1.7.51,3.5,1.14,5.05,1.67,4.14,4.17,8.12,7.17,11.42,1.3,1.43,3.42-.7,2.12-2.12h0Z"/>
        <circle class="cls-2" cx="427.63" cy="238.67" r="8.16"/>
        <path class="cls-10" d="M466.06,231.68c.51-2,.45-4.02.52-6.06.07-2.19.82-4.03,1.44-6.1.94-3.15,1.55-6.51,1.32-9.81-.16-2.34-.74-4.56-1.7-6.7-.66-1.46-1.54-2.79-2.27-4.2-.3-.57-.35-.51-.42-1.11-.09-.79.33-1.58.72-2.24,1-1.68,2.38-3.09,3.44-4.73s-1.55-3.14-2.59-1.51c-1.71,2.67-4.9,5.28-4.53,8.77.19,1.71,1.31,3.22,2.12,4.69,2.48,4.47,2.72,9.27,1.52,14.2-.56,2.29-1.61,4.47-1.91,6.81s.05,4.85-.56,7.2c-.48,1.87,2.41,2.67,2.89.8h0Z"/>
        <path class="cls-10" d="M462.88,228.65c-2.62-2.88-4.85-6.4-6.36-9.99-.36-.85-.66-1.73-.88-2.63-.1-.43-.41-1.42-.13-1.82.18-.26,1.06-.45,1.33-.58.67-.3,1.29-.71,1.7-1.34.56-.87.57-1.85.62-2.85.06-1.31.12-2.62.17-3.93.07-2.08.12-4.16.08-6.23-.05-2.49-.12-5.19-1.01-7.56-.69-1.83-1.92-3.21-3.7-4.04s-3.26,1.77-1.51,2.59c.32.15.62.31.92.5.09.05.44.32.15.09.14.12.28.24.41.37.39.36.2.13.44.55.27.45.34.6.45.88.84,2.33.85,4.93.87,7.37.02,2.1-.04,4.21-.12,6.31-.03.65-.05,1.31-.08,1.96-.02.53.11,1.64-.1,2.11-.18.39-.4.47-.81.65-1.52.67-2.74,1.43-2.86,3.26-.11,1.7.51,3.5,1.14,5.05,1.67,4.14,4.17,8.12,7.17,11.42,1.3,1.43,3.42-.7,2.12-2.12h0Z"/>
        <circle class="cls-2" cx="463.17" cy="238.67" r="8.16"/>
        <path class="cls-10" d="M537.15,231.68c.51-2,.45-4.02.52-6.06.07-2.19.82-4.03,1.44-6.1.94-3.15,1.55-6.51,1.32-9.81-.16-2.34-.74-4.56-1.7-6.7-.66-1.46-1.54-2.79-2.27-4.2-.3-.57-.35-.51-.42-1.11-.09-.79.33-1.58.72-2.24,1-1.68,2.38-3.09,3.44-4.73s-1.55-3.14-2.59-1.51c-1.71,2.67-4.9,5.28-4.53,8.77.19,1.71,1.31,3.22,2.12,4.69,2.48,4.47,2.72,9.27,1.52,14.2-.56,2.29-1.61,4.47-1.91,6.81s.05,4.85-.56,7.2c-.48,1.87,2.41,2.67,2.89.8h0Z"/>
        <path class="cls-10" d="M533.97,228.65c-2.62-2.88-4.85-6.4-6.36-9.99-.36-.85-.66-1.73-.88-2.63-.1-.43-.41-1.42-.13-1.82.18-.26,1.06-.45,1.33-.58.67-.3,1.29-.71,1.7-1.34.56-.87.57-1.85.62-2.85.06-1.31.12-2.62.17-3.93.07-2.08.12-4.16.08-6.23-.05-2.49-.12-5.19-1.01-7.56-.69-1.83-1.92-3.21-3.7-4.04s-3.26,1.77-1.51,2.59c.32.15.62.31.92.5.09.05.44.32.15.09.14.12.28.24.41.37.39.36.2.13.44.55.27.45.34.6.45.88.84,2.33.85,4.93.87,7.37.02,2.1-.04,4.21-.12,6.31-.03.65-.05,1.31-.08,1.96-.02.53.11,1.64-.1,2.11-.18.39-.4.47-.81.65-1.52.67-2.74,1.43-2.86,3.26-.11,1.7.51,3.5,1.14,5.05,1.67,4.14,4.17,8.12,7.17,11.42,1.3,1.43,3.42-.7,2.12-2.12h0Z"/>
        <circle class="cls-2" cx="534.26" cy="238.67" r="8.16"/>
        <path class="cls-10" d="M483.83,231.68c.51-2,.45-4.02.52-6.06.07-2.19.82-4.03,1.44-6.1.94-3.15,1.55-6.51,1.32-9.81-.16-2.34-.74-4.56-1.7-6.7-.66-1.46-1.54-2.79-2.27-4.2-.3-.57-.35-.51-.42-1.11-.09-.79.33-1.58.72-2.24,1-1.68,2.38-3.09,3.44-4.73s-1.55-3.14-2.59-1.51c-1.71,2.67-4.9,5.28-4.53,8.77.19,1.71,1.31,3.22,2.12,4.69,2.48,4.47,2.72,9.27,1.52,14.2-.56,2.29-1.61,4.47-1.91,6.81s.05,4.85-.56,7.2c-.48,1.87,2.41,2.67,2.89.8h0Z"/>
        <path class="cls-10" d="M480.66,228.65c-2.62-2.88-4.85-6.4-6.36-9.99-.36-.85-.66-1.73-.88-2.63-.1-.43-.41-1.42-.13-1.82.18-.26,1.06-.45,1.33-.58.67-.3,1.29-.71,1.7-1.34.56-.87.57-1.85.62-2.85.06-1.31.12-2.62.17-3.93.07-2.08.12-4.16.08-6.23-.05-2.49-.12-5.19-1.01-7.56-.69-1.83-1.92-3.21-3.7-4.04s-3.26,1.77-1.51,2.59c.32.15.62.31.92.5.09.05.44.32.15.09.14.12.28.24.41.37.39.36.2.13.44.55.27.45.34.6.45.88.84,2.33.85,4.93.87,7.37.02,2.1-.04,4.21-.12,6.31-.03.65-.05,1.31-.08,1.96-.02.53.11,1.64-.1,2.11-.18.39-.4.47-.81.65-1.52.67-2.74,1.43-2.86,3.26-.11,1.7.51,3.5,1.14,5.05,1.67,4.14,4.17,8.12,7.17,11.42,1.3,1.43,3.42-.7,2.12-2.12h0Z"/>
        <circle class="cls-2" cx="480.95" cy="238.67" r="8.16"/>
        <path class="cls-10" d="M217.27,231.68c.51-2,.45-4.02.52-6.06.07-2.19.82-4.03,1.44-6.1.94-3.15,1.55-6.51,1.32-9.81-.16-2.34-.74-4.56-1.7-6.7-.66-1.46-1.54-2.79-2.27-4.2-.3-.57-.35-.51-.42-1.11-.09-.79.33-1.58.72-2.24,1-1.68,2.38-3.09,3.44-4.73s-1.55-3.14-2.59-1.51c-1.71,2.67-4.9,5.28-4.53,8.77.19,1.71,1.31,3.22,2.12,4.69,2.48,4.47,2.72,9.27,1.52,14.2-.56,2.29-1.61,4.47-1.91,6.81s.05,4.85-.56,7.2c-.48,1.87,2.41,2.67,2.89.8h0Z"/>
        <path class="cls-10" d="M214.09,228.65c-2.62-2.88-4.85-6.4-6.36-9.99-.36-.85-.66-1.73-.88-2.63-.1-.43-.41-1.42-.13-1.82.18-.26,1.06-.45,1.33-.58.67-.3,1.29-.71,1.7-1.34.56-.87.57-1.85.62-2.85.06-1.31.12-2.62.17-3.93.07-2.08.12-4.16.08-6.23-.05-2.49-.12-5.19-1.01-7.56-.69-1.83-1.92-3.21-3.7-4.04s-3.26,1.77-1.51,2.59c.32.15.62.31.92.5.09.05.44.32.15.09.14.12.28.24.41.37.39.36.2.13.44.55.27.45.34.6.45.88.84,2.33.85,4.93.87,7.37.02,2.1-.04,4.21-.12,6.31-.03.65-.05,1.31-.08,1.96-.02.53.11,1.64-.1,2.11-.18.39-.4.47-.81.65-1.52.67-2.74,1.43-2.86,3.26-.11,1.7.51,3.5,1.14,5.05,1.67,4.14,4.17,8.12,7.17,11.42,1.3,1.43,3.42-.7,2.12-2.12h0Z"/>
        <circle class="cls-2" cx="214.38" cy="238.67" r="8.16"/>
      </g>
      <g>
        <path class="cls-1" d="M314.92,250.89c-4.07,2.57-11.78-1.56-16.75-2.1-8.43-1.6-17.09-3.15-25.62-1.58-6.67.78-21.13,6.71-25.61.19-2.33-4.42.01-10.1.92-14.95,1.04-4.56,1.49-9.19,1.58-13.86.07-13.82-.06-27.75,0-41.54,0-8.5-.08-16.69-1.01-25.22-.35-7.03-4-23.87-.62-29.48,2.64-2.97,8.48,1.12,12.96,1.74,14.36,3.39,29.99,2.35,43.65-2.46,8.83-2.26,5.28,9.64,4.55,14.6-1.21,6.16-2.25,12.11-2.54,18.22-.55,16.24-.13,32.51-.24,48.78.12,6.93-.09,14.24,3.03,20.6,2.47,5.42,7.33,9.36,9.09,14.94,1.1,4.33.31,9.5-3.38,12.11h-.02Z"/>
        <path class="cls-6" d="M259.69,215.42c-.71-9.26-5.46-16.94-6.18-26.22-.4-4.65-.41-9.58.17-13.99,1.71-14.8,7.07-46.73,2.63-58.83-1.79-3.73-10.96-2.74-15.1-3.31-6.7-.35-13.82-1.56-19.32,3.01-3.39,2.57-6.05,6.17-7.03,10.32-3.07,12.66,5.47,26.8,7.23,39.21.91,13.83-5.53,81.62,13.39,99.26,5.07,2.56,11.23-1.79,15.06-5.33,5.29-4.86,7.89-11.32,8.56-18.59.86-9.34,1.3-16.99.58-25.52v-.04Z"/>
        <path class="cls-6" d="M299.06,215.57c.71-9.26,5.46-16.94,6.18-26.22.4-4.65.41-9.58-.17-13.99-1.71-14.8-7.07-46.73-2.63-58.83,1.79-3.73,10.96-2.74,15.1-3.31,6.7-.35,13.82-1.56,19.32,3.01,3.39,2.57,6.05,6.17,7.03,10.32,3.07,12.66-5.47,26.8-7.23,39.21-.91,13.83,5.53,81.62-13.39,99.26-5.07,2.56-11.23-1.79-15.06-5.33-5.29-4.86-7.89-11.32-8.56-18.59-.86-9.34-1.3-16.99-.58-25.52v-.04Z"/>
      </g>
      <g>
        <circle class="cls-7" cx="414.52" cy="52.51" r="21.95"/>
        <g>
          <line class="cls-3" x1="414.52" y1="37.27" x2="414.52" y2="67.75"/>
          <line class="cls-3" x1="399.8" y1="52.51" x2="429.24" y2="52.51"/>
        </g>
      </g>
      <g>
        <circle class="cls-4" cx="66.93" cy="67.75" r="21.95"/>
        <g>
          <line class="cls-3" x1="66.93" y1="52.51" x2="66.93" y2="82.99"/>
          <line class="cls-3" x1="52.21" y1="67.75" x2="81.65" y2="67.75"/>
        </g>
      </g>
      <g>
        <circle class="cls-9" cx="463.01" cy="336.87" r="21.95"/>
        <g>
          <line class="cls-3" x1="463.01" y1="321.63" x2="463.01" y2="352.11"/>
          <line class="cls-3" x1="448.29" y1="336.87" x2="477.74" y2="336.87"/>
        </g>
      </g>
      <g>
        <circle class="cls-8" cx="214.66" cy="52.51" r="15.5"/>
        <g>
          <line class="cls-3" x1="214.66" y1="41.92" x2="214.66" y2="63.1"/>
          <line class="cls-3" x1="204.58" y1="52.51" x2="224.99" y2="52.51"/>
        </g>
      </g>
      <g>
        <circle class="cls-5" cx="92.42" cy="321.21" r="15.5"/>
        <g>
          <line class="cls-3" x1="92.42" y1="310.62" x2="92.42" y2="331.79"/>
          <line class="cls-3" x1="82.34" y1="321.21" x2="102.75" y2="321.21"/>
        </g>
      </g>
    </g>
  </g>
</svg>