<?xml version="1.0" encoding="UTF-8"?>
<svg id="b" data-name="Layer 2" xmlns="http://www.w3.org/2000/svg" width="303.22" height="239.79" xmlns:xlink="http://www.w3.org/1999/xlink" viewBox="0 0 303.22 239.79">
  <defs>
    <style>
      .e {
        fill: url(#d);
      }

      .f {
        fill: #010101;
      }
    </style>
    <radialGradient id="d" cx="151.4" cy="117.16" fx="151.4" fy="117.16" r="221.1" gradientTransform="translate(0 -9.9) scale(1 1.08)" gradientUnits="userSpaceOnUse">
      <stop offset="0" stop-color="#5e499e"/>
      <stop offset=".13" stop-color="#624da0"/>
      <stop offset=".28" stop-color="#6d5ba7"/>
      <stop offset=".44" stop-color="#8171b3"/>
      <stop offset=".6" stop-color="#9d90c4"/>
      <stop offset=".77" stop-color="#c1b8d9"/>
      <stop offset=".93" stop-color="#ebe9f3"/>
      <stop offset="1" stop-color="#fff"/>
    </radialGradient>
  </defs>
  <g id="c" data-name="Layer 1">
    <g>
      <path class="e" d="M211.19,8.04l85.22,101.88c3.02,3.6,3.31,8.76.73,12.69l-66.74,101.66c-1.96,2.98-5.27,4.78-8.83,4.81l-138.68,1.02c-3.56.03-6.9-1.73-8.9-4.68L5.75,124.75c-2.63-3.89-2.41-9.04.54-12.69L89.84,8.94c2.01-2.48,5.02-3.92,8.2-3.95l104.9-.77c3.18-.02,6.21,1.38,8.25,3.82Z"/>
      <path class="f" d="M214.45,5.31c27.39,32.72,53.91,66.17,82.01,98.3l2.1,2.42c5.32,5.38,6.24,13.38,1.96,19.73-12.2,19.91-23.57,40.82-35.22,61.1-7.46,12.63-15.24,26.11-23.3,38.3-.54.89-2.09,3.15-2.63,4.02-2.62,4.2-6.72,7.47-11.44,8.95-2.87,1.05-6.38.95-9.39.88-24.63-.81-52.03-.6-76.81.06-15.06.14-36.35,1.13-51.2.55-1.24-.04-7.2-.17-8.4-.22-6.34-.31-12.42-3.87-15.69-9.31-14.61-23.81-28.35-48.57-43.49-72.01-6.6-10.26-13.51-20.56-20.24-30.74-2.06-2.95-3.04-6.67-2.57-10.24.33-2.71,1.46-5.3,3.18-7.42,0,0,.26-.31.26-.31l16.24-19.8c20.6-25.16,44.02-54.18,64.39-79.63,1.37-1.56,2.97-4.03,4.68-5.38,2.71-2.31,6.28-3.48,9.83-3.4,0,0,1.6-.02,1.6-.02,27.89-.23,71.55-.9,99.21-1.08,0,0,3.2-.03,3.2-.03h.48c4.3.01,8.52,2.01,11.27,5.31h0ZM207.93,10.77c-1.18-1.42-2.99-2.31-4.85-2.32,0,0-.12,0-.12,0h-.2s-3.2.02-3.2.02l-12.8.06c-21.57.02-64.62.33-86.41.32,0,0-1.6,0-1.6,0h-.76c-1.54.02-3.06.57-4.25,1.55-.81.57-2.85,3.34-3.69,4.28C63.8,46.71,35.29,81.8,9.5,114.17c-.9,1.08-1.52,2.41-1.65,3.81-.19,1.76.38,3.49,1.42,4.88,0,0,.91,1.31.91,1.31,6.68,9.58,13.35,19.39,20.15,28.87,16,22.53,33.76,44.26,50.3,66.43l.48.64.23.31c.22.17.48.3.74.37.25.05.48.03.72-.02h.36s.8-.05.8-.05c26.04-1.2,57.02-.31,83.21-.35,17.08.14,34.14-.49,51.2-1.18,0,0,3.13-.11,3.13-.11.19-.09.34-.24.4-.41,6.81-10.53,14.01-20.8,21.38-30.95,16.17-22.38,33.82-44.38,49.63-66.96,1.95-2.27,2.26-5.79.29-8.17-27.58-34.64-56.87-67.87-85.27-101.83h0Z"/>
    </g>
  </g>
</svg>