<?xml version="1.0" encoding="UTF-8"?>
<svg id="Layer_2" xmlns="http://www.w3.org/2000/svg" width="310.31" height="239.45" xmlns:xlink="http://www.w3.org/1999/xlink" viewBox="0 0 310.31 239.45">
  <defs>
    <style>
      .cls-1 {
        fill: url(#radial-gradient);
      }

      .cls-2 {
        fill: #010101;
      }
    </style>
    <radialGradient id="radial-gradient" cx="155.23" cy="116.83" fx="155.23" fy="116.83" r="223.59" gradientTransform="translate(0 -9.87) scale(1 1.08)" gradientUnits="userSpaceOnUse">
      <stop offset="0" stop-color="#5e499e"/>
      <stop offset=".13" stop-color="#624da0"/>
      <stop offset=".28" stop-color="#6d5ba7"/>
      <stop offset=".44" stop-color="#8171b3"/>
      <stop offset=".6" stop-color="#9d90c4"/>
      <stop offset=".77" stop-color="#c1b8d9"/>
      <stop offset=".93" stop-color="#ebe9f3"/>
      <stop offset="1" stop-color="#fff"/>
    </radialGradient>
  </defs>
  <g id="Layer_1-2" data-name="Layer_1">
    <g>
      <polygon class="cls-1" points="211.79 3.86 305.31 115.66 231.1 228.7 81.01 229.81 5.14 117.87 96.83 4.7 211.79 3.86"/>
      <path class="cls-2" d="M213.58,0c19.14,23.88,39.13,47.79,58.87,71.17,12.17,14.41,25.59,29.9,37.86,44.12-6.59,10.37-13.12,20.78-19.56,31.25-18.38,29.99-37.17,61.24-53.76,92.26-51.08-1.14-104.69-.12-155.91.58,0,0-5.65.07-5.65.07-11.6-21.26-24.19-41.94-36.98-62.47-12.5-20-25.37-39.75-38.45-59.37,0,0,1.93-2.33,1.93-2.33,0,0,23.21-28.06,23.21-28.06C47.8,59.83,72.93,29.14,95.31,1.54c38.05-.23,80.19-.67,118.26-1.54h0ZM210.01,7.71c-25.85-.3-58.8-.15-84.76-.05-9.46,0-18.93.15-28.39.22,0,0,2.44-1.18,2.44-1.18-7.63,9.44-15.29,18.86-22.86,28.34C55.22,61.49,29.39,93.87,8.35,120.47c0,0,.21-4.92.21-4.92,6.41,9.27,12.84,18.52,19.37,27.71,19.62,27.59,39.62,54.9,61,81.17,0,0-7.99-4.2-7.99-4.2,49.27-.15,100.99.26,150.08-1.54,0,0-8.29,4.51-8.29,4.51,17.05-21.64,34.32-45.58,50.29-68.08,9.8-13.78,19.41-27.69,28.92-41.68,0,0,.28,4.79.28,4.79-7.55-9.33-15.09-18.7-22.75-27.98-22.57-27.54-46.1-55.81-69.47-82.55h0Z"/>
    </g>
  </g>
</svg>