<?xml version="1.0" encoding="UTF-8"?>
<svg id="b" data-name="Layer 2" xmlns="http://www.w3.org/2000/svg" width="310.14" height="239.32" xmlns:xlink="http://www.w3.org/1999/xlink" viewBox="0 0 310.14 239.32">
  <defs>
    <style>
      .e {
        fill: url(#d);
      }

      .f {
        fill: #010101;
      }
    </style>
    <radialGradient id="d" cx="155.14" cy="116.77" fx="155.14" fy="116.77" r="223.46" gradientTransform="translate(0 -9.87) scale(1 1.08)" gradientUnits="userSpaceOnUse">
      <stop offset="0" stop-color="#5e499e"/>
      <stop offset=".21" stop-color="#604b9f"/>
      <stop offset=".36" stop-color="#6855a4"/>
      <stop offset=".49" stop-color="#7765ad"/>
      <stop offset=".61" stop-color="#8a7bb9"/>
      <stop offset=".73" stop-color="#a498c8"/>
      <stop offset=".84" stop-color="#c4bcdb"/>
      <stop offset=".95" stop-color="#e8e6f1"/>
      <stop offset="1" stop-color="#fff"/>
    </radialGradient>
  </defs>
  <g id="c" data-name="Layer 1">
    <g>
      <polygon class="e" points="211.67 3.86 305.14 115.6 230.97 228.57 80.97 229.68 5.14 117.81 96.78 4.7 211.67 3.86"/>
      <path class="f" d="M213.46,0c19.12,23.86,39.11,47.76,58.84,71.13,12.16,14.4,25.57,29.88,37.84,44.1-6.58,10.36-13.12,20.77-19.55,31.23-18.37,29.98-37.15,61.21-53.73,92.21-51.05-1.14-104.63-.12-155.82.58,0,0-5.65.07-5.65.07-11.59-21.25-24.18-41.92-36.96-62.44-12.49-19.99-25.36-39.73-38.43-59.34,0,0,1.93-2.33,1.93-2.33l23.2-28.04C47.77,59.8,72.89,29.12,95.26,1.54c38.03-.23,80.14-.67,118.19-1.54h0ZM209.89,7.71c-25.83-.3-58.76-.15-84.71-.05-9.45,0-18.92.15-28.38.22l2.44-1.18c-7.62,9.44-15.28,18.85-22.85,28.33C55.19,61.46,29.37,93.82,8.35,120.41c0,0,.21-4.92.21-4.92,6.4,9.26,12.83,18.51,19.36,27.69,19.61,27.57,39.6,54.86,60.97,81.13,0,0-7.99-4.2-7.99-4.2,49.24-.15,100.93.26,150-1.54,0,0-8.29,4.51-8.29,4.51,17.04-21.62,34.3-45.56,50.27-68.04,9.8-13.77,19.4-27.68,28.9-41.65l.28,4.79c-7.55-9.33-15.09-18.69-22.74-27.96-22.56-27.52-46.07-55.78-69.43-82.5h0Z"/>
    </g>
  </g>
</svg>