<?xml version="1.0" encoding="UTF-8"?>
<svg id="b" data-name="Layer 2" xmlns="http://www.w3.org/2000/svg" width="577.34" height="672.98" viewBox="0 0 577.34 672.98">
  <defs>
    <style>
      .d {
        fill: #864c9e;
      }

      .d, .e {
        stroke: #231f20;
        stroke-miterlimit: 10;
        stroke-width: 10px;
      }

      .e {
        fill: #c69;
      }
    </style>
  </defs>
  <g id="c" data-name="Layer 1">
    <g>
      <path class="d" d="M472,607.68c-74.03,23.07-188.69,25.94-276.52,17.54-72.19-7.18-131.36-22.9-158.12-56.66-25.23-31.96-24.87-71.92-26.27-107.7-.79-92.36-.14-199.55-.27-289.91C13.03,124.71,3.77,55.11,62.26,18.88c70.51-43.88,136.81,32.68,224.2,6.14,74.74-22.7,216.85-16.75,240.69,5.83,27.7,26.51,31.21,56.16,34.11,88.69,2.98,61.18.96,128.21,1.52,192.96-.21,54.31.43,103.37-.4,152-3.63,56.1,1.12,113.35-90.15,143.1l-.24.08Z"/>
      <path class="e" d="M569.54,503.74c.19-106.29-5.36-269.12-7.93-375.36-1.07-33.53-7.81-71.32-31.48-94.19-7.36-9.25-24.85,3.27-46.97,26.35,15.67,10.83,25.95,28.9,25.95,49.39,0,33.14-26.86,60-60,60-16.54,0-31.52-6.7-42.38-17.53-7.45,9.5-14.81,18.93-21.97,28.02l68.46,81.85-74.17,112.98-150,1.1-75.83-111.87,54.12-66.79c-8.17-11.32-15.97-23.56-23.48-36.17-8.97,5.34-19.44,8.41-30.63,8.41-33.14,0-60-26.86-60-60,0-22.6,12.5-42.28,30.96-52.51C92.11,8.56,61.2-9.84,21.86,68.78c-13.65,38.12-9.85,79.17-11.03,119.08,2.85,107.82-13.67,266.74-.96,374.66,17.45,142.48,391.72,108.48,483.08,80.63l22.98-6.72c75.32-24.05,53.38-53.32,53.62-132.7Z"/>
    </g>
  </g>
</svg>