<?xml version="1.0" encoding="UTF-8"?>
<svg id="b" data-name="Layer 2" xmlns="http://www.w3.org/2000/svg" width="651.52" height="900" viewBox="0 0 651.52 900">
  <defs>
    <style>
      .d {
        fill: #00967a;
        stroke: #231f20;
      }

      .d, .e {
        stroke-miterlimit: 10;
        stroke-width: 10px;
      }

      .f {
        fill: none;
      }

      .e {
        fill: #7ccbb9;
        stroke: #010101;
      }
    </style>
  </defs>
  <g id="c" data-name="Layer 1">
    <g>
      <g>
        <path class="d" d="M430.48,182.93c-47.53-33.16-130.88-42.22-192.93-4.75-30.81,18.61-165.49-30.44-143.09,34.71,13.5,30.32,36.33,116.44,38.1,152.11,16.34,141.38,91.57,245.92,56.23,384.68,17.38,98.81,149.23-11.28,202.45,51.37,24.6,28.96,71.25-2.36,62.13-70.13-30.44-132.82,105.61-370.04,77.12-503.41-13.31-85.71-2.27-39.28-100.01-44.58Z"/>
        <path class="e" d="M643.92,203.72c-11.13-56.16-144.63-91.28-190.4-69.3-28.76,13.81-22.79,49.37-20.5,79.11,1.16,15.05,1.47,30.01,1.06,44.85,1.75-.11,3.51-.18,5.28-.18,46.3,0,83.83,37.53,83.83,83.83s-37.53,83.83-83.83,83.83c-12.59,0-24.52-2.79-35.24-7.77-22.11,66.12-52.49,123.76-77.4,166.03-24.86-42.2-55.18-99.71-77.28-165.68-10.51,4.75-22.16,7.41-34.44,7.41-46.3,0-83.83-37.53-83.83-83.83s37.53-83.83,83.83-83.83c1.47,0,2.92.04,4.37.11-.4-14.82-.09-29.76,1.07-44.79,2.29-29.75,8.26-65.3-20.5-79.11-45.77-21.98-182.96,12.54-190.4,69.3-4.09,31.19-.52,50.44,5.76,61.39,19.84,34.58,149.18,260.04,146.74,448.73-.5,38.47-6.44,72.85,24.21,89.31,23.92,12.84,64.45,11.73,104.13,1.76-1.52-1.55-3.21-2.96-5.07-4.18l-35.85-23.58c-5.14-3.38-2.23-11.38,3.88-10.66l42.61,4.98c11.56,1.35,22.89-3.93,29.29-13.66l23.58-35.85c3.38-5.14,11.38-2.22,10.66,3.88l-4.98,42.61c-.77,6.61.63,13.15,3.79,18.73l14.24,13.43,13.79,9.07c31.65,5.08,61.64,3.78,80.89-6.55,30.65-16.46,24.71-50.84,24.21-89.31-2.44-188.69,126.9-414.15,146.74-448.73,6.28-10.95,11.79-30.97,5.76-61.39Z"/>
      </g>
      <rect class="f" width="650" height="900"/>
    </g>
  </g>
</svg>