<?xml version="1.0" encoding="UTF-8"?>
<svg id="Layer_2" data-name="Layer 2" xmlns="http://www.w3.org/2000/svg" viewBox="0 0 64.37 64.42" width="64.37" height="64.42">
  <defs>
    <style>
      .cls-1 {
        fill: #9c9;
      }

      .cls-1, .cls-2 {
        stroke: #000;
        stroke-miterlimit: 10;
      }

      .cls-2 {
        fill: #cfc;
      }
    </style>
  </defs>
  <g id="Layer_2-2" data-name="Layer 2">
    <path class="cls-1" d="M58.22,1.95c-.96-.67-8.07,1.14-8.34.03-1.85.4-15.04.55-17.65.58-2.47.03-19.23-.08-21.01-.4-.35.66-5.56.65-6.2,1.08l15.13,57.86c1.27.24,2.87.07,5.22-.54,6.62-.66,3.71,0,11.7.1,6.81.08-1.47-3.13,4.56-5.38.14-.49,1.13-1.05,1.4-1.47.44-1.42.88-.11,2.49-.57-4.91-17.73,17.61-33.55,12.71-51.28Z"/>
    <path class="cls-2" d="M29.25,47.6c-2.5.44-5.04-.93-5.99-3.38-.77-2.01-.26-4.19,1.12-5.66-.52-1.06-1.05-2.17-1.58-3.33-2.37.24-4.7-1.11-5.59-3.43-.88-2.28-.1-4.79,1.73-6.22-.4-1.19-.79-2.41-1.14-3.64-1.93-.23-3.66-1.49-4.41-3.43-.96-2.5.06-5.28,2.3-6.6-.13-1.07-.24-2.15-.3-3.23-.17-2.68-.14-5.85-2.27-7.33C9.71-1,2.06,1.79.72,6.13,0,8.44,1.23,10.69,1.78,11.74c1.74,3.29,13.12,24.75,15,41.83.38,3.48.35,6.55,2.64,8.28,3.83,2.9,12.23.61,13.89-3.7,1.08-2.8-1.1-5.36-4.03-10.48-.01-.02-.02-.04-.03-.06Z"/>
    <path class="cls-2" d="M40.04,60.62l1.92-3.92c.28-.56,1.12-.37,1.13.26l.04,4.37c.01,1.05.55,2.01,1.41,2.58,1.41-.19,2.71-.66,3.66-1.48,2.19-1.87,1.97-4.93,2.14-8.43.86-17.16,10.94-39.26,12.48-42.65.49-1.07,1.58-3.4.73-5.66-1.6-4.25-9.4-6.57-12.65-4.02-2.04,1.6-1.83,4.77-1.83,7.45,0,2.67-.23,5.35-.62,8,2.43,2.03,3.53,5.4,2.51,8.61-.9,2.84-3.23,4.82-5.94,5.41-.48,1.44-.98,2.84-1.49,4.18,1.96,2.06,2.77,5.09,1.85,7.99-1.11,3.5-4.4,5.7-7.89,5.6-2.6,5.25-4.61,7.92-3.37,10.64.52,1.14,1.53,2.09,2.79,2.82h.36c1.18-.01,2.26-.69,2.78-1.76Z"/>
  </g>
</svg>