<?xml version="1.0" encoding="UTF-8"?>
<svg id="b" data-name="Layer 2" xmlns="http://www.w3.org/2000/svg" width="650.04" height="900" viewBox="0 0 650.04 900">
  <defs>
    <style>
      .d {
        fill: #00967a;
        stroke: #231f20;
      }

      .d, .e {
        stroke-miterlimit: 10;
        stroke-width: 10px;
      }

      .f {
        fill: none;
      }

      .e {
        fill: #7ccbb9;
        stroke: #010101;
      }
    </style>
  </defs>
  <g id="c" data-name="Layer 1">
    <g>
      <path class="d" d="M428.77,183.31c-47.53-33.16-130.88-42.22-192.93-4.75-30.81,18.61-165.49-30.44-143.09,34.71,13.5,30.32,36.33,116.44,38.1,152.11,16.34,141.38,91.57,245.92,56.23,384.68,17.38,98.81,149.23-11.28,202.45,51.37,24.6,28.96,71.25-2.36,62.13-70.13-30.44-132.82,105.61-370.04,77.12-503.41-13.31-85.71-2.27-39.28-100.01-44.58Z"/>
      <rect class="f" width="650" height="900"/>
      <path class="e" d="M642.44,204.16c-11.14-56.2-144.74-91.34-190.54-69.35-28.78,13.82-22.81,49.4-20.52,79.17,1.16,15.06,1.47,30.04,1.07,44.88,1.75-.11,3.51-.18,5.29-.18,46.33,0,83.89,37.56,83.89,83.89s-37.56,83.89-83.89,83.89c-12.6,0-24.54-2.8-35.26-7.77-22.13,66.17-52.53,123.85-77.46,166.15-24.88-42.23-55.22-99.78-77.34-165.8-10.52,4.75-22.18,7.41-34.47,7.41-46.33,0-83.89-37.56-83.89-83.89s37.56-83.89,83.89-83.89c1.47,0,2.92.04,4.37.11-.4-14.83-.09-29.78,1.07-44.82,2.29-29.77,8.26-65.35-20.52-79.17-45.8-21.99-183.1,12.54-190.54,69.35-4.09,31.22-.52,50.48,5.76,61.44,19.85,34.61,149.29,260.23,146.85,449.06-.5,38.5-6.45,72.9,24.23,89.37,19.63,10.54,50.44,11.68,82.78,6.25l-29.15-19.17c-13.53-8.9-5.86-29.97,10.22-28.09l34.68,4.05c11.72,1.37,23.21-3.99,29.7-13.85l19.18-29.17c5.72-8.7,16.46-8.62,22.91-3.2,1.17.62,2.14,1.61,2.66,2.9,1.96,2.81,3,6.38,2.52,10.52l-4.05,34.68c-1.37,11.72,3.99,23.21,13.85,29.7l19.1,12.56c30.12,4.31,58.37,2.7,76.77-7.18,30.67-16.47,24.73-50.87,24.23-89.37-2.44-188.83,126.99-414.45,146.85-449.06,6.29-10.96,11.8-31,5.76-61.44Z"/>
    </g>
  </g>
</svg>