<?xml version="1.0" encoding="UTF-8"?>
<svg id="b" data-name="Layer 2" xmlns="http://www.w3.org/2000/svg" width="666.2" height="703.81" viewBox="0 0 666.2 703.81">
  <defs>
    <style>
      .d {
        fill: #00967a;
        stroke: #231f20;
      }

      .d, .e {
        stroke-miterlimit: 10;
        stroke-width: 10px;
      }

      .e {
        fill: #7ccbb9;
        stroke: #010101;
      }
    </style>
  </defs>
  <g id="c" data-name="Layer 1">
    <g>
      <path class="d" d="M438.3,60.35c-55.11,27.78-133.24,20.12-195.63-4.82-33.89-13.55-167.81-30.86-145.09,35.19,13.69,30.74,36.84,118.07,38.64,154.24,16.57,143.36,92.85,249.36,57.02,390.06,17.62,100.19,151.31-11.44,205.28,52.09,24.95,29.36,72.25-2.4,63-71.11-30.87-134.68,107.09-375.21,78.2-510.44-13.5-86.91-2.3-39.83-101.4-45.21Z"/>
      <path class="e" d="M654.72,81.43c-27.74-50.99-146.65-92.55-193.06-70.27-29.16,14-23.11,50.06-20.79,80.22,1.17,15.26,1.49,30.43,1.08,45.48,1.77-.11,3.56-.19,5.36-.19,46.94,0,85,38.06,85,85s-38.06,85-85,85c-12.77,0-24.86-2.83-35.73-7.87-22.42,67.05-53.23,125.49-78.48,168.36-25.21-42.79-55.95-101.1-78.36-167.99-10.66,4.81-22.47,7.51-34.93,7.51-46.94,0-85-38.06-85-85s38.06-85,85-85c1.49,0,2.96.04,4.43.11-.41-15.02-.09-30.18,1.08-45.41,2.32-30.16,8.37-66.21-20.79-80.22C158.13-11.12,39.21,30.44,11.47,81.43c-14.77,27.14-.53,51.15,5.84,62.25,20.12,35.07,151.27,263.68,148.79,455.01-.5,39.01-6.53,73.87,24.55,90.56,24.25,13.02,65.35,11.89,105.58,1.78-1.54-1.57-3.26-3-5.14-4.24l-36.35-23.9c-5.21-3.43-2.26-11.54,3.94-10.81l43.21,5.05c11.72,1.37,23.21-3.99,29.7-13.85l23.91-36.35c3.43-5.21,11.54-2.26,10.81,3.94l-5.05,43.21c-.78,6.71.64,13.33,3.85,18.99l14.44,13.62,13.98,9.2c32.09,5.15,62.51,3.84,82.02-6.64,31.08-16.69,25.05-51.55,24.55-90.56-2.48-191.33,128.68-419.94,148.79-455.01,6.37-11.1,20.61-35.11,5.84-62.25Z"/>
    </g>
  </g>
</svg>