<?xml version="1.0" encoding="UTF-8"?>
<svg id="Layer_2" xmlns="http://www.w3.org/2000/svg" width="193.91" height="193.91" xmlns:xlink="http://www.w3.org/1999/xlink" viewBox="0 0 193.91 193.91">
  <defs>
    <style>
      .cls-1 {
        font-family: MyriadPro-Regular, 'Myriad Pro';
        font-size: 86.63px;
      }

      .cls-2 {
        fill: url(#linear-gradient);
        stroke: #010101;
        stroke-miterlimit: 10;
        stroke-width: 10px;
      }
    </style>
    <linearGradient id="linear-gradient" x1="5" y1="96.95" x2="188.91" y2="96.95" gradientUnits="userSpaceOnUse">
      <stop offset="0" stop-color="#fff"/>
      <stop offset=".01" stop-color="#f4faf7"/>
      <stop offset=".09" stop-color="#c3e5d2"/>
      <stop offset=".16" stop-color="#96d1b1"/>
      <stop offset=".24" stop-color="#70c194"/>
      <stop offset=".33" stop-color="#4fb37c"/>
      <stop offset=".42" stop-color="#35a768"/>
      <stop offset=".52" stop-color="#219e59"/>
      <stop offset=".63" stop-color="#12984f"/>
      <stop offset=".77" stop-color="#0a9548"/>
      <stop offset="1" stop-color="#089447"/>
    </linearGradient>
  </defs>
  <g id="Layer_1-2" data-name="Layer_1">
    <g>
      <path class="cls-2" d="M82.01,177.09l-8.05-33.97c-2.72-11.48-11.69-20.45-23.17-23.17l-33.97-8.05c-15.76-3.73-15.76-26.16,0-29.89l33.97-8.05c11.48-2.72,20.45-11.69,23.17-23.17l8.05-33.97c3.73-15.76,26.16-15.76,29.89,0l8.05,33.97c2.72,11.48,11.69,20.45,23.17,23.17l33.97,8.05c15.76,3.73,15.76,26.16,0,29.89l-33.97,8.05c-11.48,2.72-20.45,11.69-23.17,23.17l-8.05,33.97c-3.73,15.76-26.16,15.76-29.89,0Z"/>
      <text class="cls-1" transform="translate(76.59 125.89)"><tspan x="0" y="0">P</tspan></text>
    </g>
  </g>
</svg>