<?xml version="1.0" encoding="UTF-8"?>
<svg id="b" data-name="Layer 2" xmlns="http://www.w3.org/2000/svg" width="181.67" height="181.67" xmlns:xlink="http://www.w3.org/1999/xlink" viewBox="0 0 181.67 181.67">
  <defs>
    <style>
      .e {
        fill: url(#d);
        stroke: #010101;
        stroke-miterlimit: 10;
        stroke-width: 10px;
      }
    </style>
    <radialGradient id="d" cx="596.65" cy="-1603.81" fx="596.65" fy="-1603.81" r="141.54" gradientTransform="translate(-1501.77 894.3) rotate(44.12) scale(1 1.05)" gradientUnits="userSpaceOnUse">
      <stop offset="0" stop-color="#568444"/>
      <stop offset=".28" stop-color="#578545"/>
      <stop offset=".38" stop-color="#5d894c"/>
      <stop offset=".45" stop-color="#689158"/>
      <stop offset=".5" stop-color="#779c69"/>
      <stop offset=".55" stop-color="#8bab7f"/>
      <stop offset=".6" stop-color="#a4bc9a"/>
      <stop offset=".64" stop-color="#c1d2ba"/>
      <stop offset=".67" stop-color="#e2eadf"/>
      <stop offset=".7" stop-color="#fff"/>
    </radialGradient>
  </defs>
  <g id="c" data-name="Layer 1">
    <path class="e" d="M85.08,172.12l-10.03-42.33c-2.72-11.48-11.69-20.45-23.17-23.17l-42.33-10.03c-6.07-1.44-6.07-10.07,0-11.51l42.33-10.03c11.48-2.72,20.45-11.69,23.17-23.17l10.03-42.33c1.44-6.07,10.07-6.07,11.51,0l10.03,42.33c2.72,11.48,11.69,20.45,23.17,23.17l42.33,10.03c6.07,1.44,6.07,10.07,0,11.51l-42.33,10.03c-11.48,2.72-20.45,11.69-23.17,23.17l-10.03,42.33c-1.44,6.07-10.07,6.07-11.51,0Z"/>
  </g>
</svg>