<?xml version="1.0" encoding="UTF-8"?>
<svg id="Layer_2" data-name="Layer 2" xmlns="http://www.w3.org/2000/svg" xmlns:xlink="http://www.w3.org/1999/xlink" viewBox="0 0 17.35 17.35" width="17.35" height="17.35">
  <defs>
    <style>
      .cls-1 {
        fill: url(#radial-gradient);
        stroke: #000;
        stroke-miterlimit: 10;
      }
    </style>
    <radialGradient id="radial-gradient" cx="-610.49" cy="16.03" fx="-610.49" fy="16.03" r="14.21" gradientTransform="translate(570.65 250.99) rotate(24.9) scale(1 1.05)" gradientUnits="userSpaceOnUse">
      <stop offset="0" stop-color="#558444"/>
      <stop offset=".28" stop-color="#568545"/>
      <stop offset=".38" stop-color="#5c894c"/>
      <stop offset=".45" stop-color="#679158"/>
      <stop offset=".5" stop-color="#769c69"/>
      <stop offset=".55" stop-color="#8bab7f"/>
      <stop offset=".6" stop-color="#a3bc9a"/>
      <stop offset=".64" stop-color="#c1d2ba"/>
      <stop offset=".67" stop-color="#e2eadf"/>
      <stop offset=".7" stop-color="#fff"/>
    </radialGradient>
  </defs>
  <g id="Layer_2-2" data-name="Layer 2">
    <path class="cls-1" d="M10.81,16.57l-2.35-3.68c-.64-1-1.78-1.55-2.96-1.43l-4.35.45c-.62.06-.91-.75-.38-1.09l3.68-2.35c1-.64,1.55-1.78,1.43-2.96l-.45-4.35c-.06-.62.75-.91,1.09-.38l2.35,3.68c.64,1,1.78,1.55,2.96,1.43l4.35-.45c.62-.06.91.75.38,1.09l-3.68,2.35c-1,.64-1.55,1.78-1.43,2.96l.45,4.35c.06.62-.75.91-1.09.38Z"/>
  </g>
</svg>