<?xml version="1.0" encoding="UTF-8"?>
<svg id="b" data-name="Layer 2" xmlns="http://www.w3.org/2000/svg" width="193.91" height="193.91" xmlns:xlink="http://www.w3.org/1999/xlink" viewBox="0 0 193.91 193.91">
  <defs>
    <style>
      .e {
        fill: url(#d);
        stroke: #010101;
        stroke-miterlimit: 10;
        stroke-width: 10px;
      }
    </style>
    <linearGradient id="d" x1="851.11" y1="263.18" x2="1026.14" y2="304.55" gradientTransform="translate(-841.67 -186.91)" gradientUnits="userSpaceOnUse">
      <stop offset="0" stop-color="#fff"/>
      <stop offset=".1" stop-color="#d3ecde"/>
      <stop offset=".23" stop-color="#9dd4b6"/>
      <stop offset=".36" stop-color="#70c194"/>
      <stop offset=".49" stop-color="#4ab078"/>
      <stop offset=".62" stop-color="#2da462"/>
      <stop offset=".75" stop-color="#189b53"/>
      <stop offset=".88" stop-color="#0c954a"/>
      <stop offset="1" stop-color="#089447"/>
    </linearGradient>
  </defs>
  <g id="c" data-name="Layer 1">
    <path class="e" d="M82.01,177.09l-8.05-33.97c-2.72-11.48-11.69-20.45-23.17-23.17l-33.97-8.05c-15.76-3.73-15.76-26.16,0-29.89l33.97-8.05c11.48-2.72,20.45-11.69,23.17-23.17l8.05-33.97c3.73-15.76,26.16-15.76,29.89,0l8.05,33.97c2.72,11.48,11.69,20.45,23.17,23.17l33.97,8.05c15.76,3.73,15.76,26.16,0,29.89l-33.97,8.05c-11.48,2.72-20.45,11.69-23.17,23.17l-8.05,33.97c-3.73,15.76-26.16,15.76-29.89,0Z"/>
  </g>
</svg>