<?xml version="1.0" encoding="UTF-8"?>
<svg id="b" data-name="Layer 2" xmlns="http://www.w3.org/2000/svg" width="549" height="374" viewBox="0 0 549 374">
  <defs>
    <style>
      .d {
        fill: #a49d50;
      }

      .d, .e, .f, .g, .h, .i, .j {
        stroke: #000;
        stroke-miterlimit: 10;
      }

      .d, .e, .g, .h, .i, .j {
        stroke-width: 5px;
      }

      .e {
        fill: #6fcbdc;
      }

      .f {
        fill: #fff;
      }

      .g {
        fill: #00957a;
      }

      .h {
        fill: #7ccab8;
      }

      .i {
        fill: #ffd224;
      }

      .j {
        fill: #3298cb;
      }
    </style>
  </defs>
  <g id="c" data-name="Layer 2">
    <rect class="f" x=".5" y=".5" width="548" height="373"/>
    <g>
      <path class="d" d="M123.73,220.33c-9.9,7.74-25.22,8.7-36.96,5.88-9.65-2.41-17.56-7.68-21.14-19-3.37-10.72-3.32-24.12-3.51-36.12-.11-30.98-.02-66.93-.04-97.23.3-15.51-4.14-41.3,6.88-51,14.42-12.71,38.21-14.2,51.85-4.48,5.62,4.01,7.31,3.69,11.03,9.79,5.05,8.28,3.44,17.54,3.83,28.45.4,20.52.13,43,.2,64.72-.03,18.22.06,34.67-.05,50.98-.49,18.81.15,38.02-12.05,48l-.03.02h0Z"/>
      <g>
        <path class="i" d="M73.67,71.52c.23,25.11-1.82,65.32-2.37,89.15-.1,4.39-.05,8.57.37,12.91.69,9.6,12.1,47.71,3.45,53.96-2.35,1.72-13.3-15.25-17.22-14.87-5.3.48-11.38.37-16.86.26-9.1-.39-18.16-.55-20.68-10.08-3.16-7.9-3.34-27.3.05-41.9,3.05-13.16,14.04-16.21.52-39.27-13.57-23.13-8.74-74.89,7.33-97.62,5.55-7.75,15.72,2.82,25.32,3.23,6.88.37,19.54-20.67,22.93-14.51,3.12,6.59-2.54,36.23-2.54,43.98-.14,4.89-.26,9.92-.3,14.73v.05h0Z"/>
        <path class="i" d="M123.66,71.01c-.23,25.11,1.82,65.32,2.37,89.15.1,4.39.05,8.57-.37,12.91-.69,9.6-12.1,47.71-3.45,53.96,2.35,1.72,13.3-15.25,17.22-14.87,5.3.48,11.38.37,16.86.26,9.1-.39,18.16-.55,20.68-10.08,3.16-7.9,3.34-27.3-.05-41.9-3.05-13.16-14.04-16.21-.52-39.27,13.57-23.13,8.74-74.89-7.33-97.62-5.55-7.75-15.72,2.82-25.32,3.23-6.88.37-19.54-20.67-22.93-14.51-3.12,6.59,2.54,36.23,2.54,43.98.14,4.89.26,9.92.3,14.73v.05h0Z"/>
      </g>
    </g>
    <g>
      <path class="g" d="M304.19,346.93c-18.08,7.61-39.56-3.1-58.82,1.45-10.95-.71-50.45,9.28-43.62-10.58,4.12-9.24,11.07-35.5,11.62-46.37,4.98-43.1,12.67-66.68,1.9-108.98,5.3-30.12,38.3,1.45,58.05-9.66,11.58-.42,40.63-13.57,37.85,7.08-9.28,40.49,32.2,112.81,23.51,153.46-4.06,26.13-.69,11.97-30.49,13.59Z"/>
      <path class="h" d="M348.12,316.9c-29.41-49.44-29.62-128.68-29.66-140.84-.01-3.85.09-12.24-7.84-17.09-11.47-7.02-36.18-4.44-50.92,2.96-14.74-7.39-39.45-9.97-50.92-2.96-7.93,4.85-7.83,13.24-7.84,17.09-.03,12.15-.25,91.39-29.66,140.84-6,10.08-12.06,18.26-7.22,27.27,8.38,15.61,48.51,24.85,64.65,16.44,10.49-5.47,7.13-16.49,6.32-35.82-.03-.6-.05-1.23-.08-1.88-.04,0-.07,0-.11,0-9.96,0-18.04-8.08-18.04-18.04s8.08-18.04,18.04-18.04c.06,0,.12,0,.19,0,.29-4.97.72-10.17,1.35-15.54-9.08-.94-16.16-8.61-16.16-17.94,0-9.96,8.08-18.04,18.04-18.04,1.78,0,3.51.26,5.13.75,3.74-12.73,8.98-25.46,16.31-37.31,11.88,19.22,18.29,40.72,21.67,60.83,1.04-.19,2.1-.29,3.19-.29,9.96,0,18.04,8.08,18.04,18.04s-7.98,17.94-17.86,18.03c.35,12.25-.08,22.53-.37,29.43-.73,17.15-3.45,27.76,3.27,33.75l9.86-2.34c3.45-.82,6.15-3.51,6.97-6.97l3.02-12.73c.43-1.82,3.03-1.82,3.46,0l3.02,12.73c.82,3.45,3.51,6.15,6.97,6.97l11.9,2.82c10.06-3.51,19.36-8.4,22.51-14.85,4.35-8.93-1.23-17.19-7.22-27.27Z"/>
    </g>
    <g>
      <path class="j" d="M397.41,25.66c-4.2,1.24-3.76,4.46-3.69,8.13-2.32,55.02-6.42,127.75-8.35,175.16-.14,5.95.81,12.84,7.68,14.49,3.56.94,7.41.78,11.08.72,5.19-.13,10.14-.48,15.29-.65,17.07-.53,31.7.54,51.08-.53,6.35-.56,12.29-.65,17.73-3.05,5.49-3.37-10.91-6.89-12.28-12.61-3.96-48.77,11.11-107.86,9.55-156.46-.45-7.63-.08-25.5-9.99-26.58-4.34-.43-8.27,1.02-12.56,1.47-3.83.41-7.69.31-11.5.33-10.27-.07-23.13.22-33.93-.16-6.89-.4-13.57-2.45-20.06-.26l-.05.02Z"/>
      <path class="e" d="M394.91,227.23c-11.77,2.24-18.42,3.62-30.39.79-9.84-2.42-17.91-7.7-21.56-19.06-3.44-10.75-3.39-24.19-3.58-36.23-.11-31.07-.02-67.13-.04-97.53.3-15.55,13.66-43.37,21.63-55.56,9.61-14.76,18.8-11.07,32.79-6.1,6.71,2.4,13.06,10.26,20.86,12.98,38.21,13.28-.62,20.45-.23,31.39.41,20.58,20.6,43.47,20.67,65.25-.03,18.27-20.41,34.44-20.52,50.79-.5,18.87,38.28,29.58-5.61,48.68l-14.03,4.6Z"/>
      <path class="e" d="M481.02,227.23c11.77,2.24,18.42,3.62,30.39.79,9.84-2.42,17.91-7.7,21.56-19.06,3.44-10.75,3.39-24.19,3.58-36.23.11-31.07.02-67.13.04-97.53-.3-15.55-13.66-43.37-21.63-55.56-9.61-14.76-18.8-11.07-32.79-6.1-6.71,2.4-13.06,10.26-20.86,12.98-38.21,13.28.62,20.45.23,31.39-.41,20.58-20.6,43.47-20.67,65.25.03,18.27,20.41,34.44,20.52,50.79.5,18.87-38.28,29.58,5.61,48.68l14.03,4.6Z"/>
    </g>
  </g>
</svg>