<?xml version="1.0" encoding="UTF-8"?>
<svg id="Layer_2" xmlns="http://www.w3.org/2000/svg" width="273" height="187.7" xmlns:xlink="http://www.w3.org/1999/xlink" viewBox="0 0 273 187.7">
  <defs>
    <style>
      .cls-1 {
        fill: url(#linear-gradient);
      }

      .cls-1, .cls-2, .cls-3, .cls-4, .cls-5, .cls-6, .cls-7, .cls-8 {
        stroke: #000;
        stroke-miterlimit: 10;
      }

      .cls-2 {
        fill: #fbb03b;
      }

      .cls-3 {
        fill: #7ccab8;
      }

      .cls-4 {
        fill: #6fcbdc;
      }

      .cls-9 {
        fill: #ef5ea0;
      }

      .cls-5 {
        fill: #00957a;
      }

      .cls-6 {
        fill: #a49d50;
      }

      .cls-7 {
        fill: #ffd224;
      }

      .cls-8 {
        fill: #3298cb;
      }
    </style>
    <linearGradient id="linear-gradient" x1="136.5" y1="187.2" x2="136.5" y2=".5" gradientUnits="userSpaceOnUse">
      <stop offset="0" stop-color="#fff9f0"/>
      <stop offset=".35" stop-color="#fff9f0"/>
      <stop offset=".66" stop-color="#b8dfff"/>
      <stop offset="1" stop-color="#b8dfff"/>
    </linearGradient>
  </defs>
  <g id="Layer_2-2" data-name="Layer_2">
    <rect class="cls-1" x=".5" y=".5" width="272" height="186.7"/>
    <g>
      <path class="cls-9" d="M247.94,68.99c.5,1.87.64,3.76.41,5.68-.22,1.82-.68,3.6-.95,5.41-.24,1.6-.33,3.23,0,4.83.36,1.78,1.28,3.39,2.22,4.92.51.82,1.8.07,1.3-.76-.94-1.53-1.86-3.12-2.13-4.93s.05-3.72.4-5.53c.65-3.4,1.13-6.62.21-10.03-.25-.93-1.7-.54-1.45.4h0Z"/>
      <path class="cls-9" d="M247.4,68.83c-1.16,1.26-2.29,2.6-2.88,4.23-.66,1.82-.22,3.55.34,5.33,1.17,3.76.69,7.69-1.51,10.97-.54.8.76,1.56,1.3.76,1.93-2.88,2.73-6.41,2.21-9.84-.27-1.81-1.3-3.61-1.19-5.46.12-1.95,1.54-3.55,2.8-4.93.65-.71-.41-1.77-1.06-1.06h0Z"/>
      <circle class="cls-2" cx="247.95" cy="65.09" r="4.08"/>
      <path class="cls-9" d="M167.94,68.99c.5,1.87.64,3.76.41,5.68-.22,1.82-.68,3.6-.95,5.41-.24,1.6-.33,3.23,0,4.83.36,1.78,1.28,3.39,2.22,4.92.51.82,1.8.07,1.3-.76-.94-1.53-1.86-3.12-2.13-4.93s.05-3.72.4-5.53c.65-3.4,1.13-6.62.21-10.03-.25-.93-1.7-.54-1.45.4h0Z"/>
      <path class="cls-9" d="M167.4,68.83c-1.16,1.26-2.29,2.6-2.88,4.23-.66,1.82-.22,3.55.34,5.33,1.17,3.76.69,7.69-1.51,10.97-.54.8.76,1.56,1.3.76,1.93-2.88,2.73-6.41,2.21-9.84-.27-1.81-1.3-3.61-1.19-5.46.12-1.95,1.54-3.55,2.8-4.93.65-.71-.41-1.77-1.06-1.06h0Z"/>
      <circle class="cls-2" cx="167.94" cy="65.09" r="4.08"/>
      <path class="cls-9" d="M159.05,68.99c.5,1.87.64,3.76.41,5.68-.22,1.82-.68,3.6-.95,5.41-.24,1.6-.33,3.23,0,4.83.36,1.78,1.28,3.39,2.22,4.92.51.82,1.8.07,1.3-.76-.94-1.53-1.86-3.12-2.13-4.93s.05-3.72.4-5.53c.65-3.4,1.13-6.62.21-10.03-.25-.93-1.7-.54-1.45.4h0Z"/>
      <path class="cls-9" d="M158.51,68.83c-1.16,1.26-2.29,2.6-2.88,4.23-.66,1.82-.22,3.55.34,5.33,1.17,3.76.69,7.69-1.51,10.97-.54.8.76,1.56,1.3.76,1.93-2.88,2.73-6.41,2.21-9.84-.27-1.81-1.3-3.61-1.19-5.46.12-1.95,1.54-3.55,2.8-4.93.65-.71-.41-1.77-1.06-1.06h0Z"/>
      <circle class="cls-2" cx="159.05" cy="65.09" r="4.08"/>
      <path class="cls-9" d="M96.82,68.99c.5,1.87.64,3.76.41,5.68-.22,1.82-.68,3.6-.95,5.41-.24,1.6-.33,3.23,0,4.83.36,1.78,1.28,3.39,2.22,4.92.51.82,1.8.07,1.3-.76-.94-1.53-1.86-3.12-2.13-4.93s.05-3.72.4-5.53c.65-3.4,1.13-6.62.21-10.03-.25-.93-1.7-.54-1.45.4h0Z"/>
      <path class="cls-9" d="M96.28,68.83c-1.16,1.26-2.29,2.6-2.88,4.23-.66,1.82-.22,3.55.34,5.33,1.17,3.76.69,7.69-1.51,10.97-.54.8.76,1.56,1.3.76,1.93-2.88,2.73-6.41,2.21-9.84-.27-1.81-1.3-3.61-1.19-5.46.12-1.95,1.54-3.55,2.8-4.93.65-.71-.41-1.77-1.06-1.06h0Z"/>
      <circle class="cls-2" cx="96.83" cy="65.09" r="4.08"/>
      <path class="cls-9" d="M203.5,68.99c.5,1.87.64,3.76.41,5.68-.22,1.82-.68,3.6-.95,5.41-.24,1.6-.33,3.23,0,4.83.36,1.78,1.28,3.39,2.22,4.92.51.82,1.8.07,1.3-.76-.94-1.53-1.86-3.12-2.13-4.93s.05-3.72.4-5.53c.65-3.4,1.13-6.62.21-10.03-.25-.93-1.7-.54-1.45.4h0Z"/>
      <path class="cls-9" d="M202.96,68.83c-1.16,1.26-2.29,2.6-2.88,4.23-.66,1.82-.22,3.55.34,5.33,1.17,3.76.69,7.69-1.51,10.97-.54.8.76,1.56,1.3.76,1.93-2.88,2.73-6.41,2.21-9.84-.27-1.81-1.3-3.61-1.19-5.46.12-1.95,1.54-3.55,2.8-4.93.65-.71-.41-1.77-1.06-1.06h0Z"/>
      <circle class="cls-2" cx="203.5" cy="65.09" r="4.08"/>
      <path class="cls-9" d="M185.72,68.99c.5,1.87.64,3.76.41,5.68-.22,1.82-.68,3.6-.95,5.41-.24,1.6-.33,3.23,0,4.83.36,1.78,1.28,3.39,2.22,4.92.51.82,1.8.07,1.3-.76-.94-1.53-1.86-3.12-2.13-4.93s.05-3.72.4-5.53c.65-3.4,1.13-6.62.21-10.03-.25-.93-1.7-.54-1.45.4h0Z"/>
      <path class="cls-9" d="M185.18,68.83c-1.16,1.26-2.29,2.6-2.88,4.23-.66,1.82-.22,3.55.34,5.33,1.17,3.76.69,7.69-1.51,10.97-.54.8.76,1.56,1.3.76,1.93-2.88,2.73-6.41,2.21-9.84-.27-1.81-1.3-3.61-1.19-5.46.12-1.95,1.54-3.55,2.8-4.93.65-.71-.41-1.77-1.06-1.06h0Z"/>
      <circle class="cls-2" cx="185.72" cy="65.09" r="4.08"/>
      <path class="cls-9" d="M141.27,68.99c.5,1.87.64,3.76.41,5.68-.22,1.82-.68,3.6-.95,5.41-.24,1.6-.33,3.23,0,4.83.36,1.78,1.28,3.39,2.22,4.92.51.82,1.8.07,1.3-.76-.94-1.53-1.86-3.12-2.13-4.93s.05-3.72.4-5.53c.65-3.4,1.13-6.62.21-10.03-.25-.93-1.7-.54-1.45.4h0Z"/>
      <path class="cls-9" d="M140.73,68.83c-1.16,1.26-2.29,2.6-2.88,4.23-.66,1.82-.22,3.55.34,5.33,1.17,3.76.69,7.69-1.51,10.97-.54.8.76,1.56,1.3.76,1.93-2.88,2.73-6.41,2.21-9.84-.27-1.81-1.3-3.61-1.19-5.46.12-1.95,1.54-3.55,2.8-4.93.65-.71-.41-1.77-1.06-1.06h0Z"/>
      <circle class="cls-2" cx="141.27" cy="65.09" r="4.08"/>
      <path class="cls-9" d="M79.05,68.99c.5,1.87.64,3.76.41,5.68-.22,1.82-.68,3.6-.95,5.41-.24,1.6-.33,3.23,0,4.83.36,1.78,1.28,3.39,2.22,4.92.51.82,1.8.07,1.3-.76-.94-1.53-1.86-3.12-2.13-4.93s.05-3.72.4-5.53c.65-3.4,1.13-6.62.21-10.03-.25-.93-1.7-.54-1.45.4h0Z"/>
      <path class="cls-9" d="M78.5,68.83c-1.16,1.26-2.29,2.6-2.88,4.23-.66,1.82-.22,3.55.34,5.33,1.17,3.76.69,7.69-1.51,10.97-.54.8.76,1.56,1.3.76,1.93-2.88,2.73-6.41,2.21-9.84-.27-1.81-1.3-3.61-1.19-5.46.12-1.95,1.54-3.55,2.8-4.93.65-.71-.41-1.77-1.06-1.06h0Z"/>
      <circle class="cls-2" cx="79.05" cy="65.09" r="4.08"/>
      <path class="cls-9" d="M52.38,68.99c.5,1.87.64,3.76.41,5.68-.22,1.82-.68,3.6-.95,5.41-.24,1.6-.33,3.23,0,4.83.36,1.78,1.28,3.39,2.22,4.92.51.82,1.8.07,1.3-.76-.94-1.53-1.86-3.12-2.13-4.93s.05-3.72.4-5.53c.65-3.4,1.13-6.62.21-10.03-.25-.93-1.7-.54-1.45.4h0Z"/>
      <path class="cls-9" d="M51.84,68.83c-1.16,1.26-2.29,2.6-2.88,4.23-.66,1.82-.22,3.55.34,5.33,1.17,3.76.69,7.69-1.51,10.97-.54.8.76,1.56,1.3.76,1.93-2.88,2.73-6.41,2.21-9.84-.27-1.81-1.3-3.61-1.19-5.46.12-1.95,1.54-3.55,2.8-4.93.65-.71-.41-1.77-1.06-1.06h0Z"/>
      <circle class="cls-2" cx="52.38" cy="65.09" r="4.08"/>
      <path class="cls-9" d="M25.71,68.99c.5,1.87.64,3.76.41,5.68-.22,1.82-.68,3.6-.95,5.41-.24,1.6-.33,3.23,0,4.83.36,1.78,1.28,3.39,2.22,4.92.51.82,1.8.07,1.3-.76-.94-1.53-1.86-3.12-2.13-4.93s.05-3.72.4-5.53c.65-3.4,1.13-6.62.21-10.03-.25-.93-1.7-.54-1.45.4h0Z"/>
      <path class="cls-9" d="M25.17,68.83c-1.16,1.26-2.29,2.6-2.88,4.23-.66,1.82-.22,3.55.34,5.33,1.17,3.76.69,7.69-1.51,10.97-.54.8.76,1.56,1.3.76,1.93-2.88,2.73-6.41,2.21-9.84-.27-1.81-1.3-3.61-1.19-5.46.12-1.95,1.54-3.55,2.8-4.93.65-.71-.41-1.77-1.06-1.06h0Z"/>
      <circle class="cls-2" cx="25.71" cy="65.09" r="4.08"/>
      <path class="cls-9" d="M35.23,68.99c.29,1.21.09,2.45.26,3.67s.81,2.4,1.11,3.62c.48,1.97.55,4.09-.18,6.01-.24.63-.57,1.24-1,1.76s-.92.86-1,1.57c-.17,1.65,1.66,2.98,2.47,4.21.53.8,1.83.05,1.3-.76-.45-.69-1.01-1.28-1.52-1.93-.23-.3-.68-.78-.73-1.17-.04-.33.14-.42.36-.66.96-1.04,1.59-2.37,1.89-3.75.42-1.87.29-3.82-.16-5.68-.31-1.28-1.01-2.51-1.12-3.83-.09-1.17.02-2.31-.25-3.46-.22-.94-1.67-.54-1.45.4h0Z"/>
      <path class="cls-9" d="M34.68,68.83c-1.07,1.22-1.48,2.59-1.54,4.19-.03.84.05,1.7-.16,2.52s-.58,1.63-.66,2.5.25,1.6.29,2.43c.03.69-.11,1.35-.43,1.96-.76,1.43-2,2.6-2.93,3.92-.56.79.74,1.54,1.3.76.89-1.27,2.04-2.4,2.83-3.75.72-1.24.87-2.59.6-3.98-.18-.92-.14-1.52.14-2.42.25-.79.49-1.54.51-2.37.05-1.71-.07-3.34,1.13-4.71.63-.72-.42-1.79-1.06-1.06h0Z"/>
      <circle class="cls-2" cx="35.23" cy="65.09" r="4.08"/>
      <path class="cls-9" d="M88.56,68.99c.29,1.21.09,2.45.26,3.67s.81,2.4,1.11,3.62c.48,1.97.55,4.09-.18,6.01-.24.63-.57,1.24-1,1.76s-.92.86-1,1.57c-.17,1.65,1.66,2.98,2.47,4.21.53.8,1.83.05,1.3-.76-.45-.69-1.01-1.28-1.52-1.93-.23-.3-.68-.78-.73-1.17-.04-.33.14-.42.36-.66.96-1.04,1.59-2.37,1.89-3.75.42-1.87.29-3.82-.16-5.68-.31-1.28-1.01-2.51-1.12-3.83-.09-1.17.02-2.31-.25-3.46-.22-.94-1.67-.54-1.45.4h0Z"/>
      <path class="cls-9" d="M88.02,68.83c-1.07,1.22-1.48,2.59-1.54,4.19-.03.84.05,1.7-.16,2.52s-.58,1.63-.66,2.5.25,1.6.29,2.43c.03.69-.11,1.35-.43,1.96-.76,1.43-2,2.6-2.93,3.92-.56.79.74,1.54,1.3.76.89-1.27,2.04-2.4,2.83-3.75.72-1.24.87-2.59.6-3.98-.18-.92-.14-1.52.14-2.42.25-.79.49-1.54.51-2.37.05-1.71-.07-3.34,1.13-4.71.63-.72-.42-1.79-1.06-1.06h0Z"/>
      <circle class="cls-2" cx="88.56" cy="65.09" r="4.08"/>
      <path class="cls-9" d="M115.23,68.99c.29,1.21.09,2.45.26,3.67s.81,2.4,1.11,3.62c.48,1.97.55,4.09-.18,6.01-.24.63-.57,1.24-1,1.76s-.92.86-1,1.57c-.17,1.65,1.66,2.98,2.47,4.21.53.8,1.83.05,1.3-.76-.45-.69-1.01-1.28-1.52-1.93-.23-.3-.68-.78-.73-1.17-.04-.33.14-.42.36-.66.96-1.04,1.59-2.37,1.89-3.75.42-1.87.29-3.82-.16-5.68-.31-1.28-1.01-2.51-1.12-3.83-.09-1.17.02-2.31-.25-3.46-.22-.94-1.67-.54-1.45.4h0Z"/>
      <path class="cls-9" d="M114.69,68.83c-1.07,1.22-1.48,2.59-1.54,4.19-.03.84.05,1.7-.16,2.52s-.58,1.63-.66,2.5.25,1.6.29,2.43c.03.69-.11,1.35-.43,1.96-.76,1.43-2,2.6-2.93,3.92-.56.79.74,1.54,1.3.76.89-1.27,2.04-2.4,2.83-3.75.72-1.24.87-2.59.6-3.98-.18-.92-.14-1.52.14-2.42.25-.79.49-1.54.51-2.37.05-1.71-.07-3.34,1.13-4.71.63-.72-.42-1.79-1.06-1.06h0Z"/>
      <circle class="cls-2" cx="115.23" cy="65.09" r="4.08"/>
      <path class="cls-9" d="M150.79,68.99c.29,1.21.09,2.45.26,3.67s.81,2.4,1.11,3.62c.48,1.97.55,4.09-.18,6.01-.24.63-.57,1.24-1,1.76s-.92.86-1,1.57c-.17,1.65,1.66,2.98,2.47,4.21.53.8,1.83.05,1.3-.76-.45-.69-1.01-1.28-1.52-1.93-.23-.3-.68-.78-.73-1.17-.04-.33.14-.42.36-.66.96-1.04,1.59-2.37,1.89-3.75.42-1.87.29-3.82-.16-5.68-.31-1.28-1.01-2.51-1.12-3.83-.09-1.17.02-2.31-.25-3.46-.22-.94-1.67-.54-1.45.4h0Z"/>
      <path class="cls-9" d="M150.25,68.83c-1.07,1.22-1.48,2.59-1.54,4.19-.03.84.05,1.7-.16,2.52s-.58,1.63-.66,2.5.25,1.6.29,2.43c.03.69-.11,1.35-.43,1.96-.76,1.43-2,2.6-2.93,3.92-.56.79.74,1.54,1.3.76.89-1.27,2.04-2.4,2.83-3.75.72-1.24.87-2.59.6-3.98-.18-.92-.14-1.52.14-2.42.25-.79.49-1.54.51-2.37.05-1.71-.07-3.34,1.13-4.71.63-.72-.42-1.79-1.06-1.06h0Z"/>
      <circle class="cls-2" cx="150.79" cy="65.09" r="4.08"/>
      <path class="cls-9" d="M221.9,68.99c.29,1.21.09,2.45.26,3.67s.81,2.4,1.11,3.62c.48,1.97.55,4.09-.18,6.01-.24.63-.57,1.24-1,1.76s-.92.86-1,1.57c-.17,1.65,1.66,2.98,2.47,4.21.53.8,1.83.05,1.3-.76-.45-.69-1.01-1.28-1.52-1.93-.23-.3-.68-.78-.73-1.17-.04-.33.14-.42.36-.66.96-1.04,1.59-2.37,1.89-3.75.42-1.87.29-3.82-.16-5.68-.31-1.28-1.01-2.51-1.12-3.83-.09-1.17.02-2.31-.25-3.46-.22-.94-1.67-.54-1.45.4h0Z"/>
      <path class="cls-9" d="M221.36,68.83c-1.07,1.22-1.48,2.59-1.54,4.19-.03.84.05,1.7-.16,2.52s-.58,1.63-.66,2.5.25,1.6.29,2.43c.03.69-.11,1.35-.43,1.96-.76,1.43-2,2.6-2.93,3.92-.56.79.74,1.54,1.3.76.89-1.27,2.04-2.4,2.83-3.75.72-1.24.87-2.59.6-3.98-.18-.92-.14-1.52.14-2.42.25-.79.49-1.54.51-2.37.05-1.71-.07-3.34,1.13-4.71.63-.72-.42-1.79-1.06-1.06h0Z"/>
      <circle class="cls-2" cx="221.9" cy="65.09" r="4.08"/>
      <path class="cls-9" d="M257.46,68.99c.29,1.21.09,2.45.26,3.67s.81,2.4,1.11,3.62c.48,1.97.55,4.09-.18,6.01-.24.63-.57,1.24-1,1.76s-.92.86-1,1.57c-.17,1.65,1.66,2.98,2.47,4.21.53.8,1.83.05,1.3-.76-.45-.69-1.01-1.28-1.52-1.93-.23-.3-.68-.78-.73-1.17-.04-.33.14-.42.36-.66.96-1.04,1.59-2.37,1.89-3.75.42-1.87.29-3.82-.16-5.68-.31-1.28-1.01-2.51-1.12-3.83-.09-1.17.02-2.31-.25-3.46-.22-.94-1.67-.54-1.45.4h0Z"/>
      <path class="cls-9" d="M256.92,68.83c-1.07,1.22-1.48,2.59-1.54,4.19-.03.84.05,1.7-.16,2.52s-.58,1.63-.66,2.5.25,1.6.29,2.43c.03.69-.11,1.35-.43,1.96-.76,1.43-2,2.6-2.93,3.92-.56.79.74,1.54,1.3.76.89-1.27,2.04-2.4,2.83-3.75.72-1.24.87-2.59.6-3.98-.18-.92-.14-1.52.14-2.42.25-.79.49-1.54.51-2.37.05-1.71-.07-3.34,1.13-4.71.63-.72-.42-1.79-1.06-1.06h0Z"/>
      <circle class="cls-2" cx="257.46" cy="65.09" r="4.08"/>
      <path class="cls-9" d="M8.56,68.99c.29,1.21.09,2.45.26,3.67s.81,2.4,1.11,3.62c.48,1.97.55,4.09-.18,6.01-.24.63-.57,1.24-1,1.76s-.92.86-1,1.57c-.17,1.65,1.66,2.98,2.47,4.21.53.8,1.83.05,1.3-.76-.45-.69-1.01-1.28-1.52-1.93-.23-.3-.68-.78-.73-1.17-.04-.33.14-.42.36-.66.96-1.04,1.59-2.37,1.89-3.75.42-1.87.29-3.82-.16-5.68-.31-1.28-1.01-2.51-1.12-3.83-.09-1.17.02-2.31-.25-3.46-.22-.94-1.67-.54-1.45.4h0Z"/>
      <path class="cls-9" d="M8.02,68.83c-1.07,1.22-1.48,2.59-1.54,4.19-.03.84.05,1.7-.16,2.52s-.58,1.63-.66,2.5.25,1.6.29,2.43c.03.69-.11,1.35-.43,1.96-.76,1.43-2,2.6-2.93,3.92-.56.79.74,1.54,1.3.76.89-1.27,2.04-2.4,2.83-3.75.72-1.24.87-2.59.6-3.98-.18-.92-.14-1.52.14-2.42.25-.79.49-1.54.51-2.37.05-1.71-.07-3.34,1.13-4.71.63-.72-.42-1.79-1.06-1.06h0Z"/>
      <circle class="cls-2" cx="8.56" cy="65.09" r="4.08"/>
      <path class="cls-9" d="M70.78,68.99c.29,1.21.09,2.45.26,3.67s.81,2.4,1.11,3.62c.48,1.97.55,4.09-.18,6.01-.24.63-.57,1.24-1,1.76s-.92.86-1,1.57c-.17,1.65,1.66,2.98,2.47,4.21.53.8,1.83.05,1.3-.76-.45-.69-1.01-1.28-1.52-1.93-.23-.3-.68-.78-.73-1.17-.04-.33.14-.42.36-.66.96-1.04,1.59-2.37,1.89-3.75.42-1.87.29-3.82-.16-5.68-.31-1.28-1.01-2.51-1.12-3.83-.09-1.17.02-2.31-.25-3.46-.22-.94-1.67-.54-1.45.4h0Z"/>
      <path class="cls-9" d="M70.24,68.83c-1.07,1.22-1.48,2.59-1.54,4.19-.03.84.05,1.7-.16,2.52s-.58,1.63-.66,2.5.25,1.6.29,2.43c.03.69-.11,1.35-.43,1.96-.76,1.43-2,2.6-2.93,3.92-.56.79.74,1.54,1.3.76.89-1.27,2.04-2.4,2.83-3.75.72-1.24.87-2.59.6-3.98-.18-.92-.14-1.52.14-2.42.25-.79.49-1.54.51-2.37.05-1.71-.07-3.34,1.13-4.71.63-.72-.42-1.79-1.06-1.06h0Z"/>
      <circle class="cls-2" cx="70.78" cy="65.09" r="4.08"/>
      <path class="cls-9" d="M61.53,68.99c.31,1.29.1,2.63.33,3.93s.8,2.48,1.05,3.76c.35,1.75.33,3.57-.33,5.24-.37.94-1,1.76-1.4,2.68-.9,2.07.99,3.65,2.02,5.23.53.81,1.83.05,1.3-.76-.58-.89-1.41-1.66-1.87-2.63-.34-.72-.13-1.19.22-1.81.58-1.03,1.15-2.04,1.46-3.19.47-1.74.38-3.57.01-5.32-.26-1.24-.85-2.42-1.03-3.67s-.01-2.58-.32-3.86c-.23-.94-1.67-.54-1.45.4h0Z"/>
      <path class="cls-9" d="M60.33,69.05c-1.59,1.76-2.95,3.91-3.75,6.14-.3.83-.68,2.07-.17,2.9.23.37.58.56.96.73.16.07.46.12.57.26.2.24.1.81.12,1.11.11,2.28.33,4.72-.08,6.98-.18,1.01-.51,1.7-1.43,2.14s-.11,1.7.76,1.3c2.85-1.34,2.41-5.49,2.34-8.07-.02-.84-.06-1.69-.1-2.53-.03-.57.01-1.21-.32-1.71-.24-.36-.6-.56-.99-.73-.49-.22-.62-.24-.53-.83.36-2.37,2.11-4.88,3.68-6.62.65-.71-.41-1.78-1.06-1.06h0Z"/>
      <circle class="cls-2" cx="61.54" cy="65.09" r="4.08"/>
      <path class="cls-9" d="M43.75,68.99c.31,1.29.1,2.63.33,3.93s.8,2.48,1.05,3.76c.35,1.75.33,3.57-.33,5.24-.37.94-1,1.76-1.4,2.68-.9,2.07.99,3.65,2.02,5.23.53.81,1.83.05,1.3-.76-.58-.89-1.41-1.66-1.87-2.63-.34-.72-.13-1.19.22-1.81.58-1.03,1.15-2.04,1.46-3.19.47-1.74.38-3.57.01-5.32-.26-1.24-.85-2.42-1.03-3.67s-.01-2.58-.32-3.86c-.23-.94-1.67-.54-1.45.4h0Z"/>
      <path class="cls-9" d="M42.55,69.05c-1.59,1.76-2.95,3.91-3.75,6.14-.3.83-.68,2.07-.17,2.9.23.37.58.56.96.73.16.07.46.12.57.26.2.24.1.81.12,1.11.11,2.28.33,4.72-.08,6.98-.18,1.01-.51,1.7-1.43,2.14s-.11,1.7.76,1.3c2.85-1.34,2.41-5.49,2.34-8.07-.02-.84-.06-1.69-.1-2.53-.03-.57.01-1.21-.32-1.71-.24-.36-.6-.56-.99-.73-.49-.22-.62-.24-.53-.83.36-2.37,2.11-4.88,3.68-6.62.65-.71-.41-1.78-1.06-1.06h0Z"/>
      <circle class="cls-2" cx="43.76" cy="65.09" r="4.08"/>
      <path class="cls-9" d="M17.09,68.99c.31,1.29.1,2.63.33,3.93s.8,2.48,1.05,3.76c.35,1.75.33,3.57-.33,5.24-.37.94-1,1.76-1.4,2.68-.9,2.07.99,3.65,2.02,5.23.53.81,1.83.05,1.3-.76-.58-.89-1.41-1.66-1.87-2.63-.34-.72-.13-1.19.22-1.81.58-1.03,1.15-2.04,1.46-3.19.47-1.74.38-3.57.01-5.32-.26-1.24-.85-2.42-1.03-3.67s-.01-2.58-.32-3.86c-.23-.94-1.67-.54-1.45.4h0Z"/>
      <path class="cls-9" d="M15.88,69.05c-1.59,1.76-2.95,3.91-3.75,6.14-.3.83-.68,2.07-.17,2.9.23.37.58.56.96.73.16.07.46.12.57.26.2.24.1.81.12,1.11.11,2.28.33,4.72-.08,6.98-.18,1.01-.51,1.7-1.43,2.14s-.11,1.7.76,1.3c2.85-1.34,2.41-5.49,2.34-8.07-.02-.84-.06-1.69-.1-2.53-.03-.57.01-1.21-.32-1.71-.24-.36-.6-.56-.99-.73-.49-.22-.62-.24-.53-.83.36-2.37,2.11-4.88,3.68-6.62.65-.71-.41-1.78-1.06-1.06h0Z"/>
      <circle class="cls-2" cx="17.09" cy="65.09" r="4.08"/>
      <path class="cls-9" d="M123.76,68.99c.31,1.29.1,2.63.33,3.93s.8,2.48,1.05,3.76c.35,1.75.33,3.57-.33,5.24-.37.94-1,1.76-1.4,2.68-.9,2.07.99,3.65,2.02,5.23.53.81,1.83.05,1.3-.76-.58-.89-1.41-1.66-1.87-2.63-.34-.72-.13-1.19.22-1.81.58-1.03,1.15-2.04,1.46-3.19.47-1.74.38-3.57.01-5.32-.26-1.24-.85-2.42-1.03-3.67s-.01-2.58-.32-3.86c-.23-.94-1.67-.54-1.45.4h0Z"/>
      <path class="cls-9" d="M122.56,69.05c-1.59,1.76-2.95,3.91-3.75,6.14-.3.83-.68,2.07-.17,2.9.23.37.58.56.96.73.16.07.46.12.57.26.2.24.1.81.12,1.11.11,2.28.33,4.72-.08,6.98-.18,1.01-.51,1.7-1.43,2.14s-.11,1.7.76,1.3c2.85-1.34,2.41-5.49,2.34-8.07-.02-.84-.06-1.69-.1-2.53-.03-.57.01-1.21-.32-1.71-.24-.36-.6-.56-.99-.73-.49-.22-.62-.24-.53-.83.36-2.37,2.11-4.88,3.68-6.62.65-.71-.41-1.78-1.06-1.06h0Z"/>
      <circle class="cls-2" cx="123.76" cy="65.09" r="4.08"/>
      <path class="cls-9" d="M132.65,68.99c.31,1.29.1,2.63.33,3.93s.8,2.48,1.05,3.76c.35,1.75.33,3.57-.33,5.24-.37.94-1,1.76-1.4,2.68-.9,2.07.99,3.65,2.02,5.23.53.81,1.83.05,1.3-.76-.58-.89-1.41-1.66-1.87-2.63-.34-.72-.13-1.19.22-1.81.58-1.03,1.15-2.04,1.46-3.19.47-1.74.38-3.57.01-5.32-.26-1.24-.85-2.42-1.03-3.67s-.01-2.58-.32-3.86c-.23-.94-1.67-.54-1.45.4h0Z"/>
      <path class="cls-9" d="M131.44,69.05c-1.59,1.76-2.95,3.91-3.75,6.14-.3.83-.68,2.07-.17,2.9.23.37.58.56.96.73.16.07.46.12.57.26.2.24.1.81.12,1.11.11,2.28.33,4.72-.08,6.98-.18,1.01-.51,1.7-1.43,2.14s-.11,1.7.76,1.3c2.85-1.34,2.41-5.49,2.34-8.07-.02-.84-.06-1.69-.1-2.53-.03-.57.01-1.21-.32-1.71-.24-.36-.6-.56-.99-.73-.49-.22-.62-.24-.53-.83.36-2.37,2.11-4.88,3.68-6.62.65-.71-.41-1.78-1.06-1.06h0Z"/>
      <circle class="cls-2" cx="132.65" cy="65.09" r="4.08"/>
      <path class="cls-9" d="M177.1,68.99c.31,1.29.1,2.63.33,3.93s.8,2.48,1.05,3.76c.35,1.75.33,3.57-.33,5.24-.37.94-1,1.76-1.4,2.68-.9,2.07.99,3.65,2.02,5.23.53.81,1.83.05,1.3-.76-.58-.89-1.41-1.66-1.87-2.63-.34-.72-.13-1.19.22-1.81.58-1.03,1.15-2.04,1.46-3.19.47-1.74.38-3.57.01-5.32-.26-1.24-.85-2.42-1.03-3.67s-.01-2.58-.32-3.86c-.23-.94-1.67-.54-1.45.4h0Z"/>
      <path class="cls-9" d="M175.89,69.05c-1.59,1.76-2.95,3.91-3.75,6.14-.3.83-.68,2.07-.17,2.9.23.37.58.56.96.73.16.07.46.12.57.26.2.24.1.81.12,1.11.11,2.28.33,4.72-.08,6.98-.18,1.01-.51,1.7-1.43,2.14s-.11,1.7.76,1.3c2.85-1.34,2.41-5.49,2.34-8.07-.02-.84-.06-1.69-.1-2.53-.03-.57.01-1.21-.32-1.71-.24-.36-.6-.56-.99-.73-.49-.22-.62-.24-.53-.83.36-2.37,2.11-4.88,3.68-6.62.65-.71-.41-1.78-1.06-1.06h0Z"/>
      <circle class="cls-2" cx="177.1" cy="65.09" r="4.08"/>
      <path class="cls-9" d="M194.87,68.99c.31,1.29.1,2.63.33,3.93s.8,2.48,1.05,3.76c.35,1.75.33,3.57-.33,5.24-.37.94-1,1.76-1.4,2.68-.9,2.07.99,3.65,2.02,5.23.53.81,1.83.05,1.3-.76-.58-.89-1.41-1.66-1.87-2.63-.34-.72-.13-1.19.22-1.81.58-1.03,1.15-2.04,1.46-3.19.47-1.74.38-3.57.01-5.32-.26-1.24-.85-2.42-1.03-3.67s-.01-2.58-.32-3.86c-.23-.94-1.67-.54-1.45.4h0Z"/>
      <path class="cls-9" d="M193.67,69.05c-1.59,1.76-2.95,3.91-3.75,6.14-.3.83-.68,2.07-.17,2.9.23.37.58.56.96.73.16.07.46.12.57.26.2.24.1.81.12,1.11.11,2.28.33,4.72-.08,6.98-.18,1.01-.51,1.7-1.43,2.14s-.11,1.7.76,1.3c2.85-1.34,2.41-5.49,2.34-8.07-.02-.84-.06-1.69-.1-2.53-.03-.57.01-1.21-.32-1.71-.24-.36-.6-.56-.99-.73-.49-.22-.62-.24-.53-.83.36-2.37,2.11-4.88,3.68-6.62.65-.71-.41-1.78-1.06-1.06h0Z"/>
      <circle class="cls-2" cx="194.88" cy="65.09" r="4.08"/>
      <path class="cls-9" d="M212.65,68.99c.31,1.29.1,2.63.33,3.93s.8,2.48,1.05,3.76c.35,1.75.33,3.57-.33,5.24-.37.94-1,1.76-1.4,2.68-.9,2.07.99,3.65,2.02,5.23.53.81,1.83.05,1.3-.76-.58-.89-1.41-1.66-1.87-2.63-.34-.72-.13-1.19.22-1.81.58-1.03,1.15-2.04,1.46-3.19.47-1.74.38-3.57.01-5.32-.26-1.24-.85-2.42-1.03-3.67s-.01-2.58-.32-3.86c-.23-.94-1.67-.54-1.45.4h0Z"/>
      <path class="cls-9" d="M211.45,69.05c-1.59,1.76-2.95,3.91-3.75,6.14-.3.83-.68,2.07-.17,2.9.23.37.58.56.96.73.16.07.46.12.57.26.2.24.1.81.12,1.11.11,2.28.33,4.72-.08,6.98-.18,1.01-.51,1.7-1.43,2.14s-.11,1.7.76,1.3c2.85-1.34,2.41-5.49,2.34-8.07-.02-.84-.06-1.69-.1-2.53-.03-.57.01-1.21-.32-1.71-.24-.36-.6-.56-.99-.73-.49-.22-.62-.24-.53-.83.36-2.37,2.11-4.88,3.68-6.62.65-.71-.41-1.78-1.06-1.06h0Z"/>
      <circle class="cls-2" cx="212.66" cy="65.09" r="4.08"/>
      <path class="cls-9" d="M230.43,68.99c.31,1.29.1,2.63.33,3.93s.8,2.48,1.05,3.76c.35,1.75.33,3.57-.33,5.24-.37.94-1,1.76-1.4,2.68-.9,2.07.99,3.65,2.02,5.23.53.81,1.83.05,1.3-.76-.58-.89-1.41-1.66-1.87-2.63-.34-.72-.13-1.19.22-1.81.58-1.03,1.15-2.04,1.46-3.19.47-1.74.38-3.57.01-5.32-.26-1.24-.85-2.42-1.03-3.67s-.01-2.58-.32-3.86c-.23-.94-1.67-.54-1.45.4h0Z"/>
      <path class="cls-9" d="M229.23,69.05c-1.59,1.76-2.95,3.91-3.75,6.14-.3.83-.68,2.07-.17,2.9.23.37.58.56.96.73.16.07.46.12.57.26.2.24.1.81.12,1.11.11,2.28.33,4.72-.08,6.98-.18,1.01-.51,1.7-1.43,2.14s-.11,1.7.76,1.3c2.85-1.34,2.41-5.49,2.34-8.07-.02-.84-.06-1.69-.1-2.53-.03-.57.01-1.21-.32-1.71-.24-.36-.6-.56-.99-.73-.49-.22-.62-.24-.53-.83.36-2.37,2.11-4.88,3.68-6.62.65-.71-.41-1.78-1.06-1.06h0Z"/>
      <circle class="cls-2" cx="230.43" cy="65.09" r="4.08"/>
      <path class="cls-9" d="M265.99,68.99c.31,1.29.1,2.63.33,3.93s.8,2.48,1.05,3.76c.35,1.75.33,3.57-.33,5.24-.37.94-1,1.76-1.4,2.68-.9,2.07.99,3.65,2.02,5.23.53.81,1.83.05,1.3-.76-.58-.89-1.41-1.66-1.87-2.63-.34-.72-.13-1.19.22-1.81.58-1.03,1.15-2.04,1.46-3.19.47-1.74.38-3.57.01-5.32-.26-1.24-.85-2.42-1.03-3.67s-.01-2.58-.32-3.86c-.23-.94-1.67-.54-1.45.4h0Z"/>
      <path class="cls-9" d="M264.79,69.05c-1.59,1.76-2.95,3.91-3.75,6.14-.3.83-.68,2.07-.17,2.9.23.37.58.56.96.73.16.07.46.12.57.26.2.24.1.81.12,1.11.11,2.28.33,4.72-.08,6.98-.18,1.01-.51,1.7-1.43,2.14s-.11,1.7.76,1.3c2.85-1.34,2.41-5.49,2.34-8.07-.02-.84-.06-1.69-.1-2.53-.03-.57.01-1.21-.32-1.71-.24-.36-.6-.56-.99-.73-.49-.22-.62-.24-.53-.83.36-2.37,2.11-4.88,3.68-6.62.65-.71-.41-1.78-1.06-1.06h0Z"/>
      <circle class="cls-2" cx="265.99" cy="65.09" r="4.08"/>
      <path class="cls-9" d="M239.32,68.99c.31,1.29.1,2.63.33,3.93s.8,2.48,1.05,3.76c.35,1.75.33,3.57-.33,5.24-.37.94-1,1.76-1.4,2.68-.9,2.07.99,3.65,2.02,5.23.53.81,1.83.05,1.3-.76-.58-.89-1.41-1.66-1.87-2.63-.34-.72-.13-1.19.22-1.81.58-1.03,1.15-2.04,1.46-3.19.47-1.74.38-3.57.01-5.32-.26-1.24-.85-2.42-1.03-3.67s-.01-2.58-.32-3.86c-.23-.94-1.67-.54-1.45.4h0Z"/>
      <path class="cls-9" d="M238.12,69.05c-1.59,1.76-2.95,3.91-3.75,6.14-.3.83-.68,2.07-.17,2.9.23.37.58.56.96.73.16.07.46.12.57.26.2.24.1.81.12,1.11.11,2.28.33,4.72-.08,6.98-.18,1.01-.51,1.7-1.43,2.14s-.11,1.7.76,1.3c2.85-1.34,2.41-5.49,2.34-8.07-.02-.84-.06-1.69-.1-2.53-.03-.57.01-1.21-.32-1.71-.24-.36-.6-.56-.99-.73-.49-.22-.62-.24-.53-.83.36-2.37,2.11-4.88,3.68-6.62.65-.71-.41-1.78-1.06-1.06h0Z"/>
      <circle class="cls-2" cx="239.32" cy="65.09" r="4.08"/>
      <path class="cls-9" d="M105.98,68.99c.31,1.29.1,2.63.33,3.93s.8,2.48,1.05,3.76c.35,1.75.33,3.57-.33,5.24-.37.94-1,1.76-1.4,2.68-.9,2.07.99,3.65,2.02,5.23.53.81,1.83.05,1.3-.76-.58-.89-1.41-1.66-1.87-2.63-.34-.72-.13-1.19.22-1.81.58-1.03,1.15-2.04,1.46-3.19.47-1.74.38-3.57.01-5.32-.26-1.24-.85-2.42-1.03-3.67s-.01-2.58-.32-3.86c-.23-.94-1.67-.54-1.45.4h0Z"/>
      <path class="cls-9" d="M104.78,69.05c-1.59,1.76-2.95,3.91-3.75,6.14-.3.83-.68,2.07-.17,2.9.23.37.58.56.96.73.16.07.46.12.57.26.2.24.1.81.12,1.11.11,2.28.33,4.72-.08,6.98-.18,1.01-.51,1.7-1.43,2.14s-.11,1.7.76,1.3c2.85-1.34,2.41-5.49,2.34-8.07-.02-.84-.06-1.69-.1-2.53-.03-.57.01-1.21-.32-1.71-.24-.36-.6-.56-.99-.73-.49-.22-.62-.24-.53-.83.36-2.37,2.11-4.88,3.68-6.62.65-.71-.41-1.78-1.06-1.06h0Z"/>
      <circle class="cls-2" cx="105.98" cy="65.09" r="4.08"/>
      <path class="cls-9" d="M249.09,113.25c.92-3.41.44-6.62-.21-10.03-.35-1.81-.68-3.69-.4-5.53s1.19-3.39,2.13-4.93c.51-.82-.79-1.58-1.3-.76-.94,1.53-1.87,3.14-2.22,4.92-.32,1.6-.23,3.22,0,4.83.27,1.81.73,3.59.95,5.41.23,1.92.09,3.81-.41,5.68-.25.93,1.2,1.33,1.45.4h0Z"/>
      <path class="cls-9" d="M248.17,111.95c-1.22-1.33-2.61-2.88-2.79-4.76s.9-3.76,1.18-5.62c.51-3.43-.28-6.96-2.21-9.84-.54-.8-1.84-.05-1.3.76,2.21,3.29,2.68,7.22,1.51,10.97-.53,1.72-.99,3.41-.39,5.18s1.75,3.08,2.94,4.38c.65.71,1.71-.35,1.06-1.06h0Z"/>
      <circle class="cls-2" cx="247.65" cy="116.75" r="4.08"/>
      <path class="cls-9" d="M169.09,113.25c.92-3.41.44-6.62-.21-10.03-.35-1.81-.68-3.69-.4-5.53s1.19-3.39,2.13-4.93c.51-.82-.79-1.58-1.3-.76-.94,1.53-1.87,3.14-2.22,4.92-.32,1.6-.23,3.22,0,4.83.27,1.81.73,3.59.95,5.41.23,1.92.09,3.81-.41,5.68-.25.93,1.2,1.33,1.45.4h0Z"/>
      <path class="cls-9" d="M168.16,111.95c-1.22-1.33-2.61-2.88-2.79-4.76s.9-3.76,1.18-5.62c.51-3.43-.28-6.96-2.21-9.84-.54-.8-1.84-.05-1.3.76,2.21,3.29,2.68,7.22,1.51,10.97-.53,1.72-.99,3.41-.39,5.18s1.75,3.08,2.94,4.38c.65.71,1.71-.35,1.06-1.06h0Z"/>
      <circle class="cls-2" cx="167.64" cy="116.75" r="4.08"/>
      <path class="cls-9" d="M160.2,113.25c.92-3.41.44-6.62-.21-10.03-.35-1.81-.68-3.69-.4-5.53s1.19-3.39,2.13-4.93c.51-.82-.79-1.58-1.3-.76-.94,1.53-1.87,3.14-2.22,4.92-.32,1.6-.23,3.22,0,4.83.27,1.81.73,3.59.95,5.41.23,1.92.09,3.81-.41,5.68-.25.93,1.2,1.33,1.45.4h0Z"/>
      <path class="cls-9" d="M159.27,111.95c-1.22-1.33-2.61-2.88-2.79-4.76s.9-3.76,1.18-5.62c.51-3.43-.28-6.96-2.21-9.84-.54-.8-1.84-.05-1.3.76,2.21,3.29,2.68,7.22,1.51,10.97-.53,1.72-.99,3.41-.39,5.18s1.75,3.08,2.94,4.38c.65.71,1.71-.35,1.06-1.06h0Z"/>
      <circle class="cls-2" cx="158.75" cy="116.75" r="4.08"/>
      <path class="cls-9" d="M97.97,113.25c.92-3.41.44-6.62-.21-10.03-.35-1.81-.68-3.69-.4-5.53s1.19-3.39,2.13-4.93c.51-.82-.79-1.58-1.3-.76-.94,1.53-1.87,3.14-2.22,4.92-.32,1.6-.23,3.22,0,4.83.27,1.81.73,3.59.95,5.41.23,1.92.09,3.81-.41,5.68-.25.93,1.2,1.33,1.45.4h0Z"/>
      <path class="cls-9" d="M97.05,111.95c-1.22-1.33-2.61-2.88-2.79-4.76s.9-3.76,1.18-5.62c.51-3.43-.28-6.96-2.21-9.84-.54-.8-1.84-.05-1.3.76,2.21,3.29,2.68,7.22,1.51,10.97-.53,1.72-.99,3.41-.39,5.18s1.75,3.08,2.94,4.38c.65.71,1.71-.35,1.06-1.06h0Z"/>
      <circle class="cls-2" cx="96.53" cy="116.75" r="4.08"/>
      <path class="cls-9" d="M204.65,113.25c.92-3.41.44-6.62-.21-10.03-.35-1.81-.68-3.69-.4-5.53s1.19-3.39,2.13-4.93c.51-.82-.79-1.58-1.3-.76-.94,1.53-1.87,3.14-2.22,4.92-.32,1.6-.23,3.22,0,4.83.27,1.81.73,3.59.95,5.41.23,1.92.09,3.81-.41,5.68-.25.93,1.2,1.33,1.45.4h0Z"/>
      <path class="cls-9" d="M203.72,111.95c-1.22-1.33-2.61-2.88-2.79-4.76s.9-3.76,1.18-5.62c.51-3.43-.28-6.96-2.21-9.84-.54-.8-1.84-.05-1.3.76,2.21,3.29,2.68,7.22,1.51,10.97-.53,1.72-.99,3.41-.39,5.18s1.75,3.08,2.94,4.38c.65.71,1.71-.35,1.06-1.06h0Z"/>
      <circle class="cls-2" cx="203.2" cy="116.75" r="4.08"/>
      <path class="cls-9" d="M186.87,113.25c.92-3.41.44-6.62-.21-10.03-.35-1.81-.68-3.69-.4-5.53s1.19-3.39,2.13-4.93c.51-.82-.79-1.58-1.3-.76-.94,1.53-1.87,3.14-2.22,4.92-.32,1.6-.23,3.22,0,4.83.27,1.81.73,3.59.95,5.41.23,1.92.09,3.81-.41,5.68-.25.93,1.2,1.33,1.45.4h0Z"/>
      <path class="cls-9" d="M185.94,111.95c-1.22-1.33-2.61-2.88-2.79-4.76s.9-3.76,1.18-5.62c.51-3.43-.28-6.96-2.21-9.84-.54-.8-1.84-.05-1.3.76,2.21,3.29,2.68,7.22,1.51,10.97-.53,1.72-.99,3.41-.39,5.18s1.75,3.08,2.94,4.38c.65.71,1.71-.35,1.06-1.06h0Z"/>
      <circle class="cls-2" cx="185.42" cy="116.75" r="4.08"/>
      <path class="cls-9" d="M142.42,113.25c.92-3.41.44-6.62-.21-10.03-.35-1.81-.68-3.69-.4-5.53s1.19-3.39,2.13-4.93c.51-.82-.79-1.58-1.3-.76-.94,1.53-1.87,3.14-2.22,4.92-.32,1.6-.23,3.22,0,4.83.27,1.81.73,3.59.95,5.41.23,1.92.09,3.81-.41,5.68-.25.93,1.2,1.33,1.45.4h0Z"/>
      <path class="cls-9" d="M141.49,111.95c-1.22-1.33-2.61-2.88-2.79-4.76s.9-3.76,1.18-5.62c.51-3.43-.28-6.96-2.21-9.84-.54-.8-1.84-.05-1.3.76,2.21,3.29,2.68,7.22,1.51,10.97-.53,1.72-.99,3.41-.39,5.18s1.75,3.08,2.94,4.38c.65.71,1.71-.35,1.06-1.06h0Z"/>
      <circle class="cls-2" cx="140.98" cy="116.75" r="4.08"/>
      <path class="cls-9" d="M80.19,113.25c.92-3.41.44-6.62-.21-10.03-.35-1.81-.68-3.69-.4-5.53s1.19-3.39,2.13-4.93c.51-.82-.79-1.58-1.3-.76-.94,1.53-1.87,3.14-2.22,4.92-.32,1.6-.23,3.22,0,4.83.27,1.81.73,3.59.95,5.41.23,1.92.09,3.81-.41,5.68-.25.93,1.2,1.33,1.45.4h0Z"/>
      <path class="cls-9" d="M79.27,111.95c-1.22-1.33-2.61-2.88-2.79-4.76s.9-3.76,1.18-5.62c.51-3.43-.28-6.96-2.21-9.84-.54-.8-1.84-.05-1.3.76,2.21,3.29,2.68,7.22,1.51,10.97-.53,1.72-.99,3.41-.39,5.18s1.75,3.08,2.94,4.38c.65.71,1.71-.35,1.06-1.06h0Z"/>
      <circle class="cls-2" cx="78.75" cy="116.75" r="4.08"/>
      <path class="cls-9" d="M53.53,113.25c.92-3.41.44-6.62-.21-10.03-.35-1.81-.68-3.69-.4-5.53s1.19-3.39,2.13-4.93c.51-.82-.79-1.58-1.3-.76-.94,1.53-1.87,3.14-2.22,4.92-.32,1.6-.23,3.22,0,4.83.27,1.81.73,3.59.95,5.41.23,1.92.09,3.81-.41,5.68-.25.93,1.2,1.33,1.45.4h0Z"/>
      <path class="cls-9" d="M52.6,111.95c-1.22-1.33-2.61-2.88-2.79-4.76s.9-3.76,1.18-5.62c.51-3.43-.28-6.96-2.21-9.84-.54-.8-1.84-.05-1.3.76,2.21,3.29,2.68,7.22,1.51,10.97-.53,1.72-.99,3.41-.39,5.18s1.75,3.08,2.94,4.38c.65.71,1.71-.35,1.06-1.06h0Z"/>
      <circle class="cls-2" cx="52.08" cy="116.75" r="4.08"/>
      <path class="cls-9" d="M26.86,113.25c.92-3.41.44-6.62-.21-10.03-.35-1.81-.68-3.69-.4-5.53s1.19-3.39,2.13-4.93c.51-.82-.79-1.58-1.3-.76-.94,1.53-1.87,3.14-2.22,4.92-.32,1.6-.23,3.22,0,4.83.27,1.81.73,3.59.95,5.41.23,1.92.09,3.81-.41,5.68-.25.93,1.2,1.33,1.45.4h0Z"/>
      <path class="cls-9" d="M25.93,111.95c-1.22-1.33-2.61-2.88-2.79-4.76s.9-3.76,1.18-5.62c.51-3.43-.28-6.96-2.21-9.84-.54-.8-1.84-.05-1.3.76,2.21,3.29,2.68,7.22,1.51,10.97-.53,1.72-.99,3.41-.39,5.18s1.75,3.08,2.94,4.38c.65.71,1.71-.35,1.06-1.06h0Z"/>
      <circle class="cls-2" cx="25.41" cy="116.75" r="4.08"/>
      <path class="cls-9" d="M36.37,113.25c.26-1.09.18-2.18.24-3.29.08-1.33.76-2.54,1.08-3.83.49-1.9.63-3.92.2-5.85-.3-1.35-.91-2.65-1.83-3.69-.18-.2-.44-.36-.45-.63-.01-.36.45-.87.65-1.14.53-.69,1.14-1.33,1.62-2.06.53-.81-.77-1.56-1.3-.76-.8,1.22-2.56,2.5-2.49,4.11.03.72.52,1.09.95,1.6.46.53.81,1.17,1.06,1.83.7,1.86.66,3.93.21,5.84-.29,1.25-.93,2.43-1.13,3.69s.02,2.53-.28,3.77c-.22.94,1.22,1.34,1.45.4h0Z"/>
      <path class="cls-9" d="M35.45,111.95c-1.17-1.33-1.09-2.9-1.13-4.57-.02-.84-.22-1.59-.47-2.38-.3-.94-.37-1.58-.18-2.55.26-1.36.13-2.68-.55-3.89-.78-1.39-1.96-2.54-2.88-3.83-.55-.78-1.85-.04-1.3.76.91,1.3,2.1,2.45,2.88,3.83.33.6.51,1.24.49,1.93-.02.87-.39,1.67-.3,2.55.08.82.41,1.59.63,2.38.23.83.17,1.67.19,2.53.05,1.65.44,3.06,1.55,4.31.64.73,1.7-.34,1.06-1.06h0Z"/>
      <circle class="cls-2" cx="34.93" cy="116.75" r="4.08"/>
      <path class="cls-9" d="M89.71,113.25c.26-1.09.18-2.18.24-3.29.08-1.33.76-2.54,1.08-3.83.49-1.9.63-3.92.2-5.85-.3-1.35-.91-2.65-1.83-3.69-.18-.2-.44-.36-.45-.63-.01-.36.45-.87.65-1.14.53-.69,1.14-1.33,1.62-2.06.53-.81-.77-1.56-1.3-.76-.8,1.22-2.56,2.5-2.49,4.11.03.72.52,1.09.95,1.6.46.53.81,1.17,1.06,1.83.7,1.86.66,3.93.21,5.84-.29,1.25-.93,2.43-1.13,3.69s.02,2.53-.28,3.77c-.22.94,1.22,1.34,1.45.4h0Z"/>
      <path class="cls-9" d="M88.78,111.95c-1.17-1.33-1.09-2.9-1.13-4.57-.02-.84-.22-1.59-.47-2.38-.3-.94-.37-1.58-.18-2.55.26-1.36.13-2.68-.55-3.89-.78-1.39-1.96-2.54-2.88-3.83-.55-.78-1.85-.04-1.3.76.91,1.3,2.1,2.45,2.88,3.83.33.6.51,1.24.49,1.93-.02.87-.39,1.67-.3,2.55.08.82.41,1.59.63,2.38.23.83.17,1.67.19,2.53.05,1.65.44,3.06,1.55,4.31.64.73,1.7-.34,1.06-1.06h0Z"/>
      <circle class="cls-2" cx="88.27" cy="116.75" r="4.08"/>
      <path class="cls-9" d="M116.38,113.25c.26-1.09.18-2.18.24-3.29.08-1.33.76-2.54,1.08-3.83.49-1.9.63-3.92.2-5.85-.3-1.35-.91-2.65-1.83-3.69-.18-.2-.44-.36-.45-.63-.01-.36.45-.87.65-1.14.53-.69,1.14-1.33,1.62-2.06.53-.81-.77-1.56-1.3-.76-.8,1.22-2.56,2.5-2.49,4.11.03.72.52,1.09.95,1.6.46.53.81,1.17,1.06,1.83.7,1.86.66,3.93.21,5.84-.29,1.25-.93,2.43-1.13,3.69s.02,2.53-.28,3.77c-.22.94,1.22,1.34,1.45.4h0Z"/>
      <path class="cls-9" d="M115.45,111.95c-1.17-1.33-1.09-2.9-1.13-4.57-.02-.84-.22-1.59-.47-2.38-.3-.94-.37-1.58-.18-2.55.26-1.36.13-2.68-.55-3.89-.78-1.39-1.96-2.54-2.88-3.83-.55-.78-1.85-.04-1.3.76.91,1.3,2.1,2.45,2.88,3.83.33.6.51,1.24.49,1.93-.02.87-.39,1.67-.3,2.55.08.82.41,1.59.63,2.38.23.83.17,1.67.19,2.53.05,1.65.44,3.06,1.55,4.31.64.73,1.7-.34,1.06-1.06h0Z"/>
      <circle class="cls-2" cx="114.93" cy="116.75" r="4.08"/>
      <path class="cls-9" d="M151.94,113.25c.26-1.09.18-2.18.24-3.29.08-1.33.76-2.54,1.08-3.83.49-1.9.63-3.92.2-5.85-.3-1.35-.91-2.65-1.83-3.69-.18-.2-.44-.36-.45-.63-.01-.36.45-.87.65-1.14.53-.69,1.14-1.33,1.62-2.06.53-.81-.77-1.56-1.3-.76-.8,1.22-2.56,2.5-2.49,4.11.03.72.52,1.09.95,1.6.46.53.81,1.17,1.06,1.83.7,1.86.66,3.93.21,5.84-.29,1.25-.93,2.43-1.13,3.69s.02,2.53-.28,3.77c-.22.94,1.22,1.34,1.45.4h0Z"/>
      <path class="cls-9" d="M151.01,111.95c-1.17-1.33-1.09-2.9-1.13-4.57-.02-.84-.22-1.59-.47-2.38-.3-.94-.37-1.58-.18-2.55.26-1.36.13-2.68-.55-3.89-.78-1.39-1.96-2.54-2.88-3.83-.55-.78-1.85-.04-1.3.76.91,1.3,2.1,2.45,2.88,3.83.33.6.51,1.24.49,1.93-.02.87-.39,1.67-.3,2.55.08.82.41,1.59.63,2.38.23.83.17,1.67.19,2.53.05,1.65.44,3.06,1.55,4.31.64.73,1.7-.34,1.06-1.06h0Z"/>
      <circle class="cls-2" cx="150.49" cy="116.75" r="4.08"/>
      <path class="cls-9" d="M223.05,113.25c.26-1.09.18-2.18.24-3.29.08-1.33.76-2.54,1.08-3.83.49-1.9.63-3.92.2-5.85-.3-1.35-.91-2.65-1.83-3.69-.18-.2-.44-.36-.45-.63-.01-.36.45-.87.65-1.14.53-.69,1.14-1.33,1.62-2.06.53-.81-.77-1.56-1.3-.76-.8,1.22-2.56,2.5-2.49,4.11.03.72.52,1.09.95,1.6.46.53.81,1.17,1.06,1.83.7,1.86.66,3.93.21,5.84-.29,1.25-.93,2.43-1.13,3.69s.02,2.53-.28,3.77c-.22.94,1.22,1.34,1.45.4h0Z"/>
      <path class="cls-9" d="M222.12,111.95c-1.17-1.33-1.09-2.9-1.13-4.57-.02-.84-.22-1.59-.47-2.38-.3-.94-.37-1.58-.18-2.55.26-1.36.13-2.68-.55-3.89-.78-1.39-1.96-2.54-2.88-3.83-.55-.78-1.85-.04-1.3.76.91,1.3,2.1,2.45,2.88,3.83.33.6.51,1.24.49,1.93-.02.87-.39,1.67-.3,2.55.08.82.41,1.59.63,2.38.23.83.17,1.67.19,2.53.05,1.65.44,3.06,1.55,4.31.64.73,1.7-.34,1.06-1.06h0Z"/>
      <circle class="cls-2" cx="221.61" cy="116.75" r="4.08"/>
      <path class="cls-9" d="M258.61,113.25c.26-1.09.18-2.18.24-3.29.08-1.33.76-2.54,1.08-3.83.49-1.9.63-3.92.2-5.85-.3-1.35-.91-2.65-1.83-3.69-.18-.2-.44-.36-.45-.63-.01-.36.45-.87.65-1.14.53-.69,1.14-1.33,1.62-2.06.53-.81-.77-1.56-1.3-.76-.8,1.22-2.56,2.5-2.49,4.11.03.72.52,1.09.95,1.6.46.53.81,1.17,1.06,1.83.7,1.86.66,3.93.21,5.84-.29,1.25-.93,2.43-1.13,3.69s.02,2.53-.28,3.77c-.22.94,1.22,1.34,1.45.4h0Z"/>
      <path class="cls-9" d="M257.68,111.95c-1.17-1.33-1.09-2.9-1.13-4.57-.02-.84-.22-1.59-.47-2.38-.3-.94-.37-1.58-.18-2.55.26-1.36.13-2.68-.55-3.89-.78-1.39-1.96-2.54-2.88-3.83-.55-.78-1.85-.04-1.3.76.91,1.3,2.1,2.45,2.88,3.83.33.6.51,1.24.49,1.93-.02.87-.39,1.67-.3,2.55.08.82.41,1.59.63,2.38.23.83.17,1.67.19,2.53.05,1.65.44,3.06,1.55,4.31.64.73,1.7-.34,1.06-1.06h0Z"/>
      <circle class="cls-2" cx="257.16" cy="116.75" r="4.08"/>
      <path class="cls-9" d="M9.71,113.25c.26-1.09.18-2.18.24-3.29.08-1.33.76-2.54,1.08-3.83.49-1.9.63-3.92.2-5.85-.3-1.35-.91-2.65-1.83-3.69-.18-.2-.44-.36-.45-.63-.01-.36.45-.87.65-1.14.53-.69,1.14-1.33,1.62-2.06.53-.81-.77-1.56-1.3-.76-.8,1.22-2.56,2.5-2.49,4.11.03.72.52,1.09.95,1.6.46.53.81,1.17,1.06,1.83.7,1.86.66,3.93.21,5.84-.29,1.25-.93,2.43-1.13,3.69s.02,2.53-.28,3.77c-.22.94,1.22,1.34,1.45.4h0Z"/>
      <path class="cls-9" d="M8.78,111.95c-1.17-1.33-1.09-2.9-1.13-4.57-.02-.84-.22-1.59-.47-2.38-.3-.94-.37-1.58-.18-2.55.26-1.36.13-2.68-.55-3.89-.78-1.39-1.96-2.54-2.88-3.83-.55-.78-1.85-.04-1.3.76.91,1.3,2.1,2.45,2.88,3.83.33.6.51,1.24.49,1.93-.02.87-.39,1.67-.3,2.55.08.82.41,1.59.63,2.38.23.83.17,1.67.19,2.53.05,1.65.44,3.06,1.55,4.31.64.73,1.7-.34,1.06-1.06h0Z"/>
      <circle class="cls-2" cx="8.26" cy="116.75" r="4.08"/>
      <path class="cls-9" d="M71.93,113.25c.26-1.09.18-2.18.24-3.29.08-1.33.76-2.54,1.08-3.83.49-1.9.63-3.92.2-5.85-.3-1.35-.91-2.65-1.83-3.69-.18-.2-.44-.36-.45-.63-.01-.36.45-.87.65-1.14.53-.69,1.14-1.33,1.62-2.06.53-.81-.77-1.56-1.3-.76-.8,1.22-2.56,2.5-2.49,4.11.03.72.52,1.09.95,1.6.46.53.81,1.17,1.06,1.83.7,1.86.66,3.93.21,5.84-.29,1.25-.93,2.43-1.13,3.69s.02,2.53-.28,3.77c-.22.94,1.22,1.34,1.45.4h0Z"/>
      <path class="cls-9" d="M71,111.95c-1.17-1.33-1.09-2.9-1.13-4.57-.02-.84-.22-1.59-.47-2.38-.3-.94-.37-1.58-.18-2.55.26-1.36.13-2.68-.55-3.89-.78-1.39-1.96-2.54-2.88-3.83-.55-.78-1.85-.04-1.3.76.91,1.3,2.1,2.45,2.88,3.83.33.6.51,1.24.49,1.93-.02.87-.39,1.67-.3,2.55.08.82.41,1.59.63,2.38.23.83.17,1.67.19,2.53.05,1.65.44,3.06,1.55,4.31.64.73,1.7-.34,1.06-1.06h0Z"/>
      <circle class="cls-2" cx="70.49" cy="116.75" r="4.08"/>
      <path class="cls-9" d="M62.68,113.25c.29-1.2.17-2.41.29-3.62.13-1.33.79-2.6,1.06-3.91.36-1.75.46-3.58-.01-5.32-.31-1.15-.88-2.16-1.46-3.19-.31-.56-.56-1-.29-1.65.43-1.04,1.32-1.86,1.93-2.79.53-.81-.77-1.56-1.3-.76-1,1.53-2.89,3.12-2.06,5.14.4.96,1.05,1.8,1.44,2.77.64,1.62.68,3.39.36,5.08-.24,1.28-.8,2.47-1.06,3.74-.28,1.35-.03,2.75-.35,4.1-.23.94,1.22,1.34,1.45.4h0Z"/>
      <path class="cls-9" d="M61.09,111.73c-1.58-1.75-3.32-4.25-3.68-6.62-.09-.61.03-.6.53-.83.39-.18.74-.37.99-.73.33-.5.29-1.14.32-1.71.04-.84.07-1.69.1-2.53.07-2.58.51-6.72-2.34-8.07-.87-.41-1.63.88-.76,1.3s1.23,1.08,1.42,2.06c.44,2.28.2,4.76.09,7.06-.03.75.06,1.03-.61,1.34-.38.17-.73.33-.98.69-.57.8-.22,2.01.07,2.85.78,2.28,2.18,4.48,3.79,6.26.65.72,1.71-.35,1.06-1.06h0Z"/>
      <circle class="cls-2" cx="61.24" cy="116.75" r="4.08"/>
      <path class="cls-9" d="M44.9,113.25c.29-1.2.17-2.41.29-3.62.13-1.33.79-2.6,1.06-3.91.36-1.75.46-3.58-.01-5.32-.31-1.15-.88-2.16-1.46-3.19-.31-.56-.56-1-.29-1.65.43-1.04,1.32-1.86,1.93-2.79.53-.81-.77-1.56-1.3-.76-1,1.53-2.89,3.12-2.06,5.14.4.96,1.05,1.8,1.44,2.77.64,1.62.68,3.39.36,5.08-.24,1.28-.8,2.47-1.06,3.74-.28,1.35-.03,2.75-.35,4.1-.23.94,1.22,1.34,1.45.4h0Z"/>
      <path class="cls-9" d="M43.31,111.73c-1.58-1.75-3.32-4.25-3.68-6.62-.09-.61.03-.6.53-.83.39-.18.74-.37.99-.73.33-.5.29-1.14.32-1.71.04-.84.07-1.69.1-2.53.07-2.58.51-6.72-2.34-8.07-.87-.41-1.63.88-.76,1.3s1.23,1.08,1.42,2.06c.44,2.28.2,4.76.09,7.06-.03.75.06,1.03-.61,1.34-.38.17-.73.33-.98.69-.57.8-.22,2.01.07,2.85.78,2.28,2.18,4.48,3.79,6.26.65.72,1.71-.35,1.06-1.06h0Z"/>
      <circle class="cls-2" cx="43.46" cy="116.75" r="4.08"/>
      <path class="cls-9" d="M18.24,113.25c.29-1.2.17-2.41.29-3.62.13-1.33.79-2.6,1.06-3.91.36-1.75.46-3.58-.01-5.32-.31-1.15-.88-2.16-1.46-3.19-.31-.56-.56-1-.29-1.65.43-1.04,1.32-1.86,1.93-2.79.53-.81-.77-1.56-1.3-.76-1,1.53-2.89,3.12-2.06,5.14.4.96,1.05,1.8,1.44,2.77.64,1.62.68,3.39.36,5.08-.24,1.28-.8,2.47-1.06,3.74-.28,1.35-.03,2.75-.35,4.1-.23.94,1.22,1.34,1.45.4h0Z"/>
      <path class="cls-9" d="M16.65,111.73c-1.58-1.75-3.32-4.25-3.68-6.62-.09-.61.03-.6.53-.83.39-.18.74-.37.99-.73.33-.5.29-1.14.32-1.71.04-.84.07-1.69.1-2.53.07-2.58.51-6.72-2.34-8.07-.87-.41-1.63.88-.76,1.3s1.23,1.08,1.42,2.06c.44,2.28.2,4.76.09,7.06-.03.75.06,1.03-.61,1.34-.38.17-.73.33-.98.69-.57.8-.22,2.01.07,2.85.78,2.28,2.18,4.48,3.79,6.26.65.72,1.71-.35,1.06-1.06h0Z"/>
      <circle class="cls-2" cx="16.79" cy="116.75" r="4.08"/>
      <path class="cls-9" d="M124.91,113.25c.29-1.2.17-2.41.29-3.62.13-1.33.79-2.6,1.06-3.91.36-1.75.46-3.58-.01-5.32-.31-1.15-.88-2.16-1.46-3.19-.31-.56-.56-1-.29-1.65.43-1.04,1.32-1.86,1.93-2.79.53-.81-.77-1.56-1.3-.76-1,1.53-2.89,3.12-2.06,5.14.4.96,1.05,1.8,1.44,2.77.64,1.62.68,3.39.36,5.08-.24,1.28-.8,2.47-1.06,3.74-.28,1.35-.03,2.75-.35,4.1-.23.94,1.22,1.34,1.45.4h0Z"/>
      <path class="cls-9" d="M123.32,111.73c-1.58-1.75-3.32-4.25-3.68-6.62-.09-.61.03-.6.53-.83.39-.18.74-.37.99-.73.33-.5.29-1.14.32-1.71.04-.84.07-1.69.1-2.53.07-2.58.51-6.72-2.34-8.07-.87-.41-1.63.88-.76,1.3s1.23,1.08,1.42,2.06c.44,2.28.2,4.76.09,7.06-.03.75.06,1.03-.61,1.34-.38.17-.73.33-.98.69-.57.8-.22,2.01.07,2.85.78,2.28,2.18,4.48,3.79,6.26.65.72,1.71-.35,1.06-1.06h0Z"/>
      <circle class="cls-2" cx="123.46" cy="116.75" r="4.08"/>
      <path class="cls-9" d="M133.8,113.25c.29-1.2.17-2.41.29-3.62.13-1.33.79-2.6,1.06-3.91.36-1.75.46-3.58-.01-5.32-.31-1.15-.88-2.16-1.46-3.19-.31-.56-.56-1-.29-1.65.43-1.04,1.32-1.86,1.93-2.79.53-.81-.77-1.56-1.3-.76-1,1.53-2.89,3.12-2.06,5.14.4.96,1.05,1.8,1.44,2.77.64,1.62.68,3.39.36,5.08-.24,1.28-.8,2.47-1.06,3.74-.28,1.35-.03,2.75-.35,4.1-.23.94,1.22,1.34,1.45.4h0Z"/>
      <path class="cls-9" d="M132.21,111.73c-1.58-1.75-3.32-4.25-3.68-6.62-.09-.61.03-.6.53-.83.39-.18.74-.37.99-.73.33-.5.29-1.14.32-1.71.04-.84.07-1.69.1-2.53.07-2.58.51-6.72-2.34-8.07-.87-.41-1.63.88-.76,1.3s1.23,1.08,1.42,2.06c.44,2.28.2,4.76.09,7.06-.03.75.06,1.03-.61,1.34-.38.17-.73.33-.98.69-.57.8-.22,2.01.07,2.85.78,2.28,2.18,4.48,3.79,6.26.65.72,1.71-.35,1.06-1.06h0Z"/>
      <circle class="cls-2" cx="132.35" cy="116.75" r="4.08"/>
      <path class="cls-9" d="M178.24,113.25c.29-1.2.17-2.41.29-3.62.13-1.33.79-2.6,1.06-3.91.36-1.75.46-3.58-.01-5.32-.31-1.15-.88-2.16-1.46-3.19-.31-.56-.56-1-.29-1.65.43-1.04,1.32-1.86,1.93-2.79.53-.81-.77-1.56-1.3-.76-1,1.53-2.89,3.12-2.06,5.14.4.96,1.05,1.8,1.44,2.77.64,1.62.68,3.39.36,5.08-.24,1.28-.8,2.47-1.06,3.74-.28,1.35-.03,2.75-.35,4.1-.23.94,1.22,1.34,1.45.4h0Z"/>
      <path class="cls-9" d="M176.65,111.73c-1.58-1.75-3.32-4.25-3.68-6.62-.09-.61.03-.6.53-.83.39-.18.74-.37.99-.73.33-.5.29-1.14.32-1.71.04-.84.07-1.69.1-2.53.07-2.58.51-6.72-2.34-8.07-.87-.41-1.63.88-.76,1.3s1.23,1.08,1.42,2.06c.44,2.28.2,4.76.09,7.06-.03.75.06,1.03-.61,1.34-.38.17-.73.33-.98.69-.57.8-.22,2.01.07,2.85.78,2.28,2.18,4.48,3.79,6.26.65.72,1.71-.35,1.06-1.06h0Z"/>
      <circle class="cls-2" cx="176.8" cy="116.75" r="4.08"/>
      <path class="cls-9" d="M196.02,113.25c.29-1.2.17-2.41.29-3.62.13-1.33.79-2.6,1.06-3.91.36-1.75.46-3.58-.01-5.32-.31-1.15-.88-2.16-1.46-3.19-.31-.56-.56-1-.29-1.65.43-1.04,1.32-1.86,1.93-2.79.53-.81-.77-1.56-1.3-.76-1,1.53-2.89,3.12-2.06,5.14.4.96,1.05,1.8,1.44,2.77.64,1.62.68,3.39.36,5.08-.24,1.28-.8,2.47-1.06,3.74-.28,1.35-.03,2.75-.35,4.1-.23.94,1.22,1.34,1.45.4h0Z"/>
      <path class="cls-9" d="M194.43,111.73c-1.58-1.75-3.32-4.25-3.68-6.62-.09-.61.03-.6.53-.83.39-.18.74-.37.99-.73.33-.5.29-1.14.32-1.71.04-.84.07-1.69.1-2.53.07-2.58.51-6.72-2.34-8.07-.87-.41-1.63.88-.76,1.3s1.23,1.08,1.42,2.06c.44,2.28.2,4.76.09,7.06-.03.75.06,1.03-.61,1.34-.38.17-.73.33-.98.69-.57.8-.22,2.01.07,2.85.78,2.28,2.18,4.48,3.79,6.26.65.72,1.71-.35,1.06-1.06h0Z"/>
      <circle class="cls-2" cx="194.58" cy="116.75" r="4.08"/>
      <path class="cls-9" d="M213.8,113.25c.29-1.2.17-2.41.29-3.62.13-1.33.79-2.6,1.06-3.91.36-1.75.46-3.58-.01-5.32-.31-1.15-.88-2.16-1.46-3.19-.31-.56-.56-1-.29-1.65.43-1.04,1.32-1.86,1.93-2.79.53-.81-.77-1.56-1.3-.76-1,1.53-2.89,3.12-2.06,5.14.4.96,1.05,1.8,1.44,2.77.64,1.62.68,3.39.36,5.08-.24,1.28-.8,2.47-1.06,3.74-.28,1.35-.03,2.75-.35,4.1-.23.94,1.22,1.34,1.45.4h0Z"/>
      <path class="cls-9" d="M212.21,111.73c-1.58-1.75-3.32-4.25-3.68-6.62-.09-.61.03-.6.53-.83.39-.18.74-.37.99-.73.33-.5.29-1.14.32-1.71.04-.84.07-1.69.1-2.53.07-2.58.51-6.72-2.34-8.07-.87-.41-1.63.88-.76,1.3s1.23,1.08,1.42,2.06c.44,2.28.2,4.76.09,7.06-.03.75.06,1.03-.61,1.34-.38.17-.73.33-.98.69-.57.8-.22,2.01.07,2.85.78,2.28,2.18,4.48,3.79,6.26.65.72,1.71-.35,1.06-1.06h0Z"/>
      <circle class="cls-2" cx="212.36" cy="116.75" r="4.08"/>
      <path class="cls-9" d="M231.58,113.25c.29-1.2.17-2.41.29-3.62.13-1.33.79-2.6,1.06-3.91.36-1.75.46-3.58-.01-5.32-.31-1.15-.88-2.16-1.46-3.19-.31-.56-.56-1-.29-1.65.43-1.04,1.32-1.86,1.93-2.79.53-.81-.77-1.56-1.3-.76-1,1.53-2.89,3.12-2.06,5.14.4.96,1.05,1.8,1.44,2.77.64,1.62.68,3.39.36,5.08-.24,1.28-.8,2.47-1.06,3.74-.28,1.35-.03,2.75-.35,4.1-.23.94,1.22,1.34,1.45.4h0Z"/>
      <path class="cls-9" d="M229.99,111.73c-1.58-1.75-3.32-4.25-3.68-6.62-.09-.61.03-.6.53-.83.39-.18.74-.37.99-.73.33-.5.29-1.14.32-1.71.04-.84.07-1.69.1-2.53.07-2.58.51-6.72-2.34-8.07-.87-.41-1.63.88-.76,1.3s1.23,1.08,1.42,2.06c.44,2.28.2,4.76.09,7.06-.03.75.06,1.03-.61,1.34-.38.17-.73.33-.98.69-.57.8-.22,2.01.07,2.85.78,2.28,2.18,4.48,3.79,6.26.65.72,1.71-.35,1.06-1.06h0Z"/>
      <circle class="cls-2" cx="230.14" cy="116.75" r="4.08"/>
      <path class="cls-9" d="M267.14,113.25c.29-1.2.17-2.41.29-3.62.13-1.33.79-2.6,1.06-3.91.36-1.75.46-3.58-.01-5.32-.31-1.15-.88-2.16-1.46-3.19-.31-.56-.56-1-.29-1.65.43-1.04,1.32-1.86,1.93-2.79.53-.81-.77-1.56-1.3-.76-1,1.53-2.89,3.12-2.06,5.14.4.96,1.05,1.8,1.44,2.77.64,1.62.68,3.39.36,5.08-.24,1.28-.8,2.47-1.06,3.74-.28,1.35-.03,2.75-.35,4.1-.23.94,1.22,1.34,1.45.4h0Z"/>
      <path class="cls-9" d="M265.55,111.73c-1.58-1.75-3.32-4.25-3.68-6.62-.09-.61.03-.6.53-.83.39-.18.74-.37.99-.73.33-.5.29-1.14.32-1.71.04-.84.07-1.69.1-2.53.07-2.58.51-6.72-2.34-8.07-.87-.41-1.63.88-.76,1.3s1.23,1.08,1.42,2.06c.44,2.28.2,4.76.09,7.06-.03.75.06,1.03-.61,1.34-.38.17-.73.33-.98.69-.57.8-.22,2.01.07,2.85.78,2.28,2.18,4.48,3.79,6.26.65.72,1.71-.35,1.06-1.06h0Z"/>
      <circle class="cls-2" cx="265.69" cy="116.75" r="4.08"/>
      <path class="cls-9" d="M240.47,113.25c.29-1.2.17-2.41.29-3.62.13-1.33.79-2.6,1.06-3.91.36-1.75.46-3.58-.01-5.32-.31-1.15-.88-2.16-1.46-3.19-.31-.56-.56-1-.29-1.65.43-1.04,1.32-1.86,1.93-2.79.53-.81-.77-1.56-1.3-.76-1,1.53-2.89,3.12-2.06,5.14.4.96,1.05,1.8,1.44,2.77.64,1.62.68,3.39.36,5.08-.24,1.28-.8,2.47-1.06,3.74-.28,1.35-.03,2.75-.35,4.1-.23.94,1.22,1.34,1.45.4h0Z"/>
      <path class="cls-9" d="M238.88,111.73c-1.58-1.75-3.32-4.25-3.68-6.62-.09-.61.03-.6.53-.83.39-.18.74-.37.99-.73.33-.5.29-1.14.32-1.71.04-.84.07-1.69.1-2.53.07-2.58.51-6.72-2.34-8.07-.87-.41-1.63.88-.76,1.3s1.23,1.08,1.42,2.06c.44,2.28.2,4.76.09,7.06-.03.75.06,1.03-.61,1.34-.38.17-.73.33-.98.69-.57.8-.22,2.01.07,2.85.78,2.28,2.18,4.48,3.79,6.26.65.72,1.71-.35,1.06-1.06h0Z"/>
      <circle class="cls-2" cx="239.03" cy="116.75" r="4.08"/>
      <path class="cls-9" d="M107.13,113.25c.29-1.2.17-2.41.29-3.62.13-1.33.79-2.6,1.06-3.91.36-1.75.46-3.58-.01-5.32-.31-1.15-.88-2.16-1.46-3.19-.31-.56-.56-1-.29-1.65.43-1.04,1.32-1.86,1.93-2.79.53-.81-.77-1.56-1.3-.76-1,1.53-2.89,3.12-2.06,5.14.4.96,1.05,1.8,1.44,2.77.64,1.62.68,3.39.36,5.08-.24,1.28-.8,2.47-1.06,3.74-.28,1.35-.03,2.75-.35,4.1-.23.94,1.22,1.34,1.45.4h0Z"/>
      <path class="cls-9" d="M105.54,111.73c-1.58-1.75-3.32-4.25-3.68-6.62-.09-.61.03-.6.53-.83.39-.18.74-.37.99-.73.33-.5.29-1.14.32-1.71.04-.84.07-1.69.1-2.53.07-2.58.51-6.72-2.34-8.07-.87-.41-1.63.88-.76,1.3s1.23,1.08,1.42,2.06c.44,2.28.2,4.76.09,7.06-.03.75.06,1.03-.61,1.34-.38.17-.73.33-.98.69-.57.8-.22,2.01.07,2.85.78,2.28,2.18,4.48,3.79,6.26.65.72,1.71-.35,1.06-1.06h0Z"/>
      <circle class="cls-2" cx="105.68" cy="116.75" r="4.08"/>
    </g>
    <g>
      <path class="cls-6" d="M65.1,127.88c-3.53,2.76-8.99,3.1-13.18,2.1-3.44-.86-6.26-2.74-7.54-6.78-1.2-3.82-1.19-8.6-1.25-12.88-.04-11.05,0-23.87-.01-34.67.11-5.53-1.48-14.73,2.45-18.19,5.14-4.53,13.62-5.06,18.49-1.6,2,1.43,2.61,1.31,3.93,3.49,1.8,2.95,1.23,6.26,1.36,10.15.14,7.32.05,15.33.07,23.08,0,6.5.02,12.36-.02,18.18-.17,6.71.05,13.56-4.3,17.11h-.01s0,0,0,0Z"/>
      <g>
        <path class="cls-7" d="M47.25,74.81c.08,8.95-.65,23.29-.84,31.79-.03,1.57-.02,3.06.13,4.6.25,3.42,4.31,17.01,1.23,19.24-.84.61-4.74-5.44-6.14-5.3-1.89.17-4.06.13-6.01.09-3.25-.14-6.47-.2-7.38-3.6-1.13-2.82-1.19-9.73.02-14.94,1.09-4.69,5.01-5.78.18-14-4.84-8.25-3.12-26.7,2.61-34.81,1.98-2.76,5.61,1.01,9.03,1.15,2.45.13,6.97-7.37,8.18-5.18,1.11,2.35-.91,12.92-.91,15.68-.05,1.74-.09,3.54-.11,5.25v.02h0Z"/>
        <path class="cls-7" d="M65.08,74.63c-.08,8.95.65,23.29.84,31.79.03,1.57.02,3.06-.13,4.6-.25,3.42-4.31,17.01-1.23,19.24.84.61,4.74-5.44,6.14-5.3,1.89.17,4.06.13,6.01.09,3.25-.14,6.47-.2,7.38-3.6,1.13-2.82,1.19-9.73-.02-14.94-1.09-4.69-5.01-5.78-.18-14,4.84-8.25,3.12-26.7-2.61-34.81-1.98-2.76-5.61,1.01-9.03,1.15-2.45.13-6.97-7.37-8.18-5.18-1.11,2.35.91,12.92.91,15.68.05,1.74.09,3.54.11,5.25v.02h0Z"/>
      </g>
    </g>
    <g>
      <path class="cls-5" d="M152.31,124.54c-6.44,2.71-14.09-1.1-20.94.52-3.9-.25-17.96,3.3-15.53-3.77,1.47-3.29,3.94-12.64,4.14-16.51,1.77-15.35,4.51-23.74.68-38.8,1.89-10.72,13.64.51,20.67-3.44,4.12-.15,14.47-4.83,13.48,2.52-3.3,14.42,11.46,40.16,8.37,54.64-1.44,9.3-.25,4.26-10.85,4.84Z"/>
      <path class="cls-3" d="M167.95,113.85c-10.47-17.6-10.55-45.82-10.56-50.14,0-1.37.03-4.36-2.79-6.08-4.08-2.5-12.88-1.58-18.13,1.05-5.25-2.63-14.05-3.55-18.13-1.05-2.82,1.73-2.79,4.71-2.79,6.08-.01,4.33-.09,32.54-10.56,50.14-2.13,3.59-4.29,6.5-2.57,9.71,2.98,5.56,17.27,8.85,23.02,5.85,3.74-1.95,2.54-5.87,2.25-12.75,0-.21-.02-.44-.03-.67-.01,0-.03,0-.04,0-3.55,0-6.42-2.88-6.42-6.42s2.88-6.42,6.42-6.42c.02,0,.04,0,.07,0,.1-1.77.26-3.62.48-5.53-3.23-.34-5.75-3.07-5.75-6.39,0-3.55,2.88-6.42,6.42-6.42.64,0,1.25.09,1.83.27,1.33-4.53,3.2-9.06,5.81-13.29,4.23,6.84,6.51,14.5,7.71,21.66.37-.07.75-.1,1.14-.1,3.55,0,6.42,2.88,6.42,6.42s-2.84,6.39-6.36,6.42c.13,4.36-.03,8.02-.13,10.48-.26,6.11-1.23,9.88,1.16,12.02l3.51-.83c1.23-.29,2.19-1.25,2.48-2.48l1.07-4.53c.15-.65,1.08-.65,1.23,0l1.07,4.53c.29,1.23,1.25,2.19,2.48,2.48l4.24,1c3.58-1.25,6.89-2.99,8.01-5.29,1.55-3.18-.44-6.12-2.57-9.71Z"/>
    </g>
    <g>
      <path class="cls-8" d="M207.36,57.19c-1.47.43-1.32,1.56-1.29,2.84-.81,19.23-2.24,44.66-2.92,61.24-.05,2.08.28,4.49,2.69,5.06,1.24.33,2.59.27,3.87.25,1.81-.05,3.54-.17,5.35-.23,5.97-.18,11.08.19,17.86-.19,2.22-.2,4.3-.23,6.2-1.07,1.92-1.18-3.81-2.41-4.29-4.41-1.38-17.05,3.88-37.71,3.34-54.7-.16-2.67-.03-8.91-3.49-9.29-1.52-.15-2.89.36-4.39.51-1.34.14-2.69.11-4.02.11-3.59-.02-8.09.08-11.86-.06-2.41-.14-4.74-.86-7.01-.09h-.02Z"/>
      <path class="cls-4" d="M206.49,127.66c-4.12.78-6.44,1.26-10.62.28-3.44-.84-6.26-2.69-7.54-6.66-1.2-3.76-1.19-8.46-1.25-12.67-.04-10.86,0-23.47-.01-34.09.1-5.44,4.77-15.16,7.56-19.42,3.36-5.16,6.57-3.87,11.46-2.13,2.35.84,4.56,3.59,7.29,4.54,13.36,4.64-.22,7.15-.08,10.97.14,7.2,7.2,15.2,7.23,22.81,0,6.39-7.13,12.04-7.17,17.76-.17,6.6,13.38,10.34-1.96,17.02l-4.91,1.61Z"/>
      <path class="cls-4" d="M236.59,127.66c4.12.78,6.44,1.26,10.62.28,3.44-.84,6.26-2.69,7.54-6.66,1.2-3.76,1.19-8.46,1.25-12.67.04-10.86,0-23.47.01-34.09-.1-5.44-4.77-15.16-7.56-19.42-3.36-5.16-6.57-3.87-11.46-2.13-2.35.84-4.56,3.59-7.29,4.54-13.36,4.64.22,7.15.08,10.97-.14,7.2-7.2,15.2-7.23,22.81,0,6.39,7.13,12.04,7.17,17.76.17,6.6-13.38,10.34,1.96,17.02l4.91,1.61Z"/>
    </g>
  </g>
</svg>