<?xml version="1.0" encoding="UTF-8"?>
<svg id="Layer_2" data-name="Layer 2" xmlns="http://www.w3.org/2000/svg" width="548" height="373" xmlns:xlink="http://www.w3.org/1999/xlink" viewBox="0 0 548 373">
  <defs>
    <style>
      .cls-1 {
        fill: url(#linear-gradient-8);
      }

      .cls-1, .cls-2, .cls-3, .cls-4, .cls-5, .cls-6, .cls-7, .cls-8, .cls-9, .cls-10, .cls-11, .cls-12, .cls-13, .cls-14, .cls-15, .cls-16 {
        stroke: #010101;
        stroke-miterlimit: 10;
      }

      .cls-1, .cls-2, .cls-3, .cls-4, .cls-6, .cls-7, .cls-8, .cls-9, .cls-10, .cls-11, .cls-12, .cls-13, .cls-14, .cls-15, .cls-16 {
        stroke-width: 3px;
      }

      .cls-2 {
        fill: #f16838;
      }

      .cls-3 {
        fill: #ffd225;
      }

      .cls-17 {
        fill: #ef5f9f;
      }

      .cls-4 {
        fill: #a49d4f;
      }

      .cls-5 {
        fill: #fbb03c;
        stroke-width: 2px;
      }

      .cls-6 {
        fill: #231f20;
      }

      .cls-7 {
        fill: #7dcab8;
      }

      .cls-8 {
        fill: url(#linear-gradient-3);
      }

      .cls-9 {
        fill: url(#linear-gradient-6);
      }

      .cls-10 {
        fill: #faaf3c;
      }

      .cls-11 {
        fill: #01967a;
      }

      .cls-12 {
        fill: url(#linear-gradient-9);
      }

      .cls-13 {
        fill: url(#linear-gradient-2);
      }

      .cls-14 {
        fill: url(#linear-gradient-7);
      }

      .cls-15 {
        fill: url(#linear-gradient-5);
      }

      .cls-18 {
        fill: url(#linear-gradient);
      }

      .cls-16 {
        fill: url(#linear-gradient-4);
      }
    </style>
    <linearGradient id="linear-gradient" x1="274" y1="373" x2="274" y2="0" gradientUnits="userSpaceOnUse">
      <stop offset="0" stop-color="#fff9f0"/>
      <stop offset=".35" stop-color="#fff9f0"/>
      <stop offset=".66" stop-color="#dbeefa"/>
      <stop offset="1" stop-color="#dbeefa"/>
    </linearGradient>
    <linearGradient id="linear-gradient-2" x1="136.85" y1="45.46" x2="92.94" y2="45.46" gradientUnits="userSpaceOnUse">
      <stop offset="0" stop-color="#00a7d3"/>
      <stop offset=".23" stop-color="#02a7d3"/>
      <stop offset=".36" stop-color="#0aaad4"/>
      <stop offset=".47" stop-color="#19afd7"/>
      <stop offset=".57" stop-color="#2db6da"/>
      <stop offset=".67" stop-color="#47bfdf"/>
      <stop offset=".75" stop-color="#68cae4"/>
      <stop offset=".83" stop-color="#8ed8eb"/>
      <stop offset=".91" stop-color="#bbe7f3"/>
      <stop offset=".98" stop-color="#ecf8fb"/>
      <stop offset="1" stop-color="#fff"/>
    </linearGradient>
    <linearGradient id="linear-gradient-3" x1="165.12" y1="328.11" x2="202.78" y2="328.11" gradientUnits="userSpaceOnUse">
      <stop offset="0" stop-color="#fff"/>
      <stop offset=".03" stop-color="#fffaea"/>
      <stop offset=".09" stop-color="#fff0bf"/>
      <stop offset=".16" stop-color="#ffe899"/>
      <stop offset=".24" stop-color="#ffe178"/>
      <stop offset=".32" stop-color="#ffdb5e"/>
      <stop offset=".41" stop-color="#ffd64a"/>
      <stop offset=".51" stop-color="#ffd33b"/>
      <stop offset=".63" stop-color="#ffd133"/>
      <stop offset=".83" stop-color="#ffd131"/>
    </linearGradient>
    <linearGradient id="linear-gradient-4" x1="327.84" y1="33.5" x2="365.51" y2="33.5" xlink:href="#linear-gradient-3"/>
    <linearGradient id="linear-gradient-5" x1="470" y1="62.4" x2="499.49" y2="62.4" gradientUnits="userSpaceOnUse">
      <stop offset="0" stop-color="#fff"/>
      <stop offset=".05" stop-color="#fce2e1"/>
      <stop offset=".12" stop-color="#f8b8b6"/>
      <stop offset=".21" stop-color="#f59390"/>
      <stop offset=".3" stop-color="#f3746f"/>
      <stop offset=".39" stop-color="#f05b55"/>
      <stop offset=".5" stop-color="#ef4741"/>
      <stop offset=".62" stop-color="#ed3932"/>
      <stop offset=".76" stop-color="#ed312a"/>
      <stop offset="1" stop-color="#ed2f28"/>
    </linearGradient>
    <linearGradient id="linear-gradient-6" x1="487.42" x2="516.91" xlink:href="#linear-gradient-5"/>
    <linearGradient id="linear-gradient-7" x1="348.05" y1="322.02" x2="376.54" y2="322.02" gradientUnits="userSpaceOnUse">
      <stop offset="0" stop-color="#fff"/>
      <stop offset=".05" stop-color="#fadcdd"/>
      <stop offset=".13" stop-color="#f5b1b3"/>
      <stop offset=".21" stop-color="#f08b8d"/>
      <stop offset=".3" stop-color="#ec6a6d"/>
      <stop offset=".4" stop-color="#e95053"/>
      <stop offset=".5" stop-color="#e73c3f"/>
      <stop offset=".62" stop-color="#e52d31"/>
      <stop offset=".76" stop-color="#e42529"/>
      <stop offset="1" stop-color="#e42327"/>
    </linearGradient>
    <linearGradient id="linear-gradient-8" x1="363.8" y1="322.19" x2="397.31" y2="322.19" gradientUnits="userSpaceOnUse">
      <stop offset="0" stop-color="#fff"/>
      <stop offset=".02" stop-color="#ededed"/>
      <stop offset=".09" stop-color="#bcbcbc"/>
      <stop offset=".17" stop-color="#8f8f8f"/>
      <stop offset=".25" stop-color="#696969"/>
      <stop offset=".33" stop-color="#484848"/>
      <stop offset=".42" stop-color="#2e2e2e"/>
      <stop offset=".52" stop-color="#1a1a1a"/>
      <stop offset=".64" stop-color="#0b0b0b"/>
      <stop offset=".77" stop-color="#030303"/>
      <stop offset="1" stop-color="#010101"/>
    </linearGradient>
    <linearGradient id="linear-gradient-9" x1="383.24" y1="322.02" x2="411.72" y2="322.02" gradientUnits="userSpaceOnUse">
      <stop offset="0" stop-color="#fff"/>
      <stop offset=".05" stop-color="#f8dcdd"/>
      <stop offset=".13" stop-color="#efb1b3"/>
      <stop offset=".21" stop-color="#e78b8d"/>
      <stop offset=".3" stop-color="#e06a6e"/>
      <stop offset=".4" stop-color="#db5054"/>
      <stop offset=".5" stop-color="#d73c40"/>
      <stop offset=".62" stop-color="#d42d32"/>
      <stop offset=".76" stop-color="#d2252a"/>
      <stop offset="1" stop-color="#d22328"/>
    </linearGradient>
  </defs>
  <g id="Layer_1-2" data-name="Layer 1">
    <g>
      <rect class="cls-18" width="548" height="373"/>
      <g>
        <path class="cls-17" d="M497.41,142.59c.98,3.58,1.26,7.24.87,10.93s-1.31,7.15-1.87,10.74-.79,6.98-.04,10.44,2.54,6.58,4.38,9.55c1.01,1.64,3.61.13,2.59-1.51-1.79-2.9-3.52-5.89-4.17-9.28s-.13-7.18.52-10.67,1.43-6.9,1.69-10.41-.14-7.15-1.08-10.59c-.51-1.86-3.41-1.07-2.89.8h0Z"/>
        <path class="cls-17" d="M496.33,142.26c-2.45,2.67-4.93,5.59-5.99,9.13-1.14,3.83.15,7.35,1.22,11.01,2.08,7.1.8,14.79-3.34,20.9-1.09,1.6,1.51,3.1,2.59,1.51,4.03-5.94,5.55-13.34,4.31-20.39-.63-3.58-2.73-7.18-2.2-10.88s3.15-6.58,5.53-9.17c1.3-1.42-.81-3.55-2.12-2.12h0Z"/>
        <circle class="cls-5" cx="497.42" cy="134.79" r="8.16"/>
        <path class="cls-17" d="M337.48,142.59c.98,3.58,1.26,7.24.87,10.93s-1.31,7.15-1.87,10.74-.79,6.98-.04,10.44,2.54,6.58,4.38,9.55c1.01,1.64,3.61.13,2.59-1.51-1.79-2.9-3.52-5.89-4.17-9.28s-.13-7.18.52-10.67,1.43-6.9,1.69-10.41-.14-7.15-1.08-10.59c-.51-1.86-3.41-1.07-2.89.8h0Z"/>
        <path class="cls-17" d="M336.39,142.26c-2.45,2.67-4.93,5.59-5.99,9.13-1.14,3.83.15,7.35,1.22,11.01,2.08,7.1.8,14.79-3.34,20.9-1.09,1.6,1.51,3.1,2.59,1.51,4.03-5.94,5.55-13.34,4.31-20.39-.63-3.58-2.73-7.18-2.2-10.88s3.15-6.58,5.53-9.17c1.3-1.42-.81-3.55-2.12-2.12h0Z"/>
        <circle class="cls-5" cx="337.48" cy="134.79" r="8.16"/>
        <path class="cls-17" d="M319.7,142.59c.98,3.58,1.26,7.24.87,10.93s-1.31,7.15-1.87,10.74-.79,6.98-.04,10.44,2.54,6.58,4.38,9.55c1.01,1.64,3.61.13,2.59-1.51-1.79-2.9-3.52-5.89-4.17-9.28s-.13-7.18.52-10.67,1.43-6.9,1.69-10.41-.14-7.15-1.08-10.59c-.51-1.86-3.41-1.07-2.89.8h0Z"/>
        <path class="cls-17" d="M318.62,142.26c-2.45,2.67-4.93,5.59-5.99,9.13-1.14,3.83.15,7.35,1.22,11.01,2.08,7.1.8,14.79-3.34,20.9-1.09,1.6,1.51,3.1,2.59,1.51,4.03-5.94,5.55-13.34,4.31-20.39-.63-3.58-2.73-7.18-2.2-10.88s3.15-6.58,5.53-9.17c1.3-1.42-.81-3.55-2.12-2.12h0Z"/>
        <circle class="cls-5" cx="319.71" cy="134.79" r="8.16"/>
        <path class="cls-17" d="M195.31,142.59c.98,3.58,1.26,7.24.87,10.93s-1.31,7.15-1.87,10.74-.79,6.98-.04,10.44,2.54,6.58,4.38,9.55c1.01,1.64,3.61.13,2.59-1.51-1.79-2.9-3.52-5.89-4.17-9.28s-.13-7.18.52-10.67,1.43-6.9,1.69-10.41-.14-7.15-1.08-10.59c-.51-1.86-3.41-1.07-2.89.8h0Z"/>
        <path class="cls-17" d="M194.23,142.26c-2.45,2.67-4.93,5.59-5.99,9.13-1.14,3.83.15,7.35,1.22,11.01,2.08,7.1.8,14.79-3.34,20.9-1.09,1.6,1.51,3.1,2.59,1.51,4.03-5.94,5.55-13.34,4.31-20.39-.63-3.58-2.73-7.18-2.2-10.88s3.15-6.58,5.53-9.17c1.3-1.42-.81-3.55-2.12-2.12h0Z"/>
        <circle class="cls-5" cx="195.31" cy="134.79" r="8.16"/>
        <path class="cls-17" d="M408.56,142.59c.98,3.58,1.26,7.24.87,10.93s-1.31,7.15-1.87,10.74-.79,6.98-.04,10.44,2.54,6.58,4.38,9.55c1.01,1.64,3.61.13,2.59-1.51-1.79-2.9-3.52-5.89-4.17-9.28s-.13-7.18.52-10.67,1.43-6.9,1.69-10.41-.14-7.15-1.08-10.59c-.51-1.86-3.41-1.07-2.89.8h0Z"/>
        <path class="cls-17" d="M407.48,142.26c-2.45,2.67-4.93,5.59-5.99,9.13-1.14,3.83.15,7.35,1.22,11.01,2.08,7.1.8,14.79-3.34,20.9-1.09,1.6,1.51,3.1,2.59,1.51,4.03-5.94,5.55-13.34,4.31-20.39-.63-3.58-2.73-7.18-2.2-10.88s3.15-6.58,5.53-9.17c1.3-1.42-.81-3.55-2.12-2.12h0Z"/>
        <circle class="cls-5" cx="408.56" cy="134.79" r="8.16"/>
        <path class="cls-17" d="M373.02,142.59c.98,3.58,1.26,7.24.87,10.93s-1.31,7.15-1.87,10.74-.79,6.98-.04,10.44,2.54,6.58,4.38,9.55c1.01,1.64,3.61.13,2.59-1.51-1.79-2.9-3.52-5.89-4.17-9.28s-.13-7.18.52-10.67,1.43-6.9,1.69-10.41-.14-7.15-1.08-10.59c-.51-1.86-3.41-1.07-2.89.8h0Z"/>
        <path class="cls-17" d="M371.94,142.26c-2.45,2.67-4.93,5.59-5.99,9.13-1.14,3.83.15,7.35,1.22,11.01,2.08,7.1.8,14.79-3.34,20.9-1.09,1.6,1.51,3.1,2.59,1.51,4.03-5.94,5.55-13.34,4.31-20.39-.63-3.58-2.73-7.18-2.2-10.88s3.15-6.58,5.53-9.17c1.3-1.42-.81-3.55-2.12-2.12h0Z"/>
        <circle class="cls-5" cx="373.02" cy="134.79" r="8.16"/>
        <path class="cls-17" d="M284.16,142.59c.98,3.58,1.26,7.24.87,10.93s-1.31,7.15-1.87,10.74-.79,6.98-.04,10.44,2.54,6.58,4.38,9.55c1.01,1.64,3.61.13,2.59-1.51-1.79-2.9-3.52-5.89-4.17-9.28s-.13-7.18.52-10.67,1.43-6.9,1.69-10.41-.14-7.15-1.08-10.59c-.51-1.86-3.41-1.07-2.89.8h0Z"/>
        <path class="cls-17" d="M283.08,142.26c-2.45,2.67-4.93,5.59-5.99,9.13-1.14,3.83.15,7.35,1.22,11.01,2.08,7.1.8,14.79-3.34,20.9-1.09,1.6,1.51,3.1,2.59,1.51,4.03-5.94,5.55-13.34,4.31-20.39-.63-3.58-2.73-7.18-2.2-10.88s3.15-6.58,5.53-9.17c1.3-1.42-.81-3.55-2.12-2.12h0Z"/>
        <circle class="cls-5" cx="284.17" cy="134.79" r="8.16"/>
        <path class="cls-17" d="M159.77,142.59c.98,3.58,1.26,7.24.87,10.93s-1.31,7.15-1.87,10.74-.79,6.98-.04,10.44,2.54,6.58,4.38,9.55c1.01,1.64,3.61.13,2.59-1.51-1.79-2.9-3.52-5.89-4.17-9.28s-.13-7.18.52-10.67,1.43-6.9,1.69-10.41-.14-7.15-1.08-10.59c-.51-1.86-3.41-1.07-2.89.8h0Z"/>
        <path class="cls-17" d="M158.68,142.26c-2.45,2.67-4.93,5.59-5.99,9.13-1.14,3.83.15,7.35,1.22,11.01,2.08,7.1.8,14.79-3.34,20.9-1.09,1.6,1.51,3.1,2.59,1.51,4.03-5.94,5.55-13.34,4.31-20.39-.63-3.58-2.73-7.18-2.2-10.88s3.15-6.58,5.53-9.17c1.3-1.42-.81-3.55-2.12-2.12h0Z"/>
        <circle class="cls-5" cx="159.77" cy="134.79" r="8.16"/>
        <path class="cls-17" d="M106.45,142.59c.98,3.58,1.26,7.24.87,10.93s-1.31,7.15-1.87,10.74-.79,6.98-.04,10.44,2.54,6.58,4.38,9.55c1.01,1.64,3.61.13,2.59-1.51-1.79-2.9-3.52-5.89-4.17-9.28s-.13-7.18.52-10.67,1.43-6.9,1.69-10.41-.14-7.15-1.08-10.59c-.51-1.86-3.41-1.07-2.89.8h0Z"/>
        <path class="cls-17" d="M105.37,142.26c-2.45,2.67-4.93,5.59-5.99,9.13-1.14,3.83.15,7.35,1.22,11.01,2.08,7.1.8,14.79-3.34,20.9-1.09,1.6,1.51,3.1,2.59,1.51,4.03-5.94,5.55-13.34,4.31-20.39-.63-3.58-2.73-7.18-2.2-10.88s3.15-6.58,5.53-9.17c1.3-1.42-.81-3.55-2.12-2.12h0Z"/>
        <circle class="cls-5" cx="106.46" cy="134.79" r="8.16"/>
        <path class="cls-17" d="M53.14,142.59c.98,3.58,1.26,7.24.87,10.93s-1.31,7.15-1.87,10.74-.79,6.98-.04,10.44,2.54,6.58,4.38,9.55c1.01,1.64,3.61.13,2.59-1.51-1.79-2.9-3.52-5.89-4.17-9.28s-.13-7.18.52-10.67,1.43-6.9,1.69-10.41-.14-7.15-1.08-10.59c-.51-1.86-3.41-1.07-2.89.8h0Z"/>
        <path class="cls-17" d="M52.06,142.26c-2.45,2.67-4.93,5.59-5.99,9.13-1.14,3.83.15,7.35,1.22,11.01,2.08,7.1.8,14.79-3.34,20.9-1.09,1.6,1.51,3.1,2.59,1.51,4.03-5.94,5.55-13.34,4.31-20.39-.63-3.58-2.73-7.18-2.2-10.88s3.15-6.58,5.53-9.17c1.3-1.42-.81-3.55-2.12-2.12h0Z"/>
        <circle class="cls-5" cx="53.14" cy="134.79" r="8.16"/>
        <path class="cls-17" d="M72.16,142.59c.48,1.86.3,3.77.38,5.66s.65,3.6,1.31,5.43c1.22,3.38,1.96,6.96,1.74,10.57-.15,2.44-.78,4.88-2.03,7-1.05,1.77-3.22,3.06-2.99,5.33.31,3.08,3.37,5.24,4.94,7.68,1.04,1.62,3.64.12,2.59-1.51-.74-1.15-1.65-2.17-2.52-3.22-.61-.74-2.06-2.14-2.04-3.2.01-.63.86-1.16,1.26-1.65.68-.83,1.28-1.71,1.76-2.67,2.78-5.43,2.46-11.88.7-17.57-.67-2.17-1.65-4.08-1.73-6.39-.07-2.1.05-4.19-.47-6.25-.48-1.87-3.37-1.08-2.89.8h0Z"/>
        <path class="cls-17" d="M71.08,142.26c-2.25,2.53-3,5.43-3.1,8.75-.05,1.65.07,3.29-.37,4.89-.47,1.71-1.17,3.33-1.3,5.12s.63,3.3.63,5.01c0,1.27-.34,2.47-.96,3.57-1.55,2.79-3.95,5.09-5.77,7.7-1.11,1.59,1.49,3.09,2.59,1.51,1.77-2.54,4.05-4.76,5.62-7.44s1.8-5.55,1.12-8.51c-.41-1.76,0-3.13.55-4.83s.85-3.21.86-4.95c.03-3.17.02-6.2,2.25-8.7,1.28-1.44-.83-3.57-2.12-2.12h0Z"/>
        <circle class="cls-5" cx="72.17" cy="134.79" r="8.16"/>
        <path class="cls-17" d="M178.79,142.59c.48,1.86.3,3.77.38,5.66s.65,3.6,1.31,5.43c1.22,3.38,1.96,6.96,1.74,10.57-.15,2.44-.78,4.88-2.03,7-1.05,1.77-3.22,3.06-2.99,5.33.31,3.08,3.37,5.24,4.94,7.68,1.04,1.62,3.64.12,2.59-1.51-.74-1.15-1.65-2.17-2.52-3.22-.61-.74-2.06-2.14-2.04-3.2.01-.63.86-1.16,1.26-1.65.68-.83,1.28-1.71,1.76-2.67,2.78-5.43,2.46-11.88.7-17.57-.67-2.17-1.65-4.08-1.73-6.39-.07-2.1.05-4.19-.47-6.25-.48-1.87-3.37-1.08-2.89.8h0Z"/>
        <path class="cls-17" d="M177.71,142.26c-2.25,2.53-3,5.43-3.1,8.75-.05,1.65.07,3.29-.37,4.89-.47,1.71-1.17,3.33-1.3,5.12s.63,3.3.63,5.01c0,1.27-.34,2.47-.96,3.57-1.55,2.79-3.95,5.09-5.77,7.7-1.11,1.59,1.49,3.09,2.59,1.51,1.77-2.54,4.05-4.76,5.62-7.44s1.8-5.55,1.12-8.51c-.41-1.76,0-3.13.55-4.83s.85-3.21.86-4.95c.03-3.17.02-6.2,2.25-8.7,1.28-1.44-.83-3.57-2.12-2.12h0Z"/>
        <circle class="cls-5" cx="178.79" cy="134.79" r="8.16"/>
        <path class="cls-17" d="M232.1,142.59c.48,1.86.3,3.77.38,5.66s.65,3.6,1.31,5.43c1.22,3.38,1.96,6.96,1.74,10.57-.15,2.44-.78,4.88-2.03,7-1.05,1.77-3.22,3.06-2.99,5.33.31,3.08,3.37,5.24,4.94,7.68,1.04,1.62,3.64.12,2.59-1.51-.74-1.15-1.65-2.17-2.52-3.22-.61-.74-2.06-2.14-2.04-3.2.01-.63.86-1.16,1.26-1.65.68-.83,1.28-1.71,1.76-2.67,2.78-5.43,2.46-11.88.7-17.57-.67-2.17-1.65-4.08-1.73-6.39-.07-2.1.05-4.19-.47-6.25-.48-1.87-3.37-1.08-2.89.8h0Z"/>
        <path class="cls-17" d="M231.02,142.26c-2.25,2.53-3,5.43-3.1,8.75-.05,1.65.07,3.29-.37,4.89-.47,1.71-1.17,3.33-1.3,5.12s.63,3.3.63,5.01c0,1.27-.34,2.47-.96,3.57-1.55,2.79-3.95,5.09-5.77,7.7-1.11,1.59,1.49,3.09,2.59,1.51,1.77-2.54,4.05-4.76,5.62-7.44s1.8-5.55,1.12-8.51c-.41-1.76,0-3.13.55-4.83s.85-3.21.86-4.95c.03-3.17.02-6.2,2.25-8.7,1.28-1.44-.83-3.57-2.12-2.12h0Z"/>
        <circle class="cls-5" cx="232.11" cy="134.79" r="8.16"/>
        <path class="cls-17" d="M303.19,142.59c.48,1.86.3,3.77.38,5.66s.65,3.6,1.31,5.43c1.22,3.38,1.96,6.96,1.74,10.57-.15,2.44-.78,4.88-2.03,7-1.05,1.77-3.22,3.06-2.99,5.33.31,3.08,3.37,5.24,4.94,7.68,1.04,1.62,3.64.12,2.59-1.51-.74-1.15-1.65-2.17-2.52-3.22-.61-.74-2.06-2.14-2.04-3.2.01-.63.86-1.16,1.26-1.65.68-.83,1.28-1.71,1.76-2.67,2.78-5.43,2.46-11.88.7-17.57-.67-2.17-1.65-4.08-1.73-6.39-.07-2.1.05-4.19-.47-6.25-.48-1.87-3.37-1.08-2.89.8h0Z"/>
        <path class="cls-17" d="M302.1,142.26c-2.25,2.53-3,5.43-3.1,8.75-.05,1.65.07,3.29-.37,4.89-.47,1.71-1.17,3.33-1.3,5.12s.63,3.3.63,5.01c0,1.27-.34,2.47-.96,3.57-1.55,2.79-3.95,5.09-5.77,7.7-1.11,1.59,1.49,3.09,2.59,1.51,1.77-2.54,4.05-4.76,5.62-7.44s1.8-5.55,1.12-8.51c-.41-1.76,0-3.13.55-4.83s.85-3.21.86-4.95c.03-3.17.02-6.2,2.25-8.7,1.28-1.44-.83-3.57-2.12-2.12h0Z"/>
        <circle class="cls-5" cx="303.19" cy="134.79" r="8.16"/>
        <path class="cls-17" d="M445.35,142.59c.48,1.86.3,3.77.38,5.66s.65,3.6,1.31,5.43c1.22,3.38,1.96,6.96,1.74,10.57-.15,2.44-.78,4.88-2.03,7-1.05,1.77-3.22,3.06-2.99,5.33.31,3.08,3.37,5.24,4.94,7.68,1.04,1.62,3.64.12,2.59-1.51-.74-1.15-1.65-2.17-2.52-3.22-.61-.74-2.06-2.14-2.04-3.2.01-.63.86-1.16,1.26-1.65.68-.83,1.28-1.71,1.76-2.67,2.78-5.43,2.46-11.88.7-17.57-.67-2.17-1.65-4.08-1.73-6.39-.07-2.1.05-4.19-.47-6.25-.48-1.87-3.37-1.08-2.89.8h0Z"/>
        <path class="cls-17" d="M444.27,142.26c-2.25,2.53-3,5.43-3.1,8.75-.05,1.65.07,3.29-.37,4.89-.47,1.71-1.17,3.33-1.3,5.12s.63,3.3.63,5.01c0,1.27-.34,2.47-.96,3.57-1.55,2.79-3.95,5.09-5.77,7.7-1.11,1.59,1.49,3.09,2.59,1.51,1.77-2.54,4.05-4.76,5.62-7.44s1.8-5.55,1.12-8.51c-.41-1.76,0-3.13.55-4.83s.85-3.21.86-4.95c.03-3.17.02-6.2,2.25-8.7,1.28-1.44-.83-3.57-2.12-2.12h0Z"/>
        <circle class="cls-5" cx="445.36" cy="134.79" r="8.16"/>
        <path class="cls-17" d="M516.44,142.59c.48,1.86.3,3.77.38,5.66s.65,3.6,1.31,5.43c1.22,3.38,1.96,6.96,1.74,10.57-.15,2.44-.78,4.88-2.03,7-1.05,1.77-3.22,3.06-2.99,5.33.31,3.08,3.37,5.24,4.94,7.68,1.04,1.62,3.64.12,2.59-1.51-.74-1.15-1.65-2.17-2.52-3.22-.61-.74-2.06-2.14-2.04-3.2.01-.63.86-1.16,1.26-1.65.68-.83,1.28-1.71,1.76-2.67,2.78-5.43,2.46-11.88.7-17.57-.67-2.17-1.65-4.08-1.73-6.39-.07-2.1.05-4.19-.47-6.25-.48-1.87-3.37-1.08-2.89.8h0Z"/>
        <path class="cls-17" d="M515.36,142.26c-2.25,2.53-3,5.43-3.1,8.75-.05,1.65.07,3.29-.37,4.89-.47,1.71-1.17,3.33-1.3,5.12s.63,3.3.63,5.01c0,1.27-.34,2.47-.96,3.57-1.55,2.79-3.95,5.09-5.77,7.7-1.11,1.59,1.49,3.09,2.59,1.51,1.77-2.54,4.05-4.76,5.62-7.44s1.8-5.55,1.12-8.51c-.41-1.76,0-3.13.55-4.83s.85-3.21.86-4.95c.03-3.17.02-6.2,2.25-8.7,1.28-1.44-.83-3.57-2.12-2.12h0Z"/>
        <circle class="cls-5" cx="516.44" cy="134.79" r="8.16"/>
        <path class="cls-17" d="M18.85,142.59c.48,1.86.3,3.77.38,5.66s.65,3.6,1.31,5.43c1.22,3.38,1.96,6.96,1.74,10.57-.15,2.44-.78,4.88-2.03,7-1.05,1.77-3.22,3.06-2.99,5.33.31,3.08,3.37,5.24,4.94,7.68,1.04,1.62,3.64.12,2.59-1.51-.74-1.15-1.65-2.17-2.52-3.22-.61-.74-2.06-2.14-2.04-3.2.01-.63.86-1.16,1.26-1.65.68-.83,1.28-1.71,1.76-2.67,2.78-5.43,2.46-11.88.7-17.57-.67-2.17-1.65-4.08-1.73-6.39-.07-2.1.05-4.19-.47-6.25-.48-1.87-3.37-1.08-2.89.8h0Z"/>
        <path class="cls-17" d="M17.77,142.26c-2.25,2.53-3,5.43-3.1,8.75-.05,1.65.07,3.29-.37,4.89-.47,1.71-1.17,3.33-1.3,5.12s.63,3.3.63,5.01c0,1.27-.34,2.47-.96,3.57-1.55,2.79-3.95,5.09-5.77,7.7-1.11,1.59,1.49,3.09,2.59,1.51,1.77-2.54,4.05-4.76,5.62-7.44s1.8-5.55,1.12-8.51c-.41-1.76,0-3.13.55-4.83s.85-3.21.86-4.95c.03-3.17.02-6.2,2.25-8.7,1.28-1.44-.83-3.57-2.12-2.12h0Z"/>
        <circle class="cls-5" cx="18.86" cy="134.79" r="8.16"/>
        <path class="cls-17" d="M143.25,142.59c.48,1.86.3,3.77.38,5.66s.65,3.6,1.31,5.43c1.22,3.38,1.96,6.96,1.74,10.57-.15,2.44-.78,4.88-2.03,7-1.05,1.77-3.22,3.06-2.99,5.33.31,3.08,3.37,5.24,4.94,7.68,1.04,1.62,3.64.12,2.59-1.51-.74-1.15-1.65-2.17-2.52-3.22-.61-.74-2.06-2.14-2.04-3.2.01-.63.86-1.16,1.26-1.65.68-.83,1.28-1.71,1.76-2.67,2.78-5.43,2.46-11.88.7-17.57-.67-2.17-1.65-4.08-1.73-6.39-.07-2.1.05-4.19-.47-6.25-.48-1.87-3.37-1.08-2.89.8h0Z"/>
        <path class="cls-17" d="M142.17,142.26c-2.25,2.53-3,5.43-3.1,8.75-.05,1.65.07,3.29-.37,4.89-.47,1.71-1.17,3.33-1.3,5.12s.63,3.3.63,5.01c0,1.27-.34,2.47-.96,3.57-1.55,2.79-3.95,5.09-5.77,7.7-1.11,1.59,1.49,3.09,2.59,1.51,1.77-2.54,4.05-4.76,5.62-7.44s1.8-5.55,1.12-8.51c-.41-1.76,0-3.13.55-4.83s.85-3.21.86-4.95c.03-3.17.02-6.2,2.25-8.7,1.28-1.44-.83-3.57-2.12-2.12h0Z"/>
        <circle class="cls-5" cx="143.25" cy="134.79" r="8.16"/>
        <path class="cls-17" d="M124.76,142.59c.52,2.02.31,4.08.45,6.14.15,2.21.96,4.14,1.57,6.24.91,3.1,1.47,6.38,1.07,9.62-.24,1.96-.89,3.84-1.81,5.58-.72,1.37-1.65,2.67-2.19,4.13-1.44,3.89,2.38,7.04,4.25,9.96,1.04,1.62,3.64.12,2.59-1.51-.93-1.44-2.09-2.71-3.05-4.13-.43-.63-.89-1.33-1.04-2.09-.05-.24-.09-.5-.06-.75.02-.2.11-.43.18-.62-.05.13-.06.14,0,0,.61-1.38,1.5-2.63,2.17-3.98,2.44-4.92,2.48-10.3,1.17-15.57-.57-2.29-1.69-4.5-1.86-6.88s.03-4.65-.56-6.94c-.48-1.87-3.37-1.08-2.89.8h0Z"/>
        <path class="cls-17" d="M122.35,142.7c-2.66,2.92-4.9,6.39-6.55,9.97-1.2,2.62-3.35,7.48.08,9.33.47.26,1.19.34,1.6.71.5.45.29,1.62.32,2.25.11,2.35.2,4.7.22,7.06.02,2.69.09,5.55-.66,8.16-.16.57-.24.78-.41,1.09-.1.18-.2.36-.31.53-.23.36,0,.05-.19.25-.13.14-.26.27-.39.39-.32.3.02.02-.22.17-.34.22-.69.42-1.06.59-1.75.81-.23,3.4,1.51,2.59,3.97-1.85,4.5-6.29,4.67-10.21.08-1.89.07-3.79.02-5.68-.03-1.21-.07-2.41-.12-3.62s.03-2.65-.23-3.89c-.16-.78-.55-1.43-1.16-1.94s-1.31-.62-1.97-1c-.46-.27-.48-.25-.46-.82.02-.79.28-1.61.52-2.35,1.35-4.15,3.98-8.25,6.91-11.47,1.3-1.43-.82-3.55-2.12-2.12h0Z"/>
        <circle class="cls-5" cx="124.76" cy="134.79" r="8.16"/>
        <path class="cls-17" d="M89.22,142.59c.52,2.02.31,4.08.45,6.14.15,2.21.96,4.14,1.57,6.24.91,3.1,1.47,6.38,1.07,9.62-.24,1.96-.89,3.84-1.81,5.58-.72,1.37-1.65,2.67-2.19,4.13-1.44,3.89,2.38,7.04,4.25,9.96,1.04,1.62,3.64.12,2.59-1.51-.93-1.44-2.09-2.71-3.05-4.13-.43-.63-.89-1.33-1.04-2.09-.05-.24-.09-.5-.06-.75.02-.2.11-.43.18-.62-.05.13-.06.14,0,0,.61-1.38,1.5-2.63,2.17-3.98,2.44-4.92,2.48-10.3,1.17-15.57-.57-2.29-1.69-4.5-1.86-6.88s.03-4.65-.56-6.94c-.48-1.87-3.37-1.08-2.89.8h0Z"/>
        <path class="cls-17" d="M86.81,142.7c-2.66,2.92-4.9,6.39-6.55,9.97-1.2,2.62-3.35,7.48.08,9.33.47.26,1.19.34,1.6.71.5.45.29,1.62.32,2.25.11,2.35.2,4.7.22,7.06.02,2.69.09,5.55-.66,8.16-.16.57-.24.78-.41,1.09-.1.18-.2.36-.31.53-.23.36,0,.05-.19.25-.13.14-.26.27-.39.39-.32.3.02.02-.22.17-.34.22-.69.42-1.06.59-1.75.81-.23,3.4,1.51,2.59,3.97-1.85,4.5-6.29,4.67-10.21.08-1.89.07-3.79.02-5.68-.03-1.21-.07-2.41-.12-3.62s.03-2.65-.23-3.89c-.16-.78-.55-1.43-1.16-1.94s-1.31-.62-1.97-1c-.46-.27-.48-.25-.46-.82.02-.79.28-1.61.52-2.35,1.35-4.15,3.98-8.25,6.91-11.47,1.3-1.43-.82-3.55-2.12-2.12h0Z"/>
        <circle class="cls-5" cx="89.22" cy="134.79" r="8.16"/>
        <path class="cls-17" d="M35.9,142.59c.52,2.02.31,4.08.45,6.14.15,2.21.96,4.14,1.57,6.24.91,3.1,1.47,6.38,1.07,9.62-.24,1.96-.89,3.84-1.81,5.58-.72,1.37-1.65,2.67-2.19,4.13-1.44,3.89,2.38,7.04,4.25,9.96,1.04,1.62,3.64.12,2.59-1.51-.93-1.44-2.09-2.71-3.05-4.13-.43-.63-.89-1.33-1.04-2.09-.05-.24-.09-.5-.06-.75.02-.2.11-.43.18-.62-.05.13-.06.14,0,0,.61-1.38,1.5-2.63,2.17-3.98,2.44-4.92,2.48-10.3,1.17-15.57-.57-2.29-1.69-4.5-1.86-6.88s.03-4.65-.56-6.94c-.48-1.87-3.37-1.08-2.89.8h0Z"/>
        <path class="cls-17" d="M33.5,142.7c-2.66,2.92-4.9,6.39-6.55,9.97-1.2,2.62-3.35,7.48.08,9.33.47.26,1.19.34,1.6.71.5.45.29,1.62.32,2.25.11,2.35.2,4.7.22,7.06.02,2.69.09,5.55-.66,8.16-.16.57-.24.78-.41,1.09-.1.18-.2.36-.31.53-.23.36,0,.05-.19.25-.13.14-.26.27-.39.39-.32.3.02.02-.22.17-.34.22-.69.42-1.06.59-1.75.81-.23,3.4,1.51,2.59,3.97-1.85,4.5-6.29,4.67-10.21.08-1.89.07-3.79.02-5.68-.03-1.21-.07-2.41-.12-3.62s.03-2.65-.23-3.89c-.16-.78-.55-1.43-1.16-1.94s-1.31-.62-1.97-1c-.46-.27-.48-.25-.46-.82.02-.79.28-1.61.52-2.35,1.35-4.15,3.98-8.25,6.91-11.47,1.3-1.43-.82-3.55-2.12-2.12h0Z"/>
        <circle class="cls-5" cx="35.91" cy="134.79" r="8.16"/>
        <path class="cls-17" d="M249.15,142.59c.52,2.02.31,4.08.45,6.14.15,2.21.96,4.14,1.57,6.24.91,3.1,1.47,6.38,1.07,9.62-.24,1.96-.89,3.84-1.81,5.58-.72,1.37-1.65,2.67-2.19,4.13-1.44,3.89,2.38,7.04,4.25,9.96,1.04,1.62,3.64.12,2.59-1.51-.93-1.44-2.09-2.71-3.05-4.13-.43-.63-.89-1.33-1.04-2.09-.05-.24-.09-.5-.06-.75.02-.2.11-.43.18-.62-.05.13-.06.14,0,0,.61-1.38,1.5-2.63,2.17-3.98,2.44-4.92,2.48-10.3,1.17-15.57-.57-2.29-1.69-4.5-1.86-6.88s.03-4.65-.56-6.94c-.48-1.87-3.37-1.08-2.89.8h0Z"/>
        <path class="cls-17" d="M246.75,142.7c-2.66,2.92-4.9,6.39-6.55,9.97-1.2,2.62-3.35,7.48.08,9.33.47.26,1.19.34,1.6.71.5.45.29,1.62.32,2.25.11,2.35.2,4.7.22,7.06.02,2.69.09,5.55-.66,8.16-.16.57-.24.78-.41,1.09-.1.18-.2.36-.31.53-.23.36,0,.05-.19.25-.13.14-.26.27-.39.39-.32.3.02.02-.22.17-.34.22-.69.42-1.06.59-1.75.81-.23,3.4,1.51,2.59,3.97-1.85,4.5-6.29,4.67-10.21.08-1.89.07-3.79.02-5.68-.03-1.21-.07-2.41-.12-3.62s.03-2.65-.23-3.89c-.16-.78-.55-1.43-1.16-1.94s-1.31-.62-1.97-1c-.46-.27-.48-.25-.46-.82.02-.79.28-1.61.52-2.35,1.35-4.15,3.98-8.25,6.91-11.47,1.3-1.43-.82-3.55-2.12-2.12h0Z"/>
        <circle class="cls-5" cx="249.16" cy="134.79" r="8.16"/>
        <path class="cls-17" d="M266.93,142.59c.52,2.02.31,4.08.45,6.14.15,2.21.96,4.14,1.57,6.24.91,3.1,1.47,6.38,1.07,9.62-.24,1.96-.89,3.84-1.81,5.58-.72,1.37-1.65,2.67-2.19,4.13-1.44,3.89,2.38,7.04,4.25,9.96,1.04,1.62,3.64.12,2.59-1.51-.93-1.44-2.09-2.71-3.05-4.13-.43-.63-.89-1.33-1.04-2.09-.05-.24-.09-.5-.06-.75.02-.2.11-.43.18-.62-.05.13-.06.14,0,0,.61-1.38,1.5-2.63,2.17-3.98,2.44-4.92,2.48-10.3,1.17-15.57-.57-2.29-1.69-4.5-1.86-6.88s.03-4.65-.56-6.94c-.48-1.87-3.37-1.08-2.89.8h0Z"/>
        <path class="cls-17" d="M264.52,142.7c-2.66,2.92-4.9,6.39-6.55,9.97-1.2,2.62-3.35,7.48.08,9.33.47.26,1.19.34,1.6.71.5.45.29,1.62.32,2.25.11,2.35.2,4.7.22,7.06.02,2.69.09,5.55-.66,8.16-.16.57-.24.78-.41,1.09-.1.18-.2.36-.31.53-.23.36,0,.05-.19.25-.13.14-.26.27-.39.39-.32.3.02.02-.22.17-.34.22-.69.42-1.06.59-1.75.81-.23,3.4,1.51,2.59,3.97-1.85,4.5-6.29,4.67-10.21.08-1.89.07-3.79.02-5.68-.03-1.21-.07-2.41-.12-3.62s.03-2.65-.23-3.89c-.16-.78-.55-1.43-1.16-1.94s-1.31-.62-1.97-1c-.46-.27-.48-.25-.46-.82.02-.79.28-1.61.52-2.35,1.35-4.15,3.98-8.25,6.91-11.47,1.3-1.43-.82-3.55-2.12-2.12h0Z"/>
        <circle class="cls-5" cx="266.93" cy="134.79" r="8.16"/>
        <path class="cls-17" d="M355.78,142.59c.52,2.02.31,4.08.45,6.14.15,2.21.96,4.14,1.57,6.24.91,3.1,1.47,6.38,1.07,9.62-.24,1.96-.89,3.84-1.81,5.58-.72,1.37-1.65,2.67-2.19,4.13-1.44,3.89,2.38,7.04,4.25,9.96,1.04,1.62,3.64.12,2.59-1.51-.93-1.44-2.09-2.71-3.05-4.13-.43-.63-.89-1.33-1.04-2.09-.05-.24-.09-.5-.06-.75.02-.2.11-.43.18-.62-.05.13-.06.14,0,0,.61-1.38,1.5-2.63,2.17-3.98,2.44-4.92,2.48-10.3,1.17-15.57-.57-2.29-1.69-4.5-1.86-6.88s.03-4.65-.56-6.94c-.48-1.87-3.37-1.08-2.89.8h0Z"/>
        <path class="cls-17" d="M353.37,142.7c-2.66,2.92-4.9,6.39-6.55,9.97-1.2,2.62-3.35,7.48.08,9.33.47.26,1.19.34,1.6.71.5.45.29,1.62.32,2.25.11,2.35.2,4.7.22,7.06.02,2.69.09,5.55-.66,8.16-.16.57-.24.78-.41,1.09-.1.18-.2.36-.31.53-.23.36,0,.05-.19.25-.13.14-.26.27-.39.39-.32.3.02.02-.22.17-.34.22-.69.42-1.06.59-1.75.81-.23,3.4,1.51,2.59,3.97-1.85,4.5-6.29,4.67-10.21.08-1.89.07-3.79.02-5.68-.03-1.21-.07-2.41-.12-3.62s.03-2.65-.23-3.89c-.16-.78-.55-1.43-1.16-1.94s-1.31-.62-1.97-1c-.46-.27-.48-.25-.46-.82.02-.79.28-1.61.52-2.35,1.35-4.15,3.98-8.25,6.91-11.47,1.3-1.43-.82-3.55-2.12-2.12h0Z"/>
        <circle class="cls-5" cx="355.79" cy="134.79" r="8.16"/>
        <path class="cls-17" d="M391.32,142.59c.52,2.02.31,4.08.45,6.14.15,2.21.96,4.14,1.57,6.24.91,3.1,1.47,6.38,1.07,9.62-.24,1.96-.89,3.84-1.81,5.58-.72,1.37-1.65,2.67-2.19,4.13-1.44,3.89,2.38,7.04,4.25,9.96,1.04,1.62,3.64.12,2.59-1.51-.93-1.44-2.09-2.71-3.05-4.13-.43-.63-.89-1.33-1.04-2.09-.05-.24-.09-.5-.06-.75.02-.2.11-.43.18-.62-.05.13-.06.14,0,0,.61-1.38,1.5-2.63,2.17-3.98,2.44-4.92,2.48-10.3,1.17-15.57-.57-2.29-1.69-4.5-1.86-6.88s.03-4.65-.56-6.94c-.48-1.87-3.37-1.08-2.89.8h0Z"/>
        <path class="cls-17" d="M388.92,142.7c-2.66,2.92-4.9,6.39-6.55,9.97-1.2,2.62-3.35,7.48.08,9.33.47.26,1.19.34,1.6.71.5.45.29,1.62.32,2.25.11,2.35.2,4.7.22,7.06.02,2.69.09,5.55-.66,8.16-.16.57-.24.78-.41,1.09-.1.18-.2.36-.31.53-.23.36,0,.05-.19.25-.13.14-.26.27-.39.39-.32.3.02.02-.22.17-.34.22-.69.42-1.06.59-1.75.81-.23,3.4,1.51,2.59,3.97-1.85,4.5-6.29,4.67-10.21.08-1.89.07-3.79.02-5.68-.03-1.21-.07-2.41-.12-3.62s.03-2.65-.23-3.89c-.16-.78-.55-1.43-1.16-1.94s-1.31-.62-1.97-1c-.46-.27-.48-.25-.46-.82.02-.79.28-1.61.52-2.35,1.35-4.15,3.98-8.25,6.91-11.47,1.3-1.43-.82-3.55-2.12-2.12h0Z"/>
        <circle class="cls-5" cx="391.33" cy="134.79" r="8.16"/>
        <path class="cls-17" d="M426.86,142.59c.52,2.02.31,4.08.45,6.14.15,2.21.96,4.14,1.57,6.24.91,3.1,1.47,6.38,1.07,9.62-.24,1.96-.89,3.84-1.81,5.58-.72,1.37-1.65,2.67-2.19,4.13-1.44,3.89,2.38,7.04,4.25,9.96,1.04,1.62,3.64.12,2.59-1.51-.93-1.44-2.09-2.71-3.05-4.13-.43-.63-.89-1.33-1.04-2.09-.05-.24-.09-.5-.06-.75.02-.2.11-.43.18-.62-.05.13-.06.14,0,0,.61-1.38,1.5-2.63,2.17-3.98,2.44-4.92,2.48-10.3,1.17-15.57-.57-2.29-1.69-4.5-1.86-6.88s.03-4.65-.56-6.94c-.48-1.87-3.37-1.08-2.89.8h0Z"/>
        <path class="cls-17" d="M424.46,142.7c-2.66,2.92-4.9,6.39-6.55,9.97-1.2,2.62-3.35,7.48.08,9.33.47.26,1.19.34,1.6.71.5.45.29,1.62.32,2.25.11,2.35.2,4.7.22,7.06.02,2.69.09,5.55-.66,8.16-.16.57-.24.78-.41,1.09-.1.18-.2.36-.31.53-.23.36,0,.05-.19.25-.13.14-.26.27-.39.39-.32.3.02.02-.22.17-.34.22-.69.42-1.06.59-1.75.81-.23,3.4,1.51,2.59,3.97-1.85,4.5-6.29,4.67-10.21.08-1.89.07-3.79.02-5.68-.03-1.21-.07-2.41-.12-3.62s.03-2.65-.23-3.89c-.16-.78-.55-1.43-1.16-1.94s-1.31-.62-1.97-1c-.46-.27-.48-.25-.46-.82.02-.79.28-1.61.52-2.35,1.35-4.15,3.98-8.25,6.91-11.47,1.3-1.43-.82-3.55-2.12-2.12h0Z"/>
        <circle class="cls-5" cx="426.87" cy="134.79" r="8.16"/>
        <path class="cls-17" d="M462.41,142.59c.52,2.02.31,4.08.45,6.14.15,2.21.96,4.14,1.57,6.24.91,3.1,1.47,6.38,1.07,9.62-.24,1.96-.89,3.84-1.81,5.58-.72,1.37-1.65,2.67-2.19,4.13-1.44,3.89,2.38,7.04,4.25,9.96,1.04,1.62,3.64.12,2.59-1.51-.93-1.44-2.09-2.71-3.05-4.13-.43-.63-.89-1.33-1.04-2.09-.05-.24-.09-.5-.06-.75.02-.2.11-.43.18-.62-.05.13-.06.14,0,0,.61-1.38,1.5-2.63,2.17-3.98,2.44-4.92,2.48-10.3,1.17-15.57-.57-2.29-1.69-4.5-1.86-6.88s.03-4.65-.56-6.94c-.48-1.87-3.37-1.08-2.89.8h0Z"/>
        <path class="cls-17" d="M460,142.7c-2.66,2.92-4.9,6.39-6.55,9.97-1.2,2.62-3.35,7.48.08,9.33.47.26,1.19.34,1.6.71.5.45.29,1.62.32,2.25.11,2.35.2,4.7.22,7.06.02,2.69.09,5.55-.66,8.16-.16.57-.24.78-.41,1.09-.1.18-.2.36-.31.53-.23.36,0,.05-.19.25-.13.14-.26.27-.39.39-.32.3.02.02-.22.17-.34.22-.69.42-1.06.59-1.75.81-.23,3.4,1.51,2.59,3.97-1.85,4.5-6.29,4.67-10.21.08-1.89.07-3.79.02-5.68-.03-1.21-.07-2.41-.12-3.62s.03-2.65-.23-3.89c-.16-.78-.55-1.43-1.16-1.94s-1.31-.62-1.97-1c-.46-.27-.48-.25-.46-.82.02-.79.28-1.61.52-2.35,1.35-4.15,3.98-8.25,6.91-11.47,1.3-1.43-.82-3.55-2.12-2.12h0Z"/>
        <circle class="cls-5" cx="462.41" cy="134.79" r="8.16"/>
        <path class="cls-17" d="M533.49,142.59c.52,2.02.31,4.08.45,6.14.15,2.21.96,4.14,1.57,6.24.91,3.1,1.47,6.38,1.07,9.62-.24,1.96-.89,3.84-1.81,5.58-.72,1.37-1.65,2.67-2.19,4.13-1.44,3.89,2.38,7.04,4.25,9.96,1.04,1.62,3.64.12,2.59-1.51-.93-1.44-2.09-2.71-3.05-4.13-.43-.63-.89-1.33-1.04-2.09-.05-.24-.09-.5-.06-.75.02-.2.11-.43.18-.62-.05.13-.06.14,0,0,.61-1.38,1.5-2.63,2.17-3.98,2.44-4.92,2.48-10.3,1.17-15.57-.57-2.29-1.69-4.5-1.86-6.88s.03-4.65-.56-6.94c-.48-1.87-3.37-1.08-2.89.8h0Z"/>
        <path class="cls-17" d="M531.08,142.7c-2.66,2.92-4.9,6.39-6.55,9.97-1.2,2.62-3.35,7.48.08,9.33.47.26,1.19.34,1.6.71.5.45.29,1.62.32,2.25.11,2.35.2,4.7.22,7.06.02,2.69.09,5.55-.66,8.16-.16.57-.24.78-.41,1.09-.1.18-.2.36-.31.53-.23.36,0,.05-.19.25-.13.14-.26.27-.39.39-.32.3.02.02-.22.17-.34.22-.69.42-1.06.59-1.75.81-.23,3.4,1.51,2.59,3.97-1.85,4.5-6.29,4.67-10.21.08-1.89.07-3.79.02-5.68-.03-1.21-.07-2.41-.12-3.62s.03-2.65-.23-3.89c-.16-.78-.55-1.43-1.16-1.94s-1.31-.62-1.97-1c-.46-.27-.48-.25-.46-.82.02-.79.28-1.61.52-2.35,1.35-4.15,3.98-8.25,6.91-11.47,1.3-1.43-.82-3.55-2.12-2.12h0Z"/>
        <circle class="cls-5" cx="533.49" cy="134.79" r="8.16"/>
        <path class="cls-17" d="M480.18,142.59c.52,2.02.31,4.08.45,6.14.15,2.21.96,4.14,1.57,6.24.91,3.1,1.47,6.38,1.07,9.62-.24,1.96-.89,3.84-1.81,5.58-.72,1.37-1.65,2.67-2.19,4.13-1.44,3.89,2.38,7.04,4.25,9.96,1.04,1.62,3.64.12,2.59-1.51-.93-1.44-2.09-2.71-3.05-4.13-.43-.63-.89-1.33-1.04-2.09-.05-.24-.09-.5-.06-.75.02-.2.11-.43.18-.62-.05.13-.06.14,0,0,.61-1.38,1.5-2.63,2.17-3.98,2.44-4.92,2.48-10.3,1.17-15.57-.57-2.29-1.69-4.5-1.86-6.88s.03-4.65-.56-6.94c-.48-1.87-3.37-1.08-2.89.8h0Z"/>
        <path class="cls-17" d="M477.77,142.7c-2.66,2.92-4.9,6.39-6.55,9.97-1.2,2.62-3.35,7.48.08,9.33.47.26,1.19.34,1.6.71.5.45.29,1.62.32,2.25.11,2.35.2,4.7.22,7.06.02,2.69.09,5.55-.66,8.16-.16.57-.24.78-.41,1.09-.1.18-.2.36-.31.53-.23.36,0,.05-.19.25-.13.14-.26.27-.39.39-.32.3.02.02-.22.17-.34.22-.69.42-1.06.59-1.75.81-.23,3.4,1.51,2.59,3.97-1.85,4.5-6.29,4.67-10.21.08-1.89.07-3.79.02-5.68-.03-1.21-.07-2.41-.12-3.62s.03-2.65-.23-3.89c-.16-.78-.55-1.43-1.16-1.94s-1.31-.62-1.97-1c-.46-.27-.48-.25-.46-.82.02-.79.28-1.61.52-2.35,1.35-4.15,3.98-8.25,6.91-11.47,1.3-1.43-.82-3.55-2.12-2.12h0Z"/>
        <circle class="cls-5" cx="480.18" cy="134.79" r="8.16"/>
        <path class="cls-17" d="M213.61,142.59c.52,2.02.31,4.08.45,6.14.15,2.21.96,4.14,1.57,6.24.91,3.1,1.47,6.38,1.07,9.62-.24,1.96-.89,3.84-1.81,5.58-.72,1.37-1.65,2.67-2.19,4.13-1.44,3.89,2.38,7.04,4.25,9.96,1.04,1.62,3.64.12,2.59-1.51-.93-1.44-2.09-2.71-3.05-4.13-.43-.63-.89-1.33-1.04-2.09-.05-.24-.09-.5-.06-.75.02-.2.11-.43.18-.62-.05.13-.06.14,0,0,.61-1.38,1.5-2.63,2.17-3.98,2.44-4.92,2.48-10.3,1.17-15.57-.57-2.29-1.69-4.5-1.86-6.88s.03-4.65-.56-6.94c-.48-1.87-3.37-1.08-2.89.8h0Z"/>
        <path class="cls-17" d="M211.21,142.7c-2.66,2.92-4.9,6.39-6.55,9.97-1.2,2.62-3.35,7.48.08,9.33.47.26,1.19.34,1.6.71.5.45.29,1.62.32,2.25.11,2.35.2,4.7.22,7.06.02,2.69.09,5.55-.66,8.16-.16.57-.24.78-.41,1.09-.1.18-.2.36-.31.53-.23.36,0,.05-.19.25-.13.14-.26.27-.39.39-.32.3.02.02-.22.17-.34.22-.69.42-1.06.59-1.75.81-.23,3.4,1.51,2.59,3.97-1.85,4.5-6.29,4.67-10.21.08-1.89.07-3.79.02-5.68-.03-1.21-.07-2.41-.12-3.62s.03-2.65-.23-3.89c-.16-.78-.55-1.43-1.16-1.94s-1.31-.62-1.97-1c-.46-.27-.48-.25-.46-.82.02-.79.28-1.61.52-2.35,1.35-4.15,3.98-8.25,6.91-11.47,1.3-1.43-.82-3.55-2.12-2.12h0Z"/>
        <circle class="cls-5" cx="213.62" cy="134.79" r="8.16"/>
        <path class="cls-17" d="M499.71,231.06c.92-3.37,1.33-6.88,1.1-10.36s-1.05-7.11-1.7-10.64-1.17-6.99-.56-10.45,2.37-6.53,4.2-9.5c1.02-1.65-1.58-3.15-2.59-1.51-1.84,2.98-3.63,6.1-4.38,9.55s-.5,6.97.04,10.44,1.49,7.12,1.87,10.74.11,7.35-.87,10.93c-.51,1.86,2.38,2.66,2.89.8h0Z"/>
        <path class="cls-17" d="M497.86,228.47c-2.34-2.55-4.9-5.44-5.5-8.97-.64-3.77,1.53-7.44,2.17-11.08,1.24-7.05-.29-14.46-4.31-20.39-1.08-1.59-3.68-.09-2.59,1.51,4.14,6.11,5.42,13.8,3.34,20.9-1.07,3.66-2.37,7.18-1.22,11.01,1.06,3.55,3.53,6.46,5.99,9.13,1.31,1.43,3.43-.7,2.12-2.12h0Z"/>
        <circle class="cls-5" cx="496.82" cy="238.06" r="8.16"/>
        <path class="cls-17" d="M339.77,231.06c.92-3.37,1.33-6.88,1.1-10.36s-1.05-7.11-1.7-10.64-1.17-6.99-.56-10.45,2.37-6.53,4.2-9.5c1.02-1.65-1.58-3.15-2.59-1.51-1.84,2.98-3.63,6.1-4.38,9.55s-.5,6.97.04,10.44,1.49,7.12,1.87,10.74.11,7.35-.87,10.93c-.51,1.86,2.38,2.66,2.89.8h0Z"/>
        <path class="cls-17" d="M337.92,228.47c-2.34-2.55-4.9-5.44-5.5-8.97-.64-3.77,1.53-7.44,2.17-11.08,1.24-7.05-.29-14.46-4.31-20.39-1.08-1.59-3.68-.09-2.59,1.51,4.14,6.11,5.42,13.8,3.34,20.9-1.07,3.66-2.37,7.18-1.22,11.01,1.06,3.55,3.53,6.46,5.99,9.13,1.31,1.43,3.43-.7,2.12-2.12h0Z"/>
        <circle class="cls-5" cx="336.89" cy="238.06" r="8.16"/>
        <path class="cls-17" d="M322,231.06c.92-3.37,1.33-6.88,1.1-10.36s-1.05-7.11-1.7-10.64-1.17-6.99-.56-10.45,2.37-6.53,4.2-9.5c1.02-1.65-1.58-3.15-2.59-1.51-1.84,2.98-3.63,6.1-4.38,9.55s-.5,6.97.04,10.44,1.49,7.12,1.87,10.74.11,7.35-.87,10.93c-.51,1.86,2.38,2.66,2.89.8h0Z"/>
        <path class="cls-17" d="M320.15,228.47c-2.34-2.55-4.9-5.44-5.5-8.97-.64-3.77,1.53-7.44,2.17-11.08,1.24-7.05-.29-14.46-4.31-20.39-1.08-1.59-3.68-.09-2.59,1.51,4.14,6.11,5.42,13.8,3.34,20.9-1.07,3.66-2.37,7.18-1.22,11.01,1.06,3.55,3.53,6.46,5.99,9.13,1.31,1.43,3.43-.7,2.12-2.12h0Z"/>
        <circle class="cls-5" cx="319.11" cy="238.06" r="8.16"/>
        <path class="cls-17" d="M197.61,231.06c.92-3.37,1.33-6.88,1.1-10.36s-1.05-7.11-1.7-10.64-1.17-6.99-.56-10.45,2.37-6.53,4.2-9.5c1.02-1.65-1.58-3.15-2.59-1.51-1.84,2.98-3.63,6.1-4.38,9.55s-.5,6.97.04,10.44,1.49,7.12,1.87,10.74.11,7.35-.87,10.93c-.51,1.86,2.38,2.66,2.89.8h0Z"/>
        <path class="cls-17" d="M195.75,228.47c-2.34-2.55-4.9-5.44-5.5-8.97-.64-3.77,1.53-7.44,2.17-11.08,1.24-7.05-.29-14.46-4.31-20.39-1.08-1.59-3.68-.09-2.59,1.51,4.14,6.11,5.42,13.8,3.34,20.9-1.07,3.66-2.37,7.18-1.22,11.01,1.06,3.55,3.53,6.46,5.99,9.13,1.31,1.43,3.43-.7,2.12-2.12h0Z"/>
        <circle class="cls-5" cx="194.72" cy="238.06" r="8.16"/>
        <path class="cls-17" d="M410.86,231.06c.92-3.37,1.33-6.88,1.1-10.36s-1.05-7.11-1.7-10.64-1.17-6.99-.56-10.45,2.37-6.53,4.2-9.5c1.02-1.65-1.58-3.15-2.59-1.51-1.84,2.98-3.63,6.1-4.38,9.55s-.5,6.97.04,10.44,1.49,7.12,1.87,10.74.11,7.35-.87,10.93c-.51,1.86,2.38,2.66,2.89.8h0Z"/>
        <path class="cls-17" d="M409,228.47c-2.34-2.55-4.9-5.44-5.5-8.97-.64-3.77,1.53-7.44,2.17-11.08,1.24-7.05-.29-14.46-4.31-20.39-1.08-1.59-3.68-.09-2.59,1.51,4.14,6.11,5.42,13.8,3.34,20.9-1.07,3.66-2.37,7.18-1.22,11.01,1.06,3.55,3.53,6.46,5.99,9.13,1.31,1.43,3.43-.7,2.12-2.12h0Z"/>
        <circle class="cls-5" cx="407.97" cy="238.06" r="8.16"/>
        <path class="cls-17" d="M375.32,231.06c.92-3.37,1.33-6.88,1.1-10.36s-1.05-7.11-1.7-10.64-1.17-6.99-.56-10.45,2.37-6.53,4.2-9.5c1.02-1.65-1.58-3.15-2.59-1.51-1.84,2.98-3.63,6.1-4.38,9.55s-.5,6.97.04,10.44,1.49,7.12,1.87,10.74.11,7.35-.87,10.93c-.51,1.86,2.38,2.66,2.89.8h0Z"/>
        <path class="cls-17" d="M373.46,228.47c-2.34-2.55-4.9-5.44-5.5-8.97-.64-3.77,1.53-7.44,2.17-11.08,1.24-7.05-.29-14.46-4.31-20.39-1.08-1.59-3.68-.09-2.59,1.51,4.14,6.11,5.42,13.8,3.34,20.9-1.07,3.66-2.37,7.18-1.22,11.01,1.06,3.55,3.53,6.46,5.99,9.13,1.31,1.43,3.43-.7,2.12-2.12h0Z"/>
        <circle class="cls-5" cx="372.43" cy="238.06" r="8.16"/>
        <path class="cls-17" d="M286.46,231.06c.92-3.37,1.33-6.88,1.1-10.36s-1.05-7.11-1.7-10.64-1.17-6.99-.56-10.45,2.37-6.53,4.2-9.5c1.02-1.65-1.58-3.15-2.59-1.51-1.84,2.98-3.63,6.1-4.38,9.55s-.5,6.97.04,10.44,1.49,7.12,1.87,10.74.11,7.35-.87,10.93c-.51,1.86,2.38,2.66,2.89.8h0Z"/>
        <path class="cls-17" d="M284.61,228.47c-2.34-2.55-4.9-5.44-5.5-8.97-.64-3.77,1.53-7.44,2.17-11.08,1.24-7.05-.29-14.46-4.31-20.39-1.08-1.59-3.68-.09-2.59,1.51,4.14,6.11,5.42,13.8,3.34,20.9-1.07,3.66-2.37,7.18-1.22,11.01,1.06,3.55,3.53,6.46,5.99,9.13,1.31,1.43,3.43-.7,2.12-2.12h0Z"/>
        <circle class="cls-5" cx="283.57" cy="238.06" r="8.16"/>
        <path class="cls-17" d="M162.06,231.06c.92-3.37,1.33-6.88,1.1-10.36s-1.05-7.11-1.7-10.64-1.17-6.99-.56-10.45,2.37-6.53,4.2-9.5c1.02-1.65-1.58-3.15-2.59-1.51-1.84,2.98-3.63,6.1-4.38,9.55s-.5,6.97.04,10.44,1.49,7.12,1.87,10.74.11,7.35-.87,10.93c-.51,1.86,2.38,2.66,2.89.8h0Z"/>
        <path class="cls-17" d="M160.21,228.47c-2.34-2.55-4.9-5.44-5.5-8.97-.64-3.77,1.53-7.44,2.17-11.08,1.24-7.05-.29-14.46-4.31-20.39-1.08-1.59-3.68-.09-2.59,1.51,4.14,6.11,5.42,13.8,3.34,20.9-1.07,3.66-2.37,7.18-1.22,11.01,1.06,3.55,3.53,6.46,5.99,9.13,1.31,1.43,3.43-.7,2.12-2.12h0Z"/>
        <circle class="cls-5" cx="159.18" cy="238.06" r="8.16"/>
        <path class="cls-17" d="M108.75,231.06c.92-3.37,1.33-6.88,1.1-10.36s-1.05-7.11-1.7-10.64-1.17-6.99-.56-10.45,2.37-6.53,4.2-9.5c1.02-1.65-1.58-3.15-2.59-1.51-1.84,2.98-3.63,6.1-4.38,9.55s-.5,6.97.04,10.44,1.49,7.12,1.87,10.74.11,7.35-.87,10.93c-.51,1.86,2.38,2.66,2.89.8h0Z"/>
        <path class="cls-17" d="M106.9,228.47c-2.34-2.55-4.9-5.44-5.5-8.97-.64-3.77,1.53-7.44,2.17-11.08,1.24-7.05-.29-14.46-4.31-20.39-1.08-1.59-3.68-.09-2.59,1.51,4.14,6.11,5.42,13.8,3.34,20.9-1.07,3.66-2.37,7.18-1.22,11.01,1.06,3.55,3.53,6.46,5.99,9.13,1.31,1.43,3.43-.7,2.12-2.12h0Z"/>
        <circle class="cls-5" cx="105.86" cy="238.06" r="8.16"/>
        <path class="cls-17" d="M55.44,231.06c.92-3.37,1.33-6.88,1.1-10.36s-1.05-7.11-1.7-10.64-1.17-6.99-.56-10.45,2.37-6.53,4.2-9.5c1.02-1.65-1.58-3.15-2.59-1.51-1.84,2.98-3.63,6.1-4.38,9.55s-.5,6.97.04,10.44,1.49,7.12,1.87,10.74.11,7.35-.87,10.93c-.51,1.86,2.38,2.66,2.89.8h0Z"/>
        <path class="cls-17" d="M53.58,228.47c-2.34-2.55-4.9-5.44-5.5-8.97-.64-3.77,1.53-7.44,2.17-11.08,1.24-7.05-.29-14.46-4.31-20.39-1.08-1.59-3.68-.09-2.59,1.51,4.14,6.11,5.42,13.8,3.34,20.9-1.07,3.66-2.37,7.18-1.22,11.01,1.06,3.55,3.53,6.46,5.99,9.13,1.31,1.43,3.43-.7,2.12-2.12h0Z"/>
        <circle class="cls-5" cx="52.55" cy="238.06" r="8.16"/>
        <path class="cls-17" d="M74.46,231.06c.46-1.78.44-3.59.46-5.41,0-.91.02-1.82.2-2.71.21-1.03.67-1.99,1.03-2.98,1.19-3.3,1.93-6.83,1.89-10.34-.04-2.74-.56-5.45-1.68-7.96-.43-.97-.95-1.89-1.58-2.74-.29-.4-.6-.78-.92-1.15-.24-.27-.82-.65-.92-.99-.26-.85,1.16-2.37,1.62-2.94,1-1.23,2.08-2.4,2.94-3.73,1.05-1.63-1.55-3.13-2.59-1.51-1.46,2.27-3.8,4.06-4.72,6.67-.42,1.21-.31,2.51.5,3.53.59.73,1.29,1.33,1.82,2.11,3.27,4.84,2.94,11.14,1.32,16.5-.65,2.14-1.64,4.1-1.84,6.36s.12,4.37-.43,6.5c-.48,1.87,2.41,2.67,2.89.8h0Z"/>
        <path class="cls-17" d="M72.61,228.47c-2.18-2.44-2.21-5.39-2.24-8.5-.02-1.75-.27-3.29-.8-4.96-.56-1.76-1.04-3.19-.61-5.02.67-2.91.45-5.77-1.05-8.38s-3.9-4.99-5.7-7.57c-1.1-1.57-3.7-.07-2.59,1.51,1.82,2.61,4.22,4.91,5.77,7.7.62,1.11.96,2.3.96,3.57,0,1.7-.75,3.31-.63,5.01.13,1.78.83,3.41,1.3,5.12.45,1.61.32,3.24.37,4.89.1,3.32.85,6.22,3.1,8.75,1.29,1.44,3.4-.68,2.12-2.12h0Z"/>
        <circle class="cls-5" cx="71.57" cy="238.06" r="8.16"/>
        <path class="cls-17" d="M181.09,231.06c.46-1.78.44-3.59.46-5.41,0-.91.02-1.82.2-2.71.21-1.03.67-1.99,1.03-2.98,1.19-3.3,1.93-6.83,1.89-10.34-.04-2.74-.56-5.45-1.68-7.96-.43-.97-.95-1.89-1.58-2.74-.29-.4-.6-.78-.92-1.15-.24-.27-.82-.65-.92-.99-.26-.85,1.16-2.37,1.62-2.94,1-1.23,2.08-2.4,2.94-3.73,1.05-1.63-1.55-3.13-2.59-1.51-1.46,2.27-3.8,4.06-4.72,6.67-.42,1.21-.31,2.51.5,3.53.59.73,1.29,1.33,1.82,2.11,3.27,4.84,2.94,11.14,1.32,16.5-.65,2.14-1.64,4.1-1.84,6.36s.12,4.37-.43,6.5c-.48,1.87,2.41,2.67,2.89.8h0Z"/>
        <path class="cls-17" d="M179.23,228.47c-2.18-2.44-2.21-5.39-2.24-8.5-.02-1.75-.27-3.29-.8-4.96-.56-1.76-1.04-3.19-.61-5.02.67-2.91.45-5.77-1.05-8.38s-3.9-4.99-5.7-7.57c-1.1-1.57-3.7-.07-2.59,1.51,1.82,2.61,4.22,4.91,5.77,7.7.62,1.11.96,2.3.96,3.57,0,1.7-.75,3.31-.63,5.01.13,1.78.83,3.41,1.3,5.12.45,1.61.32,3.24.37,4.89.1,3.32.85,6.22,3.1,8.75,1.29,1.44,3.4-.68,2.12-2.12h0Z"/>
        <circle class="cls-5" cx="178.2" cy="238.06" r="8.16"/>
        <path class="cls-17" d="M234.4,231.06c.46-1.78.44-3.59.46-5.41,0-.91.02-1.82.2-2.71.21-1.03.67-1.99,1.03-2.98,1.19-3.3,1.93-6.83,1.89-10.34-.04-2.74-.56-5.45-1.68-7.96-.43-.97-.95-1.89-1.58-2.74-.29-.4-.6-.78-.92-1.15-.24-.27-.82-.65-.92-.99-.26-.85,1.16-2.37,1.62-2.94,1-1.23,2.08-2.4,2.94-3.73,1.05-1.63-1.55-3.13-2.59-1.51-1.46,2.27-3.8,4.06-4.72,6.67-.42,1.21-.31,2.51.5,3.53.59.73,1.29,1.33,1.82,2.11,3.27,4.84,2.94,11.14,1.32,16.5-.65,2.14-1.64,4.1-1.84,6.36s.12,4.37-.43,6.5c-.48,1.87,2.41,2.67,2.89.8h0Z"/>
        <path class="cls-17" d="M232.55,228.47c-2.18-2.44-2.21-5.39-2.24-8.5-.02-1.75-.27-3.29-.8-4.96-.56-1.76-1.04-3.19-.61-5.02.67-2.91.45-5.77-1.05-8.38s-3.9-4.99-5.7-7.57c-1.1-1.57-3.7-.07-2.59,1.51,1.82,2.61,4.22,4.91,5.77,7.7.62,1.11.96,2.3.96,3.57,0,1.7-.75,3.31-.63,5.01.13,1.78.83,3.41,1.3,5.12.45,1.61.32,3.24.37,4.89.1,3.32.85,6.22,3.1,8.75,1.29,1.44,3.4-.68,2.12-2.12h0Z"/>
        <circle class="cls-5" cx="231.51" cy="238.06" r="8.16"/>
        <path class="cls-17" d="M305.48,231.06c.46-1.78.44-3.59.46-5.41,0-.91.02-1.82.2-2.71.21-1.03.67-1.99,1.03-2.98,1.19-3.3,1.93-6.83,1.89-10.34-.04-2.74-.56-5.45-1.68-7.96-.43-.97-.95-1.89-1.58-2.74-.29-.4-.6-.78-.92-1.15-.24-.27-.82-.65-.92-.99-.26-.85,1.16-2.37,1.62-2.94,1-1.23,2.08-2.4,2.94-3.73,1.05-1.63-1.55-3.13-2.59-1.51-1.46,2.27-3.8,4.06-4.72,6.67-.42,1.21-.31,2.51.5,3.53.59.73,1.29,1.33,1.82,2.11,3.27,4.84,2.94,11.14,1.32,16.5-.65,2.14-1.64,4.1-1.84,6.36s.12,4.37-.43,6.5c-.48,1.87,2.41,2.67,2.89.8h0Z"/>
        <path class="cls-17" d="M303.63,228.47c-2.18-2.44-2.21-5.39-2.24-8.5-.02-1.75-.27-3.29-.8-4.96-.56-1.76-1.04-3.19-.61-5.02.67-2.91.45-5.77-1.05-8.38s-3.9-4.99-5.7-7.57c-1.1-1.57-3.7-.07-2.59,1.51,1.82,2.61,4.22,4.91,5.77,7.7.62,1.11.96,2.3.96,3.57,0,1.7-.75,3.31-.63,5.01.13,1.78.83,3.41,1.3,5.12.45,1.61.32,3.24.37,4.89.1,3.32.85,6.22,3.1,8.75,1.29,1.44,3.4-.68,2.12-2.12h0Z"/>
        <circle class="cls-5" cx="302.6" cy="238.06" r="8.16"/>
        <path class="cls-17" d="M447.65,231.06c.46-1.78.44-3.59.46-5.41,0-.91.02-1.82.2-2.71.21-1.03.67-1.99,1.03-2.98,1.19-3.3,1.93-6.83,1.89-10.34-.04-2.74-.56-5.45-1.68-7.96-.43-.97-.95-1.89-1.58-2.74-.29-.4-.6-.78-.92-1.15-.24-.27-.82-.65-.92-.99-.26-.85,1.16-2.37,1.62-2.94,1-1.23,2.08-2.4,2.94-3.73,1.05-1.63-1.55-3.13-2.59-1.51-1.46,2.27-3.8,4.06-4.72,6.67-.42,1.21-.31,2.51.5,3.53.59.73,1.29,1.33,1.82,2.11,3.27,4.84,2.94,11.14,1.32,16.5-.65,2.14-1.64,4.1-1.84,6.36s.12,4.37-.43,6.5c-.48,1.87,2.41,2.67,2.89.8h0Z"/>
        <path class="cls-17" d="M445.8,228.47c-2.18-2.44-2.21-5.39-2.24-8.5-.02-1.75-.27-3.29-.8-4.96-.56-1.76-1.04-3.19-.61-5.02.67-2.91.45-5.77-1.05-8.38s-3.9-4.99-5.7-7.57c-1.1-1.57-3.7-.07-2.59,1.51,1.82,2.61,4.22,4.91,5.77,7.7.62,1.11.96,2.3.96,3.57,0,1.7-.75,3.31-.63,5.01.13,1.78.83,3.41,1.3,5.12.45,1.61.32,3.24.37,4.89.1,3.32.85,6.22,3.1,8.75,1.29,1.44,3.4-.68,2.12-2.12h0Z"/>
        <circle class="cls-5" cx="444.76" cy="238.06" r="8.16"/>
        <path class="cls-17" d="M518.74,231.06c.46-1.78.44-3.59.46-5.41,0-.91.02-1.82.2-2.71.21-1.03.67-1.99,1.03-2.98,1.19-3.3,1.93-6.83,1.89-10.34-.04-2.74-.56-5.45-1.68-7.96-.43-.97-.95-1.89-1.58-2.74-.29-.4-.6-.78-.92-1.15-.24-.27-.82-.65-.92-.99-.26-.85,1.16-2.37,1.62-2.94,1-1.23,2.08-2.4,2.94-3.73,1.05-1.63-1.55-3.13-2.59-1.51-1.46,2.27-3.8,4.06-4.72,6.67-.42,1.21-.31,2.51.5,3.53.59.73,1.29,1.33,1.82,2.11,3.27,4.84,2.94,11.14,1.32,16.5-.65,2.14-1.64,4.1-1.84,6.36s.12,4.37-.43,6.5c-.48,1.87,2.41,2.67,2.89.8h0Z"/>
        <path class="cls-17" d="M516.88,228.47c-2.18-2.44-2.21-5.39-2.24-8.5-.02-1.75-.27-3.29-.8-4.96-.56-1.76-1.04-3.19-.61-5.02.67-2.91.45-5.77-1.05-8.38s-3.9-4.99-5.7-7.57c-1.1-1.57-3.7-.07-2.59,1.51,1.82,2.61,4.22,4.91,5.77,7.7.62,1.11.96,2.3.96,3.57,0,1.7-.75,3.31-.63,5.01.13,1.78.83,3.41,1.3,5.12.45,1.61.32,3.24.37,4.89.1,3.32.85,6.22,3.1,8.75,1.29,1.44,3.4-.68,2.12-2.12h0Z"/>
        <circle class="cls-5" cx="515.85" cy="238.06" r="8.16"/>
        <path class="cls-17" d="M21.15,231.06c.46-1.78.44-3.59.46-5.41,0-.91.02-1.82.2-2.71.21-1.03.67-1.99,1.03-2.98,1.19-3.3,1.93-6.83,1.89-10.34-.04-2.74-.56-5.45-1.68-7.96-.43-.97-.95-1.89-1.58-2.74-.29-.4-.6-.78-.92-1.15-.24-.27-.82-.65-.92-.99-.26-.85,1.16-2.37,1.62-2.94,1-1.23,2.08-2.4,2.94-3.73,1.05-1.63-1.55-3.13-2.59-1.51-1.46,2.27-3.8,4.06-4.72,6.67-.42,1.21-.31,2.51.5,3.53.59.73,1.29,1.33,1.82,2.11,3.27,4.84,2.94,11.14,1.32,16.5-.65,2.14-1.64,4.1-1.84,6.36s.12,4.37-.43,6.5c-.48,1.87,2.41,2.67,2.89.8h0Z"/>
        <path class="cls-17" d="M19.3,228.47c-2.18-2.44-2.21-5.39-2.24-8.5-.02-1.75-.27-3.29-.8-4.96-.56-1.76-1.04-3.19-.61-5.02.67-2.91.45-5.77-1.05-8.38s-3.9-4.99-5.7-7.57c-1.1-1.57-3.7-.07-2.59,1.51,1.82,2.61,4.22,4.91,5.77,7.7.62,1.11.96,2.3.96,3.57,0,1.7-.75,3.31-.63,5.01.13,1.78.83,3.41,1.3,5.12.45,1.61.32,3.24.37,4.89.1,3.32.85,6.22,3.1,8.75,1.29,1.44,3.4-.68,2.12-2.12h0Z"/>
        <circle class="cls-5" cx="18.26" cy="238.06" r="8.16"/>
        <path class="cls-17" d="M145.55,231.06c.46-1.78.44-3.59.46-5.41,0-.91.02-1.82.2-2.71.21-1.03.67-1.99,1.03-2.98,1.19-3.3,1.93-6.83,1.89-10.34-.04-2.74-.56-5.45-1.68-7.96-.43-.97-.95-1.89-1.58-2.74-.29-.4-.6-.78-.92-1.15-.24-.27-.82-.65-.92-.99-.26-.85,1.16-2.37,1.62-2.94,1-1.23,2.08-2.4,2.94-3.73,1.05-1.63-1.55-3.13-2.59-1.51-1.46,2.27-3.8,4.06-4.72,6.67-.42,1.21-.31,2.51.5,3.53.59.73,1.29,1.33,1.82,2.11,3.27,4.84,2.94,11.14,1.32,16.5-.65,2.14-1.64,4.1-1.84,6.36s.12,4.37-.43,6.5c-.48,1.87,2.41,2.67,2.89.8h0Z"/>
        <path class="cls-17" d="M143.69,228.47c-2.18-2.44-2.21-5.39-2.24-8.5-.02-1.75-.27-3.29-.8-4.96-.56-1.76-1.04-3.19-.61-5.02.67-2.91.45-5.77-1.05-8.38s-3.9-4.99-5.7-7.57c-1.1-1.57-3.7-.07-2.59,1.51,1.82,2.61,4.22,4.91,5.77,7.7.62,1.11.96,2.3.96,3.57,0,1.7-.75,3.31-.63,5.01.13,1.78.83,3.41,1.3,5.12.45,1.61.32,3.24.37,4.89.1,3.32.85,6.22,3.1,8.75,1.29,1.44,3.4-.68,2.12-2.12h0Z"/>
        <circle class="cls-5" cx="142.66" cy="238.06" r="8.16"/>
        <path class="cls-17" d="M127.06,231.06c.51-2,.45-4.02.52-6.06.07-2.19.82-4.03,1.44-6.1.94-3.15,1.55-6.51,1.32-9.81-.16-2.34-.74-4.56-1.7-6.7-.66-1.46-1.54-2.79-2.27-4.2-.3-.57-.35-.51-.42-1.11-.09-.79.33-1.58.72-2.24,1-1.68,2.38-3.09,3.44-4.73s-1.55-3.14-2.59-1.51c-1.71,2.67-4.9,5.28-4.53,8.77.19,1.71,1.31,3.22,2.12,4.69,2.48,4.47,2.72,9.27,1.52,14.2-.56,2.29-1.61,4.47-1.91,6.81s.05,4.85-.56,7.2c-.48,1.87,2.41,2.67,2.89.8h0Z"/>
        <path class="cls-17" d="M123.88,228.03c-2.62-2.88-4.85-6.4-6.36-9.99-.36-.85-.66-1.73-.88-2.63-.1-.43-.41-1.42-.13-1.82.18-.26,1.06-.45,1.33-.58.67-.3,1.29-.71,1.7-1.34.56-.87.57-1.85.62-2.85.06-1.31.12-2.62.17-3.93.07-2.08.12-4.16.08-6.23-.05-2.49-.12-5.19-1.01-7.56-.69-1.83-1.92-3.21-3.7-4.04s-3.26,1.77-1.51,2.59c.32.15.62.31.92.5.09.05.44.32.15.09.14.12.28.24.41.37.39.36.2.13.44.55.27.45.34.6.45.88.84,2.33.85,4.93.87,7.37.02,2.1-.04,4.21-.12,6.31-.03.65-.05,1.31-.08,1.96-.02.53.11,1.64-.1,2.11-.18.39-.4.47-.81.65-1.52.67-2.74,1.43-2.86,3.26-.11,1.7.51,3.5,1.14,5.05,1.67,4.14,4.17,8.12,7.17,11.42,1.3,1.43,3.42-.7,2.12-2.12h0Z"/>
        <circle class="cls-5" cx="124.17" cy="238.06" r="8.16"/>
        <path class="cls-17" d="M91.51,231.06c.51-2,.45-4.02.52-6.06.07-2.19.82-4.03,1.44-6.1.94-3.15,1.55-6.51,1.32-9.81-.16-2.34-.74-4.56-1.7-6.7-.66-1.46-1.54-2.79-2.27-4.2-.3-.57-.35-.51-.42-1.11-.09-.79.33-1.58.72-2.24,1-1.68,2.38-3.09,3.44-4.73s-1.55-3.14-2.59-1.51c-1.71,2.67-4.9,5.28-4.53,8.77.19,1.71,1.31,3.22,2.12,4.69,2.48,4.47,2.72,9.27,1.52,14.2-.56,2.29-1.61,4.47-1.91,6.81s.05,4.85-.56,7.2c-.48,1.87,2.41,2.67,2.89.8h0Z"/>
        <path class="cls-17" d="M88.34,228.03c-2.62-2.88-4.85-6.4-6.36-9.99-.36-.85-.66-1.73-.88-2.63-.1-.43-.41-1.42-.13-1.82.18-.26,1.06-.45,1.33-.58.67-.3,1.29-.71,1.7-1.34.56-.87.57-1.85.62-2.85.06-1.31.12-2.62.17-3.93.07-2.08.12-4.16.08-6.23-.05-2.49-.12-5.19-1.01-7.56-.69-1.83-1.92-3.21-3.7-4.04s-3.26,1.77-1.51,2.59c.32.15.62.31.92.5.09.05.44.32.15.09.14.12.28.24.41.37.39.36.2.13.44.55.27.45.34.6.45.88.84,2.33.85,4.93.87,7.37.02,2.1-.04,4.21-.12,6.31-.03.65-.05,1.31-.08,1.96-.02.53.11,1.64-.1,2.11-.18.39-.4.47-.81.65-1.52.67-2.74,1.43-2.86,3.26-.11,1.7.51,3.5,1.14,5.05,1.67,4.14,4.17,8.12,7.17,11.42,1.3,1.43,3.42-.7,2.12-2.12h0Z"/>
        <circle class="cls-5" cx="88.63" cy="238.06" r="8.16"/>
        <path class="cls-17" d="M38.2,231.06c.51-2,.45-4.02.52-6.06.07-2.19.82-4.03,1.44-6.1.94-3.15,1.55-6.51,1.32-9.81-.16-2.34-.74-4.56-1.7-6.7-.66-1.46-1.54-2.79-2.27-4.2-.3-.57-.35-.51-.42-1.11-.09-.79.33-1.58.72-2.24,1-1.68,2.38-3.09,3.44-4.73s-1.55-3.14-2.59-1.51c-1.71,2.67-4.9,5.28-4.53,8.77.19,1.71,1.31,3.22,2.12,4.69,2.48,4.47,2.72,9.27,1.52,14.2-.56,2.29-1.61,4.47-1.91,6.81s.05,4.85-.56,7.2c-.48,1.87,2.41,2.67,2.89.8h0Z"/>
        <path class="cls-17" d="M35.02,228.03c-2.62-2.88-4.85-6.4-6.36-9.99-.36-.85-.66-1.73-.88-2.63-.1-.43-.41-1.42-.13-1.82.18-.26,1.06-.45,1.33-.58.67-.3,1.29-.71,1.7-1.34.56-.87.57-1.85.62-2.85.06-1.31.12-2.62.17-3.93.07-2.08.12-4.16.08-6.23-.05-2.49-.12-5.19-1.01-7.56-.69-1.83-1.92-3.21-3.7-4.04s-3.26,1.77-1.51,2.59c.32.15.62.31.92.5.09.05.44.32.15.09.14.12.28.24.41.37.39.36.2.13.44.55.27.45.34.6.45.88.84,2.33.85,4.93.87,7.37.02,2.1-.04,4.21-.12,6.31-.03.65-.05,1.31-.08,1.96-.02.53.11,1.64-.1,2.11-.18.39-.4.47-.81.65-1.52.67-2.74,1.43-2.86,3.26-.11,1.7.51,3.5,1.14,5.05,1.67,4.14,4.17,8.12,7.17,11.42,1.3,1.43,3.42-.7,2.12-2.12h0Z"/>
        <circle class="cls-5" cx="35.31" cy="238.06" r="8.16"/>
        <path class="cls-17" d="M251.45,231.06c.51-2,.45-4.02.52-6.06.07-2.19.82-4.03,1.44-6.1.94-3.15,1.55-6.51,1.32-9.81-.16-2.34-.74-4.56-1.7-6.7-.66-1.46-1.54-2.79-2.27-4.2-.3-.57-.35-.51-.42-1.11-.09-.79.33-1.58.72-2.24,1-1.68,2.38-3.09,3.44-4.73s-1.55-3.14-2.59-1.51c-1.71,2.67-4.9,5.28-4.53,8.77.19,1.71,1.31,3.22,2.12,4.69,2.48,4.47,2.72,9.27,1.52,14.2-.56,2.29-1.61,4.47-1.91,6.81s.05,4.85-.56,7.2c-.48,1.87,2.41,2.67,2.89.8h0Z"/>
        <path class="cls-17" d="M248.27,228.03c-2.62-2.88-4.85-6.4-6.36-9.99-.36-.85-.66-1.73-.88-2.63-.1-.43-.41-1.42-.13-1.82.18-.26,1.06-.45,1.33-.58.67-.3,1.29-.71,1.7-1.34.56-.87.57-1.85.62-2.85.06-1.31.12-2.62.17-3.93.07-2.08.12-4.16.08-6.23-.05-2.49-.12-5.19-1.01-7.56-.69-1.83-1.92-3.21-3.7-4.04s-3.26,1.77-1.51,2.59c.32.15.62.31.92.5.09.05.44.32.15.09.14.12.28.24.41.37.39.36.2.13.44.55.27.45.34.6.45.88.84,2.33.85,4.93.87,7.37.02,2.1-.04,4.21-.12,6.31-.03.65-.05,1.31-.08,1.96-.02.53.11,1.64-.1,2.11-.18.39-.4.47-.81.65-1.52.67-2.74,1.43-2.86,3.26-.11,1.7.51,3.5,1.14,5.05,1.67,4.14,4.17,8.12,7.17,11.42,1.3,1.43,3.42-.7,2.12-2.12h0Z"/>
        <circle class="cls-5" cx="248.56" cy="238.06" r="8.16"/>
        <path class="cls-17" d="M269.22,231.06c.51-2,.45-4.02.52-6.06.07-2.19.82-4.03,1.44-6.1.94-3.15,1.55-6.51,1.32-9.81-.16-2.34-.74-4.56-1.7-6.7-.66-1.46-1.54-2.79-2.27-4.2-.3-.57-.35-.51-.42-1.11-.09-.79.33-1.58.72-2.24,1-1.68,2.38-3.09,3.44-4.73s-1.55-3.14-2.59-1.51c-1.71,2.67-4.9,5.28-4.53,8.77.19,1.71,1.31,3.22,2.12,4.69,2.48,4.47,2.72,9.27,1.52,14.2-.56,2.29-1.61,4.47-1.91,6.81s.05,4.85-.56,7.2c-.48,1.87,2.41,2.67,2.89.8h0Z"/>
        <path class="cls-17" d="M266.05,228.03c-2.62-2.88-4.85-6.4-6.36-9.99-.36-.85-.66-1.73-.88-2.63-.1-.43-.41-1.42-.13-1.82.18-.26,1.06-.45,1.33-.58.67-.3,1.29-.71,1.7-1.34.56-.87.57-1.85.62-2.85.06-1.31.12-2.62.17-3.93.07-2.08.12-4.16.08-6.23-.05-2.49-.12-5.19-1.01-7.56-.69-1.83-1.92-3.21-3.7-4.04s-3.26,1.77-1.51,2.59c.32.15.62.31.92.5.09.05.44.32.15.09.14.12.28.24.41.37.39.36.2.13.44.55.27.45.34.6.45.88.84,2.33.85,4.93.87,7.37.02,2.1-.04,4.21-.12,6.31-.03.65-.05,1.31-.08,1.96-.02.53.11,1.64-.1,2.11-.18.39-.4.47-.81.65-1.52.67-2.74,1.43-2.86,3.26-.11,1.7.51,3.5,1.14,5.05,1.67,4.14,4.17,8.12,7.17,11.42,1.3,1.43,3.42-.7,2.12-2.12h0Z"/>
        <circle class="cls-5" cx="266.34" cy="238.06" r="8.16"/>
        <path class="cls-17" d="M358.08,231.06c.51-2,.45-4.02.52-6.06.07-2.19.82-4.03,1.44-6.1.94-3.15,1.55-6.51,1.32-9.81-.16-2.34-.74-4.56-1.7-6.7-.66-1.46-1.54-2.79-2.27-4.2-.3-.57-.35-.51-.42-1.11-.09-.79.33-1.58.72-2.24,1-1.68,2.38-3.09,3.44-4.73s-1.55-3.14-2.59-1.51c-1.71,2.67-4.9,5.28-4.53,8.77.19,1.71,1.31,3.22,2.12,4.69,2.48,4.47,2.72,9.27,1.52,14.2-.56,2.29-1.61,4.47-1.91,6.81s.05,4.85-.56,7.2c-.48,1.87,2.41,2.67,2.89.8h0Z"/>
        <path class="cls-17" d="M354.9,228.03c-2.62-2.88-4.85-6.4-6.36-9.99-.36-.85-.66-1.73-.88-2.63-.1-.43-.41-1.42-.13-1.82.18-.26,1.06-.45,1.33-.58.67-.3,1.29-.71,1.7-1.34.56-.87.57-1.85.62-2.85.06-1.31.12-2.62.17-3.93.07-2.08.12-4.16.08-6.23-.05-2.49-.12-5.19-1.01-7.56-.69-1.83-1.92-3.21-3.7-4.04s-3.26,1.77-1.51,2.59c.32.15.62.31.92.5.09.05.44.32.15.09.14.12.28.24.41.37.39.36.2.13.44.55.27.45.34.6.45.88.84,2.33.85,4.93.87,7.37.02,2.1-.04,4.21-.12,6.31-.03.65-.05,1.31-.08,1.96-.02.53.11,1.64-.1,2.11-.18.39-.4.47-.81.65-1.52.67-2.74,1.43-2.86,3.26-.11,1.7.51,3.5,1.14,5.05,1.67,4.14,4.17,8.12,7.17,11.42,1.3,1.43,3.42-.7,2.12-2.12h0Z"/>
        <circle class="cls-5" cx="355.19" cy="238.06" r="8.16"/>
        <path class="cls-17" d="M393.62,231.06c.51-2,.45-4.02.52-6.06.07-2.19.82-4.03,1.44-6.1.94-3.15,1.55-6.51,1.32-9.81-.16-2.34-.74-4.56-1.7-6.7-.66-1.46-1.54-2.79-2.27-4.2-.3-.57-.35-.51-.42-1.11-.09-.79.33-1.58.72-2.24,1-1.68,2.38-3.09,3.44-4.73s-1.55-3.14-2.59-1.51c-1.71,2.67-4.9,5.28-4.53,8.77.19,1.71,1.31,3.22,2.12,4.69,2.48,4.47,2.72,9.27,1.52,14.2-.56,2.29-1.61,4.47-1.91,6.81s.05,4.85-.56,7.2c-.48,1.87,2.41,2.67,2.89.8h0Z"/>
        <path class="cls-17" d="M390.44,228.03c-2.62-2.88-4.85-6.4-6.36-9.99-.36-.85-.66-1.73-.88-2.63-.1-.43-.41-1.42-.13-1.82.18-.26,1.06-.45,1.33-.58.67-.3,1.29-.71,1.7-1.34.56-.87.57-1.85.62-2.85.06-1.31.12-2.62.17-3.93.07-2.08.12-4.16.08-6.23-.05-2.49-.12-5.19-1.01-7.56-.69-1.83-1.92-3.21-3.7-4.04s-3.26,1.77-1.51,2.59c.32.15.62.31.92.5.09.05.44.32.15.09.14.12.28.24.41.37.39.36.2.13.44.55.27.45.34.6.45.88.84,2.33.85,4.93.87,7.37.02,2.1-.04,4.21-.12,6.31-.03.65-.05,1.31-.08,1.96-.02.53.11,1.64-.1,2.11-.18.39-.4.47-.81.65-1.52.67-2.74,1.43-2.86,3.26-.11,1.7.51,3.5,1.14,5.05,1.67,4.14,4.17,8.12,7.17,11.42,1.3,1.43,3.42-.7,2.12-2.12h0Z"/>
        <circle class="cls-5" cx="390.73" cy="238.06" r="8.16"/>
        <path class="cls-17" d="M429.16,231.06c.51-2,.45-4.02.52-6.06.07-2.19.82-4.03,1.44-6.1.94-3.15,1.55-6.51,1.32-9.81-.16-2.34-.74-4.56-1.7-6.7-.66-1.46-1.54-2.79-2.27-4.2-.3-.57-.35-.51-.42-1.11-.09-.79.33-1.58.72-2.24,1-1.68,2.38-3.09,3.44-4.73s-1.55-3.14-2.59-1.51c-1.71,2.67-4.9,5.28-4.53,8.77.19,1.71,1.31,3.22,2.12,4.69,2.48,4.47,2.72,9.27,1.52,14.2-.56,2.29-1.61,4.47-1.91,6.81s.05,4.85-.56,7.2c-.48,1.87,2.41,2.67,2.89.8h0Z"/>
        <path class="cls-17" d="M425.98,228.03c-2.62-2.88-4.85-6.4-6.36-9.99-.36-.85-.66-1.73-.88-2.63-.1-.43-.41-1.42-.13-1.82.18-.26,1.06-.45,1.33-.58.67-.3,1.29-.71,1.7-1.34.56-.87.57-1.85.62-2.85.06-1.31.12-2.62.17-3.93.07-2.08.12-4.16.08-6.23-.05-2.49-.12-5.19-1.01-7.56-.69-1.83-1.92-3.21-3.7-4.04s-3.26,1.77-1.51,2.59c.32.15.62.31.92.5.09.05.44.32.15.09.14.12.28.24.41.37.39.36.2.13.44.55.27.45.34.6.45.88.84,2.33.85,4.93.87,7.37.02,2.1-.04,4.21-.12,6.31-.03.65-.05,1.31-.08,1.96-.02.53.11,1.64-.1,2.11-.18.39-.4.47-.81.65-1.52.67-2.74,1.43-2.86,3.26-.11,1.7.51,3.5,1.14,5.05,1.67,4.14,4.17,8.12,7.17,11.42,1.3,1.43,3.42-.7,2.12-2.12h0Z"/>
        <circle class="cls-5" cx="426.27" cy="238.06" r="8.16"/>
        <path class="cls-17" d="M464.7,231.06c.51-2,.45-4.02.52-6.06.07-2.19.82-4.03,1.44-6.1.94-3.15,1.55-6.51,1.32-9.81-.16-2.34-.74-4.56-1.7-6.7-.66-1.46-1.54-2.79-2.27-4.2-.3-.57-.35-.51-.42-1.11-.09-.79.33-1.58.72-2.24,1-1.68,2.38-3.09,3.44-4.73s-1.55-3.14-2.59-1.51c-1.71,2.67-4.9,5.28-4.53,8.77.19,1.71,1.31,3.22,2.12,4.69,2.48,4.47,2.72,9.27,1.52,14.2-.56,2.29-1.61,4.47-1.91,6.81s.05,4.85-.56,7.2c-.48,1.87,2.41,2.67,2.89.8h0Z"/>
        <path class="cls-17" d="M461.53,228.03c-2.62-2.88-4.85-6.4-6.36-9.99-.36-.85-.66-1.73-.88-2.63-.1-.43-.41-1.42-.13-1.82.18-.26,1.06-.45,1.33-.58.67-.3,1.29-.71,1.7-1.34.56-.87.57-1.85.62-2.85.06-1.31.12-2.62.17-3.93.07-2.08.12-4.16.08-6.23-.05-2.49-.12-5.19-1.01-7.56-.69-1.83-1.92-3.21-3.7-4.04s-3.26,1.77-1.51,2.59c.32.15.62.31.92.5.09.05.44.32.15.09.14.12.28.24.41.37.39.36.2.13.44.55.27.45.34.6.45.88.84,2.33.85,4.93.87,7.37.02,2.1-.04,4.21-.12,6.31-.03.65-.05,1.31-.08,1.96-.02.53.11,1.64-.1,2.11-.18.39-.4.47-.81.65-1.52.67-2.74,1.43-2.86,3.26-.11,1.7.51,3.5,1.14,5.05,1.67,4.14,4.17,8.12,7.17,11.42,1.3,1.43,3.42-.7,2.12-2.12h0Z"/>
        <circle class="cls-5" cx="461.82" cy="238.06" r="8.16"/>
        <path class="cls-17" d="M535.79,231.06c.51-2,.45-4.02.52-6.06.07-2.19.82-4.03,1.44-6.1.94-3.15,1.55-6.51,1.32-9.81-.16-2.34-.74-4.56-1.7-6.7-.66-1.46-1.54-2.79-2.27-4.2-.3-.57-.35-.51-.42-1.11-.09-.79.33-1.58.72-2.24,1-1.68,2.38-3.09,3.44-4.73s-1.55-3.14-2.59-1.51c-1.71,2.67-4.9,5.28-4.53,8.77.19,1.71,1.31,3.22,2.12,4.69,2.48,4.47,2.72,9.27,1.52,14.2-.56,2.29-1.61,4.47-1.91,6.81s.05,4.85-.56,7.2c-.48,1.87,2.41,2.67,2.89.8h0Z"/>
        <path class="cls-17" d="M532.61,228.03c-2.62-2.88-4.85-6.4-6.36-9.99-.36-.85-.66-1.73-.88-2.63-.1-.43-.41-1.42-.13-1.82.18-.26,1.06-.45,1.33-.58.67-.3,1.29-.71,1.7-1.34.56-.87.57-1.85.62-2.85.06-1.31.12-2.62.17-3.93.07-2.08.12-4.16.08-6.23-.05-2.49-.12-5.19-1.01-7.56-.69-1.83-1.92-3.21-3.7-4.04s-3.26,1.77-1.51,2.59c.32.15.62.31.92.5.09.05.44.32.15.09.14.12.28.24.41.37.39.36.2.13.44.55.27.45.34.6.45.88.84,2.33.85,4.93.87,7.37.02,2.1-.04,4.21-.12,6.31-.03.65-.05,1.31-.08,1.96-.02.53.11,1.64-.1,2.11-.18.39-.4.47-.81.65-1.52.67-2.74,1.43-2.86,3.26-.11,1.7.51,3.5,1.14,5.05,1.67,4.14,4.17,8.12,7.17,11.42,1.3,1.43,3.42-.7,2.12-2.12h0Z"/>
        <circle class="cls-5" cx="532.9" cy="238.06" r="8.16"/>
        <path class="cls-17" d="M482.48,231.06c.51-2,.45-4.02.52-6.06.07-2.19.82-4.03,1.44-6.1.94-3.15,1.55-6.51,1.32-9.81-.16-2.34-.74-4.56-1.7-6.7-.66-1.46-1.54-2.79-2.27-4.2-.3-.57-.35-.51-.42-1.11-.09-.79.33-1.58.72-2.24,1-1.68,2.38-3.09,3.44-4.73s-1.55-3.14-2.59-1.51c-1.71,2.67-4.9,5.28-4.53,8.77.19,1.71,1.31,3.22,2.12,4.69,2.48,4.47,2.72,9.27,1.52,14.2-.56,2.29-1.61,4.47-1.91,6.81s.05,4.85-.56,7.2c-.48,1.87,2.41,2.67,2.89.8h0Z"/>
        <path class="cls-17" d="M479.3,228.03c-2.62-2.88-4.85-6.4-6.36-9.99-.36-.85-.66-1.73-.88-2.63-.1-.43-.41-1.42-.13-1.82.18-.26,1.06-.45,1.33-.58.67-.3,1.29-.71,1.7-1.34.56-.87.57-1.85.62-2.85.06-1.31.12-2.62.17-3.93.07-2.08.12-4.16.08-6.23-.05-2.49-.12-5.19-1.01-7.56-.69-1.83-1.92-3.21-3.7-4.04s-3.26,1.77-1.51,2.59c.32.15.62.31.92.5.09.05.44.32.15.09.14.12.28.24.41.37.39.36.2.13.44.55.27.45.34.6.45.88.84,2.33.85,4.93.87,7.37.02,2.1-.04,4.21-.12,6.31-.03.65-.05,1.31-.08,1.96-.02.53.11,1.64-.1,2.11-.18.39-.4.47-.81.65-1.52.67-2.74,1.43-2.86,3.26-.11,1.7.51,3.5,1.14,5.05,1.67,4.14,4.17,8.12,7.17,11.42,1.3,1.43,3.42-.7,2.12-2.12h0Z"/>
        <circle class="cls-5" cx="479.59" cy="238.06" r="8.16"/>
        <path class="cls-17" d="M215.91,231.06c.51-2,.45-4.02.52-6.06.07-2.19.82-4.03,1.44-6.1.94-3.15,1.55-6.51,1.32-9.81-.16-2.34-.74-4.56-1.7-6.7-.66-1.46-1.54-2.79-2.27-4.2-.3-.57-.35-.51-.42-1.11-.09-.79.33-1.58.72-2.24,1-1.68,2.38-3.09,3.44-4.73s-1.55-3.14-2.59-1.51c-1.71,2.67-4.9,5.28-4.53,8.77.19,1.71,1.31,3.22,2.12,4.69,2.48,4.47,2.72,9.27,1.52,14.2-.56,2.29-1.61,4.47-1.91,6.81s.05,4.85-.56,7.2c-.48,1.87,2.41,2.67,2.89.8h0Z"/>
        <path class="cls-17" d="M212.73,228.03c-2.62-2.88-4.85-6.4-6.36-9.99-.36-.85-.66-1.73-.88-2.63-.1-.43-.41-1.42-.13-1.82.18-.26,1.06-.45,1.33-.58.67-.3,1.29-.71,1.7-1.34.56-.87.57-1.85.62-2.85.06-1.31.12-2.62.17-3.93.07-2.08.12-4.16.08-6.23-.05-2.49-.12-5.19-1.01-7.56-.69-1.83-1.92-3.21-3.7-4.04s-3.26,1.77-1.51,2.59c.32.15.62.31.92.5.09.05.44.32.15.09.14.12.28.24.41.37.39.36.2.13.44.55.27.45.34.6.45.88.84,2.33.85,4.93.87,7.37.02,2.1-.04,4.21-.12,6.31-.03.65-.05,1.31-.08,1.96-.02.53.11,1.64-.1,2.11-.18.39-.4.47-.81.65-1.52.67-2.74,1.43-2.86,3.26-.11,1.7.51,3.5,1.14,5.05,1.67,4.14,4.17,8.12,7.17,11.42,1.3,1.43,3.42-.7,2.12-2.12h0Z"/>
        <circle class="cls-5" cx="213.02" cy="238.06" r="8.16"/>
      </g>
      <g>
        <path class="cls-4" d="M131.89,260.3c-7.05,5.52-17.98,6.2-26.35,4.19-6.88-1.72-12.52-5.47-15.07-13.55-2.4-7.64-2.37-17.2-2.5-25.75-.08-22.08-.01-47.71-.03-69.31.21-11.06-2.95-29.44,4.9-36.36,10.28-9.06,27.24-10.12,36.96-3.19,4.01,2.86,5.21,2.63,7.87,6.98,3.6,5.9,2.45,12.5,2.73,20.28.28,14.63.09,30.65.15,46.14-.02,12.99.04,24.71-.04,36.34-.35,13.41.11,27.1-8.59,34.21l-.02.02h0Z"/>
        <g>
          <path class="cls-3" d="M96.2,154.22c.17,17.9-1.3,46.56-1.69,63.55-.07,3.13-.04,6.11.26,9.2.49,6.85,8.63,34.01,2.46,38.46-1.67,1.22-9.48-10.87-12.27-10.6-3.78.34-8.12.26-12.02.19-6.49-.28-12.94-.39-14.74-7.19-2.25-5.63-2.38-19.46.04-29.87,2.18-9.38,10.01-11.56.37-28-9.67-16.49-6.23-53.38,5.23-69.59,3.96-5.52,11.21,2.01,18.05,2.3,4.91.26,13.93-14.74,16.35-10.35,2.23,4.7-1.81,25.83-1.81,31.35-.1,3.48-.19,7.07-.22,10.5v.03h0Z"/>
          <path class="cls-3" d="M131.84,153.86c-.17,17.9,1.3,46.56,1.69,63.55.07,3.13.04,6.11-.26,9.2-.49,6.85-8.63,34.01-2.46,38.46,1.67,1.22,9.48-10.87,12.27-10.6,3.78.34,8.12.26,12.02.19,6.49-.28,12.94-.39,14.74-7.19,2.25-5.63,2.38-19.46-.04-29.87-2.18-9.38-10.01-11.56-.37-28,9.67-16.49,6.23-53.38-5.23-69.59-3.96-5.52-11.21,2.01-18.05,2.3-4.91.26-13.93-14.74-16.35-10.35-2.23,4.7,1.81,25.83,1.81,31.35.1,3.48.19,7.07.22,10.5v.03h0Z"/>
        </g>
      </g>
      <g>
        <path class="cls-2" d="M477.46,254.16c-7.61-1.93-17.21-3.64-28.36-3.97-14.72-.44-27.12,1.67-36.21,3.97V111.21c8.95,1.99,20.52,3.69,34.03,3.53,11.95-.14,22.29-1.7,30.54-3.53v142.96Z"/>
        <path class="cls-10" d="M467.75,110.92c3.53-1.19,10.71-2.99,17.93,0,0,0,6.74,2.79,11.65,10.76,14.52,23.54,8.72,135.35-16.13,137.14-6.93.5-13.19-7.72-13.44-8.07-7.34-9.89.64-18.68-2.69-34.96-3.97-19.42-18.13-20.55-17.93-36.75.13-10.07,5.6-10.03,7.17-25.1,1.25-11.94-1.75-16.23.9-25.1,2.51-8.42,8.11-14.26,12.55-17.93Z"/>
        <path class="cls-10" d="M426.51,110.92c-3.53-1.19-10.71-2.99-17.93,0,0,0-6.74,2.79-11.65,10.76-14.52,23.54-8.72,135.35,16.13,137.14,6.93.5,13.19-7.72,13.44-8.07,7.34-9.89-.64-18.68,2.69-34.96,3.97-19.42,18.13-20.55,17.93-36.75-.13-10.07-5.6-10.03-7.17-25.1-1.25-11.94,1.75-16.23-.9-25.1-2.51-8.42-8.11-14.26-12.55-17.93Z"/>
      </g>
      <g>
        <path class="cls-11" d="M316.45,258.58c-14.28,6.01-31.24-2.45-46.45,1.14-8.65-.56-39.84,7.33-34.45-8.36,3.25-7.3,8.75-28.03,9.17-36.62,3.93-34.04,10.01-52.66,1.5-86.06,4.18-23.79,30.24,1.14,45.84-7.63,9.14-.33,32.09-10.72,29.89,5.6-7.33,31.98,25.43,89.09,18.57,121.19-3.2,20.63-.55,9.46-24.08,10.73Z"/>
        <path class="cls-7" d="M351.15,234.85c-23.22-39.05-23.39-101.62-23.42-111.22,0-3.04.07-9.66-6.19-13.49-9.06-5.54-28.57-3.51-40.21,2.33-11.64-5.84-31.16-7.87-40.21-2.33-6.26,3.83-6.18,10.45-6.19,13.49-.03,9.6-.2,72.17-23.42,111.22-4.73,7.96-9.52,14.42-5.7,21.53,6.62,12.33,38.31,19.62,51.05,12.98,8.29-4.32,5.63-13.02,4.99-28.29-.02-.47-.04-.97-.06-1.49-.03,0-.06,0-.09,0-7.87,0-14.25-6.38-14.25-14.25s6.38-14.25,14.25-14.25c.05,0,.1,0,.15,0,.23-3.92.57-8.03,1.06-12.27-7.17-.74-12.76-6.8-12.76-14.17,0-7.87,6.38-14.25,14.25-14.25,1.41,0,2.77.21,4.05.59,2.95-10.05,7.09-20.1,12.88-29.47,9.38,15.18,14.45,32.15,17.11,48.04.82-.15,1.66-.23,2.52-.23,7.87,0,14.25,6.38,14.25,14.25s-6.3,14.16-14.1,14.24c.28,9.67-.06,17.79-.29,23.24-.57,13.54-2.72,21.92,2.58,26.65l7.79-1.85c2.73-.65,4.85-2.77,5.5-5.5l2.38-10.05c.34-1.44,2.39-1.44,2.73,0l2.38,10.05c.65,2.73,2.77,4.85,5.5,5.5l9.4,2.23c7.94-2.77,15.29-6.63,17.78-11.73,3.44-7.05-.97-13.57-5.7-21.53Z"/>
      </g>
      <g>
        <circle class="cls-13" cx="114.89" cy="45.46" r="21.95"/>
        <g>
          <line class="cls-6" x1="114.89" y1="30.22" x2="114.89" y2="60.7"/>
          <line class="cls-6" x1="100.17" y1="45.46" x2="129.62" y2="45.46"/>
        </g>
      </g>
      <g>
        <circle class="cls-8" cx="183.95" cy="328.11" r="18.83"/>
        <g>
          <line class="cls-6" x1="183.95" y1="315.24" x2="183.95" y2="340.98"/>
          <line class="cls-6" x1="171.71" y1="328.11" x2="196.51" y2="328.11"/>
        </g>
      </g>
      <g>
        <circle class="cls-16" cx="346.68" cy="33.5" r="18.83"/>
        <g>
          <line class="cls-6" x1="346.68" y1="20.63" x2="346.68" y2="46.37"/>
          <line class="cls-6" x1="334.43" y1="33.5" x2="359.23" y2="33.5"/>
        </g>
      </g>
      <g>
        <circle class="cls-15" cx="484.74" cy="62.4" r="14.74"/>
        <circle class="cls-9" cx="502.17" cy="62.4" r="14.74"/>
      </g>
      <g>
        <circle class="cls-14" cx="362.29" cy="322.02" r="14.24"/>
        <circle class="cls-1" cx="380.56" cy="322.19" r="16.75"/>
        <circle class="cls-12" cx="397.48" cy="322.02" r="14.24"/>
      </g>
    </g>
  </g>
</svg>