<?xml version="1.0" encoding="UTF-8"?>
<svg id="b" data-name="Layer 2" xmlns="http://www.w3.org/2000/svg" width="645.64" height="721.59" viewBox="0 0 645.64 721.59">
  <defs>
    <style>
      .d {
        fill: #6fccdd;
        stroke: #231f20;
      }

      .d, .e {
        stroke-miterlimit: 10;
        stroke-width: 10px;
      }

      .e {
        fill: #3499cc;
        stroke: #010101;
      }
    </style>
  </defs>
  <g id="c" data-name="Layer 1">
    <g>
      <path class="e" d="M128.52,61.65c-11.85,8.39,24.93,26.03,30.98,55.32,4.34,16.82,1.77,38.17.92,57.66-.9,16.53-1.81,32.95-2.72,49.53-7.03,132.49-15.38,269.4-20.87,385.38-.22,9.5-.08,19.03,1.32,28.05,8.06,58.15,72.5,54.8,118.88,53.89,59.16-1.61,119.35,1.22,178.58-2.14,89.85-5.22,37.51-29.22,25.6-84.64-1.53-7.53-2.15-15.32-2.26-23.24,1.44-144.93,40.76-300.1,34.53-444.4-2.07-24.8-10.11-52.05-29.52-68.13-22.04-17.97-51.01-16.81-79.79-15.03-18.54,1.32-39.19,2.77-58.63,2.82-37.86.51-76.01-1.92-113.92-4-24.45-.47-64.59-.93-83.04,8.87l-.06.04Z"/>
      <path class="d" d="M184.04,708.93c-37.91,7.22-59.32,11.65-97.89,2.55-31.71-7.78-57.69-24.81-69.44-61.39-11.08-34.63-10.92-77.93-11.53-116.69-.35-100.07-.06-216.21-.12-314.12.97-50.1,43.98-139.7,69.67-178.95C105.69-7.22,135.27,4.67,180.34,20.67c21.62,7.72,10.75,45.13,21.22,69.6,12.16,28.73,20.56,68.16,21.83,103.4,1.31,66.29.09,111.68,0,181.84-.08,60.58-2.7,173.13-3.45,189.26-2.8,60.74,6.64,95.86-13.66,132.85-5.72,10.42-22.24,11.31-22.24,11.31Z"/>
      <path class="d" d="M461.61,707.35c37.91,7.22,59.32,11.65,97.89,2.55,31.71-7.78,57.69-24.81,69.44-61.39,11.08-34.63,10.92-77.93,11.53-116.69.35-100.07.06-216.21.12-314.12-.97-50.1-43.98-139.7-69.67-178.95-30.97-47.54-60.54-35.65-105.61-19.65-21.62,7.72-10.75,45.13-21.22,69.6-12.16,28.73-20.56,68.16-21.83,103.4-1.31,66.29-.09,111.68,0,181.84.08,60.58,2.7,173.13,3.45,189.26,2.8,60.74-6.64,95.86,13.66,132.85,5.72,10.42,22.24,11.31,22.24,11.31Z"/>
    </g>
  </g>
</svg>