<?xml version="1.0" encoding="UTF-8"?>
<svg id="b" data-name="Layer 2" xmlns="http://www.w3.org/2000/svg" width="650" height="975" viewBox="0 0 650 975">
  <defs>
    <style>
      .d {
        fill: none;
      }

      .e, .f, .g, .h {
        stroke-miterlimit: 10;
        stroke-width: 10px;
      }

      .e, .g {
        fill: #4068b2;
      }

      .e, .h {
        stroke: #010101;
      }

      .f {
        fill: #00aeef;
      }

      .f, .g {
        stroke: #231f20;
      }

      .h {
        fill: #4167b0;
      }
    </style>
  </defs>
  <g id="c" data-name="Layer 1">
    <g>
      <g>
        <path class="f" d="M608.43,496.28c-.14-70.88.37-144.24-.39-211.21-.74-35.6-1.63-68.06-8.65-97.08-6.05-24.71-17.25-39.48-29.74-47.28-18.25-11.32-45.45-13.57-66.26,2.63-1.25-.95-2.51-1.83-3.8-2.63-18.25-11.32-45.45-13.57-66.26,2.63-1.25-.95-2.52-1.83-3.8-2.63-18.25-11.32-45.45-13.57-66.26,2.63-1.25-.95-2.52-1.83-3.8-2.63-18.71-11.61-46.84-13.68-67.82,3.89-1.76-1.45-3.56-2.75-5.39-3.89-18.25-11.32-45.45-13.57-66.26,2.63-1.25-.95-2.52-1.83-3.8-2.63-18.25-11.32-45.45-13.57-66.26,2.63-1.25-.95-2.52-1.83-3.8-2.63-26.04-16.16-70.32-13.84-88.21,34.18-14.84,39.65-12.49,115.83-13.05,166.44.03,98.9-.13,216.23.07,317.32.35,39.16.26,82.9,6.66,117.88,6.79,36.95,21.8,54.15,40.12,62.01,17.95,7.41,40.32,6.8,58.16-6.92,3.76,2.87,7.74,5.14,11.89,6.92,17.95,7.41,40.32,6.8,58.16-6.92,3.76,2.87,7.74,5.14,11.89,6.92,18.48,7.63,41.65,6.75,59.73-8.18,4.22,3.47,8.74,6.14,13.48,8.18,17.95,7.41,40.32,6.8,58.16-6.92,3.76,2.87,7.74,5.14,11.89,6.92,17.95,7.41,40.32,6.8,58.16-6.92,3.76,2.87,7.74,5.14,11.89,6.92,17.95,7.41,40.32,6.8,58.16-6.92,3.76,2.87,7.74,5.14,11.89,6.92,22.28,9.19,51.37,6.05,70.15-19.19l.06-.08c23.16-32.56,21.95-95.22,22.87-156.63.21-53.23.05-106.92.1-166.37Z"/>
        <path class="g" d="M488.04,819.37c19.33,25.25,49.26,28.39,72.19,19.19,18.85-7.86,34.29-25.06,41.28-62.01,6.59-34.98,6.49-78.72,6.86-117.88.21-101.09.04-218.41.07-317.32-.57-50.61,1.84-126.79-13.43-166.44-18.41-48.03-63.98-50.34-90.77-34.18-12.85,7.8-24.38,22.57-30.6,47.28-7.23,29.02-8.15,61.47-8.9,97.08-.78,66.97-.25,140.33-.4,211.21.05,59.45-.11,113.14.1,166.37.95,61.4-.29,124.07,23.54,156.63l.06.08Z"/>
        <path class="g" d="M463.44,819.37c19.33,25.25,49.26,28.39,72.19,19.19,18.85-7.86,34.29-25.06,41.28-62.01,6.59-34.98,6.49-78.72,6.86-117.88.21-101.09.04-218.41.07-317.32-.57-50.61,1.84-126.79-13.43-166.44-18.41-48.03-63.98-50.34-90.77-34.18-12.85,7.8-24.38,22.57-30.6,47.28-7.23,29.02-8.15,61.47-8.9,97.08-.78,66.97-.25,140.33-.4,211.21.05,59.45-.11,113.14.1,166.37.95,61.4-.29,124.07,23.54,156.63l.06.08Z"/>
        <g>
          <path class="h" d="M73.87,233.23l19.24-76.77-22.87-6.53c-6.04,6.38-11.27,14.61-15.25,24.97-15.27,39.65-12.85,115.83-13.43,166.44.03,98.9-.14,216.23.07,317.32.36,39.16.27,82.9,6.86,117.88,6.99,36.95,22.43,54.15,41.28,62.01,22.93,9.19,52.86,6.05,72.19-19.19l.06-.08c23.83-32.56,22.59-95.22,23.54-156.63.22-53.23.05-106.92.1-166.37-.15-70.88.38-144.24-.4-211.21-.42-19.82-.9-38.67-2.48-56.49l-52.06-50.4-56.86,55.05Z"/>
          <path class="h" d="M176.36,188c-.41-1.64-.85-3.24-1.31-4.79l2.69,10.71c-.43-1.99-.89-3.96-1.37-5.92Z"/>
          <path class="h" d="M177.73,193.92c2.41,11.08,3.98,22.64,5.05,34.66l4.8,4.65-9.85-39.31Z"/>
        </g>
        <path class="e" d="M209.86,285.08c-.76-35.6-1.67-68.06-8.9-97.08-3.97-15.75-10.09-27.45-17.33-35.89l-15.28,4.36,19.24,76.77-56.86-55.05-56.86,55.05,19.24-76.77-3.05-.87c-4.04,5.38-7.59,11.79-10.47,19.31-15.27,39.65-12.85,115.83-13.43,166.44.03,98.9-.14,216.23.07,317.32.36,39.16.27,82.9,6.86,117.88,6.99,36.95,22.43,54.15,41.28,62.01,22.93,9.19,52.86,6.05,72.19-19.19l.06-.08c23.83-32.56,22.59-95.22,23.54-156.63.22-53.23.05-106.92.1-166.37-.15-70.88.38-144.24-.4-211.21Z"/>
      </g>
      <rect class="d" width="650" height="975"/>
    </g>
  </g>
</svg>