<?xml version="1.0" encoding="UTF-8"?>
<svg id="b" data-name="Layer 2" xmlns="http://www.w3.org/2000/svg" width="651.03" height="975" viewBox="0 0 651.03 975">
  <defs>
    <style>
      .d, .e, .f {
        fill: none;
      }

      .g {
        stroke: #010101;
      }

      .g, .h, .e, .f, .i {
        stroke-miterlimit: 10;
      }

      .g, .h, .i {
        stroke-width: 10px;
      }

      .g, .i {
        fill: #4068b2;
      }

      .h {
        fill: #00aeef;
      }

      .h, .i {
        stroke: #231f20;
      }

      .e, .f {
        stroke: #ed2024;
        stroke-width: 15px;
      }

      .f {
        stroke-dasharray: 13.43 13.43;
      }
    </style>
  </defs>
  <g id="c" data-name="Layer 1">
    <g>
      <g>
        <g>
          <path class="h" d="M610.78,496.13c-.14-70.88.37-144.24-.39-211.21-.74-35.6-1.63-68.06-8.65-97.08-6.05-24.71-17.25-39.48-29.74-47.28-18.25-11.32-45.45-13.57-66.26,2.63-1.25-.95-2.51-1.83-3.8-2.63-18.25-11.32-45.45-13.57-66.26,2.63-1.25-.95-2.52-1.83-3.8-2.63-18.25-11.32-45.45-13.57-66.26,2.63-1.25-.95-2.52-1.83-3.8-2.63-18.71-11.61-46.84-13.68-67.82,3.89-1.76-1.45-3.56-2.75-5.39-3.89-18.25-11.32-45.45-13.57-66.26,2.63-1.25-.95-2.52-1.83-3.8-2.63-18.25-11.32-45.45-13.57-66.26,2.63-1.25-.95-2.52-1.83-3.8-2.63-26.04-16.16-70.32-13.84-88.21,34.18-14.84,39.65-12.49,115.83-13.05,166.44.03,98.9-.13,216.23.07,317.32.35,39.16.26,82.9,6.66,117.88,6.79,36.95,21.8,54.15,40.12,62.01,17.95,7.41,40.32,6.8,58.16-6.92,3.76,2.87,7.74,5.14,11.89,6.92,17.95,7.41,40.32,6.8,58.16-6.92,3.76,2.87,7.74,5.14,11.89,6.92,18.48,7.63,41.65,6.75,59.73-8.18,4.22,3.47,8.74,6.14,13.48,8.18,17.95,7.41,40.32,6.8,58.16-6.92,3.76,2.87,7.74,5.14,11.89,6.92,17.95,7.41,40.32,6.8,58.16-6.92,3.76,2.87,7.74,5.14,11.89,6.92,17.95,7.41,40.32,6.8,58.16-6.92,3.76,2.87,7.74,5.14,11.89,6.92,22.28,9.19,51.37,6.05,70.15-19.19l.06-.08c23.16-32.56,21.95-95.22,22.87-156.63.21-53.23.05-106.92.1-166.37Z"/>
          <path class="i" d="M593.89,819.52c-19.33,25.25-49.26,28.39-72.19,19.19-18.85-7.86-34.29-25.06-41.28-62.01-6.59-34.98-6.49-78.72-6.86-117.88-.21-101.09-.04-218.41-.07-317.32.57-50.61-1.84-126.79,13.43-166.44,18.41-48.03,63.98-50.34,90.77-34.18,12.85,7.8,24.38,22.57,30.6,47.28,7.23,29.02,8.15,61.47,8.9,97.08.78,66.97.25,140.33.4,211.21-.05,59.45.11,113.14-.1,166.37-.95,61.4.29,124.07-23.54,156.63l-.06.08Z"/>
          <path class="i" d="M521.8,819.52c-19.33,25.25-49.26,28.39-72.19,19.19-18.85-7.86-34.29-25.06-41.28-62.01-6.59-34.98-6.49-78.72-6.86-117.88-.21-101.09-.04-218.41-.07-317.32.57-50.61-1.84-126.79,13.43-166.44,18.41-48.03,63.98-50.34,90.77-34.18,12.85,7.8,24.38,22.57,30.6,47.28,7.23,29.02,8.15,61.47,8.9,97.08.78,66.97.25,140.33.4,211.21-.05,59.45.11,113.14-.1,166.37-.95,61.4.29,124.07-23.54,156.63l-.06.08Z"/>
          <path class="i" d="M449.72,819.52c-19.33,25.25-49.26,28.39-72.19,19.19-18.85-7.86-34.29-25.06-41.28-62.01-6.59-34.98-6.49-78.72-6.86-117.88-.21-101.09-.04-218.41-.07-317.32.57-50.61-1.84-126.79,13.43-166.44,18.41-48.03,63.98-50.34,90.77-34.18,12.85,7.8,24.38,22.57,30.6,47.28,7.23,29.02,8.15,61.47,8.9,97.08.78,66.97.25,140.33.4,211.21-.05,59.45.11,113.14-.1,166.37-.95,61.4.29,124.07-23.54,156.63l-.06.08Z"/>
          <path class="g" d="M83.36,225.04l19.24-76.77-25.35-7.23c-10.62,6.84-19.91,17.83-26.11,34.02-15.27,39.65-12.85,115.83-13.43,166.44.03,98.9-.14,216.23.07,317.32.36,39.16.27,82.9,6.86,117.88,6.99,36.95,22.43,54.15,41.28,62.01,22.93,9.19,52.86,6.05,72.19-19.19l.06-.08c23.83-32.56,22.59-95.22,23.54-156.63.22-53.23.05-106.92.1-166.37-.15-70.88.38-144.24-.4-211.21-.62-29.05-1.34-55.99-5.52-80.69l-35.68-34.54-56.86,55.05Z"/>
          <path class="g" d="M253.51,285.23c-.76-35.6-1.67-68.06-8.9-97.08-6.23-24.71-17.75-39.48-30.6-47.28-1.12-.68-2.28-1.32-3.47-1.93l-32.69,9.33,19.24,76.77-56.86-55.05-21.83,21.13c-9.88,41.83-8.08,105.95-8.59,150.37.03,98.9-.14,216.23.07,317.32.36,39.16.27,82.9,6.86,117.88,6.99,36.95,22.43,54.15,41.28,62.01,22.93,9.19,52.86,6.05,72.19-19.19l.06-.08c23.83-32.56,22.59-95.22,23.54-156.63.22-53.23.05-106.92.1-166.37-.15-70.88.38-144.24-.4-211.21Z"/>
          <path class="g" d="M325.99,496.44c-.15-70.88.38-144.24-.4-211.21-.76-35.6-1.67-68.06-8.9-97.08-6.23-24.71-17.75-39.48-30.6-47.28-26.79-16.16-72.36-13.84-90.77,34.18-2.29,5.94-4.17,12.71-5.73,20.08l7.5,29.91-10.75-10.41c-5.17,39.93-4.02,90.13-4.44,126.87.03,98.9-.14,216.23.07,317.32.36,39.16.27,82.9,6.86,117.88,6.99,36.95,22.43,54.15,41.28,62.01,22.93,9.19,52.86,6.05,72.19-19.19l.06-.08c23.83-32.56,22.59-95.22,23.54-156.63.22-53.23.05-106.92.1-166.37Z"/>
        </g>
        <g>
          <polyline class="e" points="196.45 220.54 197.91 226.36 193.6 222.18"/>
          <line class="f" x1="183.95" y1="212.84" x2="150.19" y2="180.15"/>
          <polyline class="e" points="145.36 175.48 141.05 171.31 136.74 175.48"/>
          <line class="f" x1="127.09" y1="184.82" x2="93.32" y2="217.51"/>
          <polyline class="e" points="88.5 222.18 84.19 226.36 85.65 220.54"/>
          <line class="f" x1="88.91" y1="207.51" x2="100.34" y2="161.92"/>
          <polyline class="e" points="101.97 155.41 103.43 149.59 97.66 147.94"/>
          <line class="f" x1="84.75" y1="144.26" x2="39.56" y2="131.36"/>
          <polyline class="e" points="33.1 129.52 27.33 127.87 33.1 126.22"/>
          <line class="f" x1="46.01" y1="122.54" x2="91.21" y2="109.64"/>
          <polyline class="e" points="97.66 107.8 103.43 106.15 101.97 100.33"/>
          <line class="f" x1="98.71" y1="87.31" x2="87.28" y2="41.72"/>
          <polyline class="e" points="85.65 35.2 84.19 29.38 88.5 33.56"/>
          <line class="f" x1="98.15" y1="42.9" x2="131.92" y2="75.59"/>
          <polyline class="e" points="136.74 80.26 141.05 84.43 145.36 80.26"/>
          <line class="f" x1="155.01" y1="70.92" x2="188.78" y2="38.23"/>
          <polyline class="e" points="193.6 33.56 197.91 29.38 196.45 35.2"/>
          <line class="f" x1="193.19" y1="48.23" x2="181.76" y2="93.82"/>
          <polyline class="e" points="180.13 100.33 178.67 106.15 184.44 107.8"/>
          <line class="f" x1="197.35" y1="111.48" x2="242.55" y2="124.38"/>
          <polyline class="e" points="249 126.22 254.77 127.87 249 129.52"/>
          <line class="f" x1="236.09" y1="133.2" x2="190.89" y2="146.1"/>
          <polyline class="e" points="184.44 147.94 178.67 149.59 180.13 155.41"/>
          <line class="f" x1="183.39" y1="168.43" x2="194.82" y2="214.02"/>
        </g>
      </g>
      <rect class="d" x="1.03" width="650" height="975"/>
    </g>
  </g>
</svg>