<?xml version="1.0" encoding="UTF-8"?>
<svg id="Layer_2" data-name="Layer 2" xmlns="http://www.w3.org/2000/svg" viewBox="0 0 73.56 84.64" width="73.56" height="84.64">
  <defs>
    <style>
      .cls-1 {
        fill: #29abe2;
        stroke: #231f20;
      }

      .cls-1, .cls-2 {
        stroke-miterlimit: 10;
      }

      .cls-2 {
        fill: #2e3192;
        stroke: #000;
      }
    </style>
  </defs>
  <g id="Layer_2-2" data-name="Layer 2">
    <path class="cls-2" d="M25.24,4.57l-3.47,78.3c11.93-2.51,21.15-2.56,33.1.97-5.53-18.69,6.65-60.47,1.12-79.15-7.6.85-23.07.74-30.75-.12Z"/>
    <path class="cls-1" d="M35.83,26.23c.56,2.58-.85,33.93-1.8,37.47l-4.99,17.36s-.39,1.26-.4,1.26C-5.8,91.7-2.47,63,6.58,36.81,13.03,18.14,3.58,7.2,12.17.96c3.02-2.19,19.82,3.93,19.82,7.66l3.84,17.61Z"/>
    <path class="cls-1" d="M37.72,26.23c-.56,2.58.85,33.93,1.8,37.47l4.99,17.36s.39,1.26.4,1.26c34.44,9.38,31.11-19.32,22.06-45.51-6.45-18.67,3-29.61-5.6-35.85-3.02-2.19-19.82,3.93-19.82,7.66l-3.84,17.61Z"/>
  </g>
</svg>