<?xml version="1.0" encoding="UTF-8"?>
<svg id="b" data-name="Layer 2" xmlns="http://www.w3.org/2000/svg" width="618.21" height="724.19" viewBox="0 0 618.21 724.19">
  <defs>
    <style>
      .d {
        fill: #488fcd;
      }

      .d, .e {
        stroke: #231f20;
        stroke-miterlimit: 10;
        stroke-width: 10px;
      }

      .e {
        fill: #46c8f5;
      }
    </style>
  </defs>
  <g id="c" data-name="Layer 1">
    <g>
      <path class="d" d="M475.18,649.12c-18.98,11.96-54.91-7.27-78.09-9.79-39.28-7.44-79.68-14.68-119.43-7.37-31.08,3.65-98.5,31.28-119.39.87-10.84-20.62.06-47.06,4.27-69.68,4.85-21.25,6.93-42.82,7.36-64.63.33-64.4-.26-129.37.03-193.63.02-39.64-.39-77.8-4.69-117.54-1.64-32.75-18.66-111.26-2.87-137.43,12.31-13.83,39.54,5.22,60.4,8.11,66.92,15.8,139.8,10.97,203.49-11.46,41.17-10.53,24.59,44.92,21.22,68.06-5.66,28.72-10.48,56.45-11.82,84.94-2.56,75.72-.6,151.56-1.13,227.4.55,32.32-.44,66.36,14.14,96,11.51,25.27,34.17,43.64,42.38,69.65,5.12,20.19,1.44,44.28-15.75,56.43l-.11.07Z"/>
      <path class="e" d="M218.35,491.1c-7.34-91.91-39.26-72.51-30.74-184.93,0,0,45.41-291.46,6.07-293.17-16.92-.74-124.69-7.13-124.79-7.09-121.02,48.26-34.65,176.17-25.28,242.81,3.67,26.07-25.68,358.57,54.18,462.48,19.41,25.25,84.74-13.17,107.37-61.68,16.32-34.98,13.19-158.42,13.19-158.42Z"/>
      <path class="e" d="M399.86,490.19c7.34-91.91,39.26-72.51,30.74-184.93,0,0-45.41-291.46-6.07-293.17,16.92-.74,124.69-7.13,124.79-7.09,121.02,48.26,34.65,176.17,25.28,242.81-3.67,26.07,25.68,358.57-54.18,462.48-19.41,25.25-84.74-13.17-107.37-61.68-16.32-34.98-13.19-158.42-13.19-158.42Z"/>
    </g>
  </g>
</svg>