<?xml version="1.0" encoding="UTF-8"?>
<svg id="Layer_2" data-name="Layer 2" xmlns="http://www.w3.org/2000/svg" width="293.34" height="256.56" xmlns:xlink="http://www.w3.org/1999/xlink" viewBox="0 0 293.34 256.56">
  <defs>
    <style>
      .cls-1 {
        stroke-dasharray: 16.38 16.38;
      }

      .cls-1, .cls-2 {
        fill: none;
        stroke: #fff;
        stroke-width: 15px;
      }

      .cls-1, .cls-2, .cls-3 {
        stroke-miterlimit: 10;
      }

      .cls-4 {
        fill: url(#linear-gradient-2);
      }

      .cls-3 {
        fill: url(#linear-gradient);
        stroke: #231f20;
        stroke-width: 13.84px;
      }
    </style>
    <linearGradient id="linear-gradient" x1="6.92" y1="128.28" x2="286.42" y2="128.28" gradientUnits="userSpaceOnUse">
      <stop offset="0" stop-color="#231f20" stop-opacity=".4"/>
      <stop offset="1" stop-color="#231f20" stop-opacity=".4"/>
    </linearGradient>
    <linearGradient id="linear-gradient-2" x1="32.77" y1="128.23" x2="260.21" y2="128.23" gradientUnits="userSpaceOnUse">
      <stop offset="0" stop-color="#fff" stop-opacity="0"/>
      <stop offset=".03" stop-color="#fff" stop-opacity=".08"/>
      <stop offset=".08" stop-color="#fff" stop-opacity=".23"/>
      <stop offset=".14" stop-color="#fff" stop-opacity=".36"/>
      <stop offset=".2" stop-color="#fff" stop-opacity=".46"/>
      <stop offset=".28" stop-color="#fff" stop-opacity=".55"/>
      <stop offset=".36" stop-color="#fff" stop-opacity=".62"/>
      <stop offset=".47" stop-color="#fff" stop-opacity=".67"/>
      <stop offset=".61" stop-color="#fff" stop-opacity=".69"/>
      <stop offset="1" stop-color="#fff" stop-opacity=".7"/>
    </linearGradient>
  </defs>
  <g id="Layer_1-2" data-name="Layer 1">
    <g>
      <path class="cls-3" d="M213.68,248.95l-67.01-64.87-67.01,64.87c-1.73,1.68-4.58.03-3.99-2.3l22.68-90.47-89.69-25.6c-2.32-.66-2.32-3.95,0-4.61l89.69-25.6L75.67,9.91c-.59-2.34,2.26-3.98,3.99-2.3l67.01,64.87L213.68,7.6c1.73-1.68,4.58-.03,3.99,2.3l-22.68,90.47,89.69,25.6c2.32.66,2.32,3.95,0,4.61l-89.69,25.6,22.68,90.47c.59,2.34-2.26,3.98-3.99,2.3Z"/>
      <g>
        <polygon class="cls-4" points="203.35 226.72 146.49 171.67 89.63 226.72 108.87 149.95 32.77 128.23 108.87 106.51 89.63 29.74 146.49 84.79 203.35 29.74 184.11 106.51 260.21 128.23 184.11 149.95 203.35 226.72"/>
        <g>
          <polyline class="cls-2" points="199.7 212.17 203.35 226.72 192.57 216.28"/>
          <line class="cls-1" x1="180.81" y1="204.89" x2="163.15" y2="187.8"/>
          <polyline class="cls-2" points="157.27 182.1 146.49 171.67 135.71 182.1"/>
          <line class="cls-1" x1="123.94" y1="193.5" x2="106.29" y2="210.59"/>
          <polyline class="cls-2" points="100.41 216.28 89.63 226.72 93.28 212.17"/>
          <line class="cls-1" x1="97.26" y1="196.28" x2="103.23" y2="172.44"/>
          <polyline class="cls-2" points="105.23 164.5 108.87 149.95 94.45 145.83"/>
          <line class="cls-1" x1="78.7" y1="141.34" x2="55.07" y2="134.59"/>
          <polyline class="cls-2" points="47.19 132.35 32.77 128.23 47.19 124.11"/>
          <line class="cls-1" x1="62.95" y1="119.62" x2="86.57" y2="112.88"/>
          <polyline class="cls-2" points="94.45 110.63 108.87 106.51 105.23 91.96"/>
          <line class="cls-1" x1="101.24" y1="76.07" x2="95.27" y2="52.24"/>
          <polyline class="cls-2" points="93.28 44.29 89.63 29.74 100.41 40.18"/>
          <line class="cls-1" x1="112.18" y1="51.57" x2="129.83" y2="68.66"/>
          <polyline class="cls-2" points="135.71 74.36 146.49 84.79 157.27 74.36"/>
          <line class="cls-1" x1="169.04" y1="62.97" x2="186.69" y2="45.87"/>
          <polyline class="cls-2" points="192.57 40.18 203.35 29.74 199.7 44.29"/>
          <line class="cls-1" x1="195.72" y1="60.18" x2="189.75" y2="84.02"/>
          <polyline class="cls-2" points="187.76 91.96 184.11 106.51 198.53 110.63"/>
          <line class="cls-1" x1="214.28" y1="115.12" x2="237.91" y2="121.87"/>
          <polyline class="cls-2" points="245.79 124.11 260.21 128.23 245.79 132.35"/>
          <line class="cls-1" x1="230.04" y1="136.84" x2="206.41" y2="143.59"/>
          <polyline class="cls-2" points="198.53 145.83 184.11 149.95 187.76 164.5"/>
          <line class="cls-1" x1="191.74" y1="180.39" x2="197.71" y2="204.22"/>
        </g>
      </g>
    </g>
  </g>
</svg>