<?xml version="1.0" encoding="UTF-8"?>
<svg id="b" data-name="Layer 2" xmlns="http://www.w3.org/2000/svg" width="589.95" height="721.88" viewBox="0 0 589.95 721.88">
  <defs>
    <style>
      .d {
        stroke: #010101;
      }

      .d, .e, .f {
        stroke-miterlimit: 10;
        stroke-width: 10px;
      }

      .d, .f {
        fill: #4068b2;
      }

      .e {
        fill: #00aeef;
      }

      .e, .f {
        stroke: #231f20;
      }
    </style>
  </defs>
  <g id="c" data-name="Layer 1">
    <g>
      <path class="e" d="M578.1,369.57c-.14-70.88.37-144.24-.39-211.21-.74-35.6-1.63-68.06-8.65-97.08-6.05-24.71-17.25-39.48-29.74-47.28-18.25-11.32-45.45-13.57-66.26,2.63-1.25-.95-2.51-1.83-3.8-2.63-18.25-11.32-45.45-13.57-66.26,2.63-1.25-.95-2.52-1.83-3.8-2.63-18.25-11.32-45.45-13.57-66.26,2.63-1.25-.95-2.52-1.83-3.8-2.63-18.71-11.61-46.84-13.68-67.82,3.89-1.76-1.45-3.56-2.75-5.39-3.89-18.25-11.32-45.45-13.57-66.26,2.63-1.25-.95-2.52-1.83-3.8-2.63-18.25-11.32-45.45-13.57-66.26,2.63-1.25-.95-2.52-1.83-3.8-2.63C89.81-2.15,45.53.17,27.64,48.19c-14.84,39.65-12.49,115.83-13.05,166.44.03,98.9-.13,216.23.07,317.32.35,39.16.26,82.9,6.66,117.88,6.79,36.95,21.8,54.15,40.12,62.01,17.95,7.41,40.32,6.8,58.16-6.92,3.76,2.87,7.74,5.14,11.89,6.92,17.95,7.41,40.32,6.8,58.16-6.92,3.76,2.87,7.74,5.14,11.89,6.92,18.48,7.63,41.65,6.75,59.73-8.18,4.22,3.47,8.74,6.14,13.48,8.18,17.95,7.41,40.32,6.8,58.16-6.92,3.76,2.87,7.74,5.14,11.89,6.92,17.95,7.41,40.32,6.8,58.16-6.92,3.76,2.87,7.74,5.14,11.89,6.92,17.95,7.41,40.32,6.8,58.16-6.92,3.76,2.87,7.74,5.14,11.89,6.92,22.28,9.19,51.37,6.05,70.15-19.19l.06-.08c23.16-32.56,21.95-95.22,22.87-156.63.21-53.23.05-106.92.1-166.37Z"/>
      <path class="f" d="M561.21,692.97c-19.33,25.25-49.26,28.39-72.19,19.19-18.85-7.86-34.29-25.06-41.28-62.01-6.59-34.98-6.49-78.72-6.86-117.88-.21-101.09-.04-218.41-.07-317.32.57-50.61-1.84-126.79,13.43-166.44C472.64.48,518.21-1.84,545,14.32c12.85,7.8,24.38,22.57,30.6,47.28,7.23,29.02,8.15,61.47,8.9,97.08.78,66.97.25,140.33.4,211.21-.05,59.45.11,113.14-.1,166.37-.95,61.4.29,124.07-23.54,156.63l-.06.08Z"/>
      <path class="f" d="M489.12,692.97c-19.33,25.25-49.26,28.39-72.19,19.19-18.85-7.86-34.29-25.06-41.28-62.01-6.59-34.98-6.49-78.72-6.86-117.88-.21-101.09-.04-218.41-.07-317.32.57-50.61-1.84-126.79,13.43-166.44C400.56.48,446.12-1.84,472.92,14.32c12.85,7.8,24.38,22.57,30.6,47.28,7.23,29.02,8.15,61.47,8.9,97.08.78,66.97.25,140.33.4,211.21-.05,59.45.11,113.14-.1,166.37-.95,61.4.29,124.07-23.54,156.63l-.06.08Z"/>
      <path class="f" d="M417.03,692.97c-19.33,25.25-49.26,28.39-72.19,19.19-18.85-7.86-34.29-25.06-41.28-62.01-6.59-34.98-6.49-78.72-6.86-117.88-.21-101.09-.04-218.41-.07-317.32.57-50.61-1.84-126.79,13.43-166.44C328.47.48,374.04-1.84,400.83,14.32c12.85,7.8,24.38,22.57,30.6,47.28,7.23,29.02,8.15,61.47,8.9,97.08.78,66.97.25,140.33.4,211.21-.05,59.45.11,113.14-.1,166.37-.95,61.4.29,124.07-23.54,156.63l-.06.08Z"/>
      <path class="d" d="M50.68,98.49l19.24-76.77-25.35-7.23c-10.62,6.84-19.91,17.83-26.11,34.02C3.19,88.16,5.61,164.34,5.03,214.95c.03,98.9-.14,216.23.07,317.32.36,39.16.27,82.9,6.86,117.88,6.99,36.95,22.43,54.15,41.28,62.01,22.93,9.19,52.86,6.05,72.19-19.19l.06-.08c23.83-32.56,22.59-95.22,23.54-156.63.22-53.23.05-106.92.1-166.37-.15-70.88.38-144.24-.4-211.21-.62-29.05-1.34-55.99-5.52-80.69l-35.68-34.54-56.86,55.05Z"/>
      <path class="d" d="M220.82,158.67c-.76-35.6-1.67-68.06-8.9-97.08-6.23-24.71-17.75-39.48-30.6-47.28-1.12-.68-2.28-1.32-3.47-1.93l-32.69,9.33,19.24,76.77-56.86-55.05-21.83,21.13c-9.88,41.83-8.08,105.95-8.59,150.37.03,98.9-.14,216.23.07,317.32.36,39.16.27,82.9,6.86,117.88,6.99,36.95,22.43,54.15,41.28,62.01,22.93,9.19,52.86,6.05,72.19-19.19l.06-.08c23.83-32.56,22.59-95.22,23.54-156.63.22-53.23.05-106.92.1-166.37-.15-70.88.38-144.24-.4-211.21Z"/>
      <path class="d" d="M293.31,369.88c-.15-70.88.38-144.24-.4-211.21-.76-35.6-1.67-68.06-8.9-97.08-6.23-24.71-17.75-39.48-30.6-47.28C226.61-1.84,181.05.48,162.64,48.5c-2.29,5.94-4.17,12.71-5.73,20.08l7.5,29.91-10.75-10.41c-5.17,39.93-4.02,90.13-4.44,126.87.03,98.9-.14,216.23.07,317.32.36,39.16.27,82.9,6.86,117.88,6.99,36.95,22.43,54.15,41.28,62.01,22.93,9.19,52.86,6.05,72.19-19.19l.06-.08c23.83-32.56,22.59-95.22,23.54-156.63.22-53.23.05-106.92.1-166.37Z"/>
      <path class="f" d="M344.94,692.97c-19.33,25.25-49.26,28.39-72.19,19.19-18.85-7.86-34.29-25.06-41.28-62.01-6.59-34.98-6.49-78.72-6.86-117.88-.21-101.09-.04-218.41-.07-317.32.57-50.61-1.84-126.79,13.43-166.44C256.38.48,301.95-1.84,328.74,14.32c12.85,7.8,24.38,22.57,30.6,47.28,7.23,29.02,8.15,61.47,8.9,97.08.78,66.97.25,140.33.4,211.21-.05,59.45.11,113.14-.1,166.37-.95,61.4.29,124.07-23.54,156.63l-.06.08Z"/>
    </g>
  </g>
</svg>