<?xml version="1.0" encoding="UTF-8"?>
<svg id="b" data-name="Layer 2" xmlns="http://www.w3.org/2000/svg" width="650" height="900" viewBox="0 0 650 900">
  <defs>
    <style>
      .d {
        fill: none;
      }

      .e {
        fill: #488fcd;
      }

      .e, .f {
        stroke: #231f20;
        stroke-miterlimit: 10;
        stroke-width: 10px;
      }

      .f {
        fill: #46c8f5;
      }
    </style>
  </defs>
  <g id="c" data-name="Layer 1">
    <g>
      <g>
        <path class="e" d="M490.68,737.37c-18.98,11.96-54.91-7.27-78.09-9.79-39.28-7.44-79.68-14.68-119.43-7.37-31.08,3.65-98.5,31.28-119.39.87-10.84-20.62.06-47.06,4.27-69.68,4.85-21.25,6.93-42.82,7.36-64.63.33-64.4-.26-129.37.03-193.63.02-39.64-.39-77.8-4.69-117.54-1.64-32.75-18.66-111.26-2.87-137.43,12.31-13.83,39.54,5.22,60.4,8.11,66.92,15.8,139.8,10.97,203.49-11.46,41.17-10.53,24.59,44.92,21.22,68.06-5.66,28.72-10.48,56.45-11.82,84.94-2.56,75.72-.6,151.56-1.13,227.4.55,32.32-.44,66.36,14.14,96,11.51,25.27,34.17,43.64,42.38,69.65,5.12,20.19,1.44,44.28-15.75,56.43l-.11.07Z"/>
        <path class="f" d="M233.24,572.04c-3.33-43.16-25.44-78.97-28.81-122.22-1.87-21.67-1.93-44.68.81-65.21,7.96-68.97,32.94-217.82,12.26-274.22-8.35-17.4-51.07-12.78-70.39-15.41-31.22-1.65-64.41-7.25-90.04,14.03-15.79,11.96-28.2,28.76-32.75,48.11-14.33,59.01,25.52,124.9,33.69,182.79,4.23,64.47-25.76,380.48,62.4,462.71,23.65,11.94,52.35-8.33,70.22-24.83,24.68-22.67,36.77-52.78,39.92-86.64,4.01-43.56,6.05-79.17,2.71-118.95l-.02-.16Z"/>
        <path class="f" d="M416.76,572.74c3.33-43.16,25.44-78.97,28.81-122.22,1.87-21.67,1.93-44.68-.81-65.21-7.96-68.97-32.94-217.82-12.26-274.22,8.35-17.4,51.07-12.78,70.39-15.41,31.22-1.65,64.41-7.25,90.04,14.03,15.79,11.96,28.2,28.76,32.75,48.11,14.33,59.01-25.52,124.9-33.69,182.79-4.23,64.47,25.76,380.48-62.4,462.71-23.65,11.94-52.35-8.33-70.22-24.83-24.68-22.67-36.77-52.78-39.92-86.64-4.01-43.56-6.05-79.17-2.71-118.95l.02-.16Z"/>
      </g>
      <rect class="d" width="650" height="900"/>
    </g>
  </g>
</svg>