<?xml version="1.0" encoding="UTF-8"?>
<svg id="b" data-name="Layer 2" xmlns="http://www.w3.org/2000/svg" width="549" height="374" xmlns:xlink="http://www.w3.org/1999/xlink" viewBox="0 0 549 374">
  <defs>
    <style>
      .l {
        fill: url(#g);
      }

      .l, .m, .n, .o, .p, .q, .r, .s, .t, .u {
        stroke: #000;
        stroke-miterlimit: 10;
      }

      .l, .m, .n, .o, .p, .s, .t, .u {
        stroke-width: 4px;
      }

      .m {
        fill: #231f20;
      }

      .n {
        fill: url(#f);
      }

      .o {
        fill: url(#h);
      }

      .p {
        fill: url(#i);
      }

      .v {
        fill: #ef5ea0;
      }

      .q {
        fill: url(#d);
      }

      .r {
        fill: #fbb03b;
        stroke-width: 2px;
      }

      .s {
        fill: url(#j);
      }

      .t {
        fill: url(#e);
      }

      .u {
        fill: url(#k);
      }
    </style>
    <linearGradient id="d" x1="274.5" y1="373.5" x2="274.5" y2=".5" gradientUnits="userSpaceOnUse">
      <stop offset="0" stop-color="#fff9f0"/>
      <stop offset=".35" stop-color="#fff9f0"/>
      <stop offset=".66" stop-color="#b8dfff"/>
      <stop offset="1" stop-color="#b8dfff"/>
    </linearGradient>
    <linearGradient id="e" x1="178.72" y1="312.7" x2="208.21" y2="312.7" gradientUnits="userSpaceOnUse">
      <stop offset="0" stop-color="#fff"/>
      <stop offset=".05" stop-color="#fce0df"/>
      <stop offset=".13" stop-color="#f8b5b4"/>
      <stop offset=".21" stop-color="#f5908e"/>
      <stop offset=".3" stop-color="#f2706d"/>
      <stop offset=".4" stop-color="#f05653"/>
      <stop offset=".5" stop-color="#ef423f"/>
      <stop offset=".62" stop-color="#ed3430"/>
      <stop offset=".76" stop-color="#ed2c28"/>
      <stop offset="1" stop-color="#ed2a26"/>
    </linearGradient>
    <linearGradient id="f" x1="196.14" x2="225.63" xlink:href="#e"/>
    <linearGradient id="g" x1="434.33" y1="295.78" x2="462.82" y2="295.78" gradientUnits="userSpaceOnUse">
      <stop offset="0" stop-color="#fff"/>
      <stop offset=".06" stop-color="#fad7d9"/>
      <stop offset=".14" stop-color="#f5acaf"/>
      <stop offset=".22" stop-color="#f18689"/>
      <stop offset=".31" stop-color="#ed656a"/>
      <stop offset=".4" stop-color="#eb4b51"/>
      <stop offset=".51" stop-color="#e8373d"/>
      <stop offset=".62" stop-color="#e7282f"/>
      <stop offset=".76" stop-color="#e62027"/>
      <stop offset="1" stop-color="#e61e25"/>
    </linearGradient>
    <linearGradient id="h" x1="450.08" y1="295.95" x2="483.59" y2="295.95" gradientUnits="userSpaceOnUse">
      <stop offset="0" stop-color="#fff"/>
      <stop offset=".02" stop-color="#ececec"/>
      <stop offset=".09" stop-color="#bbb"/>
      <stop offset=".17" stop-color="#8e8e8e"/>
      <stop offset=".25" stop-color="#686868"/>
      <stop offset=".33" stop-color="#474747"/>
      <stop offset=".43" stop-color="#2d2d2d"/>
      <stop offset=".53" stop-color="#191919"/>
      <stop offset=".64" stop-color="#0a0a0a"/>
      <stop offset=".77" stop-color="#020202"/>
      <stop offset="1" stop-color="#000"/>
    </linearGradient>
    <linearGradient id="i" x1="469.52" y1="295.78" x2="498" y2="295.78" gradientUnits="userSpaceOnUse">
      <stop offset="0" stop-color="#fff"/>
      <stop offset=".06" stop-color="#f7d9db"/>
      <stop offset=".13" stop-color="#eeaeb1"/>
      <stop offset=".22" stop-color="#e7888b"/>
      <stop offset=".31" stop-color="#e0676c"/>
      <stop offset=".4" stop-color="#db4d53"/>
      <stop offset=".5" stop-color="#d7393f"/>
      <stop offset=".62" stop-color="#d42a31"/>
      <stop offset=".76" stop-color="#d22229"/>
      <stop offset="1" stop-color="#d22027"/>
    </linearGradient>
    <linearGradient id="j" x1="370.19" y1="63.79" x2="313.22" y2="63.79" gradientUnits="userSpaceOnUse">
      <stop offset="0" stop-color="#00a7d3"/>
      <stop offset=".23" stop-color="#02a7d3"/>
      <stop offset=".36" stop-color="#0aaad4"/>
      <stop offset=".47" stop-color="#19afd7"/>
      <stop offset=".57" stop-color="#2db6da"/>
      <stop offset=".67" stop-color="#47bfdf"/>
      <stop offset=".75" stop-color="#68cae4"/>
      <stop offset=".83" stop-color="#8ed8eb"/>
      <stop offset=".91" stop-color="#bbe7f3"/>
      <stop offset=".98" stop-color="#ecf8fb"/>
      <stop offset="1" stop-color="#fff"/>
    </linearGradient>
    <linearGradient id="k" x1="125.64" y1="86.99" x2="165.85" y2="86.99" gradientUnits="userSpaceOnUse">
      <stop offset="0" stop-color="#fff"/>
      <stop offset=".03" stop-color="#fff9e6"/>
      <stop offset=".1" stop-color="#ffefbb"/>
      <stop offset=".17" stop-color="#ffe795"/>
      <stop offset=".24" stop-color="#ffe074"/>
      <stop offset=".32" stop-color="#ffda5a"/>
      <stop offset=".41" stop-color="#ffd546"/>
      <stop offset=".51" stop-color="#ffd237"/>
      <stop offset=".63" stop-color="#ffd02f"/>
      <stop offset=".83" stop-color="#ffd02d"/>
    </linearGradient>
  </defs>
  <g id="c" data-name="Layer 2">
    <rect class="q" x=".5" y=".5" width="548" height="373"/>
    <g>
      <path class="v" d="M499.27,143.24c.98,3.58,1.26,7.24.87,10.93s-1.31,7.15-1.87,10.74-.79,6.98-.04,10.44,2.54,6.58,4.38,9.55c1.01,1.64,3.61.13,2.59-1.51-1.79-2.9-3.52-5.89-4.17-9.28s-.13-7.18.52-10.67,1.43-6.9,1.69-10.41-.14-7.15-1.08-10.59c-.51-1.86-3.41-1.07-2.89.8h0Z"/>
      <path class="v" d="M498.19,142.91c-2.45,2.67-4.93,5.59-5.99,9.13-1.14,3.83.15,7.35,1.22,11.01,2.08,7.1.8,14.79-3.34,20.9-1.09,1.6,1.51,3.1,2.59,1.51,4.03-5.94,5.55-13.34,4.31-20.39-.63-3.58-2.73-7.18-2.2-10.88s3.15-6.58,5.53-9.17c1.3-1.42-.81-3.55-2.12-2.12h0Z"/>
      <circle class="r" cx="499.28" cy="135.44" r="8.16"/>
      <path class="v" d="M339.33,143.24c.98,3.58,1.26,7.24.87,10.93s-1.31,7.15-1.87,10.74-.79,6.98-.04,10.44,2.54,6.58,4.38,9.55c1.01,1.64,3.61.13,2.59-1.51-1.79-2.9-3.52-5.89-4.17-9.28s-.13-7.18.52-10.67,1.43-6.9,1.69-10.41-.14-7.15-1.08-10.59c-.51-1.86-3.41-1.07-2.89.8h0Z"/>
      <path class="v" d="M338.25,142.91c-2.45,2.67-4.93,5.59-5.99,9.13-1.14,3.83.15,7.35,1.22,11.01,2.08,7.1.8,14.79-3.34,20.9-1.09,1.6,1.51,3.1,2.59,1.51,4.03-5.94,5.55-13.34,4.31-20.39-.63-3.58-2.73-7.18-2.2-10.88s3.15-6.58,5.53-9.17c1.3-1.42-.81-3.55-2.12-2.12h0Z"/>
      <circle class="r" cx="339.34" cy="135.44" r="8.16"/>
      <path class="v" d="M321.56,143.24c.98,3.58,1.26,7.24.87,10.93s-1.31,7.15-1.87,10.74-.79,6.98-.04,10.44,2.54,6.58,4.38,9.55c1.01,1.64,3.61.13,2.59-1.51-1.79-2.9-3.52-5.89-4.17-9.28s-.13-7.18.52-10.67,1.43-6.9,1.69-10.41-.14-7.15-1.08-10.59c-.51-1.86-3.41-1.07-2.89.8h0Z"/>
      <path class="v" d="M320.48,142.91c-2.45,2.67-4.93,5.59-5.99,9.13-1.14,3.83.15,7.35,1.22,11.01,2.08,7.1.8,14.79-3.34,20.9-1.09,1.6,1.51,3.1,2.59,1.51,4.03-5.94,5.55-13.34,4.31-20.39-.63-3.58-2.73-7.18-2.2-10.88s3.15-6.58,5.53-9.17c1.3-1.42-.81-3.55-2.12-2.12h0Z"/>
      <circle class="r" cx="321.57" cy="135.44" r="8.16"/>
      <path class="v" d="M197.17,143.24c.98,3.58,1.26,7.24.87,10.93s-1.31,7.15-1.87,10.74-.79,6.98-.04,10.44,2.54,6.58,4.38,9.55c1.01,1.64,3.61.13,2.59-1.51-1.79-2.9-3.52-5.89-4.17-9.28s-.13-7.18.52-10.67,1.43-6.9,1.69-10.41-.14-7.15-1.08-10.59c-.51-1.86-3.41-1.07-2.89.8h0Z"/>
      <path class="v" d="M196.08,142.91c-2.45,2.67-4.93,5.59-5.99,9.13-1.14,3.83.15,7.35,1.22,11.01,2.08,7.1.8,14.79-3.34,20.9-1.09,1.6,1.51,3.1,2.59,1.51,4.03-5.94,5.55-13.34,4.31-20.39-.63-3.58-2.73-7.18-2.2-10.88s3.15-6.58,5.53-9.17c1.3-1.42-.81-3.55-2.12-2.12h0Z"/>
      <circle class="r" cx="197.17" cy="135.44" r="8.16"/>
      <path class="v" d="M410.42,143.24c.98,3.58,1.26,7.24.87,10.93s-1.31,7.15-1.87,10.74-.79,6.98-.04,10.44,2.54,6.58,4.38,9.55c1.01,1.64,3.61.13,2.59-1.51-1.79-2.9-3.52-5.89-4.17-9.28s-.13-7.18.52-10.67,1.43-6.9,1.69-10.41-.14-7.15-1.08-10.59c-.51-1.86-3.41-1.07-2.89.8h0Z"/>
      <path class="v" d="M409.34,142.91c-2.45,2.67-4.93,5.59-5.99,9.13-1.14,3.83.15,7.35,1.22,11.01,2.08,7.1.8,14.79-3.34,20.9-1.09,1.6,1.51,3.1,2.59,1.51,4.03-5.94,5.55-13.34,4.31-20.39-.63-3.58-2.73-7.18-2.2-10.88s3.15-6.58,5.53-9.17c1.3-1.42-.81-3.55-2.12-2.12h0Z"/>
      <circle class="r" cx="410.42" cy="135.44" r="8.16"/>
      <path class="v" d="M374.88,143.24c.98,3.58,1.26,7.24.87,10.93s-1.31,7.15-1.87,10.74-.79,6.98-.04,10.44,2.54,6.58,4.38,9.55c1.01,1.64,3.61.13,2.59-1.51-1.79-2.9-3.52-5.89-4.17-9.28s-.13-7.18.52-10.67,1.43-6.9,1.69-10.41-.14-7.15-1.08-10.59c-.51-1.86-3.41-1.07-2.89.8h0Z"/>
      <path class="v" d="M373.79,142.91c-2.45,2.67-4.93,5.59-5.99,9.13-1.14,3.83.15,7.35,1.22,11.01,2.08,7.1.8,14.79-3.34,20.9-1.09,1.6,1.51,3.1,2.59,1.51,4.03-5.94,5.55-13.34,4.31-20.39-.63-3.58-2.73-7.18-2.2-10.88s3.15-6.58,5.53-9.17c1.3-1.42-.81-3.55-2.12-2.12h0Z"/>
      <circle class="r" cx="374.88" cy="135.44" r="8.16"/>
      <path class="v" d="M286.02,143.24c.98,3.58,1.26,7.24.87,10.93s-1.31,7.15-1.87,10.74-.79,6.98-.04,10.44,2.54,6.58,4.38,9.55c1.01,1.64,3.61.13,2.59-1.51-1.79-2.9-3.52-5.89-4.17-9.28s-.13-7.18.52-10.67,1.43-6.9,1.69-10.41-.14-7.15-1.08-10.59c-.51-1.86-3.41-1.07-2.89.8h0Z"/>
      <path class="v" d="M284.94,142.91c-2.45,2.67-4.93,5.59-5.99,9.13-1.14,3.83.15,7.35,1.22,11.01,2.08,7.1.8,14.79-3.34,20.9-1.09,1.6,1.51,3.1,2.59,1.51,4.03-5.94,5.55-13.34,4.31-20.39-.63-3.58-2.73-7.18-2.2-10.88s3.15-6.58,5.53-9.17c1.3-1.42-.81-3.55-2.12-2.12h0Z"/>
      <circle class="r" cx="286.03" cy="135.44" r="8.16"/>
      <path class="v" d="M161.62,143.24c.98,3.58,1.26,7.24.87,10.93s-1.31,7.15-1.87,10.74-.79,6.98-.04,10.44,2.54,6.58,4.38,9.55c1.01,1.64,3.61.13,2.59-1.51-1.79-2.9-3.52-5.89-4.17-9.28s-.13-7.18.52-10.67,1.43-6.9,1.69-10.41-.14-7.15-1.08-10.59c-.51-1.86-3.41-1.07-2.89.8h0Z"/>
      <path class="v" d="M160.54,142.91c-2.45,2.67-4.93,5.59-5.99,9.13-1.14,3.83.15,7.35,1.22,11.01,2.08,7.1.8,14.79-3.34,20.9-1.09,1.6,1.51,3.1,2.59,1.51,4.03-5.94,5.55-13.34,4.31-20.39-.63-3.58-2.73-7.18-2.2-10.88s3.15-6.58,5.53-9.17c1.3-1.42-.81-3.55-2.12-2.12h0Z"/>
      <circle class="r" cx="161.63" cy="135.44" r="8.16"/>
      <path class="v" d="M108.31,143.24c.98,3.58,1.26,7.24.87,10.93s-1.31,7.15-1.87,10.74-.79,6.98-.04,10.44,2.54,6.58,4.38,9.55c1.01,1.64,3.61.13,2.59-1.51-1.79-2.9-3.52-5.89-4.17-9.28s-.13-7.18.52-10.67,1.43-6.9,1.69-10.41-.14-7.15-1.08-10.59c-.51-1.86-3.41-1.07-2.89.8h0Z"/>
      <path class="v" d="M107.23,142.91c-2.45,2.67-4.93,5.59-5.99,9.13-1.14,3.83.15,7.35,1.22,11.01,2.08,7.1.8,14.79-3.34,20.9-1.09,1.6,1.51,3.1,2.59,1.51,4.03-5.94,5.55-13.34,4.31-20.39-.63-3.58-2.73-7.18-2.2-10.88s3.15-6.58,5.53-9.17c1.3-1.42-.81-3.55-2.12-2.12h0Z"/>
      <circle class="r" cx="108.32" cy="135.44" r="8.16"/>
      <path class="v" d="M55,143.24c.98,3.58,1.26,7.24.87,10.93s-1.31,7.15-1.87,10.74-.79,6.98-.04,10.44,2.54,6.58,4.38,9.55c1.01,1.64,3.61.13,2.59-1.51-1.79-2.9-3.52-5.89-4.17-9.28s-.13-7.18.52-10.67,1.43-6.9,1.69-10.41-.14-7.15-1.08-10.59c-.51-1.86-3.41-1.07-2.89.8h0Z"/>
      <path class="v" d="M53.92,142.91c-2.45,2.67-4.93,5.59-5.99,9.13-1.14,3.83.15,7.35,1.22,11.01,2.08,7.1.8,14.79-3.34,20.9-1.09,1.6,1.51,3.1,2.59,1.51,4.03-5.94,5.55-13.34,4.31-20.39-.63-3.58-2.73-7.18-2.2-10.88s3.15-6.58,5.53-9.17c1.3-1.42-.81-3.55-2.12-2.12h0Z"/>
      <circle class="r" cx="55" cy="135.44" r="8.16"/>
      <path class="v" d="M74.02,143.24c.48,1.86.3,3.77.38,5.66s.65,3.6,1.31,5.43c1.22,3.38,1.96,6.96,1.74,10.57-.15,2.44-.78,4.88-2.03,7-1.05,1.77-3.22,3.06-2.99,5.33.31,3.08,3.37,5.24,4.94,7.68,1.04,1.62,3.64.12,2.59-1.51-.74-1.15-1.65-2.17-2.52-3.22-.61-.74-2.06-2.14-2.04-3.2.01-.63.86-1.16,1.26-1.65.68-.83,1.28-1.71,1.76-2.67,2.78-5.43,2.46-11.88.7-17.57-.67-2.17-1.65-4.08-1.73-6.39-.07-2.1.05-4.19-.47-6.25-.48-1.87-3.37-1.08-2.89.8h0Z"/>
      <path class="v" d="M72.94,142.91c-2.25,2.53-3,5.43-3.1,8.75-.05,1.65.07,3.29-.37,4.89-.47,1.71-1.17,3.33-1.3,5.12s.63,3.3.63,5.01c0,1.27-.34,2.47-.96,3.57-1.55,2.79-3.95,5.09-5.77,7.7-1.11,1.59,1.49,3.09,2.59,1.51,1.77-2.54,4.05-4.76,5.62-7.44s1.8-5.55,1.12-8.51c-.41-1.76,0-3.13.55-4.83s.85-3.21.86-4.95c.03-3.17.02-6.2,2.25-8.7,1.28-1.44-.83-3.57-2.12-2.12h0Z"/>
      <circle class="r" cx="74.03" cy="135.44" r="8.16"/>
      <path class="v" d="M180.65,143.24c.48,1.86.3,3.77.38,5.66s.65,3.6,1.31,5.43c1.22,3.38,1.96,6.96,1.74,10.57-.15,2.44-.78,4.88-2.03,7-1.05,1.77-3.22,3.06-2.99,5.33.31,3.08,3.37,5.24,4.94,7.68,1.04,1.62,3.64.12,2.59-1.51-.74-1.15-1.65-2.17-2.52-3.22-.61-.74-2.06-2.14-2.04-3.2.01-.63.86-1.16,1.26-1.65.68-.83,1.28-1.71,1.76-2.67,2.78-5.43,2.46-11.88.7-17.57-.67-2.17-1.65-4.08-1.73-6.39-.07-2.1.05-4.19-.47-6.25-.48-1.87-3.37-1.08-2.89.8h0Z"/>
      <path class="v" d="M179.57,142.91c-2.25,2.53-3,5.43-3.1,8.75-.05,1.65.07,3.29-.37,4.89-.47,1.71-1.17,3.33-1.3,5.12s.63,3.3.63,5.01c0,1.27-.34,2.47-.96,3.57-1.55,2.79-3.95,5.09-5.77,7.7-1.11,1.59,1.49,3.09,2.59,1.51,1.77-2.54,4.05-4.76,5.62-7.44s1.8-5.55,1.12-8.51c-.41-1.76,0-3.13.55-4.83s.85-3.21.86-4.95c.03-3.17.02-6.2,2.25-8.7,1.28-1.44-.83-3.57-2.12-2.12h0Z"/>
      <circle class="r" cx="180.65" cy="135.44" r="8.16"/>
      <path class="v" d="M233.96,143.24c.48,1.86.3,3.77.38,5.66s.65,3.6,1.31,5.43c1.22,3.38,1.96,6.96,1.74,10.57-.15,2.44-.78,4.88-2.03,7-1.05,1.77-3.22,3.06-2.99,5.33.31,3.08,3.37,5.24,4.94,7.68,1.04,1.62,3.64.12,2.59-1.51-.74-1.15-1.65-2.17-2.52-3.22-.61-.74-2.06-2.14-2.04-3.2.01-.63.86-1.16,1.26-1.65.68-.83,1.28-1.71,1.76-2.67,2.78-5.43,2.46-11.88.7-17.57-.67-2.17-1.65-4.08-1.73-6.39-.07-2.1.05-4.19-.47-6.25-.48-1.87-3.37-1.08-2.89.8h0Z"/>
      <path class="v" d="M232.88,142.91c-2.25,2.53-3,5.43-3.1,8.75-.05,1.65.07,3.29-.37,4.89-.47,1.71-1.17,3.33-1.3,5.12s.63,3.3.63,5.01c0,1.27-.34,2.47-.96,3.57-1.55,2.79-3.95,5.09-5.77,7.7-1.11,1.59,1.49,3.09,2.59,1.51,1.77-2.54,4.05-4.76,5.62-7.44s1.8-5.55,1.12-8.51c-.41-1.76,0-3.13.55-4.83s.85-3.21.86-4.95c.03-3.17.02-6.2,2.25-8.7,1.28-1.44-.83-3.57-2.12-2.12h0Z"/>
      <circle class="r" cx="233.97" cy="135.44" r="8.16"/>
      <path class="v" d="M305.05,143.24c.48,1.86.3,3.77.38,5.66s.65,3.6,1.31,5.43c1.22,3.38,1.96,6.96,1.74,10.57-.15,2.44-.78,4.88-2.03,7-1.05,1.77-3.22,3.06-2.99,5.33.31,3.08,3.37,5.24,4.94,7.68,1.04,1.62,3.64.12,2.59-1.51-.74-1.15-1.65-2.17-2.52-3.22-.61-.74-2.06-2.14-2.04-3.2.01-.63.86-1.16,1.26-1.65.68-.83,1.28-1.71,1.76-2.67,2.78-5.43,2.46-11.88.7-17.57-.67-2.17-1.65-4.08-1.73-6.39-.07-2.1.05-4.19-.47-6.25-.48-1.87-3.37-1.08-2.89.8h0Z"/>
      <path class="v" d="M303.96,142.91c-2.25,2.53-3,5.43-3.1,8.75-.05,1.65.07,3.29-.37,4.89-.47,1.71-1.17,3.33-1.3,5.12s.63,3.3.63,5.01c0,1.27-.34,2.47-.96,3.57-1.55,2.79-3.95,5.09-5.77,7.7-1.11,1.59,1.49,3.09,2.59,1.51,1.77-2.54,4.05-4.76,5.62-7.44s1.8-5.55,1.12-8.51c-.41-1.76,0-3.13.55-4.83s.85-3.21.86-4.95c.03-3.17.02-6.2,2.25-8.7,1.28-1.44-.83-3.57-2.12-2.12h0Z"/>
      <circle class="r" cx="305.05" cy="135.44" r="8.16"/>
      <path class="v" d="M447.21,143.24c.48,1.86.3,3.77.38,5.66s.65,3.6,1.31,5.43c1.22,3.38,1.96,6.96,1.74,10.57-.15,2.44-.78,4.88-2.03,7-1.05,1.77-3.22,3.06-2.99,5.33.31,3.08,3.37,5.24,4.94,7.68,1.04,1.62,3.64.12,2.59-1.51-.74-1.15-1.65-2.17-2.52-3.22-.61-.74-2.06-2.14-2.04-3.2.01-.63.86-1.16,1.26-1.65.68-.83,1.28-1.71,1.76-2.67,2.78-5.43,2.46-11.88.7-17.57-.67-2.17-1.65-4.08-1.73-6.39-.07-2.1.05-4.19-.47-6.25-.48-1.87-3.37-1.08-2.89.8h0Z"/>
      <path class="v" d="M446.13,142.91c-2.25,2.53-3,5.43-3.1,8.75-.05,1.65.07,3.29-.37,4.89-.47,1.71-1.17,3.33-1.3,5.12s.63,3.3.63,5.01c0,1.27-.34,2.47-.96,3.57-1.55,2.79-3.95,5.09-5.77,7.7-1.11,1.59,1.49,3.09,2.59,1.51,1.77-2.54,4.05-4.76,5.62-7.44s1.8-5.55,1.12-8.51c-.41-1.76,0-3.13.55-4.83s.85-3.21.86-4.95c.03-3.17.02-6.2,2.25-8.7,1.28-1.44-.83-3.57-2.12-2.12h0Z"/>
      <circle class="r" cx="447.22" cy="135.44" r="8.16"/>
      <path class="v" d="M518.3,143.24c.48,1.86.3,3.77.38,5.66s.65,3.6,1.31,5.43c1.22,3.38,1.96,6.96,1.74,10.57-.15,2.44-.78,4.88-2.03,7-1.05,1.77-3.22,3.06-2.99,5.33.31,3.08,3.37,5.24,4.94,7.68,1.04,1.62,3.64.12,2.59-1.51-.74-1.15-1.65-2.17-2.52-3.22-.61-.74-2.06-2.14-2.04-3.2.01-.63.86-1.16,1.26-1.65.68-.83,1.28-1.71,1.76-2.67,2.78-5.43,2.46-11.88.7-17.57-.67-2.17-1.65-4.08-1.73-6.39-.07-2.1.05-4.19-.47-6.25-.48-1.87-3.37-1.08-2.89.8h0Z"/>
      <path class="v" d="M517.21,142.91c-2.25,2.53-3,5.43-3.1,8.75-.05,1.65.07,3.29-.37,4.89-.47,1.71-1.17,3.33-1.3,5.12s.63,3.3.63,5.01c0,1.27-.34,2.47-.96,3.57-1.55,2.79-3.95,5.09-5.77,7.7-1.11,1.59,1.49,3.09,2.59,1.51,1.77-2.54,4.05-4.76,5.62-7.44s1.8-5.55,1.12-8.51c-.41-1.76,0-3.13.55-4.83s.85-3.21.86-4.95c.03-3.17.02-6.2,2.25-8.7,1.28-1.44-.83-3.57-2.12-2.12h0Z"/>
      <circle class="r" cx="518.3" cy="135.44" r="8.16"/>
      <path class="v" d="M20.71,143.24c.48,1.86.3,3.77.38,5.66s.65,3.6,1.31,5.43c1.22,3.38,1.96,6.96,1.74,10.57-.15,2.44-.78,4.88-2.03,7-1.05,1.77-3.22,3.06-2.99,5.33.31,3.08,3.37,5.24,4.94,7.68,1.04,1.62,3.64.12,2.59-1.51-.74-1.15-1.65-2.17-2.52-3.22-.61-.74-2.06-2.14-2.04-3.2.01-.63.86-1.16,1.26-1.65.68-.83,1.28-1.71,1.76-2.67,2.78-5.43,2.46-11.88.7-17.57-.67-2.17-1.65-4.08-1.73-6.39-.07-2.1.05-4.19-.47-6.25-.48-1.87-3.37-1.08-2.89.8h0Z"/>
      <path class="v" d="M19.63,142.91c-2.25,2.53-3,5.43-3.1,8.75-.05,1.65.07,3.29-.37,4.89-.47,1.71-1.17,3.33-1.3,5.12s.63,3.3.63,5.01c0,1.27-.34,2.47-.96,3.57-1.55,2.79-3.95,5.09-5.77,7.7-1.11,1.59,1.49,3.09,2.59,1.51,1.77-2.54,4.05-4.76,5.62-7.44s1.8-5.55,1.12-8.51c-.41-1.76,0-3.13.55-4.83s.85-3.21.86-4.95c.03-3.17.02-6.2,2.25-8.7,1.28-1.44-.83-3.57-2.12-2.12h0Z"/>
      <circle class="r" cx="20.71" cy="135.44" r="8.16"/>
      <path class="v" d="M145.11,143.24c.48,1.86.3,3.77.38,5.66s.65,3.6,1.31,5.43c1.22,3.38,1.96,6.96,1.74,10.57-.15,2.44-.78,4.88-2.03,7-1.05,1.77-3.22,3.06-2.99,5.33.31,3.08,3.37,5.24,4.94,7.68,1.04,1.62,3.64.12,2.59-1.51-.74-1.15-1.65-2.17-2.52-3.22-.61-.74-2.06-2.14-2.04-3.2.01-.63.86-1.16,1.26-1.65.68-.83,1.28-1.71,1.76-2.67,2.78-5.43,2.46-11.88.7-17.57-.67-2.17-1.65-4.08-1.73-6.39-.07-2.1.05-4.19-.47-6.25-.48-1.87-3.37-1.08-2.89.8h0Z"/>
      <path class="v" d="M144.02,142.91c-2.25,2.53-3,5.43-3.1,8.75-.05,1.65.07,3.29-.37,4.89-.47,1.71-1.17,3.33-1.3,5.12s.63,3.3.63,5.01c0,1.27-.34,2.47-.96,3.57-1.55,2.79-3.95,5.09-5.77,7.7-1.11,1.59,1.49,3.09,2.59,1.51,1.77-2.54,4.05-4.76,5.62-7.44s1.8-5.55,1.12-8.51c-.41-1.76,0-3.13.55-4.83s.85-3.21.86-4.95c.03-3.17.02-6.2,2.25-8.7,1.28-1.44-.83-3.57-2.12-2.12h0Z"/>
      <circle class="r" cx="145.11" cy="135.44" r="8.16"/>
      <path class="v" d="M126.62,143.24c.52,2.02.31,4.08.45,6.14.15,2.21.96,4.14,1.57,6.24.91,3.1,1.47,6.38,1.07,9.62-.24,1.96-.89,3.84-1.81,5.58-.72,1.37-1.65,2.67-2.19,4.13-1.44,3.89,2.38,7.04,4.25,9.96,1.04,1.62,3.64.12,2.59-1.51-.93-1.44-2.09-2.71-3.05-4.13-.43-.63-.89-1.33-1.04-2.09-.05-.24-.09-.5-.06-.75.02-.2.11-.43.18-.62-.05.13-.06.14,0,0,.61-1.38,1.5-2.63,2.17-3.98,2.44-4.92,2.48-10.3,1.17-15.57-.57-2.29-1.69-4.5-1.86-6.88s.03-4.65-.56-6.94c-.48-1.87-3.37-1.08-2.89.8h0Z"/>
      <path class="v" d="M124.21,143.35c-2.66,2.92-4.9,6.39-6.55,9.97-1.2,2.62-3.35,7.48.08,9.33.47.26,1.19.34,1.6.71.5.45.29,1.62.32,2.25.11,2.35.2,4.7.22,7.06.02,2.69.09,5.55-.66,8.16-.16.57-.24.78-.41,1.09-.1.18-.2.36-.31.53-.23.36,0,.05-.19.25-.13.14-.26.27-.39.39-.32.3.02.02-.22.17-.34.22-.69.42-1.06.59-1.75.81-.23,3.4,1.51,2.59,3.97-1.85,4.5-6.29,4.67-10.21.08-1.89.07-3.79.02-5.68-.03-1.21-.07-2.41-.12-3.62s.03-2.65-.23-3.89c-.16-.78-.55-1.43-1.16-1.94s-1.31-.62-1.97-1c-.46-.27-.48-.25-.46-.82.02-.79.28-1.61.52-2.35,1.35-4.15,3.98-8.25,6.91-11.47,1.3-1.43-.82-3.55-2.12-2.12h0Z"/>
      <circle class="r" cx="126.62" cy="135.44" r="8.16"/>
      <path class="v" d="M91.07,143.24c.52,2.02.31,4.08.45,6.14.15,2.21.96,4.14,1.57,6.24.91,3.1,1.47,6.38,1.07,9.62-.24,1.96-.89,3.84-1.81,5.58-.72,1.37-1.65,2.67-2.19,4.13-1.44,3.89,2.38,7.04,4.25,9.96,1.04,1.62,3.64.12,2.59-1.51-.93-1.44-2.09-2.71-3.05-4.13-.43-.63-.89-1.33-1.04-2.09-.05-.24-.09-.5-.06-.75.02-.2.11-.43.18-.62-.05.13-.06.14,0,0,.61-1.38,1.5-2.63,2.17-3.98,2.44-4.92,2.48-10.3,1.17-15.57-.57-2.29-1.69-4.5-1.86-6.88s.03-4.65-.56-6.94c-.48-1.87-3.37-1.08-2.89.8h0Z"/>
      <path class="v" d="M88.67,143.35c-2.66,2.92-4.9,6.39-6.55,9.97-1.2,2.62-3.35,7.48.08,9.33.47.26,1.19.34,1.6.71.5.45.29,1.62.32,2.25.11,2.35.2,4.7.22,7.06.02,2.69.09,5.55-.66,8.16-.16.57-.24.78-.41,1.09-.1.18-.2.36-.31.53-.23.36,0,.05-.19.25-.13.14-.26.27-.39.39-.32.3.02.02-.22.17-.34.22-.69.42-1.06.59-1.75.81-.23,3.4,1.51,2.59,3.97-1.85,4.5-6.29,4.67-10.21.08-1.89.07-3.79.02-5.68-.03-1.21-.07-2.41-.12-3.62s.03-2.65-.23-3.89c-.16-.78-.55-1.43-1.16-1.94s-1.31-.62-1.97-1c-.46-.27-.48-.25-.46-.82.02-.79.28-1.61.52-2.35,1.35-4.15,3.98-8.25,6.91-11.47,1.3-1.43-.82-3.55-2.12-2.12h0Z"/>
      <circle class="r" cx="91.08" cy="135.44" r="8.16"/>
      <path class="v" d="M37.76,143.24c.52,2.02.31,4.08.45,6.14.15,2.21.96,4.14,1.57,6.24.91,3.1,1.47,6.38,1.07,9.62-.24,1.96-.89,3.84-1.81,5.58-.72,1.37-1.65,2.67-2.19,4.13-1.44,3.89,2.38,7.04,4.25,9.96,1.04,1.62,3.64.12,2.59-1.51-.93-1.44-2.09-2.71-3.05-4.13-.43-.63-.89-1.33-1.04-2.09-.05-.24-.09-.5-.06-.75.02-.2.11-.43.18-.62-.05.13-.06.14,0,0,.61-1.38,1.5-2.63,2.17-3.98,2.44-4.92,2.48-10.3,1.17-15.57-.57-2.29-1.69-4.5-1.86-6.88s.03-4.65-.56-6.94c-.48-1.87-3.37-1.08-2.89.8h0Z"/>
      <path class="v" d="M35.35,143.35c-2.66,2.92-4.9,6.39-6.55,9.97-1.2,2.62-3.35,7.48.08,9.33.47.26,1.19.34,1.6.71.5.45.29,1.62.32,2.25.11,2.35.2,4.7.22,7.06.02,2.69.09,5.55-.66,8.16-.16.57-.24.78-.41,1.09-.1.18-.2.36-.31.53-.23.36,0,.05-.19.25-.13.14-.26.27-.39.39-.32.3.02.02-.22.17-.34.22-.69.42-1.06.59-1.75.81-.23,3.4,1.51,2.59,3.97-1.85,4.5-6.29,4.67-10.21.08-1.89.07-3.79.02-5.68-.03-1.21-.07-2.41-.12-3.62s.03-2.65-.23-3.89c-.16-.78-.55-1.43-1.16-1.94s-1.31-.62-1.97-1c-.46-.27-.48-.25-.46-.82.02-.79.28-1.61.52-2.35,1.35-4.15,3.98-8.25,6.91-11.47,1.3-1.43-.82-3.55-2.12-2.12h0Z"/>
      <circle class="r" cx="37.77" cy="135.44" r="8.16"/>
      <path class="v" d="M251.01,143.24c.52,2.02.31,4.08.45,6.14.15,2.21.96,4.14,1.57,6.24.91,3.1,1.47,6.38,1.07,9.62-.24,1.96-.89,3.84-1.81,5.58-.72,1.37-1.65,2.67-2.19,4.13-1.44,3.89,2.38,7.04,4.25,9.96,1.04,1.62,3.64.12,2.59-1.51-.93-1.44-2.09-2.71-3.05-4.13-.43-.63-.89-1.33-1.04-2.09-.05-.24-.09-.5-.06-.75.02-.2.11-.43.18-.62-.05.13-.06.14,0,0,.61-1.38,1.5-2.63,2.17-3.98,2.44-4.92,2.48-10.3,1.17-15.57-.57-2.29-1.69-4.5-1.86-6.88s.03-4.65-.56-6.94c-.48-1.87-3.37-1.08-2.89.8h0Z"/>
      <path class="v" d="M248.61,143.35c-2.66,2.92-4.9,6.39-6.55,9.97-1.2,2.62-3.35,7.48.08,9.33.47.26,1.19.34,1.6.71.5.45.29,1.62.32,2.25.11,2.35.2,4.7.22,7.06.02,2.69.09,5.55-.66,8.16-.16.57-.24.78-.41,1.09-.1.18-.2.36-.31.53-.23.36,0,.05-.19.25-.13.14-.26.27-.39.39-.32.3.02.02-.22.17-.34.22-.69.42-1.06.59-1.75.81-.23,3.4,1.51,2.59,3.97-1.85,4.5-6.29,4.67-10.21.08-1.89.07-3.79.02-5.68-.03-1.21-.07-2.41-.12-3.62s.03-2.65-.23-3.89c-.16-.78-.55-1.43-1.16-1.94s-1.31-.62-1.97-1c-.46-.27-.48-.25-.46-.82.02-.79.28-1.61.52-2.35,1.35-4.15,3.98-8.25,6.91-11.47,1.3-1.43-.82-3.55-2.12-2.12h0Z"/>
      <circle class="r" cx="251.02" cy="135.44" r="8.16"/>
      <path class="v" d="M268.78,143.24c.52,2.02.31,4.08.45,6.14.15,2.21.96,4.14,1.57,6.24.91,3.1,1.47,6.38,1.07,9.62-.24,1.96-.89,3.84-1.81,5.58-.72,1.37-1.65,2.67-2.19,4.13-1.44,3.89,2.38,7.04,4.25,9.96,1.04,1.62,3.64.12,2.59-1.51-.93-1.44-2.09-2.71-3.05-4.13-.43-.63-.89-1.33-1.04-2.09-.05-.24-.09-.5-.06-.75.02-.2.11-.43.18-.62-.05.13-.06.14,0,0,.61-1.38,1.5-2.63,2.17-3.98,2.44-4.92,2.48-10.3,1.17-15.57-.57-2.29-1.69-4.5-1.86-6.88s.03-4.65-.56-6.94c-.48-1.87-3.37-1.08-2.89.8h0Z"/>
      <path class="v" d="M266.38,143.35c-2.66,2.92-4.9,6.39-6.55,9.97-1.2,2.62-3.35,7.48.08,9.33.47.26,1.19.34,1.6.71.5.45.29,1.62.32,2.25.11,2.35.2,4.7.22,7.06.02,2.69.09,5.55-.66,8.16-.16.57-.24.78-.41,1.09-.1.18-.2.36-.31.53-.23.36,0,.05-.19.25-.13.14-.26.27-.39.39-.32.3.02.02-.22.17-.34.22-.69.42-1.06.59-1.75.81-.23,3.4,1.51,2.59,3.97-1.85,4.5-6.29,4.67-10.21.08-1.89.07-3.79.02-5.68-.03-1.21-.07-2.41-.12-3.62s.03-2.65-.23-3.89c-.16-.78-.55-1.43-1.16-1.94s-1.31-.62-1.97-1c-.46-.27-.48-.25-.46-.82.02-.79.28-1.61.52-2.35,1.35-4.15,3.98-8.25,6.91-11.47,1.3-1.43-.82-3.55-2.12-2.12h0Z"/>
      <circle class="r" cx="268.79" cy="135.44" r="8.16"/>
      <path class="v" d="M357.64,143.24c.52,2.02.31,4.08.45,6.14.15,2.21.96,4.14,1.57,6.24.91,3.1,1.47,6.38,1.07,9.62-.24,1.96-.89,3.84-1.81,5.58-.72,1.37-1.65,2.67-2.19,4.13-1.44,3.89,2.38,7.04,4.25,9.96,1.04,1.62,3.64.12,2.59-1.51-.93-1.44-2.09-2.71-3.05-4.13-.43-.63-.89-1.33-1.04-2.09-.05-.24-.09-.5-.06-.75.02-.2.11-.43.18-.62-.05.13-.06.14,0,0,.61-1.38,1.5-2.63,2.17-3.98,2.44-4.92,2.48-10.3,1.17-15.57-.57-2.29-1.69-4.5-1.86-6.88s.03-4.65-.56-6.94c-.48-1.87-3.37-1.08-2.89.8h0Z"/>
      <path class="v" d="M355.23,143.35c-2.66,2.92-4.9,6.39-6.55,9.97-1.2,2.62-3.35,7.48.08,9.33.47.26,1.19.34,1.6.71.5.45.29,1.62.32,2.25.11,2.35.2,4.7.22,7.06.02,2.69.09,5.55-.66,8.16-.16.57-.24.78-.41,1.09-.1.18-.2.36-.31.53-.23.36,0,.05-.19.25-.13.14-.26.27-.39.39-.32.3.02.02-.22.17-.34.22-.69.42-1.06.59-1.75.81-.23,3.4,1.51,2.59,3.97-1.85,4.5-6.29,4.67-10.21.08-1.89.07-3.79.02-5.68-.03-1.21-.07-2.41-.12-3.62s.03-2.65-.23-3.89c-.16-.78-.55-1.43-1.16-1.94s-1.31-.62-1.97-1c-.46-.27-.48-.25-.46-.82.02-.79.28-1.61.52-2.35,1.35-4.15,3.98-8.25,6.91-11.47,1.3-1.43-.82-3.55-2.12-2.12h0Z"/>
      <circle class="r" cx="357.64" cy="135.44" r="8.16"/>
      <path class="v" d="M393.18,143.24c.52,2.02.31,4.08.45,6.14.15,2.21.96,4.14,1.57,6.24.91,3.1,1.47,6.38,1.07,9.62-.24,1.96-.89,3.84-1.81,5.58-.72,1.37-1.65,2.67-2.19,4.13-1.44,3.89,2.38,7.04,4.25,9.96,1.04,1.62,3.64.12,2.59-1.51-.93-1.44-2.09-2.71-3.05-4.13-.43-.63-.89-1.33-1.04-2.09-.05-.24-.09-.5-.06-.75.02-.2.11-.43.18-.62-.05.13-.06.14,0,0,.61-1.38,1.5-2.63,2.17-3.98,2.44-4.92,2.48-10.3,1.17-15.57-.57-2.29-1.69-4.5-1.86-6.88s.03-4.65-.56-6.94c-.48-1.87-3.37-1.08-2.89.8h0Z"/>
      <path class="v" d="M390.77,143.35c-2.66,2.92-4.9,6.39-6.55,9.97-1.2,2.62-3.35,7.48.08,9.33.47.26,1.19.34,1.6.71.5.45.29,1.62.32,2.25.11,2.35.2,4.7.22,7.06.02,2.69.09,5.55-.66,8.16-.16.57-.24.78-.41,1.09-.1.18-.2.36-.31.53-.23.36,0,.05-.19.25-.13.14-.26.27-.39.39-.32.3.02.02-.22.17-.34.22-.69.42-1.06.59-1.75.81-.23,3.4,1.51,2.59,3.97-1.85,4.5-6.29,4.67-10.21.08-1.89.07-3.79.02-5.68-.03-1.21-.07-2.41-.12-3.62s.03-2.65-.23-3.89c-.16-.78-.55-1.43-1.16-1.94s-1.31-.62-1.97-1c-.46-.27-.48-.25-.46-.82.02-.79.28-1.61.52-2.35,1.35-4.15,3.98-8.25,6.91-11.47,1.3-1.43-.82-3.55-2.12-2.12h0Z"/>
      <circle class="r" cx="393.19" cy="135.44" r="8.16"/>
      <path class="v" d="M428.72,143.24c.52,2.02.31,4.08.45,6.14.15,2.21.96,4.14,1.57,6.24.91,3.1,1.47,6.38,1.07,9.62-.24,1.96-.89,3.84-1.81,5.58-.72,1.37-1.65,2.67-2.19,4.13-1.44,3.89,2.38,7.04,4.25,9.96,1.04,1.62,3.64.12,2.59-1.51-.93-1.44-2.09-2.71-3.05-4.13-.43-.63-.89-1.33-1.04-2.09-.05-.24-.09-.5-.06-.75.02-.2.11-.43.18-.62-.05.13-.06.14,0,0,.61-1.38,1.5-2.63,2.17-3.98,2.44-4.92,2.48-10.3,1.17-15.57-.57-2.29-1.69-4.5-1.86-6.88s.03-4.65-.56-6.94c-.48-1.87-3.37-1.08-2.89.8h0Z"/>
      <path class="v" d="M426.32,143.35c-2.66,2.92-4.9,6.39-6.55,9.97-1.2,2.62-3.35,7.48.08,9.33.47.26,1.19.34,1.6.71.5.45.29,1.62.32,2.25.11,2.35.2,4.7.22,7.06.02,2.69.09,5.55-.66,8.16-.16.57-.24.78-.41,1.09-.1.18-.2.36-.31.53-.23.36,0,.05-.19.25-.13.14-.26.27-.39.39-.32.3.02.02-.22.17-.34.22-.69.42-1.06.59-1.75.81-.23,3.4,1.51,2.59,3.97-1.85,4.5-6.29,4.67-10.21.08-1.89.07-3.79.02-5.68-.03-1.21-.07-2.41-.12-3.62s.03-2.65-.23-3.89c-.16-.78-.55-1.43-1.16-1.94s-1.31-.62-1.97-1c-.46-.27-.48-.25-.46-.82.02-.79.28-1.61.52-2.35,1.35-4.15,3.98-8.25,6.91-11.47,1.3-1.43-.82-3.55-2.12-2.12h0Z"/>
      <circle class="r" cx="428.73" cy="135.44" r="8.16"/>
      <path class="v" d="M464.26,143.24c.52,2.02.31,4.08.45,6.14.15,2.21.96,4.14,1.57,6.24.91,3.1,1.47,6.38,1.07,9.62-.24,1.96-.89,3.84-1.81,5.58-.72,1.37-1.65,2.67-2.19,4.13-1.44,3.89,2.38,7.04,4.25,9.96,1.04,1.62,3.64.12,2.59-1.51-.93-1.44-2.09-2.71-3.05-4.13-.43-.63-.89-1.33-1.04-2.09-.05-.24-.09-.5-.06-.75.02-.2.11-.43.18-.62-.05.13-.06.14,0,0,.61-1.38,1.5-2.63,2.17-3.98,2.44-4.92,2.48-10.3,1.17-15.57-.57-2.29-1.69-4.5-1.86-6.88s.03-4.65-.56-6.94c-.48-1.87-3.37-1.08-2.89.8h0Z"/>
      <path class="v" d="M461.86,143.35c-2.66,2.92-4.9,6.39-6.55,9.97-1.2,2.62-3.35,7.48.08,9.33.47.26,1.19.34,1.6.71.5.45.29,1.62.32,2.25.11,2.35.2,4.7.22,7.06.02,2.69.09,5.55-.66,8.16-.16.57-.24.78-.41,1.09-.1.18-.2.36-.31.53-.23.36,0,.05-.19.25-.13.14-.26.27-.39.39-.32.3.02.02-.22.17-.34.22-.69.42-1.06.59-1.75.81-.23,3.4,1.51,2.59,3.97-1.85,4.5-6.29,4.67-10.21.08-1.89.07-3.79.02-5.68-.03-1.21-.07-2.41-.12-3.62s.03-2.65-.23-3.89c-.16-.78-.55-1.43-1.16-1.94s-1.31-.62-1.97-1c-.46-.27-.48-.25-.46-.82.02-.79.28-1.61.52-2.35,1.35-4.15,3.98-8.25,6.91-11.47,1.3-1.43-.82-3.55-2.12-2.12h0Z"/>
      <circle class="r" cx="464.27" cy="135.44" r="8.16"/>
      <path class="v" d="M535.35,143.24c.52,2.02.31,4.08.45,6.14.15,2.21.96,4.14,1.57,6.24.91,3.1,1.47,6.38,1.07,9.62-.24,1.96-.89,3.84-1.81,5.58-.72,1.37-1.65,2.67-2.19,4.13-1.44,3.89,2.38,7.04,4.25,9.96,1.04,1.62,3.64.12,2.59-1.51-.93-1.44-2.09-2.71-3.05-4.13-.43-.63-.89-1.33-1.04-2.09-.05-.24-.09-.5-.06-.75.02-.2.11-.43.18-.62-.05.13-.06.14,0,0,.61-1.38,1.5-2.63,2.17-3.98,2.44-4.92,2.48-10.3,1.17-15.57-.57-2.29-1.69-4.5-1.86-6.88s.03-4.65-.56-6.94c-.48-1.87-3.37-1.08-2.89.8h0Z"/>
      <path class="v" d="M532.94,143.35c-2.66,2.92-4.9,6.39-6.55,9.97-1.2,2.62-3.35,7.48.08,9.33.47.26,1.19.34,1.6.71.5.45.29,1.62.32,2.25.11,2.35.2,4.7.22,7.06.02,2.69.09,5.55-.66,8.16-.16.57-.24.78-.41,1.09-.1.18-.2.36-.31.53-.23.36,0,.05-.19.25-.13.14-.26.27-.39.39-.32.3.02.02-.22.17-.34.22-.69.42-1.06.59-1.75.81-.23,3.4,1.51,2.59,3.97-1.85,4.5-6.29,4.67-10.21.08-1.89.07-3.79.02-5.68-.03-1.21-.07-2.41-.12-3.62s.03-2.65-.23-3.89c-.16-.78-.55-1.43-1.16-1.94s-1.31-.62-1.97-1c-.46-.27-.48-.25-.46-.82.02-.79.28-1.61.52-2.35,1.35-4.15,3.98-8.25,6.91-11.47,1.3-1.43-.82-3.55-2.12-2.12h0Z"/>
      <circle class="r" cx="535.35" cy="135.44" r="8.16"/>
      <path class="v" d="M482.04,143.24c.52,2.02.31,4.08.45,6.14.15,2.21.96,4.14,1.57,6.24.91,3.1,1.47,6.38,1.07,9.62-.24,1.96-.89,3.84-1.81,5.58-.72,1.37-1.65,2.67-2.19,4.13-1.44,3.89,2.38,7.04,4.25,9.96,1.04,1.62,3.64.12,2.59-1.51-.93-1.44-2.09-2.71-3.05-4.13-.43-.63-.89-1.33-1.04-2.09-.05-.24-.09-.5-.06-.75.02-.2.11-.43.18-.62-.05.13-.06.14,0,0,.61-1.38,1.5-2.63,2.17-3.98,2.44-4.92,2.48-10.3,1.17-15.57-.57-2.29-1.69-4.5-1.86-6.88s.03-4.65-.56-6.94c-.48-1.87-3.37-1.08-2.89.8h0Z"/>
      <path class="v" d="M479.63,143.35c-2.66,2.92-4.9,6.39-6.55,9.97-1.2,2.62-3.35,7.48.08,9.33.47.26,1.19.34,1.6.71.5.45.29,1.62.32,2.25.11,2.35.2,4.7.22,7.06.02,2.69.09,5.55-.66,8.16-.16.57-.24.78-.41,1.09-.1.18-.2.36-.31.53-.23.36,0,.05-.19.25-.13.14-.26.27-.39.39-.32.3.02.02-.22.17-.34.22-.69.42-1.06.59-1.75.81-.23,3.4,1.51,2.59,3.97-1.85,4.5-6.29,4.67-10.21.08-1.89.07-3.79.02-5.68-.03-1.21-.07-2.41-.12-3.62s.03-2.65-.23-3.89c-.16-.78-.55-1.43-1.16-1.94s-1.31-.62-1.97-1c-.46-.27-.48-.25-.46-.82.02-.79.28-1.61.52-2.35,1.35-4.15,3.98-8.25,6.91-11.47,1.3-1.43-.82-3.55-2.12-2.12h0Z"/>
      <circle class="r" cx="482.04" cy="135.44" r="8.16"/>
      <path class="v" d="M215.47,143.24c.52,2.02.31,4.08.45,6.14.15,2.21.96,4.14,1.57,6.24.91,3.1,1.47,6.38,1.07,9.62-.24,1.96-.89,3.84-1.81,5.58-.72,1.37-1.65,2.67-2.19,4.13-1.44,3.89,2.38,7.04,4.25,9.96,1.04,1.62,3.64.12,2.59-1.51-.93-1.44-2.09-2.71-3.05-4.13-.43-.63-.89-1.33-1.04-2.09-.05-.24-.09-.5-.06-.75.02-.2.11-.43.18-.62-.05.13-.06.14,0,0,.61-1.38,1.5-2.63,2.17-3.98,2.44-4.92,2.48-10.3,1.17-15.57-.57-2.29-1.69-4.5-1.86-6.88s.03-4.65-.56-6.94c-.48-1.87-3.37-1.08-2.89.8h0Z"/>
      <path class="v" d="M213.06,143.35c-2.66,2.92-4.9,6.39-6.55,9.97-1.2,2.62-3.35,7.48.08,9.33.47.26,1.19.34,1.6.71.5.45.29,1.62.32,2.25.11,2.35.2,4.7.22,7.06.02,2.69.09,5.55-.66,8.16-.16.57-.24.78-.41,1.09-.1.18-.2.36-.31.53-.23.36,0,.05-.19.25-.13.14-.26.27-.39.39-.32.3.02.02-.22.17-.34.22-.69.42-1.06.59-1.75.81-.23,3.4,1.51,2.59,3.97-1.85,4.5-6.29,4.67-10.21.08-1.89.07-3.79.02-5.68-.03-1.21-.07-2.41-.12-3.62s.03-2.65-.23-3.89c-.16-.78-.55-1.43-1.16-1.94s-1.31-.62-1.97-1c-.46-.27-.48-.25-.46-.82.02-.79.28-1.61.52-2.35,1.35-4.15,3.98-8.25,6.91-11.47,1.3-1.43-.82-3.55-2.12-2.12h0Z"/>
      <circle class="r" cx="215.48" cy="135.44" r="8.16"/>
      <path class="v" d="M501.57,231.71c.92-3.37,1.33-6.88,1.1-10.36s-1.05-7.11-1.7-10.64-1.17-6.99-.56-10.45,2.37-6.53,4.2-9.5c1.02-1.65-1.58-3.15-2.59-1.51-1.84,2.98-3.63,6.1-4.38,9.55s-.5,6.97.04,10.44,1.49,7.12,1.87,10.74.11,7.35-.87,10.93c-.51,1.86,2.38,2.66,2.89.8h0Z"/>
      <path class="v" d="M499.72,229.12c-2.34-2.55-4.9-5.44-5.5-8.97-.64-3.77,1.53-7.44,2.17-11.08,1.24-7.05-.29-14.46-4.31-20.39-1.08-1.59-3.68-.09-2.59,1.51,4.14,6.11,5.42,13.8,3.34,20.9-1.07,3.66-2.37,7.18-1.22,11.01,1.06,3.55,3.53,6.46,5.99,9.13,1.31,1.43,3.43-.7,2.12-2.12h0Z"/>
      <circle class="r" cx="498.68" cy="238.71" r="8.16"/>
      <path class="v" d="M341.63,231.71c.92-3.37,1.33-6.88,1.1-10.36s-1.05-7.11-1.7-10.64-1.17-6.99-.56-10.45,2.37-6.53,4.2-9.5c1.02-1.65-1.58-3.15-2.59-1.51-1.84,2.98-3.63,6.1-4.38,9.55s-.5,6.97.04,10.44,1.49,7.12,1.87,10.74.11,7.35-.87,10.93c-.51,1.86,2.38,2.66,2.89.8h0Z"/>
      <path class="v" d="M339.78,229.12c-2.34-2.55-4.9-5.44-5.5-8.97-.64-3.77,1.53-7.44,2.17-11.08,1.24-7.05-.29-14.46-4.31-20.39-1.08-1.59-3.68-.09-2.59,1.51,4.14,6.11,5.42,13.8,3.34,20.9-1.07,3.66-2.37,7.18-1.22,11.01,1.06,3.55,3.53,6.46,5.99,9.13,1.31,1.43,3.43-.7,2.12-2.12h0Z"/>
      <circle class="r" cx="338.74" cy="238.71" r="8.16"/>
      <path class="v" d="M323.86,231.71c.92-3.37,1.33-6.88,1.1-10.36s-1.05-7.11-1.7-10.64-1.17-6.99-.56-10.45,2.37-6.53,4.2-9.5c1.02-1.65-1.58-3.15-2.59-1.51-1.84,2.98-3.63,6.1-4.38,9.55s-.5,6.97.04,10.44,1.49,7.12,1.87,10.74.11,7.35-.87,10.93c-.51,1.86,2.38,2.66,2.89.8h0Z"/>
      <path class="v" d="M322.01,229.12c-2.34-2.55-4.9-5.44-5.5-8.97-.64-3.77,1.53-7.44,2.17-11.08,1.24-7.05-.29-14.46-4.31-20.39-1.08-1.59-3.68-.09-2.59,1.51,4.14,6.11,5.42,13.8,3.34,20.9-1.07,3.66-2.37,7.18-1.22,11.01,1.06,3.55,3.53,6.46,5.99,9.13,1.31,1.43,3.43-.7,2.12-2.12h0Z"/>
      <circle class="r" cx="320.97" cy="238.71" r="8.16"/>
      <path class="v" d="M199.46,231.71c.92-3.37,1.33-6.88,1.1-10.36s-1.05-7.11-1.7-10.64-1.17-6.99-.56-10.45,2.37-6.53,4.2-9.5c1.02-1.65-1.58-3.15-2.59-1.51-1.84,2.98-3.63,6.1-4.38,9.55s-.5,6.97.04,10.44,1.49,7.12,1.87,10.74.11,7.35-.87,10.93c-.51,1.86,2.38,2.66,2.89.8h0Z"/>
      <path class="v" d="M197.61,229.12c-2.34-2.55-4.9-5.44-5.5-8.97-.64-3.77,1.53-7.44,2.17-11.08,1.24-7.05-.29-14.46-4.31-20.39-1.08-1.59-3.68-.09-2.59,1.51,4.14,6.11,5.42,13.8,3.34,20.9-1.07,3.66-2.37,7.18-1.22,11.01,1.06,3.55,3.53,6.46,5.99,9.13,1.31,1.43,3.43-.7,2.12-2.12h0Z"/>
      <circle class="r" cx="196.58" cy="238.71" r="8.16"/>
      <path class="v" d="M412.72,231.71c.92-3.37,1.33-6.88,1.1-10.36s-1.05-7.11-1.7-10.64-1.17-6.99-.56-10.45,2.37-6.53,4.2-9.5c1.02-1.65-1.58-3.15-2.59-1.51-1.84,2.98-3.63,6.1-4.38,9.55s-.5,6.97.04,10.44,1.49,7.12,1.87,10.74.11,7.35-.87,10.93c-.51,1.86,2.38,2.66,2.89.8h0Z"/>
      <path class="v" d="M410.86,229.12c-2.34-2.55-4.9-5.44-5.5-8.97-.64-3.77,1.53-7.44,2.17-11.08,1.24-7.05-.29-14.46-4.31-20.39-1.08-1.59-3.68-.09-2.59,1.51,4.14,6.11,5.42,13.8,3.34,20.9-1.07,3.66-2.37,7.18-1.22,11.01,1.06,3.55,3.53,6.46,5.99,9.13,1.31,1.43,3.43-.7,2.12-2.12h0Z"/>
      <circle class="r" cx="409.83" cy="238.71" r="8.16"/>
      <path class="v" d="M377.17,231.71c.92-3.37,1.33-6.88,1.1-10.36s-1.05-7.11-1.7-10.64-1.17-6.99-.56-10.45,2.37-6.53,4.2-9.5c1.02-1.65-1.58-3.15-2.59-1.51-1.84,2.98-3.63,6.1-4.38,9.55s-.5,6.97.04,10.44,1.49,7.12,1.87,10.74.11,7.35-.87,10.93c-.51,1.86,2.38,2.66,2.89.8h0Z"/>
      <path class="v" d="M375.32,229.12c-2.34-2.55-4.9-5.44-5.5-8.97-.64-3.77,1.53-7.44,2.17-11.08,1.24-7.05-.29-14.46-4.31-20.39-1.08-1.59-3.68-.09-2.59,1.51,4.14,6.11,5.42,13.8,3.34,20.9-1.07,3.66-2.37,7.18-1.22,11.01,1.06,3.55,3.53,6.46,5.99,9.13,1.31,1.43,3.43-.7,2.12-2.12h0Z"/>
      <circle class="r" cx="374.29" cy="238.71" r="8.16"/>
      <path class="v" d="M288.32,231.71c.92-3.37,1.33-6.88,1.1-10.36s-1.05-7.11-1.7-10.64-1.17-6.99-.56-10.45,2.37-6.53,4.2-9.5c1.02-1.65-1.58-3.15-2.59-1.51-1.84,2.98-3.63,6.1-4.38,9.55s-.5,6.97.04,10.44,1.49,7.12,1.87,10.74.11,7.35-.87,10.93c-.51,1.86,2.38,2.66,2.89.8h0Z"/>
      <path class="v" d="M286.47,229.12c-2.34-2.55-4.9-5.44-5.5-8.97-.64-3.77,1.53-7.44,2.17-11.08,1.24-7.05-.29-14.46-4.31-20.39-1.08-1.59-3.68-.09-2.59,1.51,4.14,6.11,5.42,13.8,3.34,20.9-1.07,3.66-2.37,7.18-1.22,11.01,1.06,3.55,3.53,6.46,5.99,9.13,1.31,1.43,3.43-.7,2.12-2.12h0Z"/>
      <circle class="r" cx="285.43" cy="238.71" r="8.16"/>
      <path class="v" d="M163.92,231.71c.92-3.37,1.33-6.88,1.1-10.36s-1.05-7.11-1.7-10.64-1.17-6.99-.56-10.45,2.37-6.53,4.2-9.5c1.02-1.65-1.58-3.15-2.59-1.51-1.84,2.98-3.63,6.1-4.38,9.55s-.5,6.97.04,10.44,1.49,7.12,1.87,10.74.11,7.35-.87,10.93c-.51,1.86,2.38,2.66,2.89.8h0Z"/>
      <path class="v" d="M162.07,229.12c-2.34-2.55-4.9-5.44-5.5-8.97-.64-3.77,1.53-7.44,2.17-11.08,1.24-7.05-.29-14.46-4.31-20.39-1.08-1.59-3.68-.09-2.59,1.51,4.14,6.11,5.42,13.8,3.34,20.9-1.07,3.66-2.37,7.18-1.22,11.01,1.06,3.55,3.53,6.46,5.99,9.13,1.31,1.43,3.43-.7,2.12-2.12h0Z"/>
      <circle class="r" cx="161.03" cy="238.71" r="8.16"/>
      <path class="v" d="M110.61,231.71c.92-3.37,1.33-6.88,1.1-10.36s-1.05-7.11-1.7-10.64-1.17-6.99-.56-10.45,2.37-6.53,4.2-9.5c1.02-1.65-1.58-3.15-2.59-1.51-1.84,2.98-3.63,6.1-4.38,9.55s-.5,6.97.04,10.44,1.49,7.12,1.87,10.74.11,7.35-.87,10.93c-.51,1.86,2.38,2.66,2.89.8h0Z"/>
      <path class="v" d="M108.76,229.12c-2.34-2.55-4.9-5.44-5.5-8.97-.64-3.77,1.53-7.44,2.17-11.08,1.24-7.05-.29-14.46-4.31-20.39-1.08-1.59-3.68-.09-2.59,1.51,4.14,6.11,5.42,13.8,3.34,20.9-1.07,3.66-2.37,7.18-1.22,11.01,1.06,3.55,3.53,6.46,5.99,9.13,1.31,1.43,3.43-.7,2.12-2.12h0Z"/>
      <circle class="r" cx="107.72" cy="238.71" r="8.16"/>
      <path class="v" d="M57.3,231.71c.92-3.37,1.33-6.88,1.1-10.36s-1.05-7.11-1.7-10.64-1.17-6.99-.56-10.45,2.37-6.53,4.2-9.5c1.02-1.65-1.58-3.15-2.59-1.51-1.84,2.98-3.63,6.1-4.38,9.55s-.5,6.97.04,10.44,1.49,7.12,1.87,10.74.11,7.35-.87,10.93c-.51,1.86,2.38,2.66,2.89.8h0Z"/>
      <path class="v" d="M55.44,229.12c-2.34-2.55-4.9-5.44-5.5-8.97-.64-3.77,1.53-7.44,2.17-11.08,1.24-7.05-.29-14.46-4.31-20.39-1.08-1.59-3.68-.09-2.59,1.51,4.14,6.11,5.42,13.8,3.34,20.9-1.07,3.66-2.37,7.18-1.22,11.01,1.06,3.55,3.53,6.46,5.99,9.13,1.31,1.43,3.43-.7,2.12-2.12h0Z"/>
      <circle class="r" cx="54.41" cy="238.71" r="8.16"/>
      <path class="v" d="M76.32,231.71c.46-1.78.44-3.59.46-5.41,0-.91.02-1.82.2-2.71.21-1.03.67-1.99,1.03-2.98,1.19-3.3,1.93-6.83,1.89-10.34-.04-2.74-.56-5.45-1.68-7.96-.43-.97-.95-1.89-1.58-2.74-.29-.4-.6-.78-.92-1.15-.24-.27-.82-.65-.92-.99-.26-.85,1.16-2.37,1.62-2.94,1-1.23,2.08-2.4,2.94-3.73,1.05-1.63-1.55-3.13-2.59-1.51-1.46,2.27-3.8,4.06-4.72,6.67-.42,1.21-.31,2.51.5,3.53.59.73,1.29,1.33,1.82,2.11,3.27,4.84,2.94,11.14,1.32,16.5-.65,2.14-1.64,4.1-1.84,6.36s.12,4.37-.43,6.5c-.48,1.87,2.41,2.67,2.89.8h0Z"/>
      <path class="v" d="M74.47,229.12c-2.18-2.44-2.21-5.39-2.24-8.5-.02-1.75-.27-3.29-.8-4.96-.56-1.76-1.04-3.19-.61-5.02.67-2.91.45-5.77-1.05-8.38s-3.9-4.99-5.7-7.57c-1.1-1.57-3.7-.07-2.59,1.51,1.82,2.61,4.22,4.91,5.77,7.7.62,1.11.96,2.3.96,3.57,0,1.7-.75,3.31-.63,5.01.13,1.78.83,3.41,1.3,5.12.45,1.61.32,3.24.37,4.89.1,3.32.85,6.22,3.1,8.75,1.29,1.44,3.4-.68,2.12-2.12h0Z"/>
      <circle class="r" cx="73.43" cy="238.71" r="8.16"/>
      <path class="v" d="M182.95,231.71c.46-1.78.44-3.59.46-5.41,0-.91.02-1.82.2-2.71.21-1.03.67-1.99,1.03-2.98,1.19-3.3,1.93-6.83,1.89-10.34-.04-2.74-.56-5.45-1.68-7.96-.43-.97-.95-1.89-1.58-2.74-.29-.4-.6-.78-.92-1.15-.24-.27-.82-.65-.92-.99-.26-.85,1.16-2.37,1.62-2.94,1-1.23,2.08-2.4,2.94-3.73,1.05-1.63-1.55-3.13-2.59-1.51-1.46,2.27-3.8,4.06-4.72,6.67-.42,1.21-.31,2.51.5,3.53.59.73,1.29,1.33,1.82,2.11,3.27,4.84,2.94,11.14,1.32,16.5-.65,2.14-1.64,4.1-1.84,6.36s.12,4.37-.43,6.5c-.48,1.87,2.41,2.67,2.89.8h0Z"/>
      <path class="v" d="M181.09,229.12c-2.18-2.44-2.21-5.39-2.24-8.5-.02-1.75-.27-3.29-.8-4.96-.56-1.76-1.04-3.19-.61-5.02.67-2.91.45-5.77-1.05-8.38s-3.9-4.99-5.7-7.57c-1.1-1.57-3.7-.07-2.59,1.51,1.82,2.61,4.22,4.91,5.77,7.7.62,1.11.96,2.3.96,3.57,0,1.7-.75,3.31-.63,5.01.13,1.78.83,3.41,1.3,5.12.45,1.61.32,3.24.37,4.89.1,3.32.85,6.22,3.1,8.75,1.29,1.44,3.4-.68,2.12-2.12h0Z"/>
      <circle class="r" cx="180.06" cy="238.71" r="8.16"/>
      <path class="v" d="M236.26,231.71c.46-1.78.44-3.59.46-5.41,0-.91.02-1.82.2-2.71.21-1.03.67-1.99,1.03-2.98,1.19-3.3,1.93-6.83,1.89-10.34-.04-2.74-.56-5.45-1.68-7.96-.43-.97-.95-1.89-1.58-2.74-.29-.4-.6-.78-.92-1.15-.24-.27-.82-.65-.92-.99-.26-.85,1.16-2.37,1.62-2.94,1-1.23,2.08-2.4,2.94-3.73,1.05-1.63-1.55-3.13-2.59-1.51-1.46,2.27-3.8,4.06-4.72,6.67-.42,1.21-.31,2.51.5,3.53.59.73,1.29,1.33,1.82,2.11,3.27,4.84,2.94,11.14,1.32,16.5-.65,2.14-1.64,4.1-1.84,6.36s.12,4.37-.43,6.5c-.48,1.87,2.41,2.67,2.89.8h0Z"/>
      <path class="v" d="M234.41,229.12c-2.18-2.44-2.21-5.39-2.24-8.5-.02-1.75-.27-3.29-.8-4.96-.56-1.76-1.04-3.19-.61-5.02.67-2.91.45-5.77-1.05-8.38s-3.9-4.99-5.7-7.57c-1.1-1.57-3.7-.07-2.59,1.51,1.82,2.61,4.22,4.91,5.77,7.7.62,1.11.96,2.3.96,3.57,0,1.7-.75,3.31-.63,5.01.13,1.78.83,3.41,1.3,5.12.45,1.61.32,3.24.37,4.89.1,3.32.85,6.22,3.1,8.75,1.29,1.44,3.4-.68,2.12-2.12h0Z"/>
      <circle class="r" cx="233.37" cy="238.71" r="8.16"/>
      <path class="v" d="M307.34,231.71c.46-1.78.44-3.59.46-5.41,0-.91.02-1.82.2-2.71.21-1.03.67-1.99,1.03-2.98,1.19-3.3,1.93-6.83,1.89-10.34-.04-2.74-.56-5.45-1.68-7.96-.43-.97-.95-1.89-1.58-2.74-.29-.4-.6-.78-.92-1.15-.24-.27-.82-.65-.92-.99-.26-.85,1.16-2.37,1.62-2.94,1-1.23,2.08-2.4,2.94-3.73,1.05-1.63-1.55-3.13-2.59-1.51-1.46,2.27-3.8,4.06-4.72,6.67-.42,1.21-.31,2.51.5,3.53.59.73,1.29,1.33,1.82,2.11,3.27,4.84,2.94,11.14,1.32,16.5-.65,2.14-1.64,4.1-1.84,6.36s.12,4.37-.43,6.5c-.48,1.87,2.41,2.67,2.89.8h0Z"/>
      <path class="v" d="M305.49,229.12c-2.18-2.44-2.21-5.39-2.24-8.5-.02-1.75-.27-3.29-.8-4.96-.56-1.76-1.04-3.19-.61-5.02.67-2.91.45-5.77-1.05-8.38s-3.9-4.99-5.7-7.57c-1.1-1.57-3.7-.07-2.59,1.51,1.82,2.61,4.22,4.91,5.77,7.7.62,1.11.96,2.3.96,3.57,0,1.7-.75,3.31-.63,5.01.13,1.78.83,3.41,1.3,5.12.45,1.61.32,3.24.37,4.89.1,3.32.85,6.22,3.1,8.75,1.29,1.44,3.4-.68,2.12-2.12h0Z"/>
      <circle class="r" cx="304.46" cy="238.71" r="8.16"/>
      <path class="v" d="M449.51,231.71c.46-1.78.44-3.59.46-5.41,0-.91.02-1.82.2-2.71.21-1.03.67-1.99,1.03-2.98,1.19-3.3,1.93-6.83,1.89-10.34-.04-2.74-.56-5.45-1.68-7.96-.43-.97-.95-1.89-1.58-2.74-.29-.4-.6-.78-.92-1.15-.24-.27-.82-.65-.92-.99-.26-.85,1.16-2.37,1.62-2.94,1-1.23,2.08-2.4,2.94-3.73,1.05-1.63-1.55-3.13-2.59-1.51-1.46,2.27-3.8,4.06-4.72,6.67-.42,1.21-.31,2.51.5,3.53.59.73,1.29,1.33,1.82,2.11,3.27,4.84,2.94,11.14,1.32,16.5-.65,2.14-1.64,4.1-1.84,6.36s.12,4.37-.43,6.5c-.48,1.87,2.41,2.67,2.89.8h0Z"/>
      <path class="v" d="M447.66,229.12c-2.18-2.44-2.21-5.39-2.24-8.5-.02-1.75-.27-3.29-.8-4.96-.56-1.76-1.04-3.19-.61-5.02.67-2.91.45-5.77-1.05-8.38s-3.9-4.99-5.7-7.57c-1.1-1.57-3.7-.07-2.59,1.51,1.82,2.61,4.22,4.91,5.77,7.7.62,1.11.96,2.3.96,3.57,0,1.7-.75,3.31-.63,5.01.13,1.78.83,3.41,1.3,5.12.45,1.61.32,3.24.37,4.89.1,3.32.85,6.22,3.1,8.75,1.29,1.44,3.4-.68,2.12-2.12h0Z"/>
      <circle class="r" cx="446.62" cy="238.71" r="8.16"/>
      <path class="v" d="M520.6,231.71c.46-1.78.44-3.59.46-5.41,0-.91.02-1.82.2-2.71.21-1.03.67-1.99,1.03-2.98,1.19-3.3,1.93-6.83,1.89-10.34-.04-2.74-.56-5.45-1.68-7.96-.43-.97-.95-1.89-1.58-2.74-.29-.4-.6-.78-.92-1.15-.24-.27-.82-.65-.92-.99-.26-.85,1.16-2.37,1.62-2.94,1-1.23,2.08-2.4,2.94-3.73,1.05-1.63-1.55-3.13-2.59-1.51-1.46,2.27-3.8,4.06-4.72,6.67-.42,1.21-.31,2.51.5,3.53.59.73,1.29,1.33,1.82,2.11,3.27,4.84,2.94,11.14,1.32,16.5-.65,2.14-1.64,4.1-1.84,6.36s.12,4.37-.43,6.5c-.48,1.87,2.41,2.67,2.89.8h0Z"/>
      <path class="v" d="M518.74,229.12c-2.18-2.44-2.21-5.39-2.24-8.5-.02-1.75-.27-3.29-.8-4.96-.56-1.76-1.04-3.19-.61-5.02.67-2.91.45-5.77-1.05-8.38s-3.9-4.99-5.7-7.57c-1.1-1.57-3.7-.07-2.59,1.51,1.82,2.61,4.22,4.91,5.77,7.7.62,1.11.96,2.3.96,3.57,0,1.7-.75,3.31-.63,5.01.13,1.78.83,3.41,1.3,5.12.45,1.61.32,3.24.37,4.89.1,3.32.85,6.22,3.1,8.75,1.29,1.44,3.4-.68,2.12-2.12h0Z"/>
      <circle class="r" cx="517.71" cy="238.71" r="8.16"/>
      <path class="v" d="M23.01,231.71c.46-1.78.44-3.59.46-5.41,0-.91.02-1.82.2-2.71.21-1.03.67-1.99,1.03-2.98,1.19-3.3,1.93-6.83,1.89-10.34-.04-2.74-.56-5.45-1.68-7.96-.43-.97-.95-1.89-1.58-2.74-.29-.4-.6-.78-.92-1.15-.24-.27-.82-.65-.92-.99-.26-.85,1.16-2.37,1.62-2.94,1-1.23,2.08-2.4,2.94-3.73,1.05-1.63-1.55-3.13-2.59-1.51-1.46,2.27-3.8,4.06-4.72,6.67-.42,1.21-.31,2.51.5,3.53.59.73,1.29,1.33,1.82,2.11,3.27,4.84,2.94,11.14,1.32,16.5-.65,2.14-1.64,4.1-1.84,6.36s.12,4.37-.43,6.5c-.48,1.87,2.41,2.67,2.89.8h0Z"/>
      <path class="v" d="M21.15,229.12c-2.18-2.44-2.21-5.39-2.24-8.5-.02-1.75-.27-3.29-.8-4.96-.56-1.76-1.04-3.19-.61-5.02.67-2.91.45-5.77-1.05-8.38s-3.9-4.99-5.7-7.57c-1.1-1.57-3.7-.07-2.59,1.51,1.82,2.61,4.22,4.91,5.77,7.7.62,1.11.96,2.3.96,3.57,0,1.7-.75,3.31-.63,5.01.13,1.78.83,3.41,1.3,5.12.45,1.61.32,3.24.37,4.89.1,3.32.85,6.22,3.1,8.75,1.29,1.44,3.4-.68,2.12-2.12h0Z"/>
      <circle class="r" cx="20.12" cy="238.71" r="8.16"/>
      <path class="v" d="M147.4,231.71c.46-1.78.44-3.59.46-5.41,0-.91.02-1.82.2-2.71.21-1.03.67-1.99,1.03-2.98,1.19-3.3,1.93-6.83,1.89-10.34-.04-2.74-.56-5.45-1.68-7.96-.43-.97-.95-1.89-1.58-2.74-.29-.4-.6-.78-.92-1.15-.24-.27-.82-.65-.92-.99-.26-.85,1.16-2.37,1.62-2.94,1-1.23,2.08-2.4,2.94-3.73,1.05-1.63-1.55-3.13-2.59-1.51-1.46,2.27-3.8,4.06-4.72,6.67-.42,1.21-.31,2.51.5,3.53.59.73,1.29,1.33,1.82,2.11,3.27,4.84,2.94,11.14,1.32,16.5-.65,2.14-1.64,4.1-1.84,6.36s.12,4.37-.43,6.5c-.48,1.87,2.41,2.67,2.89.8h0Z"/>
      <path class="v" d="M145.55,229.12c-2.18-2.44-2.21-5.39-2.24-8.5-.02-1.75-.27-3.29-.8-4.96-.56-1.76-1.04-3.19-.61-5.02.67-2.91.45-5.77-1.05-8.38s-3.9-4.99-5.7-7.57c-1.1-1.57-3.7-.07-2.59,1.51,1.82,2.61,4.22,4.91,5.77,7.7.62,1.11.96,2.3.96,3.57,0,1.7-.75,3.31-.63,5.01.13,1.78.83,3.41,1.3,5.12.45,1.61.32,3.24.37,4.89.1,3.32.85,6.22,3.1,8.75,1.29,1.44,3.4-.68,2.12-2.12h0Z"/>
      <circle class="r" cx="144.52" cy="238.71" r="8.16"/>
      <path class="v" d="M128.91,231.71c.51-2,.45-4.02.52-6.06.07-2.19.82-4.03,1.44-6.1.94-3.15,1.55-6.51,1.32-9.81-.16-2.34-.74-4.56-1.7-6.7-.66-1.46-1.54-2.79-2.27-4.2-.3-.57-.35-.51-.42-1.11-.09-.79.33-1.58.72-2.24,1-1.68,2.38-3.09,3.44-4.73s-1.55-3.14-2.59-1.51c-1.71,2.67-4.9,5.28-4.53,8.77.19,1.71,1.31,3.22,2.12,4.69,2.48,4.47,2.72,9.27,1.52,14.2-.56,2.29-1.61,4.47-1.91,6.81s.05,4.85-.56,7.2c-.48,1.87,2.41,2.67,2.89.8h0Z"/>
      <path class="v" d="M125.74,228.68c-2.62-2.88-4.85-6.4-6.36-9.99-.36-.85-.66-1.73-.88-2.63-.1-.43-.41-1.42-.13-1.82.18-.26,1.06-.45,1.33-.58.67-.3,1.29-.71,1.7-1.34.56-.87.57-1.85.62-2.85.06-1.31.12-2.62.17-3.93.07-2.08.12-4.16.08-6.23-.05-2.49-.12-5.19-1.01-7.56-.69-1.83-1.92-3.21-3.7-4.04s-3.26,1.77-1.51,2.59c.32.15.62.31.92.5.09.05.44.32.15.09.14.12.28.24.41.37.39.36.2.13.44.55.27.45.34.6.45.88.84,2.33.85,4.93.87,7.37.02,2.1-.04,4.21-.12,6.31-.03.65-.05,1.31-.08,1.96-.02.53.11,1.64-.1,2.11-.18.39-.4.47-.81.65-1.52.67-2.74,1.43-2.86,3.26-.11,1.7.51,3.5,1.14,5.05,1.67,4.14,4.17,8.12,7.17,11.42,1.3,1.43,3.42-.7,2.12-2.12h0Z"/>
      <circle class="r" cx="126.03" cy="238.71" r="8.16"/>
      <path class="v" d="M93.37,231.71c.51-2,.45-4.02.52-6.06.07-2.19.82-4.03,1.44-6.1.94-3.15,1.55-6.51,1.32-9.81-.16-2.34-.74-4.56-1.7-6.7-.66-1.46-1.54-2.79-2.27-4.2-.3-.57-.35-.51-.42-1.11-.09-.79.33-1.58.72-2.24,1-1.68,2.38-3.09,3.44-4.73s-1.55-3.14-2.59-1.51c-1.71,2.67-4.9,5.28-4.53,8.77.19,1.71,1.31,3.22,2.12,4.69,2.48,4.47,2.72,9.27,1.52,14.2-.56,2.29-1.61,4.47-1.91,6.81s.05,4.85-.56,7.2c-.48,1.87,2.41,2.67,2.89.8h0Z"/>
      <path class="v" d="M90.19,228.68c-2.62-2.88-4.85-6.4-6.36-9.99-.36-.85-.66-1.73-.88-2.63-.1-.43-.41-1.42-.13-1.82.18-.26,1.06-.45,1.33-.58.67-.3,1.29-.71,1.7-1.34.56-.87.57-1.85.62-2.85.06-1.31.12-2.62.17-3.93.07-2.08.12-4.16.08-6.23-.05-2.49-.12-5.19-1.01-7.56-.69-1.83-1.92-3.21-3.7-4.04s-3.26,1.77-1.51,2.59c.32.15.62.31.92.5.09.05.44.32.15.09.14.12.28.24.41.37.39.36.2.13.44.55.27.45.34.6.45.88.84,2.33.85,4.93.87,7.37.02,2.1-.04,4.21-.12,6.31-.03.65-.05,1.31-.08,1.96-.02.53.11,1.64-.1,2.11-.18.39-.4.47-.81.65-1.52.67-2.74,1.43-2.86,3.26-.11,1.7.51,3.5,1.14,5.05,1.67,4.14,4.17,8.12,7.17,11.42,1.3,1.43,3.42-.7,2.12-2.12h0Z"/>
      <circle class="r" cx="90.48" cy="238.71" r="8.16"/>
      <path class="v" d="M40.06,231.71c.51-2,.45-4.02.52-6.06.07-2.19.82-4.03,1.44-6.1.94-3.15,1.55-6.51,1.32-9.81-.16-2.34-.74-4.56-1.7-6.7-.66-1.46-1.54-2.79-2.27-4.2-.3-.57-.35-.51-.42-1.11-.09-.79.33-1.58.72-2.24,1-1.68,2.38-3.09,3.44-4.73s-1.55-3.14-2.59-1.51c-1.71,2.67-4.9,5.28-4.53,8.77.19,1.71,1.31,3.22,2.12,4.69,2.48,4.47,2.72,9.27,1.52,14.2-.56,2.29-1.61,4.47-1.91,6.81s.05,4.85-.56,7.2c-.48,1.87,2.41,2.67,2.89.8h0Z"/>
      <path class="v" d="M36.88,228.68c-2.62-2.88-4.85-6.4-6.36-9.99-.36-.85-.66-1.73-.88-2.63-.1-.43-.41-1.42-.13-1.82.18-.26,1.06-.45,1.33-.58.67-.3,1.29-.71,1.7-1.34.56-.87.57-1.85.62-2.85.06-1.31.12-2.62.17-3.93.07-2.08.12-4.16.08-6.23-.05-2.49-.12-5.19-1.01-7.56-.69-1.83-1.92-3.21-3.7-4.04s-3.26,1.77-1.51,2.59c.32.15.62.31.92.5.09.05.44.32.15.09.14.12.28.24.41.37.39.36.2.13.44.55.27.45.34.6.45.88.84,2.33.85,4.93.87,7.37.02,2.1-.04,4.21-.12,6.31-.03.65-.05,1.31-.08,1.96-.02.53.11,1.64-.1,2.11-.18.39-.4.47-.81.65-1.52.67-2.74,1.43-2.86,3.26-.11,1.7.51,3.5,1.14,5.05,1.67,4.14,4.17,8.12,7.17,11.42,1.3,1.43,3.42-.7,2.12-2.12h0Z"/>
      <circle class="r" cx="37.17" cy="238.71" r="8.16"/>
      <path class="v" d="M253.31,231.71c.51-2,.45-4.02.52-6.06.07-2.19.82-4.03,1.44-6.1.94-3.15,1.55-6.51,1.32-9.81-.16-2.34-.74-4.56-1.7-6.7-.66-1.46-1.54-2.79-2.27-4.2-.3-.57-.35-.51-.42-1.11-.09-.79.33-1.58.72-2.24,1-1.68,2.38-3.09,3.44-4.73s-1.55-3.14-2.59-1.51c-1.71,2.67-4.9,5.28-4.53,8.77.19,1.71,1.31,3.22,2.12,4.69,2.48,4.47,2.72,9.27,1.52,14.2-.56,2.29-1.61,4.47-1.91,6.81s.05,4.85-.56,7.2c-.48,1.87,2.41,2.67,2.89.8h0Z"/>
      <path class="v" d="M250.13,228.68c-2.62-2.88-4.85-6.4-6.36-9.99-.36-.85-.66-1.73-.88-2.63-.1-.43-.41-1.42-.13-1.82.18-.26,1.06-.45,1.33-.58.67-.3,1.29-.71,1.7-1.34.56-.87.57-1.85.62-2.85.06-1.31.12-2.62.17-3.93.07-2.08.12-4.16.08-6.23-.05-2.49-.12-5.19-1.01-7.56-.69-1.83-1.92-3.21-3.7-4.04s-3.26,1.77-1.51,2.59c.32.15.62.31.92.5.09.05.44.32.15.09.14.12.28.24.41.37.39.36.2.13.44.55.27.45.34.6.45.88.84,2.33.85,4.93.87,7.37.02,2.1-.04,4.21-.12,6.31-.03.65-.05,1.31-.08,1.96-.02.53.11,1.64-.1,2.11-.18.39-.4.47-.81.65-1.52.67-2.74,1.43-2.86,3.26-.11,1.7.51,3.5,1.14,5.05,1.67,4.14,4.17,8.12,7.17,11.42,1.3,1.43,3.42-.7,2.12-2.12h0Z"/>
      <circle class="r" cx="250.42" cy="238.71" r="8.16"/>
      <path class="v" d="M271.08,231.71c.51-2,.45-4.02.52-6.06.07-2.19.82-4.03,1.44-6.1.94-3.15,1.55-6.51,1.32-9.81-.16-2.34-.74-4.56-1.7-6.7-.66-1.46-1.54-2.79-2.27-4.2-.3-.57-.35-.51-.42-1.11-.09-.79.33-1.58.72-2.24,1-1.68,2.38-3.09,3.44-4.73s-1.55-3.14-2.59-1.51c-1.71,2.67-4.9,5.28-4.53,8.77.19,1.71,1.31,3.22,2.12,4.69,2.48,4.47,2.72,9.27,1.52,14.2-.56,2.29-1.61,4.47-1.91,6.81s.05,4.85-.56,7.2c-.48,1.87,2.41,2.67,2.89.8h0Z"/>
      <path class="v" d="M267.9,228.68c-2.62-2.88-4.85-6.4-6.36-9.99-.36-.85-.66-1.73-.88-2.63-.1-.43-.41-1.42-.13-1.82.18-.26,1.06-.45,1.33-.58.67-.3,1.29-.71,1.7-1.34.56-.87.57-1.85.62-2.85.06-1.31.12-2.62.17-3.93.07-2.08.12-4.16.08-6.23-.05-2.49-.12-5.19-1.01-7.56-.69-1.83-1.92-3.21-3.7-4.04s-3.26,1.77-1.51,2.59c.32.15.62.31.92.5.09.05.44.32.15.09.14.12.28.24.41.37.39.36.2.13.44.55.27.45.34.6.45.88.84,2.33.85,4.93.87,7.37.02,2.1-.04,4.21-.12,6.31-.03.65-.05,1.31-.08,1.96-.02.53.11,1.64-.1,2.11-.18.39-.4.47-.81.65-1.52.67-2.74,1.43-2.86,3.26-.11,1.7.51,3.5,1.14,5.05,1.67,4.14,4.17,8.12,7.17,11.42,1.3,1.43,3.42-.7,2.12-2.12h0Z"/>
      <circle class="r" cx="268.19" cy="238.71" r="8.16"/>
      <path class="v" d="M359.94,231.71c.51-2,.45-4.02.52-6.06.07-2.19.82-4.03,1.44-6.1.94-3.15,1.55-6.51,1.32-9.81-.16-2.34-.74-4.56-1.7-6.7-.66-1.46-1.54-2.79-2.27-4.2-.3-.57-.35-.51-.42-1.11-.09-.79.33-1.58.72-2.24,1-1.68,2.38-3.09,3.44-4.73s-1.55-3.14-2.59-1.51c-1.71,2.67-4.9,5.28-4.53,8.77.19,1.71,1.31,3.22,2.12,4.69,2.48,4.47,2.72,9.27,1.52,14.2-.56,2.29-1.61,4.47-1.91,6.81s.05,4.85-.56,7.2c-.48,1.87,2.41,2.67,2.89.8h0Z"/>
      <path class="v" d="M356.76,228.68c-2.62-2.88-4.85-6.4-6.36-9.99-.36-.85-.66-1.73-.88-2.63-.1-.43-.41-1.42-.13-1.82.18-.26,1.06-.45,1.33-.58.67-.3,1.29-.71,1.7-1.34.56-.87.57-1.85.62-2.85.06-1.31.12-2.62.17-3.93.07-2.08.12-4.16.08-6.23-.05-2.49-.12-5.19-1.01-7.56-.69-1.83-1.92-3.21-3.7-4.04s-3.26,1.77-1.51,2.59c.32.15.62.31.92.5.09.05.44.32.15.09.14.12.28.24.41.37.39.36.2.13.44.55.27.45.34.6.45.88.84,2.33.85,4.93.87,7.37.02,2.1-.04,4.21-.12,6.31-.03.65-.05,1.31-.08,1.96-.02.53.11,1.64-.1,2.11-.18.39-.4.47-.81.65-1.52.67-2.74,1.43-2.86,3.26-.11,1.7.51,3.5,1.14,5.05,1.67,4.14,4.17,8.12,7.17,11.42,1.3,1.43,3.42-.7,2.12-2.12h0Z"/>
      <circle class="r" cx="357.05" cy="238.71" r="8.16"/>
      <path class="v" d="M395.48,231.71c.51-2,.45-4.02.52-6.06.07-2.19.82-4.03,1.44-6.1.94-3.15,1.55-6.51,1.32-9.81-.16-2.34-.74-4.56-1.7-6.7-.66-1.46-1.54-2.79-2.27-4.2-.3-.57-.35-.51-.42-1.11-.09-.79.33-1.58.72-2.24,1-1.68,2.38-3.09,3.44-4.73s-1.55-3.14-2.59-1.51c-1.71,2.67-4.9,5.28-4.53,8.77.19,1.71,1.31,3.22,2.12,4.69,2.48,4.47,2.72,9.27,1.52,14.2-.56,2.29-1.61,4.47-1.91,6.81s.05,4.85-.56,7.2c-.48,1.87,2.41,2.67,2.89.8h0Z"/>
      <path class="v" d="M392.3,228.68c-2.62-2.88-4.85-6.4-6.36-9.99-.36-.85-.66-1.73-.88-2.63-.1-.43-.41-1.42-.13-1.82.18-.26,1.06-.45,1.33-.58.67-.3,1.29-.71,1.7-1.34.56-.87.57-1.85.62-2.85.06-1.31.12-2.62.17-3.93.07-2.08.12-4.16.08-6.23-.05-2.49-.12-5.19-1.01-7.56-.69-1.83-1.92-3.21-3.7-4.04s-3.26,1.77-1.51,2.59c.32.15.62.31.92.5.09.05.44.32.15.09.14.12.28.24.41.37.39.36.2.13.44.55.27.45.34.6.45.88.84,2.33.85,4.93.87,7.37.02,2.1-.04,4.21-.12,6.31-.03.65-.05,1.31-.08,1.96-.02.53.11,1.64-.1,2.11-.18.39-.4.47-.81.65-1.52.67-2.74,1.43-2.86,3.26-.11,1.7.51,3.5,1.14,5.05,1.67,4.14,4.17,8.12,7.17,11.42,1.3,1.43,3.42-.7,2.12-2.12h0Z"/>
      <circle class="r" cx="392.59" cy="238.71" r="8.16"/>
      <path class="v" d="M431.02,231.71c.51-2,.45-4.02.52-6.06.07-2.19.82-4.03,1.44-6.1.94-3.15,1.55-6.51,1.32-9.81-.16-2.34-.74-4.56-1.7-6.7-.66-1.46-1.54-2.79-2.27-4.2-.3-.57-.35-.51-.42-1.11-.09-.79.33-1.58.72-2.24,1-1.68,2.38-3.09,3.44-4.73s-1.55-3.14-2.59-1.51c-1.71,2.67-4.9,5.28-4.53,8.77.19,1.71,1.31,3.22,2.12,4.69,2.48,4.47,2.72,9.27,1.52,14.2-.56,2.29-1.61,4.47-1.91,6.81s.05,4.85-.56,7.2c-.48,1.87,2.41,2.67,2.89.8h0Z"/>
      <path class="v" d="M427.84,228.68c-2.62-2.88-4.85-6.4-6.36-9.99-.36-.85-.66-1.73-.88-2.63-.1-.43-.41-1.42-.13-1.82.18-.26,1.06-.45,1.33-.58.67-.3,1.29-.71,1.7-1.34.56-.87.57-1.85.62-2.85.06-1.31.12-2.62.17-3.93.07-2.08.12-4.16.08-6.23-.05-2.49-.12-5.19-1.01-7.56-.69-1.83-1.92-3.21-3.7-4.04s-3.26,1.77-1.51,2.59c.32.15.62.31.92.5.09.05.44.32.15.09.14.12.28.24.41.37.39.36.2.13.44.55.27.45.34.6.45.88.84,2.33.85,4.93.87,7.37.02,2.1-.04,4.21-.12,6.31-.03.65-.05,1.31-.08,1.96-.02.53.11,1.64-.1,2.11-.18.39-.4.47-.81.65-1.52.67-2.74,1.43-2.86,3.26-.11,1.7.51,3.5,1.14,5.05,1.67,4.14,4.17,8.12,7.17,11.42,1.3,1.43,3.42-.7,2.12-2.12h0Z"/>
      <circle class="r" cx="428.13" cy="238.71" r="8.16"/>
      <path class="v" d="M466.56,231.71c.51-2,.45-4.02.52-6.06.07-2.19.82-4.03,1.44-6.1.94-3.15,1.55-6.51,1.32-9.81-.16-2.34-.74-4.56-1.7-6.7-.66-1.46-1.54-2.79-2.27-4.2-.3-.57-.35-.51-.42-1.11-.09-.79.33-1.58.72-2.24,1-1.68,2.38-3.09,3.44-4.73s-1.55-3.14-2.59-1.51c-1.71,2.67-4.9,5.28-4.53,8.77.19,1.71,1.31,3.22,2.12,4.69,2.48,4.47,2.72,9.27,1.52,14.2-.56,2.29-1.61,4.47-1.91,6.81s.05,4.85-.56,7.2c-.48,1.87,2.41,2.67,2.89.8h0Z"/>
      <path class="v" d="M463.38,228.68c-2.62-2.88-4.85-6.4-6.36-9.99-.36-.85-.66-1.73-.88-2.63-.1-.43-.41-1.42-.13-1.82.18-.26,1.06-.45,1.33-.58.67-.3,1.29-.71,1.7-1.34.56-.87.57-1.85.62-2.85.06-1.31.12-2.62.17-3.93.07-2.08.12-4.16.08-6.23-.05-2.49-.12-5.19-1.01-7.56-.69-1.83-1.92-3.21-3.7-4.04s-3.26,1.77-1.51,2.59c.32.15.62.31.92.5.09.05.44.32.15.09.14.12.28.24.41.37.39.36.2.13.44.55.27.45.34.6.45.88.84,2.33.85,4.93.87,7.37.02,2.1-.04,4.21-.12,6.31-.03.65-.05,1.31-.08,1.96-.02.53.11,1.64-.1,2.11-.18.39-.4.47-.81.65-1.52.67-2.74,1.43-2.86,3.26-.11,1.7.51,3.5,1.14,5.05,1.67,4.14,4.17,8.12,7.17,11.42,1.3,1.43,3.42-.7,2.12-2.12h0Z"/>
      <circle class="r" cx="463.67" cy="238.71" r="8.16"/>
      <path class="v" d="M537.65,231.71c.51-2,.45-4.02.52-6.06.07-2.19.82-4.03,1.44-6.1.94-3.15,1.55-6.51,1.32-9.81-.16-2.34-.74-4.56-1.7-6.7-.66-1.46-1.54-2.79-2.27-4.2-.3-.57-.35-.51-.42-1.11-.09-.79.33-1.58.72-2.24,1-1.68,2.38-3.09,3.44-4.73s-1.55-3.14-2.59-1.51c-1.71,2.67-4.9,5.28-4.53,8.77.19,1.71,1.31,3.22,2.12,4.69,2.48,4.47,2.72,9.27,1.52,14.2-.56,2.29-1.61,4.47-1.91,6.81s.05,4.85-.56,7.2c-.48,1.87,2.41,2.67,2.89.8h0Z"/>
      <path class="v" d="M534.47,228.68c-2.62-2.88-4.85-6.4-6.36-9.99-.36-.85-.66-1.73-.88-2.63-.1-.43-.41-1.42-.13-1.82.18-.26,1.06-.45,1.33-.58.67-.3,1.29-.71,1.7-1.34.56-.87.57-1.85.62-2.85.06-1.31.12-2.62.17-3.93.07-2.08.12-4.16.08-6.23-.05-2.49-.12-5.19-1.01-7.56-.69-1.83-1.92-3.21-3.7-4.04s-3.26,1.77-1.51,2.59c.32.15.62.31.92.5.09.05.44.32.15.09.14.12.28.24.41.37.39.36.2.13.44.55.27.45.34.6.45.88.84,2.33.85,4.93.87,7.37.02,2.1-.04,4.21-.12,6.31-.03.65-.05,1.31-.08,1.96-.02.53.11,1.64-.1,2.11-.18.39-.4.47-.81.65-1.52.67-2.74,1.43-2.86,3.26-.11,1.7.51,3.5,1.14,5.05,1.67,4.14,4.17,8.12,7.17,11.42,1.3,1.43,3.42-.7,2.12-2.12h0Z"/>
      <circle class="r" cx="534.76" cy="238.71" r="8.16"/>
      <path class="v" d="M484.33,231.71c.51-2,.45-4.02.52-6.06.07-2.19.82-4.03,1.44-6.1.94-3.15,1.55-6.51,1.32-9.81-.16-2.34-.74-4.56-1.7-6.7-.66-1.46-1.54-2.79-2.27-4.2-.3-.57-.35-.51-.42-1.11-.09-.79.33-1.58.72-2.24,1-1.68,2.38-3.09,3.44-4.73s-1.55-3.14-2.59-1.51c-1.71,2.67-4.9,5.28-4.53,8.77.19,1.71,1.31,3.22,2.12,4.69,2.48,4.47,2.72,9.27,1.52,14.2-.56,2.29-1.61,4.47-1.91,6.81s.05,4.85-.56,7.2c-.48,1.87,2.41,2.67,2.89.8h0Z"/>
      <path class="v" d="M481.16,228.68c-2.62-2.88-4.85-6.4-6.36-9.99-.36-.85-.66-1.73-.88-2.63-.1-.43-.41-1.42-.13-1.82.18-.26,1.06-.45,1.33-.58.67-.3,1.29-.71,1.7-1.34.56-.87.57-1.85.62-2.85.06-1.31.12-2.62.17-3.93.07-2.08.12-4.16.08-6.23-.05-2.49-.12-5.19-1.01-7.56-.69-1.83-1.92-3.21-3.7-4.04s-3.26,1.77-1.51,2.59c.32.15.62.31.92.5.09.05.44.32.15.09.14.12.28.24.41.37.39.36.2.13.44.55.27.45.34.6.45.88.84,2.33.85,4.93.87,7.37.02,2.1-.04,4.21-.12,6.31-.03.65-.05,1.31-.08,1.96-.02.53.11,1.64-.1,2.11-.18.39-.4.47-.81.65-1.52.67-2.74,1.43-2.86,3.26-.11,1.7.51,3.5,1.14,5.05,1.67,4.14,4.17,8.12,7.17,11.42,1.3,1.43,3.42-.7,2.12-2.12h0Z"/>
      <circle class="r" cx="481.45" cy="238.71" r="8.16"/>
      <path class="v" d="M217.77,231.71c.51-2,.45-4.02.52-6.06.07-2.19.82-4.03,1.44-6.1.94-3.15,1.55-6.51,1.32-9.81-.16-2.34-.74-4.56-1.7-6.7-.66-1.46-1.54-2.79-2.27-4.2-.3-.57-.35-.51-.42-1.11-.09-.79.33-1.58.72-2.24,1-1.68,2.38-3.09,3.44-4.73s-1.55-3.14-2.59-1.51c-1.71,2.67-4.9,5.28-4.53,8.77.19,1.71,1.31,3.22,2.12,4.69,2.48,4.47,2.72,9.27,1.52,14.2-.56,2.29-1.61,4.47-1.91,6.81s.05,4.85-.56,7.2c-.48,1.87,2.41,2.67,2.89.8h0Z"/>
      <path class="v" d="M214.59,228.68c-2.62-2.88-4.85-6.4-6.36-9.99-.36-.85-.66-1.73-.88-2.63-.1-.43-.41-1.42-.13-1.82.18-.26,1.06-.45,1.33-.58.67-.3,1.29-.71,1.7-1.34.56-.87.57-1.85.62-2.85.06-1.31.12-2.62.17-3.93.07-2.08.12-4.16.08-6.23-.05-2.49-.12-5.19-1.01-7.56-.69-1.83-1.92-3.21-3.7-4.04s-3.26,1.77-1.51,2.59c.32.15.62.31.92.5.09.05.44.32.15.09.14.12.28.24.41.37.39.36.2.13.44.55.27.45.34.6.45.88.84,2.33.85,4.93.87,7.37.02,2.1-.04,4.21-.12,6.31-.03.65-.05,1.31-.08,1.96-.02.53.11,1.64-.1,2.11-.18.39-.4.47-.81.65-1.52.67-2.74,1.43-2.86,3.26-.11,1.7.51,3.5,1.14,5.05,1.67,4.14,4.17,8.12,7.17,11.42,1.3,1.43,3.42-.7,2.12-2.12h0Z"/>
      <circle class="r" cx="214.88" cy="238.71" r="8.16"/>
    </g>
    <g>
      <circle class="t" cx="193.46" cy="312.7" r="14.74"/>
      <circle class="n" cx="210.89" cy="312.7" r="14.74"/>
    </g>
    <g>
      <circle class="l" cx="448.58" cy="295.78" r="14.24"/>
      <circle class="o" cx="466.84" cy="295.95" r="16.75"/>
      <circle class="p" cx="483.76" cy="295.78" r="14.24"/>
    </g>
    <g>
      <circle class="s" cx="341.7" cy="63.79" r="28.48"/>
      <g>
        <line class="m" x1="341.7" y1="44.02" x2="341.7" y2="83.56"/>
        <line class="m" x1="322.6" y1="63.79" x2="360.81" y2="63.79"/>
      </g>
    </g>
    <g>
      <circle class="u" cx="145.74" cy="86.99" r="20.11"/>
      <g>
        <line class="m" x1="145.74" y1="73.25" x2="145.74" y2="100.72"/>
        <line class="m" x1="132.67" y1="86.99" x2="159.15" y2="86.99"/>
      </g>
    </g>
  </g>
</svg>