<?xml version="1.0" encoding="UTF-8"?>
<svg id="Layer_2" xmlns="http://www.w3.org/2000/svg" width="273" height="187.7" xmlns:xlink="http://www.w3.org/1999/xlink" viewBox="0 0 273 187.7">
  <defs>
    <style>
      .cls-1 {
        fill: url(#linear-gradient);
      }

      .cls-1, .cls-2, .cls-3, .cls-4, .cls-5, .cls-6, .cls-7, .cls-8, .cls-9, .cls-10 {
        stroke: #000;
        stroke-miterlimit: 10;
      }

      .cls-2 {
        fill: url(#linear-gradient-3);
      }

      .cls-2, .cls-3, .cls-4, .cls-6, .cls-7, .cls-8, .cls-9, .cls-10 {
        stroke-width: 2px;
      }

      .cls-3 {
        fill: url(#linear-gradient-4);
      }

      .cls-4 {
        fill: url(#linear-gradient-5);
      }

      .cls-5 {
        fill: #fbb03b;
      }

      .cls-6 {
        fill: url(#linear-gradient-2);
      }

      .cls-7 {
        fill: url(#linear-gradient-8);
      }

      .cls-11 {
        fill: #ef5ea0;
      }

      .cls-8 {
        fill: url(#linear-gradient-7);
      }

      .cls-9 {
        fill: url(#linear-gradient-6);
      }

      .cls-10 {
        fill: #231f20;
      }
    </style>
    <linearGradient id="linear-gradient" x1="136.5" y1="187.2" x2="136.5" y2=".5" gradientUnits="userSpaceOnUse">
      <stop offset="0" stop-color="#fff9f0"/>
      <stop offset=".35" stop-color="#fff9f0"/>
      <stop offset=".66" stop-color="#b8dfff"/>
      <stop offset="1" stop-color="#b8dfff"/>
    </linearGradient>
    <linearGradient id="linear-gradient-2" x1="78.86" y1="28.38" x2="93.61" y2="28.38" gradientUnits="userSpaceOnUse">
      <stop offset="0" stop-color="#fff"/>
      <stop offset=".05" stop-color="#fce0df"/>
      <stop offset=".13" stop-color="#f8b5b4"/>
      <stop offset=".21" stop-color="#f5908e"/>
      <stop offset=".3" stop-color="#f2706d"/>
      <stop offset=".4" stop-color="#f05653"/>
      <stop offset=".5" stop-color="#ef423f"/>
      <stop offset=".62" stop-color="#ed3430"/>
      <stop offset=".76" stop-color="#ed2c28"/>
      <stop offset="1" stop-color="#ed2a26"/>
    </linearGradient>
    <linearGradient id="linear-gradient-3" x1="87.57" x2="102.32" xlink:href="#linear-gradient-2"/>
    <linearGradient id="linear-gradient-4" x1="212.68" y1="24.52" x2="226.93" y2="24.52" gradientUnits="userSpaceOnUse">
      <stop offset="0" stop-color="#fff"/>
      <stop offset=".06" stop-color="#fad7d9"/>
      <stop offset=".14" stop-color="#f5acaf"/>
      <stop offset=".22" stop-color="#f18689"/>
      <stop offset=".31" stop-color="#ed656a"/>
      <stop offset=".4" stop-color="#eb4b51"/>
      <stop offset=".51" stop-color="#e8373d"/>
      <stop offset=".62" stop-color="#e7282f"/>
      <stop offset=".76" stop-color="#e62027"/>
      <stop offset="1" stop-color="#e61e25"/>
    </linearGradient>
    <linearGradient id="linear-gradient-5" x1="220.56" y1="24.61" x2="237.32" y2="24.61" gradientUnits="userSpaceOnUse">
      <stop offset="0" stop-color="#fff"/>
      <stop offset=".02" stop-color="#ececec"/>
      <stop offset=".09" stop-color="#bbb"/>
      <stop offset=".17" stop-color="#8e8e8e"/>
      <stop offset=".25" stop-color="#686868"/>
      <stop offset=".33" stop-color="#474747"/>
      <stop offset=".43" stop-color="#2d2d2d"/>
      <stop offset=".53" stop-color="#191919"/>
      <stop offset=".64" stop-color="#0a0a0a"/>
      <stop offset=".77" stop-color="#020202"/>
      <stop offset="1" stop-color="#000"/>
    </linearGradient>
    <linearGradient id="linear-gradient-6" x1="230.28" y1="24.52" x2="244.53" y2="24.52" gradientUnits="userSpaceOnUse">
      <stop offset="0" stop-color="#fff"/>
      <stop offset=".06" stop-color="#f7d9db"/>
      <stop offset=".13" stop-color="#eeaeb1"/>
      <stop offset=".22" stop-color="#e7888b"/>
      <stop offset=".31" stop-color="#e0676c"/>
      <stop offset=".4" stop-color="#db4d53"/>
      <stop offset=".5" stop-color="#d7393f"/>
      <stop offset=".62" stop-color="#d42a31"/>
      <stop offset=".76" stop-color="#d22229"/>
      <stop offset="1" stop-color="#d22027"/>
    </linearGradient>
    <linearGradient id="linear-gradient-7" x1="209.27" y1="157.23" x2="180.77" y2="157.23" gradientUnits="userSpaceOnUse">
      <stop offset="0" stop-color="#00a7d3"/>
      <stop offset=".23" stop-color="#02a7d3"/>
      <stop offset=".36" stop-color="#0aaad4"/>
      <stop offset=".47" stop-color="#19afd7"/>
      <stop offset=".57" stop-color="#2db6da"/>
      <stop offset=".67" stop-color="#47bfdf"/>
      <stop offset=".75" stop-color="#68cae4"/>
      <stop offset=".83" stop-color="#8ed8eb"/>
      <stop offset=".91" stop-color="#bbe7f3"/>
      <stop offset=".98" stop-color="#ecf8fb"/>
      <stop offset="1" stop-color="#fff"/>
    </linearGradient>
    <linearGradient id="linear-gradient-8" x1="88.74" y1="142.98" x2="108.86" y2="142.98" gradientUnits="userSpaceOnUse">
      <stop offset="0" stop-color="#fff"/>
      <stop offset=".03" stop-color="#fff9e6"/>
      <stop offset=".1" stop-color="#ffefbb"/>
      <stop offset=".17" stop-color="#ffe795"/>
      <stop offset=".24" stop-color="#ffe074"/>
      <stop offset=".32" stop-color="#ffda5a"/>
      <stop offset=".41" stop-color="#ffd546"/>
      <stop offset=".51" stop-color="#ffd237"/>
      <stop offset=".63" stop-color="#ffd02f"/>
      <stop offset=".83" stop-color="#ffd02d"/>
    </linearGradient>
  </defs>
  <g id="Layer_2-2" data-name="Layer_2">
    <rect class="cls-1" x=".5" y=".5" width="272" height="186.7"/>
    <g>
      <path class="cls-11" d="M248.76,66.26c.5,1.87.64,3.76.41,5.68-.22,1.82-.68,3.6-.95,5.41-.24,1.6-.33,3.23,0,4.83.36,1.78,1.28,3.39,2.22,4.92.51.82,1.8.07,1.3-.76-.94-1.53-1.86-3.12-2.13-4.93s.05-3.72.4-5.53c.65-3.4,1.13-6.62.21-10.03-.25-.93-1.7-.54-1.45.4h0Z"/>
      <path class="cls-11" d="M248.22,66.09c-1.16,1.26-2.29,2.6-2.88,4.23-.66,1.82-.22,3.55.34,5.33,1.17,3.76.69,7.69-1.51,10.97-.54.8.76,1.56,1.3.76,1.93-2.88,2.73-6.41,2.21-9.84-.27-1.81-1.3-3.61-1.19-5.46.12-1.95,1.54-3.55,2.8-4.93.65-.71-.41-1.77-1.06-1.06h0Z"/>
      <circle class="cls-5" cx="248.77" cy="62.36" r="4.08"/>
      <path class="cls-11" d="M168.76,66.26c.5,1.87.64,3.76.41,5.68-.22,1.82-.68,3.6-.95,5.41-.24,1.6-.33,3.23,0,4.83.36,1.78,1.28,3.39,2.22,4.92.51.82,1.8.07,1.3-.76-.94-1.53-1.86-3.12-2.13-4.93s.05-3.72.4-5.53c.65-3.4,1.13-6.62.21-10.03-.25-.93-1.7-.54-1.45.4h0Z"/>
      <path class="cls-11" d="M168.22,66.09c-1.16,1.26-2.29,2.6-2.88,4.23-.66,1.82-.22,3.55.34,5.33,1.17,3.76.69,7.69-1.51,10.97-.54.8.76,1.56,1.3.76,1.93-2.88,2.73-6.41,2.21-9.84-.27-1.81-1.3-3.61-1.19-5.46.12-1.95,1.54-3.55,2.8-4.93.65-.71-.41-1.77-1.06-1.06h0Z"/>
      <circle class="cls-5" cx="168.76" cy="62.36" r="4.08"/>
      <path class="cls-11" d="M159.87,66.26c.5,1.87.64,3.76.41,5.68-.22,1.82-.68,3.6-.95,5.41-.24,1.6-.33,3.23,0,4.83.36,1.78,1.28,3.39,2.22,4.92.51.82,1.8.07,1.3-.76-.94-1.53-1.86-3.12-2.13-4.93s.05-3.72.4-5.53c.65-3.4,1.13-6.62.21-10.03-.25-.93-1.7-.54-1.45.4h0Z"/>
      <path class="cls-11" d="M159.33,66.09c-1.16,1.26-2.29,2.6-2.88,4.23-.66,1.82-.22,3.55.34,5.33,1.17,3.76.69,7.69-1.51,10.97-.54.8.76,1.56,1.3.76,1.93-2.88,2.73-6.41,2.21-9.84-.27-1.81-1.3-3.61-1.19-5.46.12-1.95,1.54-3.55,2.8-4.93.65-.71-.41-1.77-1.06-1.06h0Z"/>
      <circle class="cls-5" cx="159.87" cy="62.36" r="4.08"/>
      <path class="cls-11" d="M97.64,66.26c.5,1.87.64,3.76.41,5.68-.22,1.82-.68,3.6-.95,5.41-.24,1.6-.33,3.23,0,4.83.36,1.78,1.28,3.39,2.22,4.92.51.82,1.8.07,1.3-.76-.94-1.53-1.86-3.12-2.13-4.93s.05-3.72.4-5.53c.65-3.4,1.13-6.62.21-10.03-.25-.93-1.7-.54-1.45.4h0Z"/>
      <path class="cls-11" d="M97.1,66.09c-1.16,1.26-2.29,2.6-2.88,4.23-.66,1.82-.22,3.55.34,5.33,1.17,3.76.69,7.69-1.51,10.97-.54.8.76,1.56,1.3.76,1.93-2.88,2.73-6.41,2.21-9.84-.27-1.81-1.3-3.61-1.19-5.46.12-1.95,1.54-3.55,2.8-4.93.65-.71-.41-1.77-1.06-1.06h0Z"/>
      <circle class="cls-5" cx="97.65" cy="62.36" r="4.08"/>
      <path class="cls-11" d="M204.32,66.26c.5,1.87.64,3.76.41,5.68-.22,1.82-.68,3.6-.95,5.41-.24,1.6-.33,3.23,0,4.83.36,1.78,1.28,3.39,2.22,4.92.51.82,1.8.07,1.3-.76-.94-1.53-1.86-3.12-2.13-4.93s.05-3.72.4-5.53c.65-3.4,1.13-6.62.21-10.03-.25-.93-1.7-.54-1.45.4h0Z"/>
      <path class="cls-11" d="M203.77,66.09c-1.16,1.26-2.29,2.6-2.88,4.23-.66,1.82-.22,3.55.34,5.33,1.17,3.76.69,7.69-1.51,10.97-.54.8.76,1.56,1.3.76,1.93-2.88,2.73-6.41,2.21-9.84-.27-1.81-1.3-3.61-1.19-5.46.12-1.95,1.54-3.55,2.8-4.93.65-.71-.41-1.77-1.06-1.06h0Z"/>
      <circle class="cls-5" cx="204.32" cy="62.36" r="4.08"/>
      <path class="cls-11" d="M186.54,66.26c.5,1.87.64,3.76.41,5.68-.22,1.82-.68,3.6-.95,5.41-.24,1.6-.33,3.23,0,4.83.36,1.78,1.28,3.39,2.22,4.92.51.82,1.8.07,1.3-.76-.94-1.53-1.86-3.12-2.13-4.93s.05-3.72.4-5.53c.65-3.4,1.13-6.62.21-10.03-.25-.93-1.7-.54-1.45.4h0Z"/>
      <path class="cls-11" d="M186,66.09c-1.16,1.26-2.29,2.6-2.88,4.23-.66,1.82-.22,3.55.34,5.33,1.17,3.76.69,7.69-1.51,10.97-.54.8.76,1.56,1.3.76,1.93-2.88,2.73-6.41,2.21-9.84-.27-1.81-1.3-3.61-1.19-5.46.12-1.95,1.54-3.55,2.8-4.93.65-.71-.41-1.77-1.06-1.06h0Z"/>
      <circle class="cls-5" cx="186.54" cy="62.36" r="4.08"/>
      <path class="cls-11" d="M142.09,66.26c.5,1.87.64,3.76.41,5.68-.22,1.82-.68,3.6-.95,5.41-.24,1.6-.33,3.23,0,4.83.36,1.78,1.28,3.39,2.22,4.92.51.82,1.8.07,1.3-.76-.94-1.53-1.86-3.12-2.13-4.93s.05-3.72.4-5.53c.65-3.4,1.13-6.62.21-10.03-.25-.93-1.7-.54-1.45.4h0Z"/>
      <path class="cls-11" d="M141.55,66.09c-1.16,1.26-2.29,2.6-2.88,4.23-.66,1.82-.22,3.55.34,5.33,1.17,3.76.69,7.69-1.51,10.97-.54.8.76,1.56,1.3.76,1.93-2.88,2.73-6.41,2.21-9.84-.27-1.81-1.3-3.61-1.19-5.46.12-1.95,1.54-3.55,2.8-4.93.65-.71-.41-1.77-1.06-1.06h0Z"/>
      <circle class="cls-5" cx="142.09" cy="62.36" r="4.08"/>
      <path class="cls-11" d="M79.86,66.26c.5,1.87.64,3.76.41,5.68-.22,1.82-.68,3.6-.95,5.41-.24,1.6-.33,3.23,0,4.83.36,1.78,1.28,3.39,2.22,4.92.51.82,1.8.07,1.3-.76-.94-1.53-1.86-3.12-2.13-4.93s.05-3.72.4-5.53c.65-3.4,1.13-6.62.21-10.03-.25-.93-1.7-.54-1.45.4h0Z"/>
      <path class="cls-11" d="M79.32,66.09c-1.16,1.26-2.29,2.6-2.88,4.23-.66,1.82-.22,3.55.34,5.33,1.17,3.76.69,7.69-1.51,10.97-.54.8.76,1.56,1.3.76,1.93-2.88,2.73-6.41,2.21-9.84-.27-1.81-1.3-3.61-1.19-5.46.12-1.95,1.54-3.55,2.8-4.93.65-.71-.41-1.77-1.06-1.06h0Z"/>
      <circle class="cls-5" cx="79.87" cy="62.36" r="4.08"/>
      <path class="cls-11" d="M53.2,66.26c.5,1.87.64,3.76.41,5.68-.22,1.82-.68,3.6-.95,5.41-.24,1.6-.33,3.23,0,4.83.36,1.78,1.28,3.39,2.22,4.92.51.82,1.8.07,1.3-.76-.94-1.53-1.86-3.12-2.13-4.93s.05-3.72.4-5.53c.65-3.4,1.13-6.62.21-10.03-.25-.93-1.7-.54-1.45.4h0Z"/>
      <path class="cls-11" d="M52.66,66.09c-1.16,1.26-2.29,2.6-2.88,4.23-.66,1.82-.22,3.55.34,5.33,1.17,3.76.69,7.69-1.51,10.97-.54.8.76,1.56,1.3.76,1.93-2.88,2.73-6.41,2.21-9.84-.27-1.81-1.3-3.61-1.19-5.46.12-1.95,1.54-3.55,2.8-4.93.65-.71-.41-1.77-1.06-1.06h0Z"/>
      <circle class="cls-5" cx="53.2" cy="62.36" r="4.08"/>
      <path class="cls-11" d="M26.53,66.26c.5,1.87.64,3.76.41,5.68-.22,1.82-.68,3.6-.95,5.41-.24,1.6-.33,3.23,0,4.83.36,1.78,1.28,3.39,2.22,4.92.51.82,1.8.07,1.3-.76-.94-1.53-1.86-3.12-2.13-4.93s.05-3.72.4-5.53c.65-3.4,1.13-6.62.21-10.03-.25-.93-1.7-.54-1.45.4h0Z"/>
      <path class="cls-11" d="M25.99,66.09c-1.16,1.26-2.29,2.6-2.88,4.23-.66,1.82-.22,3.55.34,5.33,1.17,3.76.69,7.69-1.51,10.97-.54.8.76,1.56,1.3.76,1.93-2.88,2.73-6.41,2.21-9.84-.27-1.81-1.3-3.61-1.19-5.46.12-1.95,1.54-3.55,2.8-4.93.65-.71-.41-1.77-1.06-1.06h0Z"/>
      <circle class="cls-5" cx="26.53" cy="62.36" r="4.08"/>
      <path class="cls-11" d="M36.04,66.26c.29,1.21.09,2.45.26,3.67s.81,2.4,1.11,3.62c.48,1.97.55,4.09-.18,6.01-.24.63-.57,1.24-1,1.76s-.92.86-1,1.57c-.17,1.65,1.66,2.98,2.47,4.21.53.8,1.83.05,1.3-.76-.45-.69-1.01-1.28-1.52-1.93-.23-.3-.68-.78-.73-1.17-.04-.33.14-.42.36-.66.96-1.04,1.59-2.37,1.89-3.75.42-1.87.29-3.82-.16-5.68-.31-1.28-1.01-2.51-1.12-3.83-.09-1.17.02-2.31-.25-3.46-.22-.94-1.67-.54-1.45.4h0Z"/>
      <path class="cls-11" d="M35.5,66.09c-1.07,1.22-1.48,2.59-1.54,4.19-.03.84.05,1.7-.16,2.52s-.58,1.63-.66,2.5.25,1.6.29,2.43c.03.69-.11,1.35-.43,1.96-.76,1.43-2,2.6-2.93,3.92-.56.79.74,1.54,1.3.76.89-1.27,2.04-2.4,2.83-3.75.72-1.24.87-2.59.6-3.98-.18-.92-.14-1.52.14-2.42.25-.79.49-1.54.51-2.37.05-1.71-.07-3.34,1.13-4.71.63-.72-.42-1.79-1.06-1.06h0Z"/>
      <circle class="cls-5" cx="36.05" cy="62.36" r="4.08"/>
      <path class="cls-11" d="M89.38,66.26c.29,1.21.09,2.45.26,3.67s.81,2.4,1.11,3.62c.48,1.97.55,4.09-.18,6.01-.24.63-.57,1.24-1,1.76s-.92.86-1,1.57c-.17,1.65,1.66,2.98,2.47,4.21.53.8,1.83.05,1.3-.76-.45-.69-1.01-1.28-1.52-1.93-.23-.3-.68-.78-.73-1.17-.04-.33.14-.42.36-.66.96-1.04,1.59-2.37,1.89-3.75.42-1.87.29-3.82-.16-5.68-.31-1.28-1.01-2.51-1.12-3.83-.09-1.17.02-2.31-.25-3.46-.22-.94-1.67-.54-1.45.4h0Z"/>
      <path class="cls-11" d="M88.84,66.09c-1.07,1.22-1.48,2.59-1.54,4.19-.03.84.05,1.7-.16,2.52s-.58,1.63-.66,2.5.25,1.6.29,2.43c.03.69-.11,1.35-.43,1.96-.76,1.43-2,2.6-2.93,3.92-.56.79.74,1.54,1.3.76.89-1.27,2.04-2.4,2.83-3.75.72-1.24.87-2.59.6-3.98-.18-.92-.14-1.52.14-2.42.25-.79.49-1.54.51-2.37.05-1.71-.07-3.34,1.13-4.71.63-.72-.42-1.79-1.06-1.06h0Z"/>
      <circle class="cls-5" cx="89.38" cy="62.36" r="4.08"/>
      <path class="cls-11" d="M116.05,66.26c.29,1.21.09,2.45.26,3.67s.81,2.4,1.11,3.62c.48,1.97.55,4.09-.18,6.01-.24.63-.57,1.24-1,1.76s-.92.86-1,1.57c-.17,1.65,1.66,2.98,2.47,4.21.53.8,1.83.05,1.3-.76-.45-.69-1.01-1.28-1.52-1.93-.23-.3-.68-.78-.73-1.17-.04-.33.14-.42.36-.66.96-1.04,1.59-2.37,1.89-3.75.42-1.87.29-3.82-.16-5.68-.31-1.28-1.01-2.51-1.12-3.83-.09-1.17.02-2.31-.25-3.46-.22-.94-1.67-.54-1.45.4h0Z"/>
      <path class="cls-11" d="M115.51,66.09c-1.07,1.22-1.48,2.59-1.54,4.19-.03.84.05,1.7-.16,2.52s-.58,1.63-.66,2.5.25,1.6.29,2.43c.03.69-.11,1.35-.43,1.96-.76,1.43-2,2.6-2.93,3.92-.56.79.74,1.54,1.3.76.89-1.27,2.04-2.4,2.83-3.75.72-1.24.87-2.59.6-3.98-.18-.92-.14-1.52.14-2.42.25-.79.49-1.54.51-2.37.05-1.71-.07-3.34,1.13-4.71.63-.72-.42-1.79-1.06-1.06h0Z"/>
      <circle class="cls-5" cx="116.05" cy="62.36" r="4.08"/>
      <path class="cls-11" d="M151.61,66.26c.29,1.21.09,2.45.26,3.67s.81,2.4,1.11,3.62c.48,1.97.55,4.09-.18,6.01-.24.63-.57,1.24-1,1.76s-.92.86-1,1.57c-.17,1.65,1.66,2.98,2.47,4.21.53.8,1.83.05,1.3-.76-.45-.69-1.01-1.28-1.52-1.93-.23-.3-.68-.78-.73-1.17-.04-.33.14-.42.36-.66.96-1.04,1.59-2.37,1.89-3.75.42-1.87.29-3.82-.16-5.68-.31-1.28-1.01-2.51-1.12-3.83-.09-1.17.02-2.31-.25-3.46-.22-.94-1.67-.54-1.45.4h0Z"/>
      <path class="cls-11" d="M151.07,66.09c-1.07,1.22-1.48,2.59-1.54,4.19-.03.84.05,1.7-.16,2.52s-.58,1.63-.66,2.5.25,1.6.29,2.43c.03.69-.11,1.35-.43,1.96-.76,1.43-2,2.6-2.93,3.92-.56.79.74,1.54,1.3.76.89-1.27,2.04-2.4,2.83-3.75.72-1.24.87-2.59.6-3.98-.18-.92-.14-1.52.14-2.42.25-.79.49-1.54.51-2.37.05-1.71-.07-3.34,1.13-4.71.63-.72-.42-1.79-1.06-1.06h0Z"/>
      <circle class="cls-5" cx="151.61" cy="62.36" r="4.08"/>
      <path class="cls-11" d="M222.72,66.26c.29,1.21.09,2.45.26,3.67s.81,2.4,1.11,3.62c.48,1.97.55,4.09-.18,6.01-.24.63-.57,1.24-1,1.76s-.92.86-1,1.57c-.17,1.65,1.66,2.98,2.47,4.21.53.8,1.83.05,1.3-.76-.45-.69-1.01-1.28-1.52-1.93-.23-.3-.68-.78-.73-1.17-.04-.33.14-.42.36-.66.96-1.04,1.59-2.37,1.89-3.75.42-1.87.29-3.82-.16-5.68-.31-1.28-1.01-2.51-1.12-3.83-.09-1.17.02-2.31-.25-3.46-.22-.94-1.67-.54-1.45.4h0Z"/>
      <path class="cls-11" d="M222.18,66.09c-1.07,1.22-1.48,2.59-1.54,4.19-.03.84.05,1.7-.16,2.52s-.58,1.63-.66,2.5.25,1.6.29,2.43c.03.69-.11,1.35-.43,1.96-.76,1.43-2,2.6-2.93,3.92-.56.79.74,1.54,1.3.76.89-1.27,2.04-2.4,2.83-3.75.72-1.24.87-2.59.6-3.98-.18-.92-.14-1.52.14-2.42.25-.79.49-1.54.51-2.37.05-1.71-.07-3.34,1.13-4.71.63-.72-.42-1.79-1.06-1.06h0Z"/>
      <circle class="cls-5" cx="222.72" cy="62.36" r="4.08"/>
      <path class="cls-11" d="M258.28,66.26c.29,1.21.09,2.45.26,3.67s.81,2.4,1.11,3.62c.48,1.97.55,4.09-.18,6.01-.24.63-.57,1.24-1,1.76s-.92.86-1,1.57c-.17,1.65,1.66,2.98,2.47,4.21.53.8,1.83.05,1.3-.76-.45-.69-1.01-1.28-1.52-1.93-.23-.3-.68-.78-.73-1.17-.04-.33.14-.42.36-.66.96-1.04,1.59-2.37,1.89-3.75.42-1.87.29-3.82-.16-5.68-.31-1.28-1.01-2.51-1.12-3.83-.09-1.17.02-2.31-.25-3.46-.22-.94-1.67-.54-1.45.4h0Z"/>
      <path class="cls-11" d="M257.74,66.09c-1.07,1.22-1.48,2.59-1.54,4.19-.03.84.05,1.7-.16,2.52s-.58,1.63-.66,2.5.25,1.6.29,2.43c.03.69-.11,1.35-.43,1.96-.76,1.43-2,2.6-2.93,3.92-.56.79.74,1.54,1.3.76.89-1.27,2.04-2.4,2.83-3.75.72-1.24.87-2.59.6-3.98-.18-.92-.14-1.52.14-2.42.25-.79.49-1.54.51-2.37.05-1.71-.07-3.34,1.13-4.71.63-.72-.42-1.79-1.06-1.06h0Z"/>
      <circle class="cls-5" cx="258.28" cy="62.36" r="4.08"/>
      <path class="cls-11" d="M9.38,66.26c.29,1.21.09,2.45.26,3.67s.81,2.4,1.11,3.62c.48,1.97.55,4.09-.18,6.01-.24.63-.57,1.24-1,1.76s-.92.86-1,1.57c-.17,1.65,1.66,2.98,2.47,4.21.53.8,1.83.05,1.3-.76-.45-.69-1.01-1.28-1.52-1.93-.23-.3-.68-.78-.73-1.17-.04-.33.14-.42.36-.66.96-1.04,1.59-2.37,1.89-3.75.42-1.87.29-3.82-.16-5.68-.31-1.28-1.01-2.51-1.12-3.83-.09-1.17.02-2.31-.25-3.46-.22-.94-1.67-.54-1.45.4h0Z"/>
      <path class="cls-11" d="M8.84,66.09c-1.07,1.22-1.48,2.59-1.54,4.19-.03.84.05,1.7-.16,2.52s-.58,1.63-.66,2.5.25,1.6.29,2.43c.03.69-.11,1.35-.43,1.96-.76,1.43-2,2.6-2.93,3.92-.56.79.74,1.54,1.3.76.89-1.27,2.04-2.4,2.83-3.75.72-1.24.87-2.59.6-3.98-.18-.92-.14-1.52.14-2.42.25-.79.49-1.54.51-2.37.05-1.71-.07-3.34,1.13-4.71.63-.72-.42-1.79-1.06-1.06h0Z"/>
      <circle class="cls-5" cx="9.38" cy="62.36" r="4.08"/>
      <path class="cls-11" d="M71.6,66.26c.29,1.21.09,2.45.26,3.67s.81,2.4,1.11,3.62c.48,1.97.55,4.09-.18,6.01-.24.63-.57,1.24-1,1.76s-.92.86-1,1.57c-.17,1.65,1.66,2.98,2.47,4.21.53.8,1.83.05,1.3-.76-.45-.69-1.01-1.28-1.52-1.93-.23-.3-.68-.78-.73-1.17-.04-.33.14-.42.36-.66.96-1.04,1.59-2.37,1.89-3.75.42-1.87.29-3.82-.16-5.68-.31-1.28-1.01-2.51-1.12-3.83-.09-1.17.02-2.31-.25-3.46-.22-.94-1.67-.54-1.45.4h0Z"/>
      <path class="cls-11" d="M71.06,66.09c-1.07,1.22-1.48,2.59-1.54,4.19-.03.84.05,1.7-.16,2.52s-.58,1.63-.66,2.5.25,1.6.29,2.43c.03.69-.11,1.35-.43,1.96-.76,1.43-2,2.6-2.93,3.92-.56.79.74,1.54,1.3.76.89-1.27,2.04-2.4,2.83-3.75.72-1.24.87-2.59.6-3.98-.18-.92-.14-1.52.14-2.42.25-.79.49-1.54.51-2.37.05-1.71-.07-3.34,1.13-4.71.63-.72-.42-1.79-1.06-1.06h0Z"/>
      <circle class="cls-5" cx="71.6" cy="62.36" r="4.08"/>
      <path class="cls-11" d="M62.35,66.26c.31,1.29.1,2.63.33,3.93s.8,2.48,1.05,3.76c.35,1.75.33,3.57-.33,5.24-.37.94-1,1.76-1.4,2.68-.9,2.07.99,3.65,2.02,5.23.53.81,1.83.05,1.3-.76-.58-.89-1.41-1.66-1.87-2.63-.34-.72-.13-1.19.22-1.81.58-1.03,1.15-2.04,1.46-3.19.47-1.74.38-3.57.01-5.32-.26-1.24-.85-2.42-1.03-3.67s-.01-2.58-.32-3.86c-.23-.94-1.67-.54-1.45.4h0Z"/>
      <path class="cls-11" d="M61.15,66.31c-1.59,1.76-2.95,3.91-3.75,6.14-.3.83-.68,2.07-.17,2.9.23.37.58.56.96.73.16.07.46.12.57.26.2.24.1.81.12,1.11.11,2.28.33,4.72-.08,6.98-.18,1.01-.51,1.7-1.43,2.14s-.11,1.7.76,1.3c2.85-1.34,2.41-5.49,2.34-8.07-.02-.84-.06-1.69-.1-2.53-.03-.57.01-1.21-.32-1.71-.24-.36-.6-.56-.99-.73-.49-.22-.62-.24-.53-.83.36-2.37,2.11-4.88,3.68-6.62.65-.71-.41-1.78-1.06-1.06h0Z"/>
      <circle class="cls-5" cx="62.36" cy="62.36" r="4.08"/>
      <path class="cls-11" d="M44.57,66.26c.31,1.29.1,2.63.33,3.93s.8,2.48,1.05,3.76c.35,1.75.33,3.57-.33,5.24-.37.94-1,1.76-1.4,2.68-.9,2.07.99,3.65,2.02,5.23.53.81,1.83.05,1.3-.76-.58-.89-1.41-1.66-1.87-2.63-.34-.72-.13-1.19.22-1.81.58-1.03,1.15-2.04,1.46-3.19.47-1.74.38-3.57.01-5.32-.26-1.24-.85-2.42-1.03-3.67s-.01-2.58-.32-3.86c-.23-.94-1.67-.54-1.45.4h0Z"/>
      <path class="cls-11" d="M43.37,66.31c-1.59,1.76-2.95,3.91-3.75,6.14-.3.83-.68,2.07-.17,2.9.23.37.58.56.96.73.16.07.46.12.57.26.2.24.1.81.12,1.11.11,2.28.33,4.72-.08,6.98-.18,1.01-.51,1.7-1.43,2.14s-.11,1.7.76,1.3c2.85-1.34,2.41-5.49,2.34-8.07-.02-.84-.06-1.69-.1-2.53-.03-.57.01-1.21-.32-1.71-.24-.36-.6-.56-.99-.73-.49-.22-.62-.24-.53-.83.36-2.37,2.11-4.88,3.68-6.62.65-.71-.41-1.78-1.06-1.06h0Z"/>
      <circle class="cls-5" cx="44.58" cy="62.36" r="4.08"/>
      <path class="cls-11" d="M17.91,66.26c.31,1.29.1,2.63.33,3.93s.8,2.48,1.05,3.76c.35,1.75.33,3.57-.33,5.24-.37.94-1,1.76-1.4,2.68-.9,2.07.99,3.65,2.02,5.23.53.81,1.83.05,1.3-.76-.58-.89-1.41-1.66-1.87-2.63-.34-.72-.13-1.19.22-1.81.58-1.03,1.15-2.04,1.46-3.19.47-1.74.38-3.57.01-5.32-.26-1.24-.85-2.42-1.03-3.67s-.01-2.58-.32-3.86c-.23-.94-1.67-.54-1.45.4h0Z"/>
      <path class="cls-11" d="M16.7,66.31c-1.59,1.76-2.95,3.91-3.75,6.14-.3.83-.68,2.07-.17,2.9.23.37.58.56.96.73.16.07.46.12.57.26.2.24.1.81.12,1.11.11,2.28.33,4.72-.08,6.98-.18,1.01-.51,1.7-1.43,2.14s-.11,1.7.76,1.3c2.85-1.34,2.41-5.49,2.34-8.07-.02-.84-.06-1.69-.1-2.53-.03-.57.01-1.21-.32-1.71-.24-.36-.6-.56-.99-.73-.49-.22-.62-.24-.53-.83.36-2.37,2.11-4.88,3.68-6.62.65-.71-.41-1.78-1.06-1.06h0Z"/>
      <circle class="cls-5" cx="17.91" cy="62.36" r="4.08"/>
      <path class="cls-11" d="M124.58,66.26c.31,1.29.1,2.63.33,3.93s.8,2.48,1.05,3.76c.35,1.75.33,3.57-.33,5.24-.37.94-1,1.76-1.4,2.68-.9,2.07.99,3.65,2.02,5.23.53.81,1.83.05,1.3-.76-.58-.89-1.41-1.66-1.87-2.63-.34-.72-.13-1.19.22-1.81.58-1.03,1.15-2.04,1.46-3.19.47-1.74.38-3.57.01-5.32-.26-1.24-.85-2.42-1.03-3.67s-.01-2.58-.32-3.86c-.23-.94-1.67-.54-1.45.4h0Z"/>
      <path class="cls-11" d="M123.38,66.31c-1.59,1.76-2.95,3.91-3.75,6.14-.3.83-.68,2.07-.17,2.9.23.37.58.56.96.73.16.07.46.12.57.26.2.24.1.81.12,1.11.11,2.28.33,4.72-.08,6.98-.18,1.01-.51,1.7-1.43,2.14s-.11,1.7.76,1.3c2.85-1.34,2.41-5.49,2.34-8.07-.02-.84-.06-1.69-.1-2.53-.03-.57.01-1.21-.32-1.71-.24-.36-.6-.56-.99-.73-.49-.22-.62-.24-.53-.83.36-2.37,2.11-4.88,3.68-6.62.65-.71-.41-1.78-1.06-1.06h0Z"/>
      <circle class="cls-5" cx="124.58" cy="62.36" r="4.08"/>
      <path class="cls-11" d="M133.47,66.26c.31,1.29.1,2.63.33,3.93s.8,2.48,1.05,3.76c.35,1.75.33,3.57-.33,5.24-.37.94-1,1.76-1.4,2.68-.9,2.07.99,3.65,2.02,5.23.53.81,1.83.05,1.3-.76-.58-.89-1.41-1.66-1.87-2.63-.34-.72-.13-1.19.22-1.81.58-1.03,1.15-2.04,1.46-3.19.47-1.74.38-3.57.01-5.32-.26-1.24-.85-2.42-1.03-3.67s-.01-2.58-.32-3.86c-.23-.94-1.67-.54-1.45.4h0Z"/>
      <path class="cls-11" d="M132.26,66.31c-1.59,1.76-2.95,3.91-3.75,6.14-.3.83-.68,2.07-.17,2.9.23.37.58.56.96.73.16.07.46.12.57.26.2.24.1.81.12,1.11.11,2.28.33,4.72-.08,6.98-.18,1.01-.51,1.7-1.43,2.14s-.11,1.7.76,1.3c2.85-1.34,2.41-5.49,2.34-8.07-.02-.84-.06-1.69-.1-2.53-.03-.57.01-1.21-.32-1.71-.24-.36-.6-.56-.99-.73-.49-.22-.62-.24-.53-.83.36-2.37,2.11-4.88,3.68-6.62.65-.71-.41-1.78-1.06-1.06h0Z"/>
      <circle class="cls-5" cx="133.47" cy="62.36" r="4.08"/>
      <path class="cls-11" d="M177.92,66.26c.31,1.29.1,2.63.33,3.93s.8,2.48,1.05,3.76c.35,1.75.33,3.57-.33,5.24-.37.94-1,1.76-1.4,2.68-.9,2.07.99,3.65,2.02,5.23.53.81,1.83.05,1.3-.76-.58-.89-1.41-1.66-1.87-2.63-.34-.72-.13-1.19.22-1.81.58-1.03,1.15-2.04,1.46-3.19.47-1.74.38-3.57.01-5.32-.26-1.24-.85-2.42-1.03-3.67s-.01-2.58-.32-3.86c-.23-.94-1.67-.54-1.45.4h0Z"/>
      <path class="cls-11" d="M176.71,66.31c-1.59,1.76-2.95,3.91-3.75,6.14-.3.83-.68,2.07-.17,2.9.23.37.58.56.96.73.16.07.46.12.57.26.2.24.1.81.12,1.11.11,2.28.33,4.72-.08,6.98-.18,1.01-.51,1.7-1.43,2.14s-.11,1.7.76,1.3c2.85-1.34,2.41-5.49,2.34-8.07-.02-.84-.06-1.69-.1-2.53-.03-.57.01-1.21-.32-1.71-.24-.36-.6-.56-.99-.73-.49-.22-.62-.24-.53-.83.36-2.37,2.11-4.88,3.68-6.62.65-.71-.41-1.78-1.06-1.06h0Z"/>
      <circle class="cls-5" cx="177.92" cy="62.36" r="4.08"/>
      <path class="cls-11" d="M195.69,66.26c.31,1.29.1,2.63.33,3.93s.8,2.48,1.05,3.76c.35,1.75.33,3.57-.33,5.24-.37.94-1,1.76-1.4,2.68-.9,2.07.99,3.65,2.02,5.23.53.81,1.83.05,1.3-.76-.58-.89-1.41-1.66-1.87-2.63-.34-.72-.13-1.19.22-1.81.58-1.03,1.15-2.04,1.46-3.19.47-1.74.38-3.57.01-5.32-.26-1.24-.85-2.42-1.03-3.67s-.01-2.58-.32-3.86c-.23-.94-1.67-.54-1.45.4h0Z"/>
      <path class="cls-11" d="M194.49,66.31c-1.59,1.76-2.95,3.91-3.75,6.14-.3.83-.68,2.07-.17,2.9.23.37.58.56.96.73.16.07.46.12.57.26.2.24.1.81.12,1.11.11,2.28.33,4.72-.08,6.98-.18,1.01-.51,1.7-1.43,2.14s-.11,1.7.76,1.3c2.85-1.34,2.41-5.49,2.34-8.07-.02-.84-.06-1.69-.1-2.53-.03-.57.01-1.21-.32-1.71-.24-.36-.6-.56-.99-.73-.49-.22-.62-.24-.53-.83.36-2.37,2.11-4.88,3.68-6.62.65-.71-.41-1.78-1.06-1.06h0Z"/>
      <circle class="cls-5" cx="195.7" cy="62.36" r="4.08"/>
      <path class="cls-11" d="M213.47,66.26c.31,1.29.1,2.63.33,3.93s.8,2.48,1.05,3.76c.35,1.75.33,3.57-.33,5.24-.37.94-1,1.76-1.4,2.68-.9,2.07.99,3.65,2.02,5.23.53.81,1.83.05,1.3-.76-.58-.89-1.41-1.66-1.87-2.63-.34-.72-.13-1.19.22-1.81.58-1.03,1.15-2.04,1.46-3.19.47-1.74.38-3.57.01-5.32-.26-1.24-.85-2.42-1.03-3.67s-.01-2.58-.32-3.86c-.23-.94-1.67-.54-1.45.4h0Z"/>
      <path class="cls-11" d="M212.27,66.31c-1.59,1.76-2.95,3.91-3.75,6.14-.3.83-.68,2.07-.17,2.9.23.37.58.56.96.73.16.07.46.12.57.26.2.24.1.81.12,1.11.11,2.28.33,4.72-.08,6.98-.18,1.01-.51,1.7-1.43,2.14s-.11,1.7.76,1.3c2.85-1.34,2.41-5.49,2.34-8.07-.02-.84-.06-1.69-.1-2.53-.03-.57.01-1.21-.32-1.71-.24-.36-.6-.56-.99-.73-.49-.22-.62-.24-.53-.83.36-2.37,2.11-4.88,3.68-6.62.65-.71-.41-1.78-1.06-1.06h0Z"/>
      <circle class="cls-5" cx="213.48" cy="62.36" r="4.08"/>
      <path class="cls-11" d="M231.25,66.26c.31,1.29.1,2.63.33,3.93s.8,2.48,1.05,3.76c.35,1.75.33,3.57-.33,5.24-.37.94-1,1.76-1.4,2.68-.9,2.07.99,3.65,2.02,5.23.53.81,1.83.05,1.3-.76-.58-.89-1.41-1.66-1.87-2.63-.34-.72-.13-1.19.22-1.81.58-1.03,1.15-2.04,1.46-3.19.47-1.74.38-3.57.01-5.32-.26-1.24-.85-2.42-1.03-3.67s-.01-2.58-.32-3.86c-.23-.94-1.67-.54-1.45.4h0Z"/>
      <path class="cls-11" d="M230.05,66.31c-1.59,1.76-2.95,3.91-3.75,6.14-.3.83-.68,2.07-.17,2.9.23.37.58.56.96.73.16.07.46.12.57.26.2.24.1.81.12,1.11.11,2.28.33,4.72-.08,6.98-.18,1.01-.51,1.7-1.43,2.14s-.11,1.7.76,1.3c2.85-1.34,2.41-5.49,2.34-8.07-.02-.84-.06-1.69-.1-2.53-.03-.57.01-1.21-.32-1.71-.24-.36-.6-.56-.99-.73-.49-.22-.62-.24-.53-.83.36-2.37,2.11-4.88,3.68-6.62.65-.71-.41-1.78-1.06-1.06h0Z"/>
      <circle class="cls-5" cx="231.25" cy="62.36" r="4.08"/>
      <path class="cls-11" d="M266.81,66.26c.31,1.29.1,2.63.33,3.93s.8,2.48,1.05,3.76c.35,1.75.33,3.57-.33,5.24-.37.94-1,1.76-1.4,2.68-.9,2.07.99,3.65,2.02,5.23.53.81,1.83.05,1.3-.76-.58-.89-1.41-1.66-1.87-2.63-.34-.72-.13-1.19.22-1.81.58-1.03,1.15-2.04,1.46-3.19.47-1.74.38-3.57.01-5.32-.26-1.24-.85-2.42-1.03-3.67s-.01-2.58-.32-3.86c-.23-.94-1.67-.54-1.45.4h0Z"/>
      <path class="cls-11" d="M265.61,66.31c-1.59,1.76-2.95,3.91-3.75,6.14-.3.83-.68,2.07-.17,2.9.23.37.58.56.96.73.16.07.46.12.57.26.2.24.1.81.12,1.11.11,2.28.33,4.72-.08,6.98-.18,1.01-.51,1.7-1.43,2.14s-.11,1.7.76,1.3c2.85-1.34,2.41-5.49,2.34-8.07-.02-.84-.06-1.69-.1-2.53-.03-.57.01-1.21-.32-1.71-.24-.36-.6-.56-.99-.73-.49-.22-.62-.24-.53-.83.36-2.37,2.11-4.88,3.68-6.62.65-.71-.41-1.78-1.06-1.06h0Z"/>
      <circle class="cls-5" cx="266.81" cy="62.36" r="4.08"/>
      <path class="cls-11" d="M240.14,66.26c.31,1.29.1,2.63.33,3.93s.8,2.48,1.05,3.76c.35,1.75.33,3.57-.33,5.24-.37.94-1,1.76-1.4,2.68-.9,2.07.99,3.65,2.02,5.23.53.81,1.83.05,1.3-.76-.58-.89-1.41-1.66-1.87-2.63-.34-.72-.13-1.19.22-1.81.58-1.03,1.15-2.04,1.46-3.19.47-1.74.38-3.57.01-5.32-.26-1.24-.85-2.42-1.03-3.67s-.01-2.58-.32-3.86c-.23-.94-1.67-.54-1.45.4h0Z"/>
      <path class="cls-11" d="M238.94,66.31c-1.59,1.76-2.95,3.91-3.75,6.14-.3.83-.68,2.07-.17,2.9.23.37.58.56.96.73.16.07.46.12.57.26.2.24.1.81.12,1.11.11,2.28.33,4.72-.08,6.98-.18,1.01-.51,1.7-1.43,2.14s-.11,1.7.76,1.3c2.85-1.34,2.41-5.49,2.34-8.07-.02-.84-.06-1.69-.1-2.53-.03-.57.01-1.21-.32-1.71-.24-.36-.6-.56-.99-.73-.49-.22-.62-.24-.53-.83.36-2.37,2.11-4.88,3.68-6.62.65-.71-.41-1.78-1.06-1.06h0Z"/>
      <circle class="cls-5" cx="240.14" cy="62.36" r="4.08"/>
      <path class="cls-11" d="M106.8,66.26c.31,1.29.1,2.63.33,3.93s.8,2.48,1.05,3.76c.35,1.75.33,3.57-.33,5.24-.37.94-1,1.76-1.4,2.68-.9,2.07.99,3.65,2.02,5.23.53.81,1.83.05,1.3-.76-.58-.89-1.41-1.66-1.87-2.63-.34-.72-.13-1.19.22-1.81.58-1.03,1.15-2.04,1.46-3.19.47-1.74.38-3.57.01-5.32-.26-1.24-.85-2.42-1.03-3.67s-.01-2.58-.32-3.86c-.23-.94-1.67-.54-1.45.4h0Z"/>
      <path class="cls-11" d="M105.6,66.31c-1.59,1.76-2.95,3.91-3.75,6.14-.3.83-.68,2.07-.17,2.9.23.37.58.56.96.73.16.07.46.12.57.26.2.24.1.81.12,1.11.11,2.28.33,4.72-.08,6.98-.18,1.01-.51,1.7-1.43,2.14s-.11,1.7.76,1.3c2.85-1.34,2.41-5.49,2.34-8.07-.02-.84-.06-1.69-.1-2.53-.03-.57.01-1.21-.32-1.71-.24-.36-.6-.56-.99-.73-.49-.22-.62-.24-.53-.83.36-2.37,2.11-4.88,3.68-6.62.65-.71-.41-1.78-1.06-1.06h0Z"/>
      <circle class="cls-5" cx="106.8" cy="62.36" r="4.08"/>
      <path class="cls-11" d="M249.91,110.52c.92-3.41.44-6.62-.21-10.03-.35-1.81-.68-3.69-.4-5.53s1.19-3.39,2.13-4.93c.51-.82-.79-1.58-1.3-.76-.94,1.53-1.87,3.14-2.22,4.92-.32,1.6-.23,3.22,0,4.83.27,1.81.73,3.59.95,5.41.23,1.92.09,3.81-.41,5.68-.25.93,1.2,1.33,1.45.4h0Z"/>
      <path class="cls-11" d="M248.99,109.22c-1.22-1.33-2.61-2.88-2.79-4.76s.9-3.76,1.18-5.62c.51-3.43-.28-6.96-2.21-9.84-.54-.8-1.84-.05-1.3.76,2.21,3.29,2.68,7.22,1.51,10.97-.53,1.72-.99,3.41-.39,5.18s1.75,3.08,2.94,4.38c.65.71,1.71-.35,1.06-1.06h0Z"/>
      <circle class="cls-5" cx="248.47" cy="114.01" r="4.08"/>
      <path class="cls-11" d="M169.91,110.52c.92-3.41.44-6.62-.21-10.03-.35-1.81-.68-3.69-.4-5.53s1.19-3.39,2.13-4.93c.51-.82-.79-1.58-1.3-.76-.94,1.53-1.87,3.14-2.22,4.92-.32,1.6-.23,3.22,0,4.83.27,1.81.73,3.59.95,5.41.23,1.92.09,3.81-.41,5.68-.25.93,1.2,1.33,1.45.4h0Z"/>
      <path class="cls-11" d="M168.98,109.22c-1.22-1.33-2.61-2.88-2.79-4.76s.9-3.76,1.18-5.62c.51-3.43-.28-6.96-2.21-9.84-.54-.8-1.84-.05-1.3.76,2.21,3.29,2.68,7.22,1.51,10.97-.53,1.72-.99,3.41-.39,5.18s1.75,3.08,2.94,4.38c.65.71,1.71-.35,1.06-1.06h0Z"/>
      <circle class="cls-5" cx="168.46" cy="114.01" r="4.08"/>
      <path class="cls-11" d="M161.02,110.52c.92-3.41.44-6.62-.21-10.03-.35-1.81-.68-3.69-.4-5.53s1.19-3.39,2.13-4.93c.51-.82-.79-1.58-1.3-.76-.94,1.53-1.87,3.14-2.22,4.92-.32,1.6-.23,3.22,0,4.83.27,1.81.73,3.59.95,5.41.23,1.92.09,3.81-.41,5.68-.25.93,1.2,1.33,1.45.4h0Z"/>
      <path class="cls-11" d="M160.09,109.22c-1.22-1.33-2.61-2.88-2.79-4.76s.9-3.76,1.18-5.62c.51-3.43-.28-6.96-2.21-9.84-.54-.8-1.84-.05-1.3.76,2.21,3.29,2.68,7.22,1.51,10.97-.53,1.72-.99,3.41-.39,5.18s1.75,3.08,2.94,4.38c.65.71,1.71-.35,1.06-1.06h0Z"/>
      <circle class="cls-5" cx="159.57" cy="114.01" r="4.08"/>
      <path class="cls-11" d="M98.79,110.52c.92-3.41.44-6.62-.21-10.03-.35-1.81-.68-3.69-.4-5.53s1.19-3.39,2.13-4.93c.51-.82-.79-1.58-1.3-.76-.94,1.53-1.87,3.14-2.22,4.92-.32,1.6-.23,3.22,0,4.83.27,1.81.73,3.59.95,5.41.23,1.92.09,3.81-.41,5.68-.25.93,1.2,1.33,1.45.4h0Z"/>
      <path class="cls-11" d="M97.87,109.22c-1.22-1.33-2.61-2.88-2.79-4.76s.9-3.76,1.18-5.62c.51-3.43-.28-6.96-2.21-9.84-.54-.8-1.84-.05-1.3.76,2.21,3.29,2.68,7.22,1.51,10.97-.53,1.72-.99,3.41-.39,5.18s1.75,3.08,2.94,4.38c.65.71,1.71-.35,1.06-1.06h0Z"/>
      <circle class="cls-5" cx="97.35" cy="114.01" r="4.08"/>
      <path class="cls-11" d="M205.47,110.52c.92-3.41.44-6.62-.21-10.03-.35-1.81-.68-3.69-.4-5.53s1.19-3.39,2.13-4.93c.51-.82-.79-1.58-1.3-.76-.94,1.53-1.87,3.14-2.22,4.92-.32,1.6-.23,3.22,0,4.83.27,1.81.73,3.59.95,5.41.23,1.92.09,3.81-.41,5.68-.25.93,1.2,1.33,1.45.4h0Z"/>
      <path class="cls-11" d="M204.54,109.22c-1.22-1.33-2.61-2.88-2.79-4.76s.9-3.76,1.18-5.62c.51-3.43-.28-6.96-2.21-9.84-.54-.8-1.84-.05-1.3.76,2.21,3.29,2.68,7.22,1.51,10.97-.53,1.72-.99,3.41-.39,5.18s1.75,3.08,2.94,4.38c.65.71,1.71-.35,1.06-1.06h0Z"/>
      <circle class="cls-5" cx="204.02" cy="114.01" r="4.08"/>
      <path class="cls-11" d="M187.69,110.52c.92-3.41.44-6.62-.21-10.03-.35-1.81-.68-3.69-.4-5.53s1.19-3.39,2.13-4.93c.51-.82-.79-1.58-1.3-.76-.94,1.53-1.87,3.14-2.22,4.92-.32,1.6-.23,3.22,0,4.83.27,1.81.73,3.59.95,5.41.23,1.92.09,3.81-.41,5.68-.25.93,1.2,1.33,1.45.4h0Z"/>
      <path class="cls-11" d="M186.76,109.22c-1.22-1.33-2.61-2.88-2.79-4.76s.9-3.76,1.18-5.62c.51-3.43-.28-6.96-2.21-9.84-.54-.8-1.84-.05-1.3.76,2.21,3.29,2.68,7.22,1.51,10.97-.53,1.72-.99,3.41-.39,5.18s1.75,3.08,2.94,4.38c.65.71,1.71-.35,1.06-1.06h0Z"/>
      <circle class="cls-5" cx="186.24" cy="114.01" r="4.08"/>
      <path class="cls-11" d="M143.24,110.52c.92-3.41.44-6.62-.21-10.03-.35-1.81-.68-3.69-.4-5.53s1.19-3.39,2.13-4.93c.51-.82-.79-1.58-1.3-.76-.94,1.53-1.87,3.14-2.22,4.92-.32,1.6-.23,3.22,0,4.83.27,1.81.73,3.59.95,5.41.23,1.92.09,3.81-.41,5.68-.25.93,1.2,1.33,1.45.4h0Z"/>
      <path class="cls-11" d="M142.31,109.22c-1.22-1.33-2.61-2.88-2.79-4.76s.9-3.76,1.18-5.62c.51-3.43-.28-6.96-2.21-9.84-.54-.8-1.84-.05-1.3.76,2.21,3.29,2.68,7.22,1.51,10.97-.53,1.72-.99,3.41-.39,5.18s1.75,3.08,2.94,4.38c.65.71,1.71-.35,1.06-1.06h0Z"/>
      <circle class="cls-5" cx="141.8" cy="114.01" r="4.08"/>
      <path class="cls-11" d="M81.01,110.52c.92-3.41.44-6.62-.21-10.03-.35-1.81-.68-3.69-.4-5.53s1.19-3.39,2.13-4.93c.51-.82-.79-1.58-1.3-.76-.94,1.53-1.87,3.14-2.22,4.92-.32,1.6-.23,3.22,0,4.83.27,1.81.73,3.59.95,5.41.23,1.92.09,3.81-.41,5.68-.25.93,1.2,1.33,1.45.4h0Z"/>
      <path class="cls-11" d="M80.09,109.22c-1.22-1.33-2.61-2.88-2.79-4.76s.9-3.76,1.18-5.62c.51-3.43-.28-6.96-2.21-9.84-.54-.8-1.84-.05-1.3.76,2.21,3.29,2.68,7.22,1.51,10.97-.53,1.72-.99,3.41-.39,5.18s1.75,3.08,2.94,4.38c.65.71,1.71-.35,1.06-1.06h0Z"/>
      <circle class="cls-5" cx="79.57" cy="114.01" r="4.08"/>
      <path class="cls-11" d="M54.35,110.52c.92-3.41.44-6.62-.21-10.03-.35-1.81-.68-3.69-.4-5.53s1.19-3.39,2.13-4.93c.51-.82-.79-1.58-1.3-.76-.94,1.53-1.87,3.14-2.22,4.92-.32,1.6-.23,3.22,0,4.83.27,1.81.73,3.59.95,5.41.23,1.92.09,3.81-.41,5.68-.25.93,1.2,1.33,1.45.4h0Z"/>
      <path class="cls-11" d="M53.42,109.22c-1.22-1.33-2.61-2.88-2.79-4.76s.9-3.76,1.18-5.62c.51-3.43-.28-6.96-2.21-9.84-.54-.8-1.84-.05-1.3.76,2.21,3.29,2.68,7.22,1.51,10.97-.53,1.72-.99,3.41-.39,5.18s1.75,3.08,2.94,4.38c.65.71,1.71-.35,1.06-1.06h0Z"/>
      <circle class="cls-5" cx="52.9" cy="114.01" r="4.08"/>
      <path class="cls-11" d="M27.68,110.52c.92-3.41.44-6.62-.21-10.03-.35-1.81-.68-3.69-.4-5.53s1.19-3.39,2.13-4.93c.51-.82-.79-1.58-1.3-.76-.94,1.53-1.87,3.14-2.22,4.92-.32,1.6-.23,3.22,0,4.83.27,1.81.73,3.59.95,5.41.23,1.92.09,3.81-.41,5.68-.25.93,1.2,1.33,1.45.4h0Z"/>
      <path class="cls-11" d="M26.75,109.22c-1.22-1.33-2.61-2.88-2.79-4.76s.9-3.76,1.18-5.62c.51-3.43-.28-6.96-2.21-9.84-.54-.8-1.84-.05-1.3.76,2.21,3.29,2.68,7.22,1.51,10.97-.53,1.72-.99,3.41-.39,5.18s1.75,3.08,2.94,4.38c.65.71,1.71-.35,1.06-1.06h0Z"/>
      <circle class="cls-5" cx="26.23" cy="114.01" r="4.08"/>
      <path class="cls-11" d="M37.19,110.52c.26-1.09.18-2.18.24-3.29.08-1.33.76-2.54,1.08-3.83.49-1.9.63-3.92.2-5.85-.3-1.35-.91-2.65-1.83-3.69-.18-.2-.44-.36-.45-.63-.01-.36.45-.87.65-1.14.53-.69,1.14-1.33,1.62-2.06.53-.81-.77-1.56-1.3-.76-.8,1.22-2.56,2.5-2.49,4.11.03.72.52,1.09.95,1.6.46.53.81,1.17,1.06,1.83.7,1.86.66,3.93.21,5.84-.29,1.25-.93,2.43-1.13,3.69s.02,2.53-.28,3.77c-.22.94,1.22,1.34,1.45.4h0Z"/>
      <path class="cls-11" d="M36.27,109.22c-1.17-1.33-1.09-2.9-1.13-4.57-.02-.84-.22-1.59-.47-2.38-.3-.94-.37-1.58-.18-2.55.26-1.36.13-2.68-.55-3.89-.78-1.39-1.96-2.54-2.88-3.83-.55-.78-1.85-.04-1.3.76.91,1.3,2.1,2.45,2.88,3.83.33.6.51,1.24.49,1.93-.02.87-.39,1.67-.3,2.55.08.82.41,1.59.63,2.38.23.83.17,1.67.19,2.53.05,1.65.44,3.06,1.55,4.31.64.73,1.7-.34,1.06-1.06h0Z"/>
      <circle class="cls-5" cx="35.75" cy="114.01" r="4.08"/>
      <path class="cls-11" d="M90.53,110.52c.26-1.09.18-2.18.24-3.29.08-1.33.76-2.54,1.08-3.83.49-1.9.63-3.92.2-5.85-.3-1.35-.91-2.65-1.83-3.69-.18-.2-.44-.36-.45-.63-.01-.36.45-.87.65-1.14.53-.69,1.14-1.33,1.62-2.06.53-.81-.77-1.56-1.3-.76-.8,1.22-2.56,2.5-2.49,4.11.03.72.52,1.09.95,1.6.46.53.81,1.17,1.06,1.83.7,1.86.66,3.93.21,5.84-.29,1.25-.93,2.43-1.13,3.69s.02,2.53-.28,3.77c-.22.94,1.22,1.34,1.45.4h0Z"/>
      <path class="cls-11" d="M89.6,109.22c-1.17-1.33-1.09-2.9-1.13-4.57-.02-.84-.22-1.59-.47-2.38-.3-.94-.37-1.58-.18-2.55.26-1.36.13-2.68-.55-3.89-.78-1.39-1.96-2.54-2.88-3.83-.55-.78-1.85-.04-1.3.76.91,1.3,2.1,2.45,2.88,3.83.33.6.51,1.24.49,1.93-.02.87-.39,1.67-.3,2.55.08.82.41,1.59.63,2.38.23.83.17,1.67.19,2.53.05,1.65.44,3.06,1.55,4.31.64.73,1.7-.34,1.06-1.06h0Z"/>
      <circle class="cls-5" cx="89.09" cy="114.01" r="4.08"/>
      <path class="cls-11" d="M117.2,110.52c.26-1.09.18-2.18.24-3.29.08-1.33.76-2.54,1.08-3.83.49-1.9.63-3.92.2-5.85-.3-1.35-.91-2.65-1.83-3.69-.18-.2-.44-.36-.45-.63-.01-.36.45-.87.65-1.14.53-.69,1.14-1.33,1.62-2.06.53-.81-.77-1.56-1.3-.76-.8,1.22-2.56,2.5-2.49,4.11.03.72.52,1.09.95,1.6.46.53.81,1.17,1.06,1.83.7,1.86.66,3.93.21,5.84-.29,1.25-.93,2.43-1.13,3.69s.02,2.53-.28,3.77c-.22.94,1.22,1.34,1.45.4h0Z"/>
      <path class="cls-11" d="M116.27,109.22c-1.17-1.33-1.09-2.9-1.13-4.57-.02-.84-.22-1.59-.47-2.38-.3-.94-.37-1.58-.18-2.55.26-1.36.13-2.68-.55-3.89-.78-1.39-1.96-2.54-2.88-3.83-.55-.78-1.85-.04-1.3.76.91,1.3,2.1,2.45,2.88,3.83.33.6.51,1.24.49,1.93-.02.87-.39,1.67-.3,2.55.08.82.41,1.59.63,2.38.23.83.17,1.67.19,2.53.05,1.65.44,3.06,1.55,4.31.64.73,1.7-.34,1.06-1.06h0Z"/>
      <circle class="cls-5" cx="115.75" cy="114.01" r="4.08"/>
      <path class="cls-11" d="M152.76,110.52c.26-1.09.18-2.18.24-3.29.08-1.33.76-2.54,1.08-3.83.49-1.9.63-3.92.2-5.85-.3-1.35-.91-2.65-1.83-3.69-.18-.2-.44-.36-.45-.63-.01-.36.45-.87.65-1.14.53-.69,1.14-1.33,1.62-2.06.53-.81-.77-1.56-1.3-.76-.8,1.22-2.56,2.5-2.49,4.11.03.72.52,1.09.95,1.6.46.53.81,1.17,1.06,1.83.7,1.86.66,3.93.21,5.84-.29,1.25-.93,2.43-1.13,3.69s.02,2.53-.28,3.77c-.22.94,1.22,1.34,1.45.4h0Z"/>
      <path class="cls-11" d="M151.83,109.22c-1.17-1.33-1.09-2.9-1.13-4.57-.02-.84-.22-1.59-.47-2.38-.3-.94-.37-1.58-.18-2.55.26-1.36.13-2.68-.55-3.89-.78-1.39-1.96-2.54-2.88-3.83-.55-.78-1.85-.04-1.3.76.91,1.3,2.1,2.45,2.88,3.83.33.6.51,1.24.49,1.93-.02.87-.39,1.67-.3,2.55.08.82.41,1.59.63,2.38.23.83.17,1.67.19,2.53.05,1.65.44,3.06,1.55,4.31.64.73,1.7-.34,1.06-1.06h0Z"/>
      <circle class="cls-5" cx="151.31" cy="114.01" r="4.08"/>
      <path class="cls-11" d="M223.87,110.52c.26-1.09.18-2.18.24-3.29.08-1.33.76-2.54,1.08-3.83.49-1.9.63-3.92.2-5.85-.3-1.35-.91-2.65-1.83-3.69-.18-.2-.44-.36-.45-.63-.01-.36.45-.87.65-1.14.53-.69,1.14-1.33,1.62-2.06.53-.81-.77-1.56-1.3-.76-.8,1.22-2.56,2.5-2.49,4.11.03.72.52,1.09.95,1.6.46.53.81,1.17,1.06,1.83.7,1.86.66,3.93.21,5.84-.29,1.25-.93,2.43-1.13,3.69s.02,2.53-.28,3.77c-.22.94,1.22,1.34,1.45.4h0Z"/>
      <path class="cls-11" d="M222.94,109.22c-1.17-1.33-1.09-2.9-1.13-4.57-.02-.84-.22-1.59-.47-2.38-.3-.94-.37-1.58-.18-2.55.26-1.36.13-2.68-.55-3.89-.78-1.39-1.96-2.54-2.88-3.83-.55-.78-1.85-.04-1.3.76.91,1.3,2.1,2.45,2.88,3.83.33.6.51,1.24.49,1.93-.02.87-.39,1.67-.3,2.55.08.82.41,1.59.63,2.38.23.83.17,1.67.19,2.53.05,1.65.44,3.06,1.55,4.31.64.73,1.7-.34,1.06-1.06h0Z"/>
      <circle class="cls-5" cx="222.43" cy="114.01" r="4.08"/>
      <path class="cls-11" d="M259.43,110.52c.26-1.09.18-2.18.24-3.29.08-1.33.76-2.54,1.08-3.83.49-1.9.63-3.92.2-5.85-.3-1.35-.91-2.65-1.83-3.69-.18-.2-.44-.36-.45-.63-.01-.36.45-.87.65-1.14.53-.69,1.14-1.33,1.62-2.06.53-.81-.77-1.56-1.3-.76-.8,1.22-2.56,2.5-2.49,4.11.03.72.52,1.09.95,1.6.46.53.81,1.17,1.06,1.83.7,1.86.66,3.93.21,5.84-.29,1.25-.93,2.43-1.13,3.69s.02,2.53-.28,3.77c-.22.94,1.22,1.34,1.45.4h0Z"/>
      <path class="cls-11" d="M258.5,109.22c-1.17-1.33-1.09-2.9-1.13-4.57-.02-.84-.22-1.59-.47-2.38-.3-.94-.37-1.58-.18-2.55.26-1.36.13-2.68-.55-3.89-.78-1.39-1.96-2.54-2.88-3.83-.55-.78-1.85-.04-1.3.76.91,1.3,2.1,2.45,2.88,3.83.33.6.51,1.24.49,1.93-.02.87-.39,1.67-.3,2.55.08.82.41,1.59.63,2.38.23.83.17,1.67.19,2.53.05,1.65.44,3.06,1.55,4.31.64.73,1.7-.34,1.06-1.06h0Z"/>
      <circle class="cls-5" cx="257.98" cy="114.01" r="4.08"/>
      <path class="cls-11" d="M10.53,110.52c.26-1.09.18-2.18.24-3.29.08-1.33.76-2.54,1.08-3.83.49-1.9.63-3.92.2-5.85-.3-1.35-.91-2.65-1.83-3.69-.18-.2-.44-.36-.45-.63-.01-.36.45-.87.65-1.14.53-.69,1.14-1.33,1.62-2.06.53-.81-.77-1.56-1.3-.76-.8,1.22-2.56,2.5-2.49,4.11.03.72.52,1.09.95,1.6.46.53.81,1.17,1.06,1.83.7,1.86.66,3.93.21,5.84-.29,1.25-.93,2.43-1.13,3.69s.02,2.53-.28,3.77c-.22.94,1.22,1.34,1.45.4h0Z"/>
      <path class="cls-11" d="M9.6,109.22c-1.17-1.33-1.09-2.9-1.13-4.57-.02-.84-.22-1.59-.47-2.38-.3-.94-.37-1.58-.18-2.55.26-1.36.13-2.68-.55-3.89-.78-1.39-1.96-2.54-2.88-3.83-.55-.78-1.85-.04-1.3.76.91,1.3,2.1,2.45,2.88,3.83.33.6.51,1.24.49,1.93-.02.87-.39,1.67-.3,2.55.08.82.41,1.59.63,2.38.23.83.17,1.67.19,2.53.05,1.65.44,3.06,1.55,4.31.64.73,1.7-.34,1.06-1.06h0Z"/>
      <circle class="cls-5" cx="9.08" cy="114.01" r="4.08"/>
      <path class="cls-11" d="M72.75,110.52c.26-1.09.18-2.18.24-3.29.08-1.33.76-2.54,1.08-3.83.49-1.9.63-3.92.2-5.85-.3-1.35-.91-2.65-1.83-3.69-.18-.2-.44-.36-.45-.63-.01-.36.45-.87.65-1.14.53-.69,1.14-1.33,1.62-2.06.53-.81-.77-1.56-1.3-.76-.8,1.22-2.56,2.5-2.49,4.11.03.72.52,1.09.95,1.6.46.53.81,1.17,1.06,1.83.7,1.86.66,3.93.21,5.84-.29,1.25-.93,2.43-1.13,3.69s.02,2.53-.28,3.77c-.22.94,1.22,1.34,1.45.4h0Z"/>
      <path class="cls-11" d="M71.82,109.22c-1.17-1.33-1.09-2.9-1.13-4.57-.02-.84-.22-1.59-.47-2.38-.3-.94-.37-1.58-.18-2.55.26-1.36.13-2.68-.55-3.89-.78-1.39-1.96-2.54-2.88-3.83-.55-.78-1.85-.04-1.3.76.91,1.3,2.1,2.45,2.88,3.83.33.6.51,1.24.49,1.93-.02.87-.39,1.67-.3,2.55.08.82.41,1.59.63,2.38.23.83.17,1.67.19,2.53.05,1.65.44,3.06,1.55,4.31.64.73,1.7-.34,1.06-1.06h0Z"/>
      <circle class="cls-5" cx="71.31" cy="114.01" r="4.08"/>
      <path class="cls-11" d="M63.5,110.52c.29-1.2.17-2.41.29-3.62.13-1.33.79-2.6,1.06-3.91.36-1.75.46-3.58-.01-5.32-.31-1.15-.88-2.16-1.46-3.19-.31-.56-.56-1-.29-1.65.43-1.04,1.32-1.86,1.93-2.79.53-.81-.77-1.56-1.3-.76-1,1.53-2.89,3.12-2.06,5.14.4.96,1.05,1.8,1.44,2.77.64,1.62.68,3.39.36,5.08-.24,1.28-.8,2.47-1.06,3.74-.28,1.35-.03,2.75-.35,4.1-.23.94,1.22,1.34,1.45.4h0Z"/>
      <path class="cls-11" d="M61.91,109c-1.58-1.75-3.32-4.25-3.68-6.62-.09-.61.03-.6.53-.83.39-.18.74-.37.99-.73.33-.5.29-1.14.32-1.71.04-.84.07-1.69.1-2.53.07-2.58.51-6.72-2.34-8.07-.87-.41-1.63.88-.76,1.3s1.23,1.08,1.42,2.06c.44,2.28.2,4.76.09,7.06-.03.75.06,1.03-.61,1.34-.38.17-.73.33-.98.69-.57.8-.22,2.01.07,2.85.78,2.28,2.18,4.48,3.79,6.26.65.72,1.71-.35,1.06-1.06h0Z"/>
      <circle class="cls-5" cx="62.06" cy="114.01" r="4.08"/>
      <path class="cls-11" d="M45.72,110.52c.29-1.2.17-2.41.29-3.62.13-1.33.79-2.6,1.06-3.91.36-1.75.46-3.58-.01-5.32-.31-1.15-.88-2.16-1.46-3.19-.31-.56-.56-1-.29-1.65.43-1.04,1.32-1.86,1.93-2.79.53-.81-.77-1.56-1.3-.76-1,1.53-2.89,3.12-2.06,5.14.4.96,1.05,1.8,1.44,2.77.64,1.62.68,3.39.36,5.08-.24,1.28-.8,2.47-1.06,3.74-.28,1.35-.03,2.75-.35,4.1-.23.94,1.22,1.34,1.45.4h0Z"/>
      <path class="cls-11" d="M44.13,109c-1.58-1.75-3.32-4.25-3.68-6.62-.09-.61.03-.6.53-.83.39-.18.74-.37.99-.73.33-.5.29-1.14.32-1.71.04-.84.07-1.69.1-2.53.07-2.58.51-6.72-2.34-8.07-.87-.41-1.63.88-.76,1.3s1.23,1.08,1.42,2.06c.44,2.28.2,4.76.09,7.06-.03.75.06,1.03-.61,1.34-.38.17-.73.33-.98.69-.57.8-.22,2.01.07,2.85.78,2.28,2.18,4.48,3.79,6.26.65.72,1.71-.35,1.06-1.06h0Z"/>
      <circle class="cls-5" cx="44.28" cy="114.01" r="4.08"/>
      <path class="cls-11" d="M19.06,110.52c.29-1.2.17-2.41.29-3.62.13-1.33.79-2.6,1.06-3.91.36-1.75.46-3.58-.01-5.32-.31-1.15-.88-2.16-1.46-3.19-.31-.56-.56-1-.29-1.65.43-1.04,1.32-1.86,1.93-2.79.53-.81-.77-1.56-1.3-.76-1,1.53-2.89,3.12-2.06,5.14.4.96,1.05,1.8,1.44,2.77.64,1.62.68,3.39.36,5.08-.24,1.28-.8,2.47-1.06,3.74-.28,1.35-.03,2.75-.35,4.1-.23.94,1.22,1.34,1.45.4h0Z"/>
      <path class="cls-11" d="M17.47,109c-1.58-1.75-3.32-4.25-3.68-6.62-.09-.61.03-.6.53-.83.39-.18.74-.37.99-.73.33-.5.29-1.14.32-1.71.04-.84.07-1.69.1-2.53.07-2.58.51-6.72-2.34-8.07-.87-.41-1.63.88-.76,1.3s1.23,1.08,1.42,2.06c.44,2.28.2,4.76.09,7.06-.03.75.06,1.03-.61,1.34-.38.17-.73.33-.98.69-.57.8-.22,2.01.07,2.85.78,2.28,2.18,4.48,3.79,6.26.65.72,1.71-.35,1.06-1.06h0Z"/>
      <circle class="cls-5" cx="17.61" cy="114.01" r="4.08"/>
      <path class="cls-11" d="M125.73,110.52c.29-1.2.17-2.41.29-3.62.13-1.33.79-2.6,1.06-3.91.36-1.75.46-3.58-.01-5.32-.31-1.15-.88-2.16-1.46-3.19-.31-.56-.56-1-.29-1.65.43-1.04,1.32-1.86,1.93-2.79.53-.81-.77-1.56-1.3-.76-1,1.53-2.89,3.12-2.06,5.14.4.96,1.05,1.8,1.44,2.77.64,1.62.68,3.39.36,5.08-.24,1.28-.8,2.47-1.06,3.74-.28,1.35-.03,2.75-.35,4.1-.23.94,1.22,1.34,1.45.4h0Z"/>
      <path class="cls-11" d="M124.14,109c-1.58-1.75-3.32-4.25-3.68-6.62-.09-.61.03-.6.53-.83.39-.18.74-.37.99-.73.33-.5.29-1.14.32-1.71.04-.84.07-1.69.1-2.53.07-2.58.51-6.72-2.34-8.07-.87-.41-1.63.88-.76,1.3s1.23,1.08,1.42,2.06c.44,2.28.2,4.76.09,7.06-.03.75.06,1.03-.61,1.34-.38.17-.73.33-.98.69-.57.8-.22,2.01.07,2.85.78,2.28,2.18,4.48,3.79,6.26.65.72,1.71-.35,1.06-1.06h0Z"/>
      <circle class="cls-5" cx="124.28" cy="114.01" r="4.08"/>
      <path class="cls-11" d="M134.62,110.52c.29-1.2.17-2.41.29-3.62.13-1.33.79-2.6,1.06-3.91.36-1.75.46-3.58-.01-5.32-.31-1.15-.88-2.16-1.46-3.19-.31-.56-.56-1-.29-1.65.43-1.04,1.32-1.86,1.93-2.79.53-.81-.77-1.56-1.3-.76-1,1.53-2.89,3.12-2.06,5.14.4.96,1.05,1.8,1.44,2.77.64,1.62.68,3.39.36,5.08-.24,1.28-.8,2.47-1.06,3.74-.28,1.35-.03,2.75-.35,4.1-.23.94,1.22,1.34,1.45.4h0Z"/>
      <path class="cls-11" d="M133.03,109c-1.58-1.75-3.32-4.25-3.68-6.62-.09-.61.03-.6.53-.83.39-.18.74-.37.99-.73.33-.5.29-1.14.32-1.71.04-.84.07-1.69.1-2.53.07-2.58.51-6.72-2.34-8.07-.87-.41-1.63.88-.76,1.3s1.23,1.08,1.42,2.06c.44,2.28.2,4.76.09,7.06-.03.75.06,1.03-.61,1.34-.38.17-.73.33-.98.69-.57.8-.22,2.01.07,2.85.78,2.28,2.18,4.48,3.79,6.26.65.72,1.71-.35,1.06-1.06h0Z"/>
      <circle class="cls-5" cx="133.17" cy="114.01" r="4.08"/>
      <path class="cls-11" d="M179.06,110.52c.29-1.2.17-2.41.29-3.62.13-1.33.79-2.6,1.06-3.91.36-1.75.46-3.58-.01-5.32-.31-1.15-.88-2.16-1.46-3.19-.31-.56-.56-1-.29-1.65.43-1.04,1.32-1.86,1.93-2.79.53-.81-.77-1.56-1.3-.76-1,1.53-2.89,3.12-2.06,5.14.4.96,1.05,1.8,1.44,2.77.64,1.62.68,3.39.36,5.08-.24,1.28-.8,2.47-1.06,3.74-.28,1.35-.03,2.75-.35,4.1-.23.94,1.22,1.34,1.45.4h0Z"/>
      <path class="cls-11" d="M177.47,109c-1.58-1.75-3.32-4.25-3.68-6.62-.09-.61.03-.6.53-.83.39-.18.74-.37.99-.73.33-.5.29-1.14.32-1.71.04-.84.07-1.69.1-2.53.07-2.58.51-6.72-2.34-8.07-.87-.41-1.63.88-.76,1.3s1.23,1.08,1.42,2.06c.44,2.28.2,4.76.09,7.06-.03.75.06,1.03-.61,1.34-.38.17-.73.33-.98.69-.57.8-.22,2.01.07,2.85.78,2.28,2.18,4.48,3.79,6.26.65.72,1.71-.35,1.06-1.06h0Z"/>
      <circle class="cls-5" cx="177.62" cy="114.01" r="4.08"/>
      <path class="cls-11" d="M196.84,110.52c.29-1.2.17-2.41.29-3.62.13-1.33.79-2.6,1.06-3.91.36-1.75.46-3.58-.01-5.32-.31-1.15-.88-2.16-1.46-3.19-.31-.56-.56-1-.29-1.65.43-1.04,1.32-1.86,1.93-2.79.53-.81-.77-1.56-1.3-.76-1,1.53-2.89,3.12-2.06,5.14.4.96,1.05,1.8,1.44,2.77.64,1.62.68,3.39.36,5.08-.24,1.28-.8,2.47-1.06,3.74-.28,1.35-.03,2.75-.35,4.1-.23.94,1.22,1.34,1.45.4h0Z"/>
      <path class="cls-11" d="M195.25,109c-1.58-1.75-3.32-4.25-3.68-6.62-.09-.61.03-.6.53-.83.39-.18.74-.37.99-.73.33-.5.29-1.14.32-1.71.04-.84.07-1.69.1-2.53.07-2.58.51-6.72-2.34-8.07-.87-.41-1.63.88-.76,1.3s1.23,1.08,1.42,2.06c.44,2.28.2,4.76.09,7.06-.03.75.06,1.03-.61,1.34-.38.17-.73.33-.98.69-.57.8-.22,2.01.07,2.85.78,2.28,2.18,4.48,3.79,6.26.65.72,1.71-.35,1.06-1.06h0Z"/>
      <circle class="cls-5" cx="195.4" cy="114.01" r="4.08"/>
      <path class="cls-11" d="M214.62,110.52c.29-1.2.17-2.41.29-3.62.13-1.33.79-2.6,1.06-3.91.36-1.75.46-3.58-.01-5.32-.31-1.15-.88-2.16-1.46-3.19-.31-.56-.56-1-.29-1.65.43-1.04,1.32-1.86,1.93-2.79.53-.81-.77-1.56-1.3-.76-1,1.53-2.89,3.12-2.06,5.14.4.96,1.05,1.8,1.44,2.77.64,1.62.68,3.39.36,5.08-.24,1.28-.8,2.47-1.06,3.74-.28,1.35-.03,2.75-.35,4.1-.23.94,1.22,1.34,1.45.4h0Z"/>
      <path class="cls-11" d="M213.03,109c-1.58-1.75-3.32-4.25-3.68-6.62-.09-.61.03-.6.53-.83.39-.18.74-.37.99-.73.33-.5.29-1.14.32-1.71.04-.84.07-1.69.1-2.53.07-2.58.51-6.72-2.34-8.07-.87-.41-1.63.88-.76,1.3s1.23,1.08,1.42,2.06c.44,2.28.2,4.76.09,7.06-.03.75.06,1.03-.61,1.34-.38.17-.73.33-.98.69-.57.8-.22,2.01.07,2.85.78,2.28,2.18,4.48,3.79,6.26.65.72,1.71-.35,1.06-1.06h0Z"/>
      <circle class="cls-5" cx="213.18" cy="114.01" r="4.08"/>
      <path class="cls-11" d="M232.4,110.52c.29-1.2.17-2.41.29-3.62.13-1.33.79-2.6,1.06-3.91.36-1.75.46-3.58-.01-5.32-.31-1.15-.88-2.16-1.46-3.19-.31-.56-.56-1-.29-1.65.43-1.04,1.32-1.86,1.93-2.79.53-.81-.77-1.56-1.3-.76-1,1.53-2.89,3.12-2.06,5.14.4.96,1.05,1.8,1.44,2.77.64,1.62.68,3.39.36,5.08-.24,1.28-.8,2.47-1.06,3.74-.28,1.35-.03,2.75-.35,4.1-.23.94,1.22,1.34,1.45.4h0Z"/>
      <path class="cls-11" d="M230.81,109c-1.58-1.75-3.32-4.25-3.68-6.62-.09-.61.03-.6.53-.83.39-.18.74-.37.99-.73.33-.5.29-1.14.32-1.71.04-.84.07-1.69.1-2.53.07-2.58.51-6.72-2.34-8.07-.87-.41-1.63.88-.76,1.3s1.23,1.08,1.42,2.06c.44,2.28.2,4.76.09,7.06-.03.75.06,1.03-.61,1.34-.38.17-.73.33-.98.69-.57.8-.22,2.01.07,2.85.78,2.28,2.18,4.48,3.79,6.26.65.72,1.71-.35,1.06-1.06h0Z"/>
      <circle class="cls-5" cx="230.96" cy="114.01" r="4.08"/>
      <path class="cls-11" d="M267.96,110.52c.29-1.2.17-2.41.29-3.62.13-1.33.79-2.6,1.06-3.91.36-1.75.46-3.58-.01-5.32-.31-1.15-.88-2.16-1.46-3.19-.31-.56-.56-1-.29-1.65.43-1.04,1.32-1.86,1.93-2.79.53-.81-.77-1.56-1.3-.76-1,1.53-2.89,3.12-2.06,5.14.4.96,1.05,1.8,1.44,2.77.64,1.62.68,3.39.36,5.08-.24,1.28-.8,2.47-1.06,3.74-.28,1.35-.03,2.75-.35,4.1-.23.94,1.22,1.34,1.45.4h0Z"/>
      <path class="cls-11" d="M266.37,109c-1.58-1.75-3.32-4.25-3.68-6.62-.09-.61.03-.6.53-.83.39-.18.74-.37.99-.73.33-.5.29-1.14.32-1.71.04-.84.07-1.69.1-2.53.07-2.58.51-6.72-2.34-8.07-.87-.41-1.63.88-.76,1.3s1.23,1.08,1.42,2.06c.44,2.28.2,4.76.09,7.06-.03.75.06,1.03-.61,1.34-.38.17-.73.33-.98.69-.57.8-.22,2.01.07,2.85.78,2.28,2.18,4.48,3.79,6.26.65.72,1.71-.35,1.06-1.06h0Z"/>
      <circle class="cls-5" cx="266.51" cy="114.01" r="4.08"/>
      <path class="cls-11" d="M241.29,110.52c.29-1.2.17-2.41.29-3.62.13-1.33.79-2.6,1.06-3.91.36-1.75.46-3.58-.01-5.32-.31-1.15-.88-2.16-1.46-3.19-.31-.56-.56-1-.29-1.65.43-1.04,1.32-1.86,1.93-2.79.53-.81-.77-1.56-1.3-.76-1,1.53-2.89,3.12-2.06,5.14.4.96,1.05,1.8,1.44,2.77.64,1.62.68,3.39.36,5.08-.24,1.28-.8,2.47-1.06,3.74-.28,1.35-.03,2.75-.35,4.1-.23.94,1.22,1.34,1.45.4h0Z"/>
      <path class="cls-11" d="M239.7,109c-1.58-1.75-3.32-4.25-3.68-6.62-.09-.61.03-.6.53-.83.39-.18.74-.37.99-.73.33-.5.29-1.14.32-1.71.04-.84.07-1.69.1-2.53.07-2.58.51-6.72-2.34-8.07-.87-.41-1.63.88-.76,1.3s1.23,1.08,1.42,2.06c.44,2.28.2,4.76.09,7.06-.03.75.06,1.03-.61,1.34-.38.17-.73.33-.98.69-.57.8-.22,2.01.07,2.85.78,2.28,2.18,4.48,3.79,6.26.65.72,1.71-.35,1.06-1.06h0Z"/>
      <circle class="cls-5" cx="239.85" cy="114.01" r="4.08"/>
      <path class="cls-11" d="M107.95,110.52c.29-1.2.17-2.41.29-3.62.13-1.33.79-2.6,1.06-3.91.36-1.75.46-3.58-.01-5.32-.31-1.15-.88-2.16-1.46-3.19-.31-.56-.56-1-.29-1.65.43-1.04,1.32-1.86,1.93-2.79.53-.81-.77-1.56-1.3-.76-1,1.53-2.89,3.12-2.06,5.14.4.96,1.05,1.8,1.44,2.77.64,1.62.68,3.39.36,5.08-.24,1.28-.8,2.47-1.06,3.74-.28,1.35-.03,2.75-.35,4.1-.23.94,1.22,1.34,1.45.4h0Z"/>
      <path class="cls-11" d="M106.36,109c-1.58-1.75-3.32-4.25-3.68-6.62-.09-.61.03-.6.53-.83.39-.18.74-.37.99-.73.33-.5.29-1.14.32-1.71.04-.84.07-1.69.1-2.53.07-2.58.51-6.72-2.34-8.07-.87-.41-1.63.88-.76,1.3s1.23,1.08,1.42,2.06c.44,2.28.2,4.76.09,7.06-.03.75.06,1.03-.61,1.34-.38.17-.73.33-.98.69-.57.8-.22,2.01.07,2.85.78,2.28,2.18,4.48,3.79,6.26.65.72,1.71-.35,1.06-1.06h0Z"/>
      <circle class="cls-5" cx="106.5" cy="114.01" r="4.08"/>
    </g>
    <g>
      <circle class="cls-6" cx="86.23" cy="28.38" r="7.38"/>
      <circle class="cls-2" cx="94.95" cy="28.38" r="7.38"/>
    </g>
    <g>
      <circle class="cls-3" cx="219.81" cy="24.52" r="7.12"/>
      <circle class="cls-4" cx="228.94" cy="24.61" r="8.38"/>
      <circle class="cls-9" cx="237.41" cy="24.52" r="7.12"/>
    </g>
    <g>
      <circle class="cls-8" cx="195.02" cy="157.23" r="14.25"/>
      <g>
        <line class="cls-10" x1="195.02" y1="147.34" x2="195.02" y2="167.12"/>
        <line class="cls-10" x1="185.47" y1="157.23" x2="204.58" y2="157.23"/>
      </g>
    </g>
    <g>
      <circle class="cls-7" cx="98.8" cy="142.98" r="10.06"/>
      <g>
        <line class="cls-10" x1="98.8" y1="136.11" x2="98.8" y2="149.86"/>
        <line class="cls-10" x1="92.26" y1="142.98" x2="105.5" y2="142.98"/>
      </g>
    </g>
  </g>
</svg>