<?xml version="1.0" encoding="UTF-8"?>
<svg id="b" data-name="Layer 2" xmlns="http://www.w3.org/2000/svg" width="548" height="373" xmlns:xlink="http://www.w3.org/1999/xlink" viewBox="0 0 548 373">
  <defs>
    <style>
      .l {
        fill: url(#h);
      }

      .l, .m, .n, .o, .p, .q, .r, .s, .t {
        stroke: #000;
        stroke-miterlimit: 10;
      }

      .l, .n, .o, .r, .s {
        stroke-width: 3px;
      }

      .m {
        fill: #231f20;
      }

      .m, .q, .t {
        stroke-width: 4px;
      }

      .u {
        fill: url(#d);
      }

      .n {
        fill: url(#g);
      }

      .o {
        fill: url(#f);
      }

      .v {
        fill: #ef5ea0;
      }

      .p {
        fill: #fbb03b;
        stroke-width: 2px;
      }

      .q {
        fill: url(#j);
      }

      .r {
        fill: url(#i);
      }

      .s {
        fill: url(#e);
      }

      .t {
        fill: url(#k);
      }
    </style>
    <linearGradient id="d" x1="274" y1="373" x2="274" y2="0" gradientUnits="userSpaceOnUse">
      <stop offset="0" stop-color="#fff9f0"/>
      <stop offset=".35" stop-color="#fff9f0"/>
      <stop offset=".66" stop-color="#b8dfff"/>
      <stop offset="1" stop-color="#b8dfff"/>
    </linearGradient>
    <linearGradient id="e" x1="178.22" y1="312.2" x2="207.71" y2="312.2" gradientUnits="userSpaceOnUse">
      <stop offset="0" stop-color="#fff"/>
      <stop offset=".05" stop-color="#fce0df"/>
      <stop offset=".13" stop-color="#f8b5b4"/>
      <stop offset=".21" stop-color="#f5908e"/>
      <stop offset=".3" stop-color="#f2706d"/>
      <stop offset=".4" stop-color="#f05653"/>
      <stop offset=".5" stop-color="#ef423f"/>
      <stop offset=".62" stop-color="#ed3430"/>
      <stop offset=".76" stop-color="#ed2c28"/>
      <stop offset="1" stop-color="#ed2a26"/>
    </linearGradient>
    <linearGradient id="f" x1="195.64" x2="225.13" xlink:href="#e"/>
    <linearGradient id="g" x1="433.83" y1="295.28" x2="462.32" y2="295.28" gradientUnits="userSpaceOnUse">
      <stop offset="0" stop-color="#fff"/>
      <stop offset=".06" stop-color="#fad7d9"/>
      <stop offset=".14" stop-color="#f5acaf"/>
      <stop offset=".22" stop-color="#f18689"/>
      <stop offset=".31" stop-color="#ed656a"/>
      <stop offset=".4" stop-color="#eb4b51"/>
      <stop offset=".51" stop-color="#e8373d"/>
      <stop offset=".62" stop-color="#e7282f"/>
      <stop offset=".76" stop-color="#e62027"/>
      <stop offset="1" stop-color="#e61e25"/>
    </linearGradient>
    <linearGradient id="h" x1="449.58" y1="295.45" x2="483.09" y2="295.45" gradientUnits="userSpaceOnUse">
      <stop offset="0" stop-color="#fff"/>
      <stop offset=".02" stop-color="#ececec"/>
      <stop offset=".09" stop-color="#bbb"/>
      <stop offset=".17" stop-color="#8e8e8e"/>
      <stop offset=".25" stop-color="#686868"/>
      <stop offset=".33" stop-color="#474747"/>
      <stop offset=".43" stop-color="#2d2d2d"/>
      <stop offset=".53" stop-color="#191919"/>
      <stop offset=".64" stop-color="#0a0a0a"/>
      <stop offset=".77" stop-color="#020202"/>
      <stop offset="1" stop-color="#000"/>
    </linearGradient>
    <linearGradient id="i" x1="469.02" y1="295.28" x2="497.5" y2="295.28" gradientUnits="userSpaceOnUse">
      <stop offset="0" stop-color="#fff"/>
      <stop offset=".06" stop-color="#f7d9db"/>
      <stop offset=".13" stop-color="#eeaeb1"/>
      <stop offset=".22" stop-color="#e7888b"/>
      <stop offset=".31" stop-color="#e0676c"/>
      <stop offset=".4" stop-color="#db4d53"/>
      <stop offset=".5" stop-color="#d7393f"/>
      <stop offset=".62" stop-color="#d42a31"/>
      <stop offset=".76" stop-color="#d22229"/>
      <stop offset="1" stop-color="#d22027"/>
    </linearGradient>
    <linearGradient id="j" x1="369.69" y1="63.29" x2="312.72" y2="63.29" gradientUnits="userSpaceOnUse">
      <stop offset="0" stop-color="#00a7d3"/>
      <stop offset=".23" stop-color="#02a7d3"/>
      <stop offset=".36" stop-color="#0aaad4"/>
      <stop offset=".47" stop-color="#19afd7"/>
      <stop offset=".57" stop-color="#2db6da"/>
      <stop offset=".67" stop-color="#47bfdf"/>
      <stop offset=".75" stop-color="#68cae4"/>
      <stop offset=".83" stop-color="#8ed8eb"/>
      <stop offset=".91" stop-color="#bbe7f3"/>
      <stop offset=".98" stop-color="#ecf8fb"/>
      <stop offset="1" stop-color="#fff"/>
    </linearGradient>
    <linearGradient id="k" x1="125.14" y1="86.49" x2="165.35" y2="86.49" gradientUnits="userSpaceOnUse">
      <stop offset="0" stop-color="#fff"/>
      <stop offset=".03" stop-color="#fff9e6"/>
      <stop offset=".1" stop-color="#ffefbb"/>
      <stop offset=".17" stop-color="#ffe795"/>
      <stop offset=".24" stop-color="#ffe074"/>
      <stop offset=".32" stop-color="#ffda5a"/>
      <stop offset=".41" stop-color="#ffd546"/>
      <stop offset=".51" stop-color="#ffd237"/>
      <stop offset=".63" stop-color="#ffd02f"/>
      <stop offset=".83" stop-color="#ffd02d"/>
    </linearGradient>
  </defs>
  <g id="c" data-name="Layer 2">
    <rect class="u" width="548" height="373"/>
    <g>
      <path class="v" d="M498.77,142.74c.98,3.58,1.26,7.24.87,10.93s-1.31,7.15-1.87,10.74-.79,6.98-.04,10.44,2.54,6.58,4.38,9.55c1.01,1.64,3.61.13,2.59-1.51-1.79-2.9-3.52-5.89-4.17-9.28s-.13-7.18.52-10.67,1.43-6.9,1.69-10.41-.14-7.15-1.08-10.59c-.51-1.86-3.41-1.07-2.89.8h0Z"/>
      <path class="v" d="M497.69,142.41c-2.45,2.67-4.93,5.59-5.99,9.13-1.14,3.83.15,7.35,1.22,11.01,2.08,7.1.8,14.79-3.34,20.9-1.09,1.6,1.51,3.1,2.59,1.51,4.03-5.94,5.55-13.34,4.31-20.39-.63-3.58-2.73-7.18-2.2-10.88s3.15-6.58,5.53-9.17c1.3-1.42-.81-3.55-2.12-2.12h0Z"/>
      <circle class="p" cx="498.78" cy="134.94" r="8.16"/>
      <path class="v" d="M338.83,142.74c.98,3.58,1.26,7.24.87,10.93s-1.31,7.15-1.87,10.74-.79,6.98-.04,10.44,2.54,6.58,4.38,9.55c1.01,1.64,3.61.13,2.59-1.51-1.79-2.9-3.52-5.89-4.17-9.28s-.13-7.18.52-10.67,1.43-6.9,1.69-10.41-.14-7.15-1.08-10.59c-.51-1.86-3.41-1.07-2.89.8h0Z"/>
      <path class="v" d="M337.75,142.41c-2.45,2.67-4.93,5.59-5.99,9.13-1.14,3.83.15,7.35,1.22,11.01,2.08,7.1.8,14.79-3.34,20.9-1.09,1.6,1.51,3.1,2.59,1.51,4.03-5.94,5.55-13.34,4.31-20.39-.63-3.58-2.73-7.18-2.2-10.88s3.15-6.58,5.53-9.17c1.3-1.42-.81-3.55-2.12-2.12h0Z"/>
      <circle class="p" cx="338.84" cy="134.94" r="8.16"/>
      <path class="v" d="M321.06,142.74c.98,3.58,1.26,7.24.87,10.93s-1.31,7.15-1.87,10.74-.79,6.98-.04,10.44,2.54,6.58,4.38,9.55c1.01,1.64,3.61.13,2.59-1.51-1.79-2.9-3.52-5.89-4.17-9.28s-.13-7.18.52-10.67,1.43-6.9,1.69-10.41-.14-7.15-1.08-10.59c-.51-1.86-3.41-1.07-2.89.8h0Z"/>
      <path class="v" d="M319.98,142.41c-2.45,2.67-4.93,5.59-5.99,9.13-1.14,3.83.15,7.35,1.22,11.01,2.08,7.1.8,14.79-3.34,20.9-1.09,1.6,1.51,3.1,2.59,1.51,4.03-5.94,5.55-13.34,4.31-20.39-.63-3.58-2.73-7.18-2.2-10.88s3.15-6.58,5.53-9.17c1.3-1.42-.81-3.55-2.12-2.12h0Z"/>
      <circle class="p" cx="321.07" cy="134.94" r="8.16"/>
      <path class="v" d="M196.67,142.74c.98,3.58,1.26,7.24.87,10.93s-1.31,7.15-1.87,10.74-.79,6.98-.04,10.44,2.54,6.58,4.38,9.55c1.01,1.64,3.61.13,2.59-1.51-1.79-2.9-3.52-5.89-4.17-9.28s-.13-7.18.52-10.67,1.43-6.9,1.69-10.41-.14-7.15-1.08-10.59c-.51-1.86-3.41-1.07-2.89.8h0Z"/>
      <path class="v" d="M195.58,142.41c-2.45,2.67-4.93,5.59-5.99,9.13-1.14,3.83.15,7.35,1.22,11.01,2.08,7.1.8,14.79-3.34,20.9-1.09,1.6,1.51,3.1,2.59,1.51,4.03-5.94,5.55-13.34,4.31-20.39-.63-3.58-2.73-7.18-2.2-10.88s3.15-6.58,5.53-9.17c1.3-1.42-.81-3.55-2.12-2.12h0Z"/>
      <circle class="p" cx="196.67" cy="134.94" r="8.16"/>
      <path class="v" d="M409.92,142.74c.98,3.58,1.26,7.24.87,10.93s-1.31,7.15-1.87,10.74-.79,6.98-.04,10.44,2.54,6.58,4.38,9.55c1.01,1.64,3.61.13,2.59-1.51-1.79-2.9-3.52-5.89-4.17-9.28s-.13-7.18.52-10.67,1.43-6.9,1.69-10.41-.14-7.15-1.08-10.59c-.51-1.86-3.41-1.07-2.89.8h0Z"/>
      <path class="v" d="M408.84,142.41c-2.45,2.67-4.93,5.59-5.99,9.13-1.14,3.83.15,7.35,1.22,11.01,2.08,7.1.8,14.79-3.34,20.9-1.09,1.6,1.51,3.1,2.59,1.51,4.03-5.94,5.55-13.34,4.31-20.39-.63-3.58-2.73-7.18-2.2-10.88s3.15-6.58,5.53-9.17c1.3-1.42-.81-3.55-2.12-2.12h0Z"/>
      <circle class="p" cx="409.92" cy="134.94" r="8.16"/>
      <path class="v" d="M374.38,142.74c.98,3.58,1.26,7.24.87,10.93s-1.31,7.15-1.87,10.74-.79,6.98-.04,10.44,2.54,6.58,4.38,9.55c1.01,1.64,3.61.13,2.59-1.51-1.79-2.9-3.52-5.89-4.17-9.28s-.13-7.18.52-10.67,1.43-6.9,1.69-10.41-.14-7.15-1.08-10.59c-.51-1.86-3.41-1.07-2.89.8h0Z"/>
      <path class="v" d="M373.29,142.41c-2.45,2.67-4.93,5.59-5.99,9.13-1.14,3.83.15,7.35,1.22,11.01,2.08,7.1.8,14.79-3.34,20.9-1.09,1.6,1.51,3.1,2.59,1.51,4.03-5.94,5.55-13.34,4.31-20.39-.63-3.58-2.73-7.18-2.2-10.88s3.15-6.58,5.53-9.17c1.3-1.42-.81-3.55-2.12-2.12h0Z"/>
      <circle class="p" cx="374.38" cy="134.94" r="8.16"/>
      <path class="v" d="M285.52,142.74c.98,3.58,1.26,7.24.87,10.93s-1.31,7.15-1.87,10.74-.79,6.98-.04,10.44,2.54,6.58,4.38,9.55c1.01,1.64,3.61.13,2.59-1.51-1.79-2.9-3.52-5.89-4.17-9.28s-.13-7.18.52-10.67,1.43-6.9,1.69-10.41-.14-7.15-1.08-10.59c-.51-1.86-3.41-1.07-2.89.8h0Z"/>
      <path class="v" d="M284.44,142.41c-2.45,2.67-4.93,5.59-5.99,9.13-1.14,3.83.15,7.35,1.22,11.01,2.08,7.1.8,14.79-3.34,20.9-1.09,1.6,1.51,3.1,2.59,1.51,4.03-5.94,5.55-13.34,4.31-20.39-.63-3.58-2.73-7.18-2.2-10.88s3.15-6.58,5.53-9.17c1.3-1.42-.81-3.55-2.12-2.12h0Z"/>
      <circle class="p" cx="285.53" cy="134.94" r="8.16"/>
      <path class="v" d="M161.12,142.74c.98,3.58,1.26,7.24.87,10.93s-1.31,7.15-1.87,10.74-.79,6.98-.04,10.44,2.54,6.58,4.38,9.55c1.01,1.64,3.61.13,2.59-1.51-1.79-2.9-3.52-5.89-4.17-9.28s-.13-7.18.52-10.67,1.43-6.9,1.69-10.41-.14-7.15-1.08-10.59c-.51-1.86-3.41-1.07-2.89.8h0Z"/>
      <path class="v" d="M160.04,142.41c-2.45,2.67-4.93,5.59-5.99,9.13-1.14,3.83.15,7.35,1.22,11.01,2.08,7.1.8,14.79-3.34,20.9-1.09,1.6,1.51,3.1,2.59,1.51,4.03-5.94,5.55-13.34,4.31-20.39-.63-3.58-2.73-7.18-2.2-10.88s3.15-6.58,5.53-9.17c1.3-1.42-.81-3.55-2.12-2.12h0Z"/>
      <circle class="p" cx="161.13" cy="134.94" r="8.16"/>
      <path class="v" d="M107.81,142.74c.98,3.58,1.26,7.24.87,10.93s-1.31,7.15-1.87,10.74-.79,6.98-.04,10.44,2.54,6.58,4.38,9.55c1.01,1.64,3.61.13,2.59-1.51-1.79-2.9-3.52-5.89-4.17-9.28s-.13-7.18.52-10.67,1.43-6.9,1.69-10.41-.14-7.15-1.08-10.59c-.51-1.86-3.41-1.07-2.89.8h0Z"/>
      <path class="v" d="M106.73,142.41c-2.45,2.67-4.93,5.59-5.99,9.13-1.14,3.83.15,7.35,1.22,11.01,2.08,7.1.8,14.79-3.34,20.9-1.09,1.6,1.51,3.1,2.59,1.51,4.03-5.94,5.55-13.34,4.31-20.39-.63-3.58-2.73-7.18-2.2-10.88s3.15-6.58,5.53-9.17c1.3-1.42-.81-3.55-2.12-2.12h0Z"/>
      <circle class="p" cx="107.82" cy="134.94" r="8.16"/>
      <path class="v" d="M54.5,142.74c.98,3.58,1.26,7.24.87,10.93s-1.31,7.15-1.87,10.74-.79,6.98-.04,10.44,2.54,6.58,4.38,9.55c1.01,1.64,3.61.13,2.59-1.51-1.79-2.9-3.52-5.89-4.17-9.28s-.13-7.18.52-10.67,1.43-6.9,1.69-10.41-.14-7.15-1.08-10.59c-.51-1.86-3.41-1.07-2.89.8h0Z"/>
      <path class="v" d="M53.42,142.41c-2.45,2.67-4.93,5.59-5.99,9.13-1.14,3.83.15,7.35,1.22,11.01,2.08,7.1.8,14.79-3.34,20.9-1.09,1.6,1.51,3.1,2.59,1.51,4.03-5.94,5.55-13.34,4.31-20.39-.63-3.58-2.73-7.18-2.2-10.88s3.15-6.58,5.53-9.17c1.3-1.42-.81-3.55-2.12-2.12h0Z"/>
      <circle class="p" cx="54.5" cy="134.94" r="8.16"/>
      <path class="v" d="M73.52,142.74c.48,1.86.3,3.77.38,5.66s.65,3.6,1.31,5.43c1.22,3.38,1.96,6.96,1.74,10.57-.15,2.44-.78,4.88-2.03,7-1.05,1.77-3.22,3.06-2.99,5.33.31,3.08,3.37,5.24,4.94,7.68,1.04,1.62,3.64.12,2.59-1.51-.74-1.15-1.65-2.17-2.52-3.22-.61-.74-2.06-2.14-2.04-3.2.01-.63.86-1.16,1.26-1.65.68-.83,1.28-1.71,1.76-2.67,2.78-5.43,2.46-11.88.7-17.57-.67-2.17-1.65-4.08-1.73-6.39-.07-2.1.05-4.19-.47-6.25-.48-1.87-3.37-1.08-2.89.8h0Z"/>
      <path class="v" d="M72.44,142.41c-2.25,2.53-3,5.43-3.1,8.75-.05,1.65.07,3.29-.37,4.89-.47,1.71-1.17,3.33-1.3,5.12s.63,3.3.63,5.01c0,1.27-.34,2.47-.96,3.57-1.55,2.79-3.95,5.09-5.77,7.7-1.11,1.59,1.49,3.09,2.59,1.51,1.77-2.54,4.05-4.76,5.62-7.44s1.8-5.55,1.12-8.51c-.41-1.76,0-3.13.55-4.83s.85-3.21.86-4.95c.03-3.17.02-6.2,2.25-8.7,1.28-1.44-.83-3.57-2.12-2.12h0Z"/>
      <circle class="p" cx="73.53" cy="134.94" r="8.16"/>
      <path class="v" d="M180.15,142.74c.48,1.86.3,3.77.38,5.66s.65,3.6,1.31,5.43c1.22,3.38,1.96,6.96,1.74,10.57-.15,2.44-.78,4.88-2.03,7-1.05,1.77-3.22,3.06-2.99,5.33.31,3.08,3.37,5.24,4.94,7.68,1.04,1.62,3.64.12,2.59-1.51-.74-1.15-1.65-2.17-2.52-3.22-.61-.74-2.06-2.14-2.04-3.2.01-.63.86-1.16,1.26-1.65.68-.83,1.28-1.71,1.76-2.67,2.78-5.43,2.46-11.88.7-17.57-.67-2.17-1.65-4.08-1.73-6.39-.07-2.1.05-4.19-.47-6.25-.48-1.87-3.37-1.08-2.89.8h0Z"/>
      <path class="v" d="M179.07,142.41c-2.25,2.53-3,5.43-3.1,8.75-.05,1.65.07,3.29-.37,4.89-.47,1.71-1.17,3.33-1.3,5.12s.63,3.3.63,5.01c0,1.27-.34,2.47-.96,3.57-1.55,2.79-3.95,5.09-5.77,7.7-1.11,1.59,1.49,3.09,2.59,1.51,1.77-2.54,4.05-4.76,5.62-7.44s1.8-5.55,1.12-8.51c-.41-1.76,0-3.13.55-4.83s.85-3.21.86-4.95c.03-3.17.02-6.2,2.25-8.7,1.28-1.44-.83-3.57-2.12-2.12h0Z"/>
      <circle class="p" cx="180.15" cy="134.94" r="8.16"/>
      <path class="v" d="M233.46,142.74c.48,1.86.3,3.77.38,5.66s.65,3.6,1.31,5.43c1.22,3.38,1.96,6.96,1.74,10.57-.15,2.44-.78,4.88-2.03,7-1.05,1.77-3.22,3.06-2.99,5.33.31,3.08,3.37,5.24,4.94,7.68,1.04,1.62,3.64.12,2.59-1.51-.74-1.15-1.65-2.17-2.52-3.22-.61-.74-2.06-2.14-2.04-3.2.01-.63.86-1.16,1.26-1.65.68-.83,1.28-1.71,1.76-2.67,2.78-5.43,2.46-11.88.7-17.57-.67-2.17-1.65-4.08-1.73-6.39-.07-2.1.05-4.19-.47-6.25-.48-1.87-3.37-1.08-2.89.8h0Z"/>
      <path class="v" d="M232.38,142.41c-2.25,2.53-3,5.43-3.1,8.75-.05,1.65.07,3.29-.37,4.89-.47,1.71-1.17,3.33-1.3,5.12s.63,3.3.63,5.01c0,1.27-.34,2.47-.96,3.57-1.55,2.79-3.95,5.09-5.77,7.7-1.11,1.59,1.49,3.09,2.59,1.51,1.77-2.54,4.05-4.76,5.62-7.44s1.8-5.55,1.12-8.51c-.41-1.76,0-3.13.55-4.83s.85-3.21.86-4.95c.03-3.17.02-6.2,2.25-8.7,1.28-1.44-.83-3.57-2.12-2.12h0Z"/>
      <circle class="p" cx="233.47" cy="134.94" r="8.16"/>
      <path class="v" d="M304.55,142.74c.48,1.86.3,3.77.38,5.66s.65,3.6,1.31,5.43c1.22,3.38,1.96,6.96,1.74,10.57-.15,2.44-.78,4.88-2.03,7-1.05,1.77-3.22,3.06-2.99,5.33.31,3.08,3.37,5.24,4.94,7.68,1.04,1.62,3.64.12,2.59-1.51-.74-1.15-1.65-2.17-2.52-3.22-.61-.74-2.06-2.14-2.04-3.2.01-.63.86-1.16,1.26-1.65.68-.83,1.28-1.71,1.76-2.67,2.78-5.43,2.46-11.88.7-17.57-.67-2.17-1.65-4.08-1.73-6.39-.07-2.1.05-4.19-.47-6.25-.48-1.87-3.37-1.08-2.89.8h0Z"/>
      <path class="v" d="M303.46,142.41c-2.25,2.53-3,5.43-3.1,8.75-.05,1.65.07,3.29-.37,4.89-.47,1.71-1.17,3.33-1.3,5.12s.63,3.3.63,5.01c0,1.27-.34,2.47-.96,3.57-1.55,2.79-3.95,5.09-5.77,7.7-1.11,1.59,1.49,3.09,2.59,1.51,1.77-2.54,4.05-4.76,5.62-7.44s1.8-5.55,1.12-8.51c-.41-1.76,0-3.13.55-4.83s.85-3.21.86-4.95c.03-3.17.02-6.2,2.25-8.7,1.28-1.44-.83-3.57-2.12-2.12h0Z"/>
      <circle class="p" cx="304.55" cy="134.94" r="8.16"/>
      <path class="v" d="M446.71,142.74c.48,1.86.3,3.77.38,5.66s.65,3.6,1.31,5.43c1.22,3.38,1.96,6.96,1.74,10.57-.15,2.44-.78,4.88-2.03,7-1.05,1.77-3.22,3.06-2.99,5.33.31,3.08,3.37,5.24,4.94,7.68,1.04,1.62,3.64.12,2.59-1.51-.74-1.15-1.65-2.17-2.52-3.22-.61-.74-2.06-2.14-2.04-3.2.01-.63.86-1.16,1.26-1.65.68-.83,1.28-1.71,1.76-2.67,2.78-5.43,2.46-11.88.7-17.57-.67-2.17-1.65-4.08-1.73-6.39-.07-2.1.05-4.19-.47-6.25-.48-1.87-3.37-1.08-2.89.8h0Z"/>
      <path class="v" d="M445.63,142.41c-2.25,2.53-3,5.43-3.1,8.75-.05,1.65.07,3.29-.37,4.89-.47,1.71-1.17,3.33-1.3,5.12s.63,3.3.63,5.01c0,1.27-.34,2.47-.96,3.57-1.55,2.79-3.95,5.09-5.77,7.7-1.11,1.59,1.49,3.09,2.59,1.51,1.77-2.54,4.05-4.76,5.62-7.44s1.8-5.55,1.12-8.51c-.41-1.76,0-3.13.55-4.83s.85-3.21.86-4.95c.03-3.17.02-6.2,2.25-8.7,1.28-1.44-.83-3.57-2.12-2.12h0Z"/>
      <circle class="p" cx="446.72" cy="134.94" r="8.16"/>
      <path class="v" d="M517.8,142.74c.48,1.86.3,3.77.38,5.66s.65,3.6,1.31,5.43c1.22,3.38,1.96,6.96,1.74,10.57-.15,2.44-.78,4.88-2.03,7-1.05,1.77-3.22,3.06-2.99,5.33.31,3.08,3.37,5.24,4.94,7.68,1.04,1.62,3.64.12,2.59-1.51-.74-1.15-1.65-2.17-2.52-3.22-.61-.74-2.06-2.14-2.04-3.2.01-.63.86-1.16,1.26-1.65.68-.83,1.28-1.71,1.76-2.67,2.78-5.43,2.46-11.88.7-17.57-.67-2.17-1.65-4.08-1.73-6.39-.07-2.1.05-4.19-.47-6.25-.48-1.87-3.37-1.08-2.89.8h0Z"/>
      <path class="v" d="M516.71,142.41c-2.25,2.53-3,5.43-3.1,8.75-.05,1.65.07,3.29-.37,4.89-.47,1.71-1.17,3.33-1.3,5.12s.63,3.3.63,5.01c0,1.27-.34,2.47-.96,3.57-1.55,2.79-3.95,5.09-5.77,7.7-1.11,1.59,1.49,3.09,2.59,1.51,1.77-2.54,4.05-4.76,5.62-7.44s1.8-5.55,1.12-8.51c-.41-1.76,0-3.13.55-4.83s.85-3.21.86-4.95c.03-3.17.02-6.2,2.25-8.7,1.28-1.44-.83-3.57-2.12-2.12h0Z"/>
      <circle class="p" cx="517.8" cy="134.94" r="8.16"/>
      <path class="v" d="M20.21,142.74c.48,1.86.3,3.77.38,5.66s.65,3.6,1.31,5.43c1.22,3.38,1.96,6.96,1.74,10.57-.15,2.44-.78,4.88-2.03,7-1.05,1.77-3.22,3.06-2.99,5.33.31,3.08,3.37,5.24,4.94,7.68,1.04,1.62,3.64.12,2.59-1.51-.74-1.15-1.65-2.17-2.52-3.22-.61-.74-2.06-2.14-2.04-3.2.01-.63.86-1.16,1.26-1.65.68-.83,1.28-1.71,1.76-2.67,2.78-5.43,2.46-11.88.7-17.57-.67-2.17-1.65-4.08-1.73-6.39-.07-2.1.05-4.19-.47-6.25-.48-1.87-3.37-1.08-2.89.8h0Z"/>
      <path class="v" d="M19.13,142.41c-2.25,2.53-3,5.43-3.1,8.75-.05,1.65.07,3.29-.37,4.89-.47,1.71-1.17,3.33-1.3,5.12s.63,3.3.63,5.01c0,1.27-.34,2.47-.96,3.57-1.55,2.79-3.95,5.09-5.77,7.7-1.11,1.59,1.49,3.09,2.59,1.51,1.77-2.54,4.05-4.76,5.62-7.44s1.8-5.55,1.12-8.51c-.41-1.76,0-3.13.55-4.83s.85-3.21.86-4.95c.03-3.17.02-6.2,2.25-8.7,1.28-1.44-.83-3.57-2.12-2.12h0Z"/>
      <circle class="p" cx="20.21" cy="134.94" r="8.16"/>
      <path class="v" d="M144.61,142.74c.48,1.86.3,3.77.38,5.66s.65,3.6,1.31,5.43c1.22,3.38,1.96,6.96,1.74,10.57-.15,2.44-.78,4.88-2.03,7-1.05,1.77-3.22,3.06-2.99,5.33.31,3.08,3.37,5.24,4.94,7.68,1.04,1.62,3.64.12,2.59-1.51-.74-1.15-1.65-2.17-2.52-3.22-.61-.74-2.06-2.14-2.04-3.2.01-.63.86-1.16,1.26-1.65.68-.83,1.28-1.71,1.76-2.67,2.78-5.43,2.46-11.88.7-17.57-.67-2.17-1.65-4.08-1.73-6.39-.07-2.1.05-4.19-.47-6.25-.48-1.87-3.37-1.08-2.89.8h0Z"/>
      <path class="v" d="M143.52,142.41c-2.25,2.53-3,5.43-3.1,8.75-.05,1.65.07,3.29-.37,4.89-.47,1.71-1.17,3.33-1.3,5.12s.63,3.3.63,5.01c0,1.27-.34,2.47-.96,3.57-1.55,2.79-3.95,5.09-5.77,7.7-1.11,1.59,1.49,3.09,2.59,1.51,1.77-2.54,4.05-4.76,5.62-7.44s1.8-5.55,1.12-8.51c-.41-1.76,0-3.13.55-4.83s.85-3.21.86-4.95c.03-3.17.02-6.2,2.25-8.7,1.28-1.44-.83-3.57-2.12-2.12h0Z"/>
      <circle class="p" cx="144.61" cy="134.94" r="8.16"/>
      <path class="v" d="M126.12,142.74c.52,2.02.31,4.08.45,6.14.15,2.21.96,4.14,1.57,6.24.91,3.1,1.47,6.38,1.07,9.62-.24,1.96-.89,3.84-1.81,5.58-.72,1.37-1.65,2.67-2.19,4.13-1.44,3.89,2.38,7.04,4.25,9.96,1.04,1.62,3.64.12,2.59-1.51-.93-1.44-2.09-2.71-3.05-4.13-.43-.63-.89-1.33-1.04-2.09-.05-.24-.09-.5-.06-.75.02-.2.11-.43.18-.62-.05.13-.06.14,0,0,.61-1.38,1.5-2.63,2.17-3.98,2.44-4.92,2.48-10.3,1.17-15.57-.57-2.29-1.69-4.5-1.86-6.88s.03-4.65-.56-6.94c-.48-1.87-3.37-1.08-2.89.8h0Z"/>
      <path class="v" d="M123.71,142.85c-2.66,2.92-4.9,6.39-6.55,9.97-1.2,2.62-3.35,7.48.08,9.33.47.26,1.19.34,1.6.71.5.45.29,1.62.32,2.25.11,2.35.2,4.7.22,7.06.02,2.69.09,5.55-.66,8.16-.16.57-.24.78-.41,1.09-.1.18-.2.36-.31.53-.23.36,0,.05-.19.25-.13.14-.26.27-.39.39-.32.3.02.02-.22.17-.34.22-.69.42-1.06.59-1.75.81-.23,3.4,1.51,2.59,3.97-1.85,4.5-6.29,4.67-10.21.08-1.89.07-3.79.02-5.68-.03-1.21-.07-2.41-.12-3.62s.03-2.65-.23-3.89c-.16-.78-.55-1.43-1.16-1.94s-1.31-.62-1.97-1c-.46-.27-.48-.25-.46-.82.02-.79.28-1.61.52-2.35,1.35-4.15,3.98-8.25,6.91-11.47,1.3-1.43-.82-3.55-2.12-2.12h0Z"/>
      <circle class="p" cx="126.12" cy="134.94" r="8.16"/>
      <path class="v" d="M90.57,142.74c.52,2.02.31,4.08.45,6.14.15,2.21.96,4.14,1.57,6.24.91,3.1,1.47,6.38,1.07,9.62-.24,1.96-.89,3.84-1.81,5.58-.72,1.37-1.65,2.67-2.19,4.13-1.44,3.89,2.38,7.04,4.25,9.96,1.04,1.62,3.64.12,2.59-1.51-.93-1.44-2.09-2.71-3.05-4.13-.43-.63-.89-1.33-1.04-2.09-.05-.24-.09-.5-.06-.75.02-.2.11-.43.18-.62-.05.13-.06.14,0,0,.61-1.38,1.5-2.63,2.17-3.98,2.44-4.92,2.48-10.3,1.17-15.57-.57-2.29-1.69-4.5-1.86-6.88s.03-4.65-.56-6.94c-.48-1.87-3.37-1.08-2.89.8h0Z"/>
      <path class="v" d="M88.17,142.85c-2.66,2.92-4.9,6.39-6.55,9.97-1.2,2.62-3.35,7.48.08,9.33.47.26,1.19.34,1.6.71.5.45.29,1.62.32,2.25.11,2.35.2,4.7.22,7.06.02,2.69.09,5.55-.66,8.16-.16.57-.24.78-.41,1.09-.1.18-.2.36-.31.53-.23.36,0,.05-.19.25-.13.14-.26.27-.39.39-.32.3.02.02-.22.17-.34.22-.69.42-1.06.59-1.75.81-.23,3.4,1.51,2.59,3.97-1.85,4.5-6.29,4.67-10.21.08-1.89.07-3.79.02-5.68-.03-1.21-.07-2.41-.12-3.62s.03-2.65-.23-3.89c-.16-.78-.55-1.43-1.16-1.94s-1.31-.62-1.97-1c-.46-.27-.48-.25-.46-.82.02-.79.28-1.61.52-2.35,1.35-4.15,3.98-8.25,6.91-11.47,1.3-1.43-.82-3.55-2.12-2.12h0Z"/>
      <circle class="p" cx="90.58" cy="134.94" r="8.16"/>
      <path class="v" d="M37.26,142.74c.52,2.02.31,4.08.45,6.14.15,2.21.96,4.14,1.57,6.24.91,3.1,1.47,6.38,1.07,9.62-.24,1.96-.89,3.84-1.81,5.58-.72,1.37-1.65,2.67-2.19,4.13-1.44,3.89,2.38,7.04,4.25,9.96,1.04,1.62,3.64.12,2.59-1.51-.93-1.44-2.09-2.71-3.05-4.13-.43-.63-.89-1.33-1.04-2.09-.05-.24-.09-.5-.06-.75.02-.2.11-.43.18-.62-.05.13-.06.14,0,0,.61-1.38,1.5-2.63,2.17-3.98,2.44-4.92,2.48-10.3,1.17-15.57-.57-2.29-1.69-4.5-1.86-6.88s.03-4.65-.56-6.94c-.48-1.87-3.37-1.08-2.89.8h0Z"/>
      <path class="v" d="M34.85,142.85c-2.66,2.92-4.9,6.39-6.55,9.97-1.2,2.62-3.35,7.48.08,9.33.47.26,1.19.34,1.6.71.5.45.29,1.62.32,2.25.11,2.35.2,4.7.22,7.06.02,2.69.09,5.55-.66,8.16-.16.57-.24.78-.41,1.09-.1.18-.2.36-.31.53-.23.36,0,.05-.19.25-.13.14-.26.27-.39.39-.32.3.02.02-.22.17-.34.22-.69.42-1.06.59-1.75.81-.23,3.4,1.51,2.59,3.97-1.85,4.5-6.29,4.67-10.21.08-1.89.07-3.79.02-5.68-.03-1.21-.07-2.41-.12-3.62s.03-2.65-.23-3.89c-.16-.78-.55-1.43-1.16-1.94s-1.31-.62-1.97-1c-.46-.27-.48-.25-.46-.82.02-.79.28-1.61.52-2.35,1.35-4.15,3.98-8.25,6.91-11.47,1.3-1.43-.82-3.55-2.12-2.12h0Z"/>
      <circle class="p" cx="37.27" cy="134.94" r="8.16"/>
      <path class="v" d="M250.51,142.74c.52,2.02.31,4.08.45,6.14.15,2.21.96,4.14,1.57,6.24.91,3.1,1.47,6.38,1.07,9.62-.24,1.96-.89,3.84-1.81,5.58-.72,1.37-1.65,2.67-2.19,4.13-1.44,3.89,2.38,7.04,4.25,9.96,1.04,1.62,3.64.12,2.59-1.51-.93-1.44-2.09-2.71-3.05-4.13-.43-.63-.89-1.33-1.04-2.09-.05-.24-.09-.5-.06-.75.02-.2.11-.43.18-.62-.05.13-.06.14,0,0,.61-1.38,1.5-2.63,2.17-3.98,2.44-4.92,2.48-10.3,1.17-15.57-.57-2.29-1.69-4.5-1.86-6.88s.03-4.65-.56-6.94c-.48-1.87-3.37-1.08-2.89.8h0Z"/>
      <path class="v" d="M248.11,142.85c-2.66,2.92-4.9,6.39-6.55,9.97-1.2,2.62-3.35,7.48.08,9.33.47.26,1.19.34,1.6.71.5.45.29,1.62.32,2.25.11,2.35.2,4.7.22,7.06.02,2.69.09,5.55-.66,8.16-.16.57-.24.78-.41,1.09-.1.18-.2.36-.31.53-.23.36,0,.05-.19.25-.13.14-.26.27-.39.39-.32.3.02.02-.22.17-.34.22-.69.42-1.06.59-1.75.81-.23,3.4,1.51,2.59,3.97-1.85,4.5-6.29,4.67-10.21.08-1.89.07-3.79.02-5.68-.03-1.21-.07-2.41-.12-3.62s.03-2.65-.23-3.89c-.16-.78-.55-1.43-1.16-1.94s-1.31-.62-1.97-1c-.46-.27-.48-.25-.46-.82.02-.79.28-1.61.52-2.35,1.35-4.15,3.98-8.25,6.91-11.47,1.3-1.43-.82-3.55-2.12-2.12h0Z"/>
      <circle class="p" cx="250.52" cy="134.94" r="8.16"/>
      <path class="v" d="M268.28,142.74c.52,2.02.31,4.08.45,6.14.15,2.21.96,4.14,1.57,6.24.91,3.1,1.47,6.38,1.07,9.62-.24,1.96-.89,3.84-1.81,5.58-.72,1.37-1.65,2.67-2.19,4.13-1.44,3.89,2.38,7.04,4.25,9.96,1.04,1.62,3.64.12,2.59-1.51-.93-1.44-2.09-2.71-3.05-4.13-.43-.63-.89-1.33-1.04-2.09-.05-.24-.09-.5-.06-.75.02-.2.11-.43.18-.62-.05.13-.06.14,0,0,.61-1.38,1.5-2.63,2.17-3.98,2.44-4.92,2.48-10.3,1.17-15.57-.57-2.29-1.69-4.5-1.86-6.88s.03-4.65-.56-6.94c-.48-1.87-3.37-1.08-2.89.8h0Z"/>
      <path class="v" d="M265.88,142.85c-2.66,2.92-4.9,6.39-6.55,9.97-1.2,2.62-3.35,7.48.08,9.33.47.26,1.19.34,1.6.71.5.45.29,1.62.32,2.25.11,2.35.2,4.7.22,7.06.02,2.69.09,5.55-.66,8.16-.16.57-.24.78-.41,1.09-.1.18-.2.36-.31.53-.23.36,0,.05-.19.25-.13.14-.26.27-.39.39-.32.3.02.02-.22.17-.34.22-.69.42-1.06.59-1.75.81-.23,3.4,1.51,2.59,3.97-1.85,4.5-6.29,4.67-10.21.08-1.89.07-3.79.02-5.68-.03-1.21-.07-2.41-.12-3.62s.03-2.65-.23-3.89c-.16-.78-.55-1.43-1.16-1.94s-1.31-.62-1.97-1c-.46-.27-.48-.25-.46-.82.02-.79.28-1.61.52-2.35,1.35-4.15,3.98-8.25,6.91-11.47,1.3-1.43-.82-3.55-2.12-2.12h0Z"/>
      <circle class="p" cx="268.29" cy="134.94" r="8.16"/>
      <path class="v" d="M357.14,142.74c.52,2.02.31,4.08.45,6.14.15,2.21.96,4.14,1.57,6.24.91,3.1,1.47,6.38,1.07,9.62-.24,1.96-.89,3.84-1.81,5.58-.72,1.37-1.65,2.67-2.19,4.13-1.44,3.89,2.38,7.04,4.25,9.96,1.04,1.62,3.64.12,2.59-1.51-.93-1.44-2.09-2.71-3.05-4.13-.43-.63-.89-1.33-1.04-2.09-.05-.24-.09-.5-.06-.75.02-.2.11-.43.18-.62-.05.13-.06.14,0,0,.61-1.38,1.5-2.63,2.17-3.98,2.44-4.92,2.48-10.3,1.17-15.57-.57-2.29-1.69-4.5-1.86-6.88s.03-4.65-.56-6.94c-.48-1.87-3.37-1.08-2.89.8h0Z"/>
      <path class="v" d="M354.73,142.85c-2.66,2.92-4.9,6.39-6.55,9.97-1.2,2.62-3.35,7.48.08,9.33.47.26,1.19.34,1.6.71.5.45.29,1.62.32,2.25.11,2.35.2,4.7.22,7.06.02,2.69.09,5.55-.66,8.16-.16.57-.24.78-.41,1.09-.1.18-.2.36-.31.53-.23.36,0,.05-.19.25-.13.14-.26.27-.39.39-.32.3.02.02-.22.17-.34.22-.69.42-1.06.59-1.75.81-.23,3.4,1.51,2.59,3.97-1.85,4.5-6.29,4.67-10.21.08-1.89.07-3.79.02-5.68-.03-1.21-.07-2.41-.12-3.62s.03-2.65-.23-3.89c-.16-.78-.55-1.43-1.16-1.94s-1.31-.62-1.97-1c-.46-.27-.48-.25-.46-.82.02-.79.28-1.61.52-2.35,1.35-4.15,3.98-8.25,6.91-11.47,1.3-1.43-.82-3.55-2.12-2.12h0Z"/>
      <circle class="p" cx="357.14" cy="134.94" r="8.16"/>
      <path class="v" d="M392.68,142.74c.52,2.02.31,4.08.45,6.14.15,2.21.96,4.14,1.57,6.24.91,3.1,1.47,6.38,1.07,9.62-.24,1.96-.89,3.84-1.81,5.58-.72,1.37-1.65,2.67-2.19,4.13-1.44,3.89,2.38,7.04,4.25,9.96,1.04,1.62,3.64.12,2.59-1.51-.93-1.44-2.09-2.71-3.05-4.13-.43-.63-.89-1.33-1.04-2.09-.05-.24-.09-.5-.06-.75.02-.2.11-.43.18-.62-.05.13-.06.14,0,0,.61-1.38,1.5-2.63,2.17-3.98,2.44-4.92,2.48-10.3,1.17-15.57-.57-2.29-1.69-4.5-1.86-6.88s.03-4.65-.56-6.94c-.48-1.87-3.37-1.08-2.89.8h0Z"/>
      <path class="v" d="M390.27,142.85c-2.66,2.92-4.9,6.39-6.55,9.97-1.2,2.62-3.35,7.48.08,9.33.47.26,1.19.34,1.6.71.5.45.29,1.62.32,2.25.11,2.35.2,4.7.22,7.06.02,2.69.09,5.55-.66,8.16-.16.57-.24.78-.41,1.09-.1.18-.2.36-.31.53-.23.36,0,.05-.19.25-.13.14-.26.27-.39.39-.32.3.02.02-.22.17-.34.22-.69.42-1.06.59-1.75.81-.23,3.4,1.51,2.59,3.97-1.85,4.5-6.29,4.67-10.21.08-1.89.07-3.79.02-5.68-.03-1.21-.07-2.41-.12-3.62s.03-2.65-.23-3.89c-.16-.78-.55-1.43-1.16-1.94s-1.31-.62-1.97-1c-.46-.27-.48-.25-.46-.82.02-.79.28-1.61.52-2.35,1.35-4.15,3.98-8.25,6.91-11.47,1.3-1.43-.82-3.55-2.12-2.12h0Z"/>
      <circle class="p" cx="392.69" cy="134.94" r="8.16"/>
      <path class="v" d="M428.22,142.74c.52,2.02.31,4.08.45,6.14.15,2.21.96,4.14,1.57,6.24.91,3.1,1.47,6.38,1.07,9.62-.24,1.96-.89,3.84-1.81,5.58-.72,1.37-1.65,2.67-2.19,4.13-1.44,3.89,2.38,7.04,4.25,9.96,1.04,1.62,3.64.12,2.59-1.51-.93-1.44-2.09-2.71-3.05-4.13-.43-.63-.89-1.33-1.04-2.09-.05-.24-.09-.5-.06-.75.02-.2.11-.43.18-.62-.05.13-.06.14,0,0,.61-1.38,1.5-2.63,2.17-3.98,2.44-4.92,2.48-10.3,1.17-15.57-.57-2.29-1.69-4.5-1.86-6.88s.03-4.65-.56-6.94c-.48-1.87-3.37-1.08-2.89.8h0Z"/>
      <path class="v" d="M425.82,142.85c-2.66,2.92-4.9,6.39-6.55,9.97-1.2,2.62-3.35,7.48.08,9.33.47.26,1.19.34,1.6.71.5.45.29,1.62.32,2.25.11,2.35.2,4.7.22,7.06.02,2.69.09,5.55-.66,8.16-.16.57-.24.78-.41,1.09-.1.18-.2.36-.31.53-.23.36,0,.05-.19.25-.13.14-.26.27-.39.39-.32.3.02.02-.22.17-.34.22-.69.42-1.06.59-1.75.81-.23,3.4,1.51,2.59,3.97-1.85,4.5-6.29,4.67-10.21.08-1.89.07-3.79.02-5.68-.03-1.21-.07-2.41-.12-3.62s.03-2.65-.23-3.89c-.16-.78-.55-1.43-1.16-1.94s-1.31-.62-1.97-1c-.46-.27-.48-.25-.46-.82.02-.79.28-1.61.52-2.35,1.35-4.15,3.98-8.25,6.91-11.47,1.3-1.43-.82-3.55-2.12-2.12h0Z"/>
      <circle class="p" cx="428.23" cy="134.94" r="8.16"/>
      <path class="v" d="M463.76,142.74c.52,2.02.31,4.08.45,6.14.15,2.21.96,4.14,1.57,6.24.91,3.1,1.47,6.38,1.07,9.62-.24,1.96-.89,3.84-1.81,5.58-.72,1.37-1.65,2.67-2.19,4.13-1.44,3.89,2.38,7.04,4.25,9.96,1.04,1.62,3.64.12,2.59-1.51-.93-1.44-2.09-2.71-3.05-4.13-.43-.63-.89-1.33-1.04-2.09-.05-.24-.09-.5-.06-.75.02-.2.11-.43.18-.62-.05.13-.06.14,0,0,.61-1.38,1.5-2.63,2.17-3.98,2.44-4.92,2.48-10.3,1.17-15.57-.57-2.29-1.69-4.5-1.86-6.88s.03-4.65-.56-6.94c-.48-1.87-3.37-1.08-2.89.8h0Z"/>
      <path class="v" d="M461.36,142.85c-2.66,2.92-4.9,6.39-6.55,9.97-1.2,2.62-3.35,7.48.08,9.33.47.26,1.19.34,1.6.71.5.45.29,1.62.32,2.25.11,2.35.2,4.7.22,7.06.02,2.69.09,5.55-.66,8.16-.16.57-.24.78-.41,1.09-.1.18-.2.36-.31.53-.23.36,0,.05-.19.25-.13.14-.26.27-.39.39-.32.3.02.02-.22.17-.34.22-.69.42-1.06.59-1.75.81-.23,3.4,1.51,2.59,3.97-1.85,4.5-6.29,4.67-10.21.08-1.89.07-3.79.02-5.68-.03-1.21-.07-2.41-.12-3.62s.03-2.65-.23-3.89c-.16-.78-.55-1.43-1.16-1.94s-1.31-.62-1.97-1c-.46-.27-.48-.25-.46-.82.02-.79.28-1.61.52-2.35,1.35-4.15,3.98-8.25,6.91-11.47,1.3-1.43-.82-3.55-2.12-2.12h0Z"/>
      <circle class="p" cx="463.77" cy="134.94" r="8.16"/>
      <path class="v" d="M534.85,142.74c.52,2.02.31,4.08.45,6.14.15,2.21.96,4.14,1.57,6.24.91,3.1,1.47,6.38,1.07,9.62-.24,1.96-.89,3.84-1.81,5.58-.72,1.37-1.65,2.67-2.19,4.13-1.44,3.89,2.38,7.04,4.25,9.96,1.04,1.62,3.64.12,2.59-1.51-.93-1.44-2.09-2.71-3.05-4.13-.43-.63-.89-1.33-1.04-2.09-.05-.24-.09-.5-.06-.75.02-.2.11-.43.18-.62-.05.13-.06.14,0,0,.61-1.38,1.5-2.63,2.17-3.98,2.44-4.92,2.48-10.3,1.17-15.57-.57-2.29-1.69-4.5-1.86-6.88s.03-4.65-.56-6.94c-.48-1.87-3.37-1.08-2.89.8h0Z"/>
      <path class="v" d="M532.44,142.85c-2.66,2.92-4.9,6.39-6.55,9.97-1.2,2.62-3.35,7.48.08,9.33.47.26,1.19.34,1.6.71.5.45.29,1.62.32,2.25.11,2.35.2,4.7.22,7.06.02,2.69.09,5.55-.66,8.16-.16.57-.24.78-.41,1.09-.1.18-.2.36-.31.53-.23.36,0,.05-.19.25-.13.14-.26.27-.39.39-.32.3.02.02-.22.17-.34.22-.69.42-1.06.59-1.75.81-.23,3.4,1.51,2.59,3.97-1.85,4.5-6.29,4.67-10.21.08-1.89.07-3.79.02-5.68-.03-1.21-.07-2.41-.12-3.62s.03-2.65-.23-3.89c-.16-.78-.55-1.43-1.16-1.94s-1.31-.62-1.97-1c-.46-.27-.48-.25-.46-.82.02-.79.28-1.61.52-2.35,1.35-4.15,3.98-8.25,6.91-11.47,1.3-1.43-.82-3.55-2.12-2.12h0Z"/>
      <circle class="p" cx="534.85" cy="134.94" r="8.16"/>
      <path class="v" d="M481.54,142.74c.52,2.02.31,4.08.45,6.14.15,2.21.96,4.14,1.57,6.24.91,3.1,1.47,6.38,1.07,9.62-.24,1.96-.89,3.84-1.81,5.58-.72,1.37-1.65,2.67-2.19,4.13-1.44,3.89,2.38,7.04,4.25,9.96,1.04,1.62,3.64.12,2.59-1.51-.93-1.44-2.09-2.71-3.05-4.13-.43-.63-.89-1.33-1.04-2.09-.05-.24-.09-.5-.06-.75.02-.2.11-.43.18-.62-.05.13-.06.14,0,0,.61-1.38,1.5-2.63,2.17-3.98,2.44-4.92,2.48-10.3,1.17-15.57-.57-2.29-1.69-4.5-1.86-6.88s.03-4.65-.56-6.94c-.48-1.87-3.37-1.08-2.89.8h0Z"/>
      <path class="v" d="M479.13,142.85c-2.66,2.92-4.9,6.39-6.55,9.97-1.2,2.62-3.35,7.48.08,9.33.47.26,1.19.34,1.6.71.5.45.29,1.62.32,2.25.11,2.35.2,4.7.22,7.06.02,2.69.09,5.55-.66,8.16-.16.57-.24.78-.41,1.09-.1.18-.2.36-.31.53-.23.36,0,.05-.19.25-.13.14-.26.27-.39.39-.32.3.02.02-.22.17-.34.22-.69.42-1.06.59-1.75.81-.23,3.4,1.51,2.59,3.97-1.85,4.5-6.29,4.67-10.21.08-1.89.07-3.79.02-5.68-.03-1.21-.07-2.41-.12-3.62s.03-2.65-.23-3.89c-.16-.78-.55-1.43-1.16-1.94s-1.31-.62-1.97-1c-.46-.27-.48-.25-.46-.82.02-.79.28-1.61.52-2.35,1.35-4.15,3.98-8.25,6.91-11.47,1.3-1.43-.82-3.55-2.12-2.12h0Z"/>
      <circle class="p" cx="481.54" cy="134.94" r="8.16"/>
      <path class="v" d="M214.97,142.74c.52,2.02.31,4.08.45,6.14.15,2.21.96,4.14,1.57,6.24.91,3.1,1.47,6.38,1.07,9.62-.24,1.96-.89,3.84-1.81,5.58-.72,1.37-1.65,2.67-2.19,4.13-1.44,3.89,2.38,7.04,4.25,9.96,1.04,1.62,3.64.12,2.59-1.51-.93-1.44-2.09-2.71-3.05-4.13-.43-.63-.89-1.33-1.04-2.09-.05-.24-.09-.5-.06-.75.02-.2.11-.43.18-.62-.05.13-.06.14,0,0,.61-1.38,1.5-2.63,2.17-3.98,2.44-4.92,2.48-10.3,1.17-15.57-.57-2.29-1.69-4.5-1.86-6.88s.03-4.65-.56-6.94c-.48-1.87-3.37-1.08-2.89.8h0Z"/>
      <path class="v" d="M212.56,142.85c-2.66,2.92-4.9,6.39-6.55,9.97-1.2,2.62-3.35,7.48.08,9.33.47.26,1.19.34,1.6.71.5.45.29,1.62.32,2.25.11,2.35.2,4.7.22,7.06.02,2.69.09,5.55-.66,8.16-.16.57-.24.78-.41,1.09-.1.18-.2.36-.31.53-.23.36,0,.05-.19.25-.13.14-.26.27-.39.39-.32.3.02.02-.22.17-.34.22-.69.42-1.06.59-1.75.81-.23,3.4,1.51,2.59,3.97-1.85,4.5-6.29,4.67-10.21.08-1.89.07-3.79.02-5.68-.03-1.21-.07-2.41-.12-3.62s.03-2.65-.23-3.89c-.16-.78-.55-1.43-1.16-1.94s-1.31-.62-1.97-1c-.46-.27-.48-.25-.46-.82.02-.79.28-1.61.52-2.35,1.35-4.15,3.98-8.25,6.91-11.47,1.3-1.43-.82-3.55-2.12-2.12h0Z"/>
      <circle class="p" cx="214.98" cy="134.94" r="8.16"/>
      <path class="v" d="M501.07,231.21c.92-3.37,1.33-6.88,1.1-10.36s-1.05-7.11-1.7-10.64-1.17-6.99-.56-10.45,2.37-6.53,4.2-9.5c1.02-1.65-1.58-3.15-2.59-1.51-1.84,2.98-3.63,6.1-4.38,9.55s-.5,6.97.04,10.44,1.49,7.12,1.87,10.74.11,7.35-.87,10.93c-.51,1.86,2.38,2.66,2.89.8h0Z"/>
      <path class="v" d="M499.22,228.62c-2.34-2.55-4.9-5.44-5.5-8.97-.64-3.77,1.53-7.44,2.17-11.08,1.24-7.05-.29-14.46-4.31-20.39-1.08-1.59-3.68-.09-2.59,1.51,4.14,6.11,5.42,13.8,3.34,20.9-1.07,3.66-2.37,7.18-1.22,11.01,1.06,3.55,3.53,6.46,5.99,9.13,1.31,1.43,3.43-.7,2.12-2.12h0Z"/>
      <circle class="p" cx="498.18" cy="238.21" r="8.16"/>
      <path class="v" d="M341.13,231.21c.92-3.37,1.33-6.88,1.1-10.36s-1.05-7.11-1.7-10.64-1.17-6.99-.56-10.45,2.37-6.53,4.2-9.5c1.02-1.65-1.58-3.15-2.59-1.51-1.84,2.98-3.63,6.1-4.38,9.55s-.5,6.97.04,10.44,1.49,7.12,1.87,10.74.11,7.35-.87,10.93c-.51,1.86,2.38,2.66,2.89.8h0Z"/>
      <path class="v" d="M339.28,228.62c-2.34-2.55-4.9-5.44-5.5-8.97-.64-3.77,1.53-7.44,2.17-11.08,1.24-7.05-.29-14.46-4.31-20.39-1.08-1.59-3.68-.09-2.59,1.51,4.14,6.11,5.42,13.8,3.34,20.9-1.07,3.66-2.37,7.18-1.22,11.01,1.06,3.55,3.53,6.46,5.99,9.13,1.31,1.43,3.43-.7,2.12-2.12h0Z"/>
      <circle class="p" cx="338.24" cy="238.21" r="8.16"/>
      <path class="v" d="M323.36,231.21c.92-3.37,1.33-6.88,1.1-10.36s-1.05-7.11-1.7-10.64-1.17-6.99-.56-10.45,2.37-6.53,4.2-9.5c1.02-1.65-1.58-3.15-2.59-1.51-1.84,2.98-3.63,6.1-4.38,9.55s-.5,6.97.04,10.44,1.49,7.12,1.87,10.74.11,7.35-.87,10.93c-.51,1.86,2.38,2.66,2.89.8h0Z"/>
      <path class="v" d="M321.51,228.62c-2.34-2.55-4.9-5.44-5.5-8.97-.64-3.77,1.53-7.44,2.17-11.08,1.24-7.05-.29-14.46-4.31-20.39-1.08-1.59-3.68-.09-2.59,1.51,4.14,6.11,5.42,13.8,3.34,20.9-1.07,3.66-2.37,7.18-1.22,11.01,1.06,3.55,3.53,6.46,5.99,9.13,1.31,1.43,3.43-.7,2.12-2.12h0Z"/>
      <circle class="p" cx="320.47" cy="238.21" r="8.16"/>
      <path class="v" d="M198.96,231.21c.92-3.37,1.33-6.88,1.1-10.36s-1.05-7.11-1.7-10.64-1.17-6.99-.56-10.45,2.37-6.53,4.2-9.5c1.02-1.65-1.58-3.15-2.59-1.51-1.84,2.98-3.63,6.1-4.38,9.55s-.5,6.97.04,10.44,1.49,7.12,1.87,10.74.11,7.35-.87,10.93c-.51,1.86,2.38,2.66,2.89.8h0Z"/>
      <path class="v" d="M197.11,228.62c-2.34-2.55-4.9-5.44-5.5-8.97-.64-3.77,1.53-7.44,2.17-11.08,1.24-7.05-.29-14.46-4.31-20.39-1.08-1.59-3.68-.09-2.59,1.51,4.14,6.11,5.42,13.8,3.34,20.9-1.07,3.66-2.37,7.18-1.22,11.01,1.06,3.55,3.53,6.46,5.99,9.13,1.31,1.43,3.43-.7,2.12-2.12h0Z"/>
      <circle class="p" cx="196.08" cy="238.21" r="8.16"/>
      <path class="v" d="M412.22,231.21c.92-3.37,1.33-6.88,1.1-10.36s-1.05-7.11-1.7-10.64-1.17-6.99-.56-10.45,2.37-6.53,4.2-9.5c1.02-1.65-1.58-3.15-2.59-1.51-1.84,2.98-3.63,6.1-4.38,9.55s-.5,6.97.04,10.44,1.49,7.12,1.87,10.74.11,7.35-.87,10.93c-.51,1.86,2.38,2.66,2.89.8h0Z"/>
      <path class="v" d="M410.36,228.62c-2.34-2.55-4.9-5.44-5.5-8.97-.64-3.77,1.53-7.44,2.17-11.08,1.24-7.05-.29-14.46-4.31-20.39-1.08-1.59-3.68-.09-2.59,1.51,4.14,6.11,5.42,13.8,3.34,20.9-1.07,3.66-2.37,7.18-1.22,11.01,1.06,3.55,3.53,6.46,5.99,9.13,1.31,1.43,3.43-.7,2.12-2.12h0Z"/>
      <circle class="p" cx="409.33" cy="238.21" r="8.16"/>
      <path class="v" d="M376.67,231.21c.92-3.37,1.33-6.88,1.1-10.36s-1.05-7.11-1.7-10.64-1.17-6.99-.56-10.45,2.37-6.53,4.2-9.5c1.02-1.65-1.58-3.15-2.59-1.51-1.84,2.98-3.63,6.1-4.38,9.55s-.5,6.97.04,10.44,1.49,7.12,1.87,10.74.11,7.35-.87,10.93c-.51,1.86,2.38,2.66,2.89.8h0Z"/>
      <path class="v" d="M374.82,228.62c-2.34-2.55-4.9-5.44-5.5-8.97-.64-3.77,1.53-7.44,2.17-11.08,1.24-7.05-.29-14.46-4.31-20.39-1.08-1.59-3.68-.09-2.59,1.51,4.14,6.11,5.42,13.8,3.34,20.9-1.07,3.66-2.37,7.18-1.22,11.01,1.06,3.55,3.53,6.46,5.99,9.13,1.31,1.43,3.43-.7,2.12-2.12h0Z"/>
      <circle class="p" cx="373.79" cy="238.21" r="8.16"/>
      <path class="v" d="M287.82,231.21c.92-3.37,1.33-6.88,1.1-10.36s-1.05-7.11-1.7-10.64-1.17-6.99-.56-10.45,2.37-6.53,4.2-9.5c1.02-1.65-1.58-3.15-2.59-1.51-1.84,2.98-3.63,6.1-4.38,9.55s-.5,6.97.04,10.44,1.49,7.12,1.87,10.74.11,7.35-.87,10.93c-.51,1.86,2.38,2.66,2.89.8h0Z"/>
      <path class="v" d="M285.97,228.62c-2.34-2.55-4.9-5.44-5.5-8.97-.64-3.77,1.53-7.44,2.17-11.08,1.24-7.05-.29-14.46-4.31-20.39-1.08-1.59-3.68-.09-2.59,1.51,4.14,6.11,5.42,13.8,3.34,20.9-1.07,3.66-2.37,7.18-1.22,11.01,1.06,3.55,3.53,6.46,5.99,9.13,1.31,1.43,3.43-.7,2.12-2.12h0Z"/>
      <circle class="p" cx="284.93" cy="238.21" r="8.16"/>
      <path class="v" d="M163.42,231.21c.92-3.37,1.33-6.88,1.1-10.36s-1.05-7.11-1.7-10.64-1.17-6.99-.56-10.45,2.37-6.53,4.2-9.5c1.02-1.65-1.58-3.15-2.59-1.51-1.84,2.98-3.63,6.1-4.38,9.55s-.5,6.97.04,10.44,1.49,7.12,1.87,10.74.11,7.35-.87,10.93c-.51,1.86,2.38,2.66,2.89.8h0Z"/>
      <path class="v" d="M161.57,228.62c-2.34-2.55-4.9-5.44-5.5-8.97-.64-3.77,1.53-7.44,2.17-11.08,1.24-7.05-.29-14.46-4.31-20.39-1.08-1.59-3.68-.09-2.59,1.51,4.14,6.11,5.42,13.8,3.34,20.9-1.07,3.66-2.37,7.18-1.22,11.01,1.06,3.55,3.53,6.46,5.99,9.13,1.31,1.43,3.43-.7,2.12-2.12h0Z"/>
      <circle class="p" cx="160.53" cy="238.21" r="8.16"/>
      <path class="v" d="M110.11,231.21c.92-3.37,1.33-6.88,1.1-10.36s-1.05-7.11-1.7-10.64-1.17-6.99-.56-10.45,2.37-6.53,4.2-9.5c1.02-1.65-1.58-3.15-2.59-1.51-1.84,2.98-3.63,6.1-4.38,9.55s-.5,6.97.04,10.44,1.49,7.12,1.87,10.74.11,7.35-.87,10.93c-.51,1.86,2.38,2.66,2.89.8h0Z"/>
      <path class="v" d="M108.26,228.62c-2.34-2.55-4.9-5.44-5.5-8.97-.64-3.77,1.53-7.44,2.17-11.08,1.24-7.05-.29-14.46-4.31-20.39-1.08-1.59-3.68-.09-2.59,1.51,4.14,6.11,5.42,13.8,3.34,20.9-1.07,3.66-2.37,7.18-1.22,11.01,1.06,3.55,3.53,6.46,5.99,9.13,1.31,1.43,3.43-.7,2.12-2.12h0Z"/>
      <circle class="p" cx="107.22" cy="238.21" r="8.16"/>
      <path class="v" d="M56.8,231.21c.92-3.37,1.33-6.88,1.1-10.36s-1.05-7.11-1.7-10.64-1.17-6.99-.56-10.45,2.37-6.53,4.2-9.5c1.02-1.65-1.58-3.15-2.59-1.51-1.84,2.98-3.63,6.1-4.38,9.55s-.5,6.97.04,10.44,1.49,7.12,1.87,10.74.11,7.35-.87,10.93c-.51,1.86,2.38,2.66,2.89.8h0Z"/>
      <path class="v" d="M54.94,228.62c-2.34-2.55-4.9-5.44-5.5-8.97-.64-3.77,1.53-7.44,2.17-11.08,1.24-7.05-.29-14.46-4.31-20.39-1.08-1.59-3.68-.09-2.59,1.51,4.14,6.11,5.42,13.8,3.34,20.9-1.07,3.66-2.37,7.18-1.22,11.01,1.06,3.55,3.53,6.46,5.99,9.13,1.31,1.43,3.43-.7,2.12-2.12h0Z"/>
      <circle class="p" cx="53.91" cy="238.21" r="8.16"/>
      <path class="v" d="M75.82,231.21c.46-1.78.44-3.59.46-5.41,0-.91.02-1.82.2-2.71.21-1.03.67-1.99,1.03-2.98,1.19-3.3,1.93-6.83,1.89-10.34-.04-2.74-.56-5.45-1.68-7.96-.43-.97-.95-1.89-1.58-2.74-.29-.4-.6-.78-.92-1.15-.24-.27-.82-.65-.92-.99-.26-.85,1.16-2.37,1.62-2.94,1-1.23,2.08-2.4,2.94-3.73,1.05-1.63-1.55-3.13-2.59-1.51-1.46,2.27-3.8,4.06-4.72,6.67-.42,1.21-.31,2.51.5,3.53.59.73,1.29,1.33,1.82,2.11,3.27,4.84,2.94,11.14,1.32,16.5-.65,2.14-1.64,4.1-1.84,6.36s.12,4.37-.43,6.5c-.48,1.87,2.41,2.67,2.89.8h0Z"/>
      <path class="v" d="M73.97,228.62c-2.18-2.44-2.21-5.39-2.24-8.5-.02-1.75-.27-3.29-.8-4.96-.56-1.76-1.04-3.19-.61-5.02.67-2.91.45-5.77-1.05-8.38s-3.9-4.99-5.7-7.57c-1.1-1.57-3.7-.07-2.59,1.51,1.82,2.61,4.22,4.91,5.77,7.7.62,1.11.96,2.3.96,3.57,0,1.7-.75,3.31-.63,5.01.13,1.78.83,3.41,1.3,5.12.45,1.61.32,3.24.37,4.89.1,3.32.85,6.22,3.1,8.75,1.29,1.44,3.4-.68,2.12-2.12h0Z"/>
      <circle class="p" cx="72.93" cy="238.21" r="8.16"/>
      <path class="v" d="M182.45,231.21c.46-1.78.44-3.59.46-5.41,0-.91.02-1.82.2-2.71.21-1.03.67-1.99,1.03-2.98,1.19-3.3,1.93-6.83,1.89-10.34-.04-2.74-.56-5.45-1.68-7.96-.43-.97-.95-1.89-1.58-2.74-.29-.4-.6-.78-.92-1.15-.24-.27-.82-.65-.92-.99-.26-.85,1.16-2.37,1.62-2.94,1-1.23,2.08-2.4,2.94-3.73,1.05-1.63-1.55-3.13-2.59-1.51-1.46,2.27-3.8,4.06-4.72,6.67-.42,1.21-.31,2.51.5,3.53.59.73,1.29,1.33,1.82,2.11,3.27,4.84,2.94,11.14,1.32,16.5-.65,2.14-1.64,4.1-1.84,6.36s.12,4.37-.43,6.5c-.48,1.87,2.41,2.67,2.89.8h0Z"/>
      <path class="v" d="M180.59,228.62c-2.18-2.44-2.21-5.39-2.24-8.5-.02-1.75-.27-3.29-.8-4.96-.56-1.76-1.04-3.19-.61-5.02.67-2.91.45-5.77-1.05-8.38s-3.9-4.99-5.7-7.57c-1.1-1.57-3.7-.07-2.59,1.51,1.82,2.61,4.22,4.91,5.77,7.7.62,1.11.96,2.3.96,3.57,0,1.7-.75,3.31-.63,5.01.13,1.78.83,3.41,1.3,5.12.45,1.61.32,3.24.37,4.89.1,3.32.85,6.22,3.1,8.75,1.29,1.44,3.4-.68,2.12-2.12h0Z"/>
      <circle class="p" cx="179.56" cy="238.21" r="8.16"/>
      <path class="v" d="M235.76,231.21c.46-1.78.44-3.59.46-5.41,0-.91.02-1.82.2-2.71.21-1.03.67-1.99,1.03-2.98,1.19-3.3,1.93-6.83,1.89-10.34-.04-2.74-.56-5.45-1.68-7.96-.43-.97-.95-1.89-1.58-2.74-.29-.4-.6-.78-.92-1.15-.24-.27-.82-.65-.92-.99-.26-.85,1.16-2.37,1.62-2.94,1-1.23,2.08-2.4,2.94-3.73,1.05-1.63-1.55-3.13-2.59-1.51-1.46,2.27-3.8,4.06-4.72,6.67-.42,1.21-.31,2.51.5,3.53.59.73,1.29,1.33,1.82,2.11,3.27,4.84,2.94,11.14,1.32,16.5-.65,2.14-1.64,4.1-1.84,6.36s.12,4.37-.43,6.5c-.48,1.87,2.41,2.67,2.89.8h0Z"/>
      <path class="v" d="M233.91,228.62c-2.18-2.44-2.21-5.39-2.24-8.5-.02-1.75-.27-3.29-.8-4.96-.56-1.76-1.04-3.19-.61-5.02.67-2.91.45-5.77-1.05-8.38s-3.9-4.99-5.7-7.57c-1.1-1.57-3.7-.07-2.59,1.51,1.82,2.61,4.22,4.91,5.77,7.7.62,1.11.96,2.3.96,3.57,0,1.7-.75,3.31-.63,5.01.13,1.78.83,3.41,1.3,5.12.45,1.61.32,3.24.37,4.89.1,3.32.85,6.22,3.1,8.75,1.29,1.44,3.4-.68,2.12-2.12h0Z"/>
      <circle class="p" cx="232.87" cy="238.21" r="8.16"/>
      <path class="v" d="M306.84,231.21c.46-1.78.44-3.59.46-5.41,0-.91.02-1.82.2-2.71.21-1.03.67-1.99,1.03-2.98,1.19-3.3,1.93-6.83,1.89-10.34-.04-2.74-.56-5.45-1.68-7.96-.43-.97-.95-1.89-1.58-2.74-.29-.4-.6-.78-.92-1.15-.24-.27-.82-.65-.92-.99-.26-.85,1.16-2.37,1.62-2.94,1-1.23,2.08-2.4,2.94-3.73,1.05-1.63-1.55-3.13-2.59-1.51-1.46,2.27-3.8,4.06-4.72,6.67-.42,1.21-.31,2.51.5,3.53.59.73,1.29,1.33,1.82,2.11,3.27,4.84,2.94,11.14,1.32,16.5-.65,2.14-1.64,4.1-1.84,6.36s.12,4.37-.43,6.5c-.48,1.87,2.41,2.67,2.89.8h0Z"/>
      <path class="v" d="M304.99,228.62c-2.18-2.44-2.21-5.39-2.24-8.5-.02-1.75-.27-3.29-.8-4.96-.56-1.76-1.04-3.19-.61-5.02.67-2.91.45-5.77-1.05-8.38s-3.9-4.99-5.7-7.57c-1.1-1.57-3.7-.07-2.59,1.51,1.82,2.61,4.22,4.91,5.77,7.7.62,1.11.96,2.3.96,3.57,0,1.7-.75,3.31-.63,5.01.13,1.78.83,3.41,1.3,5.12.45,1.61.32,3.24.37,4.89.1,3.32.85,6.22,3.1,8.75,1.29,1.44,3.4-.68,2.12-2.12h0Z"/>
      <circle class="p" cx="303.96" cy="238.21" r="8.16"/>
      <path class="v" d="M449.01,231.21c.46-1.78.44-3.59.46-5.41,0-.91.02-1.82.2-2.71.21-1.03.67-1.99,1.03-2.98,1.19-3.3,1.93-6.83,1.89-10.34-.04-2.74-.56-5.45-1.68-7.96-.43-.97-.95-1.89-1.58-2.74-.29-.4-.6-.78-.92-1.15-.24-.27-.82-.65-.92-.99-.26-.85,1.16-2.37,1.62-2.94,1-1.23,2.08-2.4,2.94-3.73,1.05-1.63-1.55-3.13-2.59-1.51-1.46,2.27-3.8,4.06-4.72,6.67-.42,1.21-.31,2.51.5,3.53.59.73,1.29,1.33,1.82,2.11,3.27,4.84,2.94,11.14,1.32,16.5-.65,2.14-1.64,4.1-1.84,6.36s.12,4.37-.43,6.5c-.48,1.87,2.41,2.67,2.89.8h0Z"/>
      <path class="v" d="M447.16,228.62c-2.18-2.44-2.21-5.39-2.24-8.5-.02-1.75-.27-3.29-.8-4.96-.56-1.76-1.04-3.19-.61-5.02.67-2.91.45-5.77-1.05-8.38s-3.9-4.99-5.7-7.57c-1.1-1.57-3.7-.07-2.59,1.51,1.82,2.61,4.22,4.91,5.77,7.7.62,1.11.96,2.3.96,3.57,0,1.7-.75,3.31-.63,5.01.13,1.78.83,3.41,1.3,5.12.45,1.61.32,3.24.37,4.89.1,3.32.85,6.22,3.1,8.75,1.29,1.44,3.4-.68,2.12-2.12h0Z"/>
      <circle class="p" cx="446.12" cy="238.21" r="8.16"/>
      <path class="v" d="M520.1,231.21c.46-1.78.44-3.59.46-5.41,0-.91.02-1.82.2-2.71.21-1.03.67-1.99,1.03-2.98,1.19-3.3,1.93-6.83,1.89-10.34-.04-2.74-.56-5.45-1.68-7.96-.43-.97-.95-1.89-1.58-2.74-.29-.4-.6-.78-.92-1.15-.24-.27-.82-.65-.92-.99-.26-.85,1.16-2.37,1.62-2.94,1-1.23,2.08-2.4,2.94-3.73,1.05-1.63-1.55-3.13-2.59-1.51-1.46,2.27-3.8,4.06-4.72,6.67-.42,1.21-.31,2.51.5,3.53.59.73,1.29,1.33,1.82,2.11,3.27,4.84,2.94,11.14,1.32,16.5-.65,2.14-1.64,4.1-1.84,6.36s.12,4.37-.43,6.5c-.48,1.87,2.41,2.67,2.89.8h0Z"/>
      <path class="v" d="M518.24,228.62c-2.18-2.44-2.21-5.39-2.24-8.5-.02-1.75-.27-3.29-.8-4.96-.56-1.76-1.04-3.19-.61-5.02.67-2.91.45-5.77-1.05-8.38s-3.9-4.99-5.7-7.57c-1.1-1.57-3.7-.07-2.59,1.51,1.82,2.61,4.22,4.91,5.77,7.7.62,1.11.96,2.3.96,3.57,0,1.7-.75,3.31-.63,5.01.13,1.78.83,3.41,1.3,5.12.45,1.61.32,3.24.37,4.89.1,3.32.85,6.22,3.1,8.75,1.29,1.44,3.4-.68,2.12-2.12h0Z"/>
      <circle class="p" cx="517.21" cy="238.21" r="8.16"/>
      <path class="v" d="M22.51,231.21c.46-1.78.44-3.59.46-5.41,0-.91.02-1.82.2-2.71.21-1.03.67-1.99,1.03-2.98,1.19-3.3,1.93-6.83,1.89-10.34-.04-2.74-.56-5.45-1.68-7.96-.43-.97-.95-1.89-1.58-2.74-.29-.4-.6-.78-.92-1.15-.24-.27-.82-.65-.92-.99-.26-.85,1.16-2.37,1.62-2.94,1-1.23,2.08-2.4,2.94-3.73,1.05-1.63-1.55-3.13-2.59-1.51-1.46,2.27-3.8,4.06-4.72,6.67-.42,1.21-.31,2.51.5,3.53.59.73,1.29,1.33,1.82,2.11,3.27,4.84,2.94,11.14,1.32,16.5-.65,2.14-1.64,4.1-1.84,6.36s.12,4.37-.43,6.5c-.48,1.87,2.41,2.67,2.89.8h0Z"/>
      <path class="v" d="M20.65,228.62c-2.18-2.44-2.21-5.39-2.24-8.5-.02-1.75-.27-3.29-.8-4.96-.56-1.76-1.04-3.19-.61-5.02.67-2.91.45-5.77-1.05-8.38s-3.9-4.99-5.7-7.57c-1.1-1.57-3.7-.07-2.59,1.51,1.82,2.61,4.22,4.91,5.77,7.7.62,1.11.96,2.3.96,3.57,0,1.7-.75,3.31-.63,5.01.13,1.78.83,3.41,1.3,5.12.45,1.61.32,3.24.37,4.89.1,3.32.85,6.22,3.1,8.75,1.29,1.44,3.4-.68,2.12-2.12h0Z"/>
      <circle class="p" cx="19.62" cy="238.21" r="8.16"/>
      <path class="v" d="M146.9,231.21c.46-1.78.44-3.59.46-5.41,0-.91.02-1.82.2-2.71.21-1.03.67-1.99,1.03-2.98,1.19-3.3,1.93-6.83,1.89-10.34-.04-2.74-.56-5.45-1.68-7.96-.43-.97-.95-1.89-1.58-2.74-.29-.4-.6-.78-.92-1.15-.24-.27-.82-.65-.92-.99-.26-.85,1.16-2.37,1.62-2.94,1-1.23,2.08-2.4,2.94-3.73,1.05-1.63-1.55-3.13-2.59-1.51-1.46,2.27-3.8,4.06-4.72,6.67-.42,1.21-.31,2.51.5,3.53.59.73,1.29,1.33,1.82,2.11,3.27,4.84,2.94,11.14,1.32,16.5-.65,2.14-1.64,4.1-1.84,6.36s.12,4.37-.43,6.5c-.48,1.87,2.41,2.67,2.89.8h0Z"/>
      <path class="v" d="M145.05,228.62c-2.18-2.44-2.21-5.39-2.24-8.5-.02-1.75-.27-3.29-.8-4.96-.56-1.76-1.04-3.19-.61-5.02.67-2.91.45-5.77-1.05-8.38s-3.9-4.99-5.7-7.57c-1.1-1.57-3.7-.07-2.59,1.51,1.82,2.61,4.22,4.91,5.77,7.7.62,1.11.96,2.3.96,3.57,0,1.7-.75,3.31-.63,5.01.13,1.78.83,3.41,1.3,5.12.45,1.61.32,3.24.37,4.89.1,3.32.85,6.22,3.1,8.75,1.29,1.44,3.4-.68,2.12-2.12h0Z"/>
      <circle class="p" cx="144.02" cy="238.21" r="8.16"/>
      <path class="v" d="M128.41,231.21c.51-2,.45-4.02.52-6.06.07-2.19.82-4.03,1.44-6.1.94-3.15,1.55-6.51,1.32-9.81-.16-2.34-.74-4.56-1.7-6.7-.66-1.46-1.54-2.79-2.27-4.2-.3-.57-.35-.51-.42-1.11-.09-.79.33-1.58.72-2.24,1-1.68,2.38-3.09,3.44-4.73s-1.55-3.14-2.59-1.51c-1.71,2.67-4.9,5.28-4.53,8.77.19,1.71,1.31,3.22,2.12,4.69,2.48,4.47,2.72,9.27,1.52,14.2-.56,2.29-1.61,4.47-1.91,6.81s.05,4.85-.56,7.2c-.48,1.87,2.41,2.67,2.89.8h0Z"/>
      <path class="v" d="M125.24,228.18c-2.62-2.88-4.85-6.4-6.36-9.99-.36-.85-.66-1.73-.88-2.63-.1-.43-.41-1.42-.13-1.82.18-.26,1.06-.45,1.33-.58.67-.3,1.29-.71,1.7-1.34.56-.87.57-1.85.62-2.85.06-1.31.12-2.62.17-3.93.07-2.08.12-4.16.08-6.23-.05-2.49-.12-5.19-1.01-7.56-.69-1.83-1.92-3.21-3.7-4.04s-3.26,1.77-1.51,2.59c.32.15.62.31.92.5.09.05.44.32.15.09.14.12.28.24.41.37.39.36.2.13.44.55.27.45.34.6.45.88.84,2.33.85,4.93.87,7.37.02,2.1-.04,4.21-.12,6.31-.03.65-.05,1.31-.08,1.96-.02.53.11,1.64-.1,2.11-.18.39-.4.47-.81.65-1.52.67-2.74,1.43-2.86,3.26-.11,1.7.51,3.5,1.14,5.05,1.67,4.14,4.17,8.12,7.17,11.42,1.3,1.43,3.42-.7,2.12-2.12h0Z"/>
      <circle class="p" cx="125.53" cy="238.21" r="8.16"/>
      <path class="v" d="M92.87,231.21c.51-2,.45-4.02.52-6.06.07-2.19.82-4.03,1.44-6.1.94-3.15,1.55-6.51,1.32-9.81-.16-2.34-.74-4.56-1.7-6.7-.66-1.46-1.54-2.79-2.27-4.2-.3-.57-.35-.51-.42-1.11-.09-.79.33-1.58.72-2.24,1-1.68,2.38-3.09,3.44-4.73s-1.55-3.14-2.59-1.51c-1.71,2.67-4.9,5.28-4.53,8.77.19,1.71,1.31,3.22,2.12,4.69,2.48,4.47,2.72,9.27,1.52,14.2-.56,2.29-1.61,4.47-1.91,6.81s.05,4.85-.56,7.2c-.48,1.87,2.41,2.67,2.89.8h0Z"/>
      <path class="v" d="M89.69,228.18c-2.62-2.88-4.85-6.4-6.36-9.99-.36-.85-.66-1.73-.88-2.63-.1-.43-.41-1.42-.13-1.82.18-.26,1.06-.45,1.33-.58.67-.3,1.29-.71,1.7-1.34.56-.87.57-1.85.62-2.85.06-1.31.12-2.62.17-3.93.07-2.08.12-4.16.08-6.23-.05-2.49-.12-5.19-1.01-7.56-.69-1.83-1.92-3.21-3.7-4.04s-3.26,1.77-1.51,2.59c.32.15.62.31.92.5.09.05.44.32.15.09.14.12.28.24.41.37.39.36.2.13.44.55.27.45.34.6.45.88.84,2.33.85,4.93.87,7.37.02,2.1-.04,4.21-.12,6.31-.03.65-.05,1.31-.08,1.96-.02.53.11,1.64-.1,2.11-.18.39-.4.47-.81.65-1.52.67-2.74,1.43-2.86,3.26-.11,1.7.51,3.5,1.14,5.05,1.67,4.14,4.17,8.12,7.17,11.42,1.3,1.43,3.42-.7,2.12-2.12h0Z"/>
      <circle class="p" cx="89.98" cy="238.21" r="8.16"/>
      <path class="v" d="M39.56,231.21c.51-2,.45-4.02.52-6.06.07-2.19.82-4.03,1.44-6.1.94-3.15,1.55-6.51,1.32-9.81-.16-2.34-.74-4.56-1.7-6.7-.66-1.46-1.54-2.79-2.27-4.2-.3-.57-.35-.51-.42-1.11-.09-.79.33-1.58.72-2.24,1-1.68,2.38-3.09,3.44-4.73s-1.55-3.14-2.59-1.51c-1.71,2.67-4.9,5.28-4.53,8.77.19,1.71,1.31,3.22,2.12,4.69,2.48,4.47,2.72,9.27,1.52,14.2-.56,2.29-1.61,4.47-1.91,6.81s.05,4.85-.56,7.2c-.48,1.87,2.41,2.67,2.89.8h0Z"/>
      <path class="v" d="M36.38,228.18c-2.62-2.88-4.85-6.4-6.36-9.99-.36-.85-.66-1.73-.88-2.63-.1-.43-.41-1.42-.13-1.82.18-.26,1.06-.45,1.33-.58.67-.3,1.29-.71,1.7-1.34.56-.87.57-1.85.62-2.85.06-1.31.12-2.62.17-3.93.07-2.08.12-4.16.08-6.23-.05-2.49-.12-5.19-1.01-7.56-.69-1.83-1.92-3.21-3.7-4.04s-3.26,1.77-1.51,2.59c.32.15.62.31.92.5.09.05.44.32.15.09.14.12.28.24.41.37.39.36.2.13.44.55.27.45.34.6.45.88.84,2.33.85,4.93.87,7.37.02,2.1-.04,4.21-.12,6.31-.03.65-.05,1.31-.08,1.96-.02.53.11,1.64-.1,2.11-.18.39-.4.47-.81.65-1.52.67-2.74,1.43-2.86,3.26-.11,1.7.51,3.5,1.14,5.05,1.67,4.14,4.17,8.12,7.17,11.42,1.3,1.43,3.42-.7,2.12-2.12h0Z"/>
      <circle class="p" cx="36.67" cy="238.21" r="8.16"/>
      <path class="v" d="M252.81,231.21c.51-2,.45-4.02.52-6.06.07-2.19.82-4.03,1.44-6.1.94-3.15,1.55-6.51,1.32-9.81-.16-2.34-.74-4.56-1.7-6.7-.66-1.46-1.54-2.79-2.27-4.2-.3-.57-.35-.51-.42-1.11-.09-.79.33-1.58.72-2.24,1-1.68,2.38-3.09,3.44-4.73s-1.55-3.14-2.59-1.51c-1.71,2.67-4.9,5.28-4.53,8.77.19,1.71,1.31,3.22,2.12,4.69,2.48,4.47,2.72,9.27,1.52,14.2-.56,2.29-1.61,4.47-1.91,6.81s.05,4.85-.56,7.2c-.48,1.87,2.41,2.67,2.89.8h0Z"/>
      <path class="v" d="M249.63,228.18c-2.62-2.88-4.85-6.4-6.36-9.99-.36-.85-.66-1.73-.88-2.63-.1-.43-.41-1.42-.13-1.82.18-.26,1.06-.45,1.33-.58.67-.3,1.29-.71,1.7-1.34.56-.87.57-1.85.62-2.85.06-1.31.12-2.62.17-3.93.07-2.08.12-4.16.08-6.23-.05-2.49-.12-5.19-1.01-7.56-.69-1.83-1.92-3.21-3.7-4.04s-3.26,1.77-1.51,2.59c.32.15.62.31.92.5.09.05.44.32.15.09.14.12.28.24.41.37.39.36.2.13.44.55.27.45.34.6.45.88.84,2.33.85,4.93.87,7.37.02,2.1-.04,4.21-.12,6.31-.03.65-.05,1.31-.08,1.96-.02.53.11,1.64-.1,2.11-.18.39-.4.47-.81.65-1.52.67-2.74,1.43-2.86,3.26-.11,1.7.51,3.5,1.14,5.05,1.67,4.14,4.17,8.12,7.17,11.42,1.3,1.43,3.42-.7,2.12-2.12h0Z"/>
      <circle class="p" cx="249.92" cy="238.21" r="8.16"/>
      <path class="v" d="M270.58,231.21c.51-2,.45-4.02.52-6.06.07-2.19.82-4.03,1.44-6.1.94-3.15,1.55-6.51,1.32-9.81-.16-2.34-.74-4.56-1.7-6.7-.66-1.46-1.54-2.79-2.27-4.2-.3-.57-.35-.51-.42-1.11-.09-.79.33-1.58.72-2.24,1-1.68,2.38-3.09,3.44-4.73s-1.55-3.14-2.59-1.51c-1.71,2.67-4.9,5.28-4.53,8.77.19,1.71,1.31,3.22,2.12,4.69,2.48,4.47,2.72,9.27,1.52,14.2-.56,2.29-1.61,4.47-1.91,6.81s.05,4.85-.56,7.2c-.48,1.87,2.41,2.67,2.89.8h0Z"/>
      <path class="v" d="M267.4,228.18c-2.62-2.88-4.85-6.4-6.36-9.99-.36-.85-.66-1.73-.88-2.63-.1-.43-.41-1.42-.13-1.82.18-.26,1.06-.45,1.33-.58.67-.3,1.29-.71,1.7-1.34.56-.87.57-1.85.62-2.85.06-1.31.12-2.62.17-3.93.07-2.08.12-4.16.08-6.23-.05-2.49-.12-5.19-1.01-7.56-.69-1.83-1.92-3.21-3.7-4.04s-3.26,1.77-1.51,2.59c.32.15.62.31.92.5.09.05.44.32.15.09.14.12.28.24.41.37.39.36.2.13.44.55.27.45.34.6.45.88.84,2.33.85,4.93.87,7.37.02,2.1-.04,4.21-.12,6.31-.03.65-.05,1.31-.08,1.96-.02.53.11,1.64-.1,2.11-.18.39-.4.47-.81.65-1.52.67-2.74,1.43-2.86,3.26-.11,1.7.51,3.5,1.14,5.05,1.67,4.14,4.17,8.12,7.17,11.42,1.3,1.43,3.42-.7,2.12-2.12h0Z"/>
      <circle class="p" cx="267.69" cy="238.21" r="8.16"/>
      <path class="v" d="M359.44,231.21c.51-2,.45-4.02.52-6.06.07-2.19.82-4.03,1.44-6.1.94-3.15,1.55-6.51,1.32-9.81-.16-2.34-.74-4.56-1.7-6.7-.66-1.46-1.54-2.79-2.27-4.2-.3-.57-.35-.51-.42-1.11-.09-.79.33-1.58.72-2.24,1-1.68,2.38-3.09,3.44-4.73s-1.55-3.14-2.59-1.51c-1.71,2.67-4.9,5.28-4.53,8.77.19,1.71,1.31,3.22,2.12,4.69,2.48,4.47,2.72,9.27,1.52,14.2-.56,2.29-1.61,4.47-1.91,6.81s.05,4.85-.56,7.2c-.48,1.87,2.41,2.67,2.89.8h0Z"/>
      <path class="v" d="M356.26,228.18c-2.62-2.88-4.85-6.4-6.36-9.99-.36-.85-.66-1.73-.88-2.63-.1-.43-.41-1.42-.13-1.82.18-.26,1.06-.45,1.33-.58.67-.3,1.29-.71,1.7-1.34.56-.87.57-1.85.62-2.85.06-1.31.12-2.62.17-3.93.07-2.08.12-4.16.08-6.23-.05-2.49-.12-5.19-1.01-7.56-.69-1.83-1.92-3.21-3.7-4.04s-3.26,1.77-1.51,2.59c.32.15.62.31.92.5.09.05.44.32.15.09.14.12.28.24.41.37.39.36.2.13.44.55.27.45.34.6.45.88.84,2.33.85,4.93.87,7.37.02,2.1-.04,4.21-.12,6.31-.03.65-.05,1.31-.08,1.96-.02.53.11,1.64-.1,2.11-.18.39-.4.47-.81.65-1.52.67-2.74,1.43-2.86,3.26-.11,1.7.51,3.5,1.14,5.05,1.67,4.14,4.17,8.12,7.17,11.42,1.3,1.43,3.42-.7,2.12-2.12h0Z"/>
      <circle class="p" cx="356.55" cy="238.21" r="8.16"/>
      <path class="v" d="M394.98,231.21c.51-2,.45-4.02.52-6.06.07-2.19.82-4.03,1.44-6.1.94-3.15,1.55-6.51,1.32-9.81-.16-2.34-.74-4.56-1.7-6.7-.66-1.46-1.54-2.79-2.27-4.2-.3-.57-.35-.51-.42-1.11-.09-.79.33-1.58.72-2.24,1-1.68,2.38-3.09,3.44-4.73s-1.55-3.14-2.59-1.51c-1.71,2.67-4.9,5.28-4.53,8.77.19,1.71,1.31,3.22,2.12,4.69,2.48,4.47,2.72,9.27,1.52,14.2-.56,2.29-1.61,4.47-1.91,6.81s.05,4.85-.56,7.2c-.48,1.87,2.41,2.67,2.89.8h0Z"/>
      <path class="v" d="M391.8,228.18c-2.62-2.88-4.85-6.4-6.36-9.99-.36-.85-.66-1.73-.88-2.63-.1-.43-.41-1.42-.13-1.82.18-.26,1.06-.45,1.33-.58.67-.3,1.29-.71,1.7-1.34.56-.87.57-1.85.62-2.85.06-1.31.12-2.62.17-3.93.07-2.08.12-4.16.08-6.23-.05-2.49-.12-5.19-1.01-7.56-.69-1.83-1.92-3.21-3.7-4.04s-3.26,1.77-1.51,2.59c.32.15.62.31.92.5.09.05.44.32.15.09.14.12.28.24.41.37.39.36.2.13.44.55.27.45.34.6.45.88.84,2.33.85,4.93.87,7.37.02,2.1-.04,4.21-.12,6.31-.03.65-.05,1.31-.08,1.96-.02.53.11,1.64-.1,2.11-.18.39-.4.47-.81.65-1.52.67-2.74,1.43-2.86,3.26-.11,1.7.51,3.5,1.14,5.05,1.67,4.14,4.17,8.12,7.17,11.42,1.3,1.43,3.42-.7,2.12-2.12h0Z"/>
      <circle class="p" cx="392.09" cy="238.21" r="8.16"/>
      <path class="v" d="M430.52,231.21c.51-2,.45-4.02.52-6.06.07-2.19.82-4.03,1.44-6.1.94-3.15,1.55-6.51,1.32-9.81-.16-2.34-.74-4.56-1.7-6.7-.66-1.46-1.54-2.79-2.27-4.2-.3-.57-.35-.51-.42-1.11-.09-.79.33-1.58.72-2.24,1-1.68,2.38-3.09,3.44-4.73s-1.55-3.14-2.59-1.51c-1.71,2.67-4.9,5.28-4.53,8.77.19,1.71,1.31,3.22,2.12,4.69,2.48,4.47,2.72,9.27,1.52,14.2-.56,2.29-1.61,4.47-1.91,6.81s.05,4.85-.56,7.2c-.48,1.87,2.41,2.67,2.89.8h0Z"/>
      <path class="v" d="M427.34,228.18c-2.62-2.88-4.85-6.4-6.36-9.99-.36-.85-.66-1.73-.88-2.63-.1-.43-.41-1.42-.13-1.82.18-.26,1.06-.45,1.33-.58.67-.3,1.29-.71,1.7-1.34.56-.87.57-1.85.62-2.85.06-1.31.12-2.62.17-3.93.07-2.08.12-4.16.08-6.23-.05-2.49-.12-5.19-1.01-7.56-.69-1.83-1.92-3.21-3.7-4.04s-3.26,1.77-1.51,2.59c.32.15.62.31.92.5.09.05.44.32.15.09.14.12.28.24.41.37.39.36.2.13.44.55.27.45.34.6.45.88.84,2.33.85,4.93.87,7.37.02,2.1-.04,4.21-.12,6.31-.03.65-.05,1.31-.08,1.96-.02.53.11,1.64-.1,2.11-.18.39-.4.47-.81.65-1.52.67-2.74,1.43-2.86,3.26-.11,1.7.51,3.5,1.14,5.05,1.67,4.14,4.17,8.12,7.17,11.42,1.3,1.43,3.42-.7,2.12-2.12h0Z"/>
      <circle class="p" cx="427.63" cy="238.21" r="8.16"/>
      <path class="v" d="M466.06,231.21c.51-2,.45-4.02.52-6.06.07-2.19.82-4.03,1.44-6.1.94-3.15,1.55-6.51,1.32-9.81-.16-2.34-.74-4.56-1.7-6.7-.66-1.46-1.54-2.79-2.27-4.2-.3-.57-.35-.51-.42-1.11-.09-.79.33-1.58.72-2.24,1-1.68,2.38-3.09,3.44-4.73s-1.55-3.14-2.59-1.51c-1.71,2.67-4.9,5.28-4.53,8.77.19,1.71,1.31,3.22,2.12,4.69,2.48,4.47,2.72,9.27,1.52,14.2-.56,2.29-1.61,4.47-1.91,6.81s.05,4.85-.56,7.2c-.48,1.87,2.41,2.67,2.89.8h0Z"/>
      <path class="v" d="M462.88,228.18c-2.62-2.88-4.85-6.4-6.36-9.99-.36-.85-.66-1.73-.88-2.63-.1-.43-.41-1.42-.13-1.82.18-.26,1.06-.45,1.33-.58.67-.3,1.29-.71,1.7-1.34.56-.87.57-1.85.62-2.85.06-1.31.12-2.62.17-3.93.07-2.08.12-4.16.08-6.23-.05-2.49-.12-5.19-1.01-7.56-.69-1.83-1.92-3.21-3.7-4.04s-3.26,1.77-1.51,2.59c.32.15.62.31.92.5.09.05.44.32.15.09.14.12.28.24.41.37.39.36.2.13.44.55.27.45.34.6.45.88.84,2.33.85,4.93.87,7.37.02,2.1-.04,4.21-.12,6.31-.03.65-.05,1.31-.08,1.96-.02.53.11,1.64-.1,2.11-.18.39-.4.47-.81.65-1.52.67-2.74,1.43-2.86,3.26-.11,1.7.51,3.5,1.14,5.05,1.67,4.14,4.17,8.12,7.17,11.42,1.3,1.43,3.42-.7,2.12-2.12h0Z"/>
      <circle class="p" cx="463.17" cy="238.21" r="8.16"/>
      <path class="v" d="M537.15,231.21c.51-2,.45-4.02.52-6.06.07-2.19.82-4.03,1.44-6.1.94-3.15,1.55-6.51,1.32-9.81-.16-2.34-.74-4.56-1.7-6.7-.66-1.46-1.54-2.79-2.27-4.2-.3-.57-.35-.51-.42-1.11-.09-.79.33-1.58.72-2.24,1-1.68,2.38-3.09,3.44-4.73s-1.55-3.14-2.59-1.51c-1.71,2.67-4.9,5.28-4.53,8.77.19,1.71,1.31,3.22,2.12,4.69,2.48,4.47,2.72,9.27,1.52,14.2-.56,2.29-1.61,4.47-1.91,6.81s.05,4.85-.56,7.2c-.48,1.87,2.41,2.67,2.89.8h0Z"/>
      <path class="v" d="M533.97,228.18c-2.62-2.88-4.85-6.4-6.36-9.99-.36-.85-.66-1.73-.88-2.63-.1-.43-.41-1.42-.13-1.82.18-.26,1.06-.45,1.33-.58.67-.3,1.29-.71,1.7-1.34.56-.87.57-1.85.62-2.85.06-1.31.12-2.62.17-3.93.07-2.08.12-4.16.08-6.23-.05-2.49-.12-5.19-1.01-7.56-.69-1.83-1.92-3.21-3.7-4.04s-3.26,1.77-1.51,2.59c.32.15.62.31.92.5.09.05.44.32.15.09.14.12.28.24.41.37.39.36.2.13.44.55.27.45.34.6.45.88.84,2.33.85,4.93.87,7.37.02,2.1-.04,4.21-.12,6.31-.03.65-.05,1.31-.08,1.96-.02.53.11,1.64-.1,2.11-.18.39-.4.47-.81.65-1.52.67-2.74,1.43-2.86,3.26-.11,1.7.51,3.5,1.14,5.05,1.67,4.14,4.17,8.12,7.17,11.42,1.3,1.43,3.42-.7,2.12-2.12h0Z"/>
      <circle class="p" cx="534.26" cy="238.21" r="8.16"/>
      <path class="v" d="M483.83,231.21c.51-2,.45-4.02.52-6.06.07-2.19.82-4.03,1.44-6.1.94-3.15,1.55-6.51,1.32-9.81-.16-2.34-.74-4.56-1.7-6.7-.66-1.46-1.54-2.79-2.27-4.2-.3-.57-.35-.51-.42-1.11-.09-.79.33-1.58.72-2.24,1-1.68,2.38-3.09,3.44-4.73s-1.55-3.14-2.59-1.51c-1.71,2.67-4.9,5.28-4.53,8.77.19,1.71,1.31,3.22,2.12,4.69,2.48,4.47,2.72,9.27,1.52,14.2-.56,2.29-1.61,4.47-1.91,6.81s.05,4.85-.56,7.2c-.48,1.87,2.41,2.67,2.89.8h0Z"/>
      <path class="v" d="M480.66,228.18c-2.62-2.88-4.85-6.4-6.36-9.99-.36-.85-.66-1.73-.88-2.63-.1-.43-.41-1.42-.13-1.82.18-.26,1.06-.45,1.33-.58.67-.3,1.29-.71,1.7-1.34.56-.87.57-1.85.62-2.85.06-1.31.12-2.62.17-3.93.07-2.08.12-4.16.08-6.23-.05-2.49-.12-5.19-1.01-7.56-.69-1.83-1.92-3.21-3.7-4.04s-3.26,1.77-1.51,2.59c.32.15.62.31.92.5.09.05.44.32.15.09.14.12.28.24.41.37.39.36.2.13.44.55.27.45.34.6.45.88.84,2.33.85,4.93.87,7.37.02,2.1-.04,4.21-.12,6.31-.03.65-.05,1.31-.08,1.96-.02.53.11,1.64-.1,2.11-.18.39-.4.47-.81.65-1.52.67-2.74,1.43-2.86,3.26-.11,1.7.51,3.5,1.14,5.05,1.67,4.14,4.17,8.12,7.17,11.42,1.3,1.43,3.42-.7,2.12-2.12h0Z"/>
      <circle class="p" cx="480.95" cy="238.21" r="8.16"/>
      <path class="v" d="M217.27,231.21c.51-2,.45-4.02.52-6.06.07-2.19.82-4.03,1.44-6.1.94-3.15,1.55-6.51,1.32-9.81-.16-2.34-.74-4.56-1.7-6.7-.66-1.46-1.54-2.79-2.27-4.2-.3-.57-.35-.51-.42-1.11-.09-.79.33-1.58.72-2.24,1-1.68,2.38-3.09,3.44-4.73s-1.55-3.14-2.59-1.51c-1.71,2.67-4.9,5.28-4.53,8.77.19,1.71,1.31,3.22,2.12,4.69,2.48,4.47,2.72,9.27,1.52,14.2-.56,2.29-1.61,4.47-1.91,6.81s.05,4.85-.56,7.2c-.48,1.87,2.41,2.67,2.89.8h0Z"/>
      <path class="v" d="M214.09,228.18c-2.62-2.88-4.85-6.4-6.36-9.99-.36-.85-.66-1.73-.88-2.63-.1-.43-.41-1.42-.13-1.82.18-.26,1.06-.45,1.33-.58.67-.3,1.29-.71,1.7-1.34.56-.87.57-1.85.62-2.85.06-1.31.12-2.62.17-3.93.07-2.08.12-4.16.08-6.23-.05-2.49-.12-5.19-1.01-7.56-.69-1.83-1.92-3.21-3.7-4.04s-3.26,1.77-1.51,2.59c.32.15.62.31.92.5.09.05.44.32.15.09.14.12.28.24.41.37.39.36.2.13.44.55.27.45.34.6.45.88.84,2.33.85,4.93.87,7.37.02,2.1-.04,4.21-.12,6.31-.03.65-.05,1.31-.08,1.96-.02.53.11,1.64-.1,2.11-.18.39-.4.47-.81.65-1.52.67-2.74,1.43-2.86,3.26-.11,1.7.51,3.5,1.14,5.05,1.67,4.14,4.17,8.12,7.17,11.42,1.3,1.43,3.42-.7,2.12-2.12h0Z"/>
      <circle class="p" cx="214.38" cy="238.21" r="8.16"/>
    </g>
    <g>
      <circle class="s" cx="192.96" cy="312.2" r="14.74"/>
      <circle class="o" cx="210.39" cy="312.2" r="14.74"/>
    </g>
    <g>
      <circle class="n" cx="448.08" cy="295.28" r="14.24"/>
      <circle class="l" cx="466.34" cy="295.45" r="16.75"/>
      <circle class="r" cx="483.26" cy="295.28" r="14.24"/>
    </g>
    <g>
      <circle class="q" cx="341.2" cy="63.29" r="28.48"/>
      <g>
        <line class="m" x1="341.2" y1="43.52" x2="341.2" y2="83.06"/>
        <line class="m" x1="322.1" y1="63.29" x2="360.31" y2="63.29"/>
      </g>
    </g>
    <g>
      <circle class="t" cx="145.24" cy="86.49" r="20.11"/>
      <g>
        <line class="m" x1="145.24" y1="72.75" x2="145.24" y2="100.22"/>
        <line class="m" x1="132.17" y1="86.49" x2="158.65" y2="86.49"/>
      </g>
    </g>
  </g>
</svg>