<?xml version="1.0" encoding="UTF-8"?>
<svg id="b" data-name="Layer 2" xmlns="http://www.w3.org/2000/svg" width="650" height="1053.81" viewBox="0 0 650 1053.81">
  <defs>
    <style>
      .d {
        fill: #f26739;
      }

      .d, .e, .f, .g, .h {
        stroke-miterlimit: 10;
        stroke-width: 10px;
      }

      .d, .e, .f, .h {
        stroke: #010101;
      }

      .e, .i {
        fill: none;
      }

      .f {
        fill: #fbb03c;
      }

      .g {
        stroke: #231f20;
      }

      .g, .h {
        fill: #f79421;
      }
    </style>
  </defs>
  <g id="c" data-name="Layer 1">
    <g>
      <rect class="i" width="650" height="1053.81"/>
      <g>
        <path class="h" d="M274.55,920.49c0,50.98-41.24,92.31-92.11,92.31s-92.11-41.33-92.11-92.31,41.24-92.31,92.11-92.31,92.11,41.33,92.11,92.31Z"/>
        <path class="e" d="M181.79,828.17c7.94-32.1-44.32-25.42-71.35-38.21-32.75-15.5-33.21-51.6-17.87-61.9,21.02-14.1,72.44,19.7,95.29,4.58,11.43-7.56,10.24-23.75,5.96-38.97"/>
        <path class="d" d="M459.44,688.72c-33.71-8.54-76.23-16.11-125.59-17.59-65.17-1.95-120.09,7.41-160.36,17.59V55.6c39.64,8.79,90.89,16.33,150.7,15.63,52.92-.62,98.72-7.53,135.25-15.63v633.12Z"/>
        <path class="g" d="M582.5,514.82c-150.4,13.61-165.68-16.18-198.89-18.7-2.61-.2-12.85-1.06-23.82,3.97-22.93,10.52-37.64,41.55-33.75,65.51,5.23,32.22,43.65,48.81,69.48,59.56,24.47,10.18,88.42,61.69,186.98-8.01,12.35-8.73,53.16-16.77,40.7-62.63-6.66-24.51-9.57-39.92-40.7-39.7Z"/>
        <path class="g" d="M67.5,513.9c150.4,13.61,165.68-16.18,198.89-18.7,2.61-.2,12.85-1.06,23.82,3.97,22.93,10.52,37.64,41.55,33.75,65.51-5.23,32.22-43.65,48.81-69.48,59.56-24.47,10.18-88.42,61.69-186.98-8.01-12.35-8.73-53.16-16.77-40.7-62.63,6.66-24.51,9.57-39.92,40.7-39.7Z"/>
        <path class="f" d="M416.74,54.26c15.64-5.25,47.43-13.23,79.41,0,0,0,29.84,12.35,51.61,47.64,64.33,104.29,38.64,599.55-71.47,607.46-30.71,2.21-58.42-34.2-59.55-35.73-32.53-43.8,2.85-82.73-11.91-154.84-17.6-86.03-80.3-91.02-79.41-162.78.56-44.61,24.8-44.43,31.76-111.17,5.52-52.9-7.75-71.88,3.97-111.17,11.13-37.31,35.93-63.17,55.58-79.41Z"/>
        <path class="f" d="M234.08,54.26c-15.64-5.25-47.43-13.23-79.41,0,0,0-29.84,12.35-51.61,47.64-64.33,104.29-38.64,599.55,71.47,607.46,30.71,2.21,58.42-34.2,59.55-35.73,32.53-43.8-2.85-82.73,11.91-154.84,17.6-86.03,80.3-91.02,79.41-162.78-.56-44.61-24.8-44.43-31.76-111.17-5.52-52.9,7.75-71.88-3.97-111.17-11.13-37.31-35.93-63.17-55.58-79.41Z"/>
      </g>
    </g>
  </g>
</svg>