<?xml version="1.0" encoding="UTF-8"?>
<svg id="b" data-name="Layer 2" xmlns="http://www.w3.org/2000/svg" width="536.5" height="620.21" viewBox="0 0 536.5 620.21">
  <defs>
    <style>
      .d {
        fill: #f7ec13;
      }

      .d, .e {
        stroke: #231f20;
        stroke-miterlimit: 10;
        stroke-width: 10px;
      }

      .e {
        fill: #cccb31;
      }
    </style>
  </defs>
  <g id="c" data-name="Layer 1">
    <g>
      <path class="e" d="M401.37,586.57c-38.61,29.92-138.08,23.84-185.63,24.69-25.01-1.32-105.07-8.17-96.86-36.25,9.22-31.53,19.6-57.08,18.47-89.88-1.21-72.41-.37-147.32-.56-219.73.02-23.92.14-47.26-2.02-71.12-1.65-44.5-38.99-144.33,6.87-161.57,47.33-17.79,193.49-24.75,238.98,3.45,57.45,35.62,21.47,51.79,14.43,93.9-4.16,24.55-7.1,49.66-6.53,74.67.44,79.95-.13,160.91.23,241.13.21,18.41,2.37,37.16,8.56,54.63,10.72,29.96,35.34,61.31,4.18,85.98l-.12.1Z"/>
      <path class="d" d="M182.69,157.93c4.74,22.58-9.42,290.5-7.54,325.45,0,0,23.63,103.91-2.67,131.84-.08.08-58.1-7.64-58.21-7.66-85.79-16.85-86.81-100.31-104-341.53C2.41,155.66-4.85,90.79,53,20.83,74.48-5.14,186.57,1.84,186.57,34.48l-3.88,123.44Z"/>
      <path class="d" d="M353.8,157.93c-4.74,22.58,9.42,290.5,7.54,325.45,0,0-23.63,103.91,2.67,131.84.08.08,58.1-7.64,58.21-7.66,85.79-16.85,86.81-100.31,104-341.53,7.87-110.36,15.12-175.24-42.72-245.19-21.48-25.98-133.57-18.99-133.57,13.65l3.88,123.44Z"/>
    </g>
  </g>
</svg>