<?xml version="1.0" encoding="UTF-8"?>
<svg id="Layer_2" data-name="Layer 2" xmlns="http://www.w3.org/2000/svg" viewBox="0 0 82.54 99.43" width="82.54" height="99.43">
  <defs>
    <style>
      .cls-1 {
        stroke-width: 1.28px;
      }

      .cls-1, .cls-2, .cls-3, .cls-4, .cls-5 {
        stroke-miterlimit: 10;
      }

      .cls-1, .cls-2, .cls-3, .cls-5 {
        stroke: #000;
      }

      .cls-1, .cls-4 {
        fill: #f7931e;
      }

      .cls-2 {
        fill: none;
        stroke-width: .88px;
      }

      .cls-3 {
        fill: #fbb03b;
      }

      .cls-4 {
        stroke: #231f20;
      }

      .cls-5 {
        fill: #f15a24;
        stroke-width: .97px;
      }
    </style>
  </defs>
  <g id="Layer_2-2" data-name="Layer 2">
    <g>
      <path class="cls-2" d="M31.18,94.03c-2.21,4.4-4.47,4.38-7.95,2.74-4.21-1.99-9.54-2.95-7.56-4.28,2.7-1.81,2.12-.89,5.06-2.84,1.47-.97-.32-3.06-.87-5.01"/>
      <path class="cls-5" d="M59.94,83.21c-4.34-1.11-9.8-2.1-16.15-2.29-8.38-.25-15.45.97-20.62,2.29V.61c5.1,1.15,11.69,2.13,19.38,2.04,6.81-.08,12.7-.98,17.39-2.04v82.61Z"/>
      <path class="cls-4" d="M11.17,52.92c11.64,15.55,15.8,14.44,18.9,17.4.24.23,1.21,1.14,1.67,2.62.97,3.1-.73,7.17-3.36,8.86-3.53,2.27-8.42.03-11.67-1.52-3.08-1.46-13.51-3.14-15.33-18.56-.23-1.93-2.97-6.52,2.48-9.28,2.92-1.47,4.64-2.52,7.3.47Z"/>
      <path class="cls-4" d="M71.37,52.92c-11.64,15.55-15.8,14.44-18.9,17.4-.24.23-1.21,1.14-1.67,2.62-.97,3.1.73,7.17,3.36,8.86,3.53,2.27,8.42.03,11.67-1.52,3.08-1.46,13.51-3.14,15.33-18.56.23-1.93,2.97-6.52-2.48-9.28-2.92-1.47-4.64-2.52-7.3.47Z"/>
      <path class="cls-3" d="M55.86,1.54c2.01-.68,6.1-1.7,10.21,0,0,0,3.84,1.59,6.64,6.13,8.27,13.41,4.97,77.11-9.19,78.13-3.95.28-7.51-4.4-7.66-4.6-4.18-5.63.37-10.64-1.53-19.91-2.26-11.06-2.94-10.41-4.8-19.45-.89-4.34-2.22-7.2-1.32-15.78.71-6.8-1-9.25.51-14.3,1.43-4.8,4.62-8.12,7.15-10.21Z"/>
      <path class="cls-3" d="M26.94,1.54c-2.01-.68-6.1-1.7-10.21,0,0,0-3.84,1.59-6.64,6.13C1.81,21.08,5.12,84.78,19.28,85.79c3.95.28,7.51-4.4,7.66-4.6,4.18-5.63-.37-10.64,1.53-19.91,2.26-11.06,2.94-10.41,4.8-19.45.89-4.34,2.22-7.2,1.32-15.78-.71-6.8,1-9.25-.51-14.3-1.43-4.8-4.62-8.13-7.15-10.21Z"/>
      <path class="cls-1" d="M53.39,86.92c0,6.56-5.3,11.87-11.85,11.87s-11.85-5.32-11.85-11.87,5.3-11.87,11.85-11.87,11.85,5.32,11.85,11.87Z"/>
    </g>
  </g>
</svg>