<?xml version="1.0" encoding="UTF-8"?>
<svg id="Layer_2" data-name="Layer 2" xmlns="http://www.w3.org/2000/svg" viewBox="0 0 78.31 127.37" width="78.31" height="127.37">
  <defs>
    <style>
      .cls-1 {
        fill: #f15a24;
        stroke-width: .99px;
      }

      .cls-1, .cls-2, .cls-3, .cls-4 {
        stroke: #000;
      }

      .cls-1, .cls-2, .cls-3, .cls-4, .cls-5 {
        stroke-miterlimit: 10;
      }

      .cls-2 {
        stroke-width: 1.28px;
      }

      .cls-2, .cls-5 {
        fill: #f7931e;
      }

      .cls-3 {
        fill: none;
        stroke-width: .88px;
      }

      .cls-4 {
        fill: #fbb03b;
      }

      .cls-5 {
        stroke: #231f20;
      }
    </style>
  </defs>
  <g id="Layer_2-2" data-name="Layer 2">
    <g>
      <path class="cls-2" d="M32.66,114.86c0,6.56-5.3,11.87-11.85,11.87s-11.85-5.32-11.85-11.87,5.3-11.87,11.85-11.87,11.85,5.32,11.85,11.87Z"/>
      <path class="cls-1" d="M56.44,85.69c-4.34-1.15-9.8-2.16-16.15-2.36-8.38-.26-15.45.99-20.62,2.36V.72c5.1,1.18,11.69,2.19,19.38,2.1,6.81-.08,12.7-1.01,17.39-2.1v84.97Z"/>
      <path class="cls-5" d="M72.27,60.66c-19.34,1.75-21.31-2.08-25.58-2.4-.34-.03-1.65-.14-3.06.51-2.95,1.35-4.84,5.34-4.34,8.43.67,4.14,5.61,6.28,8.94,7.66,3.15,1.31,11.37,7.93,24.05-1.03,1.59-1.12,6.84-2.16,5.23-8.05-.86-3.15-1.23-5.13-5.23-5.11Z"/>
      <path class="cls-5" d="M6.04,60.55c19.34,1.75,21.31-2.08,25.58-2.4.34-.03,1.65-.14,3.06.51,2.95,1.35,4.84,5.34,4.34,8.43-.67,4.14-5.61,6.28-8.94,7.66-3.15,1.31-11.37,7.93-24.05-1.03-1.59-1.12-6.84-2.16-5.23-8.05.86-3.15,1.23-5.13,5.23-5.11Z"/>
      <path class="cls-4" d="M50.95,1.43c2.01-.68,6.1-1.7,10.21,0,0,0,3.84,1.59,6.64,6.13,8.27,13.41,4.97,77.11-9.19,78.13-3.95.28-7.51-4.4-7.66-4.6-4.18-5.63.37-10.64-1.53-19.91-2.26-11.06-10.33-11.71-10.21-20.94.07-5.74,3.19-5.71,4.09-14.3.71-6.8-1-9.25.51-14.3,1.43-4.8,4.62-8.12,7.15-10.21Z"/>
      <path class="cls-4" d="M27.46,1.43c-2.01-.68-6.1-1.7-10.21,0,0,0-3.84,1.59-6.64,6.13-8.27,13.41-4.97,77.11,9.19,78.13,3.95.28,7.51-4.4,7.66-4.6,4.18-5.63-.37-10.64,1.53-19.91,2.26-11.06,10.33-11.71,10.21-20.94-.07-5.74-3.19-5.71-4.09-14.3-.71-6.8,1-9.25-.51-14.3-1.43-4.8-4.62-8.13-7.15-10.21Z"/>
      <path class="cls-3" d="M20.73,102.98c1.02-4.13-5.7-3.27-9.18-4.91-4.21-1.99-4.27-6.64-2.3-7.96,2.7-1.81,9.32,2.53,12.26.59,1.47-.97,1.32-3.06.77-5.01"/>
    </g>
  </g>
</svg>