<?xml version="1.0" encoding="UTF-8"?>
<svg id="Layer_2" xmlns="http://www.w3.org/2000/svg" width="650" height="900" viewBox="0 0 650 900">
  <defs>
    <style>
      .cls-1 {
        fill: none;
      }

      .cls-2 {
        fill: #f4bb19;
        stroke: #231f20;
      }

      .cls-2, .cls-3 {
        stroke-miterlimit: 10;
        stroke-width: 10px;
      }

      .cls-3 {
        fill: #fcf9ce;
        stroke: #010101;
      }
    </style>
  </defs>
  <g id="Layer_1-2" data-name="Layer_1">
    <g>
      <g>
        <path class="cls-3" d="M88.67,172.67c-119.61,97.89,85.52,598.64,85.52,598.64,71.14-7.41,74.16-14.95,165.1-14.46,80.55.43,86.31,17.12,150.76,23.8-50.75-149.71,164.96-551.4,27.91-630.2-16.08-9.24-206.4,20.68-247,13.02-120.44-22.72-168.59-2.03-182.3,9.19Z"/>
        <path class="cls-2" d="M259.46,495.82c-.25-59.06.64-120.18-.67-175.98-1.27-29.67-2.82-56.71-14.98-80.89-10.47-20.59,14.74-45.89,6.87-67.05-9.91-26.64-26-42.66-45-50.45l-72.72,101.16-49.52-68.89c-23.46,20.52-40.61,47.16-43.79,74.32-4.88,41.57,3.06,99.95,2.09,142.12.06,82.41,25.03,220.6-24.56,260.97-25.31,20.6.45,69.08,11.53,98.22,11.75,30.79,37.74,45.12,69.44,51.67,38.57,7.66,88.93,5.04,121.44-15.99l.11-.07c40.08-27.13,38-79.34,39.59-130.51.36-44.35.08-89.09.17-138.63Z"/>
        <path class="cls-2" d="M431.34,765.03c32.51,21.04,82.87,23.65,121.44,15.99,31.71-6.55,57.69-20.88,69.44-51.67,11.08-29.15,36.85-77.62,11.53-98.22-49.59-40.37-24.62-178.56-24.56-260.97-.97-42.17,6.97-100.55,2.09-142.12-10.36-88.31-168.29-171.11-211.04-56.14-7.87,21.16,17.35,46.46,6.87,67.05-12.16,24.18-13.71,51.22-14.98,80.89-1.31,55.8-.42,116.93-.67,175.98.09,49.54-.19,94.28.17,138.63,1.6,51.16-.49,103.38,39.59,130.51l.11.07Z"/>
      </g>
      <rect class="cls-1" width="650" height="900"/>
    </g>
  </g>
</svg>