<?xml version="1.0" encoding="UTF-8"?>
<svg id="b" data-name="Layer 2" xmlns="http://www.w3.org/2000/svg" width="660" height="793.91" viewBox="0 0 660 793.91">
  <defs>
    <style>
      .d {
        fill: #f26739;
      }

      .d, .e, .f, .g, .h {
        stroke-miterlimit: 10;
        stroke-width: 10px;
      }

      .d, .e, .f, .h {
        stroke: #010101;
      }

      .e {
        fill: none;
      }

      .f {
        fill: #fbb03c;
      }

      .g {
        stroke: #231f20;
      }

      .g, .h {
        fill: #f79421;
      }
    </style>
  </defs>
  <g id="c" data-name="Layer 1">
    <g>
      <path class="e" d="M257.75,752.49c-17.62,35.11-43.84,33.42-71.55,20.3-33.58-15.89-76.02-23.53-60.29-34.09,21.55-14.46,16.93-7.13,40.36-22.63,11.72-7.76-2.54-24.35-6.93-39.96"/>
      <path class="d" d="M478.79,664.73c-34.56-8.88-78.15-16.76-128.76-18.29-66.82-2.02-123.12,7.7-164.4,18.29V6.25c40.64,9.14,93.18,16.99,154.5,16.26,54.26-.65,101.21-7.83,138.66-16.26v658.48Z"/>
      <path class="g" d="M90.07,423.24c92.81,123.93,125.99,115.14,150.69,138.71,1.94,1.85,9.62,9.06,13.32,20.87,7.72,24.69-5.84,57.18-26.76,70.65-28.14,18.12-67.13.23-93.04-12.08-24.54-11.66-107.66-25.04-122.17-147.95-1.82-15.4-23.69-52.01,19.8-73.97,23.24-11.74,36.98-20.09,58.17,3.77Z"/>
      <path class="g" d="M569.93,423.24c-92.81,123.93-125.99,115.14-150.69,138.71-1.94,1.85-9.62,9.06-13.32,20.87-7.72,24.69,5.84,57.18,26.76,70.65,28.14,18.12,67.13.23,93.04-12.08,24.54-11.66,107.66-25.04,122.17-147.95,1.82-15.4,23.69-52.01-19.8-73.97-23.24-11.74-36.98-20.09-58.17,3.77Z"/>
      <path class="f" d="M446.32,13.66c16.03-5.39,48.63-13.57,81.41,0,0,0,30.6,12.66,52.92,48.85,65.95,106.92,39.61,614.68-73.27,622.79-31.49,2.26-59.89-35.06-61.06-36.63-33.35-44.91,2.92-84.81-12.21-158.75-18.05-88.2-23.45-83.01-38.3-155.07-7.13-34.59-17.68-57.37-10.55-125.8,5.65-54.23-7.95-73.7,4.07-113.97,11.42-38.26,36.84-64.77,56.99-81.41Z"/>
      <path class="f" d="M215.74,13.66c-16.03-5.39-48.63-13.57-81.41,0,0,0-30.6,12.66-52.92,48.85C15.46,169.43,41.8,677.18,154.68,685.29c31.49,2.26,59.89-35.06,61.06-36.63,33.35-44.91-2.92-84.81,12.21-158.75,18.05-88.2,23.45-83.01,38.3-155.07,7.13-34.59,17.68-57.37,10.55-125.8-5.65-54.23,7.95-73.7-4.07-113.97-11.42-38.26-36.84-64.77-56.99-81.41Z"/>
      <path class="h" d="M426.64,694.27c0,52.27-42.28,94.64-94.44,94.64s-94.44-42.37-94.44-94.64,42.28-94.64,94.44-94.64,94.44,42.37,94.44,94.64Z"/>
    </g>
  </g>
</svg>