<?xml version="1.0" encoding="UTF-8"?>
<svg id="Layer_2" data-name="Layer 2" xmlns="http://www.w3.org/2000/svg" width="227.12" height="163.44" xmlns:xlink="http://www.w3.org/1999/xlink" viewBox="0 0 227.12 163.44">
  <defs>
    <style>
      .cls-1 {
        fill: url(#linear-gradient);
        stroke: #231f20;
        stroke-width: 14.04px;
      }

      .cls-1, .cls-2, .cls-3, .cls-4 {
        stroke-miterlimit: 10;
      }

      .cls-2 {
        stroke-dasharray: 26.01 26.01;
      }

      .cls-2, .cls-3, .cls-4 {
        fill: none;
        stroke: #fff;
        stroke-width: 15px;
      }

      .cls-5 {
        fill: url(#linear-gradient-2);
      }

      .cls-4 {
        stroke-dasharray: 31.37 31.37;
      }
    </style>
    <linearGradient id="linear-gradient" x1="8896.01" y1="8886.39" x2="9109.09" y2="8886.39" gradientTransform="translate(9116.11 8968.11) rotate(-180)" gradientUnits="userSpaceOnUse">
      <stop offset="0" stop-color="#231f20" stop-opacity=".4"/>
      <stop offset="1" stop-color="#231f20" stop-opacity=".4"/>
    </linearGradient>
    <linearGradient id="linear-gradient-2" x1="8909.13" y1="8888.03" x2="9095.97" y2="8888.03" gradientTransform="translate(9116.11 8968.11) rotate(-180)" gradientUnits="userSpaceOnUse">
      <stop offset="0" stop-color="#fff" stop-opacity="0"/>
      <stop offset=".03" stop-color="#fff" stop-opacity=".09"/>
      <stop offset=".08" stop-color="#fff" stop-opacity=".23"/>
      <stop offset=".14" stop-color="#fff" stop-opacity=".36"/>
      <stop offset=".2" stop-color="#fff" stop-opacity=".47"/>
      <stop offset=".27" stop-color="#fff" stop-opacity=".55"/>
      <stop offset=".35" stop-color="#fff" stop-opacity=".62"/>
      <stop offset=".46" stop-color="#fff" stop-opacity=".67"/>
      <stop offset=".6" stop-color="#fff" stop-opacity=".69"/>
      <stop offset="1" stop-color="#fff" stop-opacity=".7"/>
    </linearGradient>
  </defs>
  <g id="Layer_1-2" data-name="Layer 1">
    <g>
      <path class="cls-1" d="M9,7.02h209.12c1.61,0,2.54,1.82,1.6,3.13l-104.56,145.45c-.79,1.1-2.42,1.1-3.21,0L7.4,10.15c-.94-1.31,0-3.13,1.6-3.13Z"/>
      <g>
        <polygon class="cls-5" points="20.14 15.1 206.98 15.1 113.56 145.06 20.14 15.1"/>
        <g>
          <polyline class="cls-3" points="28.89 27.28 20.14 15.1 35.14 15.1"/>
          <line class="cls-4" x1="66.51" y1="15.1" x2="176.3" y2="15.1"/>
          <polyline class="cls-3" points="191.98 15.1 206.98 15.1 198.22 27.28"/>
          <line class="cls-2" x1="183.04" y1="48.4" x2="129.91" y2="122.32"/>
          <polyline class="cls-3" points="122.31 132.88 113.56 145.06 104.8 132.88"/>
          <line class="cls-2" x1="89.62" y1="111.76" x2="36.48" y2="37.84"/>
        </g>
      </g>
    </g>
  </g>
</svg>