<?xml version="1.0" encoding="UTF-8"?>
<svg id="b" data-name="Layer 2" xmlns="http://www.w3.org/2000/svg" width="660" height="1052.52" viewBox="0 0 660 1052.52">
  <defs>
    <style>
      .d {
        fill: #f26739;
      }

      .d, .e, .f, .g, .h {
        stroke-miterlimit: 10;
        stroke-width: 10px;
      }

      .d, .e, .f, .h {
        stroke: #010101;
      }

      .e, .i {
        fill: none;
      }

      .f {
        fill: #fbb03c;
      }

      .g {
        stroke: #231f20;
      }

      .g, .h {
        fill: #f79421;
      }
    </style>
  </defs>
  <g id="c" data-name="Layer 1">
    <g>
      <g>
        <path class="h" d="M257.19,926.02c0,52.27-42.28,94.64-94.44,94.64s-94.44-42.37-94.44-94.64,42.28-94.64,94.44-94.64,94.44,42.37,94.44,94.64Z"/>
        <path class="e" d="M147.29,831.38c8.14-32.91-45.44-26.06-73.15-39.17-33.58-15.89-34.05-52.9-18.32-63.46,21.55-14.46,74.26,20.2,97.69,4.7,11.72-7.76,10.5-24.35,6.11-39.96"/>
        <g>
          <path class="d" d="M467.96,691.11c-34.56-8.74-78.15-16.49-128.76-18-66.82-1.99-123.12,7.58-164.4,18V43.15c40.64,9,93.18,16.72,154.5,16,54.26-.63,101.21-7.71,138.66-16v647.96Z"/>
          <path class="g" d="M90.07,448.7c92.81,123.93,125.99,115.14,150.69,138.71,1.94,1.85,9.62,9.06,13.32,20.87,7.72,24.69-5.84,57.18-26.76,70.65-28.14,18.12-67.13.23-93.04-12.08-24.54-11.66-107.66-25.04-122.17-147.95-1.82-15.4-23.69-52.01,19.8-73.97,23.24-11.74,36.98-20.09,58.17,3.77Z"/>
          <path class="g" d="M569.93,448.7c-92.81,123.93-125.99,115.14-150.69,138.71-1.94,1.85-9.62,9.06-13.32,20.87-7.72,24.69,5.84,57.18,26.76,70.65,28.14,18.12,67.13.23,93.04-12.08,24.54-11.66,107.66-25.04,122.17-147.95,1.82-15.4,23.69-52.01-19.8-73.97-23.24-11.74-36.98-20.09-58.17,3.77Z"/>
          <path class="f" d="M446.32,39.12c16.03-5.39,48.63-13.57,81.41,0,0,0,30.6,12.66,52.92,48.85,65.95,106.92,39.61,614.68-73.27,622.79-31.49,2.26-59.89-35.06-61.06-36.63-33.35-44.91,2.92-84.81-12.21-158.75-18.05-88.2-23.45-83.01-38.3-155.07-7.13-34.59-17.68-57.37-10.55-125.8,5.65-54.23-7.95-73.7,4.07-113.97,11.42-38.26,36.84-64.77,56.99-81.41Z"/>
          <path class="f" d="M215.74,39.12c-16.03-5.39-48.63-13.57-81.41,0,0,0-30.6,12.66-52.92,48.85C15.46,194.88,41.8,702.64,154.68,710.75c31.49,2.26,59.89-35.06,61.06-36.63,33.35-44.91-2.92-84.81,12.21-158.75,18.05-88.2,23.45-83.01,38.3-155.07,7.13-34.59,17.68-57.37,10.55-125.8-5.65-54.23,7.95-73.7-4.07-113.97-11.42-38.26-36.84-64.77-56.99-81.41Z"/>
        </g>
      </g>
      <rect class="i" x="5" width="650" height="1052.52"/>
    </g>
  </g>
</svg>