<?xml version="1.0" encoding="UTF-8"?>
<svg id="b" data-name="Layer 2" xmlns="http://www.w3.org/2000/svg" width="650" height="900" viewBox="0 0 650 900">
  <defs>
    <style>
      .d {
        fill: none;
      }

      .e {
        fill: #864c9e;
      }

      .e, .f {
        stroke: #231f20;
        stroke-miterlimit: 10;
        stroke-width: 10px;
      }

      .f {
        fill: #c69;
      }
    </style>
  </defs>
  <g id="c" data-name="Layer 1">
    <g>
      <g>
        <path class="e" d="M508.33,714.61c-74.03,23.07-188.69,25.94-276.52,17.54-72.19-7.18-131.36-22.9-158.12-56.66-25.23-31.96-24.87-71.92-26.27-107.7-.79-92.36-.14-199.55-.27-289.91,2.2-46.24-7.06-115.84,51.44-152.07,70.51-43.88,136.81,32.68,224.2,6.14,74.74-22.7,216.85-16.75,240.69,5.83,27.7,26.51,31.21,56.16,34.11,88.69,2.98,61.18.96,128.21,1.52,192.96-.21,54.31.43,103.37-.4,152-3.63,56.1,1.12,113.35-90.15,143.1l-.24.08Z"/>
        <path class="f" d="M605.87,610.67c.19-106.29-5.36-269.12-7.93-375.36-1.07-33.53-7.81-71.32-31.48-94.19-25.95-32.59-194.05-30.19-230.78-12.65-148.48,38.19-193.55-93.88-277.49,47.24-20.7,34.8-9.85,79.17-11.03,119.08,2.85,107.82-13.67,266.74-.96,374.66,17.45,142.48,391.72,108.48,483.08,80.63l22.98-6.72c75.32-24.05,53.38-53.32,53.62-132.7ZM137.16,604.53c-33.14,0-60-26.86-60-60s26.86-60,60-60,60,26.86,60,60-26.86,60-60,60ZM253.01,562.92l-75.83-111.87,91.64-113.1,114.89-.85,93.47,111.74-74.17,112.98-150,1.11ZM521.52,604.53c-33.14,0-60-26.86-60-60s26.86-60,60-60,60,26.86,60,60-26.86,60-60,60Z"/>
      </g>
      <rect class="d" width="650" height="900"/>
    </g>
  </g>
</svg>