<?xml version="1.0" encoding="UTF-8"?>
<svg id="b" data-name="Layer 2" xmlns="http://www.w3.org/2000/svg" width="650" height="1053.81" viewBox="0 0 650 1053.81">
  <defs>
    <style>
      .d {
        fill: #f26739;
      }

      .d, .e, .f, .g, .h {
        stroke-miterlimit: 10;
        stroke-width: 10px;
      }

      .d, .e, .f, .h {
        stroke: #010101;
      }

      .e, .i {
        fill: none;
      }

      .f {
        fill: #fbb03c;
      }

      .g {
        stroke: #231f20;
      }

      .g, .h {
        fill: #f79421;
      }
    </style>
  </defs>
  <g id="c" data-name="Layer 1">
    <g>
      <rect class="i" width="650" height="1053.81"/>
      <g>
        <path class="h" d="M273.79,926.66c0,52.18-42.21,94.47-94.27,94.47s-94.27-42.3-94.27-94.47,42.21-94.48,94.27-94.48,94.27,42.3,94.27,94.48Z"/>
        <path class="e" d="M178.85,832.18c8.13-32.85-45.36-26.01-73.02-39.11-33.52-15.87-33.99-52.81-18.29-63.35,21.51-14.43,74.13,20.16,97.52,4.69,11.7-7.74,10.48-24.31,6.1-39.89"/>
        <g>
          <path class="d" d="M463.02,688.43c-34.5-8.74-78.01-16.49-128.53-18-66.7-1.99-122.91,7.58-164.12,18V40.47c40.57,9,93.02,16.72,154.23,16,54.16-.63,101.03-7.71,138.42-16v647.96Z"/>
          <path class="g" d="M588.95,510.46c-153.93,13.93-169.57-16.56-203.56-19.13-2.67-.2-13.15-1.09-24.38,4.06-23.47,10.76-38.52,42.53-34.54,67.05,5.36,32.98,44.67,49.96,71.11,60.95,25.04,10.42,90.49,63.14,191.37-8.2,12.64-8.94,54.41-17.17,41.65-64.1-6.82-25.08-9.8-40.85-41.65-40.63Z"/>
          <path class="g" d="M61.89,509.52c153.93,13.93,169.57-16.56,203.56-19.13,2.67-.2,13.15-1.09,24.38,4.06,23.47,10.76,38.52,42.53,34.54,67.05-5.36,32.98-44.67,49.96-71.11,60.95-25.04,10.42-90.49,63.14-191.37-8.2-12.64-8.94-54.41-17.17-41.65-64.1,6.82-25.08,9.8-40.85,41.65-40.63Z"/>
          <path class="f" d="M419.31,39.1c16-5.38,48.54-13.54,81.27,0,0,0,30.54,12.64,52.82,48.76,65.84,106.73,39.54,613.61-73.14,621.7-31.43,2.26-59.79-35-60.95-36.57-33.3-44.83,2.91-84.66-12.19-158.47-18.02-88.04-82.18-93.16-81.27-166.6.57-45.65,25.39-45.47,32.51-113.78,5.64-54.14-7.93-73.57,4.06-113.78,11.4-38.19,36.77-64.65,56.89-81.27Z"/>
          <path class="f" d="M232.37,39.1c-16-5.38-48.54-13.54-81.27,0,0,0-30.54,12.64-52.82,48.76-65.84,106.73-39.54,613.61,73.14,621.7,31.43,2.26,59.79-35,60.95-36.57,33.3-44.83-2.91-84.66,12.19-158.47,18.02-88.04,82.18-93.16,81.27-166.6-.57-45.65-25.39-45.47-32.51-113.78-5.64-54.14,7.93-73.57-4.06-113.78-11.4-38.19-36.77-64.65-56.89-81.27Z"/>
        </g>
      </g>
    </g>
  </g>
</svg>