<?xml version="1.0" encoding="UTF-8"?>
<svg id="b" data-name="Layer 2" xmlns="http://www.w3.org/2000/svg" width="650" height="1052.52" viewBox="0 0 650 1052.52">
  <defs>
    <style>
      .d {
        fill: #f26739;
      }

      .d, .e, .f, .g, .h {
        stroke-miterlimit: 10;
        stroke-width: 10px;
      }

      .d, .e, .f, .h {
        stroke: #010101;
      }

      .e, .i {
        fill: none;
      }

      .f {
        fill: #fbb03c;
      }

      .g {
        stroke: #231f20;
      }

      .g, .h {
        fill: #f79421;
      }
    </style>
  </defs>
  <g id="c" data-name="Layer 1">
    <g>
      <g>
        <path class="h" d="M253.85,921.72c0,51.07-41.31,92.47-92.27,92.47s-92.27-41.4-92.27-92.47,41.31-92.47,92.27-92.47,92.27,41.4,92.27,92.47Z"/>
        <path class="e" d="M146.47,829.24c7.95-32.15-44.4-25.46-71.47-38.28-32.81-15.53-33.27-51.69-17.9-62.01,21.05-14.13,72.56,19.74,95.45,4.59,11.45-7.58,10.26-23.8,5.97-39.04"/>
        <path class="d" d="M459.8,692.19c-33.77-8.54-76.36-16.11-125.81-17.59-65.29-1.95-120.3,7.41-160.64,17.59V59.07c39.71,8.79,91.05,16.33,150.96,15.63,53.02-.62,98.89-7.53,135.48-15.63v633.12Z"/>
        <path class="g" d="M90.56,455.33c90.69,121.09,123.1,112.5,147.24,135.53,1.89,1.81,9.4,8.85,13.01,20.4,7.54,24.12-5.7,55.87-26.15,69.03-27.5,17.7-65.59.23-90.91-11.8-23.98-11.39-105.19-24.47-119.37-144.57-1.78-15.05-23.15-50.82,19.34-72.28,22.71-11.47,36.13-19.63,56.84,3.68Z"/>
        <path class="g" d="M559.44,455.33c-90.69,121.09-123.1,112.5-147.24,135.53-1.89,1.81-9.4,8.85-13.01,20.4-7.54,24.12,5.7,55.87,26.15,69.03,27.5,17.7,65.59.23,90.91-11.8,23.98-11.39,105.19-24.47,119.37-144.57,1.78-15.05,23.15-50.82-19.34-72.28-22.71-11.47-36.13-19.63-56.84,3.68Z"/>
        <path class="f" d="M213.36,55.13c-14.44-8.03-47.51-13.26-79.55,0,0,0-29.9,12.37-51.7,47.73-64.44,104.47-38.71,600.6,71.59,608.52,30.77,2.21,58.52-34.26,59.66-35.79,32.59-43.88-2.85-82.87,11.93-155.11,17.63-86.18-11.38-80.34,3.14-150.76,6.97-33.8-4.18-51.7-4.18-122.94,0-53.28,18.37-70.27,20.27-110.3s-8.83-68.95-31.15-81.35Z"/>
        <path class="f" d="M435.4,55.13c14.44-8.03,47.51-13.26,79.55,0,0,0,29.9,12.37,51.7,47.73,64.44,104.47,38.71,600.6-71.59,608.52-30.77,2.21-58.52-34.26-59.66-35.79-32.59-43.88,2.85-82.87-11.93-155.11-17.63-86.18,11.38-80.34-3.14-150.76-6.97-33.8,4.18-51.7,4.18-122.94,0-53.28-18.37-70.27-20.27-110.3-1.85-38.96,8.83-68.95,31.15-81.35Z"/>
      </g>
      <rect class="i" width="650" height="1052.52"/>
    </g>
  </g>
</svg>